<svg width="146" height="145" xmlns="http://www.w3.org/2000/svg" xmlns:xlink="http://www.w3.org/1999/xlink" xml:space="preserve" overflow="hidden"><g transform="translate(-848 -305)"><path d="M144.723 72.386C144.723 62.8551 142.833 53.4708 139.2 44.6893 135.567 35.9242 130.239 27.9247 123.543 21.2287 116.798 14.4837 108.799 9.15618 100.034 5.52303 91.2522 1.88989 81.868 0 72.386 0 62.8551 0 53.4708 1.88989 44.6893 5.52303 35.9079 9.15618 27.941 14.4837 21.1961 21.2287 14.5 27.9247 9.15618 35.9242 5.52303 44.6893 1.88989 53.4708 0 62.8551 0 72.386 0 81.868 1.88989 91.2685 5.52303 100.034 9.15618 108.815 14.5 116.782 21.1961 123.527 27.941 130.239 35.9079 135.567 44.6893 139.2 53.4708 142.833 62.8551 144.723 72.386 144.723 81.868 144.723 91.2522 142.833 100.034 139.2 108.799 135.567 116.798 130.239 123.543 123.527 130.239 116.782 135.567 108.815 139.2 100.034 142.833 91.2685 144.723 81.868 144.723 72.386Z" fill="#FF0000" transform="matrix(1.0069 0 0 1 848 305)"/><path d="M125.433 72.3697C125.433 65.3966 124.065 58.5051 121.376 52.0371 118.737 45.618 114.811 39.7691 109.907 34.8652 104.954 29.9124 99.105 26.0022 92.686 23.3466 86.218 20.6584 79.3427 19.2899 72.4022 19.2899 65.4129 19.2899 58.5213 20.6584 52.0534 23.3466 45.6343 26.0022 39.7854 29.9124 34.8815 34.8652 29.9124 39.7691 26.0022 45.618 23.3629 52.0371 20.6747 58.5051 19.3062 65.3966 19.3062 72.3697 19.3062 79.3101 20.6747 86.2669 23.3629 92.6697 26.0022 99.0888 29.9124 104.938 34.8815 109.89 39.7854 114.811 45.6343 118.721 52.0534 121.36 58.5213 124.048 65.4129 125.417 72.4022 125.417 79.3427 125.417 86.218 124.048 92.686 121.36 99.105 118.721 104.954 114.811 109.907 109.89 114.811 104.938 118.737 99.0888 121.376 92.6697 124.065 86.2669 125.433 79.3101 125.433 72.3697Z" fill="#FFFFFF" transform="matrix(1.0069 0 0 1 848 305)"/><path d="M44.5916 93.0118C44.5916 93.4843 44.7382 93.9567 45.1129 94.3315 45.4876 94.7062 46.009 94.9017 46.4326 94.9017L52.9169 94.9017C53.4382 94.9017 53.9107 94.7062 54.2365 94.3315 54.6112 94.0056 54.8067 93.5331 54.8067 93.0118L54.8067 83.7579 89.9489 83.7579 89.9489 93.0118C89.9489 93.4843 90.1444 93.9567 90.5191 94.3315 90.8938 94.7062 91.3663 94.9017 91.8388 94.9017L98.3067 94.9017C98.7792 94.9017 99.2517 94.7062 99.6264 94.3315 100.001 93.9567 100.148 93.4843 100.148 93.0118L100.148 83.7579C101.125 83.7579 102.07 83.3831 102.787 82.6826 103.488 82.0146 103.862 81.0697 103.862 80.0758 103.634 79.1309 103.488 78.186 103.488 77.2084 103.488 76.2635 103.634 75.2697 103.862 74.3736L103.862 67.1073C103.862 66.4393 103.732 65.7388 103.488 65.0708 103.211 64.3702 102.787 63.686 102.217 63.1809 101.696 62.6107 101.044 62.1871 100.327 61.9427 99.6753 61.6657 98.9584 61.5191 98.3067 61.5191L94.3315 51.2876C93.9567 50.7663 93.4354 50.3427 92.8326 50.0494 92.1646 49.7725 91.5129 49.7236 90.8938 49.8702L53.8618 49.8702C53.2427 49.7236 52.591 49.7725 51.923 50.0494 51.3039 50.3427 50.7663 50.7663 50.4404 51.2876L46.4326 61.5191C45.7809 61.5191 45.064 61.6657 44.4124 61.9427 43.6955 62.1871 43.0438 62.6107 42.5225 63.1809 41.9522 63.686 41.5287 64.3702 41.2843 65.0708 41.0073 65.7388 40.8607 66.4393 40.8607 67.1073L40.8607 74.3736C41.382 76.2635 41.382 78.186 40.8607 80.0758 40.8607 80.4994 40.9584 80.9719 41.1539 81.4444 41.3331 81.868 41.6264 82.2916 41.9522 82.6826 42.327 83.0573 42.7506 83.3343 43.223 83.5298 43.6955 83.709 44.168 83.7579 44.5916 83.7579L44.5916 93.0118ZM92.5882 52.8354 96.1236 61.5191C88.2056 61.1933 80.2713 60.9977 72.3045 60.9977 64.3702 60.9977 56.4034 61.1933 48.4691 61.5191L52.1511 52.8354C52.2978 52.5095 52.5421 52.2326 52.8191 52.0371 53.1449 51.809 53.5197 51.7112 53.8618 51.7112L90.8938 51.7112C91.2197 51.7112 91.5944 51.809 91.9365 52.0371 92.2624 52.2326 92.4579 52.5095 92.5882 52.8354ZM49.7399 68.3781C50.2124 68.3781 50.6848 68.4758 51.2225 68.6551 51.6786 68.8506 52.1511 69.1764 52.5421 69.5511 52.9657 69.9421 53.2427 70.4146 53.4382 70.9197 53.6174 71.3921 53.7152 71.9135 53.7152 72.386 53.7152 72.8584 53.6174 73.3309 53.4382 73.8522 53.2427 74.3247 52.9657 74.7972 52.5421 75.1719 52.1511 75.5955 51.6786 75.8888 51.2225 76.068 50.6848 76.2635 50.2124 76.3449 49.7399 76.3449 48.6483 76.3449 47.6545 75.9213 46.9051 75.1719 46.1556 74.4713 45.732 73.4286 45.732 72.386 45.732 71.9135 45.8135 71.3921 46.009 70.9197 46.2045 70.4146 46.4815 69.9421 46.9051 69.5511 47.2798 69.1764 47.7522 68.8506 48.2247 68.6551 48.7461 68.4758 49.2674 68.3781 49.7399 68.3781ZM95.0483 68.3781C96.091 68.3781 97.1174 68.8017 97.8343 69.5511 98.5837 70.3168 99.0073 71.3107 99.0073 72.386 99.0073 73.4286 98.5837 74.4713 97.8343 75.1719 97.1174 75.9213 96.091 76.3449 95.0483 76.3449 94.5758 76.3449 94.0545 76.2635 93.5331 76.068 93.0607 75.8888 92.5882 75.5955 92.2135 75.1719 91.7899 74.7972 91.5129 74.3247 91.3174 73.8522 91.1219 73.3309 91.0404 72.8584 91.0404 72.386 91.0404 71.9135 91.1219 71.3921 91.3174 70.9197 91.5129 70.4146 91.7899 69.9421 92.2135 69.5511 92.5882 69.1764 93.0607 68.8506 93.5331 68.6551 94.0545 68.4758 94.5758 68.3781 95.0483 68.3781Z" fill="#010101" transform="matrix(1.0069 0 0 1 848 305)"/></g></svg>