<svg width="336" height="336" xmlns="http://www.w3.org/2000/svg" xmlns:xlink="http://www.w3.org/1999/xlink" xml:space="preserve" overflow="hidden"><g transform="translate(-472 -192)"><path d="M807.358 359.622C807.358 337.537 802.979 315.791 794.56 295.443 786.141 275.132 773.796 256.595 758.28 241.079 742.65 225.449 724.113 213.104 703.802 204.685 683.453 196.266 661.708 192 639.736 192 617.65 192 595.905 196.266 575.556 204.685 555.207 213.104 536.746 225.449 521.116 241.079 505.6 256.595 493.217 275.132 484.798 295.443 476.379 315.791 472 337.537 472 359.622 472 381.595 476.379 403.378 484.798 423.689 493.217 444.038 505.6 462.499 521.116 478.129 536.746 493.683 555.207 506.028 575.556 514.447 595.905 522.866 617.65 527.245 639.736 527.245 661.708 527.245 683.453 522.866 703.802 514.447 724.113 506.028 742.65 493.683 758.28 478.129 773.796 462.499 786.141 444.038 794.56 423.689 802.979 403.378 807.358 381.595 807.358 359.622Z" fill="#FF0000"/><path d="M762.659 359.585C762.659 343.427 759.488 327.457 753.258 312.469 747.142 297.595 738.044 284.041 726.68 272.678 715.204 261.201 701.65 252.14 686.776 245.987 671.788 239.757 655.856 236.586 639.773 236.586 623.578 236.586 607.608 239.757 592.62 245.987 577.746 252.14 564.192 261.201 552.829 272.678 541.314 284.041 532.253 297.595 526.138 312.469 519.908 327.457 516.737 343.427 516.737 359.585 516.737 375.667 519.908 391.788 526.138 406.625 532.253 421.499 541.314 435.053 552.829 446.529 564.192 457.931 577.746 466.991 592.62 473.107 607.608 479.337 623.578 482.508 639.773 482.508 655.856 482.508 671.788 479.337 686.776 473.107 701.65 466.991 715.204 457.931 726.68 446.529 738.044 435.053 747.142 421.499 753.258 406.625 759.488 391.788 762.659 375.667 762.659 359.585Z" fill="#FFFFFF"/><path d="M490.725 377.329 490.725 341.879 788.671 341.879 788.671 377.329 490.725 377.329Z" fill="#FF0000"/><path d="M596.207 330.779C596.207 331.421 596.433 332.176 597.075 332.742 597.641 333.384 598.396 333.611 599.076 333.611L609.231 333.611C610.855 333.611 612.176 332.289 612.176 330.779L612.176 316.245 667.182 316.245 667.182 330.779C667.182 331.421 667.484 332.176 668.05 332.856 668.73 333.384 669.485 333.611 670.164 333.611L680.32 333.611C681 333.611 681.755 333.384 682.396 332.742 682.963 332.176 683.151 331.421 683.151 330.779L683.151 316.245C684.699 316.245 686.247 315.565 687.342 314.583 688.399 313.489 688.965 311.978 688.965 310.431 688.626 308.996 688.399 307.486 688.399 305.938 688.399 304.428 688.626 302.993 688.965 301.483L688.965 290.044C688.965 289.062 688.852 287.968 688.399 286.873 687.984 285.778 687.342 284.796 686.436 283.928 685.568 283.06 684.586 282.418 683.491 281.965 682.396 281.625 681.302 281.436 680.32 281.436L674.091 265.354C673.562 264.599 672.769 263.806 671.675 263.504 670.693 263.051 669.711 262.938 668.73 263.164L610.628 263.164C609.76 262.938 608.665 263.051 607.684 263.504 606.702 263.806 605.834 264.599 605.305 265.354L599.076 281.436C598.057 281.436 596.962 281.625 595.905 281.965 594.81 282.418 593.828 283.06 592.922 283.928 592.054 284.796 591.412 285.778 590.959 286.873 590.544 287.968 590.431 289.062 590.431 290.044L590.431 301.483C591.186 304.428 591.186 307.486 590.431 310.431 590.431 311.865 590.959 313.375 592.054 314.583 593.262 315.678 594.81 316.245 596.207 316.245L596.207 330.779ZM671.373 267.77 676.922 281.436C664.426 280.87 651.968 280.53 639.622 280.53 627.164 280.53 614.706 280.87 602.247 281.436L608.023 267.77C608.25 267.317 608.552 266.864 609.118 266.562 609.571 266.222 610.1 265.995 610.628 265.995L668.73 265.995C669.296 265.995 669.825 266.222 670.278 266.562 670.806 266.864 671.146 267.317 671.373 267.77ZM604.21 292.12C605.834 292.12 607.495 292.8 608.665 293.895 609.76 295.141 610.44 296.764 610.44 298.387 610.44 300.049 609.76 301.672 608.665 302.767 607.495 303.975 605.834 304.654 604.21 304.654 602.549 304.654 601.039 303.975 599.831 302.767 598.623 301.672 597.981 300.049 597.981 298.387 597.981 296.877 598.51 295.254 599.831 293.895 601.039 292.687 602.662 292.12 604.21 292.12ZM675.186 292.12C676.847 292.12 678.47 292.8 679.565 293.895 680.773 295.141 681.415 296.764 681.415 298.387 681.415 299.935 680.886 301.559 679.565 302.767 678.357 304.088 676.733 304.654 675.186 304.654 673.562 304.654 671.901 303.975 670.806 302.767 669.598 301.672 668.956 300.049 668.956 298.387 668.956 296.877 669.485 295.254 670.806 293.895 672.014 292.687 673.675 292.12 675.186 292.12Z" fill="#010101"/><path d="M607.684 425.501C605.607 425.501 603.418 425.841 601.341 426.709 599.151 427.578 597.188 428.899 595.452 430.56 593.828 432.297 592.507 434.26 591.639 436.449 590.733 438.639 590.431 440.716 590.431 442.83 590.431 444.906 590.733 447.096 591.639 449.285 592.507 451.362 593.828 453.438 595.452 455.062 597.188 456.836 599.151 458.12 601.341 459.026 603.418 459.781 605.607 460.196 607.684 460.196 609.76 460.196 611.95 459.781 614.026 459.026 616.216 458.12 618.292 456.836 619.953 455.062 621.69 453.438 623.011 451.362 623.804 449.285 624.672 447.096 625.125 444.906 625.125 442.83 625.125 440.716 624.672 438.639 623.804 436.449 623.011 434.26 621.69 432.297 619.953 430.56 618.292 428.899 616.216 427.578 614.026 426.709 611.95 425.841 609.76 425.501 607.684 425.501ZM607.684 430.862C610.855 430.862 613.913 432.07 616.216 434.373 618.405 436.563 619.727 439.621 619.727 442.83 619.727 444.264 619.5 445.774 618.858 447.322 618.292 448.719 617.424 450.154 616.216 451.362 615.008 452.57 613.611 453.438 612.176 453.967 610.628 454.646 609.118 454.873 607.684 454.873 604.512 454.873 601.454 453.551 599.265 451.362 596.962 449.059 595.678 446.001 595.678 442.83 595.678 441.357 595.98 439.847 596.547 438.413 597.188 436.902 598.057 435.581 599.265 434.373 600.36 433.165 601.794 432.297 603.304 431.655 604.739 431.089 606.287 430.862 607.684 430.862Z" fill="#010101"/><path d="M671.675 425.501C669.598 425.501 667.409 425.841 665.332 426.709 663.18 427.578 661.179 428.899 659.443 430.56 657.706 432.297 656.46 434.26 655.592 436.449 654.724 438.639 654.384 440.716 654.384 442.83 654.384 444.906 654.724 447.096 655.592 449.285 656.46 451.362 657.706 453.438 659.443 455.062 661.179 456.836 663.18 458.12 665.332 459.026 667.409 459.781 669.598 460.196 671.675 460.196 673.751 460.196 675.941 459.781 678.017 459.026 680.207 458.12 682.17 456.836 683.944 455.062 685.681 453.438 687.002 451.362 687.757 449.285 688.626 447.096 688.965 444.906 688.965 442.83 688.965 440.716 688.626 438.639 687.757 436.449 687.002 434.26 685.681 432.297 683.944 430.56 682.17 428.899 680.207 427.578 678.017 426.709 675.941 425.841 673.751 425.501 671.675 425.501ZM671.675 430.862C674.846 430.862 677.904 432.07 680.207 434.373 682.396 436.563 683.718 439.621 683.718 442.83 683.718 444.264 683.378 445.774 682.849 447.322 682.283 448.719 681.302 450.154 680.207 451.362 678.999 452.57 677.602 453.438 676.054 453.967 674.657 454.646 673.109 454.873 671.675 454.873 668.503 454.873 665.445 453.551 663.18 451.362 660.991 449.059 659.669 446.001 659.669 442.83 659.669 441.357 660.009 439.847 660.538 438.413 661.104 436.902 662.085 435.581 663.18 434.373 664.351 433.165 665.785 432.297 667.333 431.655 668.73 431.089 670.278 430.862 671.675 430.862Z" fill="#010101"/><path d="M642.378 393.487C642.378 391.071 641.397 388.692 639.66 386.918 637.924 385.181 635.507 384.2 633.091 384.2 631.996 384.2 630.788 384.426 629.58 384.841 628.523 385.294 627.428 386.049 626.371 386.918 625.503 387.899 624.861 388.881 624.295 390.089 623.88 391.297 623.653 392.392 623.653 393.487L631.694 392.845 631.694 399.489 625.729 404.246 626.371 408.173 642.378 396.205 642.378 393.487Z" fill="#010101"/><path d="M643.7 420.782 632.449 425.841C631.77 426.181 631.128 426.596 630.449 427.276 629.882 427.917 629.467 428.597 629.24 429.465 628.901 430.333 628.901 431.089 629.014 431.957 629.014 432.75 629.354 433.505 629.656 434.146L639.434 450.758C640 451.664 640.982 452.306 642.19 452.645 643.247 452.834 644.342 452.532 645.248 451.966 646.116 451.437 646.758 450.456 646.984 449.248 647.211 448.153 646.984 446.945 646.418 446.19L638.339 433.278 655.743 424.859C656.838 424.218 657.819 423.085 658.121 421.537 658.348 420.782 658.348 420.027 658.235 419.347 658.008 418.592 657.819 418.064 657.48 417.497L646.644 402.396C645.776 401.302 644.455 400.32 642.718 400.131 641.095 399.905 639.547 400.433 638.339 401.302L623.427 412.363 614.366 412.363C613.498 412.363 612.403 412.816 611.648 413.571 610.855 414.326 610.553 415.308 610.553 416.289 610.553 417.158 610.855 418.253 611.648 419.045 612.403 419.8 613.498 420.14 614.366 420.14L626.598 420.14 635.054 414.44 643.7 420.782Z" fill="#010101"/></g></svg>