<svg width="336" height="336" xmlns="http://www.w3.org/2000/svg" xmlns:xlink="http://www.w3.org/1999/xlink" xml:space="preserve" overflow="hidden"><g transform="translate(-398 -360)"><path d="M733.358 527.622C733.358 505.65 728.979 483.791 720.56 463.443 712.141 443.132 699.796 424.595 684.28 409.079 668.65 393.449 650.113 381.104 629.802 372.685 609.453 364.266 587.708 360 565.736 360 543.65 360 521.905 364.266 501.556 372.685 481.207 381.104 462.746 393.449 447.116 409.079 431.6 424.595 419.217 443.132 410.798 463.443 402.379 483.791 398 505.65 398 527.622 398 549.595 402.379 571.453 410.798 591.802 419.217 612.151 431.6 630.612 447.116 646.129 462.746 661.683 481.207 674.028 501.556 682.447 521.905 690.866 543.65 695.245 565.736 695.245 587.708 695.245 609.453 690.866 629.802 682.447 650.113 674.028 668.65 661.683 684.28 646.129 699.796 630.612 712.141 612.151 720.56 591.802 728.979 571.453 733.358 549.595 733.358 527.622Z" fill="#FF0000"/><path d="M688.659 527.585C688.659 511.427 685.488 495.457 679.258 480.582 673.142 465.595 664.044 452.041 652.68 440.678 641.204 429.201 627.65 420.216 612.776 413.987 597.788 407.871 581.856 404.699 565.773 404.699 549.578 404.699 533.608 407.871 518.62 413.987 503.746 420.216 490.192 429.201 478.829 440.678 467.314 452.041 458.253 465.595 452.138 480.582 445.908 495.457 442.737 511.427 442.737 527.585 442.737 543.818 445.908 559.788 452.138 574.625 458.253 589.613 467.314 603.166 478.829 614.529 490.192 625.931 503.746 634.991 518.62 641.221 533.608 647.337 549.578 650.508 565.773 650.508 581.856 650.508 597.788 647.337 612.776 641.221 627.65 634.991 641.204 625.931 652.68 614.529 664.044 603.166 673.142 589.613 679.258 574.625 685.488 559.788 688.659 543.818 688.659 527.585Z" fill="#FFFFFF"/><path d="M619.118 505.197C621.421 505.197 623.611 504.442 625.347 503.045 627.197 501.611 628.519 499.534 629.085 497.345 629.613 495.155 629.387 492.739 628.519 490.662 627.537 488.586 625.989 486.849 623.913 485.755 624.479 485.113 624.894 484.433 625.347 483.678 625.687 483.036 625.989 482.13 626.216 481.262 626.669 479.412 626.555 477.336 625.914 475.486 625.121 473.523 623.913 471.862 622.516 470.767 621.761 470.125 620.968 469.672 620.213 469.37 619.458 469.03 618.59 468.804 617.91 468.69 618.023 467.369 617.91 466.085 617.797 464.764 617.57 463.329 617.155 461.933 616.589 460.498 615.418 457.667 613.417 454.986 610.586 453.023 607.868 451.06 604.697 450.078 601.639 449.965 600.091 449.852 598.581 449.965 597.222 450.305 595.787 450.607 594.579 451.06 593.484 451.513 592.842 448.002 591.408 444.717 589.142 441.999 586.84 439.243 583.895 437.053 580.61 435.845 577.213 434.675 573.588 434.335 570.115 434.864 566.604 435.543 563.206 437.053 560.601 439.356 558.072 437.28 555.014 435.845 551.729 435.43 548.558 434.864 545.16 435.317 542.216 436.638 539.158 437.846 536.553 439.923 534.665 442.528 532.702 445.17 531.494 448.342 531.305 451.513 530.324 451.286 529.229 451.173 528.134 451.06 527.039 451.06 525.831 451.173 524.623 451.4 522.094 451.928 519.715 453.249 517.827 455.099 515.864 457.1 514.656 459.516 514.128 461.933 513.788 463.141 513.675 464.311 513.675 465.519 513.788 466.614 513.901 467.709 514.241 468.69 513.486 468.69 512.58 468.917 511.825 469.257 510.956 469.559 510.201 469.898 509.409 470.465 507.785 471.56 506.464 473.183 505.595 475.033 504.84 476.996 504.614 479.072 504.84 480.96 505.067 481.942 505.256 482.81 505.709 483.565 506.049 484.433 506.464 485.113 506.917 485.755 504.954 486.849 503.293 488.586 502.424 490.662 501.443 492.739 501.329 495.155 501.896 497.345 502.311 499.421 503.519 501.498 505.482 503.045 507.332 504.442 509.635 505.197 511.711 505.197L619.118 505.197Z" fill="#FF9B00"/><path d="M580.082 500.403C581.743 500.403 583.253 499.761 584.348 498.553 585.556 497.458 586.198 495.91 586.198 494.287 586.764 492.324 586.764 490.134 586.198 488.171 584.574 484.282 584.121 480.016 584.99 475.977 584.348 477.638 583.593 479.261 582.498 480.809L578.874 461.329 576.495 466.161C574.947 460.687 572.003 455.552 567.85 451.513 566.755 454.231 565.018 456.76 563.018 458.837 560.941 461.782 559.658 465.066 559.318 468.653 557.996 469.747 556.788 471.069 555.693 472.503 554.712 473.9 553.844 475.561 553.315 477.185L549.54 475.977C550.106 480.016 550.106 484.093 549.54 488.171 548.898 490.549 548.558 492.965 548.332 495.495 548.332 496.023 548.558 496.703 549.125 497.231 549.54 497.685 550.219 497.873 550.748 497.873L555.693 497.873C556.26 497.873 556.902 497.685 557.468 497.231 557.883 496.703 558.11 496.023 558.11 495.495L558.11 490.549C558.11 488.813 558.751 487.151 559.846 485.83 560.941 484.509 562.489 483.527 564.226 483.187 564.905 482.093 565.207 480.922 565.434 479.601 568.945 483.074 570.342 488.284 569.171 493.079 568.378 494.173 567.737 495.382 567.095 496.59 566.529 497.873 566 499.081 565.434 500.403L580.082 500.403Z" fill="#010101"/><path d="M528.134 490.549 525.151 485.717C527.341 484.396 529.984 483.754 532.702 483.98 535.458 484.169 537.836 485.264 539.837 486.925L528.134 490.549Z" fill="#010101"/><path d="M531.305 477.222 538.667 476.014C538.856 475.901 539.082 475.788 539.195 475.599 539.309 475.486 539.422 475.259 539.309 475.033 538.667 473.372 537.572 472.05 536.138 471.069 534.061 470.956 531.947 471.409 530.097 472.277 530.324 472.919 530.512 473.598 530.512 474.391 530.626 475.033 530.626 475.788 530.512 476.467L531.305 477.222Z" fill="#010101"/><path d="M528.889 466.199C535.043 466.727 540.857 468.804 545.991 472.315 544.896 469.143 542.933 466.312 540.29 464.009 537.761 461.782 534.59 460.234 531.305 459.592 530.626 459.592 530.097 459.818 529.531 460.347 529.115 460.8 528.889 461.442 528.889 462.008L528.889 466.199Z" fill="#010101"/><path d="M543.424 451.513C545.991 451.815 548.256 452.683 550.257 454.231 552.22 455.779 553.617 457.78 554.523 460.158 554.599 458.761 554.599 457.44 554.297 455.968 554.07 454.458 553.428 453.136 552.635 451.815 551.88 450.531 550.786 449.436 549.691 448.53 548.483 447.662 547.161 447.133 545.991 446.68L543.424 451.513Z" fill="#010101"/><path d="M561.809 450.342 566.642 445.51C566.982 445.208 567.17 444.755 567.17 444.302 567.17 443.773 566.982 443.32 566.642 443.018L565.434 441.81C565.018 441.32 564.339 441.018 563.584 441.018 562.904 441.018 562.225 441.32 561.809 441.81L558.072 444.302C557.845 444.529 557.657 444.982 557.657 445.51 557.657 445.963 557.845 446.378 558.072 446.718L561.809 450.342Z" fill="#010101"/><path d="M577.628 456.458C579.704 454.382 582.234 452.721 584.952 451.551 585.443 451.098 585.669 450.531 585.669 449.738 585.669 448.983 585.443 448.342 584.952 447.889 584.537 447.435 583.895 447.133 583.102 447.133 582.347 447.133 581.705 447.435 581.252 447.889 579.062 450.191 577.741 453.287 577.628 456.458Z" fill="#010101"/><path d="M583.668 473.523C586.273 471.333 589.218 469.37 592.314 467.595 595.372 465.972 598.618 464.764 602.054 463.782L602.054 458.837C598.09 459.479 594.277 461.14 590.879 463.782 587.595 466.387 585.178 469.785 583.668 473.523Z" fill="#010101"/><path d="M592.2 483.225 592.729 473.485C592.616 472.919 592.729 472.277 592.956 471.711 593.182 471.069 593.484 470.427 593.937 469.974 594.919 468.879 596.24 468.426 597.335 468.426 598.543 468.426 599.864 468.879 600.846 469.974 601.827 470.956 602.167 472.39 602.054 473.485 601.941 474.995 601.412 476.543 600.544 477.827 599.675 479.186 598.43 480.167 597.108 480.847L592.2 483.225Z" fill="#010101"/><path d="M604.885 468.653 604.432 471.862C604.432 472.088 604.432 472.428 604.546 472.73 604.659 473.07 604.885 473.409 605.074 473.636 605.301 473.825 605.64 474.051 605.942 474.164 606.282 474.278 606.622 474.278 606.886 474.278L609.378 474.731C611.152 474.278 612.549 472.843 613.002 471.107 613.417 470.087 613.115 468.879 612.247 468.351 611.266 467.671 610.057 467.784 609.378 468.653L608.094 469.106 604.885 468.653Z" fill="#010101"/><path d="M593.182 487.718C595.711 486.623 598.467 485.981 601.186 485.755 603.904 485.415 606.66 485.641 609.378 486.208L609.378 482.017C606.547 481.564 603.602 481.791 600.733 482.546 599.336 483.036 598.014 483.565 596.693 484.207 595.485 485 594.277 485.755 593.182 486.736L593.182 487.718Z" fill="#010101"/><path d="M598.316 494.022C597.448 493.909 596.769 493.154 596.769 492.286 596.769 491.418 597.448 490.625 598.316 490.511 601.714 489.643 605.187 490.323 608.094 492.286 608.094 492.928 607.755 493.607 607.302 494.136 606.886 494.815 606.282 495.268 605.64 495.495L598.316 494.022Z" fill="#010101"/><path d="M502.991 601.089C502.991 602.071 503.293 603.166 504.161 604.034 505.105 604.827 506.2 605.242 507.181 605.242L521.716 605.242C522.811 605.242 523.906 604.827 524.661 604.034 525.416 603.166 525.982 602.184 525.982 601.089L525.982 580.174 604.999 580.174 604.999 601.089C604.999 602.071 605.338 603.166 606.207 604.034 607.075 604.827 608.17 605.242 609.151 605.242L623.724 605.242C624.706 605.242 625.8 604.827 626.669 604.034 627.537 603.166 627.877 602.071 627.877 601.089L627.877 580.174C630.142 580.174 632.256 579.306 633.766 577.758 635.314 576.248 636.182 574.058 636.182 571.869 635.616 569.792 635.427 567.603 635.427 565.413 635.427 563.223 635.616 561.147 636.182 559.071L636.182 542.686C636.182 541.251 635.956 539.741 635.314 538.08 634.748 536.57 633.766 535.135 632.558 533.927 631.35 532.606 629.84 531.738 628.292 531.096 626.782 530.529 625.234 530.227 623.724 530.227L614.739 507.236C613.984 506.066 612.889 505.084 611.454 504.404 610.057 503.876 608.51 503.763 607.075 503.989L523.792 503.989C522.471 503.763 520.923 503.876 519.526 504.404 518.092 505.084 516.884 506.066 516.129 507.236L507.181 530.227C505.633 530.227 504.085 530.529 502.538 531.096 500.99 531.738 499.593 532.606 498.271 533.927 497.063 535.135 496.082 536.57 495.553 538.08 494.874 539.741 494.647 541.251 494.647 542.686L494.647 559.071C495.742 563.223 495.742 567.716 494.647 571.869 494.647 572.85 494.76 573.945 495.213 574.927 495.667 576.022 496.308 576.89 497.063 577.758 497.932 578.551 498.838 579.193 499.895 579.646 500.914 580.061 501.971 580.174 502.991 580.174L502.991 601.089ZM610.926 510.747 618.892 530.227C601.072 529.435 583.14 529.133 565.32 529.133 547.388 529.133 529.569 529.435 511.749 530.227L519.942 510.747C520.281 509.992 520.848 509.35 521.489 508.897 522.245 508.331 523 508.142 523.792 508.142L607.075 508.142C607.868 508.142 608.736 508.331 609.378 508.897 610.171 509.35 610.586 509.992 610.926 510.747ZM514.505 545.631C516.884 545.631 519.187 546.499 520.848 548.235 522.584 549.897 523.453 552.2 523.453 554.578 523.453 556.994 522.584 559.184 520.848 560.92 519.187 562.582 516.884 563.563 514.505 563.563 512.202 563.563 509.899 562.582 508.163 560.92 506.502 559.184 505.52 556.994 505.52 554.578 505.52 552.2 506.502 549.897 508.163 548.235 509.899 546.499 512.202 545.631 514.505 545.631ZM616.4 545.631C617.495 545.631 618.59 545.857 619.647 546.272 620.742 546.725 621.836 547.367 622.742 548.235 623.611 549.142 624.253 550.123 624.706 551.331 625.121 552.426 625.347 553.483 625.347 554.578 625.347 556.994 624.366 559.184 622.742 560.92 620.968 562.582 618.778 563.563 616.4 563.563 613.984 563.563 611.681 562.582 610.057 560.92 608.283 559.184 607.415 556.994 607.415 554.578 607.415 552.2 608.283 549.897 610.057 548.235 611.681 546.499 613.984 545.631 616.4 545.631Z" fill="#010101"/></g></svg>