<?xml version="1.0" encoding="UTF-8" standalone="no"?>
<svg
   width="251"
   height="251"
   version="1.1"
   id="svg3072"
   sodipodi:docname="Spain_traffic_signal_r308d.svg"
   inkscape:version="1.2.2 (732a01da63, 2022-12-09)"
   xmlns:inkscape="http://www.inkscape.org/namespaces/inkscape"
   xmlns:sodipodi="http://sodipodi.sourceforge.net/DTD/sodipodi-0.dtd"
   xmlns="http://www.w3.org/2000/svg"
   xmlns:svg="http://www.w3.org/2000/svg">
  <defs
     id="defs3076" />
  <sodipodi:namedview
     id="namedview3074"
     pagecolor="#ffffff"
     bordercolor="#000000"
     borderopacity="0.25"
     inkscape:showpageshadow="2"
     inkscape:pageopacity="0.0"
     inkscape:pagecheckerboard="0"
     inkscape:deskcolor="#d1d1d1"
     showgrid="false"
     inkscape:zoom="1.5956175"
     inkscape:cx="172.03371"
     inkscape:cy="199.60924"
     inkscape:window-width="1920"
     inkscape:window-height="991"
     inkscape:window-x="-9"
     inkscape:window-y="-9"
     inkscape:window-maximized="1"
     inkscape:current-layer="g14425"
     showguides="false" />
  <path
     id="circle2954-4"
     style="fill:#e41408;fill-rule:evenodd;stroke-linecap:round;paint-order:stroke fill markers"
     d="m 250.5,125.5 a 125,125 0 0 1 -125,125 125,125 0 0 1 -125,-125 125,125 0 0 1 125,-125 125,125 0 0 1 125,125 z" />
  <path
     id="circle2956-6"
     style="fill:#ffffff;fill-rule:evenodd;stroke-width:0.477797;stroke-linecap:round;paint-order:stroke fill markers"
     d="M 217.16666,125.5 A 91.666656,91.666656 0 0 1 125.5,217.16666 91.666656,91.666656 0 0 1 33.833344,125.5 91.666656,91.666656 0 0 1 125.5,33.833344 91.666656,91.666656 0 0 1 217.16666,125.5 Z" />
  <g
     id="g14425"
     style="fill:#008000"
     transform="translate(-358.54598,-76.422308)">
    <path
       fill-rule="evenodd"
       fill="#ff0000"
       fill-opacity="1"
       d="m 372.97753,215.16901 v -26.4106 h 222.1369 v 26.4106 h -222.1369"
       id="path13446"
       style="fill:#e41408;stroke-width:0.815179;fill-opacity:1" />
    <path
       id="path3055"
       style="fill:#000000;stroke-width:3.8932"
       d="m 469.66711,222.66804 c 0,0 -7.23045,0.65203 -3.5358,8.19702 0,0.16351 0.88753,0.63911 -0.31925,2.57013 -0.0767,0.0401 -2.99955,4.85307 -6.09071,9.95351 -2.17957,-1.02585 -4.60998,-1.60442 -7.17809,-1.60442 -9.32032,0 -16.87309,7.55276 -16.87309,16.87305 0,9.32031 7.55277,16.87308 16.87309,16.87308 9.32028,0 16.88064,-7.55277 16.88064,-16.87308 0,-5.33591 -2.48168,-10.08588 -6.34926,-13.17755 l 2.57013,-4.16697 17.07079,14.88086 c -0.17364,0.55618 -0.27369,1.21705 -0.27369,1.99982 -0.16352,0.16351 -0.2441,4.50151 4.33422,4.50151 -0.0311,0 6.24407,-0.22113 12.17384,-0.43343 1.60209,7.65321 8.3872,13.40569 16.51569,13.40569 9.31639,0 16.87305,-7.56036 16.87305,-16.88064 0,-9.32032 -7.55666,-16.87309 -16.87305,-16.87309 -2.14613,0 -4.1955,0.4033 -6.08312,1.133 l -4.12894,-7.51267 2.3344,-4.02246 h 2.97313 c 0,0 1.1254,0.33249 1.1254,-1.19381 -0.0818,0 0,-3.46739 0,-3.46739 0,0 0.56374,-2.40437 -2.88949,-1.04175 -0.0818,0 -8.51638,3.54344 -8.51638,3.54344 0,0 -2.32801,1.67668 0.31925,1.99982 0.0818,0 1.93138,0.0837 1.93138,0.0837 l -1.28508,2.97312 h -31.34333 c 0,0 1.76958,-1.36725 0.56269,-3.37614 0,0.0817 -1.28503,-2.16711 -1.28503,-2.16711 0,0 -1.20292,-1.52836 0.64631,-1.52836 h 10.04477 v -4.6688 z m -0.40298,16.40162 h 29.16855 l -9.52008,14.24974 -2.05304,-0.10629 c 0,0 -0.3282,-0.008 -0.79842,0.0759 z m 33.33552,1.6881 2.63854,4.60795 c -2.7794,2.12051 -4.87557,5.08242 -5.91584,8.50878 l -5.17067,-0.27369 z m -50.05654,4.39503 c 1.93005,0 3.76114,0.41077 5.42159,1.14059 -2.29972,3.80128 -4.85128,8.00963 -5.36834,8.86618 -1.51099,0.13859 -2.69938,1.40357 -2.69938,2.9503 0,1.63904 1.33408,2.97682 2.97311,2.98072 1.64294,0 2.97312,-1.33778 2.97312,-2.98072 0,-0.25344 -0.0311,-0.49498 -0.0911,-0.72997 v -0.008 l 5.54326,-8.99544 c 2.9081,2.47814 4.75243,6.16473 4.75243,10.2805 0,7.45544 -6.04517,13.50454 -13.50454,13.50454 -7.45154,0 -13.48931,-6.0491 -13.48931,-13.50454 0,-7.45158 6.03777,-13.50454 13.48931,-13.50454 z m 62.92232,0.13704 c 7.45547,0 13.49694,6.0415 13.49694,13.49695 0,7.45543 -6.04147,13.49694 -13.49694,13.49694 -6.30142,0 -11.59162,-4.31351 -13.0787,-10.15124 6.71487,-0.24022 13.48172,-0.47903 13.48172,-0.47903 1.64293,0 2.89709,-1.76362 2.89709,-3.40655 0,-1.61209 -1.36231,-3.43746 -2.96553,-3.5054 l -4.77524,-8.69888 c 1.39143,-0.48478 2.88376,-0.75279 4.44066,-0.75279 z m -8.53156,3.03397 3.52058,6.13634 -7.6267,-0.40298 c 0.84545,-2.25771 2.272,-4.23569 4.10612,-5.73336 z" />
    <path
       fill-rule="evenodd"
       fill="#010101"
       fill-opacity="1"
       d="m 476.99276,173.10757 c 0.81518,0.56998 1.79276,1.05718 2.93592,1.30237 1.13998,0.24519 2.28315,0.24519 3.50592,0 1.13998,-0.3248 2.27996,-0.89478 3.09514,-1.63036 0.89797,-0.73239 1.55076,-1.63036 1.95834,-2.52514 h 12.39013 c 0.16239,0.64959 0.32479,1.30237 0.65277,1.95515 0.32481,0.65278 0.73239,1.38517 1.22277,1.95516 1.06038,1.30557 2.36276,2.36594 3.99312,2.93593 1.63036,0.65278 3.34352,0.89797 4.89109,0.65278 0.81518,-0.0828 1.55075,-0.32798 2.28314,-0.56998 0.65279,-0.328 1.30556,-0.65279 1.87556,-0.98077 0.4872,-0.40759 1.06037,-0.81519 1.54757,-1.38518 0.56999,-0.48719 0.97758,-1.13998 1.38517,-1.79276 0.81518,-1.46796 1.30556,-3.09832 1.30556,-4.80829 0,-1.71316 -0.40759,-3.42631 -1.22277,-4.81149 -0.40759,-0.73239 -0.81518,-1.30237 -1.30556,-1.87555 -0.56999,-0.56999 -1.05719,-0.97758 -1.63036,-1.38517 -0.56999,-0.40759 -1.13999,-0.73239 -1.87238,-0.97758 -0.65277,-0.32479 -1.38835,-0.49038 -2.20353,-0.65278 -1.63036,-0.24519 -3.34033,-0.0796 -4.89109,0.56999 -1.63036,0.57317 -3.01553,1.63036 -4.0759,2.85313 -0.4872,0.65278 -0.8948,1.30557 -1.22277,1.95834 -0.32481,0.65279 -0.57,1.38518 -0.73239,2.03796 h -11.73734 c 0.0796,-2.36593 0.0796,-4.64589 -0.16559,-6.92904 -0.24201,-2.28315 -0.64959,-4.56629 -1.13997,-6.76664 l 0.40758,-0.1624 c 0.89798,-0.16239 1.46797,-1.06037 1.22277,-1.95835 l -0.81517,-3.34033 0.81517,-0.24519 -0.24519,-1.06037 -1.22277,0.32799 -0.81518,-3.66832 c -0.0796,-0.16559 -0.24519,-0.40759 -0.40759,-0.49039 -0.0796,-0.0828 -0.24519,-0.0828 -0.3248,-0.1624 -0.0828,0 -0.1624,0 -0.32798,0.0796 l -0.4872,0.0828 c -0.40759,0.0828 -0.73557,0.56999 -0.65278,0.97759 l 0.89797,3.66831 -1.38835,0.32799 -0.89479,-3.66831 c 0,-0.16559 -0.1624,-0.32799 -0.32798,-0.4904 -0.16241,-0.0828 -0.24201,-0.0828 -0.3248,-0.0828 -0.1624,-0.0796 -0.24519,-0.0796 -0.32481,0 l -0.49038,0.0828 c -0.24519,0.0828 -0.40758,0.16241 -0.56999,0.4076 -0.0828,0.16239 -0.1624,0.40758 -0.0828,0.56999 l 0.81518,3.66831 -1.30238,0.32799 0.24201,1.05719 0.89796,-0.24201 0.81519,3.42312 c 0.0828,0.40759 0.3248,0.73239 0.73239,0.97758 0.16558,0.1624 0.40759,0.24519 0.65278,0.24519 0.1624,0.0796 0.40759,0 0.56999,0 l 0.49038,-0.0828 c 0.49038,2.12074 0.81518,4.3211 1.06037,6.52145 0.0797,1.06037 0.1624,2.20035 0.1624,3.26072 0.0828,0.56999 0.0828,1.14317 0.0828,1.63037 0,0.32798 0,0.56999 0,0.81518 0,0.1624 -0.0828,0.32799 -0.0828,0.40759 0,0.1624 0,0.32798 0,0.49038 h -10.68014 l -10.26938,-14.42807 7.00865,-26.49339 h 7.50221 l 1.30239,-3.75111 h -12.47291 l -9.78218,37.17354 c -0.73239,0 -1.38517,0.0796 -2.11757,0.1624 -0.73557,0.1624 -1.46796,0.40759 -2.20035,0.73239 -1.46796,0.65278 -2.77352,1.71315 -3.8339,3.09832 -0.97758,1.46796 -1.54757,3.01554 -1.79276,4.6459 -0.0796,0.81518 -0.0796,1.55076 0.0828,2.28315 0.0797,0.73239 0.24519,1.46796 0.4872,2.03795 0.16558,0.65278 0.49038,1.30557 0.89797,1.87555 0.4076,0.65279 0.81518,1.30238 1.38518,1.79276 1.22277,1.13999 2.69073,2.03796 4.32109,2.44555 1.71315,0.49038 3.42313,0.40759 4.97388,0 0.7324,-0.1624 1.46479,-0.49038 2.11756,-0.81518 0.65279,-0.32479 1.22278,-0.73239 1.71316,-1.13998 0.4872,-0.49039 0.97758,-0.98077 1.46796,-1.55076 0.40759,-0.65278 0.81518,-1.30237 1.13998,-2.03795 0.65279,-1.46797 0.89798,-3.09832 0.73239,-4.89109 -0.1624,-1.70996 -0.81518,-3.26072 -1.79276,-4.5631 -0.40759,-0.65279 -0.97758,-1.22277 -1.54757,-1.71316 -0.56999,-0.49038 -1.14316,-0.89797 -1.71316,-1.22277 l 0.97759,-3.58552 10.02736,14.26568 0.81519,1.05718 c 0.49038,0.65278 1.06037,1.30556 1.63036,1.79595 m 34.8076,-2.85313 c 0.32798,-0.24521 0.57317,-0.4904 0.81518,-0.89798 0.16558,-0.4076 0.32798,-0.89798 0.32798,-1.38518 -0.0828,-0.49038 -0.24519,-0.89797 -0.49038,-1.30556 -0.24519,-0.3248 -0.56999,-0.56999 -0.89479,-0.73239 h -6.92904 c 0.3248,-0.81518 0.81518,-1.55075 1.46478,-2.28315 0.73557,-0.65277 1.63037,-1.13997 2.61113,-1.46796 0.97758,-0.24519 2.03795,-0.24519 3.01553,0 0.89479,0.1624 1.70997,0.57 2.36276,1.06038 0.65277,0.56999 1.30556,1.22277 1.71315,2.03795 0.4872,0.89798 0.73239,1.87555 0.65278,2.93593 0,1.05718 -0.24519,2.03796 -0.73557,2.85314 -0.48721,0.89478 -1.06037,1.54756 -1.70998,2.03795 -0.73557,0.48719 -1.55075,0.89478 -2.44554,1.05718 -0.98076,0.16559 -2.03795,0.16559 -3.01871,-0.1624 -0.97759,-0.3248 -1.87238,-0.81518 -2.52516,-1.54757 -0.65278,-0.65278 -1.14316,-1.46796 -1.46796,-2.20034 h 7.25384 m -53.55677,-8.23462 -1.79277,6.76664 c 0.1624,0.40759 0.32481,0.81519 0.65278,1.13999 0.4076,0.40759 0.81518,0.56998 1.22278,0.73557 0.40759,0.0796 0.89479,0.0796 1.38517,-0.0828 0.40759,-0.0828 0.81518,-0.32479 1.13998,-0.65278 l 1.71315,-6.68385 c 0.65278,0.49038 1.30557,1.13998 1.79277,1.95516 0.40759,0.89797 0.73557,1.87555 0.73557,2.85313 0,1.06038 -0.24519,2.03796 -0.65278,2.93593 -0.49038,0.81518 -1.06037,1.46796 -1.71316,2.03795 -0.65278,0.49039 -1.46796,0.89798 -2.36275,1.13998 -0.97758,0.16559 -2.03795,0.16559 -3.01553,-0.0796 -0.98077,-0.24519 -1.87556,-0.73557 -2.61113,-1.46796 -0.6496,-0.65278 -1.13998,-1.38518 -1.46478,-2.12075 -0.32798,-0.81518 -0.49038,-1.63036 -0.49038,-2.60794 0.0828,-0.97758 0.3248,-1.95517 0.89797,-2.85313 0.4872,-0.89479 1.22277,-1.63037 2.03795,-2.11756 0.40759,-0.2452 0.81519,-0.40759 1.30239,-0.57318 0.40758,-0.1624 0.81518,-0.242 1.22277,-0.3248 m 19.31916,8.23461 h 7.98941 c -0.4872,0.48719 -0.97758,0.97757 -1.70997,1.30237 -0.65278,0.32799 -1.46797,0.57 -2.28315,0.57 -0.81518,0 -1.63036,-0.24201 -2.28314,-0.57 -0.73239,-0.3248 -1.30556,-0.81518 -1.71315,-1.30237"
       id="path13524"
       style="fill:#000000;stroke-width:0.815179" />
  </g>
</svg>
