<?xml version="1.0" encoding="UTF-8" standalone="no"?>
<svg
   width="251"
   height="251"
   version="1.1"
   id="svg3072"
   sodipodi:docname="Spain_traffic_signal_r308d.svg"
   inkscape:version="1.2.2 (732a01da63, 2022-12-09)"
   xmlns:inkscape="http://www.inkscape.org/namespaces/inkscape"
   xmlns:sodipodi="http://sodipodi.sourceforge.net/DTD/sodipodi-0.dtd"
   xmlns="http://www.w3.org/2000/svg"
   xmlns:svg="http://www.w3.org/2000/svg">
  <defs
     id="defs3076" />
  <sodipodi:namedview
     id="namedview3074"
     pagecolor="#ffffff"
     bordercolor="#000000"
     borderopacity="0.25"
     inkscape:showpageshadow="2"
     inkscape:pageopacity="0.0"
     inkscape:pagecheckerboard="0"
     inkscape:deskcolor="#d1d1d1"
     showgrid="false"
     inkscape:zoom="1.5956175"
     inkscape:cx="157.61923"
     inkscape:cy="214.02372"
     inkscape:window-width="1920"
     inkscape:window-height="991"
     inkscape:window-x="-9"
     inkscape:window-y="-9"
     inkscape:window-maximized="1"
     inkscape:current-layer="svg3072"
     showguides="false" />
  <path
     id="circle2954-4"
     style="fill:#e41408;fill-rule:evenodd;stroke-linecap:round;paint-order:stroke fill markers"
     d="m 250.5,125.5 a 125,125 0 0 1 -125,125 125,125 0 0 1 -125,-125 125,125 0 0 1 125,-125 125,125 0 0 1 125,125 z" />
  <path
     id="circle2956-6"
     style="fill:#ffffff;fill-rule:evenodd;stroke-width:0.477797;stroke-linecap:round;paint-order:stroke fill markers"
     d="M 217.16666,125.5 A 91.666656,91.666656 0 0 1 125.5,217.16666 91.666656,91.666656 0 0 1 33.833344,125.5 91.666656,91.666656 0 0 1 125.5,33.833344 91.666656,91.666656 0 0 1 217.16666,125.5 Z" />
  <g
     id="g13406"
     transform="translate(-460.49628,13.275165)"
     style="fill:#000000">
    <path
       fill-rule="evenodd"
       fill="#010101"
       fill-opacity="1"
       d="m 571.85344,152.49441 c 0.73238,0.56998 1.54755,1.06035 2.4455,1.46794 0.97757,0.40759 1.87553,0.73238 2.93588,0.97756 2.11753,0.49038 4.31784,0.40759 6.52134,-0.0796 2.20031,-0.57317 4.15544,-1.63034 5.78578,-3.01868 0.81516,-0.64958 1.46794,-1.38515 2.1207,-2.20031 0.56999,-0.81517 1.06036,-1.63034 1.46794,-2.4455 h 22.82468 c 0.24201,1.22275 0.64959,2.4455 1.22275,3.66825 0.56998,1.22275 1.30236,2.4455 2.20032,3.58865 1.87552,2.3627 4.40063,4.31783 7.3365,5.46098 3.01548,1.22275 6.11375,1.54754 9.04645,1.13996 1.46793,-0.1624 2.85308,-0.56998 4.15862,-1.06036 1.22275,-0.48719 2.4455,-1.13995 3.42307,-1.79273 1.06035,-0.73237 2.03792,-1.54754 3.01548,-2.5251 0.89795,-0.98075 1.79591,-2.12071 2.52829,-3.42625 1.46794,-2.52511 2.36272,-5.54059 2.36272,-8.80126 0.0828,-3.18106 -0.81518,-6.19654 -2.27993,-8.80444 -0.65277,-1.30554 -1.55073,-2.4455 -2.4455,-3.50586 -0.98075,-0.97756 -1.95831,-1.79273 -2.93588,-2.52829 -1.06035,-0.64958 -2.20031,-1.30236 -3.42306,-1.87233 -1.30554,-0.49038 -2.6079,-0.89796 -4.07584,-1.06036 -2.93587,-0.49038 -6.11375,-0.16239 -9.12924,0.97756 -2.93586,1.13996 -5.46416,3.01549 -7.41929,5.29859 -0.89795,1.13996 -1.63033,2.36271 -2.2831,3.58546 -0.56998,1.22276 -0.97756,2.44551 -1.30236,3.66825 h -21.60193 c 0.1624,-4.23823 0,-8.47646 -0.40758,-12.71469 -0.40759,-4.23823 -1.14314,-8.39686 -2.12071,-12.55549 l 0.81517,-0.16239 c 0.73238,-0.1624 1.46793,-0.65277 1.87552,-1.38515 0.48719,-0.73238 0.56998,-1.54754 0.40758,-2.2831 l -1.46793,-6.19336 1.38514,-0.32798 -0.48719,-1.95513 -2.2035,0.48719 -1.54754,-6.683777 c -0.0828,-0.407585 -0.32479,-0.732379 -0.65277,-0.977565 -0.40758,-0.245186 -0.81517,-0.245186 -1.13996,-0.162399 l -0.97756,0.245198 c -0.81518,0.162387 -1.30555,0.977553 -1.14315,1.792724 l 1.55073,6.683729 -2.61108,0.65278 -1.54755,-6.683731 c -0.0828,-0.407586 -0.32479,-0.735571 -0.65276,-0.980757 -0.40759,-0.241994 -0.81518,-0.241994 -1.22276,-0.162393 l -0.89477,0.162393 c -0.40759,0.08279 -0.73556,0.327979 -0.98075,0.735558 -0.242,0.3248 -0.242,0.732379 -0.1624,1.139965 l 1.55073,6.683735 -2.52829,0.57317 0.49037,1.95512 1.70994,-0.32479 1.46794,6.19336 c 0.1624,0.73556 0.56999,1.38514 1.38515,1.87552 0.32797,0.24518 0.73556,0.32479 1.14314,0.40758 0.40758,0.0828 0.73238,0.0828 1.13996,0 l 0.81517,-0.24518 c 1.87552,7.90648 2.6079,16.05815 2.28311,24.20982 h -19.72642 l -18.83163,-26.57254 12.88028,-48.74763 h 13.85784 l 2.36271,-6.928921 H 557.09765 L 539.08437,125.5143 c -1.22276,-0.0828 -2.5283,0 -3.91344,0.32478 -1.30555,0.24519 -2.69069,0.65277 -3.99305,1.30555 -2.69069,1.22275 -5.13619,3.17788 -7.01171,5.70617 -1.87552,2.60789 -3.01549,5.54058 -3.34346,8.55926 -0.1624,1.46475 -0.0796,2.85308 0.0828,4.23822 0.1624,1.30236 0.49037,2.6079 0.89795,3.74786 0.40759,1.14314 0.97757,2.28311 1.63034,3.50586 0.73238,1.14315 1.63033,2.20031 2.68751,3.26067 2.1207,2.1207 4.81139,3.66825 7.90966,4.48341 3.0951,0.81517 6.19336,0.81517 9.12924,0 1.38515,-0.32479 2.69068,-0.89476 3.91344,-1.54754 1.22275,-0.65277 2.27992,-1.38514 3.17788,-2.20031 0.97756,-0.73556 1.87552,-1.71313 2.69068,-2.77348 0.81517,-1.13996 1.54755,-2.36272 2.11753,-3.66825 1.14314,-2.7703 1.71312,-5.86857 1.30554,-9.04644 -0.32479,-3.18107 -1.46794,-6.03416 -3.17788,-8.47966 -0.89796,-1.22275 -1.87552,-2.20031 -2.85309,-3.09827 -1.06035,-0.89477 -2.1207,-1.63033 -3.26066,-2.20031 l 1.79273,-6.68374 18.58644,26.24774 1.46476,2.03793 c 0.81517,1.22275 1.87552,2.2831 2.93587,3.26066 m 64.23581,-5.29859 c 0.56998,-0.40758 1.06036,-0.89476 1.46794,-1.63033 0.40758,-0.73237 0.56998,-1.63033 0.56998,-2.4455 -0.0828,-0.89477 -0.40759,-1.70993 -0.81516,-2.4455 -0.49038,-0.65277 -1.06036,-1.13996 -1.63034,-1.46794 h -12.79749 c 0.24201,-0.73237 0.56998,-1.38515 1.05717,-2.11752 0.49038,-0.65277 0.98075,-1.30554 1.63034,-1.95831 1.30554,-1.22275 2.93587,-2.20032 4.81139,-2.6875 1.79274,-0.49038 3.66825,-0.57317 5.46099,-0.16558 0.89795,0.24518 1.71312,0.49037 2.4455,0.81516 0.73238,0.40759 1.38514,0.81517 2.03792,1.30554 0.56997,0.40758 1.13996,0.97756 1.71312,1.63033 0.48719,0.56998 0.97756,1.30555 1.38515,2.12072 0.81516,1.54754 1.30236,3.42305 1.30236,5.29858 -0.0797,1.95512 -0.56998,3.74785 -1.46476,5.29859 -0.40759,0.81516 -0.89796,1.46475 -1.46794,2.11752 -0.49037,0.65277 -1.14314,1.14315 -1.71312,1.63033 -0.65277,0.40759 -1.30236,0.81517 -2.03792,1.14315 -0.81517,0.32479 -1.63033,0.64958 -2.4455,0.81517 -1.79273,0.32478 -3.66825,0.242 -5.54377,-0.32798 -1.79273,-0.56999 -3.42307,-1.54755 -4.64582,-2.7703 -0.65276,-0.65277 -1.13996,-1.30554 -1.63033,-2.03792 -0.40759,-0.73556 -0.73238,-1.38514 -1.06036,-2.12071 h 13.37065 m -98.79762,-15.08058 -3.26067,12.3899 c 0.24201,0.81517 0.64959,1.55073 1.22275,2.2035 0.6496,0.64958 1.38515,1.05717 2.20032,1.22275 0.81516,0.242 1.63034,0.242 2.52511,0 0.81517,-0.24519 1.55073,-0.73557 2.12071,-1.38833 l 3.26066,-12.30712 c 0.56998,0.4872 1.13997,0.97757 1.71313,1.63033 0.56997,0.56999 1.05717,1.30237 1.46475,2.11753 0.89796,1.55073 1.38833,3.34346 1.38833,5.21898 0,1.95513 -0.40758,3.74786 -1.22275,5.29859 -0.40758,0.81516 -0.89796,1.54754 -1.46794,2.11752 -0.49037,0.65277 -1.06035,1.22275 -1.63033,1.63034 -0.65277,0.49037 -1.30554,0.89795 -2.03792,1.30553 -0.73556,0.3248 -1.55072,0.65278 -2.36589,0.81518 -1.79273,0.40757 -3.66825,0.40757 -5.46098,-0.0828 -1.87553,-0.48719 -3.50586,-1.38514 -4.80822,-2.60789 -0.65277,-0.65277 -1.22275,-1.30235 -1.63033,-1.95513 -0.49037,-0.65277 -0.89796,-1.38515 -1.14314,-2.03792 -0.3248,-0.73556 -0.4872,-1.46794 -0.6496,-2.28311 -0.16557,-0.81516 -0.24518,-1.71312 -0.16557,-2.52828 0.0828,-1.79274 0.57316,-3.58547 1.55072,-5.2158 0.97757,-1.71312 2.28311,-3.01549 3.83066,-3.91344 0.73237,-0.48718 1.46793,-0.81517 2.2831,-1.06035 0.40758,-0.1624 0.81516,-0.242 1.13996,-0.3248 0.24519,-0.0828 0.40758,-0.0828 0.56998,-0.1624 0.24519,0 0.40759,-0.0828 0.57316,-0.0828 m 35.62217,15.08058 h 14.75262 c -0.81517,0.97757 -1.87235,1.79274 -3.17788,2.44551 -1.22275,0.65277 -2.69069,0.97756 -4.23823,0.97756 -1.46794,0 -2.93588,-0.32479 -4.23824,-0.97756 -1.22275,-0.65277 -2.2831,-1.46794 -3.09827,-2.44551"
       id="path13402"
       style="fill:#000000;stroke-width:0.815165" />
  </g>
</svg>
