<?xml version="1.0" encoding="UTF-8" standalone="no"?>
<svg
   width="251"
   height="251"
   version="1.1"
   id="svg3072"
   sodipodi:docname="Spain_traffic_signal_r105_(2022).svg"
   inkscape:version="1.2.2 (732a01da63, 2022-12-09)"
   xmlns:inkscape="http://www.inkscape.org/namespaces/inkscape"
   xmlns:sodipodi="http://sodipodi.sourceforge.net/DTD/sodipodi-0.dtd"
   xmlns="http://www.w3.org/2000/svg"
   xmlns:svg="http://www.w3.org/2000/svg">
  <defs
     id="defs3076" />
  <sodipodi:namedview
     id="namedview3074"
     pagecolor="#ffffff"
     bordercolor="#000000"
     borderopacity="0.25"
     inkscape:showpageshadow="2"
     inkscape:pageopacity="0.0"
     inkscape:pagecheckerboard="0"
     inkscape:deskcolor="#d1d1d1"
     showgrid="false"
     inkscape:zoom="1.5956175"
     inkscape:cx="165.13983"
     inkscape:cy="199.60924"
     inkscape:window-width="1920"
     inkscape:window-height="991"
     inkscape:window-x="-9"
     inkscape:window-y="-9"
     inkscape:window-maximized="1"
     inkscape:current-layer="svg3072"
     showguides="false" />
  <path
     id="circle2954-4"
     style="fill:#e41408;fill-rule:evenodd;stroke-linecap:round;paint-order:stroke fill markers"
     d="m 250.5,125.5 a 125,125 0 0 1 -125,125 125,125 0 0 1 -125,-125 125,125 0 0 1 125,-125 125,125 0 0 1 125,125 z" />
  <path
     id="circle2956-6"
     style="fill:#ffffff;fill-rule:evenodd;stroke-width:0.477797;stroke-linecap:round;paint-order:stroke fill markers"
     d="M 217.16666,125.5 A 91.666656,91.666656 0 0 1 125.5,217.16666 91.666656,91.666656 0 0 1 33.833344,125.5 91.666656,91.666656 0 0 1 125.5,33.833344 91.666656,91.666656 0 0 1 217.16666,125.5 Z" />
  <g
     id="g4361"
     style="fill:#000000"
     transform="matrix(0.61165158,0,0,0.61165158,-142.06588,-3.2997806)">
    <path
       fill-rule="evenodd"
       fill="#010101"
       fill-opacity="1"
       d="m 445.5133,231.24605 h 24.9375 c 0.13026,2.13022 0.53125,4.26563 1.0625,6.40106 0.53646,2.1302 1.20312,4.39582 2.27083,6.53124 1.86459,4.26562 4.79688,8.13542 8.39584,11.46875 3.60416,3.33334 7.73437,5.72916 12.13541,7.33334 2.26563,0.79686 4.53126,1.33333 6.66667,1.72916 2.26563,0.27084 4.40104,0.40104 6.40104,0.40104 2.26563,0 4.53125,-0.26563 6.93229,-0.66667 2.26563,-0.40104 4.66667,-1.06771 7.06771,-2 4.66667,-1.86459 9.06771,-4.66667 12.66667,-8.40104 3.73437,-3.72916 6.53125,-8.13021 8.40104,-12.79688 0.93229,-2.26561 1.59895,-4.66666 2.13021,-6.93228 0.40104,-2.40105 0.53645,-4.66666 0.53645,-6.9375 0,-2.53126 -0.27083,-5.33334 -0.80208,-8.13022 -0.66667,-2.80208 -1.59896,-5.59894 -2.93229,-8.40104 -1.46875,-2.80208 -3.20312,-5.59896 -5.33333,-8.13541 -2.13542,-2.39583 -4.66667,-4.66667 -7.46875,-6.53125 -2.79688,-1.86458 -5.73437,-3.33334 -8.93229,-4.40104 -3.06771,-1.06771 -6.26563,-1.59896 -9.46875,-1.86459 -3.06251,-0.26561 -6.13021,0 -8.93229,0.53125 -2.79688,0.40104 -5.46355,1.20314 -7.86459,2.26563 l -9.20312,-16.13021 5.06771,-7.46875 h 7.0677 c 0.53126,0 1.19792,-0.26563 1.73438,-0.66667 0.53125,-0.53125 0.66666,-1.19792 0.66666,-1.86458 v -8.66667 c -0.26562,-0.93228 -0.93229,-1.86979 -2.26562,-2.26561 -0.53646,-0.13543 -1.20312,-0.13543 -1.73438,0 -0.53645,0.13013 -0.93229,0.39582 -1.33333,0.66666 l -19.86979,7.46354 c -1.33333,0.26562 -2.13021,1.46874 -2.13021,2.80208 0.13027,0.66666 0.40104,1.19792 0.79688,1.73438 0.27083,0.26562 0.53645,0.39583 0.80208,0.53124 0.13541,0.13543 0.26563,0.13543 0.40104,0.13543 0.26563,0.13013 0.40104,0.13013 0.53125,0.13013 h 6 l -4.13021,6.26563 h -72.53645 l 3.06771,-5.59889 -2.9323,-11.46354 h 21.19792 c 2.53645,0 4.53645,-2 4.53645,-4.53646 0,-1.06771 -0.40104,-2.26563 -1.33333,-3.19792 -0.93749,-0.93228 -2.13541,-1.33334 -3.20312,-1.33334 h -19.0677 c -1.72918,0.40106 -3.72918,1.19792 -5.46355,2.53126 -1.73437,1.33333 -3.20312,3.20313 -4,5.46874 -0.93229,2.26563 -1.06771,4.53126 -0.66667,6.79688 0.26563,2.13542 1.19792,4 2.26563,5.46875 l -13.19792,24.40104 c -2.40104,-1.20312 -5.06771,-2.13541 -8,-2.80208 -2.93749,-0.66667 -6,-1.06771 -9.20312,-1.06771 -3.33333,0.13542 -6.66667,0.53646 -9.86459,1.46875 -3.33333,0.93229 -6.53645,2.40104 -9.46874,4.26563 -3.06771,1.73437 -5.73438,4 -8,6.53646 -2.40104,2.39583 -4.26563,5.19791 -5.86459,8 -1.46875,2.93228 -2.53645,5.86458 -3.20312,8.79687 -0.79688,2.80208 -1.06251,5.59896 -1.06251,8.26563 0,2.27084 0.13027,4.53645 0.53126,6.9375 0.53125,2.26562 1.0677,4.66667 2,6.93228 1.86458,4.66667 4.66666,9.06772 8.40104,12.79688 3.73437,3.73437 8.13021,6.53645 12.79688,8.40104 2.40104,0.93229 4.66666,1.59896 7.0677,2 2.26563,0.40104 4.66667,0.66667 6.80208,0.66667 2.26563,0 4.53126,-0.26563 6.9323,-0.66667 2.26562,-0.40104 4.66666,-1.06771 6.93229,-2 4.80208,-1.86459 9.06771,-4.66667 12.80208,-8.40104 3.73437,-3.72916 6.53125,-8.13021 8.40104,-12.79688 0.93229,-2.26561 1.59896,-4.66666 2,-6.93228 0.53125,-2.40105 0.66667,-4.66666 0.66667,-6.9375 0,-5.46355 -1.33334,-11.0625 -3.86979,-16 -2.40104,-5.0625 -6.13021,-9.33334 -10.66667,-12.66667 l 5.46875,-10 47.86458,42 c 0.40104,0.40104 0.9323,0.53645 1.59896,0.53645 M 386.31539,204.7096 c 2.26562,1.86979 4.26562,4 6,6.53645 1.59896,2.66667 2.93229,5.46355 3.73437,8.53126 0.79688,3.0677 1.19792,6.13541 1.06771,9.20313 -0.13542,3.06249 -0.80208,6 -1.73438,8.66667 -0.93229,2.66666 -2.40104,5.33333 -4.26562,7.72916 -1.73438,2.53645 -4,4.66666 -6.66667,6.53645 -2.53645,1.73438 -5.33333,3.06772 -8.27083,4 -2.93229,0.93229 -5.86458,1.33333 -8.79688,1.33333 -1.73437,0 -3.59896,-0.13541 -5.33333,-0.53645 -1.86979,-0.26563 -3.73437,-0.79688 -5.59896,-1.59896 -3.73437,-1.46354 -7.20312,-3.73437 -10.13541,-6.66667 -2.9323,-2.93229 -5.19792,-6.40104 -6.66667,-10 -0.66667,-1.86458 -1.19792,-3.73437 -1.59896,-5.59896 -0.26563,-1.86457 -0.40104,-3.59896 -0.40104,-5.46874 -0.13541,-2 0.13541,-4.26563 0.66667,-6.53126 0.40104,-2.26562 1.19792,-4.53124 2.40104,-6.80208 1.0677,-2.26562 2.53125,-4.53125 4.40104,-6.53125 1.72917,-2 3.86458,-3.73437 6.13021,-5.19791 2.26563,-1.46876 4.80208,-2.66666 7.33333,-3.33333 2.66667,-0.80209 5.20312,-1.20313 7.73438,-1.33333 2.53125,0 5.0677,0.26561 7.33333,0.79686 2.26563,0.40104 4.26563,1.20314 6.26563,2.13542 l -13.33334,20.66666 c -1.73437,0.26563 -3.19792,1.19792 -4.26562,2.66667 -1.06771,1.33333 -1.46875,3.06772 -1.46875,4.66667 0.13541,1.73438 0.80208,3.33333 2,4.66666 1.20312,1.19792 2.80208,1.86459 4.53645,2 2.66667,0.26563 5.19792,-1.0677 6.53126,-3.33333 0.66666,-1.06771 1.0677,-2.40104 0.93229,-3.73437 0,-1.33334 -0.53125,-2.53124 -1.19792,-3.59896 l 12.66667,-19.86979 m 61.19791,18.93751 -46.26562,-40.53647 h 71.86978 l -22,40.53647 h -3.60416 m 38.9375,-27.46876 c -4.66667,2.93229 -8.66667,6.93229 -11.46875,11.73437 -2.80208,4.79688 -4.40104,10.13021 -4.53125,15.73439 h -10.53646 l 20.53646,-38 6,10.53124 m 21.72917,24 -11.46355,-20.40104 c 1.86459,-0.79687 4,-1.46354 6.13022,-1.86459 2.27082,-0.26561 4.66666,-0.40104 7.20312,-0.26561 4.93229,0.39582 10,2 14.40104,5.06249 4.39584,3.06771 7.72917,7.06771 10,11.60417 1.0625,2.26562 1.72917,4.53124 2.26562,6.66667 0.40104,2.26561 0.53126,4.39583 0.53126,6.39583 0,1.86978 -0.13027,3.60417 -0.53126,5.46874 -0.26562,1.86459 -0.80208,3.73438 -1.46874,5.59896 -1.59896,3.59896 -3.73438,7.06771 -6.66667,10 -2.93229,2.9323 -6.40104,5.20313 -10.13021,6.66667 -1.86979,0.80208 -3.73438,1.33333 -5.60416,1.59896 -1.86459,0.40104 -3.59896,0.53645 -5.46355,0.53645 -3.20312,0.13027 -6.66667,-0.40104 -10.13541,-1.59895 -3.46355,-1.20313 -6.79688,-3.06771 -9.59896,-5.60417 -2.9323,-2.53125 -5.19792,-5.46354 -6.80208,-8.79688 -1.59896,-3.33333 -2.53126,-6.66666 -2.79688,-10 h 26.13021 c 0.93749,-0.26561 1.86979,-0.80208 2.66667,-1.59894 0.80208,-0.8021 1.46874,-1.8698 1.86978,-3.06772 0.40104,-1.06771 0.53126,-2.26562 0.40104,-3.46875 -0.13541,-1.06771 -0.53645,-2.1302 -0.93749,-2.93229 m -10.93229,3.46876 h -18.9323 c 0.26563,-4 1.46875,-7.8698 3.59896,-11.33334 2,-3.60417 4.80208,-6.53646 8.13542,-8.66666 l 9.19792,16.53124 c 0.40104,0.66666 0.53645,1.46876 0,2.26562 -0.40104,0.80208 -1.19792,1.20314 -2,1.20314"
       id="path3626"
       style="fill:#000000;stroke-width:1.33333" />
  </g>
</svg>
