<svg width="336" height="336" xmlns="http://www.w3.org/2000/svg" xmlns:xlink="http://www.w3.org/1999/xlink" xml:space="preserve" overflow="hidden"><g transform="translate(-848 -132)"><path d="M1183.36 299.736C1183.36 277.65 1178.98 255.905 1170.56 235.556 1162.14 215.245 1149.8 196.708 1134.28 181.192 1118.65 165.562 1100.11 153.217 1079.8 144.798 1059.45 136.379 1037.71 132 1015.74 132 993.65 132 971.905 136.379 951.556 144.798 931.207 153.217 912.746 165.562 897.116 181.192 881.6 196.708 869.217 215.245 860.798 235.556 852.379 255.905 848 277.65 848 299.736 848 321.708 852.379 343.491 860.798 363.802 869.217 384.151 881.6 402.612 897.116 418.242 912.746 433.796 931.207 446.141 951.556 454.56 971.905 462.979 993.65 467.358 1015.74 467.358 1037.71 467.358 1059.45 462.979 1079.8 454.56 1100.11 446.141 1118.65 433.796 1134.28 418.242 1149.8 402.612 1162.14 384.151 1170.56 363.802 1178.98 343.491 1183.36 321.708 1183.36 299.736Z" fill="#FF0000"/><path d="M1138.66 299.698C1138.66 283.54 1135.49 267.57 1129.26 252.582 1123.14 237.708 1114.04 224.155 1102.68 212.791 1091.2 201.314 1077.65 192.253 1062.78 186.1 1047.79 179.871 1031.86 176.699 1015.77 176.699 999.578 176.699 983.608 179.871 968.62 186.1 953.746 192.253 940.192 201.314 928.829 212.791 917.314 224.155 908.253 237.708 902.138 252.582 895.908 267.57 892.737 283.54 892.737 299.698 892.737 315.781 895.908 331.901 902.138 346.738 908.253 361.613 917.314 375.166 928.829 386.643 940.192 398.044 953.746 407.105 968.62 413.221 983.608 419.45 999.578 422.621 1015.77 422.621 1031.86 422.621 1047.79 419.45 1062.78 413.221 1077.65 407.105 1091.2 398.044 1102.68 386.643 1114.04 375.166 1123.14 361.613 1129.26 346.738 1135.49 331.901 1138.66 315.781 1138.66 299.698Z" fill="#FFFFFF"/><path d="M1042.62 326.956C1042.62 328.277 1043.07 329.598 1044.05 330.466 1045.03 331.448 1046.24 332.014 1047.64 332.014 1049 332.014 1050.32 331.448 1051.19 330.466 1052.17 329.598 1052.73 328.277 1052.73 326.956 1052.73 325.672 1052.17 324.351 1051.19 323.331 1050.32 322.463 1049 321.897 1047.64 321.897 1046.24 321.897 1045.03 322.463 1044.05 323.331 1043.07 324.351 1042.62 325.672 1042.62 326.956Z" fill="#010101"/><path d="M1054.66 314.157C1054.66 315.592 1055.19 316.8 1056.17 317.782 1057.15 318.763 1058.36 319.216 1059.79 319.216 1061.11 319.216 1062.4 318.763 1063.34 317.782 1064.32 316.8 1064.85 315.592 1064.85 314.157 1064.85 312.836 1064.32 311.515 1063.34 310.646 1062.4 309.665 1061.11 309.098 1059.79 309.098 1058.36 309.098 1057.15 309.665 1056.17 310.646 1055.19 311.515 1054.66 312.836 1054.66 314.157Z" fill="#010101"/><path d="M1071.91 314.157C1071.91 315.592 1072.48 316.8 1073.5 317.782 1074.48 318.763 1075.69 319.216 1077.08 319.216 1078.41 319.216 1079.73 318.763 1080.6 317.782 1081.58 316.8 1082.14 315.592 1082.14 314.157 1082.14 312.836 1081.58 311.515 1080.6 310.646 1079.73 309.665 1078.41 309.098 1077.08 309.098 1075.69 309.098 1074.48 309.665 1073.5 310.646 1072.48 311.515 1071.91 312.836 1071.91 314.157Z" fill="#010101"/><path d="M1054.66 295.583C1054.66 296.904 1055.19 298.226 1056.17 299.207 1057.15 300.189 1058.36 300.604 1059.79 300.604 1061.11 300.604 1062.4 300.189 1063.34 299.207 1064.32 298.226 1064.85 296.904 1064.85 295.583 1064.85 294.262 1064.32 292.94 1063.34 292.034 1062.4 291.053 1061.11 290.524 1059.79 290.524 1058.36 290.524 1057.15 291.053 1056.17 292.034 1055.19 292.94 1054.66 294.262 1054.66 295.583Z" fill="#010101"/><path d="M1071.91 295.583C1071.91 296.904 1072.48 298.226 1073.5 299.207 1074.48 300.189 1075.69 300.604 1077.08 300.604 1078.41 300.604 1079.73 300.189 1080.6 299.207 1081.58 298.226 1082.14 296.904 1082.14 295.583 1082.14 294.262 1081.58 292.94 1080.6 292.034 1079.73 291.053 1078.41 290.524 1077.08 290.524 1075.69 290.524 1074.48 291.053 1073.5 292.034 1072.48 292.94 1071.91 294.262 1071.91 295.583Z" fill="#010101"/><path d="M1054.66 277.009C1054.66 278.33 1055.19 279.613 1056.17 280.595 1057.15 281.501 1058.36 282.03 1059.79 282.03 1061.11 282.03 1062.4 281.501 1063.34 280.595 1064.32 279.613 1064.85 278.33 1064.85 277.009 1064.85 275.687 1064.32 274.366 1063.34 273.384 1062.4 272.478 1061.11 271.95 1059.79 271.95 1058.36 271.95 1057.15 272.478 1056.17 273.384 1055.19 274.366 1054.66 275.687 1054.66 277.009Z" fill="#010101"/><path d="M1071.91 277.009C1071.91 278.33 1072.48 279.613 1073.5 280.595 1074.48 281.501 1075.69 282.03 1077.08 282.03 1078.41 282.03 1079.73 281.501 1080.6 280.595 1081.58 279.613 1082.14 278.33 1082.14 277.009 1082.14 275.687 1081.58 274.366 1080.6 273.384 1079.73 272.478 1078.41 271.95 1077.08 271.95 1075.69 271.95 1074.48 272.478 1073.5 273.384 1072.48 274.366 1071.91 275.687 1071.91 277.009Z" fill="#010101"/><path d="M1089.62 277.348C1089.62 278.745 1090.18 279.953 1091.05 280.935 1092.03 281.916 1093.36 282.369 1094.68 282.369 1095.96 282.369 1097.28 281.916 1098.3 280.935 1099.17 279.953 1099.74 278.745 1099.74 277.348 1099.74 276.027 1099.17 274.706 1098.3 273.837 1097.28 272.818 1095.96 272.252 1094.68 272.252 1093.36 272.252 1092.03 272.818 1091.05 273.837 1090.18 274.706 1089.62 276.027 1089.62 277.348Z" fill="#010101"/><path d="M1106.91 277.348C1106.91 278.745 1107.44 279.953 1108.38 280.935 1109.36 281.916 1110.65 282.369 1111.97 282.369 1113.29 282.369 1114.61 281.916 1115.59 280.935 1116.46 279.953 1116.99 278.745 1116.99 277.348 1116.99 276.027 1116.46 274.706 1115.59 273.837 1114.61 272.818 1113.29 272.252 1111.97 272.252 1110.65 272.252 1109.36 272.818 1108.38 273.837 1107.44 274.706 1106.91 276.027 1106.91 277.348Z" fill="#010101"/><path d="M1089.62 258.698C1089.62 260.02 1090.18 261.341 1091.05 262.323 1092.03 263.191 1093.36 263.757 1094.68 263.757 1095.96 263.757 1097.28 263.191 1098.3 262.323 1099.17 261.341 1099.74 260.02 1099.74 258.698 1099.74 257.377 1099.17 256.093 1098.3 255.225 1097.28 254.244 1095.96 253.677 1094.68 253.677 1093.36 253.677 1092.03 254.244 1091.05 255.225 1090.18 256.093 1089.62 257.377 1089.62 258.698Z" fill="#010101"/><path d="M1106.91 258.698C1106.91 260.02 1107.44 261.341 1108.38 262.323 1109.36 263.191 1110.65 263.757 1111.97 263.757 1113.29 263.757 1114.61 263.191 1115.59 262.323 1116.46 261.341 1116.99 260.02 1116.99 258.698 1116.99 257.377 1116.46 256.093 1115.59 255.225 1114.61 254.244 1113.29 253.677 1111.97 253.677 1110.65 253.677 1109.36 254.244 1108.38 255.225 1107.44 256.093 1106.91 257.377 1106.91 258.698Z" fill="#010101"/><path d="M1089.43 295.583C1089.43 296.904 1089.96 298.226 1090.94 299.207 1091.81 300.189 1093.13 300.604 1094.45 300.604 1095.77 300.604 1097.06 300.189 1098.04 299.207 1098.98 298.226 1099.51 296.904 1099.51 295.583 1099.51 294.262 1098.98 292.94 1098.04 292.034 1097.06 291.053 1095.77 290.524 1094.45 290.524 1093.13 290.524 1091.81 291.053 1090.94 292.034 1089.96 292.94 1089.43 294.262 1089.43 295.583Z" fill="#010101"/><path d="M922.146 343.378C922.146 344.133 922.486 345.115 923.128 345.756 923.883 346.549 924.751 346.851 925.658 346.851L938.003 346.851C939.966 346.851 941.476 345.341 941.476 343.378L941.476 325.747 1008.41 325.747 1008.41 343.378C1008.41 344.133 1008.71 345.115 1009.39 345.756 1010.15 346.549 1011.13 346.851 1011.88 346.851L1024.31 346.851C1025.17 346.851 1026.04 346.549 1026.8 345.756 1027.48 345.115 1027.78 344.133 1027.78 343.378L1027.78 325.747C1029.67 325.747 1031.52 324.992 1032.84 323.671 1034.12 322.387 1034.8 320.5 1034.8 318.65 1034.35 316.913 1034.12 315.177 1034.12 313.289 1034.12 311.439 1034.35 309.589 1034.8 307.853L1034.8 294.073C1034.8 292.751 1034.57 291.43 1034.12 290.109 1033.59 288.825 1032.84 287.617 1031.74 286.522 1030.76 285.541 1029.44 284.748 1028.12 284.219 1026.8 283.691 1025.51 283.464 1024.31 283.464L1016.72 263.984C1015.96 263.002 1015.06 262.096 1013.89 261.643 1012.68 261.115 1011.36 261.001 1010.15 261.228L939.739 261.228C938.531 261.001 937.323 261.115 936.153 261.643 934.831 262.096 933.963 263.002 933.284 263.984L925.658 283.464C924.449 283.464 923.128 283.691 921.807 284.219 920.485 284.748 919.202 285.541 918.22 286.522 917.125 287.617 916.333 288.825 915.804 290.109 915.351 291.43 915.162 292.751 915.162 294.073L915.162 307.853C916.031 311.439 916.031 315.177 915.162 318.65 915.162 319.518 915.238 320.424 915.578 321.293 915.917 322.161 916.446 322.916 917.239 323.671 917.88 324.351 918.635 324.879 919.504 325.219 920.41 325.559 921.278 325.747 922.146 325.747L922.146 343.378ZM1013.43 266.929 1020.15 283.464C1005.01 282.785 989.913 282.483 974.849 282.483 959.748 282.483 944.572 282.785 929.471 283.464L936.455 266.929C936.795 266.287 937.248 265.758 937.776 265.418 938.418 264.965 939.098 264.777 939.739 264.777L1010.15 264.777C1010.79 264.777 1011.47 264.965 1012.11 265.418 1012.68 265.758 1013.09 266.287 1013.43 266.929ZM931.887 296.451C933.963 296.451 935.813 297.244 937.248 298.641 938.644 300.076 939.513 302.039 939.513 304.002 939.513 306.078 938.644 307.928 937.248 309.363 935.813 310.797 933.963 311.666 931.887 311.666 929.924 311.666 927.923 310.797 926.526 309.363 925.091 307.928 924.336 306.078 924.336 304.002 924.336 303.133 924.449 302.152 924.865 301.284 925.204 300.302 925.733 299.434 926.526 298.641 927.281 297.999 928.149 297.357 929.131 297.018 929.999 296.678 930.981 296.451 931.887 296.451ZM1018.04 296.451C1020.04 296.451 1022 297.244 1023.44 298.641 1024.83 300.076 1025.59 302.039 1025.59 304.002 1025.59 306.078 1024.83 307.928 1023.44 309.363 1022 310.797 1020.04 311.666 1018.04 311.666 1017.13 311.666 1016.15 311.439 1015.17 311.099 1014.3 310.684 1013.43 310.118 1012.68 309.363 1011.88 308.721 1011.36 307.853 1010.9 306.833 1010.6 305.852 1010.49 304.983 1010.49 304.002 1010.49 302.039 1011.24 300.076 1012.68 298.641 1014.07 297.244 1016.04 296.451 1018.04 296.451Z" fill="#010101"/></g></svg>