<svg width="336" height="336" xmlns="http://www.w3.org/2000/svg" xmlns:xlink="http://www.w3.org/1999/xlink" xml:space="preserve" overflow="hidden"><g transform="translate(-38 -19)"><path d="M373.358 186.622C373.358 164.537 368.979 142.791 360.56 122.443 352.141 102.132 339.796 83.5951 324.28 68.0786 308.65 52.449 290.113 40.1038 269.802 31.6849 249.453 23.2661 227.708 19 205.736 19 183.65 19 161.905 23.2661 141.556 31.6849 121.207 40.1038 102.746 52.449 87.1164 68.0786 71.6 83.5951 59.2171 102.132 50.7982 122.443 42.3793 142.791 38 164.537 38 186.622 38 208.595 42.3793 230.378 50.7982 250.689 59.2171 271.038 71.6 289.499 87.1164 305.129 102.746 320.683 121.207 333.028 141.556 341.447 161.905 349.866 183.65 354.245 205.736 354.245 227.708 354.245 249.453 349.866 269.802 341.447 290.113 333.028 308.65 320.683 324.28 305.129 339.796 289.499 352.141 271.038 360.56 250.689 368.979 230.378 373.358 208.595 373.358 186.622Z" fill="#FF0000"/><path d="M328.659 186.585C328.659 170.427 325.488 154.457 319.258 139.469 313.142 124.595 304.044 111.041 292.68 99.6777 281.204 88.2009 267.65 79.1402 252.776 72.9865 237.788 66.7573 221.856 63.5861 205.773 63.5861 189.578 63.5861 173.608 66.7573 158.62 72.9865 143.746 79.1402 130.192 88.2009 118.829 99.6777 107.314 111.041 98.2535 124.595 92.1375 139.469 85.9083 154.457 82.7371 170.427 82.7371 186.585 82.7371 202.667 85.9083 218.788 92.1375 233.625 98.2535 248.499 107.314 262.053 118.829 273.529 130.192 284.931 143.746 293.991 158.62 300.107 173.608 306.337 189.578 309.508 205.773 309.508 221.856 309.508 237.788 306.337 252.776 300.107 267.65 293.991 281.204 284.931 292.68 273.529 304.044 262.053 313.142 248.499 319.258 233.625 325.488 218.788 328.659 202.667 328.659 186.585Z" fill="#0055FF"/><path d="M107.012 106.473 125.587 87.8611 304.384 266.621 285.809 285.346 107.012 106.473Z" fill="#FF0000"/><path d="M187.501 121.574 194.523 121.574 194.523 91.7119 188.181 91.7119 188.181 92.8822C188.181 93.675 187.954 94.5434 187.275 95.0719 186.973 95.4117 186.633 95.6382 186.18 95.8647 185.878 95.9402 185.425 96.0535 185.085 96.0535L182.329 96.0535 182.329 101.981 187.501 101.981 187.501 121.574Z" fill="#FEFEFE"/><path d="M201.13 111.079 201.13 104.812 211.436 104.812 211.436 111.079 201.13 111.079Z" fill="#FEFEFE"/><path d="M222.158 121.574 229.18 121.574 229.18 91.7119 222.838 91.7119 222.838 92.8822C222.838 93.675 222.611 94.5434 221.932 95.0719 221.63 95.4117 221.29 95.6382 220.799 95.8647 220.497 95.9402 220.044 96.0535 219.704 96.0535L216.986 96.0535 216.986 101.981 222.158 101.981 222.158 121.574Z" fill="#FEFEFE"/><path d="M236.542 113.911C237.108 116.667 238.769 119.083 241.299 120.366 243.262 121.574 245.678 122.141 247.981 122.141 250.473 122.254 252.889 121.461 254.852 120.064 256.929 118.63 258.363 116.553 259.118 114.25 259.987 111.079 259.458 107.681 257.797 104.85 257.042 103.529 256.06 102.434 254.739 101.792 251.568 99.942 247.868 99.6022 244.47 100.81L244.923 98.0921 257.91 98.0921 257.91 91.7119 238.769 91.7119 236.882 107.568 243.828 108.587C244.13 108.021 244.697 107.493 245.338 107.04 245.98 106.587 246.886 106.398 247.755 106.398 248.623 106.398 249.491 106.587 250.171 107.04 250.813 107.493 251.341 108.021 251.681 108.587 252.247 109.569 252.323 110.739 252.134 111.947 251.794 114.024 249.944 115.572 247.755 115.572 246.773 115.572 245.678 115.232 244.81 114.59 243.904 113.835 243.489 112.816 243.262 111.947L236.542 113.911Z" fill="#FEFEFE"/></g></svg>