<svg width="771" height="770" xmlns="http://www.w3.org/2000/svg" xmlns:xlink="http://www.w3.org/1999/xlink" xml:space="preserve" overflow="hidden"><g transform="translate(-1815 -853)"><path d="M1825.5 895.468C1825.5 877.812 1839.81 863.5 1857.47 863.5L2543.53 863.5C2561.19 863.5 2575.5 877.812 2575.5 895.468L2575.5 1580.53C2575.5 1598.19 2561.19 1612.5 2543.53 1612.5L1857.47 1612.5C1839.81 1612.5 1825.5 1598.19 1825.5 1580.53Z" stroke="#FFFFFF" stroke-width="6.875" stroke-miterlimit="8" fill="#FFFFFF" fill-rule="evenodd"/><path d="M1825.5 895.468C1825.5 877.812 1839.81 863.5 1857.47 863.5L2543.53 863.5C2561.19 863.5 2575.5 877.812 2575.5 895.468L2575.5 1580.53C2575.5 1598.19 2561.19 1612.5 2543.53 1612.5L1857.47 1612.5C1839.81 1612.5 1825.5 1598.19 1825.5 1580.53Z" stroke="#000000" stroke-width="20.625" stroke-miterlimit="8" fill="none" fill-rule="evenodd"/><g><g><g><path d="M514.016 256.921C514.016 223.07 507.304 189.74 494.4 158.551 481.496 127.419 462.574 99.0073 438.792 75.2247 414.835 51.2685 386.424 32.3466 355.292 19.4427 324.103 6.53876 290.772 0 257.095 0 223.244 0 189.913 6.53876 158.724 19.4427 127.535 32.3466 99.2388 51.2685 75.2826 75.2247 51.5 99.0073 32.5202 127.419 19.6163 158.551 6.71236 189.74 0 223.07 0 256.921 0 290.599 6.71236 323.987 19.6163 355.118 32.5202 386.308 51.5 414.604 75.2826 438.56 99.2388 462.401 127.535 481.322 158.724 494.226 189.913 507.13 223.244 513.843 257.095 513.843 290.772 513.843 324.103 507.13 355.292 494.226 386.424 481.322 414.835 462.401 438.792 438.56 462.574 414.604 481.496 386.308 494.4 355.118 507.304 323.987 514.016 290.599 514.016 256.921Z" fill="#FF0000" transform="matrix(1.00194 0 0 1 1942 980)"/><path d="M445.504 256.863C445.504 232.097 440.643 207.62 431.095 184.648 421.721 161.849 407.776 141.075 390.358 123.658 372.767 106.067 351.994 92.1792 329.195 82.7472 306.222 73.1994 281.803 68.3388 257.153 68.3388 232.329 68.3388 207.852 73.1994 184.879 82.7472 162.08 92.1792 141.307 106.067 123.889 123.658 106.24 141.075 92.3528 161.849 82.9786 184.648 73.4309 207.62 68.5702 232.097 68.5702 256.863 68.5702 281.514 73.4309 306.222 82.9786 328.963 92.3528 351.762 106.24 372.536 123.889 390.127 141.307 407.602 162.08 421.49 184.879 430.864 207.852 440.412 232.329 445.272 257.153 445.272 281.803 445.272 306.222 440.412 329.195 430.864 351.994 421.49 372.767 407.602 390.358 390.127 407.776 372.536 421.721 351.762 431.095 328.963 440.643 306.222 445.504 281.514 445.504 256.863Z" fill="#0055FF" transform="matrix(1.00194 0 0 1 1942 980)"/><path d="M105.778 134.074 134.247 105.546 408.47 379.538 379.827 408.239 105.778 134.074Z" fill="#FF0000" transform="matrix(1.00194 0 0 1 1942 980)"/></g></g></g></g></svg>