<svg width="336" height="336" xmlns="http://www.w3.org/2000/svg" xmlns:xlink="http://www.w3.org/1999/xlink" xml:space="preserve" overflow="hidden"><g transform="translate(-431 -371)"><path d="M766.358 538.622C766.358 516.537 761.979 494.791 753.56 474.443 745.141 454.132 732.796 435.595 717.28 420.079 701.65 404.449 683.113 392.104 662.802 383.685 642.453 375.266 620.708 371 598.736 371 576.65 371 554.905 375.266 534.556 383.685 514.207 392.104 495.746 404.449 480.116 420.079 464.6 435.595 452.217 454.132 443.798 474.443 435.379 494.791 431 516.537 431 538.622 431 560.595 435.379 582.378 443.798 602.689 452.217 623.038 464.6 641.499 480.116 657.129 495.746 672.683 514.207 685.028 534.556 693.447 554.905 701.866 576.65 706.245 598.736 706.245 620.708 706.245 642.453 701.866 662.802 693.447 683.113 685.028 701.65 672.683 717.28 657.129 732.796 641.499 745.141 623.038 753.56 602.689 761.979 582.378 766.358 560.595 766.358 538.622Z" fill="#FF0000"/><path d="M721.659 538.585C721.659 522.427 718.488 506.457 712.258 491.469 706.142 476.595 697.044 463.041 685.68 451.678 674.204 440.201 660.65 431.14 645.776 424.987 630.788 418.757 614.856 415.586 598.773 415.586 582.578 415.586 566.608 418.757 551.62 424.987 536.746 431.14 523.192 440.201 511.829 451.678 500.314 463.041 491.253 476.595 485.138 491.469 478.908 506.457 475.737 522.427 475.737 538.585 475.737 554.667 478.908 570.788 485.138 585.625 491.253 600.499 500.314 614.053 511.829 625.529 523.192 636.931 536.746 645.991 551.62 652.107 566.608 658.337 582.578 661.508 598.773 661.508 614.856 661.508 630.788 658.337 645.776 652.107 660.65 645.991 674.204 636.931 685.68 625.529 697.044 614.053 706.142 600.499 712.258 585.625 718.488 570.788 721.659 554.667 721.659 538.585Z" fill="#0055FF"/><path d="M500.012 618.621 518.586 637.346 697.497 458.473 678.809 439.861 500.012 618.621Z" fill="#FF0000"/><path d="M500.012 458.473 518.586 439.861 697.497 618.621 678.809 637.346 500.012 458.473Z" fill="#FF0000"/></g></svg>