<svg width="336" height="336" xmlns="http://www.w3.org/2000/svg" xmlns:xlink="http://www.w3.org/1999/xlink" xml:space="preserve" overflow="hidden"><g transform="translate(-64 -374)"><path d="M399.358 541.622C399.358 519.537 394.979 497.791 386.56 477.443 378.141 457.132 365.796 438.595 350.28 423.079 334.65 407.449 316.113 395.104 295.802 386.685 275.453 378.266 253.708 374 231.736 374 209.65 374 187.905 378.266 167.556 386.685 147.207 395.104 128.746 407.449 113.116 423.079 97.6 438.595 85.2171 457.132 76.7982 477.443 68.3793 497.791 64 519.537 64 541.622 64 563.595 68.3793 585.378 76.7982 605.689 85.2171 626.038 97.6 644.499 113.116 660.129 128.746 675.683 147.207 688.028 167.556 696.447 187.905 704.866 209.65 709.245 231.736 709.245 253.708 709.245 275.453 704.866 295.802 696.447 316.113 688.028 334.65 675.683 350.28 660.129 365.796 644.499 378.141 626.038 386.56 605.689 394.979 585.378 399.358 563.595 399.358 541.622Z" fill="#FF0000"/><path d="M354.659 541.585C354.659 525.427 351.488 509.457 345.258 494.469 339.142 479.595 330.044 466.041 318.68 454.678 307.204 443.201 293.65 434.14 278.776 427.987 263.788 421.757 247.856 418.586 231.773 418.586 215.578 418.586 199.608 421.757 184.62 427.987 169.746 434.14 156.192 443.201 144.829 454.678 133.314 466.041 124.253 479.595 118.138 494.469 111.908 509.457 108.737 525.427 108.737 541.585 108.737 557.667 111.908 573.788 118.138 588.625 124.253 603.499 133.314 617.053 144.829 628.529 156.192 639.931 169.746 648.991 184.62 655.107 199.608 661.337 215.578 664.508 231.773 664.508 247.856 664.508 263.788 661.337 278.776 655.107 293.65 648.991 307.204 639.931 318.68 628.529 330.044 617.053 339.142 603.499 345.258 588.625 351.488 573.788 354.659 557.667 354.659 541.585Z" fill="#0055FF"/><path d="M133.012 461.473 151.587 442.861 330.497 621.621 311.809 640.346 133.012 461.473Z" fill="#FF0000"/></g></svg>