<svg width="336" height="336" xmlns="http://www.w3.org/2000/svg" xmlns:xlink="http://www.w3.org/1999/xlink" xml:space="preserve" overflow="hidden"><g transform="translate(-404 -30)"><path d="M739.358 197.622C739.358 175.537 734.979 153.791 726.56 133.443 718.141 113.132 705.796 94.5951 690.28 79.0786 674.65 63.449 656.113 51.1038 635.802 42.6849 615.453 34.2661 593.708 30 571.736 30 549.65 30 527.905 34.2661 507.556 42.6849 487.207 51.1038 468.746 63.449 453.116 79.0786 437.6 94.5951 425.217 113.132 416.798 133.443 408.379 153.791 404 175.537 404 197.622 404 219.595 408.379 241.378 416.798 261.689 425.217 282.038 437.6 300.499 453.116 316.129 468.746 331.683 487.207 344.028 507.556 352.447 527.905 360.866 549.65 365.245 571.736 365.245 593.708 365.245 615.453 360.866 635.802 352.447 656.113 344.028 674.65 331.683 690.28 316.129 705.796 300.499 718.141 282.038 726.56 261.689 734.979 241.378 739.358 219.595 739.358 197.622Z" fill="#FF0000"/><path d="M694.659 197.585C694.659 181.427 691.488 165.457 685.258 150.469 679.142 135.595 670.044 122.041 658.68 110.678 647.204 99.2009 633.65 90.1402 618.776 83.9865 603.788 77.7573 587.856 74.5861 571.773 74.5861 555.578 74.5861 539.608 77.7573 524.62 83.9865 509.746 90.1402 496.192 99.2009 484.829 110.678 473.314 122.041 464.253 135.595 458.138 150.469 451.908 165.457 448.737 181.427 448.737 197.585 448.737 213.667 451.908 229.788 458.138 244.625 464.253 259.499 473.314 273.053 484.829 284.529 496.192 295.931 509.746 304.991 524.62 311.107 539.608 317.337 555.578 320.508 571.773 320.508 587.856 320.508 603.788 317.337 618.776 311.107 633.65 304.991 647.204 295.931 658.68 284.529 670.044 273.053 679.142 259.499 685.258 244.625 691.488 229.788 694.659 213.667 694.659 197.585Z" fill="#0055FF"/><path d="M473.012 117.473 491.587 98.8611 670.384 277.621 651.809 296.346 473.012 117.473Z" fill="#FF0000"/><path d="M515.258 292.646 522.242 292.646 522.242 262.746 516.013 262.746 516.013 263.954C516.013 264.709 515.673 265.502 515.031 266.144 514.805 266.484 514.351 266.672 514.049 266.786 513.596 267.012 513.257 267.012 512.841 267.012L510.161 267.012 510.161 273.015 515.258 273.015 515.258 292.646Z" fill="#FEFEFE"/><path d="M526.81 270.448C525.602 275.053 525.602 279.848 526.81 284.341 527.452 286.719 528.773 288.909 530.51 290.683 531 290.985 531.416 291.325 531.982 291.665 533.605 292.646 535.569 293.175 537.532 293.175 538.74 293.175 539.948 293.062 541.156 292.873 542.666 292.533 544.101 291.778 545.309 290.683 547.498 288.38 548.707 285.322 548.593 282.264 548.593 279.093 547.272 276.035 544.969 273.845 544.44 273.392 543.761 272.939 543.119 272.637 539.835 270.976 536.135 271.203 533.19 273.166 533.19 272.524 533.379 271.882 533.719 271.203 534.172 270.561 534.7 269.995 535.342 269.579 536.022 269.089 536.777 268.749 537.532 268.749 538.324 268.673 539.08 268.749 539.608 268.975 540.174 269.089 540.59 269.466 541.043 269.806 541.496 270.221 541.798 270.674 541.911 271.203L548.14 268.56C547.272 266.37 545.649 264.596 543.572 263.614 539.948 261.651 535.455 261.651 531.869 263.614 531.302 263.954 530.774 264.294 530.17 264.822 528.66 266.37 527.452 268.333 526.81 270.448ZM533.719 283.019C533.719 282.566 533.719 282.038 533.719 281.585 534.058 279.508 535.682 277.998 537.758 277.998 539.835 277.998 541.609 279.508 541.798 281.585 541.911 282.038 541.911 282.566 541.798 283.019 541.609 285.096 539.835 286.606 537.758 286.606 535.682 286.606 534.058 285.096 533.719 283.019Z" fill="#FEFEFE"/><path d="M551.274 282.151 551.274 275.884 561.58 275.884 561.58 282.151 551.274 282.151Z" fill="#FEFEFE"/><path d="M564.298 283.661C564.412 284.869 564.751 285.964 565.204 287.059 566.186 289.475 568.036 291.212 570.452 292.193 574.076 293.515 578.003 293.628 581.589 292.307 584.345 291.438 586.422 289.249 587.177 286.417 587.516 285.322 587.63 284.227 587.63 283.019 587.743 281.811 587.403 280.603 586.837 279.622 586.195 278.413 585.1 277.658 583.779 277.205 584.685 276.903 585.44 276.337 585.969 275.469 587.177 273.732 587.63 271.429 586.95 269.315 586.195 266.031 583.666 263.501 580.419 262.633 577.55 261.991 574.605 261.991 571.887 262.746 570.905 262.973 569.999 263.426 569.131 263.841 567.734 264.596 566.526 265.691 565.658 267.239 564.751 268.673 564.412 270.297 564.298 271.882L571.434 272.524C571.32 271.089 572 269.768 573.284 269.089 574.605 268.447 576.266 268.22 577.663 268.56 579.098 268.975 580.079 270.297 579.966 271.769 579.853 272.637 579.324 273.392 578.531 273.732 577.776 274.034 577.021 274.147 576.266 274.261 575.36 274.374 574.605 274.374 573.85 274.261L573.85 280.49C575.058 280.377 576.153 280.377 577.323 280.49 578.644 280.49 579.853 281.471 580.192 282.793 580.419 284.114 579.853 285.435 578.644 286.077 578.003 286.417 577.248 286.606 576.455 286.606 575.7 286.606 574.945 286.606 574.265 286.417 573.51 286.191 572.755 285.738 572.189 284.982 571.66 284.341 571.434 283.472 571.434 282.68L564.298 283.661Z" fill="#FEFEFE"/><path d="M596.426 292.646 603.486 292.646 603.486 262.746 597.219 262.746 597.219 263.954C597.219 264.709 596.879 265.502 596.2 266.144 595.898 266.484 595.558 266.672 595.218 266.786 594.803 267.012 594.35 267.012 594.048 267.012L591.292 267.012 591.292 273.015 596.426 273.015 596.426 292.646Z" fill="#FEFEFE"/></g></svg>