<svg width="336" height="336" xmlns="http://www.w3.org/2000/svg" xmlns:xlink="http://www.w3.org/1999/xlink" xml:space="preserve" overflow="hidden"><g transform="translate(-762 -24)"><path d="M1097.74 192.038C1097.74 169.952 1093.36 148.207 1084.94 127.858 1076.52 107.547 1064.17 89.0103 1048.66 73.4939 1033.03 57.8643 1014.49 45.5191 994.18 37.1002 973.831 28.6813 952.085 24.4153 930.113 24.4153 908.028 24.4153 886.282 28.6813 865.933 37.1002 845.585 45.5191 827.124 57.8643 811.494 73.4939 795.978 89.0103 783.595 107.547 775.176 127.858 766.757 148.207 762.378 169.952 762.378 192.038 762.378 214.01 766.757 235.793 775.176 256.104 783.595 276.453 795.978 294.914 811.494 310.544 827.124 326.098 845.585 338.443 865.933 346.862 886.282 355.281 908.028 359.66 930.113 359.66 952.085 359.66 973.831 355.281 994.18 346.862 1014.49 338.443 1033.03 326.098 1048.66 310.544 1064.17 294.914 1076.52 276.453 1084.94 256.104 1093.36 235.793 1097.74 214.01 1097.74 192.038Z" fill="#FFFFFF"/><path d="M1097.74 192.038C1097.74 169.915 1093.36 148.169 1084.94 127.82 1076.52 107.509 1064.17 89.0103 1048.66 73.4939 1033.03 57.8643 1014.53 45.5191 994.218 37.1002 973.869 28.6813 952.123 24.4153 930.113 24.4153" stroke="#343434" stroke-width="0.755056" stroke-linejoin="round" fill="none"/><path d="M930.151 24.4153C908.066 24.4153 886.32 28.6813 865.971 37.1002 845.622 45.5191 827.161 57.8643 811.532 73.4939 796.015 89.0103 783.632 107.509 775.214 127.82 766.757 148.169 762.378 169.915 762.378 192.038" stroke="#343434" stroke-width="0.755056" stroke-linejoin="round" fill="none"/><path d="M762.378 192C762.378 213.972 766.757 235.755 775.214 256.067 783.632 276.415 796.015 294.876 811.532 310.506 827.161 326.06 845.622 338.405 865.971 346.824 886.32 355.281 908.066 359.66 930.151 359.66" stroke="#343434" stroke-width="0.755056" stroke-linejoin="round" fill="none"/><path d="M930.113 359.66C952.123 359.66 973.869 355.281 994.218 346.824 1014.53 338.405 1033.03 326.06 1048.66 310.506 1064.17 294.876 1076.52 276.415 1084.94 256.067 1093.36 235.755 1097.74 213.972 1097.74 192" stroke="#343434" stroke-width="0.755056" stroke-linejoin="round" fill="none"/><path d="M1089.54 192.038C1089.54 171.047 1085.39 150.396 1077.42 131.029 1069.42 111.7 1057.6 94.0692 1042.84 79.3456 1028.01 64.4333 1010.49 52.7299 991.122 44.6508 971.755 36.6472 950.991 32.4944 930.113 32.4944 909.123 32.4944 888.359 36.6472 869.105 44.6508 849.738 52.7299 832.145 64.4333 817.27 79.3456 802.509 94.0692 790.805 111.7 782.726 131.029 774.76 150.396 770.608 171.047 770.608 192.038 770.608 212.915 774.76 233.717 782.726 253.046 790.805 272.413 802.509 289.893 817.27 304.768 832.145 319.529 849.738 331.346 869.105 339.311 888.359 347.277 909.123 351.43 930.113 351.43 950.991 351.43 971.755 347.277 991.122 339.311 1010.49 331.346 1028.01 319.529 1042.84 304.768 1057.6 289.893 1069.42 272.413 1077.42 253.046 1085.39 233.717 1089.54 212.915 1089.54 192.038Z" fill="#0055FF"/><path d="M979.343 223.977C980.551 228.356 983.156 232.282 986.893 235.114 990.48 237.945 994.973 239.493 999.578 239.493 1004.15 239.493 1008.64 237.945 1012.38 235.114 1015.96 232.282 1018.61 228.356 1019.78 223.977L1046.81 223.977 1046.81 144.431 889.491 144.431 889.491 150.472 866.953 150.472C864.725 150.472 862.762 151.869 862.12 154.058L854.985 181.958 835.542 181.958C831.918 181.958 828.445 183.355 825.916 185.884 823.386 188.413 821.989 191.887 821.989 195.398L821.989 211.896 813.004 211.896 813.004 223.977 840.035 223.977C841.205 228.356 843.848 232.282 847.435 235.114 851.172 237.945 855.551 239.493 860.233 239.493 862.309 239.493 864.499 239.153 866.84 238.398 869.029 237.643 871.106 236.548 872.956 235.114 874.919 233.717 876.466 231.942 877.788 229.979 878.996 228.016 879.978 225.94 880.506 223.977L979.343 223.977ZM865.48 181.958 871.445 160.967 889.491 160.967 889.491 181.958 865.48 181.958Z" fill="#FEFEFE"/></g></svg>