<svg width="336" height="336" xmlns="http://www.w3.org/2000/svg" xmlns:xlink="http://www.w3.org/1999/xlink" xml:space="preserve" overflow="hidden"><g transform="translate(-20 -66)"><path d="M355.736 234.038C355.736 211.952 351.356 190.207 342.938 169.858 334.519 149.547 322.173 131.01 306.657 115.494 291.027 99.8643 272.491 87.5191 252.18 79.1002 231.831 70.6814 210.085 66.4153 188.113 66.4153 166.028 66.4153 144.282 70.6814 123.933 79.1002 103.585 87.5191 85.1236 99.8643 69.4939 115.494 53.9775 131.01 41.5946 149.547 33.1757 169.858 24.7569 190.207 20.3775 211.952 20.3775 234.038 20.3775 256.01 24.7569 277.793 33.1757 298.104 41.5946 318.453 53.9775 336.914 69.4939 352.544 85.1236 368.098 103.585 380.443 123.933 388.862 144.282 397.281 166.028 401.66 188.113 401.66 210.085 401.66 231.831 397.281 252.18 388.862 272.491 380.443 291.027 368.098 306.657 352.544 322.173 336.914 334.519 318.453 342.938 298.104 351.356 277.793 355.736 256.01 355.736 234.038Z" fill="#FFFFFF"/><path d="M355.736 234.038C355.736 211.915 351.356 190.169 342.938 169.82 334.519 149.509 322.173 131.01 306.657 115.494 291.027 99.8643 272.529 87.5191 252.218 79.1002 231.869 70.6814 210.123 66.4153 188.113 66.4153" stroke="#343434" stroke-width="0.755056" stroke-linejoin="round" fill="none"/><path d="M188.151 66.4153C166.066 66.4153 144.32 70.6814 123.971 79.1002 103.622 87.5191 85.1613 99.8643 69.5317 115.494 54.0153 131.01 41.6324 149.509 33.2135 169.82 24.7569 190.169 20.3775 211.915 20.3775 234.038" stroke="#343434" stroke-width="0.755056" stroke-linejoin="round" fill="none"/><path d="M20.3775 234C20.3775 255.972 24.7569 277.755 33.2135 298.067 41.6324 318.415 54.0153 336.876 69.5317 352.506 85.1613 368.06 103.622 380.405 123.971 388.824 144.32 397.281 166.066 401.66 188.151 401.66" stroke="#343434" stroke-width="0.755056" stroke-linejoin="round" fill="none"/><path d="M188.113 401.66C210.123 401.66 231.869 397.281 252.218 388.824 272.529 380.405 291.027 368.06 306.657 352.506 322.173 336.876 334.519 318.415 342.938 298.067 351.356 277.755 355.736 255.972 355.736 234" stroke="#343434" stroke-width="0.755056" stroke-linejoin="round" fill="none"/><path d="M347.543 234.038C347.543 213.047 343.391 192.396 335.425 173.029 327.421 153.7 315.604 136.069 300.843 121.346 286.006 106.433 268.489 94.7299 249.122 86.6508 229.755 78.6472 208.991 74.4944 188.113 74.4944 167.123 74.4944 146.359 78.6472 127.105 86.6508 107.738 94.7299 90.1447 106.433 75.2701 121.346 60.5088 136.069 48.8054 153.7 40.7263 173.029 32.7604 192.396 28.6076 213.047 28.6076 234.038 28.6076 254.915 32.7604 275.717 40.7263 295.046 48.8054 314.413 60.5088 331.893 75.2701 346.768 90.1447 361.529 107.738 373.346 127.105 381.311 146.359 389.277 167.123 393.43 188.113 393.43 208.991 393.43 229.755 389.277 249.122 381.311 268.489 373.346 286.006 361.529 300.843 346.768 315.604 331.893 327.421 314.413 335.425 295.046 343.391 275.717 347.543 254.915 347.543 234.038Z" fill="#0055FF"/><path d="M124.689 334.649 147.114 334.649 147.114 252.65C147.114 245.741 148.435 238.983 151.04 232.716 153.683 226.374 157.496 220.598 162.404 215.803 167.236 210.858 172.899 207.044 179.241 204.402 185.622 201.797 192.417 200.475 199.288 200.475L225.3 200.475 216.013 230.64C215.597 233.056 216.692 235.472 218.769 236.68 220.845 237.964 223.45 237.775 225.3 236.227L288.724 189.338 225.3 142.412C223.45 140.902 220.845 140.675 218.769 141.883 216.692 143.204 215.597 145.583 216.013 147.999L225.3 178.164 199.288 178.164C194.909 178.164 190.341 178.503 185.735 179.372 181.091 180.24 176.41 181.561 171.804 183.336 167.236 185.186 162.743 187.489 158.477 190.32 154.211 193.038 150.172 196.323 146.547 199.947 142.961 203.647 139.676 207.573 136.845 211.839 134.089 216.105 131.786 220.598 129.936 225.204 128.2 229.772 126.878 234.491 126.01 239.059 125.142 243.665 124.689 248.271 124.689 252.65L124.689 334.649Z" fill="#FFFFFF"/></g></svg>