<svg width="336" height="336" xmlns="http://www.w3.org/2000/svg" xmlns:xlink="http://www.w3.org/1999/xlink" xml:space="preserve" overflow="hidden"><g transform="translate(-530 -325)"><path d="M865.736 493.038C865.736 470.952 861.356 449.207 852.938 428.858 844.519 408.547 832.173 390.01 816.657 374.494 801.027 358.864 782.491 346.519 762.18 338.1 741.831 329.681 720.085 325.415 698.113 325.415 676.028 325.415 654.282 329.681 633.933 338.1 613.585 346.519 595.124 358.864 579.494 374.494 563.978 390.01 551.595 408.547 543.176 428.858 534.757 449.207 530.378 470.952 530.378 493.038 530.378 515.01 534.757 536.793 543.176 557.104 551.595 577.453 563.978 595.914 579.494 611.544 595.124 627.098 613.585 639.443 633.933 647.862 654.282 656.281 676.028 660.66 698.113 660.66 720.085 660.66 741.831 656.281 762.18 647.862 782.491 639.443 801.027 627.098 816.657 611.544 832.173 595.914 844.519 577.453 852.938 557.104 861.356 536.793 865.736 515.01 865.736 493.038Z" fill="#FFFFFF"/><path d="M865.736 493.038C865.736 470.915 861.356 449.169 852.938 428.82 844.519 408.509 832.173 390.01 816.657 374.494 801.027 358.864 782.529 346.519 762.218 338.1 741.869 329.681 720.123 325.415 698.113 325.415" stroke="#010101" stroke-width="0.755056" stroke-linejoin="round" fill="none"/><path d="M698.151 325.415C676.066 325.415 654.32 329.681 633.971 338.1 613.622 346.519 595.161 358.864 579.532 374.494 564.015 390.01 551.632 408.509 543.214 428.82 534.757 449.169 530.378 470.915 530.378 493.038" stroke="#010101" stroke-width="0.755056" stroke-linejoin="round" fill="none"/><path d="M530.378 493C530.378 514.972 534.757 536.755 543.214 557.067 551.632 577.415 564.015 595.876 579.532 611.506 595.161 627.06 613.622 639.405 633.971 647.824 654.32 656.281 676.066 660.66 698.151 660.66" stroke="#010101" stroke-width="0.755056" stroke-linejoin="round" fill="none"/><path d="M698.113 660.66C720.123 660.66 741.869 656.281 762.218 647.824 782.529 639.405 801.027 627.06 816.657 611.506 832.173 595.876 844.519 577.415 852.938 557.067 861.356 536.755 865.736 514.972 865.736 493" stroke="#010101" stroke-width="0.755056" stroke-linejoin="round" fill="none"/><path d="M857.543 493.038C857.543 472.047 853.391 451.396 845.425 432.029 837.421 412.7 825.604 395.069 810.843 380.346 796.006 365.433 778.489 353.73 759.122 345.651 739.755 337.647 718.991 333.494 698.113 333.494 677.123 333.494 656.359 337.647 637.105 345.651 617.738 353.73 600.145 365.433 585.27 380.346 570.509 395.069 558.805 412.7 550.726 432.029 542.76 451.396 538.608 472.047 538.608 493.038 538.608 513.915 542.76 534.717 550.726 554.046 558.805 573.413 570.509 590.893 585.27 605.768 600.145 620.529 617.738 632.346 637.105 640.311 656.359 648.277 677.123 652.43 698.113 652.43 718.991 652.43 739.755 648.277 759.122 640.311 778.489 632.346 796.006 620.529 810.843 605.768 825.604 590.893 837.421 573.413 845.425 554.046 853.391 534.717 857.543 513.915 857.543 493.038Z" fill="#0055FF"/><path d="M714.762 563.975C712.233 565.599 708.873 565.372 706.457 563.522 705.362 562.767 704.38 561.559 703.927 560.011 703.399 558.614 703.399 557.067 703.701 555.67L715.517 513.084 566.582 513.084 566.582 492.962 566.582 472.84 715.517 472.84 703.701 430.217C703.399 428.896 703.399 427.386 703.927 425.838 704.38 424.403 705.362 423.233 706.457 422.327 707.551 421.458 708.948 420.93 710.609 420.93 712.12 420.817 713.554 421.232 714.762 421.911L831.079 492.962 714.762 563.975Z" fill="#FEFEFE"/></g></svg>