<svg width="336" height="336" xmlns="http://www.w3.org/2000/svg" xmlns:xlink="http://www.w3.org/1999/xlink" xml:space="preserve" overflow="hidden"><g transform="translate(-450 -248)"><path d="M785.736 416.038C785.736 393.952 781.356 372.207 772.938 351.858 764.519 331.547 752.173 313.01 736.657 297.494 721.027 281.864 702.491 269.519 682.18 261.1 661.831 252.681 640.085 248.415 618.113 248.415 596.028 248.415 574.282 252.681 553.933 261.1 533.585 269.519 515.124 281.864 499.494 297.494 483.978 313.01 471.595 331.547 463.176 351.858 454.757 372.207 450.378 393.952 450.378 416.038 450.378 438.01 454.757 459.793 463.176 480.104 471.595 500.566 483.978 519.027 499.494 534.544 515.124 550.098 533.585 562.443 553.933 570.862 574.282 579.281 596.028 583.66 618.113 583.66 640.085 583.66 661.831 579.281 682.18 570.862 702.491 562.443 721.027 550.098 736.657 534.544 752.173 519.027 764.519 500.566 772.938 480.104 781.356 459.793 785.736 438.01 785.736 416.038Z" fill="#FFFFFF"/><path d="M785.736 416.038C785.736 393.915 781.356 372.169 772.938 351.82 764.519 331.509 752.173 313.01 736.657 297.494 721.027 281.864 702.529 269.519 682.218 261.1 661.869 252.681 640.123 248.415 618.113 248.415" stroke="#010101" stroke-width="0.755056" stroke-linejoin="round" fill="none"/><path d="M618.151 248.415C596.066 248.415 574.32 252.681 553.971 261.1 533.622 269.519 515.161 281.864 499.532 297.494 484.015 313.01 471.632 331.509 463.213 351.82 454.757 372.169 450.378 393.915 450.378 416.038" stroke="#010101" stroke-width="0.755056" stroke-linejoin="round" fill="none"/><path d="M450.378 416C450.378 437.972 454.757 459.755 463.213 480.067 471.632 500.529 484.015 518.99 499.532 534.506 515.161 550.06 533.622 562.405 553.971 570.824 574.32 579.281 596.066 583.66 618.151 583.66" stroke="#010101" stroke-width="0.755056" stroke-linejoin="round" fill="none"/><path d="M618.113 583.66C640.123 583.66 661.869 579.281 682.218 570.824 702.529 562.405 721.027 550.06 736.657 534.506 752.173 518.99 764.519 500.529 772.938 480.067 781.356 459.755 785.736 437.972 785.736 416" stroke="#010101" stroke-width="0.755056" stroke-linejoin="round" fill="none"/><path d="M777.543 416.038C777.543 395.047 773.391 374.396 765.425 355.029 757.421 335.7 745.604 318.069 730.843 303.346 716.006 288.433 698.489 276.73 679.122 268.726 659.755 260.647 638.991 256.608 618.113 256.608 597.123 256.608 576.359 260.647 557.105 268.726 537.738 276.73 520.145 288.433 505.27 303.346 490.509 318.069 478.805 335.7 470.726 355.029 462.76 374.396 458.608 395.047 458.608 416.038 458.608 436.915 462.76 457.717 470.726 477.046 478.805 496.413 490.509 513.893 505.27 528.768 520.145 543.529 537.738 555.346 557.105 563.311 576.359 571.277 597.123 575.43 618.113 575.43 638.991 575.43 659.755 571.277 679.122 563.311 698.489 555.346 716.006 543.529 730.843 528.768 745.604 513.893 757.421 496.413 765.425 477.046 773.391 457.717 777.543 436.915 777.543 416.038Z" fill="#0055FF"/><path d="M629.93 487.315C628.269 487.768 627.174 489.391 627.514 491.166 627.74 491.921 627.74 492.789 627.514 493.658 627.174 494.526 626.759 495.205 626.192 495.847L617.887 504.04C617.434 504.493 617.358 505.134 617.547 505.814 617.66 506.04 617.887 506.229 618.113 506.456 618.415 506.569 618.642 506.682 618.982 506.682L630.798 506.682C631.327 506.682 631.893 506.456 632.308 505.927 632.422 505.587 632.535 505.361 632.648 505.021 632.648 504.719 632.535 504.493 632.535 504.153L631.214 500.793C630.911 499.887 631.025 498.792 631.667 497.81 632.308 496.942 633.29 496.527 634.271 496.527 636.159 496.3 637.669 494.979 638.122 493.242 638.235 492.147 638.538 491.053 639.104 490.071 642.162 484.37 645.748 478.896 649.863 473.875 651.147 472.252 652.921 470.93 654.885 470.175L654.318 459 657.829 454.281C657.942 454.168 658.169 454.055 658.282 454.055 658.358 454.055 658.471 454.055 658.584 454.055 658.584 454.168 658.698 454.168 658.698 454.168L661 455.678C662.85 456.886 664.625 458.245 666.248 459.68 669.872 462.625 672.138 467.117 672.591 471.799 672.024 476.518 673.799 481.199 677.272 484.484 678.291 485.805 679.462 487.013 680.783 488.108 681.991 489.203 683.312 490.298 684.709 491.279L686.71 489.958C686.899 489.731 687.239 489.844 687.465 490.071 689.089 492.147 691.958 492.789 694.336 491.694 696.413 489.844 699.282 489.278 701.887 490.298 702.113 490.373 702.34 490.298 702.529 490.071 702.529 489.958 702.642 489.844 702.642 489.618 702.642 489.505 702.529 489.391 702.453 489.278L692.26 478.368C692.033 478.141 691.731 477.915 691.391 477.915 690.938 477.801 690.636 477.915 690.297 478.141L687.578 479.802C687.125 480.104 686.484 480.104 685.917 479.802 685.691 479.689 685.502 479.462 685.389 479.123 685.276 478.896 685.276 478.594 685.276 478.254L685.691 475.838C685.804 475.196 685.502 474.555 684.936 474.215 683.614 473.535 682.52 472.554 681.764 471.383 680.896 470.062 680.443 468.627 680.443 467.231L680.028 452.733C678.933 452.431 677.725 451.978 676.63 451.11 675.535 450.355 674.554 449.26 673.912 448.052 673.232 446.731 672.817 445.409 672.704 444.088 672.591 442.691 672.704 441.483 673.119 440.275 676.404 434.688 678.593 428.458 679.273 422.003 679.462 416.566 678.593 411.092 676.857 405.958 680.556 405.844 684.294 406.939 687.352 409.129 690.41 411.319 692.6 414.49 693.808 418.076 694.449 420.719 694.563 423.437 694.223 426.193 694.223 428.156 694.336 430.346 694.902 432.498 695.318 434.688 696.111 436.991 697.092 439.18 698.187 441.37 699.471 443.446 701.132 445.409 702.642 447.373 704.605 449.147 706.681 450.657 708.796 452.205 711.061 453.413 713.477 454.281 715.78 455.263 718.271 455.791 720.688 456.131 723.104 456.358 725.407 456.358 727.71 456.131 729.862 455.905 731.938 455.376 733.939 454.697 734.467 454.508 734.92 453.942 734.92 453.3 734.92 452.62 734.581 452.092 733.939 451.865 726.049 448.807 719.819 442.805 716.535 435.027 711.627 426.08 707.776 416.566 705.284 406.713 704.529 405.505 703.548 404.297 702.529 403.089 701.434 401.918 700.263 400.823 698.942 399.842 696.299 397.765 693.128 396.331 689.768 395.462 686.37 394.707 682.859 394.594 679.575 395.236 677.951 395.576 676.404 395.991 674.893 396.557 673.459 397.199 672.138 397.841 670.854 398.634 669.872 399.276 668.438 399.276 667.456 398.52 660.245 393.499 651.713 390.857 642.804 391.083 634.083 391.31 625.551 394.368 618.642 399.729 615.169 402.786 611.431 405.391 607.391 407.694L625.777 432.309 625.098 440.162C628.042 440.841 631.214 440.728 634.196 439.747 633.516 445.976 635.48 452.205 639.632 457 639.746 467.872 636.348 478.481 629.93 487.315Z" fill="#FFFFFF"/><path d="M613.696 383.004 588.515 398.445C587.76 398.973 586.967 399.653 586.325 400.521 585.684 401.39 585.231 402.484 585.004 403.579 584.815 404.674 584.891 405.769 585.117 406.864 585.344 407.845 585.91 408.827 586.439 409.469L610.11 441.181C611.28 442.729 612.941 443.711 614.791 444.05 616.641 444.239 618.491 443.824 620.039 442.729 620.68 442.163 621.36 441.521 621.889 440.766 622.342 439.898 622.681 438.991 622.87 438.01 622.983 437.028 622.87 436.047 622.681 435.065 622.455 434.197 622.002 433.442 621.586 432.649L604.182 409.469C603.767 408.94 603.541 408.072 603.654 407.09 603.767 406.637 603.956 406.222 604.182 405.882 604.409 405.542 604.749 405.316 605.051 405.127L631.516 388.78C633.252 387.685 634.687 385.949 635.442 383.759 636.121 381.569 635.895 379.267 635.14 377.417L621.662 345.289C621.133 344.081 620.378 342.76 619.057 341.778 617.849 340.683 616.226 339.928 614.451 339.702 612.601 339.475 610.978 339.815 609.43 340.457 607.92 341.136 606.825 342.193 606.032 343.213L576.283 381.909C575.075 383.306 574.509 385.269 574.849 387.157 575.075 389.007 576.057 390.63 577.567 391.838 578.246 392.404 579.001 392.82 579.87 393.046 580.851 393.273 581.833 393.386 582.814 393.273 583.796 393.16 584.702 392.82 585.57 392.291 586.325 391.838 586.967 391.196 587.533 390.517L603.427 369.866C603.541 369.753 603.767 369.64 603.956 369.64 604.069 369.64 604.069 369.64 604.182 369.64 604.296 369.753 604.409 369.753 604.409 369.866L613.923 382.098C613.923 382.211 614.036 382.324 614.036 382.551 613.923 382.778 613.809 382.891 613.696 383.004Z" fill="#FFFFFF"/><path d="M612.148 329.093C612.148 326.45 611.016 323.959 609.128 322.109 607.278 320.108 604.749 319.126 602.144 319.126 599.501 319.126 596.896 320.108 595.046 322.109 593.196 323.959 592.177 326.45 592.177 329.093 592.177 331.736 593.196 334.265 595.046 336.115 596.896 338.003 599.501 339.06 602.144 339.06 604.749 339.06 607.278 338.003 609.128 336.115 611.016 334.265 612.148 331.736 612.148 329.093Z" fill="#FFFFFF"/><path d="M548.95 406.524C550.573 407.506 552.008 408.94 553.103 410.677 554.198 412.451 554.726 414.414 554.84 416.264L555.179 421.399C555.595 425.551 557.256 429.591 559.634 432.989 550.46 436.726 542.117 442.276 535.133 449.298 535.019 449.373 534.906 449.487 534.793 449.487 534.151 449.6 533.283 449.94 532.603 450.468 531.848 451.035 531.282 451.676 530.867 452.545 530.527 453.564 530.3 454.432 530.413 455.414 530.64 456.282 530.867 457.037 531.282 457.604L532.83 473.988C533.056 475.536 533.924 476.82 535.133 477.726 536.341 478.481 537.851 478.896 539.399 478.707 540.38 478.481 541.362 478.783 542.004 479.576 545.062 482.634 549.479 483.955 553.745 482.973 556.803 482.634 559.747 483.615 562.05 485.578 562.617 486.107 563.372 486.673 564.24 487.013 565.108 487.315 565.977 487.428 566.996 487.428 567.978 487.315 568.959 487.126 569.714 486.673 570.582 486.22 571.224 485.692 571.791 485.05L562.617 475.31 556.501 475.423 556.048 474.215C555.934 473.875 555.708 473.649 555.481 473.46 555.179 473.233 554.84 473.12 554.5 473.233L548.837 473.762C547.969 473.762 547.062 473.535 546.307 473.12 545.401 472.554 544.646 471.912 544.08 471.044 543.551 470.175 543.212 469.307 543.212 468.288 543.098 467.306 543.325 466.438 543.665 465.683 544.42 464.135 544.948 462.511 545.288 460.775 545.628 458.887 545.779 457.151 545.628 455.414L568.28 447.297C568.053 450.921 569.374 454.432 572.017 456.924 573.301 458.132 574.094 459.793 573.98 461.53 573.754 467.306 576.396 472.667 580.964 476.178 585.004 483.049 587.194 490.939 587.307 498.905 584.891 501.774 582.814 504.832 580.964 508.004 580.851 508.192 580.738 508.532 580.964 508.759 581.078 508.872 581.191 508.985 581.304 509.098 581.418 509.098 581.531 509.212 581.644 509.212L594.971 509.212C595.726 509.212 596.594 508.872 597.274 508.192 597.916 507.437 598.142 506.569 598.029 505.814 597.802 503.624 597.047 501.548 595.726 499.773 595.084 499.018 594.631 497.81 594.744 496.64 594.858 495.319 595.499 494.224 596.292 493.544L598.897 491.355C593.536 483.729 589.383 475.31 586.439 466.324 584.891 459.453 584.589 452.243 585.57 445.145 592.328 448.392 600.218 448.505 607.203 445.56 607.656 445.334 608.071 444.919 608.297 444.352 608.297 444.05 608.297 443.824 608.297 443.484 608.184 443.144 608.071 442.956 607.958 442.842L584.362 411.13C582.814 409.167 582.173 406.637 582.399 404.221 582.512 401.729 583.607 399.427 585.344 397.69 582.814 398.218 580.096 397.879 577.68 396.708 575.377 395.5 573.527 393.537 572.432 391.008 571.338 388.591 571.224 385.873 572.017 383.306 572.659 380.814 574.32 378.511 576.472 377.077 569.601 368.884 561.748 361.787 552.876 355.671 547.629 351.933 541.022 350.423 534.566 351.292 531.848 351.405 529.319 352.613 527.242 354.463 526.827 354.878 526.261 355.105 525.732 355.218 525.053 355.218 524.411 355.105 523.958 354.878L515.879 348.875C515.124 348.234 514.029 348.234 513.274 348.875 512.481 349.442 512.292 350.423 512.594 351.292 513.802 353.255 514.444 355.558 514.557 357.936 514.557 360.466 514.029 362.769 512.934 364.845L510.404 370.621C512.594 375.227 513.274 380.248 512.481 385.307 512.066 386.742 511.839 388.289 511.952 389.8 511.952 391.347 512.179 392.744 512.481 394.179L516.218 397.577C516.974 398.445 518.068 399.2 519.503 399.313 521.013 399.427 522.221 398.973 523.203 398.105 524.071 399.313 525.619 399.653 526.94 398.973 528.224 398.332 528.903 396.897 528.45 395.5 526.827 393.839 525.959 391.574 526.147 389.271 527.582 387.95 528.677 386.402 529.545 384.514 530.413 382.778 530.98 380.928 531.093 379.04L535.435 383.306C536.001 383.872 536.341 384.627 536.341 385.42 536.529 389.686 537.738 393.839 539.927 397.577 542.117 401.276 545.175 404.334 548.95 406.524Z" fill="#FFFFFF"/></g></svg>