<svg width="336" height="336" xmlns="http://www.w3.org/2000/svg" xmlns:xlink="http://www.w3.org/1999/xlink" xml:space="preserve" overflow="hidden"><g transform="translate(-511 -214)"><path d="M846.736 382C846.736 360.028 842.356 338.282 833.938 317.933 825.519 297.585 813.173 279.086 797.657 263.456 782.027 247.94 763.491 235.557 743.18 227.138 722.831 218.719 701.085 214.378 679.113 214.378 657.028 214.378 635.282 218.719 614.933 227.138 594.585 235.557 576.124 247.94 560.494 263.456 544.978 279.086 532.595 297.585 524.176 317.933 515.757 338.282 511.378 360.028 511.378 382 511.378 404.085 515.757 425.831 524.176 446.18 532.595 466.529 544.978 484.99 560.494 500.619 576.124 516.136 594.585 528.519 614.933 536.938 635.282 545.356 657.028 549.698 679.113 549.698 701.085 549.698 722.831 545.356 743.18 536.938 763.491 528.519 782.027 516.136 797.657 500.619 813.173 484.99 825.519 466.529 833.938 446.18 842.356 425.831 846.736 404.085 846.736 382Z" fill="#FFFFFF"/><path d="M846.736 382C846.736 359.99 842.356 338.245 833.938 317.896 825.519 297.547 813.173 279.086 797.657 263.456 782.027 247.94 763.529 235.557 743.218 227.138 722.869 218.719 701.123 214.378 679.113 214.378" stroke="#010101" stroke-width="0.755056" stroke-linejoin="round" fill="none"/><path d="M679.151 214.378C657.066 214.378 635.32 218.719 614.971 227.138 594.622 235.557 576.161 247.94 560.532 263.456 545.015 279.086 532.632 297.547 524.214 317.896 515.757 338.245 511.378 359.99 511.378 382" stroke="#010101" stroke-width="0.755056" stroke-linejoin="round" fill="none"/><path d="M511.378 381.962C511.378 404.048 515.757 425.793 524.214 446.142 532.632 466.491 545.015 484.952 560.532 500.582 576.161 516.098 594.622 528.481 614.971 536.938 635.32 545.356 657.066 549.698 679.151 549.698" stroke="#010101" stroke-width="0.755056" stroke-linejoin="round" fill="none"/><path d="M679.113 549.698C701.123 549.698 722.869 545.356 743.218 536.938 763.529 528.481 782.027 516.098 797.657 500.582 813.173 484.952 825.519 466.491 833.938 446.142 842.356 425.793 846.736 404.048 846.736 381.962" stroke="#010101" stroke-width="0.755056" stroke-linejoin="round" fill="none"/><path d="M838.543 382C838.543 361.123 834.391 340.359 826.425 320.991 818.421 301.662 806.604 284.145 791.843 269.27 777.006 254.471 759.489 242.692 740.122 234.689 720.755 226.723 699.991 222.57 679.113 222.57 658.123 222.57 637.359 226.723 618.105 234.689 598.738 242.692 581.145 254.471 566.27 269.27 551.509 284.145 539.805 301.662 531.726 320.991 523.76 340.359 519.608 361.123 519.608 382 519.608 402.991 523.76 423.755 531.726 443.009 539.805 462.376 551.509 479.969 566.27 494.843 581.145 509.604 598.738 521.27 618.105 529.387 637.359 537.353 658.123 541.506 679.113 541.506 699.991 541.506 720.755 537.353 740.122 529.387 759.489 521.27 777.006 509.604 791.843 494.843 806.604 479.969 818.421 462.376 826.425 443.009 834.391 423.755 838.543 402.991 838.543 382Z" fill="#0055FF"/><path d="M739.707 407.861 799.62 363.01 739.707 318.084C737.857 316.537 735.214 316.348 733.138 317.631 731.174 318.84 730.08 321.369 730.646 323.672L742.991 350.439 725.285 350.439C716.526 349.91 707.805 351.42 699.689 355.044 691.723 358.518 684.625 363.992 679.151 370.787 673.564 363.992 666.579 358.518 658.462 355.044 650.497 351.42 641.662 349.91 632.904 350.439L615.16 350.439 627.543 323.672C628.071 321.369 627.09 318.84 624.976 317.631 622.899 316.348 620.294 316.537 618.444 318.084L558.531 363.01 618.444 407.861C620.294 409.409 622.899 409.635 624.976 408.314 627.09 407.106 628.071 404.689 627.543 402.311L615.16 375.469 632.904 375.469C641.851 375.469 650.383 378.98 656.726 385.322 663.068 391.665 666.579 400.235 666.579 409.182L666.579 493.824 691.609 493.824 691.609 409.182C691.609 407.219 691.723 405.142 692.138 403.066 692.478 400.99 693.12 398.875 693.912 396.799 695.649 392.533 698.178 388.72 701.463 385.322 704.71 382.038 708.674 379.508 712.94 377.772 715.016 377.017 717.093 376.337 719.169 376.035 721.245 375.582 723.322 375.469 725.285 375.469L742.991 375.469 730.646 402.311C730.08 404.689 731.174 407.106 733.138 408.427 735.214 409.635 737.857 409.409 739.707 407.861Z" fill="#FEFEFE"/></g></svg>