<svg width="336" height="336" xmlns="http://www.w3.org/2000/svg" xmlns:xlink="http://www.w3.org/1999/xlink" xml:space="preserve" overflow="hidden"><g transform="translate(-396 -214)"><path d="M418.84 465.811C429.789 484.952 444.55 501.676 461.916 515.041 479.396 528.481 499.292 538.297 520.622 543.997 541.839 549.698 564.038 551.095 585.897 548.263 607.642 545.432 628.746 538.221 647.773 527.273 666.952 516.249 683.563 501.563 697.003 484.084 710.443 466.604 720.183 446.708 725.997 425.491 731.66 404.161 733.095 381.962 730.263 360.217 727.281 338.358 720.183 317.367 709.16 298.227 698.211 279.161 683.563 262.437 666.084 248.997 648.529 235.67 628.633 225.817 607.34 220.116 586.123 214.453 563.924 212.905 542.066 215.85 520.282 218.719 499.216 225.817 480.189 236.84 461.161 247.902 444.437 262.55 430.959 279.916 417.632 297.471 407.817 317.367 402.116 338.698 396.415 359.877 394.905 382.076 397.85 403.934 400.681 425.831 407.817 446.822 418.84 465.811Z" fill="#FFFFFF"/><path d="M418.803 465.736C429.751 484.876 444.512 501.639 461.879 515.003 479.358 528.443 499.292 538.259 520.622 543.96 541.839 549.66 564.038 551.057 585.897 548.226 607.642 545.394 628.746 538.183 647.773 527.235" stroke="#010101" stroke-width="0.755056" stroke-linejoin="round" fill="none"/><path d="M647.736 527.235C666.876 516.211 683.488 501.525 696.965 484.046 710.405 466.566 720.146 446.671 725.96 425.453 731.622 404.123 733.057 381.924 730.226 360.141 727.243 338.282 720.146 317.292 709.122 298.151" stroke="#010101" stroke-width="0.755056" stroke-linejoin="round" fill="none"/><path d="M709.122 298.227C698.173 279.199 683.525 262.475 666.046 249.035 648.529 235.67 628.633 225.817 607.34 220.116 586.123 214.453 563.924 212.905 542.066 215.85 520.282 218.719 499.216 225.817 480.151 236.84" stroke="#010101" stroke-width="0.755056" stroke-linejoin="round" fill="none"/><path d="M480.227 236.803C461.199 247.864 444.475 262.512 430.959 279.879 417.632 297.396 407.817 317.292 402.116 338.622 396.415 359.801 394.905 382.038 397.85 403.897 400.681 425.793 407.817 446.784 418.84 465.773" stroke="#010101" stroke-width="0.755056" stroke-linejoin="round" fill="none"/><path d="M425.9 461.734C436.282 479.893 450.289 495.749 466.9 508.547 483.511 521.232 502.425 530.633 522.661 535.994 542.896 541.43 564 542.865 584.764 540.146 605.528 537.391 625.537 530.52 643.734 520.138 661.893 509.642 677.749 495.636 690.51 479.025 703.195 462.527 712.595 443.499 717.956 423.264 723.43 403.028 724.751 381.924 721.995 361.16 719.277 340.51 712.482 320.387 702.1 302.342 691.604 284.182 677.636 268.251 660.987 255.528 644.376 242.73 625.424 233.443 605.226 227.969 584.991 222.608 563.887 221.173 543.123 223.929 522.321 226.647 502.35 233.443 484.191 243.938 466.145 254.433 450.175 268.326 437.49 284.975 424.692 301.587 415.405 320.501 409.931 340.736 404.494 360.934 403.173 382.038 405.891 402.802 408.647 423.604 415.405 443.613 425.9 461.734Z" fill="#0055FF"/><path d="M584.802 451.805C587.86 451.805 590.691 450.031 591.899 447.199 592.466 445.878 592.692 444.481 592.352 442.933 592.013 441.423 591.258 439.988 590.276 439.007L558.79 408.049 687.905 333.714 677.825 316.197 667.896 298.793 538.668 373.204 527.72 330.316C527.418 329.033 526.625 327.711 525.454 326.617 524.246 325.635 522.812 325.069 521.377 324.88 519.98 324.767 518.546 324.993 517.111 325.635 515.714 326.39 514.733 327.485 513.94 328.693L448.552 448.294 584.802 451.805Z" fill="#FEFEFE"/></g></svg>