<svg width="336" height="336" xmlns="http://www.w3.org/2000/svg" xmlns:xlink="http://www.w3.org/1999/xlink" xml:space="preserve" overflow="hidden"><g transform="translate(-751 -71)"><path d="M751.378 238.962C751.378 260.934 755.644 282.793 764.062 303.142 772.481 323.491 784.864 341.952 800.494 357.468 816.01 373.098 834.471 385.368 854.82 393.786 875.169 402.319 896.915 406.585 918.887 406.585 923.908 406.585 928.929 406.358 933.988 405.905 939.122 405.49 944.257 404.697 949.391 403.829 954.639 402.847 959.886 401.639 965.021 400.129 970.268 398.581 975.403 396.844 980.65 394.881 990.919 390.729 1001 385.594 1010.66 379.252 1020.25 372.985 1029.24 365.661 1037.43 357.468 1045.62 349.276 1052.95 340.329 1059.29 330.702 1065.52 321.075 1070.65 311.032 1074.81 300.726 1076.81 295.591 1078.66 290.344 1080.05 285.096 1081.6 279.962 1082.81 274.714 1083.79 269.466 1084.77 264.332 1085.41 259.198 1085.87 254.063 1086.32 249.042 1086.51 243.983 1086.51 239.076 1086.51 216.99 1082.24 195.244 1073.82 174.896 1065.41 154.547 1053.06 136.048 1037.54 120.532 1021.91 104.902 1003.38 92.5191 983.067 84.1002 962.718 75.6814 940.972 71.453 919 71.3398 914.054 71.3398 909.033 71.5285 903.899 72.0948 898.764 72.5479 893.63 73.1897 888.496 74.1712 883.248 75.1528 878.114 76.3609 872.866 77.871 867.618 79.3056 862.484 81.0422 857.35 83.1187 846.93 87.196 836.888 92.4436 827.261 98.6728 817.634 105.015 808.686 112.226 800.494 120.418 792.264 128.611 784.94 137.671 778.711 147.223 772.368 156.85 767.234 166.93 763.081 177.312 761.118 182.446 759.381 187.694 757.833 192.828 756.323 198.076 755.115 203.324 754.133 208.458 753.265 213.706 752.472 218.84 752.057 223.861 751.604 229.033 751.378 234.054 751.378 238.962Z" fill="#FFFFFF"/><path d="M751.378 238.924C751.378 260.897 755.644 282.755 764.062 303.104 772.481 323.453 784.864 341.914 800.494 357.431 816.01 373.06 834.471 385.33 854.82 393.786 875.169 402.319 896.915 406.585 918.887 406.585 940.972 406.585 962.718 402.319 983.067 393.9 1003.38 385.443 1021.91 373.06 1037.43 357.431 1053.06 341.914 1065.41 323.453 1073.82 303.104 1082.24 282.755 1086.51 261.01 1086.51 239.038" stroke="#000000" stroke-width="0.755056" stroke-linejoin="round" fill="none"/><path d="M1086.51 239.076C1086.51 216.952 1082.24 195.207 1073.82 174.858 1065.41 154.509 1053.06 136.048 1037.54 120.532 1021.91 104.902 1003.38 92.5191 983.067 84.1002 962.718 75.6814 940.972 71.453 919 71.3398 896.915 71.3398 875.169 75.6814 854.82 84.1002 834.471 92.5191 816.01 104.902 800.494 120.418 784.864 136.048 772.595 154.509 764.062 174.858 755.644 195.207 751.378 216.952 751.378 238.962" stroke="#000000" stroke-width="0.67955" stroke-linejoin="round" fill="none"/><path d="M759.494 238.962C759.494 259.953 763.647 280.604 771.613 299.971 779.692 319.338 791.396 336.931 806.157 351.692 821.031 366.567 838.511 378.232 857.878 386.236 877.245 394.315 898.009 398.355 918.887 398.355 923.568 398.355 928.4 398.241 933.195 397.826 938.141 397.373 942.935 396.618 947.956 395.75 952.902 394.881 957.81 393.673 962.718 392.239 967.739 390.842 972.684 389.181 977.592 387.217 987.484 383.404 997.073 378.346 1006.17 372.456 1015.35 366.453 1023.88 359.545 1031.65 351.805 1039.51 343.915 1046.42 335.383 1052.42 326.209 1058.31 317.148 1063.25 307.521 1067.18 297.668 1069.14 292.76 1070.77 287.852 1072.2 282.906 1073.64 277.885 1074.81 272.978 1075.71 268.032 1076.58 263.124 1077.34 258.216 1077.79 253.384 1078.2 248.476 1078.43 243.795 1078.43 239.076 1078.43 218.085 1074.28 197.321 1066.31 178.067 1058.19 158.7 1046.49 141.107 1031.73 126.232 1016.89 111.433 999.262 99.7676 980.009 91.6508 960.641 83.6849 939.877 79.5321 919 79.5321 914.281 79.5321 909.486 79.7587 904.654 80.1739 899.746 80.627 894.838 81.2688 889.893 82.2503 884.985 83.1187 880.077 84.3267 875.056 85.7613 870.11 87.0827 865.202 88.8193 860.294 90.7825 850.441 94.5955 840.814 99.5411 831.753 105.544 822.579 111.433 814.047 118.493 806.27 126.232 798.418 134.123 791.509 142.655 785.506 151.715 779.503 160.889 774.558 170.516 770.745 180.257 768.782 185.164 767.12 190.223 765.724 195.131 764.289 200.039 763.081 205.06 762.213 210.006 761.231 214.914 760.589 219.822 760.136 224.654 759.683 229.449 759.494 234.281 759.494 238.962Z" fill="#0055FF"/><path d="M1038.3 178.293C1038 176.217 1036.45 174.556 1034.37 174.027 1033.5 173.801 1032.41 173.914 1031.43 174.254 1030.45 174.669 1029.65 175.349 1029.12 176.104L1011.95 201.021 946.56 123.023 936.064 131.895 925.569 140.654 990.957 218.613 963.511 231.185C962.642 231.525 961.774 232.204 961.245 233.186 960.679 234.054 960.453 235.036 960.566 236.018 960.566 236.999 960.906 237.981 961.547 238.849 962.227 239.717 963.095 240.284 963.964 240.623L1052.19 270.222 1038.3 178.293Z" fill="#FEFEFE"/><path d="M799.701 178.293C800.041 176.217 801.589 174.556 803.552 174.027 804.534 173.801 805.515 173.914 806.497 174.254 807.591 174.669 808.346 175.349 808.913 176.104L825.977 201.021 891.365 123.023 901.974 131.895 912.469 140.654 847.081 218.613 874.527 231.185C875.396 231.525 876.188 232.204 876.717 233.186 877.283 234.054 877.472 235.036 877.472 236.018 877.359 236.999 877.057 237.981 876.377 238.849 875.735 239.717 874.98 240.284 873.999 240.623L785.733 270.222 799.701 178.293Z" fill="#FEFEFE"/></g></svg>