<svg width="336" height="336" xmlns="http://www.w3.org/2000/svg" xmlns:xlink="http://www.w3.org/1999/xlink" xml:space="preserve" overflow="hidden"><g transform="translate(-574 -354)"><path d="M909.736 522.038C909.736 499.952 905.356 478.207 896.938 457.858 888.519 437.547 876.173 419.01 860.657 403.494 845.027 387.864 826.491 375.519 806.18 367.1 785.831 358.681 764.085 354.415 742.113 354.415 720.028 354.415 698.282 358.681 677.933 367.1 657.585 375.519 639.124 387.864 623.494 403.494 607.978 419.01 595.595 437.547 587.176 457.858 578.757 478.207 574.378 499.952 574.378 522.038 574.378 544.01 578.757 565.793 587.176 586.104 595.595 606.453 607.978 624.914 623.494 640.544 639.124 656.098 657.585 668.443 677.933 676.862 698.282 685.281 720.028 689.66 742.113 689.66 764.085 689.66 785.831 685.281 806.18 676.862 826.491 668.443 845.027 656.098 860.657 640.544 876.173 624.914 888.519 606.453 896.938 586.104 905.356 565.793 909.736 544.01 909.736 522.038Z" fill="#FFFFFF"/><path d="M909.736 522.038C909.736 499.915 905.356 478.169 896.938 457.82 888.519 437.509 876.173 419.01 860.657 403.494 845.027 387.864 826.529 375.519 806.218 367.1 785.869 358.681 764.123 354.415 742.113 354.415" stroke="#343434" stroke-width="0.755056" stroke-linejoin="round" fill="none"/><path d="M742.151 354.415C720.066 354.415 698.32 358.681 677.971 367.1 657.622 375.519 639.161 387.864 623.532 403.494 608.015 419.01 595.632 437.509 587.214 457.82 578.757 478.169 574.378 499.915 574.378 522.038" stroke="#343434" stroke-width="0.755056" stroke-linejoin="round" fill="none"/><path d="M574.378 522C574.378 543.972 578.757 565.755 587.214 586.067 595.632 606.415 608.015 624.876 623.532 640.506 639.161 656.06 657.622 668.405 677.971 676.824 698.32 685.281 720.066 689.66 742.151 689.66" stroke="#343434" stroke-width="0.755056" stroke-linejoin="round" fill="none"/><path d="M742.113 689.66C764.123 689.66 785.869 685.281 806.218 676.824 826.529 668.405 845.027 656.06 860.657 640.506 876.173 624.876 888.519 606.415 896.938 586.067 905.356 565.755 909.736 543.972 909.736 522" stroke="#343434" stroke-width="0.755056" stroke-linejoin="round" fill="none"/><path d="M901.543 522.038C901.543 501.047 897.391 480.396 889.425 461.029 881.421 441.7 869.604 424.069 854.843 409.346 840.006 394.433 822.489 382.73 803.122 374.651 783.755 366.647 762.991 362.494 742.113 362.494 721.123 362.494 700.359 366.647 681.105 374.651 661.738 382.73 644.145 394.433 629.27 409.346 614.509 424.069 602.805 441.7 594.726 461.029 586.76 480.396 582.608 501.047 582.608 522.038 582.608 542.915 586.76 563.717 594.726 583.046 602.805 602.413 614.509 619.893 629.27 634.768 644.145 649.529 661.738 661.346 681.105 669.311 700.359 677.277 721.123 681.43 742.113 681.43 762.991 681.43 783.755 677.277 803.122 669.311 822.489 661.346 840.006 649.529 854.843 634.768 869.604 619.893 881.421 602.413 889.425 583.046 897.391 563.717 901.543 542.915 901.543 522.038Z" fill="#0055FF"/><path d="M751.551 551.787 780.508 551.787C780.621 554.203 781.074 556.695 781.603 559.224 782.282 561.716 783.151 564.132 784.245 566.662 786.548 571.569 789.795 576.175 793.948 579.988 798.214 583.801 803.046 586.671 808.181 588.52 810.71 589.389 813.202 590.031 815.844 590.37 818.336 590.823 820.866 590.937 823.282 590.937 825.887 590.937 828.529 590.71 831.248 590.144 833.853 589.729 836.609 588.973 839.327 587.879 844.688 585.689 849.822 582.404 854.088 578.138 858.467 573.872 861.639 568.851 863.828 563.377 864.923 560.621 865.678 558.016 866.131 555.298 866.66 552.542 866.886 549.937 866.886 547.294 866.886 544.35 866.66 541.178 865.905 537.894 865.263 534.609 864.055 531.325 862.507 528.003 860.884 524.756 858.92 521.698 856.391 518.716 853.862 515.884 850.917 513.279 847.746 511.089 844.461 509.013 841.101 507.239 837.364 506.031 833.777 504.86 830.153 504.067 826.453 503.841 822.829 503.652 819.318 503.841 816.033 504.407 812.786 505.049 809.691 505.955 806.973 507.125L796.364 488.438 802.178 479.792 810.37 479.792C811.012 479.792 811.805 479.604 812.333 478.924 812.975 478.396 813.202 477.603 813.202 476.961L813.202 466.919C813.089 466.352 812.786 465.824 812.333 465.258 811.88 464.842 811.239 464.389 810.597 464.163 809.917 464.049 809.162 463.936 808.52 464.163 807.954 464.276 807.426 464.616 806.973 464.956L783.906 473.563C782.471 474.016 781.489 475.338 781.603 476.848 781.603 477.603 781.942 478.282 782.471 478.811 783.037 479.49 783.679 479.679 784.472 479.792L791.456 479.792 786.624 487.041 702.775 487.041 706.173 480.585 702.888 467.221 727.39 467.221C728.824 467.221 730.108 466.692 731.089 465.711 732.071 464.729 732.637 463.408 732.637 462.086 732.637 460.765 732.071 459.481 731.089 458.387 729.995 457.292 728.598 456.839 727.39 456.839L705.304 456.839C704.323 457.065 703.228 457.405 702.133 457.82 701 458.273 700.019 458.915 699.037 459.708 696.961 461.331 695.3 463.521 694.318 466.05 693.223 468.655 693.035 471.373 693.45 473.903 693.676 475.224 694.016 476.319 694.545 477.414 694.998 478.509 695.526 479.49 696.206 480.245L680.878 508.56C678.047 507.125 674.989 506.031 671.591 505.276 668.193 504.52 664.682 504.067 660.869 504.067 657.169 504.181 653.319 504.747 649.506 505.842 645.693 506.937 641.955 508.447 638.557 510.636 635.084 512.713 632.026 515.242 629.27 518.187 626.552 521.018 624.362 524.19 622.626 527.587 620.851 530.872 619.643 534.307 618.775 537.667 618.02 540.952 617.567 544.236 617.567 547.294 617.567 549.937 617.793 552.542 618.246 555.298 618.775 558.016 619.53 560.734 620.625 563.377 622.701 568.851 625.986 573.872 630.365 578.138 634.631 582.404 639.652 585.689 645.126 587.879 647.769 588.973 650.487 589.729 653.205 590.144 655.961 590.71 658.566 590.937 661.209 590.937 663.701 590.937 666.457 590.71 669.062 590.144 671.818 589.729 674.536 588.973 677.292 587.879 682.615 585.689 687.787 582.404 692.015 578.138 696.281 573.872 699.566 568.851 701.793 563.377 702.775 560.734 703.643 558.016 704.096 555.298 704.662 552.542 704.851 549.937 704.851 547.294 704.851 540.839 703.341 534.496 700.359 528.682 697.489 522.868 693.223 517.847 687.976 514.034L694.318 502.557 749.815 551.145C750.23 551.56 750.872 551.787 751.551 551.787ZM683.068 521.018C685.597 523.095 687.976 525.738 689.939 528.682 691.94 531.665 693.337 534.949 694.318 538.46 695.3 541.933 695.64 545.558 695.526 549.144 695.3 552.655 694.658 556.053 693.563 559.111 692.355 562.282 690.845 565.34 688.655 568.172 686.579 570.928 683.936 573.533 680.991 575.609 677.933 577.685 674.649 579.233 671.251 580.328 667.853 581.31 664.493 581.838 661.209 581.838 659.133 581.838 657.056 581.612 654.867 581.196 652.79 580.857 650.6 580.215 648.411 579.46 644.145 577.685 640.218 575.08 636.707 571.683 633.31 568.285 630.818 564.359 629.044 559.979 628.175 557.903 627.647 555.713 627.194 553.637 626.892 551.447 626.665 549.371 626.665 547.294 626.665 544.878 626.892 542.386 627.42 539.744 627.949 537.139 628.968 534.383 630.252 531.778 631.573 529.098 633.196 526.606 635.273 524.303 637.387 522 639.765 519.924 642.521 518.187 645.126 516.526 647.958 515.242 651.053 514.336 653.998 513.355 656.943 512.939 659.888 512.939 662.832 512.826 665.702 513.166 668.307 513.694 670.949 514.261 673.328 515.129 675.517 516.224L660.227 540.197C658.264 540.537 656.49 541.631 655.282 543.255 654.111 544.803 653.432 546.766 653.658 548.729 653.772 550.692 654.527 552.542 655.961 553.977 657.358 555.373 659.246 556.28 661.209 556.468 664.267 556.695 667.212 555.185 668.76 552.542 669.401 551.221 669.854 549.824 669.741 548.276 669.741 546.653 669.175 545.218 668.307 544.01L683.068 521.018ZM753.968 542.915 700.359 495.875 783.453 495.875 758.007 542.915 753.968 542.915ZM799.007 511.203C793.533 514.449 788.927 519.169 785.642 524.643 782.358 530.192 780.621 536.459 780.395 542.915L768.163 542.915 791.985 498.82 799.007 511.203ZM824.037 538.875 810.786 515.242C812.975 514.336 815.391 513.581 818.034 513.166 820.639 512.713 823.357 512.6 826.227 512.826 829.058 513.053 831.889 513.581 834.872 514.563 837.703 515.544 840.422 516.979 842.951 518.602 845.443 520.377 847.746 522.453 849.709 524.756 851.596 527.021 853.22 529.551 854.428 532.118 855.636 534.723 856.504 537.365 857.033 539.857 857.599 542.5 857.826 544.991 857.826 547.294 857.826 549.371 857.599 551.447 857.146 553.637 856.844 555.713 856.164 557.903 855.409 559.979 853.673 564.359 851.03 568.285 847.632 571.683 844.272 575.08 840.195 577.685 835.929 579.46 833.853 580.215 831.701 580.857 829.511 581.196 827.435 581.612 825.358 581.838 823.282 581.838 821.394 581.838 819.431 581.725 817.468 581.536 815.391 581.196 813.428 580.743 811.465 579.988 807.426 578.667 803.575 576.477 800.29 573.533 797.044 570.588 794.288 567.077 792.438 563.377 791.569 561.414 790.777 559.564 790.248 557.563 789.72 555.6 789.38 553.637 789.266 551.787L819.431 551.787C820.526 551.447 821.621 550.805 822.489 549.824 823.471 548.956 824.263 547.747 824.792 546.426 825.245 545.105 825.358 543.708 825.245 542.386 825.018 541.065 824.565 539.857 824.037 538.875ZM811.578 542.915 789.606 542.915C789.908 538.347 791.23 533.854 793.646 529.777 796.024 525.624 799.309 522.227 803.046 519.697L813.881 538.989C814.183 539.631 814.297 540.65 813.768 541.631 813.202 542.5 812.333 542.915 811.578 542.915Z" fill="#FEFEFE"/></g></svg>