<svg width="336" height="336" xmlns="http://www.w3.org/2000/svg" xmlns:xlink="http://www.w3.org/1999/xlink" xml:space="preserve" overflow="hidden"><g transform="translate(-532 -211)"><path d="M532.378 379C532.378 357.028 536.757 335.282 545.176 314.933 553.595 294.585 565.978 276.086 581.494 260.456 597.124 244.94 615.585 232.557 635.933 224.138 656.282 215.719 678.028 211.378 700.113 211.378 722.085 211.378 743.831 215.719 764.18 224.138 784.491 232.557 803.027 244.94 818.657 260.456 834.173 276.086 846.519 294.585 854.938 314.933 863.356 335.282 867.736 357.028 867.736 379 867.736 401.085 863.356 422.831 854.938 443.18 846.519 463.529 834.173 481.99 818.657 497.619 803.027 513.136 784.491 525.519 764.18 533.938 743.831 542.356 722.085 546.698 700.113 546.698 678.028 546.698 656.282 542.356 635.933 533.938 615.585 525.519 597.124 513.136 581.494 497.619 565.978 481.99 553.595 463.529 545.176 443.18 536.757 422.831 532.378 401.085 532.378 379Z" fill="#FFFFFF"/><path d="M532.378 379C532.378 356.99 536.757 335.245 545.214 314.896 553.632 294.547 566.015 276.086 581.532 260.456 597.161 244.94 615.622 232.557 635.971 224.138 656.32 215.719 678.066 211.378 700.151 211.378" stroke="#010101" stroke-width="0.755056" stroke-linejoin="round" fill="none"/><path d="M700.113 211.378C722.123 211.378 743.869 215.719 764.218 224.138 784.529 232.557 803.027 244.94 818.657 260.456 834.173 276.086 846.519 294.547 854.938 314.896 863.356 335.245 867.736 356.99 867.736 379" stroke="#010101" stroke-width="0.755056" stroke-linejoin="round" fill="none"/><path d="M867.736 378.962C867.736 401.048 863.356 422.793 854.938 443.142 846.519 463.491 834.173 481.952 818.657 497.582 803.027 513.098 784.529 525.481 764.218 533.938 743.869 542.356 722.123 546.698 700.113 546.698" stroke="#010101" stroke-width="0.755056" stroke-linejoin="round" fill="none"/><path d="M700.151 546.698C678.066 546.698 656.32 542.356 635.971 533.938 615.622 525.481 597.161 513.098 581.532 497.582 566.015 481.952 553.632 463.491 545.214 443.142 536.757 422.793 532.378 401.048 532.378 378.962" stroke="#010101" stroke-width="0.755056" stroke-linejoin="round" fill="none"/><path d="M540.608 379C540.608 358.123 544.76 337.359 552.726 317.991 560.805 298.662 572.509 281.145 587.27 266.27 602.145 251.471 619.738 239.692 639.105 231.689 658.434 223.723 679.123 219.57 700.113 219.57 720.991 219.57 741.755 223.723 761.122 231.689 780.489 239.692 798.006 251.471 812.843 266.27 827.604 281.145 839.421 298.662 847.425 317.991 855.391 337.359 859.543 358.123 859.543 379 859.543 399.991 855.391 420.755 847.425 440.009 839.421 459.376 827.604 476.969 812.843 491.843 798.006 506.604 780.489 518.27 761.122 526.387 741.755 534.353 720.991 538.506 700.113 538.506 679.123 538.506 658.434 534.353 639.105 526.387 619.738 518.27 602.145 506.604 587.27 491.843 572.509 476.969 560.805 459.376 552.726 440.009 544.76 420.755 540.608 399.991 540.608 379Z" fill="#0055FF"/><path d="M629.629 437.404 569.677 392.44 629.629 347.476C631.479 345.966 634.121 345.853 636.084 347.023 638.161 348.345 639.256 350.761 638.689 353.177L626.344 379.982 665.607 379.982C675.008 379.566 684.408 381.076 693.053 384.701 701.774 388.174 709.551 393.535 715.894 400.444L715.894 317.425 689.089 329.657C686.786 330.223 684.295 329.204 683.087 327.128 681.765 325.051 681.992 322.446 683.54 320.596L728.466 260.796 773.278 320.596C774.826 322.446 775.053 325.051 773.731 327.128 772.523 329.204 770.107 330.223 767.691 329.657L740.924 317.425 740.924 497.28 715.894 497.28 715.894 455.223C715.894 448.654 714.686 442.085 712.043 435.969 709.551 429.853 705.814 424.379 701.246 419.66 696.527 414.978 690.977 411.241 684.823 408.749 678.821 406.22 672.252 404.898 665.607 404.898L626.344 404.898 638.689 431.816C639.256 434.119 638.161 436.497 636.084 437.819 634.121 439.027 631.479 438.914 629.629 437.404Z" fill="#FFFFFF"/></g></svg>