<svg width="336" height="336" xmlns="http://www.w3.org/2000/svg" xmlns:xlink="http://www.w3.org/1999/xlink" xml:space="preserve" overflow="hidden"><g transform="translate(-606 -270)"><path d="M941.736 438C941.736 416.028 937.356 394.282 928.938 373.933 920.519 353.585 908.173 335.086 892.657 319.456 877.027 303.94 858.491 291.557 838.18 283.138 817.831 274.719 796.085 270.378 774.113 270.378 752.028 270.378 730.282 274.719 709.933 283.138 689.585 291.557 671.124 303.94 655.494 319.456 639.978 335.086 627.595 353.585 619.176 373.933 610.757 394.282 606.378 416.028 606.378 438 606.378 460.085 610.757 481.831 619.176 502.18 627.595 522.529 639.978 540.99 655.494 556.619 671.124 572.136 689.585 584.519 709.933 592.938 730.282 601.356 752.028 605.698 774.113 605.698 796.085 605.698 817.831 601.356 838.18 592.938 858.491 584.519 877.027 572.136 892.657 556.619 908.173 540.99 920.519 522.529 928.938 502.18 937.356 481.831 941.736 460.085 941.736 438Z" fill="#FFFFFF"/><path d="M941.736 438C941.736 415.99 937.356 394.245 928.938 373.896 920.519 353.547 908.173 335.086 892.657 319.456 877.027 303.94 858.529 291.557 838.218 283.138 817.869 274.719 796.123 270.378 774.113 270.378" stroke="#010101" stroke-width="0.755056" stroke-linejoin="round" fill="none"/><path d="M774.151 270.378C752.066 270.378 730.32 274.719 709.971 283.138 689.622 291.557 671.161 303.94 655.532 319.456 640.015 335.086 627.632 353.547 619.214 373.896 610.757 394.245 606.378 415.99 606.378 438" stroke="#010101" stroke-width="0.755056" stroke-linejoin="round" fill="none"/><path d="M606.378 437.962C606.378 460.048 610.757 481.793 619.214 502.142 627.632 522.491 640.015 540.952 655.532 556.582 671.161 572.098 689.622 584.481 709.971 592.938 730.32 601.356 752.066 605.698 774.151 605.698" stroke="#010101" stroke-width="0.755056" stroke-linejoin="round" fill="none"/><path d="M774.113 605.698C796.123 605.698 817.869 601.356 838.218 592.938 858.529 584.481 877.027 572.098 892.657 556.582 908.173 540.952 920.519 522.491 928.938 502.142 937.356 481.793 941.736 460.048 941.736 437.962" stroke="#010101" stroke-width="0.755056" stroke-linejoin="round" fill="none"/><path d="M933.543 438C933.543 417.123 929.391 396.359 921.425 376.991 913.421 357.662 901.604 340.145 886.843 325.27 872.006 310.471 854.489 298.692 835.122 290.689 815.755 282.723 794.991 278.57 774.113 278.57 753.123 278.57 732.359 282.723 713.105 290.689 693.738 298.692 676.145 310.471 661.27 325.27 646.509 340.145 634.805 357.662 626.726 376.991 618.76 396.359 614.608 417.123 614.608 438 614.608 458.991 618.76 479.755 626.726 499.009 634.805 518.376 646.509 535.969 661.27 550.843 676.145 565.604 693.738 577.27 713.105 585.387 732.359 593.353 753.123 597.506 774.113 597.506 794.991 597.506 815.755 593.353 835.122 585.387 854.489 577.27 872.006 565.604 886.843 550.843 901.604 535.969 913.421 518.376 921.425 499.009 929.391 479.755 933.543 458.991 933.543 438Z" fill="#0055FF"/><path d="M844.635 496.404 904.474 451.44 844.635 406.476C842.748 404.966 840.143 404.853 838.067 406.023 835.99 407.345 835.009 409.761 835.424 412.177L847.807 438.982 808.544 438.982C799.143 438.566 789.743 440.076 781.098 443.701 772.452 447.174 764.6 452.535 758.257 459.444L758.257 376.425 785.024 388.657C787.44 389.223 789.856 388.204 791.064 386.128 792.348 384.051 792.159 381.446 790.611 379.596L745.799 319.796 700.873 379.596C699.325 381.446 699.098 384.051 700.42 386.128 701.628 388.204 704.12 389.223 706.422 388.657L733.34 376.425 733.34 556.28 758.257 556.28 758.257 514.223C758.257 507.654 759.578 501.085 762.07 494.969 764.6 488.853 768.299 483.379 773.018 478.66 777.586 473.978 783.174 470.241 789.29 467.749 795.444 465.22 801.862 463.898 808.544 463.898L847.807 463.898 835.424 490.816C835.009 493.119 835.99 495.497 838.067 496.819 840.143 498.027 842.748 497.914 844.635 496.404Z" fill="#FFFFFF"/></g></svg>