<svg width="336" height="336" xmlns="http://www.w3.org/2000/svg" xmlns:xlink="http://www.w3.org/1999/xlink" xml:space="preserve" overflow="hidden"><g transform="translate(-289 -230)"><path d="M602.197 481.811C591.249 500.952 576.601 517.676 559.121 531.041 541.566 544.481 521.671 554.297 500.378 559.997 479.161 565.698 456.962 567.095 435.103 564.263 413.32 561.432 392.254 554.221 373.227 543.273 354.199 532.249 337.475 517.563 323.997 500.084 310.67 482.604 300.854 462.708 295.154 441.491 289.453 420.161 287.943 397.962 290.774 376.217 293.719 354.358 300.854 333.254 311.878 314.227 322.827 295.161 337.475 278.437 354.954 264.997 372.434 251.67 392.329 241.817 413.66 236.116 434.877 230.453 457.076 228.905 478.934 231.85 500.68 234.719 521.784 241.817 540.811 252.84 559.99 263.902 576.601 278.55 590.041 295.916 603.481 313.471 613.221 333.367 619.035 354.698 624.698 375.877 626.133 398.076 623.301 419.934 620.319 441.718 613.221 462.822 602.197 481.811Z" fill="#FFFFFF"/><path d="M602.16 481.736C591.211 500.876 576.563 517.639 559.084 531.003 541.566 544.443 521.671 554.259 500.378 559.96 479.161 565.66 456.962 567.057 435.103 564.226 413.32 561.394 392.254 554.183 373.189 543.235" stroke="#010101" stroke-width="0.755056" stroke-linejoin="round" fill="none"/><path d="M373.264 543.235C354.237 532.211 337.512 517.525 323.997 500.046 310.67 482.566 300.854 462.671 295.154 441.453 289.453 420.123 287.943 397.924 290.774 376.141 293.719 354.282 300.854 333.178 311.878 314.151" stroke="#010101" stroke-width="0.755056" stroke-linejoin="round" fill="none"/><path d="M311.84 314.227C322.789 295.199 337.437 278.475 354.916 265.035 372.396 251.67 392.329 241.817 413.66 236.116 434.877 230.453 457.076 228.905 478.934 231.85 500.68 234.719 521.784 241.817 540.811 252.84" stroke="#010101" stroke-width="0.755056" stroke-linejoin="round" fill="none"/><path d="M540.773 252.803C559.914 263.864 576.525 278.512 590.003 295.879 603.443 313.396 613.183 333.292 618.997 354.622 624.66 375.801 626.095 398.038 623.263 419.897 620.281 441.68 613.183 462.784 602.16 481.773" stroke="#010101" stroke-width="0.755056" stroke-linejoin="round" fill="none"/><path d="M595.024 477.734C584.642 495.893 570.674 511.749 554.025 524.547 537.413 537.232 518.462 546.633 498.264 551.994 478.028 557.43 456.924 558.865 436.16 556.146 415.359 553.391 395.387 546.52 377.228 536.138 359.182 525.642 343.213 511.636 330.528 495.025 317.73 478.527 308.443 459.499 302.969 439.264 297.532 419.028 296.211 397.924 298.929 377.16 301.685 356.51 308.443 336.387 318.938 318.342 329.32 300.182 343.326 284.251 359.938 271.528 376.549 258.73 395.463 249.443 415.698 243.969 435.934 238.608 457.038 237.173 477.802 239.929 498.566 242.647 518.575 249.443 536.772 259.938 554.931 270.433 570.787 284.326 583.547 300.975 596.232 317.587 605.633 336.501 610.994 356.736 616.468 376.934 617.789 398.038 615.033 418.802 612.315 439.604 605.52 459.613 595.024 477.734Z" fill="#0055FF"/><path d="M507.022 344.693C505.512 342.088 502.643 340.54 499.585 340.88 498.188 341.069 496.754 341.635 495.546 342.617 494.451 343.711 493.696 345.033 493.243 346.316L482.332 389.204 353.18 314.793 343.1 332.197 333.058 349.714 462.21 424.049 430.724 455.007C429.742 455.988 428.987 457.423 428.648 458.933 428.421 460.481 428.534 461.878 429.176 463.199 429.742 464.52 430.611 465.729 431.932 466.597 433.216 467.352 434.764 467.805 436.198 467.805L572.41 464.294 507.022 344.693Z" fill="#FEFEFE"/></g></svg>