<svg width="336" height="336" xmlns="http://www.w3.org/2000/svg" xmlns:xlink="http://www.w3.org/1999/xlink" xml:space="preserve" overflow="hidden"><g transform="translate(-52 -271)"><path d="M52.3775 439.038C52.3775 416.952 56.7569 395.207 65.138 374.858 73.5569 354.547 85.9398 336.01 101.456 320.494 117.086 304.864 135.547 292.519 155.896 284.1 176.244 275.681 197.99 271.415 220.076 271.415 242.048 271.415 263.793 275.681 284.142 284.1 304.491 292.519 322.99 304.864 338.619 320.494 354.136 336.01 366.519 354.547 374.938 374.858 383.356 395.207 387.698 416.952 387.698 439.038 387.698 461.01 383.356 482.793 374.938 503.104 366.519 523.453 354.136 541.914 338.619 557.544 322.99 573.098 304.491 585.443 284.142 593.862 263.793 602.281 242.048 606.66 220.076 606.66 197.99 606.66 176.244 602.281 155.896 593.862 135.547 585.443 117.086 573.098 101.456 557.544 85.9398 541.914 73.5569 523.453 65.138 503.104 56.7569 482.793 52.3775 461.01 52.3775 439.038Z" fill="#FFFFFF"/><path d="M52.3775 439.038C52.3775 416.915 56.7569 395.169 65.1757 374.82 73.5946 354.509 85.9775 336.01 101.494 320.494 117.124 304.864 135.585 292.519 155.933 284.1 176.282 275.681 198.028 271.415 220.113 271.415" stroke="#010101" stroke-width="0.755056" stroke-linejoin="round" fill="none"/><path d="M220.076 271.415C242.085 271.415 263.831 275.681 284.18 284.1 304.529 292.519 322.99 304.864 338.619 320.494 354.136 336.01 366.519 354.509 374.938 374.82 383.356 395.169 387.698 416.915 387.698 439.038" stroke="#010101" stroke-width="0.755056" stroke-linejoin="round" fill="none"/><path d="M387.698 439C387.698 460.972 383.356 482.755 374.938 503.067 366.519 523.415 354.136 541.876 338.619 557.506 322.99 573.06 304.529 585.405 284.18 593.824 263.831 602.281 242.085 606.66 220.076 606.66" stroke="#010101" stroke-width="0.755056" stroke-linejoin="round" fill="none"/><path d="M220.113 606.66C198.028 606.66 176.282 602.281 155.933 593.824 135.585 585.405 117.124 573.06 101.494 557.506 85.9775 541.876 73.5946 523.415 65.1757 503.067 56.7569 482.755 52.3775 460.972 52.3775 439" stroke="#010101" stroke-width="0.755056" stroke-linejoin="round" fill="none"/><path d="M60.5699 439.038C60.5699 418.047 64.7227 397.396 72.6885 378.029 80.8054 358.7 92.471 341.069 107.232 326.346 122.107 311.433 139.738 299.73 158.954 291.651 178.321 283.647 199.085 279.494 220.076 279.494 240.953 279.494 261.717 283.647 281.084 291.651 300.376 299.73 317.969 311.433 332.843 326.346 347.604 341.069 359.308 358.7 367.387 378.029 375.353 397.396 379.506 418.047 379.506 439.038 379.506 459.915 375.353 480.717 367.387 500.046 359.308 519.413 347.604 536.893 332.843 551.768 317.969 566.529 300.376 578.346 281.084 586.311 261.717 594.277 240.953 598.43 220.076 598.43 199.085 598.43 178.321 594.277 158.954 586.311 139.738 578.346 122.107 566.529 107.232 551.768 92.471 536.893 80.8054 519.413 72.6885 500.046 64.7227 480.717 60.5699 459.915 60.5699 439.038Z" fill="#0055FF"/><path d="M203.389 509.975C205.994 511.599 209.278 511.372 211.694 509.522 212.789 508.767 213.771 507.559 214.337 506.011 214.752 504.614 214.752 503.067 214.413 501.67L202.634 459.084 351.644 459.084 351.644 438.962 351.644 418.84 202.634 418.84 214.413 376.217C214.752 374.896 214.752 373.386 214.337 371.838 213.771 370.403 212.789 369.233 211.694 368.327 210.6 367.458 209.165 366.93 207.542 366.93 205.994 366.817 204.597 367.232 203.389 367.911L87.0346 438.962 203.389 509.975Z" fill="#FEFEFE"/></g></svg>