<?xml version="1.0" encoding="UTF-8" standalone="no"?>
<!-- Created with Inkscape (http://www.inkscape.org/) -->

<svg
   xmlns:dc="http://purl.org/dc/elements/1.1/"
   xmlns:cc="http://creativecommons.org/ns#"
   xmlns:rdf="http://www.w3.org/1999/02/22-rdf-syntax-ns#"
   xmlns:svg="http://www.w3.org/2000/svg"
   xmlns="http://www.w3.org/2000/svg"
   xmlns:sodipodi="http://sodipodi.sourceforge.net/DTD/sodipodi-0.dtd"
   xmlns:inkscape="http://www.inkscape.org/namespaces/inkscape"
   width="617.63678"
   height="613.92725"
   id="svg2"
   version="1.1"
   inkscape:version="0.48.0 r9654"
   sodipodi:docname="Directionizquierdaspain.svg">
  <defs
     id="defs4" />
  <sodipodi:namedview
     id="base"
     pagecolor="#ffffff"
     bordercolor="#666666"
     borderopacity="1.0"
     inkscape:pageopacity="0.0"
     inkscape:pageshadow="2"
     inkscape:zoom="0.53915183"
     inkscape:cx="448.00857"
     inkscape:cy="297.98823"
     inkscape:document-units="px"
     inkscape:current-layer="layer1"
     showgrid="false"
     fit-margin-top="0"
     fit-margin-left="0"
     fit-margin-right="0"
     fit-margin-bottom="0"
     inkscape:window-width="1280"
     inkscape:window-height="750"
     inkscape:window-x="-8"
     inkscape:window-y="-8"
     inkscape:window-maximized="1" />
  <metadata
     id="metadata7">
    <rdf:RDF>
      <cc:Work
         rdf:about="">
        <dc:format>image/svg+xml</dc:format>
        <dc:type
           rdf:resource="http://purl.org/dc/dcmitype/StillImage" />
        <dc:title></dc:title>
      </cc:Work>
    </rdf:RDF>
  </metadata>
  <g
     inkscape:label="Capa 1"
     inkscape:groupmode="layer"
     id="layer1"
     transform="translate(-6.6938286,-251.62091)">
    <path
       sodipodi:type="arc"
       style="fill:#ffffff;fill-opacity:1;fill-rule:nonzero;stroke:none"
       id="path2986"
       sodipodi:cx="395.99234"
       sodipodi:cy="392.28281"
       sodipodi:rx="297.68979"
       sodipodi:ry="297.68979"
       d="m 693.68213,392.28281 a 297.68979,297.68979 0 1 1 -595.379579,0 297.68979,297.68979 0 1 1 595.379579,0 z"
       transform="matrix(0.71591804,-0.71591804,0.71591804,0.71591804,-246.97345,559.24023)" />
    <path
       inkscape:connector-curvature="0"
       id="path3054"
       d="m 853.11812,562.21459 c -1.0153,-2e-5 -2.3872,-1.26346 -3.04874,-2.80761 -0.73104,-1.70642 -0.007,-1.70638 1.846,2e-5 1.67697,1.54404 2.21809,2.80754 1.20274,2.80759 z M 544.94666,359.42005 c 46.88433,53.33222 72.81162,123.15484 72.85195,196.19124 0.0467,84.5288 -29.63417,156.27614 -89.35465,215.99661 C 410.28837,889.76349 219.76739,889.495 101.27826,771.00588 43.033947,712.76157 12.746259,639.7394 12.579158,557.15662 12.41274,474.93068 42.321646,402.16573 100.28657,343.77428 c 34.8949,-35.15143 73.33985,-59.3892 117.23962,-73.91378 119.13935,-39.41815 244.07944,-5.24323 327.42047,89.55955 z m -67.55987,-56.1872 C 396.83394,253.2774 303.24494,242.45912 215.904,273.00722 172.74052,288.10393 146.51319,304.25655 110.6564,337.8257 89.987948,357.17554 81.550452,366.37784 71.195857,380.86321 34.683903,431.941 15.966928,489.06448 15.10249,552.05843 c -0.520547,37.9306 4.260966,67.87284 16.560848,103.70571 16.791707,48.91888 41.450741,86.20481 81.299422,122.92957 56.80233,52.34936 123.59855,78.12614 202.14666,78.00879 62.75273,-0.0938 114.23824,-15.34263 167.51946,-49.61561 22.31582,-14.35457 68.11499,-60.0402 82.60044,-82.39566 32.67978,-50.43481 49.06389,-103.86183 49.95561,-162.90042 0.97958,-64.85665 -17.4661,-125.82921 -54.09055,-178.79717 -14.56771,-21.0685 -62.10305,-66.36256 -83.70759,-79.76079 z m 53.71504,66.97663 c 42.74176,48.14819 67.36356,111.34739 68.8794,176.79977 1.39452,60.21475 -11.59155,109.95112 -41.91127,160.51915 -11.12957,18.56219 -15.10484,23.35731 -40.54239,48.90365 -21.43196,21.5236 -31.85613,30.67938 -43.41963,38.13628 -75.14199,48.45652 -165.80239,60.43712 -249.02699,32.90849 C 177.55803,811.75739 151.41652,795.21708 112.79668,756.43205 87.359084,730.8857 83.383836,726.09056 72.254294,707.52841 12.565614,607.97805 16.257082,484.91635 81.725271,391.7918 c 14.107805,-20.06744 48.310059,-54.18696 68.692309,-68.52627 83.79077,-58.94827 195.6686,-68.25645 288.13219,-23.97251 35.99713,17.24023 63.84481,38.57805 92.55199,70.91639 z m -180.03779,86.8455 c -56.28377,56.28376 -82.23581,81.23256 -83.34505,80.12332 -0.886,-0.886 -8.17857,-12.30348 -16.20564,-25.37209 -8.02714,-13.06868 -16.84282,-26.00927 -19.59042,-28.75687 -6.01274,-6.01274 -12.24063,-5.92735 -15.42142,0.21141 -3.75056,7.23815 -50.70939,219.34545 -48.95075,221.10409 1.7508,1.7508 206.74823,-43.4347 218.66077,-48.19712 15.31755,-6.12361 9.92199,-13.52597 -25.98101,-35.64434 -13.13105,-8.0895 -24.5184,-15.35195 -25.30506,-16.13861 -0.87094,-0.87094 30.54069,-33.40164 80.30371,-83.16466 l 81.73417,-81.73417 -32.08256,-32.08257 -32.08257,-32.08256 -81.73417,81.73417 z"
       style="fill:#124f90" />
  </g>
</svg>
