<svg width="336" height="336" xmlns="http://www.w3.org/2000/svg" xmlns:xlink="http://www.w3.org/1999/xlink" xml:space="preserve" overflow="hidden"><g transform="translate(-394 -70)"><path d="M394.378 238.038C394.378 215.952 398.757 194.207 407.176 173.858 415.595 153.547 427.978 135.01 443.494 119.494 459.124 103.864 477.585 91.5191 497.933 83.1002 518.282 74.6814 540.028 70.4153 562.113 70.4153 584.085 70.4153 605.831 74.6814 626.18 83.1002 646.491 91.5191 665.027 103.864 680.657 119.494 696.173 135.01 708.519 153.547 716.938 173.858 725.356 194.207 729.736 215.952 729.736 238.038 729.736 260.01 725.356 281.793 716.938 302.104 708.519 322.566 696.173 341.027 680.657 356.544 665.027 372.098 646.491 384.443 626.18 392.862 605.831 401.281 584.085 405.66 562.113 405.66 540.028 405.66 518.282 401.281 497.933 392.862 477.585 384.443 459.124 372.098 443.494 356.544 427.978 341.027 415.595 322.566 407.176 302.104 398.757 281.793 394.378 260.01 394.378 238.038Z" fill="#FFFFFF"/><path d="M394.378 238.038C394.378 215.915 398.757 194.169 407.213 173.82 415.632 153.509 428.015 135.01 443.532 119.494 459.161 103.864 477.622 91.5191 497.971 83.1002 518.32 74.6814 540.066 70.4153 562.151 70.4153" stroke="#010101" stroke-width="0.755056" stroke-linejoin="round" fill="none"/><path d="M562.113 70.4153C584.123 70.4153 605.869 74.6814 626.218 83.1002 646.529 91.5191 665.027 103.864 680.657 119.494 696.173 135.01 708.519 153.509 716.938 173.82 725.356 194.169 729.736 215.915 729.736 238.038" stroke="#010101" stroke-width="0.755056" stroke-linejoin="round" fill="none"/><path d="M729.736 238C729.736 259.972 725.356 281.755 716.938 302.067 708.519 322.529 696.173 340.99 680.657 356.506 665.027 372.06 646.529 384.405 626.218 392.824 605.869 401.281 584.123 405.66 562.113 405.66" stroke="#010101" stroke-width="0.755056" stroke-linejoin="round" fill="none"/><path d="M562.151 405.66C540.066 405.66 518.32 401.281 497.971 392.824 477.622 384.405 459.161 372.06 443.532 356.506 428.015 340.99 415.632 322.529 407.213 302.067 398.757 281.755 394.378 259.972 394.378 238" stroke="#010101" stroke-width="0.755056" stroke-linejoin="round" fill="none"/><path d="M402.608 238.038C402.608 217.047 406.76 196.396 414.726 177.029 422.805 157.7 434.509 140.069 449.27 125.346 464.145 110.433 481.738 98.7299 501.105 90.7263 520.434 82.6472 541.123 78.6076 562.113 78.6076 582.991 78.6076 603.755 82.6472 623.122 90.7263 642.489 98.7299 660.006 110.433 674.843 125.346 689.604 140.069 701.421 157.7 709.425 177.029 717.391 196.396 721.543 217.047 721.543 238.038 721.543 258.915 717.391 279.717 709.425 299.046 701.421 318.413 689.604 335.893 674.843 350.768 660.006 365.529 642.489 377.346 623.122 385.311 603.755 393.277 582.991 397.43 562.113 397.43 541.123 397.43 520.434 393.277 501.105 385.311 481.738 377.346 464.145 365.529 449.27 350.768 434.509 335.893 422.805 318.413 414.726 299.046 406.76 279.717 402.608 258.915 402.608 238.038Z" fill="#0055FF"/><path d="M625.462 338.234 603.037 338.234 603.037 256.65C603.037 249.741 601.716 242.983 599.111 236.716 596.468 230.374 592.655 224.598 587.823 219.803 582.915 214.971 577.214 211.044 570.872 208.402 564.567 205.797 557.772 204.475 550.863 204.475L524.813 204.475 534.101 234.64C534.554 237.056 533.459 239.472 531.382 240.68 529.306 241.964 526.701 241.775 524.813 240.227L461.54 193.338 524.813 146.412C526.701 144.902 529.306 144.675 531.382 145.883 533.459 147.204 534.554 149.583 534.101 151.999L524.813 182.164 550.863 182.164C555.318 182.164 559.848 182.503 564.454 183.372 569.135 184.24 573.741 185.561 578.309 187.411 582.915 189.186 587.408 191.489 591.674 194.32 595.94 197.038 599.979 200.323 603.566 203.947 607.303 207.647 610.475 211.573 613.306 215.839 616.024 220.105 618.327 224.598 620.215 229.204 622.065 233.772 623.386 238.491 624.141 243.059 625.009 247.665 625.462 252.271 625.462 256.65L625.462 338.234Z" fill="#FFFFFF"/></g></svg>