<svg width="336" height="336" xmlns="http://www.w3.org/2000/svg" xmlns:xlink="http://www.w3.org/1999/xlink" xml:space="preserve" overflow="hidden"><g transform="translate(-16 -336)"><path d="M351.736 504.038C351.736 481.952 347.356 460.207 338.938 439.858 330.519 419.547 318.173 401.01 302.657 385.494 287.027 369.864 268.491 357.519 248.18 349.1 227.831 340.681 206.085 336.415 184.113 336.415 162.028 336.415 140.282 340.681 119.933 349.1 99.5847 357.519 81.1236 369.864 65.4939 385.494 49.9775 401.01 37.5946 419.547 29.1757 439.858 20.7569 460.207 16.3775 481.952 16.3775 504.038 16.3775 526.01 20.7569 547.793 29.1757 568.104 37.5946 588.453 49.9775 606.914 65.4939 622.544 81.1236 638.098 99.5847 650.443 119.933 658.862 140.282 667.281 162.028 671.66 184.113 671.66 206.085 671.66 227.831 667.281 248.18 658.862 268.491 650.443 287.027 638.098 302.657 622.544 318.173 606.914 330.519 588.453 338.938 568.104 347.356 547.793 351.736 526.01 351.736 504.038Z" fill="#FFFFFF"/><path d="M351.736 504.038C351.736 481.915 347.356 460.169 338.938 439.82 330.519 419.509 318.173 401.01 302.657 385.494 287.027 369.864 268.529 357.519 248.218 349.1 227.869 340.681 206.123 336.415 184.113 336.415" stroke="#010101" stroke-width="0.755056" stroke-linejoin="round" fill="none"/><path d="M184.151 336.415C162.066 336.415 140.32 340.681 119.971 349.1 99.6225 357.519 81.1613 369.864 65.5317 385.494 50.0153 401.01 37.6324 419.509 29.2135 439.82 20.7569 460.169 16.3775 481.915 16.3775 504.038" stroke="#010101" stroke-width="0.755056" stroke-linejoin="round" fill="none"/><path d="M16.3775 504C16.3775 525.972 20.7569 547.755 29.2135 568.067 37.6324 588.415 50.0153 606.876 65.5317 622.506 81.1613 638.06 99.6225 650.405 119.971 658.824 140.32 667.281 162.066 671.66 184.151 671.66" stroke="#010101" stroke-width="0.755056" stroke-linejoin="round" fill="none"/><path d="M184.113 671.66C206.123 671.66 227.869 667.281 248.218 658.824 268.529 650.405 287.027 638.06 302.657 622.506 318.173 606.876 330.519 588.415 338.938 568.067 347.356 547.755 351.736 525.972 351.736 504" stroke="#010101" stroke-width="0.755056" stroke-linejoin="round" fill="none"/><path d="M343.543 504.038C343.543 483.047 339.391 462.396 331.425 443.029 323.421 423.7 311.604 406.069 296.843 391.346 282.006 376.433 264.489 364.73 245.122 356.651 225.755 348.647 204.991 344.494 184.113 344.494 163.123 344.494 142.359 348.647 123.105 356.651 103.738 364.73 86.1447 376.433 71.2701 391.346 56.5088 406.069 44.8054 423.7 36.7263 443.029 28.7604 462.396 24.6076 483.047 24.6076 504.038 24.6076 524.915 28.7604 545.717 36.7263 565.046 44.8054 584.413 56.5088 601.893 71.2701 616.768 86.1447 631.529 103.738 643.346 123.105 651.311 142.359 659.277 163.123 663.43 184.113 663.43 204.991 663.43 225.755 659.277 245.122 651.311 264.489 643.346 282.006 631.529 296.843 616.768 311.604 601.893 323.421 584.413 331.425 565.046 339.391 545.717 343.543 524.915 343.543 504.038Z" fill="#0055FF"/><path d="M237.496 481.537C239.799 481.424 241.988 480.631 243.725 479.234 245.575 477.8 246.783 475.836 247.462 473.647 247.991 471.344 247.764 469.079 246.896 466.964 245.915 464.813 244.367 463.038 242.29 461.943 242.857 461.415 243.272 460.735 243.725 459.98 244.065 459.225 244.367 458.357 244.593 457.489 245.046 455.601 244.933 453.638 244.291 451.675 243.498 449.711 242.29 448.164 240.893 446.993 240.138 446.427 239.346 445.974 238.591 445.672 237.835 445.219 236.967 444.992 236.288 444.917 236.401 443.709 236.288 442.387 236.174 440.953 235.948 439.518 235.533 438.084 234.966 436.762 233.796 433.818 231.72 431.213 228.964 429.325 226.245 427.362 223.074 426.38 220.016 426.154 218.468 426.154 216.958 426.267 215.599 426.607 214.164 426.833 212.956 427.249 211.862 427.815 211.22 424.304 209.785 421.019 207.52 418.188 205.217 415.47 202.272 413.355 198.988 412.072 195.59 410.864 191.966 410.524 188.493 411.204 184.982 411.732 181.584 413.28 178.979 415.545 176.449 413.469 173.391 412.185 170.107 411.619 166.936 411.204 163.538 411.619 160.593 412.827 157.535 414.148 154.93 416.111 153.043 418.83 151.08 421.472 149.871 424.53 149.683 427.815 148.701 427.588 147.606 427.362 146.511 427.362 145.417 427.249 144.209 427.362 143 427.702 140.471 428.23 138.093 429.438 136.205 431.401 134.242 433.365 133.034 435.667 132.505 438.197 132.165 439.405 132.052 440.651 132.052 441.746 132.165 442.916 132.279 443.898 132.618 444.917 131.863 444.992 130.957 445.219 130.202 445.445 129.334 445.785 128.579 446.2 127.786 446.767 126.163 447.862 124.841 449.372 123.973 451.335 123.218 453.336 122.991 455.299 123.218 457.262 123.444 458.244 123.633 459.112 123.973 459.867 124.426 460.66 124.841 461.415 125.294 461.943 123.218 463.038 121.67 464.813 120.802 466.964 119.82 469.079 119.707 471.344 120.273 473.647 120.689 475.723 121.897 477.686 123.86 479.234 125.71 480.744 128.013 481.424 130.089 481.537L237.496 481.537Z" fill="#FF9B00"/><path d="M198.459 476.591C200.12 476.591 201.631 475.95 202.725 474.855 203.933 473.647 204.575 472.137 204.575 470.438 205.142 468.475 205.142 466.398 204.575 464.435 202.952 460.509 202.499 456.356 203.367 452.203 202.725 453.94 201.97 455.563 200.876 457.111L197.251 437.517 194.76 442.463C193.325 436.875 190.38 431.854 186.227 427.815 185.133 430.533 183.396 432.949 181.395 435.139 179.319 437.97 178.035 441.368 177.695 444.879 176.374 445.936 175.166 447.258 174.071 448.805 173.089 450.202 172.221 451.75 171.693 453.373L167.917 452.203C168.484 456.243 168.484 460.396 167.917 464.435 167.275 466.851 166.936 469.23 166.709 471.797 166.709 472.325 166.936 473.005 167.502 473.42 167.917 473.987 168.597 474.213 169.125 474.213L174.071 474.213C174.637 474.213 175.279 473.987 175.845 473.42 176.261 473.005 176.487 472.325 176.487 471.797L176.487 466.851C176.487 465.077 177.129 463.453 178.224 462.019 179.319 460.698 180.867 459.829 182.603 459.527 183.283 458.432 183.585 457.111 183.811 455.903 187.322 459.414 188.719 464.435 187.549 469.23 186.756 470.438 186.114 471.684 185.472 472.892 184.906 474.1 184.378 475.383 183.811 476.591L198.459 476.591Z" fill="#010101"/><path d="M146.511 466.889 143.529 461.906C145.719 460.698 148.361 460.056 151.08 460.282 153.835 460.509 156.214 461.604 158.215 463.114L146.511 466.889Z" fill="#010101"/><path d="M149.683 453.411 157.044 452.241C157.233 452.241 157.46 452.128 157.573 451.901 157.686 451.675 157.8 451.41 157.686 451.184 157.044 449.674 155.95 448.352 154.515 447.258 152.439 447.144 150.324 447.597 148.475 448.579 148.701 449.221 148.89 449.9 148.89 450.542 149.003 451.297 149.003 452.014 148.89 452.769L149.683 453.411Z" fill="#010101"/><path d="M147.267 442.463C153.42 442.878 159.234 445.068 164.369 448.617 163.274 445.294 161.311 442.463 158.668 440.273 156.138 437.97 152.967 436.536 149.683 435.894 149.003 435.894 148.475 436.12 147.908 436.536 147.493 437.102 147.267 437.744 147.267 438.31L147.267 442.463Z" fill="#010101"/><path d="M161.801 427.853C164.369 428.079 166.634 429.061 168.635 430.458 170.598 432.005 171.995 434.082 172.901 436.385 172.976 435.063 172.976 433.629 172.674 432.232 172.448 430.797 171.806 429.363 171.013 428.155 170.258 426.833 169.163 425.738 168.068 424.87 166.86 423.964 165.539 423.322 164.369 422.869L161.801 427.853Z" fill="#010101"/><path d="M180.187 426.645 185.019 421.699C185.359 421.472 185.548 421.019 185.548 420.491 185.548 420.038 185.359 419.622 185.019 419.283L183.811 418.075C183.396 417.622 182.716 417.32 181.961 417.32 181.282 417.32 180.602 417.622 180.187 418.075L176.449 420.491C176.223 420.793 176.034 421.246 176.034 421.699 176.034 422.227 176.223 422.68 176.449 422.869L180.187 426.645Z" fill="#010101"/><path d="M196.005 432.76C198.082 430.684 200.611 429.061 203.329 427.853 203.82 427.4 204.047 426.758 204.047 426.003 204.047 425.172 203.82 424.644 203.329 424.191 202.801 423.775 202.272 423.435 201.48 423.435 200.724 423.435 200.083 423.775 199.63 424.191 197.44 426.531 196.119 429.476 196.005 432.76Z" fill="#010101"/><path d="M202.046 449.825C204.651 447.522 207.595 445.559 210.691 443.86 213.749 442.236 216.996 440.915 220.431 440.047L220.431 435.139C216.467 435.667 212.654 437.329 209.257 439.933 205.972 442.689 203.556 446.087 202.046 449.825Z" fill="#010101"/><path d="M210.578 459.565 211.107 449.825C210.993 449.258 211.107 448.617 211.333 447.975 211.56 447.258 211.862 446.729 212.315 446.163 213.296 445.181 214.618 444.766 215.712 444.766 216.92 444.766 218.242 445.181 219.223 446.163 220.129 447.258 220.545 448.617 220.431 449.825 220.318 451.222 219.79 452.769 218.921 454.091 218.053 455.412 216.807 456.469 215.486 457.149L210.578 459.565Z" fill="#010101"/><path d="M223.263 444.879 222.81 448.088C222.81 448.39 222.81 448.73 222.923 449.07 223.036 449.258 223.263 449.598 223.452 449.938 223.678 450.164 224.018 450.24 224.32 450.353 224.66 450.467 225 450.58 225.264 450.467L227.755 451.033C229.53 450.58 230.927 449.145 231.38 447.258 231.795 446.276 231.493 445.181 230.625 444.539 229.643 443.973 228.435 444.086 227.755 444.879L226.472 445.408 223.263 444.879Z" fill="#010101"/><path d="M211.56 463.906C214.089 462.925 216.845 462.17 219.563 461.943 222.281 461.717 225.037 461.83 227.755 462.51L227.755 458.319C224.924 457.866 221.979 457.979 219.11 458.848 217.713 459.187 216.392 459.867 215.071 460.547 213.862 461.188 212.654 462.057 211.56 462.925L211.56 463.906Z" fill="#010101"/><path d="M216.694 470.249C215.826 470.136 215.146 469.494 215.146 468.626 215.146 467.606 215.826 466.927 216.694 466.851 220.092 465.945 223.565 466.511 226.472 468.626 226.472 469.267 226.132 469.947 225.679 470.475 225.264 471.042 224.66 471.457 224.018 471.797L216.694 470.249Z" fill="#010101"/><path d="M121.557 577.278C121.557 578.297 122.01 579.355 122.878 580.261 123.671 581.129 124.766 581.469 125.747 581.469L140.32 581.469C141.49 581.469 142.472 581.016 143.378 580.261 144.133 579.468 144.548 578.373 144.548 577.278L144.548 556.476 223.603 556.476 223.603 577.278C223.603 578.297 224.056 579.355 224.811 580.261 225.679 581.129 226.774 581.469 227.869 581.469L242.404 581.469C243.385 581.469 244.48 581.129 245.386 580.261 246.141 579.355 246.556 578.297 246.556 577.278L246.556 556.476C248.746 556.476 250.822 555.608 252.484 553.985 253.994 552.437 254.862 550.36 254.862 548.171 254.333 546.094 253.994 543.905 253.994 541.715 253.994 539.525 254.333 537.336 254.862 535.259L254.862 518.988C254.862 517.44 254.673 515.93 253.994 514.382 253.352 512.872 252.484 511.324 251.162 510.116 249.954 508.946 248.52 507.926 247.009 507.398 245.462 506.756 243.838 506.529 242.404 506.529L233.456 483.462C232.701 482.368 231.493 481.273 230.058 480.707 228.624 480.065 227.114 479.951 225.679 480.291L142.472 480.291C141.075 479.951 139.527 480.065 138.13 480.707 136.696 481.273 135.601 482.368 134.733 483.462L125.747 506.529C124.351 506.529 122.765 506.756 121.142 507.398 119.594 507.926 118.197 508.946 116.989 510.116 115.667 511.324 114.799 512.872 114.12 514.382 113.591 515.93 113.251 517.44 113.251 518.988L113.251 535.259C114.346 539.525 114.346 543.905 113.251 548.171 113.251 549.152 113.478 550.134 113.931 551.229 114.233 552.21 114.912 553.192 115.781 553.985 116.536 554.853 117.517 555.495 118.499 555.835 119.594 556.25 120.575 556.476 121.557 556.476L121.557 577.278ZM229.643 486.936 237.496 506.529C219.676 505.774 201.857 505.321 183.924 505.321 166.105 505.321 148.173 505.774 130.353 506.529L138.659 486.936C138.885 486.181 139.414 485.539 140.207 485.086 140.849 484.671 141.717 484.444 142.472 484.444L225.679 484.444C226.547 484.444 227.34 484.671 227.982 485.086 228.737 485.539 229.303 486.181 229.643 486.936ZM133.185 521.819C135.601 521.819 137.791 522.801 139.527 524.462 141.188 526.199 142.17 528.502 142.17 530.805 142.17 533.183 141.188 535.486 139.527 537.147 137.791 538.884 135.601 539.752 133.185 539.752 130.806 539.752 128.503 538.884 126.842 537.147 125.106 535.486 124.237 533.183 124.237 530.805 124.237 528.502 125.106 526.199 126.842 524.462 128.503 522.801 130.806 521.819 133.185 521.819ZM234.966 521.819C236.061 521.819 237.156 522.046 238.364 522.499 239.459 522.914 240.44 523.594 241.309 524.462 242.215 525.33 242.97 526.425 243.385 527.52 243.838 528.615 243.951 529.823 243.951 530.805 243.951 533.183 243.083 535.486 241.309 537.147 239.685 538.884 237.382 539.752 234.966 539.752 232.701 539.752 230.398 538.884 228.624 537.147 227 535.486 226.019 533.183 226.019 530.805 226.019 528.502 227 526.199 228.624 524.462 230.398 522.801 232.701 521.819 234.966 521.819Z" fill="#FFFFFF"/></g></svg>