<svg width="336" height="336" xmlns="http://www.w3.org/2000/svg" xmlns:xlink="http://www.w3.org/1999/xlink" xml:space="preserve" overflow="hidden"><g transform="translate(-340 -300)"><path d="M340.415 468C340.415 489.972 344.795 511.755 353.213 532.067 361.632 552.415 374.015 570.876 389.532 586.506 405.161 602.06 423.622 614.405 443.971 622.824 464.32 631.243 486.066 635.622 508.038 635.622 530.123 635.622 551.869 631.243 572.218 622.824 592.529 614.405 611.065 602.06 626.695 586.506 642.211 570.99 654.556 552.529 662.975 532.18 671.394 511.831 675.773 489.972 675.773 468 675.773 446.028 671.394 424.169 662.975 403.82 654.556 383.509 642.211 364.973 626.695 349.456 611.178 333.827 592.642 321.481 572.331 313.062 551.869 304.644 530.123 300.378 508.151 300.378 486.066 300.264 464.32 304.644 443.971 313.062 423.622 321.481 405.161 333.827 389.645 349.343 374.015 364.973 361.632 383.509 353.213 403.82 344.795 424.169 340.415 445.915 340.415 468Z" fill="#FFFFFF"/><path d="M340.415 467.962C340.415 489.934 344.795 511.718 353.213 532.029 361.632 552.378 374.015 570.839 389.532 586.468 405.161 602.022 423.622 614.368 443.971 622.786 464.32 631.243 486.066 635.622 508.038 635.622 530.123 635.622 551.869 631.243 572.218 622.786 592.529 614.368 611.065 602.022 626.695 586.468 642.211 570.952 654.556 552.491 662.975 532.142 671.394 511.793 675.773 489.934 675.773 467.962" stroke="#010101" stroke-width="0.755056" stroke-linejoin="round" fill="none"/><path d="M675.773 468C675.773 445.99 671.394 424.131 662.975 403.782 654.556 383.471 642.211 364.973 626.695 349.456 611.178 333.827 592.642 321.481 572.331 313.062 551.869 304.644 530.123 300.378 508.151 300.378 486.066 300.264 464.32 304.644 443.971 313.062 423.622 321.481 405.161 333.827 389.645 349.343 374.015 364.973 361.632 383.471 353.213 403.782 344.795 424.131 340.415 445.877 340.415 468" stroke="#010101" stroke-width="0.755056" stroke-linejoin="round" fill="none"/><path d="M348.645 468C348.645 488.877 352.798 509.679 360.764 529.009 368.843 548.376 380.547 565.855 395.308 580.73 410.182 595.491 427.662 607.308 447.029 615.274 466.396 623.24 487.16 627.392 508.038 627.392 529.028 627.392 549.792 623.24 569.16 615.274 588.413 607.308 606.044 595.491 620.881 580.73 635.642 565.969 647.346 548.376 655.462 529.009 663.428 509.679 667.581 488.877 667.581 468 667.581 447.009 663.428 426.359 655.462 406.991 647.459 387.662 635.642 370.031 620.881 355.308 606.044 340.396 588.527 328.692 569.16 320.689 549.792 312.609 529.028 308.457 508.151 308.457 487.16 308.457 466.472 312.609 447.142 320.613 427.775 328.692 410.182 340.396 395.421 355.195 380.547 370.031 368.843 387.662 360.764 406.991 352.798 426.245 348.645 447.009 348.645 468Z" fill="#0055FF"/><path d="M433.816 410.578 469.681 410.578 469.681 564.119 491.691 564.119 491.691 385.963C491.578 383.773 490.671 381.697 489.161 380.187 487.613 378.639 485.537 377.771 483.347 377.771L433.816 377.771 433.816 410.578Z" fill="#FFFFFF"/><path d="M497.089 564.119 518.986 564.119 518.986 377.771 497.089 377.771 497.089 564.119Z" fill="#FFFFFF"/><path d="M524.536 564.119 546.432 564.119 546.432 410.578 582.411 410.578 582.411 377.771 532.766 377.771C531.784 377.771 530.803 377.884 529.708 378.337 528.726 378.752 527.745 379.319 526.99 380.187 526.197 380.942 525.517 381.924 525.102 382.905 524.762 383.887 524.536 384.982 524.536 385.963L524.536 564.119Z" fill="#FFFFFF"/></g></svg>