<svg width="336" height="336" xmlns="http://www.w3.org/2000/svg" xmlns:xlink="http://www.w3.org/1999/xlink" xml:space="preserve" overflow="hidden"><g transform="translate(-487 -346)"><path d="M822.736 514.038C822.736 491.952 818.356 470.207 809.938 449.858 801.519 429.547 789.173 411.01 773.657 395.494 758.027 379.864 739.491 367.519 719.18 359.1 698.831 350.681 677.085 346.415 655.113 346.415 633.028 346.415 611.282 350.681 590.933 359.1 570.585 367.519 552.124 379.864 536.494 395.494 520.978 411.01 508.595 429.547 500.176 449.858 491.757 470.207 487.378 491.952 487.378 514.038 487.378 536.01 491.757 557.793 500.176 578.104 508.595 598.566 520.978 617.027 536.494 632.544 552.124 648.098 570.585 660.443 590.933 668.862 611.282 677.281 633.028 681.66 655.113 681.66 677.085 681.66 698.831 677.281 719.18 668.862 739.491 660.443 758.027 648.098 773.657 632.544 789.173 617.027 801.519 598.566 809.938 578.104 818.356 557.793 822.736 536.01 822.736 514.038Z" fill="#FFFFFF"/><path d="M822.736 514.038C822.736 491.915 818.356 470.169 809.938 449.82 801.519 429.509 789.173 411.01 773.657 395.494 758.027 379.864 739.529 367.519 719.218 359.1 698.869 350.681 677.123 346.415 655.113 346.415" stroke="#010101" stroke-width="0.755056" stroke-linejoin="round" fill="none"/><path d="M655.151 346.415C633.066 346.415 611.32 350.681 590.971 359.1 570.622 367.519 552.161 379.864 536.532 395.494 521.015 411.01 508.632 429.509 500.213 449.82 491.757 470.169 487.378 491.915 487.378 514.038" stroke="#010101" stroke-width="0.755056" stroke-linejoin="round" fill="none"/><path d="M487.378 514C487.378 535.972 491.757 557.755 500.213 578.067 508.632 598.529 521.015 616.99 536.532 632.506 552.161 648.06 570.622 660.405 590.971 668.824 611.32 677.281 633.066 681.66 655.151 681.66" stroke="#010101" stroke-width="0.755056" stroke-linejoin="round" fill="none"/><path d="M655.113 681.66C677.123 681.66 698.869 677.281 719.218 668.824 739.529 660.405 758.027 648.06 773.657 632.506 789.173 616.99 801.519 598.529 809.938 578.067 818.356 557.755 822.736 535.972 822.736 514" stroke="#010101" stroke-width="0.755056" stroke-linejoin="round" fill="none"/><path d="M814.543 514.038C814.543 493.047 810.391 472.396 802.425 453.029 794.421 433.7 782.604 416.069 767.843 401.346 753.006 386.433 735.489 374.73 716.122 366.726 696.755 358.647 675.991 354.608 655.113 354.608 634.123 354.608 613.359 358.647 594.105 366.726 574.738 374.73 557.145 386.433 542.27 401.346 527.509 416.069 515.805 433.7 507.726 453.029 499.76 472.396 495.608 493.047 495.608 514.038 495.608 534.915 499.76 555.717 507.726 575.046 515.805 594.413 527.509 611.893 542.27 626.768 557.145 641.529 574.738 653.346 594.105 661.311 613.359 669.277 634.123 673.43 655.113 673.43 675.991 673.43 696.755 669.277 716.122 661.311 735.489 653.346 753.006 641.529 767.843 626.768 782.604 611.893 794.421 594.413 802.425 575.046 810.391 555.717 814.543 534.915 814.543 514.038Z" fill="#0055FF"/><path d="M699.322 423.846C699.322 416.182 696.264 408.707 690.79 403.271 685.315 397.797 677.878 394.739 670.177 394.739 662.551 394.739 655.113 397.797 649.639 403.271 644.278 408.707 641.22 416.182 641.22 423.846 641.22 431.51 644.278 438.947 649.639 444.422 655.113 449.745 662.551 452.803 670.177 452.803 677.878 452.803 685.315 449.745 690.79 444.422 696.264 438.947 699.322 431.51 699.322 423.846Z" fill="#FFFFFF"/><path d="M639.937 553.829 609.621 553.829C607.885 553.716 606.11 554.169 604.6 555.151 602.939 556.019 601.655 557.34 600.787 558.888L573.529 610.572C573.001 611.44 572.548 612.535 572.246 613.63 571.906 614.611 571.793 615.819 571.793 616.914 571.793 620.199 573.114 623.483 575.53 625.786 577.796 628.202 581.08 629.486 584.365 629.486 586.554 629.486 588.744 628.957 590.707 627.749 592.67 626.654 594.218 625.031 595.313 623.143L617.927 581.502C618.38 580.86 619.022 580.181 619.777 579.765 620.569 579.199 621.438 578.973 622.306 578.973L682.899 578.973C687.505 578.973 691.998 577.123 695.358 573.838 698.642 570.554 700.53 566.099 700.53 561.38L700.53 548.695 715.707 548.695 715.707 533.594 700.53 533.594 700.53 488.102 726.957 461.637 716.915 451.595 696.037 472.472C694.187 467.224 690.676 462.618 685.957 459.56 681.389 456.502 675.802 454.955 670.214 455.294 662.249 455.294 654.471 458.579 648.809 464.28 643.108 469.829 639.937 477.606 639.937 485.572L639.937 528.535 637.445 531.064 639.937 531.064 639.937 533.594 637.445 533.594 637.445 548.695 639.937 548.695 639.937 553.829Z" fill="#FFFFFF"/><path d="M694.187 423.846C694.187 417.466 691.658 411.35 687.165 406.858 682.711 402.365 676.557 399.873 670.214 399.873 663.872 399.873 657.756 402.365 653.301 406.858 648.809 411.35 646.241 417.466 646.241 423.846 646.241 430.189 648.809 436.305 653.301 440.797 657.756 445.29 663.872 447.782 670.214 447.782 676.557 447.782 682.711 445.29 687.165 440.797 691.658 436.305 694.187 430.189 694.187 423.846Z" fill="#010101"/><path d="M694.187 423.846C694.187 417.504 691.658 411.388 687.165 406.858 682.673 402.365 676.519 399.873 670.177 399.873" stroke="#FFFFFF" stroke-width="0.755056" stroke-linejoin="round" fill="none"/><path d="M670.214 399.873C663.872 399.873 657.718 402.365 653.263 406.858 648.771 411.388 646.241 417.504 646.241 423.846" stroke="#FFFFFF" stroke-width="0.755056" stroke-linejoin="round" fill="none"/><path d="M646.241 423.809C646.241 430.151 648.771 436.305 653.263 440.797 657.718 445.29 663.872 447.782 670.214 447.782" stroke="#FFFFFF" stroke-width="0.755056" stroke-linejoin="round" fill="none"/><path d="M670.177 447.782C676.519 447.782 682.673 445.29 687.165 440.797 691.658 436.305 694.187 430.151 694.187 423.809" stroke="#FFFFFF" stroke-width="0.755056" stroke-linejoin="round" fill="none"/><path d="M644.92 558.85 609.621 558.85C608.753 558.85 607.998 559.039 607.092 559.492 606.337 559.907 605.808 560.587 605.355 561.342L577.796 613.101C577.493 613.63 577.267 614.309 577.04 614.951 576.927 615.631 576.814 616.272 576.814 616.914 576.814 618.877 577.607 620.878 579.004 622.275 580.438 623.71 582.401 624.465 584.365 624.465 585.686 624.465 587.007 624.125 588.215 623.483 589.386 622.728 590.367 621.746 590.933 620.652L613.434 578.973C614.34 577.576 615.511 576.254 617.172 575.273 618.795 574.404 620.569 573.951 622.306 573.951L682.899 573.951C686.184 573.951 689.355 572.63 691.771 570.252 694.187 567.949 695.471 564.664 695.471 561.342L695.471 548.657 644.92 548.657 644.92 558.85Z" fill="#010101"/><path d="M644.92 558.85 609.621 558.85" stroke="#FFFFFF" stroke-width="0.755056" stroke-linejoin="round" fill="none"/><path d="M622.306 573.914 682.862 573.914" stroke="#FFFFFF" stroke-width="0.755056" stroke-linejoin="round" fill="none"/><path d="M682.862 573.951C686.146 573.951 689.355 572.63 691.771 570.252 694.187 567.949 695.471 564.627 695.471 561.342" stroke="#FFFFFF" stroke-width="0.755056" stroke-linejoin="round" fill="none"/><path d="M695.471 561.38 695.471 548.657 644.92 548.657 644.92 558.85" stroke="#FFFFFF" stroke-width="0.755056" stroke-linejoin="round" fill="none"/><path d="M644.92 523.589 691.658 476.889C691.318 474.586 690.45 472.283 689.242 470.207 687.958 468.017 686.184 466.054 684.107 464.393 681.993 462.883 679.69 461.788 677.312 461.033 674.896 460.353 672.48 460.24 670.177 460.467 668.667 460.467 667.119 460.58 665.609 460.806 664.061 461.146 662.437 461.561 660.889 462.241 657.718 463.411 654.887 465.299 652.357 467.791 649.866 470.32 648.016 473.265 646.808 476.323 646.128 477.984 645.713 479.494 645.373 481.042 645.146 482.665 644.92 484.213 644.92 485.61L644.92 523.589Z" fill="#010101"/><path d="M644.92 523.551 691.658 476.851" stroke="#FFFFFF" stroke-width="0.755056" stroke-linejoin="round" fill="none"/><path d="M691.658 476.889C690.79 471.943 688.147 467.451 684.107 464.355 680.181 461.41 675.235 460.013 670.177 460.429" stroke="#FFFFFF" stroke-width="0.755056" stroke-linejoin="round" fill="none"/><path d="M670.214 460.429C663.57 460.429 657.114 463.109 652.357 467.791 647.676 472.51 644.92 478.965 644.92 485.61" stroke="#FFFFFF" stroke-width="0.755056" stroke-linejoin="round" fill="none"/><path d="M644.92 485.572 644.92 523.514" stroke="#FFFFFF" stroke-width="0.755056" stroke-linejoin="round" fill="none"/><path d="M644.92 533.631 695.471 533.631 695.471 493.236 657.605 531.102 644.92 531.102 644.92 533.631Z" fill="#010101"/><path d="M644.92 533.631 695.471 533.631 695.471 493.236 657.605 531.102 644.92 531.102 644.92 533.631Z" stroke="#FFFFFF" stroke-width="0.755056" stroke-linejoin="round" fill="none"/><path d="M723.219 551.224 732.129 544.995 732.129 537.444 723.219 531.064 723.219 551.224ZM729.449 542.919C730.317 542.919 731.034 543.674 731.034 544.429 731.034 544.882 730.921 545.222 730.543 545.524 730.204 545.863 729.902 545.977 729.449 545.977 728.693 545.977 728.014 545.297 728.014 544.429 728.014 543.674 728.693 542.919 729.449 542.919ZM729.449 536.35C729.902 536.35 730.204 536.576 730.543 536.803 730.921 537.105 731.034 537.558 731.034 537.898 731.034 538.766 730.317 539.408 729.449 539.408 728.693 539.408 728.014 538.766 728.014 537.898 728.014 537.105 728.693 536.35 729.449 536.35Z" fill="#FFFFFF"/><path d="M734.847 456.88 736.584 446.158 731.223 440.76 720.501 442.534 734.847 456.88ZM733.413 446.498C733.979 445.932 734.96 445.932 735.489 446.498 735.829 446.687 735.942 447.14 735.942 447.555 735.942 448.008 735.829 448.348 735.489 448.65 734.96 449.216 733.979 449.216 733.413 448.65 732.771 448.008 732.771 447.027 733.413 446.498ZM728.693 441.892C728.995 441.515 729.335 441.288 729.826 441.288 730.241 441.288 730.581 441.515 730.921 441.892 731.449 442.421 731.449 443.402 730.921 443.969 730.241 444.497 729.335 444.497 728.693 443.969 728.127 443.402 728.127 442.421 728.693 441.892Z" fill="#FFFFFF"/></g></svg>