<svg width="336" height="336" xmlns="http://www.w3.org/2000/svg" xmlns:xlink="http://www.w3.org/1999/xlink" xml:space="preserve" overflow="hidden"><g transform="translate(-698 0)"><path d="M1033.74 168.038C1033.74 145.952 1029.36 124.207 1020.94 103.858 1012.52 83.547 1000.17 65.0103 984.657 49.4939 969.027 33.8643 950.491 21.5191 930.18 13.1002 909.831 4.68135 888.085 0.415281 866.113 0.415281 844.028 0.415281 822.282 4.68135 801.933 13.1002 781.585 21.5191 763.124 33.8643 747.494 49.4939 731.978 65.0103 719.595 83.547 711.176 103.858 702.757 124.207 698.378 145.952 698.378 168.038 698.378 190.01 702.757 211.793 711.176 232.104 719.595 252.566 731.978 271.027 747.494 286.544 763.124 302.098 781.585 314.443 801.933 322.862 822.282 331.281 844.028 335.66 866.113 335.66 888.085 335.66 909.831 331.281 930.18 322.862 950.491 314.443 969.027 302.098 984.657 286.544 1000.17 271.027 1012.52 252.566 1020.94 232.104 1029.36 211.793 1033.74 190.01 1033.74 168.038Z" fill="#FFFFFF"/><path d="M1033.74 168.038C1033.74 145.915 1029.36 124.169 1020.94 103.82 1012.52 83.5092 1000.17 65.0103 984.657 49.4939 969.027 33.8643 950.529 21.5191 930.218 13.1002 909.869 4.68135 888.123 0.415281 866.113 0.415281" stroke="#343434" stroke-width="0.755056" stroke-linejoin="round" fill="none"/><path d="M866.151 0.415281C844.066 0.415281 822.32 4.68135 801.971 13.1002 781.622 21.5191 763.161 33.8643 747.532 49.4939 732.015 65.0103 719.632 83.5092 711.214 103.82 702.757 124.169 698.378 145.915 698.378 168.038" stroke="#343434" stroke-width="0.755056" stroke-linejoin="round" fill="none"/><path d="M698.378 168C698.378 189.972 702.757 211.755 711.214 232.067 719.632 252.529 732.015 270.99 747.532 286.506 763.161 302.06 781.622 314.405 801.971 322.824 822.32 331.281 844.066 335.66 866.151 335.66" stroke="#343434" stroke-width="0.755056" stroke-linejoin="round" fill="none"/><path d="M866.113 335.66C888.123 335.66 909.869 331.281 930.218 322.824 950.529 314.405 969.027 302.06 984.657 286.506 1000.17 270.99 1012.52 252.529 1020.94 232.067 1029.36 211.755 1033.74 189.972 1033.74 168" stroke="#343434" stroke-width="0.755056" stroke-linejoin="round" fill="none"/><path d="M1025.54 168.038C1025.54 147.047 1021.39 126.396 1013.42 107.029 1005.42 87.6998 993.604 70.0692 978.843 55.3456 964.006 40.4333 946.489 28.7299 927.122 20.7263 907.755 12.6472 886.991 8.60764 866.113 8.60764 845.123 8.60764 824.359 12.6472 805.105 20.7263 785.738 28.7299 768.145 40.4333 753.27 55.3456 738.509 70.0692 726.805 87.6998 718.726 107.029 710.76 126.396 706.608 147.047 706.608 168.038 706.608 188.915 710.76 209.717 718.726 229.046 726.805 248.413 738.509 265.893 753.27 280.768 768.145 295.529 785.738 307.346 805.105 315.311 824.359 323.277 845.123 327.43 866.113 327.43 886.991 327.43 907.755 323.277 927.122 315.311 946.489 307.346 964.006 295.529 978.843 280.768 993.604 265.893 1005.42 248.413 1013.42 229.046 1021.39 209.717 1025.54 188.915 1025.54 168.038Z" fill="#0055FF"/><path d="M843.348 228.593C855.391 225.422 868.076 224.969 880.308 227.045 893.484 230.481 907.264 230.33 920.251 226.706 920.93 226.592 921.685 226.517 922.327 226.404L952.718 225.951 952.718 216.022 922.327 216.437C921.685 216.55 920.93 216.663 920.251 216.777 907.264 220.363 893.484 220.476 880.308 217.003 868.076 214.889 855.391 215.455 843.348 218.627 833.419 222.024 822.698 222.138 812.769 218.966 807.294 217.985 801.707 217.192 796.12 216.777 790.57 216.21 784.982 216.022 779.395 216.022L779.395 225.951C790.57 225.951 801.707 226.932 812.769 228.895 817.676 230.481 822.811 231.349 828.058 231.236 833.193 231.236 838.327 230.217 843.16 228.593L843.348 228.593Z" fill="#FFFFFF"/><path d="M812.769 242.071C822.698 245.242 833.306 245.129 843.16 241.731 855.278 238.56 867.963 238.031 880.308 240.108 893.484 243.581 907.264 243.468 920.251 239.881 920.93 239.655 921.685 239.655 922.327 239.542L952.718 239.126 952.718 229.122 922.327 229.575C921.685 229.575 920.93 229.688 920.251 229.877 907.264 233.539 893.484 233.652 880.308 230.103 868.076 228.027 855.391 228.593 843.348 231.689 833.419 235.162 822.698 235.275 812.769 232.104 807.294 231.123 801.707 230.33 796.12 229.877 790.57 229.348 784.982 229.122 779.395 229.122L779.395 239.126C790.57 239.126 801.707 240.108 812.769 242.071Z" fill="#FFFFFF"/><path d="M873.098 199.524 915.683 199.524C915.985 199.524 916.324 199.637 916.664 199.977 916.891 200.203 916.966 200.505 917.08 200.845L917.306 204.658 919.949 206.961 919.949 208.056C919.949 209.377 920.477 210.698 921.459 211.567 922.327 212.548 923.649 213.077 924.97 213.077 926.178 213.077 927.462 212.662 928.556 211.567 929.538 210.585 929.991 209.264 929.991 208.056L929.991 200.392C929.991 199.863 930.331 199.297 930.859 199.108L931.539 198.882 932.407 195.711 931.539 192.539 930.859 192.313C930.633 192.2 930.444 191.973 930.218 191.784 930.104 191.558 929.991 191.218 929.991 190.878L929.991 183.365C929.991 182.044 929.462 180.685 928.556 179.703 927.575 178.835 926.291 178.269 924.97 178.269 923.649 178.269 922.327 178.835 921.459 179.817 920.477 180.685 919.949 182.044 919.949 183.365L919.949 184.347 917.306 186.725 917.08 190.576C916.966 190.878 916.891 191.218 916.551 191.558 916.324 191.784 915.985 191.898 915.683 191.898L873.098 191.898C872.342 190.991 871.361 190.236 870.153 189.595 868.831 189.028 867.51 188.726 866.113 188.726 864.565 188.726 863.282 189.028 862.074 189.595 860.866 190.236 859.884 190.991 859.091 191.898L816.582 191.898C815.827 191.898 815.147 191.331 815.147 190.576L814.845 186.725 812.202 184.347 812.202 183.365C812.202 182.044 811.674 180.685 810.768 179.817 809.786 178.835 808.502 178.269 807.181 178.269 805.973 178.269 804.652 178.722 803.67 179.703 802.575 180.798 802.16 182.157 802.16 183.365L802.16 190.878C802.16 191.558 801.82 192.086 801.292 192.313L800.725 192.539 799.744 195.711 800.725 198.882 801.292 199.108C801.48 199.222 801.707 199.41 801.933 199.637 802.047 199.863 802.16 200.203 802.16 200.392L802.16 208.056C802.16 209.377 802.689 210.698 803.67 211.567 804.538 212.548 805.86 213.077 807.181 213.077 808.502 213.077 809.786 212.548 810.768 211.567 811.674 210.698 812.202 209.377 812.202 208.056L812.202 206.961 814.845 204.658 815.147 200.845C815.147 200.505 815.26 200.203 815.6 199.977 815.827 199.637 816.129 199.524 816.468 199.524L859.091 199.524C859.884 200.392 860.866 201.298 862.074 201.827 863.357 202.468 864.679 202.808 866.113 202.808 867.51 202.808 868.945 202.468 870.153 201.827 871.361 201.298 872.342 200.392 873.098 199.524Z" fill="#FFFFFF"/><path d="M866.151 172.304 940.486 172.304C940.826 172.304 941.128 172.077 941.468 171.889 941.808 171.549 941.921 171.209 941.921 170.794L941.921 160.487C941.921 160.185 941.808 159.845 941.468 159.506 941.128 159.204 940.826 159.09 940.486 159.09L917.08 159.09 925.612 153.843 932.294 147.915 936.786 141.384 939.165 134.589 939.278 127.604 937.089 120.809 932.709 114.24 926.291 108.237 917.872 102.99 908.019 98.6103 896.769 95.0993 884.499 92.7964 871.701 91.7016 858.714 91.8148 846.029 93.1362 833.91 95.6279 822.811 99.2899 812.957 103.858 804.878 109.219 798.649 115.335 794.609 122.017 792.76 128.813 793.175 135.797 795.818 142.555 800.725 148.897 807.596 154.824 814.732 159.09 791.778 159.09C791.325 159.09 790.985 159.204 790.683 159.506 790.457 159.845 790.23 160.185 790.23 160.487L790.23 170.794C790.23 171.209 790.457 171.549 790.683 171.889 790.985 172.077 791.325 172.304 791.778 172.304L866.151 172.304Z" fill="#FF9B00"/></g></svg>