<?xml version="1.0" encoding="UTF-8" standalone="no"?>
<svg
   viewBox="0 0 307.50001 307.50001"
   version="1.1"
   id="svg50"
   sodipodi:docname="Spain_traffic_signal_r419,_2023_set.svg"
   width="307.5"
   height="307.5"
   inkscape:version="1.2.2 (732a01da63, 2022-12-09)"
   xmlns:inkscape="http://www.inkscape.org/namespaces/inkscape"
   xmlns:sodipodi="http://sodipodi.sourceforge.net/DTD/sodipodi-0.dtd"
   xmlns="http://www.w3.org/2000/svg"
   xmlns:svg="http://www.w3.org/2000/svg">
  <sodipodi:namedview
     id="namedview52"
     pagecolor="#ffffff"
     bordercolor="#666666"
     borderopacity="1.0"
     inkscape:pageshadow="2"
     inkscape:pageopacity="0.0"
     inkscape:pagecheckerboard="0"
     showgrid="false"
     inkscape:snap-intersection-paths="false"
     inkscape:object-nodes="true"
     inkscape:snap-smooth-nodes="false"
     inkscape:snap-bbox="false"
     inkscape:snap-bbox-edge-midpoints="false"
     inkscape:bbox-nodes="false"
     showguides="true"
     inkscape:guide-bbox="true"
     inkscape:object-paths="false"
     inkscape:snap-bbox-midpoints="false"
     inkscape:zoom="1"
     inkscape:cx="-72.5"
     inkscape:cy="94.5"
     inkscape:window-width="1920"
     inkscape:window-height="991"
     inkscape:window-x="-9"
     inkscape:window-y="-9"
     inkscape:window-maximized="1"
     inkscape:current-layer="Capa_1-2"
     inkscape:showpageshadow="2"
     inkscape:deskcolor="#d1d1d1">
    <sodipodi:guide
       position="-345.73232,687.9091"
       orientation="0,-1"
       id="guide1263"
       inkscape:locked="false" />
  </sodipodi:namedview>
  <defs
     id="defs4">
    <style
       id="style2">.cls-1{fill:#fff;}.cls-1,.cls-3,.cls-4{fill-rule:evenodd;}.cls-2{fill:none;stroke:#343434;stroke-linejoin:round;stroke-width:0.48px;}.cls-3{fill:#05f;}.cls-4{fill:#010101;}</style>
  </defs>
  <g
     id="Capa_2"
     data-name="Capa 2">
    <g
       id="Capa_1-2"
       data-name="Capa 1">
      <path
         d="m 307,153.69999 c 0,-20.1 -3.9,-39.99999 -11.6,-58.599993 -7.7,-18.6 -19,-35.499998 -33.3,-49.700002 C 247.9,31.1 231,19.799997 212.4,12.099995 193.8,4.4 173.9,0.5 153.8,0.5 133.6,0.5 113.7,4.4 95.1,12.099994 76.5,19.799997 59.6,31.1 45.4,45.399995 31.1,59.6 19.8,76.499997 12.1,95.099997 4.4,113.7 0.5,133.59999 0.5,153.69999 c 0,20.2 3.9,40.10001 11.6,58.7 7.7,18.6 19,35.5 33.3,49.7 14.2,14.3 31.1,25.6 49.7,33.3 18.6,7.7 38.5,11.6 58.7,11.6 20.1,0 40,-3.9 58.6,-11.6 18.6,-7.7 35.5,-19 49.7,-33.3 14.3,-14.2 25.6,-31.1 33.3,-49.7 7.7,-18.59999 11.6,-38.5 11.6,-58.7"
         style="fill:#ffffff;fill-opacity:1;fill-rule:evenodd;stroke:none;stroke-width:0.999997;stroke-miterlimit:4;stroke-dasharray:none;stroke-opacity:1"
         id="path24-8-9"
         mask="none"
         inkscape:label="path44" />
      <path
         d="m 307,153.69999 c 0,-20.1 -3.9,-39.99999 -11.6,-58.599993 -7.7,-18.6 -19,-35.499998 -33.3,-49.700002 C 247.9,31.1 231,19.799997 212.4,12.099995 193.8,4.4 173.9,0.5 153.8,0.5 133.6,0.5 113.7,4.4 95.1,12.099994 76.5,19.799997 59.6,31.1 45.4,45.399995 31.1,59.6 19.8,76.499997 12.1,95.099997 4.4,113.7 0.5,133.59999 0.5,153.69999 c 0,20.2 3.9,40.10001 11.6,58.7 7.7,18.6 19,35.5 33.3,49.7 14.2,14.3 31.1,25.6 49.7,33.3 18.6,7.7 38.5,11.6 58.7,11.6 20.1,0 40,-3.9 58.6,-11.6 18.6,-7.7 35.5,-19 49.7,-33.3 14.3,-14.2 25.6,-31.1 33.3,-49.7 7.7,-18.59999 11.6,-38.5 11.6,-58.7"
         style="fill:none;fill-opacity:1;fill-rule:evenodd;stroke:#000000;stroke-width:1;stroke-miterlimit:4;stroke-dasharray:none;stroke-opacity:1"
         id="path24-8-9-2"
         mask="none"
         inkscape:label="path48" />
      <path
         d="m 299.6,153.69999 c 0,-19.1 -3.8,-38.09999 -11.1,-55.799995 C 281.1,80.3 270.4001,64.199997 256.8,50.699997 243.3,37.1 227.2001,26.399997 209.6,18.999995 c -17.7,-7.299998 -36.7,-11.1 -55.8,-11.1 -19.1999,0 -38.0999,3.800002 -55.7999,11.1 C 80.3001,26.399997 64.2,37.1 50.7,50.699997 37.1001,64.199997 26.4,80.3 19.1001,97.899995 11.7,115.6 8.0001,134.59999 8.0001,153.69999 c 0,19.2 3.6999,38.1 11.1,55.8 7.2999,17.7 18,33.8 31.5999,47.3 13.5,13.6 29.6001,24.3 47.3001,31.6 17.7,7.4 36.6,11.1 55.7999,11.1 19.1,0 38.1,-3.7 55.8,-11.1 17.6001,-7.3 33.7,-18 47.2,-31.6 13.6001,-13.5 24.3,-29.6 31.7,-47.3 7.3,-17.7 11.1,-36.6 11.1,-55.8"
         style="fill:#0055ff;fill-opacity:1;fill-rule:evenodd;stroke:none;stroke-width:0.999997"
         id="path1729-0"
         inkscape:label="path52" />
      <g
         id="g17942"
         transform="matrix(0.75000604,0,0,0.75000604,218.67558,153.7)">
        <path
           fill-rule="evenodd"
           fill="#fefefe"
           fill-opacity="1"
           d="m -111.4349,-23.867196 h -51.0677 c -1.72917,0 -3.59896,0.40104 -5.46355,1.067706 -1.73437,0.666667 -3.46874,1.864587 -4.93229,3.19792 -1.46875,1.468747 -2.53645,3.203133 -3.20312,5.067707 -0.79688,1.734373 -1.06771,3.59896 -1.06771,5.3333328 V 8.664056 h 6.9375 V -9.2005302 c 0,-1.8645728 0.66666,-3.8645728 2.26562,-5.4687468 1.59896,-1.59896 3.59896,-2.265626 5.46355,-2.265626 h 22.13541 v 51.999998 h -3.59896 v 45.203133 h -9.86978 V 51.065095 h -13.33334 v 6.536466 h 9.06771 v 29.197906 h 14.13541 v 19.734373 h 3.06771 v 33.59896 c 0,1.33333 0.39584,2.53125 1.46354,3.59896 1.06771,1.06771 2.40104,1.46875 3.59896,1.46875 1.20312,0 2.53646,-0.40104 3.46875,-1.46875 1.06771,-1.06771 1.46875,-2.26563 1.46875,-3.59896 v -33.59896 h 2.93229 V 86.799467 h 10.53125 v 29.598963 h 13.20312 v -6.53126 h -8.93749 V 80.268228 h -14.79688 V 35.065095 h -3.59896 v -51.999998 h 20.13021 c 1.73438,0 3.59896,0.666666 4.9323,1.8698 1.46874,1.197906 2.40104,2.796866 2.66666,4.666666 V 1.9973895 c -0.53125,1.7343733 -0.53125,3.7343733 0.53646,5.6041732 0.93229,1.8645733 2.66666,2.9322803 4.401037,3.4635333 1.729173,0.40104 3.729173,0.265627 5.463547,-0.932293 0.932293,-0.5312403 1.59896,-1.197907 2.135413,-2.0000003 0.531253,-0.80208 0.932293,-1.7343733 1.067707,-2.5312399 l 18.395839,-70.6666648 c 0.536453,-1.46876 1.869787,-2.401053 3.468747,-2.27084 0.666666,0.135413 1.333333,0.40104 2,0.937507 0.531253,0.53124 0.932293,1.197906 0.932293,1.864573 V 136.1328 c 1.59896,4.13543 5.59896,6.80209 9.869786,6.80209 4.39584,0 8.265627,-2.66666 9.864587,-6.80209 V 3.0650962 h 10.531253 V 112.39843 c 1.468746,4.13541 5.468746,6.80208 9.734373,6.80208 2.135413,0 4.135413,-0.53646 6,-1.86979 1.869786,-1.19792 3.20312,-2.93229 3.869786,-4.93229 V -64.533862 c 0.130267,-1.59896 1.59896,-2.932293 3.19792,-2.932293 0.80208,0 1.468747,0.265626 2.135414,0.932293 0.6666662,0.531253 0.9322929,1.333333 1.0625062,2 v 76.666665 c 0,1.59896 0.5364533,3.333333 2,4.802093 1.3333333,1.333333 3.2031199,2 4.8020798,2 1.59896001,0 3.4687466,-0.666667 4.8020799,-2 1.3333333,-1.46876 2,-3.203133 2,-4.802093 v -74.802079 c -0.1354134,-8.130213 -3.3333333,-15.999999 -9.0677065,-21.999999 -5.5989594,-6 -13.2031194,-9.72916 -21.4687464,-10.395826 h -9.999999 v -11.604169 c 1.468746,-0.39583 2.932293,-0.9323 4.536453,-1.59896 1.463546,-0.79687 2.932293,-1.73438 4.39584,-2.9323 2.80208,-2.40104 5.067706,-5.46874 6.536453,-9.33333 1.333333,-3.73437 1.59896,-7.59896 0.932293,-11.19791 -0.265627,-1.8698 -0.80208,-3.60417 -1.468746,-5.06772 -0.666667,-1.59894 -1.463547,-2.93228 -2.39584,-4.26561 -0.937494,-1.20313 -2,-2.40105 -3.20312,-3.46876 -1.333334,-1.19791 -2.79688,-2.13541 -4.40104,-3.06771 -3.19792,-1.73437 -7.062507,-2.66666 -11.062507,-2.40104 -4,0.13542 -7.734373,1.33334 -10.802079,3.33334 -1.59896,0.9375 -2.932294,2 -4.135414,3.33333 -1.19792,1.20312 -2.130213,2.40104 -2.932293,3.73437 -0.79688,1.33334 -1.59896,2.80208 -2.130213,4.40104 -0.536453,1.59896 -0.937493,3.33334 -1.067707,5.06771 -0.40104,3.73439 0.265627,7.59896 1.864587,11.19792 1.734373,3.73437 4.265626,6.66667 7.20312,8.80208 1.59896,1.06772 3.062506,1.86459 4.666666,2.53125 1.59896,0.66667 3.19792,1.06771 4.666667,1.33334 v 11.203129 h -7.333333 c -3.60416,0.265613 -7.20312,1.197906 -10.666667,2.666666 -3.468746,1.333334 -6.80208,3.333333 -9.869786,5.72916 -2.932293,2.40104 -5.59896,5.20312 -7.734373,8.27084 -2.130214,3.197906 -3.729174,6.53124 -4.932294,9.864573 l -13.463546,51.734372 c -2.666667,-4.40104 -7.468747,-7.067706 -12.536457,-7.067706"
           id="path17423"
           style="stroke-width:1.33333" />
      </g>
    </g>
  </g>
</svg>
