<svg width="309" height="309" xmlns="http://www.w3.org/2000/svg" xmlns:xlink="http://www.w3.org/1999/xlink" xml:space="preserve" overflow="hidden"><g transform="translate(-374 -21)"><path d="M682.636 175.318C682.636 154.961 678.638 134.966 670.822 116.245 663.006 97.5229 651.736 80.6188 637.377 66.2594 623.199 52.0818 606.114 40.6306 587.574 32.9965 568.852 25.1806 548.676 21.1818 528.5 21.1818 508.324 21.1818 488.148 25.1806 469.426 32.9965 450.886 40.6306 433.982 52.0818 419.623 66.2594 405.264 80.6188 393.994 97.5229 385.996 116.245 378.181 134.966 374.182 154.961 374.182 175.318 374.182 195.494 378.181 215.488 385.996 234.21 393.994 252.932 405.264 270.018 419.623 284.377 433.982 298.736 450.886 310.006 469.426 317.822 488.148 325.456 508.324 329.636 528.5 329.636 548.676 329.636 568.852 325.456 587.574 317.822 606.114 310.006 623.199 298.736 637.377 284.377 651.736 270.018 663.006 252.932 670.822 234.21 678.638 215.488 682.636 195.494 682.636 175.318Z" fill="#FFFFFF"/><path d="M682.636 175.5C682.636 155.142 678.638 135.148 670.822 116.426 663.006 97.7047 651.736 80.8006 637.377 66.4412 623.199 52.2635 605.932 40.8124 587.392 33.1782 568.67 25.1806 548.494 21.1818 528.318 21.1818" stroke="#010101" stroke-width="0.363529" stroke-linejoin="round" fill="none"/><path d="M528.5 21.1818C508.324 21.1818 488.148 25.1806 469.426 33.1782 450.705 40.8124 433.801 52.2635 419.441 66.4412 405.082 80.8006 393.812 97.7047 385.996 116.426 378.181 135.148 374.182 155.142 374.182 175.5" stroke="#010101" stroke-width="0.363529" stroke-linejoin="round" fill="none"/><path d="M374.182 175.318C374.182 195.676 378.181 215.67 385.996 234.392 393.812 253.114 405.082 270.018 419.441 284.377 433.801 298.736 450.705 310.006 469.426 317.822 488.148 325.456 508.324 329.636 528.5 329.636" stroke="#010101" stroke-width="0.363529" stroke-linejoin="round" fill="none"/><path d="M528.318 329.636C548.494 329.636 568.67 325.456 587.392 317.822 605.932 310.006 623.199 298.736 637.377 284.377 651.736 270.018 663.006 253.114 670.822 234.392 678.638 215.67 682.636 195.676 682.636 175.318" stroke="#010101" stroke-width="0.363529" stroke-linejoin="round" fill="none"/><path d="M675.002 175.5C675.002 156.233 671.185 137.148 663.915 119.335 656.644 101.34 645.738 85.1629 632.106 71.7124 618.474 58.08 602.297 47.1741 584.484 39.9035 566.671 32.6329 547.585 28.8159 528.318 28.8159 509.051 28.8159 489.966 32.6329 472.153 39.9035 454.522 47.1741 438.345 58.08 424.712 71.7124 411.08 85.1629 400.174 101.34 392.904 119.335 385.633 137.148 381.816 156.233 381.816 175.5 381.816 194.585 385.633 213.671 392.904 231.484 400.174 249.296 411.08 265.474 424.712 279.106 438.345 292.738 454.522 303.462 472.153 310.915 489.966 318.185 509.051 322.002 528.318 322.002 547.585 322.002 566.671 318.185 584.484 310.915 602.297 303.462 618.474 292.738 632.106 279.106 645.738 265.474 656.644 249.296 663.915 231.484 671.185 213.671 675.002 194.585 675.002 175.5Z" fill="#0055FF"/><path d="M507.052 231.484C508.142 232.211 509.233 232.938 510.687 233.483 511.959 234.21 513.595 234.755 515.049 235.119 518.139 235.664 521.411 235.664 524.683 234.937 527.955 234.028 530.863 232.392 533.408 230.393 534.498 229.484 535.589 228.212 536.498 227.121 537.406 225.849 538.134 224.758 538.679 223.486L572.851 223.486C573.396 225.304 573.941 227.121 574.85 228.939 575.577 230.938 576.668 232.574 578.122 234.392 579.576 236.028 581.212 237.664 583.029 239.118 584.847 240.572 586.846 241.662 589.028 242.571 591.391 243.48 593.572 243.844 595.935 244.207 598.116 244.571 600.479 244.389 602.66 244.207 604.841 243.844 606.841 243.298 608.84 242.571 610.658 241.844 612.475 240.935 613.929 239.845 615.384 238.936 617.019 237.664 618.292 236.209 619.746 234.755 621.018 232.938 622.109 231.12 623.199 229.121 624.108 226.939 624.835 224.758 625.381 222.577 625.744 220.214 625.744 217.851 625.744 215.306 625.562 212.944 624.835 210.762 624.29 208.581 623.381 206.4 622.291 204.582 621.2 202.583 619.928 200.947 618.655 199.493 617.201 197.857 615.747 196.585 614.293 195.676 612.657 194.404 611.021 193.495 609.204 192.768 607.386 192.041 605.205 191.495 603.024 191.132 600.842 190.768 598.479 190.768 596.298 190.95 593.935 191.132 591.754 191.859 589.573 192.586 587.21 193.313 585.211 194.585 583.393 195.858 581.394 197.312 579.758 198.766 578.485 200.584 577.031 202.219 575.759 204.037 575.032 205.855 574.123 207.672 573.396 209.49 573.032 211.308L540.496 211.308C540.86 205.128 540.496 198.766 539.951 192.404 539.406 186.042 538.315 179.862 536.861 173.682L538.134 173.319C539.042 173.137 540.133 172.41 540.86 171.319 541.587 170.229 541.769 168.956 541.405 167.866L539.224 158.596 541.224 158.232 540.496 155.142 537.406 156.051 535.044 145.872C534.862 145.509 534.498 144.964 533.953 144.6 533.408 144.236 532.681 144.055 532.317 144.418L530.863 144.6C530.318 144.782 529.772 144.964 529.409 145.691 529.045 146.054 529.045 146.781 529.045 147.326L531.408 157.324 527.591 158.232 525.228 148.235C525.047 147.69 524.865 147.326 524.138 146.781 523.956 146.599 523.774 146.599 523.411 146.599 523.047 146.418 522.865 146.599 522.502 146.599L521.048 146.963C520.502 146.963 519.957 147.326 519.594 147.872 519.23 148.417 519.23 149.144 519.412 149.689L521.775 159.686 517.958 160.595 518.685 163.504 521.229 162.776 523.411 172.228C523.592 173.137 524.319 174.228 525.41 174.955 526.501 175.682 527.773 175.864 528.864 175.5L529.954 175.318C532.862 187.133 534.135 199.129 533.589 211.308L504.144 211.308 475.97 171.683 495.237 98.9771 515.776 98.9771 519.412 88.6165 485.058 88.6165 457.975 190.95C456.158 190.95 454.158 190.95 452.159 191.314 450.159 191.859 448.16 192.404 446.161 193.313 444.343 194.222 442.344 195.312 440.526 196.948 438.708 198.221 437.072 200.038 435.8 201.856 434.346 203.855 433.255 205.855 432.346 208.036 431.619 210.217 431.074 212.398 430.892 214.579 430.711 216.761 430.711 219.124 430.892 221.123 431.074 223.122 431.619 224.94 432.165 226.758 432.892 228.394 433.619 230.211 434.709 232.029 435.8 233.665 437.072 235.301 438.708 236.936 440.344 238.391 442.162 239.845 444.161 240.935 446.161 242.026 448.16 242.935 450.523 243.662 452.886 244.207 455.067 244.571 457.43 244.389 459.793 244.389 461.974 244.207 464.155 243.662 466.155 242.935 468.154 242.208 469.972 241.299 471.789 240.208 473.425 239.118 474.698 238.027 476.152 236.755 477.606 235.301 478.696 233.846 479.969 232.211 481.059 230.393 481.968 228.394 482.695 226.394 483.422 224.031 483.786 221.85 484.149 219.669 484.149 216.942 483.968 214.761 483.604 212.398 483.059 210.035 482.332 208.036 481.423 205.673 480.332 203.855 479.06 202.038 477.788 200.22 476.334 198.766 474.698 197.312 473.244 196.039 471.608 194.949 469.972 194.04L472.698 184.043 500.326 223.486 502.508 226.576C503.962 228.394 505.416 230.029 507.052 231.484ZM603.024 223.486C603.932 222.941 604.659 222.032 605.205 220.941 605.75 219.851 606.114 218.76 606.114 217.124 605.932 215.852 605.568 214.579 604.841 213.671 604.114 212.58 603.205 211.853 602.478 211.308L583.211 211.308C583.756 210.217 584.302 209.308 584.847 208.218 585.574 207.127 586.483 206.218 587.392 205.309 589.391 203.492 591.754 202.038 594.481 201.129 597.207 200.584 600.115 200.402 602.66 200.947 603.932 201.311 605.205 201.674 606.295 202.401 607.386 202.765 608.476 203.492 609.385 204.219 610.294 204.764 611.203 205.673 611.93 206.582 612.657 207.491 613.384 208.581 614.111 209.672 615.202 212.216 615.929 214.943 615.929 217.851 615.929 220.759 615.202 223.486 613.929 225.849 613.202 226.939 612.475 228.03 611.566 228.939 610.839 229.848 609.931 230.575 609.022 231.302 608.113 232.029 607.022 232.574 605.932 233.119 604.841 233.483 603.569 234.028 602.297 234.21 599.752 234.755 596.844 234.755 594.117 233.846 591.391 233.119 589.028 231.484 587.028 229.666 586.119 228.757 585.392 227.666 584.665 226.576 584.12 225.667 583.575 224.576 583.211 223.486L603.024 223.486ZM455.431 200.765 450.523 219.487C450.886 220.759 451.432 221.85 452.341 222.759 453.249 223.668 454.522 224.395 455.612 224.576 456.885 224.94 457.975 224.94 459.429 224.576 460.702 224.031 461.611 223.486 462.519 222.577L467.427 204.037C468.336 204.582 469.245 205.491 469.972 206.4 470.881 207.309 471.608 208.399 472.153 209.49 473.425 211.853 474.152 214.398 474.152 217.488 474.334 220.396 473.607 223.122 472.516 225.485 471.789 226.576 471.062 227.666 470.335 228.575 469.426 229.484 468.699 230.393 467.791 231.12 466.882 231.665 465.973 232.392 464.701 232.938 463.61 233.483 462.519 233.846 461.247 234.21 458.521 234.755 455.794 234.755 453.068 234.028 450.341 233.301 447.978 232.029 445.979 230.211 444.888 229.302 444.161 228.212 443.434 227.303 442.707 226.212 442.162 225.304 441.798 224.031 441.253 223.122 440.889 222.032 440.708 220.759 440.526 219.669 440.526 218.215 440.526 216.761 440.708 214.034 441.435 211.489 442.707 208.945 444.343 206.582 446.342 204.582 448.524 203.31 449.614 202.583 450.886 201.856 451.977 201.674 453.068 201.129 454.34 200.947 455.431 200.765ZM508.688 223.486 530.499 223.486C529.409 224.94 527.773 226.212 525.955 227.121 523.956 228.03 521.775 228.575 519.594 228.575 517.231 228.575 515.231 228.03 513.232 227.121 511.414 226.212 509.778 224.94 508.688 223.486Z" fill="#FFFFFF"/></g></svg>