<svg width="269" height="270" xmlns="http://www.w3.org/2000/svg" xmlns:xlink="http://www.w3.org/1999/xlink" xml:space="preserve" overflow="hidden"><g transform="translate(-396 -76)"><path d="M268.684 134.342C268.684 116.619 265.202 99.2135 258.556 82.9153 251.752 66.6171 241.942 51.9012 229.283 39.4006 216.941 27.0582 202.066 17.0894 185.926 10.4435 169.628 3.63941 152.064 0.158235 134.5 0.158235 116.936 0.158235 99.3718 3.63941 83.0735 10.4435 66.9335 17.0894 52.0594 27.0582 39.7171 39.4006 27.2165 51.9012 17.4059 66.6171 10.4435 82.9153 3.63941 99.2135 0.158235 116.619 0.158235 134.342 0.158235 151.906 3.63941 169.312 10.4435 185.61 17.4059 201.908 27.2165 216.624 39.7171 229.125 52.0594 241.784 66.9335 251.752 83.0735 258.398 99.3718 265.202 116.936 268.525 134.5 268.525 152.064 268.525 169.628 265.202 185.926 258.398 202.066 251.752 216.941 241.784 229.283 229.125 241.942 216.624 251.752 201.908 258.556 185.61 265.202 169.312 268.684 151.906 268.684 134.342Z" fill="#FFFFFF" transform="matrix(1 0 0 1.00372 396 76)"/><path d="M268.684 134.5C268.684 116.778 265.202 99.3718 258.556 83.0735 251.752 66.7753 241.942 52.0594 229.283 39.5588 216.941 27.0582 201.908 17.0894 185.768 10.4435 169.47 3.63941 151.906 0.158235 134.342 0.158235" stroke="#343434" stroke-width="0.316471" stroke-linejoin="round" fill="none" transform="matrix(1 0 0 1.00372 396 76)"/><path d="M134.5 0.158235C116.936 0.158235 99.3718 3.63941 83.0735 10.4435 66.7753 17.0894 51.9012 27.0582 39.5588 39.5588 27.0582 52.0594 17.2476 66.7753 10.4435 83.0735 3.63941 99.3718 0.158235 116.778 0.158235 134.5" stroke="#343434" stroke-width="0.316471" stroke-linejoin="round" fill="none" transform="matrix(1 0 0 1.00372 396 76)"/><path d="M0.158235 134.342C0.158235 151.906 3.63941 169.47 10.4435 185.768 17.2476 202.066 27.0582 216.782 39.5588 229.283 51.9012 241.784 66.7753 251.752 83.0735 258.398 99.3718 265.202 116.936 268.525 134.5 268.525" stroke="#343434" stroke-width="0.316471" stroke-linejoin="round" fill="none" transform="matrix(1 0 0 1.00372 396 76)"/><path d="M134.342 268.525C151.906 268.525 169.47 265.202 185.768 258.398 201.908 251.752 216.941 241.784 229.283 229.283 241.784 216.782 251.752 202.066 258.556 185.768 265.202 169.47 268.684 151.906 268.684 134.342" stroke="#343434" stroke-width="0.316471" stroke-linejoin="round" fill="none" transform="matrix(1 0 0 1.00372 396 76)"/><path d="M262.038 134.5C262.038 117.727 258.873 101.112 252.385 85.6053 246.056 70.0982 236.562 55.8571 224.694 43.9894 212.826 32.28 198.744 22.7859 183.236 16.4565 167.729 9.96882 151.115 6.64588 134.342 6.64588 117.569 6.64588 100.954 9.96882 85.4471 16.4565 70.0982 22.7859 56.0153 32.28 44.1476 43.9894 32.28 55.8571 22.7859 70.0982 16.4565 85.6053 10.1271 101.112 6.80412 117.727 6.80412 134.5 6.80412 151.273 10.1271 167.729 16.4565 183.236 22.7859 198.744 32.28 212.826 44.1476 224.694 56.0153 236.562 70.0982 245.898 85.4471 252.227 100.954 258.715 117.569 262.038 134.342 262.038 151.115 262.038 167.729 258.715 183.236 252.227 198.744 245.898 212.826 236.562 224.694 224.694 236.562 212.826 246.056 198.744 252.385 183.236 258.873 167.729 262.038 151.273 262.038 134.5Z" fill="#0055FF" transform="matrix(1 0 0 1.00372 396 76)"/><path d="M122.949 106.651C124.215 107.6 125.639 108.233 127.221 108.549 128.962 109.024 130.702 109.024 132.443 108.549 134.184 108.075 135.766 107.284 137.19 106.176 138.456 105.068 139.405 103.802 140.038 102.378L158.394 102.378C158.71 103.328 159.026 104.435 159.501 105.385 159.818 106.334 160.451 107.442 161.242 108.233 162.666 110.132 164.723 111.714 167.096 112.664 169.47 113.613 172.002 113.929 174.375 113.455 175.483 113.296 176.591 113.138 177.698 112.664 178.648 112.347 179.597 111.714 180.388 111.239 181.179 110.765 181.971 109.974 182.762 109.182 183.553 108.391 184.186 107.6 184.819 106.492 186.085 104.435 186.718 102.062 186.718 99.3718 186.718 96.84 186.085 94.3082 184.977 92.2512 184.344 91.1435 183.711 90.1941 182.92 89.4029 182.129 88.6118 181.338 87.9788 180.546 87.5041 179.755 86.8712 178.806 86.3965 177.856 85.9218 176.907 85.6053 175.641 85.1306 174.534 84.9724 172.16 84.6559 169.628 84.9724 167.255 85.7635 164.881 86.7129 162.824 88.2953 161.4 90.0359 160.609 90.9853 159.976 91.9347 159.501 93.0424 159.026 93.9918 158.71 94.9412 158.552 95.8906L140.988 95.8906C141.146 92.5676 140.988 89.0865 140.671 85.7635 140.355 82.2824 139.722 78.9594 138.931 75.6365L139.564 75.4782C140.829 75.1618 141.779 73.8959 141.462 72.63L140.355 67.5665 141.304 67.25 140.988 65.8259 139.247 66.1424 137.981 60.7624C137.981 60.4459 137.823 60.2876 137.348 60.1294 137.19 59.9712 136.715 59.8129 136.557 59.9712L135.766 60.1294C135.449 60.1294 135.291 60.2876 134.975 60.6041 134.816 60.9206 134.816 61.2371 134.816 61.5535L136.082 66.9335 134.025 67.4082 132.759 62.0282C132.601 61.7118 132.443 61.3953 132.285 61.2371 132.126 61.2371 131.968 61.0788 131.652 61.0788L131.335 61.0788 130.544 61.2371C129.911 61.3953 129.436 62.0282 129.595 62.8194L130.861 68.0412 128.962 68.6741 129.278 70.2565 130.544 69.94 131.81 74.8453C131.968 75.32 132.285 75.9529 132.918 76.2694 133.076 76.5859 133.392 76.7441 133.867 76.7441 134.025 76.7441 134.5 76.7441 134.658 76.7441L135.291 76.5859C136.082 79.5924 136.557 82.9153 137.032 86.08 137.19 87.6624 137.19 89.4029 137.19 90.9853 137.348 91.7765 137.348 92.5676 137.348 93.3588 137.348 94.3082 137.19 95.0994 137.19 95.8906L121.366 95.8906 106.334 74.5288 116.619 35.6029 127.696 35.6029 129.595 29.9065 111.081 29.9065 96.6818 84.9724C95.7324 84.8141 94.6247 84.9724 93.6753 85.1306 92.5676 85.2888 91.46 85.7635 90.3524 86.2382 88.2953 87.1876 86.2382 88.77 84.6559 90.8271 83.2318 92.8841 82.4406 95.2577 82.1241 97.7894 81.9659 99.0553 81.9659 100.163 82.1241 101.112 82.2824 102.22 82.5988 103.328 82.9153 104.119 83.2318 105.068 83.5482 106.018 84.1812 106.967 84.8141 107.916 85.4471 108.866 86.2382 109.657 87.9788 111.398 90.1941 112.505 92.7259 113.296 95.0994 113.929 97.6312 113.929 100.005 113.296 101.112 112.98 102.062 112.505 103.169 112.031 104.119 111.556 104.91 110.923 105.701 110.29 106.492 109.499 107.125 108.866 107.758 108.075 108.391 107.125 109.024 106.176 109.499 105.068 110.448 102.853 110.923 100.321 110.606 97.7894 110.29 95.0994 109.341 92.7259 108.075 90.8271 107.284 89.8776 106.492 89.0865 105.701 88.2953 104.91 87.6624 103.961 87.0294 103.169 86.5547L104.594 81.3329 119.468 102.378 120.575 104.119C121.366 105.068 122.158 105.859 122.949 106.651ZM174.534 102.378C175.008 102.062 175.483 101.745 175.641 101.112 176.116 100.638 176.274 99.8465 176.116 99.2135 176.116 98.4224 175.958 97.7894 175.483 97.3147 175.166 96.6818 174.692 96.0488 174.217 95.8906L163.932 95.8906C164.406 94.7829 165.198 93.5171 166.147 92.5676 167.255 91.6182 168.521 90.8271 170.103 90.5106 171.369 90.0359 172.951 90.0359 174.375 90.3524 175.799 90.6688 176.907 91.3018 177.856 91.9347 178.806 92.7259 179.755 93.6753 180.388 95.0994 181.179 96.5235 181.496 97.9476 181.496 99.3718 181.496 100.954 181.021 102.378 180.388 103.644 179.597 104.91 178.806 105.859 177.698 106.651 176.749 107.442 175.483 107.916 174.217 108.233 172.793 108.549 171.211 108.391 169.786 108.075 168.204 107.6 167.096 106.809 165.989 105.701 164.881 104.752 164.406 103.486 163.932 102.378L174.534 102.378ZM95.2577 90.1941 92.7259 100.321C92.8841 100.954 93.2006 101.587 93.6753 102.062 94.15 102.536 94.7829 102.853 95.4159 103.011 96.0488 103.169 96.6818 103.169 97.4729 103.011 98.1059 102.853 98.5806 102.378 99.2135 101.904L101.745 91.9347C102.695 92.5676 103.644 93.5171 104.277 94.9412 105.068 96.0488 105.385 97.7894 105.385 99.2135 105.543 100.796 105.068 102.22 104.435 103.486 103.802 104.752 102.853 105.859 101.904 106.492 100.954 107.284 99.8465 107.916 98.4224 108.233 96.9982 108.549 95.4159 108.549 93.9918 108.075 92.5676 107.758 91.3018 106.967 90.1941 106.018 89.2447 105.068 88.4535 103.961 87.9788 102.853 87.5041 101.745 87.3459 100.321 87.3459 99.0553 87.3459 97.4729 87.8206 95.8906 88.6118 94.6247 89.4029 93.3588 90.3524 92.2512 91.6182 91.46 92.2512 91.1435 92.8841 90.8271 93.5171 90.6688 93.6753 90.5106 94.15 90.5106 94.3082 90.3524 94.4665 90.3524 94.6247 90.3524 94.9412 90.1941L95.2577 90.1941ZM123.898 102.378 135.608 102.378C134.975 103.169 134.184 103.961 133.076 104.435 132.126 104.91 130.861 105.226 129.753 105.226 128.487 105.226 127.379 104.91 126.272 104.435 125.322 103.961 124.531 103.169 123.898 102.378Z" fill="#FFFFFF" transform="matrix(1 0 0 1.00372 396 76)"/><path d="M140.038 205.548 158.077 205.548C158.235 206.972 158.552 208.554 158.868 210.136 159.343 211.561 159.818 213.143 160.451 214.725 161.875 217.89 163.932 220.58 166.622 222.954 169.312 225.485 172.318 227.226 175.483 228.334 177.065 228.966 178.648 229.283 180.23 229.599 181.812 229.758 183.395 229.916 184.977 229.758 186.559 229.758 188.3 229.758 189.882 229.441 191.623 229.125 193.364 228.65 194.946 228.017 198.269 226.593 201.434 224.536 204.124 222.004 206.814 219.156 208.871 215.991 210.136 212.668 210.928 210.928 211.402 209.345 211.719 207.605 211.877 206.022 212.035 204.282 212.035 202.699 212.035 200.801 211.877 198.902 211.561 196.845 211.086 194.788 210.295 192.731 209.345 190.674 208.396 188.616 207.13 186.718 205.548 184.977 203.965 183.236 202.225 181.496 200.168 180.23 198.269 178.806 196.054 177.698 193.68 177.065 191.465 176.274 189.249 175.799 186.876 175.641 184.661 175.483 182.604 175.641 180.388 175.958 178.489 176.274 176.432 176.907 174.692 177.698L168.046 165.831 171.844 160.451 176.907 160.451C177.224 160.451 177.856 160.292 178.173 159.976 178.489 159.659 178.648 159.185 178.648 158.71L178.648 152.539C178.489 151.748 178.015 151.115 177.065 150.798 176.591 150.798 176.116 150.798 175.799 150.798 175.325 150.956 175.008 151.115 174.692 151.273L160.292 156.653C159.343 156.811 158.71 157.761 158.868 158.71 158.868 159.659 159.659 160.451 160.609 160.451L165.039 160.451 162.033 165.039 109.815 165.039 111.872 161.084 109.815 152.697 125.006 152.697C125.955 152.697 126.746 152.381 127.379 151.748 128.012 151.115 128.329 150.324 128.329 149.532 128.329 148.741 128.012 147.792 127.379 147.159 126.746 146.526 125.797 146.209 125.006 146.209L111.398 146.209C109.974 146.368 108.708 147.001 107.442 147.95 106.176 148.899 105.068 150.324 104.435 151.906 103.961 153.646 103.644 155.229 103.961 156.811 104.277 158.394 104.91 159.659 105.701 160.767L96.0488 178.489C94.3082 177.698 92.4094 177.065 90.3524 176.591 88.2953 176.116 86.08 175.799 83.7065 175.799 81.3329 175.799 78.9594 176.116 76.5859 176.907 74.2124 177.54 71.9971 178.489 69.7818 179.914 67.7247 181.179 65.6676 182.762 63.9271 184.502 62.3447 186.401 60.9206 188.3 59.8129 190.357 58.7053 192.414 57.9141 194.629 57.4394 196.686 56.9647 198.744 56.6482 200.801 56.6482 202.699 56.6482 204.282 56.8065 206.022 57.1229 207.605 57.4394 209.345 57.9141 210.928 58.5471 212.668 59.9712 215.991 62.0282 219.156 64.7182 222.004 67.25 224.536 70.4147 226.593 73.8959 228.017 75.4782 228.65 77.2188 229.125 78.9594 229.441 80.5418 229.758 82.2824 229.758 83.8647 229.758 85.4471 229.758 87.0294 229.758 88.77 229.441 90.5106 229.125 92.0929 228.65 93.8335 228.017 97.3147 226.593 100.321 224.536 103.169 222.004 105.701 219.156 107.758 215.991 109.182 212.668 109.815 210.928 110.29 209.345 110.606 207.605 110.923 206.022 111.081 204.282 111.081 202.699 111.081 198.585 110.132 194.788 108.233 191.148 106.492 187.509 103.802 184.344 100.638 181.971L104.435 174.85 139.089 205.073C139.405 205.389 139.722 205.548 140.038 205.548ZM97.4729 186.243C99.0553 187.667 100.638 189.249 101.745 191.148 103.011 192.889 103.961 194.946 104.435 197.161 105.068 199.376 105.385 201.592 105.226 203.807 105.068 206.022 104.752 208.079 103.961 209.978 103.328 211.877 102.378 213.934 100.954 215.675 99.6882 217.415 98.1059 218.998 96.2071 220.264 94.3082 221.529 92.2512 222.479 90.1941 223.27 87.9788 223.903 85.9218 224.219 83.8647 224.219 82.5988 224.219 81.3329 224.061 79.9088 223.903 78.6429 223.586 77.2188 223.112 75.9529 222.637 73.2629 221.529 70.8894 219.947 68.6741 217.89 66.4588 215.833 64.8765 213.301 63.9271 210.611 63.4524 209.345 62.9776 207.921 62.8194 206.655 62.5029 205.231 62.3447 203.965 62.3447 202.699 62.3447 201.117 62.5029 199.693 62.8194 197.952 63.1359 196.37 63.7688 194.629 64.56 193.047 65.3512 191.465 66.4588 189.882 67.7247 188.458 68.9906 186.876 70.5729 185.61 72.1553 184.502 73.8959 183.553 75.6365 182.762 77.5353 182.129 79.4341 181.654 81.1747 181.338 83.0735 181.179 84.9724 181.179 86.7129 181.338 88.2953 181.812 90.0359 182.129 91.46 182.762 92.8841 183.395L83.2318 198.269C81.9659 198.427 81.0165 199.218 80.2253 200.168 79.4341 201.117 79.1176 202.383 79.1176 203.491 79.2759 204.756 79.7506 206.022 80.5418 206.814 81.4912 207.763 82.5988 208.238 83.8647 208.396 85.7635 208.554 87.6624 207.605 88.6118 205.864 89.0865 205.073 89.2447 204.282 89.2447 203.332 89.2447 202.383 88.77 201.434 88.2953 200.642L97.4729 186.243ZM141.621 200.009 108.233 170.578 159.976 170.578 144.152 200.009 141.621 200.009ZM169.786 180.23C166.305 182.287 163.457 185.135 161.4 188.616 159.343 192.098 158.235 195.895 158.077 200.009L150.482 200.009 165.356 172.476 169.786 180.23ZM185.452 197.478 177.224 182.762C178.489 182.129 180.072 181.812 181.654 181.496 183.395 181.179 184.977 181.021 186.718 181.179 188.616 181.338 190.357 181.812 192.098 182.445 193.838 182.92 195.579 183.711 197.161 184.977 198.744 185.926 200.168 187.192 201.275 188.616 202.541 190.041 203.649 191.623 204.282 193.205 205.073 194.788 205.706 196.528 206.022 198.111 206.339 199.693 206.497 201.275 206.497 202.699 206.497 203.965 206.339 205.231 206.022 206.655 205.864 207.921 205.389 209.345 204.915 210.611 203.965 213.301 202.225 215.833 200.168 217.89 197.952 219.947 195.421 221.529 192.889 222.637 191.623 223.112 190.199 223.586 188.775 223.903 187.509 224.061 186.243 224.219 184.977 224.219 182.604 224.219 180.072 223.903 177.54 223.112 175.166 222.162 172.793 220.896 170.578 218.998 168.521 217.257 166.78 215.042 165.514 212.668 164.406 210.295 163.774 207.763 163.615 205.548L182.604 205.548C183.236 205.231 183.869 204.915 184.502 204.282 185.135 203.649 185.61 203.016 185.926 202.225 186.085 201.275 186.243 200.484 186.085 199.693 186.085 198.902 185.768 198.111 185.452 197.478ZM177.698 200.009 163.774 200.009C163.932 197.161 164.881 194.313 166.305 191.781 167.888 189.249 170.103 187.034 172.318 185.452L178.964 197.478C179.281 197.952 179.439 198.585 178.964 199.06 178.648 199.693 178.173 200.009 177.698 200.009Z" fill="#FEFEFE" transform="matrix(1 0 0 1.00372 396 76)"/></g></svg>