<svg width="166" height="166" xmlns="http://www.w3.org/2000/svg" xmlns:xlink="http://www.w3.org/1999/xlink" xml:space="preserve" overflow="hidden"><g transform="translate(-229 -29)"><path d="M394.472 111.849C394.472 100.946 392.321 90.2691 388.134 80.3468 384.059 70.3114 377.947 61.1436 370.326 53.485 362.668 45.8641 353.5 39.7523 343.465 35.6777 333.467 31.49 322.752 29.3395 311.962 29.3395 301.135 29.3395 290.458 31.49 280.422 35.6777 270.387 39.7523 261.37 45.8641 253.56 53.485 245.864 61.1436 239.865 70.3114 235.678 80.3468 231.49 90.2691 229.34 100.946 229.34 111.849 229.34 122.752 231.49 133.467 235.678 143.465 239.865 153.5 245.864 162.555 253.56 170.251 261.37 177.947 270.387 183.946 280.422 188.134 290.458 192.246 301.135 194.472 311.962 194.472 322.752 194.472 333.467 192.246 343.465 188.134 353.5 183.946 362.668 177.947 370.326 170.251 377.947 162.555 384.059 153.5 388.134 143.465 392.321 133.467 394.472 122.752 394.472 111.849Z" fill="#FFFFFF"/><path d="M394.472 111.962C394.472 101.059 392.321 90.3445 388.134 80.4223 384.059 70.3114 377.947 61.1436 370.251 53.485 362.555 45.8641 353.425 39.7523 343.389 35.6777 333.354 31.49 322.677 29.3395 311.849 29.3395" stroke="#343434" stroke-width="0.679091" stroke-linejoin="round" fill="none"/><path d="M311.962 29.3395C301.135 29.3395 290.345 31.49 280.347 35.6777 270.311 39.7523 261.257 45.8641 253.56 53.485 245.864 61.1436 239.865 70.3114 235.678 80.4223 231.49 90.3445 229.34 101.059 229.34 111.962" stroke="#343434" stroke-width="0.679091" stroke-linejoin="round" fill="none"/><path d="M229.34 111.849C229.34 122.677 231.49 133.354 235.678 143.389 239.865 153.425 245.864 162.555 253.56 170.251 261.257 177.947 270.311 183.946 280.347 188.134 290.345 192.246 301.135 194.472 311.962 194.472" stroke="#343434" stroke-width="0.679091" stroke-linejoin="round" fill="none"/><path d="M311.849 194.472C322.677 194.472 333.354 192.246 343.389 188.134 353.425 183.946 362.555 177.947 370.251 170.251 377.947 162.555 384.059 153.425 388.134 143.389 392.321 133.354 394.472 122.677 394.472 111.849" stroke="#343434" stroke-width="0.679091" stroke-linejoin="round" fill="none"/><path d="M390.397 111.849C390.397 101.55 388.36 91.3255 384.436 81.7805 380.55 72.2355 374.703 63.6714 367.421 56.39 360.14 49.1086 351.576 43.2609 342.031 39.375 332.486 35.4514 322.262 33.4141 311.962 33.4141 301.625 33.4141 291.439 35.4514 281.969 39.375 272.462 43.2609 263.785 49.1086 256.503 56.39 249.184 63.6714 243.45 72.2355 239.375 81.7805 235.451 91.3255 233.414 101.55 233.414 111.849 233.414 122.186 235.451 132.373 239.375 141.842 243.45 151.35 249.184 160.027 256.503 167.308 263.785 174.627 272.462 180.362 281.969 184.361 291.439 188.36 301.625 190.397 311.962 190.397 322.262 190.397 332.486 188.36 342.031 184.361 351.576 180.362 360.14 174.627 367.421 167.308 374.703 160.027 380.55 151.35 384.436 141.842 388.36 132.373 390.397 122.186 390.397 111.849Z" fill="#0055FF"/><path d="M275.254 115.66C272.65 115.66 270.01 116.225 267.595 117.206 265.067 118.187 262.804 119.734 260.955 121.583 259.106 123.431 257.673 125.657 256.579 127.996 255.598 130.637 255.145 133.165 255.145 135.881 255.145 138.522 255.598 141.163 256.579 143.578 257.673 145.917 259.106 148.143 260.955 149.991 262.804 151.953 265.067 153.425 267.595 154.368 270.01 155.349 272.65 155.952 275.254 155.952 277.895 155.952 280.422 155.349 282.95 154.368 285.402 153.425 287.515 151.953 289.477 149.991 291.325 148.143 292.797 145.917 293.74 143.578 294.721 141.163 295.325 138.522 295.325 135.881 295.325 133.165 294.721 130.637 293.74 127.996 292.797 125.657 291.325 123.431 289.477 121.583 287.515 119.734 285.402 118.187 282.95 117.206 280.422 116.225 277.895 115.66 275.254 115.66ZM275.254 121.885C276.046 121.885 276.914 121.885 277.781 122.073 278.687 122.262 279.441 122.564 280.347 122.865 282.082 123.545 283.742 124.601 285.1 125.959 286.459 127.317 287.44 128.977 288.119 130.75 288.496 131.618 288.798 132.486 288.911 133.354 289.1 134.146 289.1 135.014 289.1 135.881 289.1 136.674 289.1 137.541 288.911 138.334 288.798 139.201 288.496 140.069 288.119 140.937 287.44 142.71 286.459 144.257 285.1 145.728 283.742 146.973 282.082 148.143 280.347 148.746 279.441 149.124 278.687 149.312 277.781 149.501 276.914 149.727 276.046 149.727 275.254 149.727 274.386 149.727 273.631 149.727 272.726 149.501 271.858 149.312 270.99 149.124 270.123 148.746 268.463 148.143 266.69 146.973 265.331 145.728 263.973 144.257 262.917 142.71 262.238 140.937 261.936 140.069 261.634 139.201 261.445 138.334 261.37 137.541 261.257 136.674 261.257 135.881 261.257 135.014 261.37 134.146 261.445 133.354 261.634 132.486 261.936 131.618 262.238 130.75 262.917 128.977 263.973 127.317 265.331 125.959 266.69 124.601 268.463 123.545 270.123 122.865 270.99 122.564 271.858 122.262 272.726 122.073 273.631 121.885 274.386 121.885 275.254 121.885Z" fill="#FFFFFF"/><path d="M316.905 110.302 303.7 116.15C302.983 116.527 302.229 117.018 301.55 117.81 300.87 118.565 300.38 119.357 300.078 120.338 299.701 121.319 299.701 122.262 299.776 123.243 299.89 124.224 300.191 125.091 300.569 125.884L311.962 145.125C312.34 145.615 312.717 146.03 313.32 146.407 313.811 146.785 314.377 146.973 315.056 147.2 315.66 147.275 316.414 147.275 317.018 147.2 317.584 146.973 318.187 146.785 318.678 146.407 319.734 145.728 320.526 144.672 320.715 143.276 321.017 142.106 320.715 140.748 320.036 139.692L310.793 124.79 330.826 114.98C331.43 114.603 332.109 114.113 332.599 113.434 333.052 112.755 333.467 111.962 333.655 111.095 333.844 110.189 333.844 109.435 333.769 108.567 333.542 107.775 333.278 106.982 332.788 106.416L320.338 88.9864C319.847 88.4205 319.168 87.7414 318.489 87.2509 317.584 86.7605 316.716 86.4586 315.848 86.3832 314.867 86.1568 313.886 86.27 313.019 86.5718 312.151 86.8359 311.359 87.2509 310.793 87.7414L293.363 100.569 282.875 100.569C282.384 100.569 281.78 100.682 281.215 100.87 280.611 101.172 280.12 101.436 279.743 101.851 279.253 102.342 278.875 102.795 278.687 103.398 278.498 103.964 278.385 104.455 278.385 105.058 278.385 105.549 278.498 106.115 278.687 106.718 278.875 107.284 279.253 107.775 279.743 108.152 280.12 108.642 280.611 108.944 281.215 109.246 281.78 109.435 282.384 109.51 282.875 109.51L297.06 109.51 306.794 102.908 316.905 110.302Z" fill="#FFFFFF"/><path d="M349.01 115.66C346.294 115.66 343.691 116.225 341.239 117.206 338.824 118.187 336.56 119.734 334.712 121.583 332.863 123.431 331.316 125.657 330.335 127.996 329.355 130.637 328.789 133.165 328.789 135.881 328.789 138.522 329.355 141.163 330.335 143.578 331.316 145.917 332.863 148.143 334.712 149.991 336.56 151.953 338.824 153.425 341.239 154.368 343.691 155.349 346.294 155.952 349.01 155.952 351.651 155.952 354.292 155.349 356.707 154.368 359.159 153.425 361.272 151.953 363.234 149.991 365.082 148.143 366.554 145.917 367.535 143.578 368.591 141.163 369.081 138.522 369.081 135.881 369.081 133.165 368.591 130.637 367.535 127.996 366.554 125.657 365.082 123.431 363.234 121.583 361.272 119.734 359.159 118.187 356.707 117.206 354.292 116.225 351.651 115.66 349.01 115.66ZM349.01 121.885C349.803 121.885 350.67 121.885 351.576 122.073 352.33 122.262 353.198 122.564 354.104 122.865 355.839 123.545 357.386 124.601 358.857 125.959 360.215 127.317 361.272 128.977 361.875 130.75 362.253 131.618 362.441 132.486 362.668 133.354 362.856 134.146 362.856 135.014 362.856 135.881 362.856 136.674 362.856 137.541 362.668 138.334 362.441 139.201 362.253 140.069 361.875 140.937 361.272 142.71 360.215 144.257 358.857 145.728 357.386 146.973 355.839 148.143 354.104 148.746 353.198 149.124 352.33 149.312 351.576 149.501 350.67 149.727 349.803 149.727 349.01 149.727 348.143 149.727 347.388 149.727 346.407 149.501 345.54 149.312 344.634 149.124 343.766 148.746 342.031 148.143 340.484 146.973 339.088 145.728 337.73 144.257 336.674 142.71 335.995 140.937 335.693 140.069 335.391 139.201 335.202 138.334 335.127 137.541 335.014 136.674 335.014 135.881 335.014 135.014 335.127 134.146 335.202 133.354 335.391 132.486 335.693 131.618 335.995 130.75 336.674 128.977 337.73 127.317 339.088 125.959 340.484 124.601 342.031 123.545 343.766 122.865 344.634 122.564 345.54 122.262 346.407 122.073 347.388 121.885 348.143 121.885 349.01 121.885Z" fill="#FFFFFF"/><path d="M315.358 78.6868C315.358 75.7441 314.301 73.0277 312.264 71.1036 310.189 68.9532 307.397 67.8591 304.568 67.8591 303.285 67.8591 301.927 68.0855 300.569 68.6514 299.21 69.1418 297.928 69.9341 296.871 71.1036 295.702 72.0468 294.91 73.3295 294.457 74.6877 293.853 76.0459 293.665 77.4041 293.665 78.6868L302.983 77.8945 302.983 85.5909 296.004 91.1368 296.758 95.7018 315.358 81.705 315.358 78.6868Z" fill="#FFFFFF"/><path d="M249.184 159.046C251.335 161.989 253.749 164.78 256.39 167.421 259.031 170.062 261.823 172.401 264.765 174.627L374.627 64.6523C372.477 61.7473 370.062 59.0309 367.421 56.39 364.78 53.7491 362.064 51.3345 359.159 49.1841L249.184 159.046Z" fill="#FF0000"/></g></svg>