<svg width="287" height="287" xmlns="http://www.w3.org/2000/svg" xmlns:xlink="http://www.w3.org/1999/xlink" xml:space="preserve" overflow="hidden"><defs><clipPath id="clip0"><rect x="2057" y="1094" width="287" height="287"/></clipPath></defs><g clip-path="url(#clip0)" transform="translate(-2057 -1094)"><path d="M2069.5 1238C2069.5 1163.17 2128.15 1102.5 2200.5 1102.5 2272.85 1102.5 2331.5 1163.17 2331.5 1238 2331.5 1312.83 2272.85 1373.5 2200.5 1373.5 2128.15 1373.5 2069.5 1312.83 2069.5 1238Z" stroke="#FFFFFF" stroke-width="6.875" stroke-miterlimit="8" fill="#FFFFFF" fill-rule="evenodd"/><path d="M2343.77 1237.53C2343.77 1218.73 2340.03 1200.16 2332.84 1182.78 2325.65 1165.43 2315.11 1149.63 2301.85 1136.28 2288.5 1123.02 2272.7 1112.48 2255.35 1105.29 2237.97 1098.1 2219.4 1094.35 2200.6 1094.35" stroke="#343434" stroke-width="0.644944" stroke-linejoin="round" fill="none"/><path d="M2200.63 1094.35C2181.76 1094.35 2163.19 1098.1 2145.81 1105.29 2128.43 1112.48 2112.66 1123.02 2099.31 1136.28 2086.05 1149.63 2075.48 1165.43 2068.29 1182.78 2061.06 1200.16 2057.32 1218.73 2057.32 1237.53" stroke="#343434" stroke-width="0.644944" stroke-linejoin="round" fill="none"/><path d="M2057.32 1237.5C2057.32 1256.36 2061.06 1274.94 2068.29 1292.32 2075.48 1309.7 2086.05 1325.47 2099.31 1338.82 2112.66 1352.07 2128.43 1362.65 2145.81 1369.84 2163.19 1377.07 2181.76 1380.81 2200.63 1380.81" stroke="#343434" stroke-width="0.644944" stroke-linejoin="round" fill="none"/><path d="M2200.6 1380.81C2219.4 1380.81 2237.97 1377.07 2255.35 1369.84 2272.7 1362.65 2288.5 1352.07 2301.85 1338.82 2315.11 1325.47 2325.65 1309.7 2332.84 1292.32 2340.03 1274.94 2343.77 1256.36 2343.77 1237.5" stroke="#343434" stroke-width="0.644944" stroke-linejoin="round" fill="none"/><path d="M2200.6 1102.29C2218.33 1102.29 2235.88 1105.83 2252.32 1112.64 2268.67 1119.38 2283.6 1129.38 2296.21 1141.89 2308.72 1154.5 2318.72 1169.43 2325.49 1185.78 2332.29 1202.22 2335.84 1219.8 2335.84 1237.53" stroke="#010101" stroke-width="0.644944" stroke-linejoin="round" fill="none"/><path d="" stroke="#010101" stroke-width="0.644944" stroke-linejoin="round" fill="none"/><path d="M2335.84 1237.5C2335.84 1255.33 2332.29 1272.91 2325.49 1289.32 2318.72 1305.67 2308.72 1320.63 2296.21 1333.15 2283.6 1345.79 2268.67 1355.69 2252.32 1362.49 2235.88 1369.29 2218.33 1372.74 2200.6 1372.74" stroke="#010101" stroke-width="0.644944" stroke-linejoin="round" fill="none"/><path d="" stroke="#010101" stroke-width="0.644944" stroke-linejoin="round" fill="none"/><path d="M2200.63 1372.74C2182.76 1372.74 2165.19 1369.29 2148.78 1362.49 2132.43 1355.69 2117.46 1345.79 2104.95 1333.15 2092.34 1320.63 2082.44 1305.67 2075.64 1289.32 2068.83 1272.91 2065.38 1255.33 2065.38 1237.5" stroke="#010101" stroke-width="0.644944" stroke-linejoin="round" fill="none"/><path d="" stroke="#010101" stroke-width="0.644944" stroke-linejoin="round" fill="none"/><path d="M2065.38 1237.53C2065.38 1219.8 2068.83 1202.22 2075.64 1185.78 2082.44 1169.43 2092.34 1154.5 2104.95 1141.89 2117.46 1129.38 2132.43 1119.38 2148.78 1112.64 2165.19 1105.83 2182.76 1102.29 2200.63 1102.29" stroke="#010101" stroke-width="0.644944" stroke-linejoin="round" fill="none"/><path d="M2200.69 1094.35C2195.53 1094.35 2190.12 1094.61 2184.7 1095.29 2179.31 1095.84 2173.7 1096.77 2167.99 1098.16 2162.38 1099.48 2156.71 1101.16 2150.9 1103.32 2145.23 1105.35 2139.52 1107.9 2133.81 1110.87 2128.2 1113.86 2122.72 1117.22 2117.4 1121.06 2111.98 1124.89 2106.82 1129.18 2101.89 1133.86 2097.02 1138.44 2092.44 1143.47 2088.15 1148.88 2083.96 1154.3 2080.02 1160.04 2076.57 1166.01 2073.12 1171.97 2070.12 1178.13 2067.61 1184.49 2065.09 1190.94 2062.93 1197.38 2061.35 1204.03 2059.77 1210.54 2058.74 1217.09 2058.1 1223.73 2057.42 1230.24 2057.26 1236.69 2057.52 1243.05 2057.71 1249.4 2058.35 1255.66 2059.39 1261.62 2060.42 1267.72 2061.8 1273.49 2063.51 1279 2065.19 1284.61 2067.16 1289.84 2069.38 1294.87 2071.54 1299.93 2073.96 1304.67 2076.57 1309.15 2079.09 1313.64 2082.09 1318.12 2085.25 1322.5 2088.54 1326.92 2092.18 1331.31 2096.08 1335.5 2100.11 1339.79 2104.4 1343.92 2109.18 1347.72 2113.82 1351.65 2118.88 1355.3 2124.2 1358.75 2129.62 1362.1 2135.33 1365.2 2141.29 1367.91 2147.36 1370.71 2153.61 1373.03 2160.06 1374.91 2166.51 1376.87 2173.22 1378.26 2179.96 1379.29 2186.76 1380.23 2193.7 1380.81 2200.6 1380.81 2207.4 1380.81 2214.33 1380.23 2221.14 1379.29 2227.85 1378.26 2234.59 1376.87 2241.03 1374.91 2247.55 1373.03 2253.8 1370.71 2259.8 1367.91 2265.77 1365.2 2271.48 1362.1 2276.93 1358.75 2282.25 1355.3 2287.28 1351.65 2292.05 1347.72 2296.73 1343.92 2301.01 1339.79 2305.01 1335.5 2308.95 1331.31 2312.59 1326.92 2315.85 1322.5 2319.14 1318.12 2322.01 1313.64 2324.55 1309.15 2327.17 1304.67 2329.59 1299.93 2331.84 1294.87 2333.97 1289.84 2335.94 1284.61 2337.61 1279 2339.29 1273.49 2340.71 1267.72 2341.74 1261.62 2342.74 1255.66 2343.42 1249.5 2343.68 1243.05 2343.87 1236.69 2343.77 1230.24 2343.13 1223.73 2342.48 1217.09 2341.36 1210.54 2339.78 1204.03 2338.16 1197.38 2336.13 1190.94 2333.62 1184.49 2331.07 1178.13 2328.1 1171.97 2324.65 1166.01 2321.17 1160.04 2317.36 1154.3 2313.04 1148.88 2308.85 1143.47 2304.17 1138.44 2299.34 1133.86 2294.47 1129.18 2289.34 1124.89 2283.92 1121.06 2278.6 1117.22 2273.06 1113.86 2267.35 1110.87 2261.77 1107.9 2256.06 1105.35 2250.35 1103.32 2244.68 1101.16 2238.97 1099.48 2233.26 1098.16 2227.68 1096.77 2222.07 1095.84 2216.66 1095.29 2211.14 1094.61 2205.82 1094.35 2200.69 1094.35ZM2119.82 1346.04C2119.17 1345.59 2118.5 1345.11 2117.95 1344.66 2117.3 1344.08 2116.62 1343.63 2115.98 1343.14L2113.08 1346.04 2108.34 1341.37 2110.85 1338.76C2110.27 1338.3 2109.72 1337.72 2109.08 1337.18 2108.5 1336.63 2107.95 1336.14 2107.4 1335.6L2104.95 1338.01 2100.21 1333.24 2102.63 1330.82C2102.08 1330.28 2101.5 1329.69 2101.05 1329.15 2100.47 1328.5 2099.92 1327.92 2099.47 1327.37L2096.83 1329.89 2092.18 1325.15 2095.05 1322.25C2094.6 1321.57 2094.12 1320.92 2093.57 1320.28 2093.12 1319.73 2092.63 1319.05 2092.18 1318.41L2088.7 1321.76 2084.06 1317.09 2088.25 1312.89C2084.6 1307.38 2081.25 1301.7 2078.44 1295.61 2075.54 1289.55 2073.12 1283.39 2071.16 1276.94 2069.19 1270.49 2067.8 1263.97 2066.77 1257.33 2065.84 1250.79 2065.38 1244.18 2065.38 1237.53 2065.38 1233.63 2065.45 1229.5 2065.84 1225.41 2066.22 1221.28 2066.77 1217.18 2067.61 1212.99 2068.35 1208.77 2069.38 1204.58 2070.51 1200.38 2071.7 1196.16 2073.12 1191.97 2074.8 1187.77 2078.06 1179.46 2082.28 1171.33 2087.31 1163.59 2092.44 1155.79 2098.34 1148.5 2104.85 1141.89 2111.5 1135.34 2118.79 1129.47 2126.52 1124.31 2134.3 1119.28 2142.42 1115.09 2150.71 1111.8 2154.84 1110.12 2159.03 1108.74 2163.22 1107.51 2167.45 1106.29 2171.64 1105.35 2175.83 1104.61 2180.06 1103.77 2184.25 1103.22 2188.34 1102.84 2192.37 1102.48 2196.47 1102.29 2200.5 1102.29 2207.05 1102.29 2213.66 1102.74 2220.3 1103.77 2226.91 1104.71 2233.46 1106.22 2239.91 1108.16 2246.36 1110.12 2252.61 1112.54 2258.58 1115.44 2264.64 1118.25 2270.35 1121.51 2275.89 1125.25L2280.09 1121.06 2284.76 1125.73 2281.41 1129.18C2282.05 1129.63 2282.7 1130.12 2283.38 1130.57 2283.92 1131.05 2284.57 1131.6 2285.25 1132.08L2288.12 1129.09 2292.89 1133.86 2290.37 1136.37C2290.92 1136.92 2291.5 1137.5 2292.15 1137.95 2292.69 1138.5 2293.28 1139.08 2293.82 1139.63L2296.24 1137.21 2301.01 1141.98 2298.6 1144.4C2299.14 1144.95 2299.69 1145.53 2300.18 1146.08 2300.72 1146.72 2301.3 1147.3 2301.85 1147.85L2304.37 1145.34 2309.04 1150.11 2306.14 1152.98C2306.63 1153.66 2307.08 1154.3 2307.66 1154.85 2308.11 1155.53 2308.56 1156.17 2309.04 1156.82L2312.49 1153.46 2317.17 1158.14 2312.98 1162.36C2316.62 1167.88 2319.88 1173.55 2322.78 1179.65 2325.59 1185.61 2328.01 1191.87 2329.97 1198.32 2331.91 1204.67 2333.42 1211.22 2334.36 1217.83 2335.39 1224.47 2335.84 1230.99 2335.84 1237.53 2335.84 1241.56 2335.65 1245.66 2335.29 1249.79 2334.91 1253.88 2334.36 1257.98 2333.52 1262.2 2332.78 1266.39 2331.84 1270.59 2330.62 1274.81 2329.39 1279 2328.01 1283.19 2326.33 1287.32 2323.04 1295.71 2318.85 1303.83 2313.82 1311.6 2308.75 1319.34 2302.88 1326.53 2296.24 1333.18 2289.63 1339.79 2282.34 1345.69 2274.54 1350.72 2266.9 1355.85 2258.77 1359.97 2250.35 1363.33 2246.26 1364.91 2242.07 1366.42 2237.84 1367.62 2233.65 1368.75 2229.46 1369.78 2225.23 1370.52 2221.04 1371.36 2216.95 1371.91 2212.82 1372.29 2208.72 1372.68 2204.6 1372.74 2200.69 1372.74 2194.05 1372.74 2187.41 1372.29 2180.89 1371.36 2174.25 1370.42 2167.7 1368.94 2161.29 1366.97 2154.84 1365.01 2148.58 1362.59 2142.58 1359.78 2136.52 1356.88 2130.85 1353.62 2125.33 1349.98L2121.11 1354.17 2116.46 1349.4 2119.82 1346.04Z" fill="#010101"/><path d="M2281.41 1129.21 2284.76 1125.76 2280.09 1121.06 2275.86 1125.28C2276.83 1125.86 2277.76 1126.51 2278.7 1127.15 2279.63 1127.8 2280.47 1128.47 2281.41 1129.21Z" fill="#010101"/><path d="M2290.37 1136.41 2292.89 1133.89 2288.12 1129.09 2285.21 1132.12C2286.08 1132.86 2286.92 1133.5 2287.86 1134.24 2288.7 1134.99 2289.53 1135.66 2290.37 1136.41Z" fill="#010101"/><path d="M2298.56 1144.43 2301.01 1142.02 2296.21 1137.21 2293.79 1139.63C2294.63 1140.37 2295.47 1141.24 2296.21 1142.02 2296.95 1142.76 2297.79 1143.6 2298.56 1144.43Z" fill="#010101"/><path d="M2306.11 1153.01 2309.04 1150.14 2304.34 1145.34 2301.82 1147.89C2302.47 1148.72 2303.21 1149.56 2303.98 1150.4 2304.72 1151.34 2305.37 1152.17 2306.11 1153.01Z" fill="#010101"/><path d="M2312.98 1162.36 2317.17 1158.14 2312.49 1153.46 2309.01 1156.82C2309.75 1157.75 2310.4 1158.59 2311.08 1159.56 2311.72 1160.49 2312.3 1161.43 2312.98 1162.36Z" fill="#010101"/><path d="M2088.28 1312.86 2084.06 1317.05 2088.73 1321.76 2092.21 1318.38C2091.44 1317.44 2090.8 1316.51 2090.15 1315.67 2089.51 1314.73 2088.83 1313.8 2088.28 1312.86Z" fill="#010101"/><path d="M2095.05 1322.21 2092.18 1325.12 2096.86 1329.89 2099.5 1327.34C2098.73 1326.5 2097.99 1325.66 2097.24 1324.73 2096.47 1323.89 2095.83 1323.05 2095.05 1322.21Z" fill="#010101"/><path d="M2102.66 1330.79 2100.21 1333.21 2104.98 1338.01 2107.43 1335.6C2106.6 1334.85 2105.82 1333.98 2104.98 1333.21 2104.24 1332.37 2103.4 1331.63 2102.66 1330.79Z" fill="#010101"/><path d="M2110.89 1338.72 2108.34 1341.34 2113.11 1346.04 2116.01 1343.14C2115.17 1342.37 2114.34 1341.72 2113.5 1340.98 2112.56 1340.24 2111.72 1339.5 2110.89 1338.72Z" fill="#010101"/><path d="M2119.85 1346.01 2116.46 1349.4 2121.14 1354.17 2125.36 1349.98C2124.43 1349.33 2123.49 1348.66 2122.66 1347.98 2121.72 1347.33 2120.78 1346.66 2119.85 1346.01Z" fill="#010101"/><path d="M2090.86 1319.15 2284.47 1125.44 2281.12 1122.09 2278.7 1124.51 2087.51 1315.7C2088.63 1316.92 2089.73 1318.02 2090.86 1319.15Z" fill="#010101"/><path d="M2098.7 1326.99 2292.4 1133.37 2289.05 1130.02 2286.63 1132.34 2095.44 1323.63C2096.47 1324.76 2097.6 1325.89 2098.7 1326.99Z" fill="#010101"/><path d="M2106.66 1334.85 2300.27 1141.21 2296.89 1137.86 2294.47 1140.31 2103.27 1331.47C2104.4 1332.6 2105.53 1333.73 2106.66 1334.85Z" fill="#010101"/><path d="M2114.5 1342.79 2308.11 1149.08 2304.76 1145.69 2302.3 1148.14 2111.14 1339.34C2112.24 1340.53 2113.37 1341.66 2114.5 1342.79Z" fill="#010101"/><path d="M2122.33 1350.62 2316.04 1157.01 2312.69 1153.66 2310.27 1155.98 2119.08 1347.27C2120.11 1348.4 2121.2 1349.49 2122.33 1350.62Z" fill="#010101"/></g></svg>