<svg width="185" height="185" xmlns="http://www.w3.org/2000/svg" xmlns:xlink="http://www.w3.org/1999/xlink" xml:space="preserve" overflow="hidden"><g transform="translate(-19 -19)"><path d="M203.585 111.5C203.585 99.4561 201.206 87.4122 196.524 76.2367 191.956 65.0612 185.122 54.8296 176.665 46.2592 168.095 37.802 157.863 30.9684 146.688 26.4 135.512 21.7184 123.582 19.3398 111.5 19.3398 99.4561 19.3398 87.5255 21.7184 76.35 26.4 65.1745 30.9684 55.0561 37.802 46.3724 46.2592 37.802 54.8296 31.0816 65.0612 26.4 76.2367 21.7184 87.4122 19.3398 99.4561 19.3398 111.5 19.3398 123.582 21.7184 135.512 26.4 146.688 31.0816 157.863 37.802 167.982 46.3724 176.552 55.0561 185.122 65.1745 191.843 76.35 196.524 87.5255 201.206 99.4561 203.585 111.5 203.585 123.582 203.585 135.512 201.206 146.688 196.524 157.863 191.843 168.095 185.122 176.665 176.552 185.122 167.982 191.956 157.863 196.524 146.688 201.206 135.512 203.585 123.582 203.585 111.5Z" fill="#FFFFFF"/><path d="M203.585 111.5C203.585 99.4561 201.206 87.5255 196.524 76.35 191.956 65.1745 185.122 54.9429 176.552 46.2592 167.982 37.802 157.75 30.9684 146.574 26.4 135.399 21.7184 123.468 19.3398 111.424 19.3398" stroke="#343434" stroke-width="0.679592" stroke-linejoin="round" fill="none"/><path d="M111.5 19.3398C99.4561 19.3398 87.4122 21.7184 76.2367 26.4 65.0612 30.9684 54.9429 37.802 46.3724 46.2592 37.802 55.0561 31.0816 65.1745 26.4 76.35 21.7184 87.5255 19.3398 99.4561 19.3398 111.5" stroke="#343434" stroke-width="0.679592" stroke-linejoin="round" fill="none"/><path d="M19.3398 111.424C19.3398 123.468 21.7184 135.399 26.4 146.688 31.0816 157.863 37.802 167.982 46.3724 176.552 54.9429 185.122 65.0612 191.843 76.2367 196.524 87.4122 201.206 99.4561 203.585 111.5 203.585" stroke="#343434" stroke-width="0.679592" stroke-linejoin="round" fill="none"/><path d="M111.424 203.585C123.468 203.585 135.399 201.206 146.574 196.524 157.75 191.843 167.982 185.122 176.552 176.552 185.122 167.982 191.956 157.863 196.524 146.688 201.206 135.399 203.585 123.468 203.585 111.424" stroke="#343434" stroke-width="0.679592" stroke-linejoin="round" fill="none"/><path d="M199.016 111.424C199.016 99.9092 196.751 88.5071 192.409 77.8602 188.067 67.2133 181.536 57.6612 173.418 49.5061 165.263 41.3888 155.711 34.8571 145.064 30.5153 134.417 26.1735 123.015 23.9082 111.5 23.9082 100.022 23.9082 88.6204 26.1735 78.0867 30.5153 67.4398 34.8571 57.7745 41.3888 49.6194 49.5061 41.502 57.6612 35.0837 67.2133 30.5153 77.8602 26.1735 88.5071 23.9082 99.9092 23.9082 111.424 23.9082 122.902 26.1735 134.304 30.5153 144.838 35.0837 155.485 41.502 165.15 49.6194 173.305 57.7745 181.422 67.4398 187.841 78.0867 192.296 88.6204 196.751 100.022 199.016 111.5 199.016 123.015 199.016 134.417 196.751 145.064 192.296 155.711 187.841 165.263 181.422 173.418 173.305 181.536 165.15 188.067 155.485 192.409 144.838 196.751 134.304 199.016 122.902 199.016 111.424Z" fill="#0055FF"/><path d="M75.6704 138.155C75.6704 138.684 75.8969 139.363 76.35 139.779 76.8786 140.232 77.5204 140.534 78.0867 140.534L86.4306 140.534C86.9969 140.534 87.6388 140.232 88.0541 139.779 88.6204 139.363 88.8092 138.684 88.8092 138.155L88.8092 126.224 134.002 126.224 134.002 138.155C134.002 138.684 134.191 139.363 134.87 139.779 135.286 140.232 135.928 140.534 136.494 140.534L144.838 140.534C145.517 140.534 146.046 140.232 146.574 139.779 147.028 139.363 147.254 138.684 147.254 138.155L147.254 126.224C148.538 126.224 149.746 125.658 150.614 124.79 151.483 123.921 152.011 122.751 152.011 121.316 151.671 120.146 151.483 118.938 151.483 117.654 151.483 116.446 151.671 115.238 152.011 113.954L152.011 104.704C152.011 103.722 151.785 102.854 151.483 101.986 151.143 101.117 150.614 100.249 149.935 99.6071 149.18 98.9653 148.424 98.4367 147.443 97.9837 146.574 97.6439 145.706 97.4551 144.838 97.4551L139.741 84.3163C139.326 83.6367 138.646 83.1082 137.778 82.7684 137.022 82.4663 136.154 82.3531 135.286 82.4663L87.6388 82.4663C86.8837 82.3531 85.902 82.4663 85.1469 82.7684 84.2786 83.1082 83.599 83.6367 83.2969 84.3163L78.0867 97.4551C77.2184 97.4551 76.35 97.6439 75.4816 97.9837 74.6133 98.4367 73.7449 98.9653 73.0653 99.6071 72.3102 100.249 71.7816 101.117 71.4418 101.986 71.1398 102.854 70.9133 103.722 70.9133 104.704L70.9133 113.954C71.5551 116.446 71.5551 118.938 70.9133 121.316 70.9133 121.996 71.0265 122.638 71.2531 123.166 71.5551 123.733 71.8949 124.261 72.3102 124.79 72.7633 125.243 73.4051 125.658 73.9337 125.885 74.5 126.111 75.1418 126.224 75.6704 126.224L75.6704 138.155ZM137.589 86.3551 142.119 97.4551C131.812 97.1153 121.505 96.7755 111.311 96.7755 101.08 96.7755 90.8857 97.1153 80.6918 97.4551L85.3357 86.3551C85.5622 85.9398 85.902 85.4867 86.3173 85.298 86.7704 84.9582 87.0724 84.8449 87.6388 84.8449L135.286 84.8449C135.852 84.8449 136.267 84.9582 136.607 85.298 137.022 85.4867 137.362 85.9398 137.589 86.3551ZM82.3153 106.328C82.9571 106.328 83.5235 106.441 84.1653 106.667 84.8071 106.894 85.3357 107.309 85.902 107.876 86.4306 108.291 86.8837 108.857 87.0724 109.612 87.299 110.254 87.4122 110.783 87.4122 111.462 87.4122 112.104 87.299 112.633 87.0724 113.312 86.8837 113.954 86.4306 114.483 85.902 115.049 85.3357 115.578 84.8071 115.993 84.1653 116.219 83.5235 116.446 82.9571 116.559 82.3153 116.559 80.9184 116.559 79.5969 115.993 78.7286 115.049 77.7469 114.181 77.2184 112.746 77.2184 111.462 77.2184 110.783 77.3316 110.254 77.5204 109.612 77.7469 108.857 78.2 108.291 78.7286 107.876 79.1439 107.309 79.7102 106.894 80.4653 106.667 81.1071 106.441 81.6735 106.328 82.3153 106.328ZM140.609 106.328C142.006 106.328 143.328 106.894 144.309 107.876 145.178 108.744 145.706 110.141 145.706 111.462 145.706 112.104 145.593 112.633 145.404 113.312 145.178 113.954 144.838 114.483 144.309 115.049 143.781 115.578 143.214 115.993 142.572 116.219 141.931 116.446 141.251 116.559 140.609 116.559 140.081 116.559 139.401 116.446 138.759 116.219 138.117 115.993 137.589 115.578 137.022 115.049 136.494 114.483 136.154 113.954 135.852 113.312 135.626 112.633 135.512 112.104 135.512 111.462 135.512 110.141 136.041 108.744 137.022 107.876 138.004 106.894 139.326 106.328 140.609 106.328Z" fill="#FFFFFF"/><path d="M41.502 164.168C43.8806 167.34 46.599 170.473 49.5061 173.418 52.451 176.326 55.5847 179.044 58.8694 181.422L181.422 58.7561C179.044 55.5092 176.326 52.451 173.418 49.5061 170.473 46.599 167.415 43.8806 164.168 41.502L41.502 164.168Z" fill="#FF0000"/></g></svg>