<svg width="1155" height="1155" xmlns="http://www.w3.org/2000/svg" xmlns:xlink="http://www.w3.org/1999/xlink" xml:space="preserve" overflow="hidden"><defs><clipPath id="clip0"><rect x="2907" y="409" width="1155" height="1155"/></clipPath></defs><g clip-path="url(#clip0)" transform="translate(-2907 -409)"><path d="M2928.5 989.5C2928.5 680.22 3179.22 429.5 3488.5 429.5 3797.78 429.5 4048.5 680.22 4048.5 989.5 4048.5 1298.78 3797.78 1549.5 3488.5 1549.5 3179.22 1549.5 2928.5 1298.78 2928.5 989.5Z" stroke="#FFFFFF" stroke-width="6.875" stroke-miterlimit="8" fill="#FFFFFF" fill-rule="evenodd"/><path d="M3094.66 1105.76 3099.59 1105.76 3099.59 1151.57C3099.59 1153.13 3100.37 1154.3 3101.14 1155.34 3102.18 1156.51 3103.74 1156.9 3104.91 1156.9L3145.79 1156.9C3148.51 1156.9 3150.72 1154.56 3150.72 1151.57L3150.72 1126.01 3293.86 1126.01 3293.86 1151.57C3293.86 1153.13 3294.25 1154.3 3295.42 1155.34 3296.2 1156.51 3297.62 1156.9 3298.79 1156.9L3339.8 1156.9C3342.4 1156.9 3344.99 1154.56 3344.99 1151.57L3344.99 1105.76 3349.92 1105.76 3349.92 1151.57C3349.92 1153.13 3350.31 1154.3 3351.35 1155.34 3352.52 1156.51 3353.69 1156.9 3355.11 1156.9L3395.73 1156.9C3398.72 1156.9 3401.05 1154.56 3401.05 1151.57L3401.05 1105.76 3416.5 1105.76 3416.5 956.782 3028.21 956.782 3028.21 1105.76 3043.65 1105.76 3043.65 1151.57C3043.65 1153.13 3043.91 1154.3 3045.08 1155.34 3046.25 1156.51 3047.42 1156.9 3048.84 1156.9L3089.46 1156.9C3090.89 1156.9 3092.06 1156.51 3093.23 1155.34 3094.4 1154.3 3094.66 1153.13 3094.66 1151.57L3094.66 1105.76ZM3268.29 1105.76 3176.28 1105.76 3176.28 1097.46 3268.29 1097.46 3268.29 1105.76ZM3125.15 1061.38 3125.15 1069.69 3058.97 1069.69 3058.97 1061.38 3125.15 1061.38Z" fill="#010101"/><path d="M3028.21 952.11 3416.5 952.11 3416.5 829.083C3416.5 825.968 3415.72 822.594 3414.55 819.609 3413.38 816.235 3411.18 813.25 3408.84 811.044 3406.25 808.319 3403.26 806.502 3400.28 804.944 3396.9 803.906 3393.92 803.517 3390.8 803.517L3053.78 803.517C3050.79 803.517 3047.68 803.906 3044.3 804.944 3041.32 806.502 3038.33 808.319 3035.74 811.044 3033.4 813.25 3031.19 816.235 3030.03 819.609 3028.99 822.594 3028.21 825.968 3028.21 829.083L3028.21 952.11Z" fill="#010101"/><path d="M3865.13 1156.77 3912.89 1156.77" stroke="#848484" stroke-width="2.59551" stroke-linejoin="round" fill="none"/><path d="M3912.89 1156.9C3917.69 1156.9 3921.58 1152.74 3921.58 1148.07" stroke="#848484" stroke-width="2.59551" stroke-linejoin="round" fill="none"/><path d="M3921.45 1148.07 3921.45 1109.79" stroke="#848484" stroke-width="2.59551" stroke-linejoin="round" fill="none"/><path d="M3921.45 1109.92C3926.9 1107.45 3930.67 1103.04 3932.48 1097.72 3934.43 1092.53 3933.65 1086.43 3931.06 1081.63" stroke="#848484" stroke-width="2.59551" stroke-linejoin="round" fill="none"/><path d="M3931.19 1081.76C3930.54 1080.98 3930.54 1080.07 3931.19 1079.29" stroke="#848484" stroke-width="2.59551" stroke-linejoin="round" fill="none"/><path d="M3930.93 1079.42C3933.91 1071.89 3936.25 1064.11 3936.64 1055.67" stroke="#848484" stroke-width="2.59551" stroke-linejoin="round" fill="none"/><path d="M3936.51 1055.8C3937.42 1050.87 3937.42 1046.2 3937.42 1041.4" stroke="#848484" stroke-width="2.59551" stroke-linejoin="round" fill="none"/><path d="M3933.26 1008.82C3930.67 1000.52 3924.18 994.157 3915.87 991.821" stroke="#848484" stroke-width="2.59551" stroke-linejoin="round" fill="none"/><path d="M3916 991.951C3915.09 991.951 3914.71 991.042 3914.32 990.264" stroke="#848484" stroke-width="2.59551" stroke-linejoin="round" fill="none"/><path d="M3914.45 990.393 3868.12 892.153" stroke="#848484" stroke-width="2.59551" stroke-linejoin="round" fill="none"/><path d="M3868.25 892.283C3865.26 885.924 3858.77 882.031 3851.63 882.031" stroke="#848484" stroke-width="2.59551" stroke-linejoin="round" fill="none"/><path d="M3851.76 882.031 3743.4 882.939" stroke="#848484" stroke-width="2.59551" stroke-linejoin="round" fill="none"/><path d="M3743.53 882.939 3635.17 882.031" stroke="#848484" stroke-width="2.59551" stroke-linejoin="round" fill="none"/><path d="M3635.3 882.031C3628.03 882.031 3621.54 885.924 3618.56 892.283" stroke="#848484" stroke-width="2.59551" stroke-linejoin="round" fill="none"/><path d="M3618.69 892.153 3572.75 990.393" stroke="#848484" stroke-width="2.59551" stroke-linejoin="round" fill="none"/><path d="M3572.88 990.264C3572.49 991.042 3571.58 991.951 3570.93 991.951" stroke="#848484" stroke-width="2.59551" stroke-linejoin="round" fill="none"/><path d="M3571.06 991.821C3562.62 994.157 3556.27 1000.52 3553.93 1008.82" stroke="#848484" stroke-width="2.59551" stroke-linejoin="round" fill="none"/><path d="M3554.06 1008.69C3550.94 1019.59 3549.39 1030.62 3549.39 1041.52" stroke="#848484" stroke-width="2.59551" stroke-linejoin="round" fill="none"/><path d="M3550.17 1055.67C3550.94 1064.11 3552.89 1071.89 3556.4 1079.42" stroke="#848484" stroke-width="2.59551" stroke-linejoin="round" fill="none"/><path d="M3556.27 1079.29C3556.91 1080.07 3556.91 1080.98 3556.27 1081.76" stroke="#848484" stroke-width="2.59551" stroke-linejoin="round" fill="none"/><path d="M3556.27 1081.63C3553.15 1086.43 3552.89 1092.53 3554.32 1097.72 3556.27 1103.04 3560.42 1107.45 3565.35 1109.92" stroke="#848484" stroke-width="2.59551" stroke-linejoin="round" fill="none"/><path d="M3565.22 1109.79 3565.22 1148.07" stroke="#848484" stroke-width="2.59551" stroke-linejoin="round" fill="none"/><path d="M3565.22 1148.07C3565.22 1152.74 3569.5 1156.9 3574.43 1156.9" stroke="#848484" stroke-width="2.59551" stroke-linejoin="round" fill="none"/><path d="M3574.3 1156.77 3621.93 1156.77" stroke="#848484" stroke-width="2.59551" stroke-linejoin="round" fill="none"/><path d="M3621.93 1156.9C3626.86 1156.9 3630.76 1152.74 3630.76 1148.07" stroke="#848484" stroke-width="2.59551" stroke-linejoin="round" fill="none"/><path d="M3630.63 1148.07 3630.63 1106.41" stroke="#848484" stroke-width="2.59551" stroke-linejoin="round" fill="none"/><path d="M3630.63 1106.41 3743.4 1106.41" stroke="#848484" stroke-width="2.59551" stroke-linejoin="round" fill="none"/><path d="M3743.4 1106.41 3856.18 1106.41" stroke="#848484" stroke-width="2.59551" stroke-linejoin="round" fill="none"/><path d="M3856.18 1106.41 3856.18 1148.07" stroke="#848484" stroke-width="2.59551" stroke-linejoin="round" fill="none"/><path d="M3856.18 1148.07C3856.18 1152.74 3860.2 1156.9 3865.26 1156.9" stroke="#848484" stroke-width="2.59551" stroke-linejoin="round" fill="none"/><path d="M3688.12 1068 3688.12 1051.91" stroke="#848484" stroke-width="2.59551" stroke-linejoin="round" fill="none"/><path d="M3688.12 1052.04C3688.12 1049.31 3690.32 1047.36 3693.18 1047.36" stroke="#848484" stroke-width="2.59551" stroke-linejoin="round" fill="none"/><path d="M3693.05 1047.36 3743.4 1047.36" stroke="#848484" stroke-width="2.59551" stroke-linejoin="round" fill="none"/><path d="M3743.4 1047.36 3794.14 1047.36" stroke="#848484" stroke-width="2.59551" stroke-linejoin="round" fill="none"/><path d="M3794.14 1047.36C3796.74 1047.36 3798.69 1049.31 3798.69 1052.04" stroke="#848484" stroke-width="2.59551" stroke-linejoin="round" fill="none"/><path d="M3798.56 1051.91 3798.56 1068" stroke="#848484" stroke-width="2.59551" stroke-linejoin="round" fill="none"/><path d="M3798.69 1068C3798.69 1070.85 3796.74 1073.06 3794.14 1073.06" stroke="#848484" stroke-width="2.59551" stroke-linejoin="round" fill="none"/><path d="M3794.14 1072.93 3743.4 1072.93" stroke="#848484" stroke-width="2.59551" stroke-linejoin="round" fill="none"/><path d="M3743.4 1072.93 3692.66 1072.93" stroke="#848484" stroke-width="2.59551" stroke-linejoin="round" fill="none"/><path d="M3692.79 1073.06C3690.32 1073.06 3688.12 1070.85 3688.12 1068" stroke="#848484" stroke-width="2.59551" stroke-linejoin="round" fill="none"/><path d="M3598.7 981.698 3632.31 905.001" stroke="#848484" stroke-width="2.59551" stroke-linejoin="round" fill="none"/><path d="M3632.18 905.131C3634 901.367 3637.76 898.512 3642.05 898.512" stroke="#848484" stroke-width="2.59551" stroke-linejoin="round" fill="none"/><path d="M3641.92 898.512 3743.53 899.421" stroke="#848484" stroke-width="2.59551" stroke-linejoin="round" fill="none"/><path d="M3743.4 899.421 3845.41 898.512" stroke="#848484" stroke-width="2.59551" stroke-linejoin="round" fill="none"/><path d="M3845.28 898.512C3849.43 898.512 3853.19 901.367 3854.75 905.131" stroke="#848484" stroke-width="2.59551" stroke-linejoin="round" fill="none"/><path d="M3854.62 905.001 3888.62 981.698" stroke="#848484" stroke-width="2.59551" stroke-linejoin="round" fill="none"/><path d="M3888.62 981.569C3889.27 983.515 3888.88 985.332 3887.84 987.019 3886.67 988.447 3885.12 989.225 3883.17 989.225" stroke="#848484" stroke-width="2.59551" stroke-linejoin="round" fill="none"/><path d="M3883.3 989.225C3836.71 984.813 3789.99 982.347 3743.4 982.737" stroke="#848484" stroke-width="2.59551" stroke-linejoin="round" fill="none"/><path d="M3743.53 982.737C3696.94 982.347 3650.22 984.813 3603.89 989.225" stroke="#848484" stroke-width="2.59551" stroke-linejoin="round" fill="none"/><path d="M3604.02 989.225C3602.08 989.225 3600.13 988.447 3599.09 987.019 3597.92 985.332 3597.92 983.515 3598.7 981.569" stroke="#848484" stroke-width="2.59551" stroke-linejoin="round" fill="none"/><path d="M3603.89 989.225C3650.22 984.813 3696.94 982.347 3743.53 982.737" stroke="#848484" stroke-width="2.59551" stroke-linejoin="round" fill="none"/><path d="M3743.4 982.737C3789.99 982.347 3836.71 984.813 3883.3 989.225" stroke="#848484" stroke-width="2.59551" stroke-linejoin="round" fill="none"/><path d="M3883.17 989.225C3885.12 989.225 3886.67 988.447 3887.84 987.019 3888.88 985.332 3889.27 983.515 3888.62 981.569" stroke="#848484" stroke-width="2.59551" stroke-linejoin="round" fill="none"/><path d="M3888.62 981.698 3854.62 905.001" stroke="#848484" stroke-width="2.59551" stroke-linejoin="round" fill="none"/><path d="M3854.75 905.131C3853.19 901.367 3849.43 898.512 3845.28 898.512" stroke="#848484" stroke-width="2.59551" stroke-linejoin="round" fill="none"/><path d="M3845.41 898.512 3743.4 899.421" stroke="#848484" stroke-width="2.59551" stroke-linejoin="round" fill="none"/><path d="M3743.53 899.421 3641.92 898.512" stroke="#848484" stroke-width="2.59551" stroke-linejoin="round" fill="none"/><path d="M3642.05 898.512C3637.76 898.512 3634 901.367 3632.18 905.131" stroke="#848484" stroke-width="2.59551" stroke-linejoin="round" fill="none"/><path d="M3632.31 905.001 3598.7 981.698" stroke="#848484" stroke-width="2.59551" stroke-linejoin="round" fill="none"/><path d="M3598.7 981.569C3597.92 983.515 3597.92 985.332 3599.09 987.019 3600.13 988.447 3602.08 989.225 3604.02 989.225" stroke="#848484" stroke-width="2.59551" stroke-linejoin="round" fill="none"/><path d="M3692.66 1072.93 3743.4 1072.93" stroke="#848484" stroke-width="2.59551" stroke-linejoin="round" fill="none"/><path d="M3743.4 1072.93 3794.14 1072.93" stroke="#848484" stroke-width="2.59551" stroke-linejoin="round" fill="none"/><path d="M3794.14 1073.06C3796.74 1073.06 3798.69 1070.85 3798.69 1068" stroke="#848484" stroke-width="2.59551" stroke-linejoin="round" fill="none"/><path d="M3798.56 1068 3798.56 1051.91" stroke="#848484" stroke-width="2.59551" stroke-linejoin="round" fill="none"/><path d="M3798.69 1052.04C3798.69 1049.31 3796.74 1047.36 3794.14 1047.36" stroke="#848484" stroke-width="2.59551" stroke-linejoin="round" fill="none"/><path d="M3794.14 1047.36 3743.4 1047.36" stroke="#848484" stroke-width="2.59551" stroke-linejoin="round" fill="none"/><path d="M3743.4 1047.36 3693.05 1047.36" stroke="#848484" stroke-width="2.59551" stroke-linejoin="round" fill="none"/><path d="M3693.18 1047.36C3690.32 1047.36 3688.12 1049.31 3688.12 1052.04" stroke="#848484" stroke-width="2.59551" stroke-linejoin="round" fill="none"/><path d="M3688.12 1051.91 3688.12 1068" stroke="#848484" stroke-width="2.59551" stroke-linejoin="round" fill="none"/><path d="M3688.12 1068C3688.12 1070.85 3690.32 1073.06 3692.79 1073.06" stroke="#848484" stroke-width="2.59551" stroke-linejoin="round" fill="none"/><path d="M3549.39 1041.4C3549.39 1046.2 3549.91 1050.87 3550.3 1055.8" stroke="#848484" stroke-width="2.59551" stroke-linejoin="round" fill="none"/><path d="M3937.42 1041.52C3937.42 1030.62 3935.86 1019.59 3933.13 1008.69" stroke="#848484" stroke-width="2.59551" stroke-linejoin="round" fill="none"/><path d="M3933.26 1008.82C3930.67 1000.52 3924.31 994.157 3916 991.951 3915.61 991.951 3915.22 991.561 3915.22 991.561 3914.83 991.172 3914.45 990.783 3914.45 990.393L3868.25 892.153C3865.26 886.184 3859.29 882.031 3852.54 882.031L3851.76 882.031 3851.37 882.031 3743.4 882.81 3635.56 882.031 3635.17 882.031 3634.78 882.031C3631.41 882.031 3628.03 882.81 3625.31 884.626 3622.32 886.962 3620.12 889.558 3618.56 892.153L3572.75 990.393C3572.36 991.172 3571.58 991.951 3570.93 991.951 3562.62 994.157 3556.27 1000.52 3553.93 1008.82 3549.78 1024.26 3548.35 1039.97 3550.17 1055.8 3550.94 1064.11 3552.89 1071.89 3556.27 1079.42 3556.66 1080.2 3556.66 1080.98 3556.27 1081.76 3554.71 1083.96 3553.93 1086.17 3553.54 1089.28 3553.15 1092.27 3553.54 1094.86 3554.32 1097.85 3555.49 1100.83 3556.91 1103.17 3558.86 1105.37 3560.68 1107.32 3563.01 1108.75 3565.22 1109.92L3565.22 1148.2C3565.22 1150.15 3566 1152.35 3567.82 1154.3 3569.76 1156.12 3571.97 1156.9 3574.3 1156.9L3621.93 1156.9C3626.86 1156.9 3630.63 1152.74 3630.63 1148.2L3630.63 1106.54 3743.4 1106.54 3856.31 1106.54 3856.31 1148.2C3856.31 1150.15 3856.96 1152.35 3858.9 1154.3 3860.72 1156.12 3863.05 1156.9 3865.26 1156.9L3913.02 1156.9C3914.83 1156.9 3917.17 1156.12 3918.99 1154.3 3920.16 1153.52 3920.54 1152.35 3920.93 1151.18 3921.58 1150.15 3921.58 1148.98 3921.58 1148.2L3921.58 1109.92C3923.92 1108.75 3926.13 1107.32 3928.07 1105.37 3929.89 1103.17 3931.84 1100.83 3932.48 1097.85 3933.65 1094.86 3933.65 1092.27 3933.26 1089.28 3933.26 1086.17 3932.22 1083.96 3931.06 1081.76 3930.67 1080.98 3930.67 1080.2 3931.06 1079.42 3934.04 1071.89 3936.25 1064.11 3936.64 1055.8 3938.58 1039.97 3937.42 1024.26 3933.26 1008.82ZM3641.92 898.512 3743.4 899.291 3845.41 898.512C3847.22 898.512 3849.17 898.902 3850.99 900.459 3852.8 901.627 3853.97 903.055 3854.75 905.001L3888.62 981.569C3888.88 983.126 3889.27 984.943 3887.84 987.019 3886.67 988.836 3884.86 989.225 3883.3 989.225 3836.71 984.683 3789.99 982.347 3743.4 982.737 3696.81 982.347 3650.22 984.683 3603.89 989.225 3602.47 989.225 3600.52 988.836 3599.09 987.019 3598.7 986.241 3598.31 984.943 3598.31 984.294 3597.92 983.126 3598.31 982.347 3598.7 981.569L3632.18 905.001C3632.83 903.055 3634.39 901.627 3636.21 900.459 3637.76 898.902 3639.97 898.512 3641.92 898.512ZM3688.12 1068.13 3688.12 1052.04C3688.12 1050.87 3688.51 1049.83 3689.67 1049.05 3690.32 1047.88 3691.88 1047.49 3693.05 1047.49L3743.4 1047.49 3794.14 1047.49C3795.18 1047.49 3796.35 1047.88 3797.52 1049.05 3797.91 1049.44 3798.3 1049.83 3798.3 1050.48 3798.56 1050.87 3798.56 1051.65 3798.56 1052.04L3798.56 1068.13C3798.56 1070.85 3796.74 1073.06 3794.14 1073.06L3743.4 1073.06 3692.66 1073.06C3690.32 1073.06 3688.12 1070.85 3688.12 1068.13Z" fill="#010101"/><path d="M3603.89 989.225C3650.22 984.813 3696.94 982.477 3743.53 982.866 3790.12 982.477 3836.71 984.813 3883.3 989.225 3884.86 989.225 3886.67 988.836 3887.84 987.019 3888.62 986.241 3888.88 985.073 3888.88 984.424 3888.88 983.256 3888.62 982.477 3888.62 981.698L3854.75 905.001C3853.97 903.055 3852.8 901.627 3850.99 900.459 3849.17 898.902 3847.22 898.512 3845.41 898.512L3743.53 899.291 3641.92 898.512C3639.97 898.512 3637.76 898.902 3636.21 900.459 3634.39 901.627 3632.83 903.055 3632.18 905.001L3598.7 981.698C3598.31 982.477 3597.92 983.256 3598.31 984.424 3598.31 985.073 3598.7 986.241 3599.09 987.019 3600.52 988.836 3602.47 989.225 3603.89 989.225Z" fill="#FEFEFE"/><path d="M3692.66 1073.06 3743.4 1073.06 3794.27 1073.06C3795.31 1073.06 3796.48 1072.67 3797.65 1071.5 3798.43 1070.46 3798.69 1069.3 3798.69 1068.13L3798.69 1052.04C3798.69 1051.65 3798.69 1050.87 3798.43 1050.48 3798.43 1049.7 3798.04 1049.31 3797.65 1048.92 3796.87 1048.14 3796.48 1047.75 3795.7 1047.75 3795.31 1047.36 3794.66 1047.36 3794.27 1047.36L3743.4 1047.36 3693.05 1047.36C3692.27 1047.36 3691.49 1047.36 3691.1 1047.75 3690.32 1047.75 3690.06 1048.14 3689.67 1048.92 3689.29 1049.31 3688.9 1049.7 3688.51 1050.48 3688.12 1050.87 3688.12 1051.65 3688.12 1052.04L3688.12 1068.13C3688.12 1070.85 3690.32 1073.06 3692.66 1073.06Z" fill="#FEFEFE"/><path d="M4059.53 986.63C4059.53 910.582 4044.48 835.831 4015.54 765.882 3986.6 695.933 3944.16 632.473 3890.83 579.135 3837.1 525.409 3773.51 482.842 3703.69 453.902 3633.74 425.092 3558.99 410.428 3483.33 410.428" stroke="#343434" stroke-width="2.59551" stroke-linejoin="round" fill="none"/><path d="M3014.32 1306.27 3033.53 1325.21" stroke="#010101" stroke-width="2.59551" stroke-linejoin="round" fill="none"/><path d="M3822.05 536.829 3803.1 517.492" stroke="#010101" stroke-width="2.59551" stroke-linejoin="round" fill="none"/><path d="M3047.03 1338.97 3065.84 1357.92" stroke="#010101" stroke-width="2.59551" stroke-linejoin="round" fill="none"/><path d="M3854.75 569.143 3835.41 550.196" stroke="#010101" stroke-width="2.59551" stroke-linejoin="round" fill="none"/><path d="M3079.34 1371.28 3098.55 1390.62" stroke="#010101" stroke-width="2.59551" stroke-linejoin="round" fill="none"/><path d="M3887.45 601.846 3868.12 582.899" stroke="#010101" stroke-width="2.59551" stroke-linejoin="round" fill="none"/><path d="M3112.04 1403.99 3131.25 1423.32" stroke="#010101" stroke-width="2.59551" stroke-linejoin="round" fill="none"/><path d="M3919.77 634.549 3900.82 615.213" stroke="#010101" stroke-width="2.59551" stroke-linejoin="round" fill="none"/><path d="M3144.75 1436.69 3163.57 1455.64" stroke="#010101" stroke-width="2.59551" stroke-linejoin="round" fill="none"/><path d="M3952.47 667.123 3933.52 647.916" stroke="#010101" stroke-width="2.59551" stroke-linejoin="round" fill="none"/><path d="M3483.72 410.428C3462.96 410.428 3441.16 411.466 3419.35 413.802 3397.68 416.397 3375.1 420.161 3352.13 425.352 3329.55 430.673 3306.71 437.421 3283.35 446.116 3260.51 454.681 3237.54 464.803 3214.96 476.483 3191.99 488.552 3169.92 502.438 3148.51 517.882 3126.71 533.325 3105.95 550.196 3086.09 569.013 3066.49 587.701 3048.07 608.075 3030.81 629.488 3013.93 651.291 2998.1 674.261 2984.22 698.399 2970.33 722.407 2958.26 747.584 2948.14 773.15 2938.02 798.715 2929.32 825.06 2922.96 851.274 2916.6 877.619 2912.45 904.352 2909.85 930.697 2907.13 956.911 2906.48 983.256 2907.52 1008.82 2908.3 1034.39 2910.89 1059.17 2915.05 1083.57 2919.2 1107.58 2924.78 1130.94 2931.66 1153.52 2938.41 1175.71 2946.32 1197.13 2955.28 1217.37 2963.97 1237.62 2973.7 1256.43 2984.22 1274.47 2994.34 1292.51 3006.41 1310.55 3019.13 1328.59 3032.36 1346.24 3047.03 1364.02 3062.73 1380.89 3078.95 1397.76 3096.21 1414.37 3115.42 1430.07 3134.11 1445.52 3154.48 1460.57 3175.89 1474.07 3197.7 1487.56 3220.67 1500.41 3244.68 1511.31 3269.07 1522.21 3294.25 1531.56 3320.2 1539.08 3346.16 1547 3373.15 1552.97 3400.28 1556.73 3427.66 1560.89 3455.56 1562.7 3483.33 1562.7 3510.71 1562.7 3538.62 1560.89 3566 1556.73 3592.99 1552.97 3620.12 1547 3646.07 1539.08 3672.28 1531.56 3697.46 1522.21 3721.6 1511.31 3745.61 1500.41 3768.58 1487.56 3790.51 1474.07 3811.92 1460.57 3832.17 1445.52 3851.37 1430.07 3870.19 1414.37 3887.45 1397.76 3903.54 1380.89 3919.38 1364.02 3934.04 1346.24 3947.15 1328.59 3960.39 1310.55 3971.94 1292.51 3982.19 1274.47 3992.7 1256.43 4002.43 1237.62 4011.52 1217.37 4020.08 1197.13 4028 1175.71 4034.75 1153.52 4041.5 1130.94 4047.21 1107.58 4051.36 1083.57 4055.38 1059.17 4058.11 1034.39 4059.15 1008.82 4059.92 983.256 4059.53 956.911 4056.94 930.697 4054.34 904.352 4049.8 877.619 4043.44 851.274 4036.95 825.06 4028.78 798.715 4018.66 773.15 4008.4 747.584 3996.46 722.407 3982.58 698.399 3968.56 674.261 3953.25 651.291 3935.86 629.488 3918.99 608.075 3900.17 587.701 3880.7 569.013 3861.11 550.196 3840.47 533.325 3818.67 517.882 3797.26 502.438 3774.94 488.552 3751.97 476.483 3729.52 464.803 3706.55 454.681 3683.58 446.116 3660.73 437.421 3637.76 430.673 3614.79 425.352 3592.34 420.161 3569.76 416.397 3547.96 413.802 3525.77 411.466 3504.36 410.428 3483.72 410.428ZM3158.24 1422.93C3155.65 1421.12 3152.92 1419.17 3150.72 1417.35 3148.12 1415.41 3145.4 1413.2 3142.8 1411.25L3131.12 1423.32 3112.04 1404.12 3122.17 1393.99C3119.83 1391.79 3117.63 1389.45 3115.03 1387.64 3112.69 1385.43 3110.49 1383.09 3108.28 1380.89L3098.42 1390.62 3079.34 1371.41 3089.07 1362.07C3086.87 1359.47 3084.53 1357.14 3082.72 1354.93 3080.38 1352.73 3078.17 1350 3076.36 1347.79L3065.72 1357.92 3047.03 1339.1 3058.58 1327.16C3056.76 1324.43 3054.81 1322.23 3052.61 1319.63 3050.79 1317.04 3048.84 1314.31 3047.03 1311.72L3033.4 1325.21 3014.32 1306.4 3031.19 1289.53C3016.53 1267.72 3003.03 1244.49 2991.74 1219.97 2980.06 1195.96 2970.33 1170.78 2962.41 1144.83 2954.5 1118.87 2948.92 1092.66 2944.76 1066.31 2941 1039.58 2939.18 1012.97 2939.18 986.63 2939.18 970.408 2939.44 954.316 2941 937.834 2942.56 921.223 2944.76 904.352 2948.14 887.352 2951.12 870.481 2955.28 853.61 2959.82 836.739 2964.62 819.739 2970.72 802.868 2977.08 786.257 2990.58 752.515 3007.19 719.812 3027.43 688.666 3048.07 657.39 3071.81 628.32 3098.03 601.716 3124.76 574.983 3154.09 551.364 3185.24 530.989 3216.51 510.744 3249.22 493.743 3282.57 480.247 3299.18 473.888 3316.05 468.307 3332.92 463.376 3349.92 458.444 3366.79 454.292 3383.66 451.307 3400.67 448.322 3417.54 446.116 3434.02 444.559 3450.63 443.131 3466.72 442.352 3482.94 442.352 3509.29 442.352 3535.89 444.169 3562.62 447.933 3589.23 452.085 3615.57 457.666 3641.53 465.582 3667.48 473.498 3692.66 483.232 3716.67 494.911 3741.07 506.591 3764.04 519.698 3786.36 534.363L3803.23 517.492 3822.05 536.699 3808.55 550.196C3811.14 552.012 3813.74 553.959 3816.47 555.776 3818.67 558.112 3821.27 559.929 3823.99 561.875L3835.54 550.196 3854.75 569.013 3844.63 579.525C3846.83 581.342 3849.17 583.678 3851.76 585.884 3853.97 588.09 3856.31 590.037 3858.51 592.243L3868.25 582.899 3887.45 601.716 3877.72 611.45C3879.93 613.656 3882.13 615.992 3884.08 618.587 3886.28 620.793 3888.62 623.129 3890.83 625.725L3900.95 615.213 3919.77 634.42 3908.09 646.359C3910.03 648.695 3912.24 651.291 3914.19 653.886 3916 656.611 3917.82 658.947 3919.77 661.543L3933.65 647.916 3952.47 667.123 3935.6 684.124C3950.26 705.926 3963.37 729.156 3975.05 753.294 3986.34 777.692 3996.07 802.479 4003.99 828.434 4011.78 854.389 4017.88 880.603 4021.64 906.948 4025.79 933.682 4027.61 960.285 4027.61 986.63 4027.61 1002.46 4026.83 1018.94 4025.4 1035.43 4023.85 1052.04 4021.64 1068.52 4018.27 1085.52 4015.28 1102.39 4011.52 1119.26 4006.59 1136.26 4001.65 1153.13 3996.07 1170 3989.33 1187 3976.09 1220.36 3959.22 1253.06 3938.97 1284.33 3918.6 1315.48 3894.98 1344.81 3868.25 1371.41 3841.64 1398.15 3812.31 1421.77 3780.91 1442.14 3750.15 1462.39 3717.45 1479.39 3683.58 1492.49 3667.09 1499.24 3650.22 1504.82 3633.22 1509.75 3616.35 1514.69 3599.48 1518.45 3582.48 1521.82 3565.61 1524.81 3549.13 1527.01 3532.52 1528.57 3516.04 1530.13 3499.42 1530.78 3483.72 1530.78 3456.99 1530.78 3430.25 1528.96 3404.04 1524.81 3377.31 1521.04 3350.96 1515.07 3325.14 1507.16 3299.18 1499.63 3274.39 1489.9 3249.87 1478.22 3225.47 1466.54 3202.63 1453.43 3180.44 1438.77L3163.44 1455.64 3144.75 1436.82 3158.24 1422.93Z" fill="#010101"/><path d="M3808.55 550.325 3822.05 536.699 3803.23 517.492 3786.23 534.363C3790.12 536.958 3793.88 539.814 3797.65 542.409 3801.41 545.005 3804.79 547.73 3808.55 550.325Z" fill="#010101"/><path d="M3844.63 579.655 3854.75 569.013 3835.54 550.196 3823.86 561.875C3827.37 564.86 3830.74 567.456 3834.5 570.441 3837.88 573.425 3841.25 576.67 3844.63 579.655Z" fill="#010101"/><path d="M3877.59 611.579 3887.45 601.846 3868.12 582.899 3858.38 592.243C3861.76 595.617 3865.13 598.732 3868.12 601.846 3871.1 605.22 3874.47 608.205 3877.59 611.579Z" fill="#010101"/><path d="M3907.96 646.489 3919.77 634.549 3900.82 615.213 3890.7 625.855C3893.68 629.229 3896.28 632.603 3899.39 635.977 3902.38 639.351 3904.97 642.725 3907.96 646.489Z" fill="#010101"/><path d="M3919.64 661.413C3922.62 665.177 3925.22 668.94 3927.94 672.703 3930.54 676.597 3932.87 680.36 3935.6 684.124L3952.47 666.993 3933.65 647.916 3919.64 661.413Z" fill="#010101"/><path d="M3158.37 1422.8 3144.75 1436.69 3163.57 1455.64 3180.57 1438.64C3176.8 1436.3 3173.04 1433.71 3169.67 1431.11 3165.9 1428.51 3162.14 1425.79 3158.37 1422.8Z" fill="#010101"/><path d="M3122.3 1393.86 3112.04 1403.99 3131.25 1423.32 3142.93 1411.12C3139.56 1408.53 3136.18 1405.54 3132.81 1402.56 3129.05 1399.57 3125.67 1396.85 3122.3 1393.86Z" fill="#010101"/><path d="M3108.41 1380.89C3105.04 1377.9 3101.92 1374.79 3098.55 1371.41 3095.56 1368.43 3092.19 1364.92 3089.2 1361.94L3079.34 1371.41 3098.55 1390.62 3108.41 1380.89Z" fill="#010101"/><path d="M3058.58 1327.03 3047.03 1338.97 3065.84 1357.92 3076.49 1347.79C3073.37 1344.42 3070.39 1341.05 3067.4 1337.54 3064.29 1334.17 3061.69 1330.4 3058.58 1327.03Z" fill="#010101"/><path d="M3047.16 1311.72C3044.04 1308.34 3041.45 1304.58 3038.85 1300.82 3036.26 1296.92 3033.92 1293.16 3031.32 1289.4L3014.32 1306.4 3033.53 1325.21 3047.16 1311.72Z" fill="#010101"/><path d="M3808.55 550.325C3801.41 544.615 3793.88 539.424 3786.23 534.363" stroke="#010101" stroke-width="2.59551" stroke-linejoin="round" fill="none"/><path d="M3844.63 579.655C3837.75 573.425 3831 567.456 3823.86 561.875" stroke="#010101" stroke-width="2.59551" stroke-linejoin="round" fill="none"/><path d="M3877.72 611.579C3871.62 605.22 3865.26 598.732 3858.38 592.243" stroke="#010101" stroke-width="2.59551" stroke-linejoin="round" fill="none"/><path d="M3908.09 646.489C3902.51 639.351 3896.41 632.603 3890.7 625.725" stroke="#010101" stroke-width="2.59551" stroke-linejoin="round" fill="none"/><path d="M3935.6 684.124C3930.54 676.597 3925.22 669.07 3919.64 661.413" stroke="#010101" stroke-width="2.59551" stroke-linejoin="round" fill="none"/><path d="M3031.19 1289.4C3036.13 1296.92 3041.45 1304.58 3047.16 1311.72" stroke="#010101" stroke-width="2.59551" stroke-linejoin="round" fill="none"/><path d="M3058.58 1327.03C3064.29 1334.3 3070.26 1341.05 3076.49 1347.79" stroke="#010101" stroke-width="2.59551" stroke-linejoin="round" fill="none"/><path d="M3089.07 1361.94C3095.43 1368.43 3101.66 1374.79 3108.41 1380.89" stroke="#010101" stroke-width="2.59551" stroke-linejoin="round" fill="none"/><path d="M3122.17 1393.86C3128.92 1399.96 3136.05 1405.67 3142.93 1411.25" stroke="#010101" stroke-width="2.59551" stroke-linejoin="round" fill="none"/><path d="M3158.24 1422.8C3165.77 1428.51 3173.04 1433.84 3180.57 1438.77" stroke="#010101" stroke-width="2.59551" stroke-linejoin="round" fill="none"/><path d="M3483.46 442.352C3411.57 442.352 3340.84 456.238 3274.78 483.621 3208.99 511.133 3148.77 550.974 3098.42 601.716 3047.68 652.069 3007.84 712.155 2980.45 778.341 2953.07 844.137 2939.18 915.253 2939.18 986.63" stroke="#010101" stroke-width="2.59551" stroke-linejoin="round" fill="none"/><path d="M2939.18 986.5C2939.18 1057.88 2953.07 1128.6 2980.45 1194.66 3007.84 1260.84 3047.68 1320.54 3098.42 1371.28 3148.77 1421.77 3208.99 1462 3274.78 1489.51 3340.84 1516.5 3411.57 1530.78 3483.46 1530.78" stroke="#010101" stroke-width="2.59551" stroke-linejoin="round" fill="none"/><path d="" stroke="#010101" stroke-width="2.59551" stroke-linejoin="round" fill="none"/><path d="M3483.33 1530.78C3554.71 1530.78 3625.31 1516.5 3691.49 1489.51 3757.29 1462 3817.37 1421.77 3868.12 1371.28 3918.47 1320.54 3958.7 1260.84 3985.95 1194.66 4013.33 1128.6 4027.61 1057.88 4027.61 986.5" stroke="#010101" stroke-width="2.59551" stroke-linejoin="round" fill="none"/><path d="" stroke="#010101" stroke-width="2.59551" stroke-linejoin="round" fill="none"/><path d="" stroke="#010101" stroke-width="2.59551" stroke-linejoin="round" fill="none"/><path d="M3041.71 1314.7 3820.88 535.531 3807.38 522.034 3798.04 531.378 3028.21 1301.21C3032.75 1305.75 3037.16 1310.16 3041.71 1314.7Z" fill="#010101"/><path d="M3073.24 1346.24 3073.63 1346.24 3852.8 567.066 3839.31 553.57 3829.57 563.303 3060.13 1332.74C3064.29 1337.28 3068.83 1341.82 3073.24 1346.24Z" fill="#010101"/><path d="M3105.3 1378.29 3884.47 598.602 3870.84 585.105 3861.11 594.838 3091.67 1364.28C3096.21 1369.21 3100.75 1373.75 3105.3 1378.29Z" fill="#010101"/><path d="M3136.83 1409.83 3916 630.656 3902.51 617.03 3892.64 626.503 3123.34 1396.33C3127.75 1400.74 3132.29 1405.28 3136.83 1409.83Z" fill="#010101"/><path d="M3168.37 1441.36 3947.93 662.192 3934.43 648.695 3924.7 658.428 3155.26 1427.87C3159.41 1432.41 3163.83 1436.82 3168.37 1441.36Z" fill="#010101"/></g></svg>