<svg width="286" height="287" xmlns="http://www.w3.org/2000/svg" xmlns:xlink="http://www.w3.org/1999/xlink" xml:space="preserve" overflow="hidden"><g transform="translate(-2057 -1094)"><path d="M2069.5 1238C2069.5 1163.17 2128.15 1102.5 2200.5 1102.5 2272.85 1102.5 2331.5 1163.17 2331.5 1238 2331.5 1312.83 2272.85 1373.5 2200.5 1373.5 2128.15 1373.5 2069.5 1312.83 2069.5 1238Z" stroke="#FFFFFF" stroke-width="6.875" stroke-miterlimit="8" fill="#FFFFFF" fill-rule="evenodd"/><path d="M237.444 185.129 249.27 185.129" stroke="#848484" stroke-width="0.642697" stroke-linejoin="round" fill="none" transform="matrix(1 0 0 1.0035 2057 1094)"/><path d="M249.27 185.161C250.491 185.161 251.519 184.1 251.519 182.976" stroke="#848484" stroke-width="0.642697" stroke-linejoin="round" fill="none" transform="matrix(1 0 0 1.0035 2057 1094)"/><path d="M251.487 182.976 251.487 173.496" stroke="#848484" stroke-width="0.642697" stroke-linejoin="round" fill="none" transform="matrix(1 0 0 1.0035 2057 1094)"/><path d="M251.487 173.528C252.708 172.982 253.737 171.857 254.219 170.54 254.604 169.222 254.508 167.712 253.737 166.523" stroke="#848484" stroke-width="0.642697" stroke-linejoin="round" fill="none" transform="matrix(1 0 0 1.0035 2057 1094)"/><path d="M253.769 166.555C253.608 166.362 253.608 166.137 253.769 165.944" stroke="#848484" stroke-width="0.642697" stroke-linejoin="round" fill="none" transform="matrix(1 0 0 1.0035 2057 1094)"/><path d="M253.737 165.976C254.604 164.113 255.054 162.152 255.247 160.096" stroke="#848484" stroke-width="0.642697" stroke-linejoin="round" fill="none" transform="matrix(1 0 0 1.0035 2057 1094)"/><path d="M255.215 160.128C255.343 158.907 255.472 157.782 255.472 156.561" stroke="#848484" stroke-width="0.642697" stroke-linejoin="round" fill="none" transform="matrix(1 0 0 1.0035 2057 1094)"/><path d="M254.315 148.591C253.769 146.406 252.162 144.832 250.105 144.285" stroke="#848484" stroke-width="0.642697" stroke-linejoin="round" fill="none" transform="matrix(1 0 0 1.0035 2057 1094)"/><path d="M250.138 144.318C249.945 144.318 249.752 144.125 249.623 143.9" stroke="#848484" stroke-width="0.642697" stroke-linejoin="round" fill="none" transform="matrix(1 0 0 1.0035 2057 1094)"/><path d="M249.656 143.932 238.28 119.606" stroke="#848484" stroke-width="0.642697" stroke-linejoin="round" fill="none" transform="matrix(1 0 0 1.0035 2057 1094)"/><path d="M238.312 119.638C237.573 118.031 235.87 117.099 234.167 117.099" stroke="#848484" stroke-width="0.642697" stroke-linejoin="round" fill="none" transform="matrix(1 0 0 1.0035 2057 1094)"/><path d="M234.199 117.099 207.366 117.324" stroke="#848484" stroke-width="0.642697" stroke-linejoin="round" fill="none" transform="matrix(1 0 0 1.0035 2057 1094)"/><path d="M207.398 117.324 180.566 117.099" stroke="#848484" stroke-width="0.642697" stroke-linejoin="round" fill="none" transform="matrix(1 0 0 1.0035 2057 1094)"/><path d="M180.598 117.099C178.798 117.099 177.224 118.031 176.484 119.638" stroke="#848484" stroke-width="0.642697" stroke-linejoin="round" fill="none" transform="matrix(1 0 0 1.0035 2057 1094)"/><path d="M176.517 119.606 165.044 143.932" stroke="#848484" stroke-width="0.642697" stroke-linejoin="round" fill="none" transform="matrix(1 0 0 1.0035 2057 1094)"/><path d="M165.077 143.9C164.98 144.125 164.852 144.318 164.659 144.318" stroke="#848484" stroke-width="0.642697" stroke-linejoin="round" fill="none" transform="matrix(1 0 0 1.0035 2057 1094)"/><path d="M164.691 144.285C162.634 144.832 160.931 146.406 160.385 148.591" stroke="#848484" stroke-width="0.642697" stroke-linejoin="round" fill="none" transform="matrix(1 0 0 1.0035 2057 1094)"/><path d="M160.417 148.559C159.678 151.162 159.357 153.894 159.26 156.593" stroke="#848484" stroke-width="0.642697" stroke-linejoin="round" fill="none" transform="matrix(1 0 0 1.0035 2057 1094)"/><path d="M159.549 160.096C159.646 162.152 160.192 164.113 160.963 165.976" stroke="#848484" stroke-width="0.642697" stroke-linejoin="round" fill="none" transform="matrix(1 0 0 1.0035 2057 1094)"/><path d="M160.931 165.944C161.06 166.137 161.06 166.362 160.931 166.555" stroke="#848484" stroke-width="0.642697" stroke-linejoin="round" fill="none" transform="matrix(1 0 0 1.0035 2057 1094)"/><path d="M160.963 166.523C160.289 167.712 160.096 169.222 160.578 170.54 160.963 171.857 161.992 172.982 163.309 173.528" stroke="#848484" stroke-width="0.642697" stroke-linejoin="round" fill="none" transform="matrix(1 0 0 1.0035 2057 1094)"/><path d="M163.277 173.496 163.277 182.976" stroke="#848484" stroke-width="0.642697" stroke-linejoin="round" fill="none" transform="matrix(1 0 0 1.0035 2057 1094)"/><path d="M163.277 182.976C163.277 184.1 164.241 185.161 165.43 185.161" stroke="#848484" stroke-width="0.642697" stroke-linejoin="round" fill="none" transform="matrix(1 0 0 1.0035 2057 1094)"/><path d="M165.398 185.129 177.224 185.129" stroke="#848484" stroke-width="0.642697" stroke-linejoin="round" fill="none" transform="matrix(1 0 0 1.0035 2057 1094)"/><path d="M177.224 185.161C178.445 185.161 179.505 184.1 179.505 182.976" stroke="#848484" stroke-width="0.642697" stroke-linejoin="round" fill="none" transform="matrix(1 0 0 1.0035 2057 1094)"/><path d="M179.473 182.976 179.473 172.66" stroke="#848484" stroke-width="0.642697" stroke-linejoin="round" fill="none" transform="matrix(1 0 0 1.0035 2057 1094)"/><path d="M179.473 172.66 207.366 172.66" stroke="#848484" stroke-width="0.642697" stroke-linejoin="round" fill="none" transform="matrix(1 0 0 1.0035 2057 1094)"/><path d="M207.366 172.66 235.195 172.66" stroke="#848484" stroke-width="0.642697" stroke-linejoin="round" fill="none" transform="matrix(1 0 0 1.0035 2057 1094)"/><path d="M235.195 172.66 235.195 182.976" stroke="#848484" stroke-width="0.642697" stroke-linejoin="round" fill="none" transform="matrix(1 0 0 1.0035 2057 1094)"/><path d="M235.195 182.976C235.195 184.1 236.223 185.161 237.476 185.161" stroke="#848484" stroke-width="0.642697" stroke-linejoin="round" fill="none" transform="matrix(1 0 0 1.0035 2057 1094)"/><path d="M193.709 163.181 193.709 159.164" stroke="#848484" stroke-width="0.642697" stroke-linejoin="round" fill="none" transform="matrix(1 0 0 1.0035 2057 1094)"/><path d="M193.709 159.196C193.709 158.65 194.159 158.039 194.866 158.039" stroke="#848484" stroke-width="0.642697" stroke-linejoin="round" fill="none" transform="matrix(1 0 0 1.0035 2057 1094)"/><path d="M194.833 158.039 207.366 158.039" stroke="#848484" stroke-width="0.642697" stroke-linejoin="round" fill="none" transform="matrix(1 0 0 1.0035 2057 1094)"/><path d="M207.366 158.039 219.867 158.039" stroke="#848484" stroke-width="0.642697" stroke-linejoin="round" fill="none" transform="matrix(1 0 0 1.0035 2057 1094)"/><path d="M219.867 158.039C220.509 158.039 221.088 158.65 221.088 159.196" stroke="#848484" stroke-width="0.642697" stroke-linejoin="round" fill="none" transform="matrix(1 0 0 1.0035 2057 1094)"/><path d="M221.055 159.164 221.055 163.181" stroke="#848484" stroke-width="0.642697" stroke-linejoin="round" fill="none" transform="matrix(1 0 0 1.0035 2057 1094)"/><path d="M221.088 163.181C221.088 163.823 220.509 164.402 219.867 164.402" stroke="#848484" stroke-width="0.642697" stroke-linejoin="round" fill="none" transform="matrix(1 0 0 1.0035 2057 1094)"/><path d="M219.867 164.37 207.366 164.37" stroke="#848484" stroke-width="0.642697" stroke-linejoin="round" fill="none" transform="matrix(1 0 0 1.0035 2057 1094)"/><path d="M207.366 164.37 194.833 164.37" stroke="#848484" stroke-width="0.642697" stroke-linejoin="round" fill="none" transform="matrix(1 0 0 1.0035 2057 1094)"/><path d="M194.866 164.402C194.159 164.402 193.709 163.823 193.709 163.181" stroke="#848484" stroke-width="0.642697" stroke-linejoin="round" fill="none" transform="matrix(1 0 0 1.0035 2057 1094)"/><path d="M171.471 141.811 179.859 122.787" stroke="#848484" stroke-width="0.642697" stroke-linejoin="round" fill="none" transform="matrix(1 0 0 1.0035 2057 1094)"/><path d="M179.827 122.819C180.212 121.855 181.144 121.213 182.204 121.213" stroke="#848484" stroke-width="0.642697" stroke-linejoin="round" fill="none" transform="matrix(1 0 0 1.0035 2057 1094)"/><path d="M182.172 121.213 207.398 121.405" stroke="#848484" stroke-width="0.642697" stroke-linejoin="round" fill="none" transform="matrix(1 0 0 1.0035 2057 1094)"/><path d="M207.366 121.405 232.528 121.213" stroke="#848484" stroke-width="0.642697" stroke-linejoin="round" fill="none" transform="matrix(1 0 0 1.0035 2057 1094)"/><path d="M232.495 121.213C233.524 121.213 234.488 121.855 234.97 122.819" stroke="#848484" stroke-width="0.642697" stroke-linejoin="round" fill="none" transform="matrix(1 0 0 1.0035 2057 1094)"/><path d="M234.938 122.787 243.229 141.811" stroke="#848484" stroke-width="0.642697" stroke-linejoin="round" fill="none" transform="matrix(1 0 0 1.0035 2057 1094)"/><path d="M243.229 141.779C243.421 142.229 243.421 142.679 243.132 143.096 242.875 143.482 242.361 143.643 241.911 143.643" stroke="#848484" stroke-width="0.642697" stroke-linejoin="round" fill="none" transform="matrix(1 0 0 1.0035 2057 1094)"/><path d="M241.943 143.643C230.503 142.518 218.935 141.94 207.366 142.036" stroke="#848484" stroke-width="0.642697" stroke-linejoin="round" fill="none" transform="matrix(1 0 0 1.0035 2057 1094)"/><path d="M207.398 142.036C195.862 141.94 184.293 142.518 172.757 143.643" stroke="#848484" stroke-width="0.642697" stroke-linejoin="round" fill="none" transform="matrix(1 0 0 1.0035 2057 1094)"/><path d="M172.789 143.643C172.339 143.643 171.953 143.482 171.632 143.096 171.375 142.679 171.279 142.229 171.471 141.779" stroke="#848484" stroke-width="0.642697" stroke-linejoin="round" fill="none" transform="matrix(1 0 0 1.0035 2057 1094)"/><path d="M172.757 143.643C184.293 142.518 195.862 141.94 207.398 142.036" stroke="#848484" stroke-width="0.642697" stroke-linejoin="round" fill="none" transform="matrix(1 0 0 1.0035 2057 1094)"/><path d="M207.366 142.036C218.935 141.94 230.503 142.518 241.943 143.643" stroke="#848484" stroke-width="0.642697" stroke-linejoin="round" fill="none" transform="matrix(1 0 0 1.0035 2057 1094)"/><path d="M241.911 143.643C242.361 143.643 242.875 143.482 243.132 143.096 243.421 142.679 243.421 142.229 243.229 141.779" stroke="#848484" stroke-width="0.642697" stroke-linejoin="round" fill="none" transform="matrix(1 0 0 1.0035 2057 1094)"/><path d="M243.229 141.811 234.938 122.787" stroke="#848484" stroke-width="0.642697" stroke-linejoin="round" fill="none" transform="matrix(1 0 0 1.0035 2057 1094)"/><path d="M234.97 122.819C234.488 121.855 233.524 121.213 232.495 121.213" stroke="#848484" stroke-width="0.642697" stroke-linejoin="round" fill="none" transform="matrix(1 0 0 1.0035 2057 1094)"/><path d="M232.528 121.213 207.366 121.405" stroke="#848484" stroke-width="0.642697" stroke-linejoin="round" fill="none" transform="matrix(1 0 0 1.0035 2057 1094)"/><path d="M207.398 121.405 182.172 121.213" stroke="#848484" stroke-width="0.642697" stroke-linejoin="round" fill="none" transform="matrix(1 0 0 1.0035 2057 1094)"/><path d="M182.204 121.213C181.144 121.213 180.212 121.855 179.827 122.819" stroke="#848484" stroke-width="0.642697" stroke-linejoin="round" fill="none" transform="matrix(1 0 0 1.0035 2057 1094)"/><path d="M179.859 122.787 171.471 141.811" stroke="#848484" stroke-width="0.642697" stroke-linejoin="round" fill="none" transform="matrix(1 0 0 1.0035 2057 1094)"/><path d="M171.471 141.779C171.279 142.229 171.375 142.679 171.632 143.096 171.953 143.482 172.339 143.643 172.789 143.643" stroke="#848484" stroke-width="0.642697" stroke-linejoin="round" fill="none" transform="matrix(1 0 0 1.0035 2057 1094)"/><path d="M194.833 164.37 207.366 164.37" stroke="#848484" stroke-width="0.642697" stroke-linejoin="round" fill="none" transform="matrix(1 0 0 1.0035 2057 1094)"/><path d="M207.366 164.37 219.867 164.37" stroke="#848484" stroke-width="0.642697" stroke-linejoin="round" fill="none" transform="matrix(1 0 0 1.0035 2057 1094)"/><path d="M219.867 164.402C220.509 164.402 221.088 163.823 221.088 163.181" stroke="#848484" stroke-width="0.642697" stroke-linejoin="round" fill="none" transform="matrix(1 0 0 1.0035 2057 1094)"/><path d="M221.055 163.181 221.055 159.164" stroke="#848484" stroke-width="0.642697" stroke-linejoin="round" fill="none" transform="matrix(1 0 0 1.0035 2057 1094)"/><path d="M221.088 159.196C221.088 158.65 220.509 158.039 219.867 158.039" stroke="#848484" stroke-width="0.642697" stroke-linejoin="round" fill="none" transform="matrix(1 0 0 1.0035 2057 1094)"/><path d="M219.867 158.039 207.366 158.039" stroke="#848484" stroke-width="0.642697" stroke-linejoin="round" fill="none" transform="matrix(1 0 0 1.0035 2057 1094)"/><path d="M207.366 158.039 194.833 158.039" stroke="#848484" stroke-width="0.642697" stroke-linejoin="round" fill="none" transform="matrix(1 0 0 1.0035 2057 1094)"/><path d="M194.866 158.039C194.159 158.039 193.709 158.65 193.709 159.196" stroke="#848484" stroke-width="0.642697" stroke-linejoin="round" fill="none" transform="matrix(1 0 0 1.0035 2057 1094)"/><path d="M193.709 159.164 193.709 163.181" stroke="#848484" stroke-width="0.642697" stroke-linejoin="round" fill="none" transform="matrix(1 0 0 1.0035 2057 1094)"/><path d="M193.709 163.181C193.709 163.823 194.159 164.402 194.866 164.402" stroke="#848484" stroke-width="0.642697" stroke-linejoin="round" fill="none" transform="matrix(1 0 0 1.0035 2057 1094)"/><path d="M159.26 156.561C159.26 157.782 159.357 158.907 159.582 160.128" stroke="#848484" stroke-width="0.642697" stroke-linejoin="round" fill="none" transform="matrix(1 0 0 1.0035 2057 1094)"/><path d="M255.44 156.593C255.44 153.894 255.054 151.162 254.283 148.559" stroke="#848484" stroke-width="0.642697" stroke-linejoin="round" fill="none" transform="matrix(1 0 0 1.0035 2057 1094)"/><path d="M254.315 148.591C253.769 146.406 252.162 144.832 250.138 144.285 250.041 144.285 249.945 144.189 249.848 144.189 249.752 144.093 249.752 143.996 249.656 143.9L238.312 119.606C237.573 118.128 235.998 117.099 234.295 117.099L234.199 117.099 234.134 117.099 207.366 117.292 180.566 117.099 180.405 117.099C179.634 117.099 178.798 117.292 178.059 117.742 177.32 118.32 176.774 118.963 176.484 119.606L165.044 143.9C164.948 144.093 164.852 144.285 164.659 144.285 162.634 144.832 160.931 146.406 160.385 148.591 159.357 152.319 159.067 156.207 159.549 160.128 159.646 162.184 160.192 164.145 160.931 165.976 161.028 166.169 161.028 166.362 160.931 166.555 160.674 167.101 160.385 167.744 160.289 168.419 160.289 169.158 160.289 169.8 160.578 170.54 160.771 171.311 161.124 171.857 161.702 172.403 162.152 172.885 162.699 173.239 163.277 173.528L163.277 183.008C163.277 183.49 163.47 184.036 163.92 184.518 164.305 184.968 164.948 185.161 165.398 185.161L177.224 185.161C178.445 185.161 179.473 184.133 179.473 183.008L179.473 172.693 207.366 172.693 235.227 172.693 235.227 183.008C235.227 183.49 235.516 184.036 235.902 184.518 236.352 184.968 236.898 185.161 237.476 185.161L249.302 185.161C249.848 185.161 250.395 184.968 250.877 184.518 251.069 184.325 251.23 184.036 251.327 183.779 251.423 183.49 251.519 183.201 251.519 183.008L251.519 173.528C252.098 173.239 252.644 172.885 253.094 172.403 253.576 171.857 253.929 171.311 254.219 170.54 254.411 169.8 254.508 169.158 254.411 168.419 254.315 167.744 254.122 167.101 253.769 166.555 253.672 166.362 253.672 166.169 253.769 165.976 254.604 164.145 255.054 162.184 255.247 160.128 255.697 156.207 255.343 152.319 254.315 148.591ZM182.172 121.213 207.366 121.373 232.528 121.213C233.01 121.213 233.556 121.373 233.942 121.662 234.391 121.952 234.777 122.305 234.97 122.787L243.229 141.779C243.421 142.132 243.421 142.614 243.132 143.064 242.779 143.546 242.297 143.611 241.943 143.611 230.503 142.518 218.935 141.94 207.366 142.036 195.83 141.94 184.293 142.518 172.757 143.611 172.403 143.611 171.921 143.546 171.632 143.064 171.471 142.871 171.375 142.614 171.375 142.422 171.375 142.132 171.375 141.94 171.471 141.779L179.827 122.787C180.019 122.305 180.309 121.952 180.758 121.662 181.24 121.373 181.69 121.213 182.172 121.213ZM193.709 163.213 193.709 159.196C193.709 158.907 193.805 158.65 193.966 158.457 194.255 158.168 194.544 158.071 194.833 158.071L207.366 158.071 219.867 158.071C220.124 158.071 220.509 158.168 220.702 158.457 220.766 158.553 220.863 158.65 220.959 158.81 220.959 158.907 221.055 159.1 221.055 159.196L221.055 163.213C221.055 163.855 220.509 164.402 219.867 164.402L207.366 164.402 194.833 164.402C194.159 164.402 193.709 163.855 193.709 163.213Z" fill="#010101" transform="matrix(1 0 0 1.0035 2057 1094)"/><path d="M172.757 143.643C184.293 142.55 195.862 141.972 207.398 142.068 218.967 141.972 230.503 142.55 241.943 143.643 242.297 143.643 242.779 143.578 243.132 143.096 243.229 142.904 243.325 142.647 243.325 142.454 243.325 142.164 243.325 141.972 243.229 141.811L234.97 122.787C234.777 122.305 234.391 121.952 233.942 121.662 233.556 121.373 233.01 121.213 232.528 121.213L207.398 121.373 182.172 121.213C181.69 121.213 181.24 121.373 180.758 121.662 180.309 121.952 180.019 122.305 179.827 122.787L171.471 141.811C171.375 141.972 171.375 142.164 171.375 142.454 171.375 142.647 171.471 142.904 171.632 143.096 171.921 143.578 172.403 143.643 172.757 143.643Z" fill="#FEFEFE" transform="matrix(1 0 0 1.0035 2057 1094)"/><path d="M194.833 164.402 207.366 164.402 219.899 164.402C220.156 164.402 220.541 164.305 220.734 164.048 220.991 163.855 221.088 163.47 221.088 163.213L221.088 159.164C221.088 159.067 220.991 158.875 220.991 158.778 220.895 158.618 220.798 158.521 220.734 158.425 220.638 158.232 220.445 158.135 220.349 158.135 220.156 158.039 220.059 158.039 219.899 158.039L207.366 158.039 194.833 158.039C194.737 158.039 194.544 158.039 194.351 158.135 194.255 158.135 194.062 158.232 193.966 158.425 193.902 158.521 193.805 158.618 193.709 158.778 193.709 158.875 193.709 159.067 193.709 159.164L193.709 163.213C193.709 163.855 194.159 164.402 194.833 164.402Z" fill="#FEFEFE" transform="matrix(1 0 0 1.0035 2057 1094)"/><path d="M108.102 185.129 119.895 185.129" stroke="#848484" stroke-width="0.642697" stroke-linejoin="round" fill="none" transform="matrix(1 0 0 1.0035 2057 1094)"/><path d="M119.895 185.161C121.116 185.161 122.08 184.1 122.08 182.976" stroke="#848484" stroke-width="0.642697" stroke-linejoin="round" fill="none" transform="matrix(1 0 0 1.0035 2057 1094)"/><path d="M122.048 182.976 122.048 173.496" stroke="#848484" stroke-width="0.642697" stroke-linejoin="round" fill="none" transform="matrix(1 0 0 1.0035 2057 1094)"/><path d="M122.048 173.528C123.366 172.982 124.394 171.857 124.78 170.54 125.229 169.222 125.133 167.712 124.394 166.523" stroke="#848484" stroke-width="0.642697" stroke-linejoin="round" fill="none" transform="matrix(1 0 0 1.0035 2057 1094)"/><path d="M124.426 166.555C124.265 166.362 124.265 166.137 124.426 165.944" stroke="#848484" stroke-width="0.642697" stroke-linejoin="round" fill="none" transform="matrix(1 0 0 1.0035 2057 1094)"/><path d="M124.362 165.976C125.229 164.113 125.711 162.152 125.904 160.096" stroke="#848484" stroke-width="0.642697" stroke-linejoin="round" fill="none" transform="matrix(1 0 0 1.0035 2057 1094)"/><path d="M125.872 160.128C126.001 158.907 126.065 157.782 126.065 156.561" stroke="#848484" stroke-width="0.642697" stroke-linejoin="round" fill="none" transform="matrix(1 0 0 1.0035 2057 1094)"/><path d="M124.972 148.591C124.394 146.406 122.819 144.832 120.731 144.285" stroke="#848484" stroke-width="0.642697" stroke-linejoin="round" fill="none" transform="matrix(1 0 0 1.0035 2057 1094)"/><path d="M120.763 144.318C120.602 144.318 120.377 144.125 120.281 143.9" stroke="#848484" stroke-width="0.642697" stroke-linejoin="round" fill="none" transform="matrix(1 0 0 1.0035 2057 1094)"/><path d="M120.313 143.932 108.937 119.606" stroke="#848484" stroke-width="0.642697" stroke-linejoin="round" fill="none" transform="matrix(1 0 0 1.0035 2057 1094)"/><path d="M108.969 119.638C108.134 118.031 106.527 117.099 104.824 117.099" stroke="#848484" stroke-width="0.642697" stroke-linejoin="round" fill="none" transform="matrix(1 0 0 1.0035 2057 1094)"/><path d="M104.856 117.099 78.0234 117.324" stroke="#848484" stroke-width="0.642697" stroke-linejoin="round" fill="none" transform="matrix(1 0 0 1.0035 2057 1094)"/><path d="M78.0555 117.324 51.1265 117.099" stroke="#848484" stroke-width="0.642697" stroke-linejoin="round" fill="none" transform="matrix(1 0 0 1.0035 2057 1094)"/><path d="M51.1586 117.099C49.4555 117.099 47.8809 118.031 47.1418 119.638" stroke="#848484" stroke-width="0.642697" stroke-linejoin="round" fill="none" transform="matrix(1 0 0 1.0035 2057 1094)"/><path d="M47.1739 119.606 35.6697 143.932" stroke="#848484" stroke-width="0.642697" stroke-linejoin="round" fill="none" transform="matrix(1 0 0 1.0035 2057 1094)"/><path d="M35.7018 143.9C35.6375 144.125 35.509 144.318 35.3162 144.318" stroke="#848484" stroke-width="0.642697" stroke-linejoin="round" fill="none" transform="matrix(1 0 0 1.0035 2057 1094)"/><path d="M35.3483 144.285C33.2917 144.832 31.6207 146.406 31.0422 148.591" stroke="#848484" stroke-width="0.642697" stroke-linejoin="round" fill="none" transform="matrix(1 0 0 1.0035 2057 1094)"/><path d="M31.0744 148.559C30.3031 151.162 29.9175 153.894 29.9175 156.593" stroke="#848484" stroke-width="0.642697" stroke-linejoin="round" fill="none" transform="matrix(1 0 0 1.0035 2057 1094)"/><path d="M30.2067 160.096C30.3031 162.152 30.8816 164.113 31.6207 165.976" stroke="#848484" stroke-width="0.642697" stroke-linejoin="round" fill="none" transform="matrix(1 0 0 1.0035 2057 1094)"/><path d="M31.5885 165.944C31.7492 166.137 31.7492 166.362 31.5885 166.555" stroke="#848484" stroke-width="0.642697" stroke-linejoin="round" fill="none" transform="matrix(1 0 0 1.0035 2057 1094)"/><path d="M31.5885 166.523C30.8494 167.712 30.753 169.222 31.2029 170.54 31.5885 171.857 32.6169 172.982 33.9344 173.528" stroke="#848484" stroke-width="0.642697" stroke-linejoin="round" fill="none" transform="matrix(1 0 0 1.0035 2057 1094)"/><path d="M33.9022 173.496 33.9022 182.976" stroke="#848484" stroke-width="0.642697" stroke-linejoin="round" fill="none" transform="matrix(1 0 0 1.0035 2057 1094)"/><path d="M33.9022 182.976C33.9022 184.1 34.8663 185.161 36.0874 185.161" stroke="#848484" stroke-width="0.642697" stroke-linejoin="round" fill="none" transform="matrix(1 0 0 1.0035 2057 1094)"/><path d="M36.0553 185.129 47.8809 185.129" stroke="#848484" stroke-width="0.642697" stroke-linejoin="round" fill="none" transform="matrix(1 0 0 1.0035 2057 1094)"/><path d="M47.8809 185.161C49.1342 185.161 50.1303 184.1 50.1303 182.976" stroke="#848484" stroke-width="0.642697" stroke-linejoin="round" fill="none" transform="matrix(1 0 0 1.0035 2057 1094)"/><path d="M50.0982 182.976 50.0982 172.66" stroke="#848484" stroke-width="0.642697" stroke-linejoin="round" fill="none" transform="matrix(1 0 0 1.0035 2057 1094)"/><path d="M50.0982 172.66 78.0234 172.66" stroke="#848484" stroke-width="0.642697" stroke-linejoin="round" fill="none" transform="matrix(1 0 0 1.0035 2057 1094)"/><path d="M78.0234 172.66 105.852 172.66" stroke="#848484" stroke-width="0.642697" stroke-linejoin="round" fill="none" transform="matrix(1 0 0 1.0035 2057 1094)"/><path d="M105.852 172.66 105.852 182.976" stroke="#848484" stroke-width="0.642697" stroke-linejoin="round" fill="none" transform="matrix(1 0 0 1.0035 2057 1094)"/><path d="M105.852 182.976C105.852 184.1 106.88 185.161 108.134 185.161" stroke="#848484" stroke-width="0.642697" stroke-linejoin="round" fill="none" transform="matrix(1 0 0 1.0035 2057 1094)"/><path d="M64.2697 163.181 64.2697 159.164" stroke="#848484" stroke-width="0.642697" stroke-linejoin="round" fill="none" transform="matrix(1 0 0 1.0035 2057 1094)"/><path d="M64.2697 159.196C64.2697 158.65 64.816 158.039 65.4908 158.039" stroke="#848484" stroke-width="0.642697" stroke-linejoin="round" fill="none" transform="matrix(1 0 0 1.0035 2057 1094)"/><path d="M65.4586 158.039 78.0234 158.039" stroke="#848484" stroke-width="0.642697" stroke-linejoin="round" fill="none" transform="matrix(1 0 0 1.0035 2057 1094)"/><path d="M78.0234 158.039 90.4917 158.039" stroke="#848484" stroke-width="0.642697" stroke-linejoin="round" fill="none" transform="matrix(1 0 0 1.0035 2057 1094)"/><path d="M90.4917 158.039C91.1665 158.039 91.7449 158.65 91.7449 159.196" stroke="#848484" stroke-width="0.642697" stroke-linejoin="round" fill="none" transform="matrix(1 0 0 1.0035 2057 1094)"/><path d="M91.7128 159.164 91.7128 163.181" stroke="#848484" stroke-width="0.642697" stroke-linejoin="round" fill="none" transform="matrix(1 0 0 1.0035 2057 1094)"/><path d="M91.7449 163.181C91.7449 163.823 91.1665 164.402 90.4917 164.402" stroke="#848484" stroke-width="0.642697" stroke-linejoin="round" fill="none" transform="matrix(1 0 0 1.0035 2057 1094)"/><path d="M90.4917 164.37 78.0234 164.37" stroke="#848484" stroke-width="0.642697" stroke-linejoin="round" fill="none" transform="matrix(1 0 0 1.0035 2057 1094)"/><path d="M78.0234 164.37 65.4586 164.37" stroke="#848484" stroke-width="0.642697" stroke-linejoin="round" fill="none" transform="matrix(1 0 0 1.0035 2057 1094)"/><path d="M65.4908 164.402C64.816 164.402 64.2697 163.823 64.2697 163.181" stroke="#848484" stroke-width="0.642697" stroke-linejoin="round" fill="none" transform="matrix(1 0 0 1.0035 2057 1094)"/><path d="M42.0966 141.811 50.516 122.787" stroke="#848484" stroke-width="0.642697" stroke-linejoin="round" fill="none" transform="matrix(1 0 0 1.0035 2057 1094)"/><path d="M50.4838 122.819C50.8694 121.855 51.7692 121.213 52.8297 121.213" stroke="#848484" stroke-width="0.642697" stroke-linejoin="round" fill="none" transform="matrix(1 0 0 1.0035 2057 1094)"/><path d="M52.7975 121.213 78.0555 121.405" stroke="#848484" stroke-width="0.642697" stroke-linejoin="round" fill="none" transform="matrix(1 0 0 1.0035 2057 1094)"/><path d="M78.0234 121.405 103.185 121.213" stroke="#848484" stroke-width="0.642697" stroke-linejoin="round" fill="none" transform="matrix(1 0 0 1.0035 2057 1094)"/><path d="M103.153 121.213C104.213 121.213 105.145 121.855 105.499 122.819" stroke="#848484" stroke-width="0.642697" stroke-linejoin="round" fill="none" transform="matrix(1 0 0 1.0035 2057 1094)"/><path d="M105.467 122.787 113.886 141.811" stroke="#848484" stroke-width="0.642697" stroke-linejoin="round" fill="none" transform="matrix(1 0 0 1.0035 2057 1094)"/><path d="M113.886 141.779C114.079 142.229 113.982 142.679 113.789 143.096 113.468 143.482 113.018 143.643 112.568 143.643" stroke="#848484" stroke-width="0.642697" stroke-linejoin="round" fill="none" transform="matrix(1 0 0 1.0035 2057 1094)"/><path d="M112.6 143.643C101.128 142.518 89.5919 141.94 78.0234 142.036" stroke="#848484" stroke-width="0.642697" stroke-linejoin="round" fill="none" transform="matrix(1 0 0 1.0035 2057 1094)"/><path d="M78.0555 142.036C66.5191 141.94 54.9827 142.518 43.4142 143.643" stroke="#848484" stroke-width="0.642697" stroke-linejoin="round" fill="none" transform="matrix(1 0 0 1.0035 2057 1094)"/><path d="M43.4463 143.643C42.9321 143.643 42.4822 143.482 42.2894 143.096 42.0002 142.679 41.936 142.229 42.0966 141.779" stroke="#848484" stroke-width="0.642697" stroke-linejoin="round" fill="none" transform="matrix(1 0 0 1.0035 2057 1094)"/><path d="M43.4142 143.643C54.9827 142.518 66.5191 141.94 78.0555 142.036" stroke="#848484" stroke-width="0.642697" stroke-linejoin="round" fill="none" transform="matrix(1 0 0 1.0035 2057 1094)"/><path d="M78.0234 142.036C89.5919 141.94 101.128 142.518 112.6 143.643" stroke="#848484" stroke-width="0.642697" stroke-linejoin="round" fill="none" transform="matrix(1 0 0 1.0035 2057 1094)"/><path d="M112.568 143.643C113.018 143.643 113.468 143.482 113.789 143.096 113.982 142.679 114.079 142.229 113.886 141.779" stroke="#848484" stroke-width="0.642697" stroke-linejoin="round" fill="none" transform="matrix(1 0 0 1.0035 2057 1094)"/><path d="M113.886 141.811 105.467 122.787" stroke="#848484" stroke-width="0.642697" stroke-linejoin="round" fill="none" transform="matrix(1 0 0 1.0035 2057 1094)"/><path d="M105.499 122.819C105.145 121.855 104.213 121.213 103.153 121.213" stroke="#848484" stroke-width="0.642697" stroke-linejoin="round" fill="none" transform="matrix(1 0 0 1.0035 2057 1094)"/><path d="M103.185 121.213 78.0234 121.405" stroke="#848484" stroke-width="0.642697" stroke-linejoin="round" fill="none" transform="matrix(1 0 0 1.0035 2057 1094)"/><path d="M78.0555 121.405 52.7975 121.213" stroke="#848484" stroke-width="0.642697" stroke-linejoin="round" fill="none" transform="matrix(1 0 0 1.0035 2057 1094)"/><path d="M52.8297 121.213C51.7692 121.213 50.8694 121.855 50.4838 122.819" stroke="#848484" stroke-width="0.642697" stroke-linejoin="round" fill="none" transform="matrix(1 0 0 1.0035 2057 1094)"/><path d="M50.516 122.787 42.0966 141.811" stroke="#848484" stroke-width="0.642697" stroke-linejoin="round" fill="none" transform="matrix(1 0 0 1.0035 2057 1094)"/><path d="M42.0966 141.779C41.936 142.229 42.0002 142.679 42.2894 143.096 42.4822 143.482 42.9321 143.643 43.4463 143.643" stroke="#848484" stroke-width="0.642697" stroke-linejoin="round" fill="none" transform="matrix(1 0 0 1.0035 2057 1094)"/><path d="M65.4586 164.37 78.0234 164.37" stroke="#848484" stroke-width="0.642697" stroke-linejoin="round" fill="none" transform="matrix(1 0 0 1.0035 2057 1094)"/><path d="M78.0234 164.37 90.4917 164.37" stroke="#848484" stroke-width="0.642697" stroke-linejoin="round" fill="none" transform="matrix(1 0 0 1.0035 2057 1094)"/><path d="M90.4917 164.402C91.1665 164.402 91.7449 163.823 91.7449 163.181" stroke="#848484" stroke-width="0.642697" stroke-linejoin="round" fill="none" transform="matrix(1 0 0 1.0035 2057 1094)"/><path d="M91.7128 163.181 91.7128 159.164" stroke="#848484" stroke-width="0.642697" stroke-linejoin="round" fill="none" transform="matrix(1 0 0 1.0035 2057 1094)"/><path d="M91.7449 159.196C91.7449 158.65 91.1665 158.039 90.4917 158.039" stroke="#848484" stroke-width="0.642697" stroke-linejoin="round" fill="none" transform="matrix(1 0 0 1.0035 2057 1094)"/><path d="M90.4917 158.039 78.0234 158.039" stroke="#848484" stroke-width="0.642697" stroke-linejoin="round" fill="none" transform="matrix(1 0 0 1.0035 2057 1094)"/><path d="M78.0234 158.039 65.4586 158.039" stroke="#848484" stroke-width="0.642697" stroke-linejoin="round" fill="none" transform="matrix(1 0 0 1.0035 2057 1094)"/><path d="M65.4908 158.039C64.816 158.039 64.2697 158.65 64.2697 159.196" stroke="#848484" stroke-width="0.642697" stroke-linejoin="round" fill="none" transform="matrix(1 0 0 1.0035 2057 1094)"/><path d="M64.2697 159.164 64.2697 163.181" stroke="#848484" stroke-width="0.642697" stroke-linejoin="round" fill="none" transform="matrix(1 0 0 1.0035 2057 1094)"/><path d="M64.2697 163.181C64.2697 163.823 64.816 164.402 65.4908 164.402" stroke="#848484" stroke-width="0.642697" stroke-linejoin="round" fill="none" transform="matrix(1 0 0 1.0035 2057 1094)"/><path d="M29.9175 156.561C29.9175 157.782 30.0139 158.907 30.2389 160.128" stroke="#848484" stroke-width="0.642697" stroke-linejoin="round" fill="none" transform="matrix(1 0 0 1.0035 2057 1094)"/><path d="M126.065 156.593C126.065 153.894 125.711 151.162 124.94 148.559" stroke="#848484" stroke-width="0.642697" stroke-linejoin="round" fill="none" transform="matrix(1 0 0 1.0035 2057 1094)"/><path d="M124.94 148.591C124.362 146.406 122.787 144.832 120.731 144.285 120.634 144.285 120.57 144.189 120.473 144.189 120.377 144.093 120.377 143.996 120.281 143.9L108.937 119.606C108.166 118.128 106.591 117.099 104.92 117.099L104.824 117.099 104.727 117.099 78.0234 117.292 51.2229 117.099 51.1265 117.099 51.0301 117.099C50.291 117.099 49.4555 117.292 48.7164 117.742 47.9773 118.32 47.3989 118.963 47.1418 119.606L35.6697 143.9C35.6054 144.093 35.509 144.285 35.3162 144.285 33.2595 144.832 31.5885 146.406 31.0422 148.591 30.0139 152.319 29.7247 156.207 30.2067 160.128 30.3031 162.184 30.8494 164.145 31.5885 165.976 31.6849 166.169 31.6849 166.362 31.5885 166.555 31.2993 167.101 31.0422 167.744 30.9458 168.419 30.8494 169.158 30.9458 169.8 31.2029 170.54 31.3957 171.311 31.7813 171.857 32.2312 172.403 32.8097 172.885 33.356 173.239 33.9022 173.528L33.9022 183.008C33.9022 183.49 34.0951 184.036 34.5771 184.518 34.9306 184.968 35.6054 185.161 36.0553 185.161L47.8809 185.161C49.102 185.161 50.0982 184.133 50.0982 183.008L50.0982 172.693 78.0234 172.693 105.852 172.693 105.852 183.008C105.852 183.49 106.045 184.036 106.495 184.518 106.977 184.968 107.523 185.161 108.102 185.161L119.895 185.161C120.473 185.161 121.02 184.968 121.502 184.518 121.662 184.325 121.855 184.036 121.952 183.779 122.048 183.49 122.048 183.201 122.048 183.008L122.048 173.528C122.691 173.239 123.173 172.885 123.719 172.403 124.201 171.857 124.555 171.311 124.747 170.54 125.037 169.8 125.101 169.158 125.037 168.419 124.94 167.744 124.651 167.101 124.362 166.555 124.265 166.362 124.265 166.169 124.362 165.976 125.197 164.145 125.679 162.184 125.904 160.128 126.258 156.207 126.001 152.319 124.94 148.591ZM52.7975 121.213 78.0234 121.373 103.153 121.213C103.635 121.213 104.181 121.373 104.535 121.662 105.017 121.952 105.306 122.305 105.467 122.787L113.854 141.779C114.047 142.132 114.047 142.614 113.757 143.064 113.404 143.546 112.922 143.611 112.568 143.611 101.096 142.518 89.5598 141.94 78.0234 142.036 66.487 141.94 54.9506 142.518 43.4142 143.611 43.0285 143.611 42.5787 143.546 42.2894 143.064 42.0966 142.871 42.0002 142.614 42.0002 142.422 42.0002 142.132 42.0002 141.94 42.0966 141.779L50.4838 122.787C50.6766 122.305 50.9337 121.952 51.4157 121.662 51.8656 121.373 52.3476 121.213 52.7975 121.213ZM64.2697 163.213 64.2697 159.196C64.2697 158.907 64.4303 158.65 64.6231 158.457 64.9124 158.168 65.2016 158.071 65.4586 158.071L78.0234 158.071 90.4917 158.071C90.7809 158.071 91.0701 158.168 91.3272 158.457 91.4236 158.553 91.52 158.65 91.6164 158.81 91.6164 158.907 91.7128 159.1 91.7128 159.196L91.7128 163.213C91.7128 163.855 91.1344 164.402 90.4917 164.402L78.0234 164.402 65.4586 164.402C64.816 164.402 64.2697 163.855 64.2697 163.213Z" fill="#010101" transform="matrix(1 0 0 1.0035 2057 1094)"/><path d="M43.4142 143.643C54.9506 142.55 66.487 141.972 78.0234 142.068 89.5598 141.972 101.096 142.55 112.568 143.643 112.922 143.643 113.436 143.578 113.789 143.096 113.886 142.904 113.982 142.647 113.982 142.454 113.982 142.164 113.982 141.972 113.886 141.811L105.467 122.787C105.306 122.305 105.017 121.952 104.535 121.662 104.181 121.373 103.635 121.213 103.153 121.213L78.0234 121.373 52.7975 121.213C52.3476 121.213 51.8656 121.373 51.4157 121.662 50.9337 121.952 50.6766 122.305 50.4838 122.787L42.0966 141.811C42.0002 141.972 42.0002 142.164 42.0002 142.454 42.0002 142.647 42.0966 142.904 42.2894 143.096 42.5787 143.578 43.0285 143.643 43.4142 143.643Z" fill="#FEFEFE" transform="matrix(1 0 0 1.0035 2057 1094)"/><path d="M65.4586 164.402 78.0555 164.402 90.5238 164.402C90.813 164.402 91.1665 164.305 91.3593 164.048 91.6485 163.855 91.7449 163.47 91.7449 163.213L91.7449 159.164C91.7449 159.067 91.6485 158.875 91.6485 158.778 91.5521 158.618 91.4557 158.521 91.3593 158.425 91.2629 158.232 91.1022 158.135 91.0058 158.135 90.813 158.039 90.7166 158.039 90.5238 158.039L78.0555 158.039 65.4586 158.039C65.2658 158.039 65.2016 158.039 65.0088 158.135 64.9124 158.135 64.7196 158.232 64.6231 158.425 64.5267 158.521 64.4303 158.618 64.3339 158.778 64.3339 158.875 64.2697 159.067 64.2697 159.164L64.2697 163.213C64.2697 163.855 64.816 164.402 65.4586 164.402Z" fill="#FEFEFE" transform="matrix(1 0 0 1.0035 2057 1094)"/><path d="M285.389 143.096C285.389 124.265 281.662 105.756 274.496 88.4351 267.33 71.1465 256.822 55.4004 243.614 42.0966 230.31 28.8892 214.564 18.3811 197.276 11.2151 179.955 4.04899 161.445 0.321348 142.711 0.321348" stroke="#343434" stroke-width="0.642697" stroke-linejoin="round" fill="none" transform="matrix(1 0 0 1.0035 2057 1094)"/><path d="M26.5755 222.244 31.3315 226.936" stroke="#010101" stroke-width="0.642697" stroke-linejoin="round" fill="none" transform="matrix(1 0 0 1.0035 2057 1094)"/><path d="M226.583 31.7171 221.891 26.929" stroke="#010101" stroke-width="0.642697" stroke-linejoin="round" fill="none" transform="matrix(1 0 0 1.0035 2057 1094)"/><path d="M34.6735 230.278 39.333 235.034" stroke="#010101" stroke-width="0.642697" stroke-linejoin="round" fill="none" transform="matrix(1 0 0 1.0035 2057 1094)"/><path d="M234.681 39.7187 229.893 35.027" stroke="#010101" stroke-width="0.642697" stroke-linejoin="round" fill="none" transform="matrix(1 0 0 1.0035 2057 1094)"/><path d="M42.6751 238.344 47.431 243.132" stroke="#010101" stroke-width="0.642697" stroke-linejoin="round" fill="none" transform="matrix(1 0 0 1.0035 2057 1094)"/><path d="M242.779 47.8166 237.991 43.0285" stroke="#010101" stroke-width="0.642697" stroke-linejoin="round" fill="none" transform="matrix(1 0 0 1.0035 2057 1094)"/><path d="M50.773 246.442 55.529 251.23" stroke="#010101" stroke-width="0.642697" stroke-linejoin="round" fill="none" transform="matrix(1 0 0 1.0035 2057 1094)"/><path d="M250.78 55.9146 246.089 51.1265" stroke="#010101" stroke-width="0.642697" stroke-linejoin="round" fill="none" transform="matrix(1 0 0 1.0035 2057 1094)"/><path d="M58.871 254.54 63.5306 259.232" stroke="#010101" stroke-width="0.642697" stroke-linejoin="round" fill="none" transform="matrix(1 0 0 1.0035 2057 1094)"/><path d="M258.878 63.9162 254.187 59.2245" stroke="#010101" stroke-width="0.642697" stroke-linejoin="round" fill="none" transform="matrix(1 0 0 1.0035 2057 1094)"/><path d="M142.807 0.321348C137.666 0.321348 132.267 0.578427 126.868 1.25326 121.502 1.89596 115.91 2.82787 110.222 4.11326 104.631 5.43079 98.9753 7.1018 93.191 9.25483 87.5353 11.2793 81.8474 13.9144 76.256 16.7744 70.5681 19.7629 65.1052 23.1049 59.8029 26.929 54.4043 30.8494 49.2627 35.027 44.3461 39.6865 39.4937 44.3139 34.9306 49.3591 30.6566 54.6613 26.4791 60.06 22.5587 65.78 19.1202 71.7249 15.6818 77.6699 12.6933 83.8076 10.1867 90.2346 7.68022 96.5652 5.52719 102.992 3.95258 109.612 2.37798 116.103 1.34966 122.723 0.706966 129.246 0.0321348 135.738-0.128539 142.261 0.128539 148.591 0.321348 154.922 0.964045 161.06 1.99236 167.101 3.02067 173.078 4.40247 178.83 6.10562 184.325 7.77663 189.917 9.73685 195.219 11.9542 200.232 14.1072 205.181 16.5173 209.905 19.1202 214.371 21.6267 218.838 24.6153 223.305 27.7645 227.675 31.0422 232.142 34.6735 236.448 38.5618 240.722 42.5787 244.9 46.8526 249.013 51.6085 252.901 56.236 256.725 61.2811 260.453 66.5834 263.795 71.982 267.137 77.6699 270.222 83.6148 273.018 89.6562 275.717 95.8903 278.031 102.317 279.894 108.744 281.855 115.428 283.236 122.144 284.265 128.925 285.293 135.834 285.775 142.711 285.775 149.491 285.775 156.4 285.293 163.181 284.265 169.865 283.236 176.581 281.855 183.008 279.894 189.499 278.031 195.733 275.717 201.71 273.018 207.655 270.222 213.343 267.137 218.774 263.795 224.076 260.453 229.089 256.725 233.845 252.901 238.505 249.013 242.779 244.9 246.763 240.722 250.684 236.448 254.315 232.142 257.561 227.675 260.838 223.305 263.698 218.838 266.237 214.371 268.84 209.905 271.25 205.181 273.5 200.232 275.62 195.219 277.581 189.917 279.252 184.325 280.923 178.83 282.337 173.078 283.365 167.101 284.361 161.06 285.036 154.922 285.293 148.591 285.486 142.261 285.389 135.738 284.747 129.246 284.104 122.723 282.979 116.103 281.405 109.612 279.798 102.992 277.773 96.5652 275.267 90.2346 272.728 83.8076 269.772 77.6699 266.333 71.7249 262.863 65.78 259.071 60.06 254.765 54.6613 250.587 49.3591 245.928 44.3139 241.108 39.6865 236.255 35.027 231.146 30.8494 225.747 26.929 220.445 23.1049 214.918 19.7629 209.23 16.7744 203.671 13.9144 197.983 11.2793 192.295 9.25483 186.639 7.1018 180.951 5.43079 175.263 4.11326 169.704 2.82787 164.113 1.89596 158.714 1.25326 153.219 0.578427 147.917 0.321348 142.807 0.321348ZM62.213 251.134C61.5703 250.684 60.8955 250.202 60.3492 249.752 59.7065 249.27 59.0317 248.724 58.389 248.242L55.4969 251.23 50.773 246.474 53.2795 243.968C52.7011 243.421 52.1548 242.843 51.5121 242.297 50.9337 241.847 50.3874 241.268 49.8411 240.722L47.3989 243.132 42.6751 238.376 45.0852 235.966C44.5389 235.42 43.9604 234.841 43.5106 234.295 42.9321 233.749 42.3858 233.074 41.936 232.528L39.3009 235.034 34.6735 230.31 37.5335 227.418C37.0836 226.743 36.6016 226.101 36.0553 225.554 35.6054 224.912 35.1234 224.237 34.6735 223.594L31.2993 226.936 26.5755 222.277 30.753 218.099C27.1218 212.604 23.7798 206.948 20.984 200.875 18.0919 194.93 15.6818 188.696 13.7216 182.269 11.7613 175.842 10.3795 169.351 9.35124 162.731 8.41933 156.207 7.96944 149.62 7.96944 143.096 7.96944 139.112 8.03371 135.095 8.41933 131.014 8.80494 126.9 9.35124 122.723 10.1867 118.545 10.9258 114.336 11.9542 110.158 13.0789 105.981 14.2679 101.771 15.7782 97.5935 17.3528 93.5124 20.6948 85.1252 24.8081 77.0272 29.8211 69.3148 34.9306 61.5382 40.8112 54.3721 47.3025 47.7845 53.9222 41.1647 61.1847 35.3162 68.8971 30.271 76.6416 25.1616 84.7395 21.0804 92.9982 17.7063 97.1115 16.1317 101.289 14.6535 105.467 13.4324 109.676 12.3076 113.854 11.2793 118.031 10.5402 122.241 9.70472 126.418 9.15843 130.5 8.77281 134.613 8.41933 138.598 8.32292 142.614 8.32292 149.138 8.32292 155.725 8.77281 162.345 9.70472 168.933 10.733 175.456 12.147 181.883 14.0751 188.31 16.0353 194.544 18.4454 200.489 21.3375 206.531 24.1333 212.218 27.4753 217.746 31.1065L221.923 26.929 226.583 31.6849 223.241 35.027C223.883 35.4769 224.526 35.9589 225.201 36.4088 225.747 36.9872 226.39 37.4371 227.065 37.9191L229.925 35.027 234.681 39.6865 232.174 42.2894C232.72 42.7393 233.299 43.3178 233.942 43.864 234.488 44.3139 235.066 44.8924 235.613 45.4387L238.023 43.0285 242.779 47.7845 240.369 50.1946C240.915 50.7409 241.461 51.3193 241.943 51.962 242.489 52.5083 243.068 53.0867 243.614 53.633L246.121 51.1265 250.78 55.8825 247.888 58.7425C248.37 59.4173 248.916 60.06 249.398 60.7027 249.848 61.2811 250.298 61.9238 250.78 62.5665L254.219 59.2245 258.878 63.884 254.701 68.1901C258.332 73.5888 261.578 79.2445 264.47 85.318 267.265 91.2629 269.676 97.4971 271.636 103.924 273.564 110.351 275.074 116.842 276.006 123.366 277.034 129.985 277.484 136.477 277.484 143.096 277.484 147.017 277.291 151.098 276.938 155.211 276.552 159.292 276.006 163.373 275.171 167.583 274.431 171.761 273.5 175.938 272.278 180.148 271.057 184.325 269.676 188.503 268.004 192.713 264.727 200.971 260.549 209.069 255.536 216.814 250.491 224.526 244.642 231.789 238.023 238.376 231.435 244.9 224.173 250.78 216.396 255.89 208.78 260.903 200.682 265.112 192.295 268.358 188.214 270.029 184.036 271.443 179.827 272.632 175.649 273.853 171.471 274.785 167.262 275.62 163.084 276.36 159.003 276.906 154.89 277.291 150.809 277.677 146.696 277.838 142.807 277.838 136.187 277.838 129.568 277.388 123.076 276.36 116.457 275.428 109.933 273.949 103.538 271.989 97.1115 270.029 90.9737 267.715 84.9002 264.823 78.8589 261.931 73.2031 258.685 67.7081 255.054L63.4984 259.232 58.871 254.572 62.213 251.134Z" fill="#010101" transform="matrix(1 0 0 1.0035 2057 1094)"/><path d="M223.241 35.0591 226.583 31.7171 221.923 26.929 217.713 31.1387C218.678 31.8135 219.609 32.3598 220.541 33.0025 221.473 33.6452 222.309 34.32 223.241 35.0591Z" fill="#010101" transform="matrix(1 0 0 1.0035 2057 1094)"/><path d="M232.174 42.3216 234.681 39.7187 229.925 35.027 227.033 37.9512C227.9 38.6903 228.736 39.333 229.668 40.0721 230.503 40.8112 231.339 41.5825 232.174 42.3216Z" fill="#010101" transform="matrix(1 0 0 1.0035 2057 1094)"/><path d="M240.336 50.2267 242.779 47.8166 237.991 43.0285 235.58 45.4387C236.416 46.1778 237.251 47.0454 237.991 47.8166 238.73 48.6521 239.565 49.3912 240.336 50.2267Z" fill="#010101" transform="matrix(1 0 0 1.0035 2057 1094)"/><path d="M247.856 58.7746 250.78 55.9146 246.089 51.1265 243.582 53.6652C244.321 54.5007 244.964 55.3362 245.735 56.2681 246.474 57.1036 247.117 57.9391 247.856 58.7746Z" fill="#010101" transform="matrix(1 0 0 1.0035 2057 1094)"/><path d="M250.748 62.5987C251.487 63.5306 252.13 64.4625 252.805 65.3944 253.447 66.3263 254.026 67.1618 254.701 68.1901L258.878 63.9162 254.219 59.2245 250.748 62.5987Z" fill="#010101" transform="matrix(1 0 0 1.0035 2057 1094)"/><path d="M62.2452 251.102 58.871 254.572 63.5306 259.232 67.7402 255.054C66.8083 254.476 65.8764 253.833 65.0409 253.158 64.109 252.516 63.1771 251.841 62.2452 251.102Z" fill="#010101" transform="matrix(1 0 0 1.0035 2057 1094)"/><path d="M53.3117 243.936 50.773 246.442 55.529 251.23 58.4211 248.242C57.5856 247.47 56.7501 246.828 55.9146 246.089 54.9827 245.349 54.1472 244.675 53.3117 243.936Z" fill="#010101" transform="matrix(1 0 0 1.0035 2057 1094)"/><path d="M49.8733 240.722C49.0378 239.983 48.2665 239.115 47.431 238.344 46.6919 237.605 45.8564 236.769 45.1173 235.934L42.6751 238.344 47.431 243.132 49.8733 240.722Z" fill="#010101" transform="matrix(1 0 0 1.0035 2057 1094)"/><path d="M37.5335 227.386 34.6735 230.278 39.333 235.034 41.9681 232.495C41.1969 231.66 40.4578 230.824 39.7187 229.989 38.9474 229.057 38.3047 228.222 37.5335 227.386Z" fill="#010101" transform="matrix(1 0 0 1.0035 2057 1094)"/><path d="M34.7056 223.562C33.9344 222.63 33.2917 221.795 32.649 220.863 32.0063 219.931 31.4279 218.999 30.7852 218.067L26.5755 222.244 31.3315 226.936 34.7056 223.562Z" fill="#010101" transform="matrix(1 0 0 1.0035 2057 1094)"/><path d="M223.241 35.0591C221.473 33.6452 219.609 32.3598 217.713 31.1065" stroke="#010101" stroke-width="0.642697" stroke-linejoin="round" fill="none" transform="matrix(1 0 0 1.0035 2057 1094)"/><path d="M232.174 42.3216C230.471 40.7791 228.8 39.3009 227.033 37.9191" stroke="#010101" stroke-width="0.642697" stroke-linejoin="round" fill="none" transform="matrix(1 0 0 1.0035 2057 1094)"/><path d="M240.369 50.2267C238.858 48.62 237.284 47.0133 235.58 45.4387" stroke="#010101" stroke-width="0.642697" stroke-linejoin="round" fill="none" transform="matrix(1 0 0 1.0035 2057 1094)"/><path d="M247.888 58.7746C246.506 57.0715 244.996 55.304 243.582 53.633" stroke="#010101" stroke-width="0.642697" stroke-linejoin="round" fill="none" transform="matrix(1 0 0 1.0035 2057 1094)"/><path d="M254.701 68.1901C253.447 66.1978 252.13 64.4303 250.748 62.5665" stroke="#010101" stroke-width="0.642697" stroke-linejoin="round" fill="none" transform="matrix(1 0 0 1.0035 2057 1094)"/><path d="M30.753 218.067C31.9742 219.963 33.2917 221.827 34.7056 223.594" stroke="#010101" stroke-width="0.642697" stroke-linejoin="round" fill="none" transform="matrix(1 0 0 1.0035 2057 1094)"/><path d="M37.5335 227.386C38.9474 229.153 40.4256 230.824 41.9681 232.528" stroke="#010101" stroke-width="0.642697" stroke-linejoin="round" fill="none" transform="matrix(1 0 0 1.0035 2057 1094)"/><path d="M45.0852 235.934C46.6598 237.605 48.2022 239.244 49.8733 240.722" stroke="#010101" stroke-width="0.642697" stroke-linejoin="round" fill="none" transform="matrix(1 0 0 1.0035 2057 1094)"/><path d="M53.2795 243.936C54.9506 245.349 56.718 246.86 58.4211 248.242" stroke="#010101" stroke-width="0.642697" stroke-linejoin="round" fill="none" transform="matrix(1 0 0 1.0035 2057 1094)"/><path d="M62.213 251.102C64.0769 252.516 65.8764 253.833 67.7402 255.054" stroke="#010101" stroke-width="0.642697" stroke-linejoin="round" fill="none" transform="matrix(1 0 0 1.0035 2057 1094)"/><path d="M242.04 47.0133 49.102 240.079" stroke="#010101" stroke-width="0.642697" stroke-linejoin="round" fill="none" transform="matrix(1 0 0 1.0035 2057 1094)"/><path d="M142.743 8.32292C124.94 8.32292 107.427 11.7613 91.0701 18.5418 74.7777 25.3544 59.8672 35.2198 47.3989 47.7845 34.8342 60.2528 24.9688 75.1312 18.1883 91.52 11.4079 107.812 7.96944 125.326 7.96944 143.096" stroke="#010101" stroke-width="0.642697" stroke-linejoin="round" fill="none" transform="matrix(1 0 0 1.0035 2057 1094)"/><path d="M7.96944 143.064C7.96944 160.738 11.4079 178.252 18.1883 194.609 24.9688 210.901 34.8342 225.811 47.3989 238.344 59.8672 250.877 74.7777 260.806 91.0701 267.522 107.427 274.303 124.94 277.838 142.743 277.838" stroke="#010101" stroke-width="0.642697" stroke-linejoin="round" fill="none" transform="matrix(1 0 0 1.0035 2057 1094)"/><path d="" stroke="#010101" stroke-width="0.642697" stroke-linejoin="round" fill="none" transform="matrix(1 0 0 1.0035 2057 1094)"/><path d="M142.711 277.838C160.385 277.838 177.866 274.303 194.255 267.522 210.547 260.806 225.426 250.877 237.991 238.344 250.459 225.811 260.421 210.901 267.169 194.609 273.949 178.252 277.484 160.738 277.484 143.064" stroke="#010101" stroke-width="0.642697" stroke-linejoin="round" fill="none" transform="matrix(1 0 0 1.0035 2057 1094)"/><path d="" stroke="#010101" stroke-width="0.642697" stroke-linejoin="round" fill="none" transform="matrix(1 0 0 1.0035 2057 1094)"/><path d="" stroke="#010101" stroke-width="0.642697" stroke-linejoin="round" fill="none" transform="matrix(1 0 0 1.0035 2057 1094)"/><path d="" stroke="#010101" stroke-width="0.642697" stroke-linejoin="round" fill="none" transform="matrix(1 0 0 1.0035 2057 1094)"/><path d="M49.102 240.079 242.04 47.0133 238.665 43.6712 236.255 46.1135 45.7279 236.609C46.8526 237.83 47.9773 238.955 49.102 240.079Z" fill="#010101" transform="matrix(1 0 0 1.0035 2057 1094)"/><path d="M238.665 43.6712 45.7279 236.609" stroke="#010101" stroke-width="0.642697" stroke-linejoin="round" fill="none" transform="matrix(1 0 0 1.0035 2057 1094)"/><path d="M246.506 51.5764 53.5688 244.546" stroke="#010101" stroke-width="0.642697" stroke-linejoin="round" fill="none" transform="matrix(1 0 0 1.0035 2057 1094)"/><path d="M234.199 39.2045 41.2611 232.142" stroke="#010101" stroke-width="0.642697" stroke-linejoin="round" fill="none" transform="matrix(1 0 0 1.0035 2057 1094)"/><path d="M249.848 54.9506 56.9108 247.888" stroke="#010101" stroke-width="0.642697" stroke-linejoin="round" fill="none" transform="matrix(1 0 0 1.0035 2057 1094)"/><path d="M230.857 35.8625 37.9191 228.8" stroke="#010101" stroke-width="0.642697" stroke-linejoin="round" fill="none" transform="matrix(1 0 0 1.0035 2057 1094)"/><path d="M254.411 59.4173 61.3775 252.355" stroke="#010101" stroke-width="0.642697" stroke-linejoin="round" fill="none" transform="matrix(1 0 0 1.0035 2057 1094)"/><path d="M226.293 31.3957 33.356 224.333" stroke="#010101" stroke-width="0.642697" stroke-linejoin="round" fill="none" transform="matrix(1 0 0 1.0035 2057 1094)"/><path d="M257.753 62.7593 64.7196 255.697" stroke="#010101" stroke-width="0.642697" stroke-linejoin="round" fill="none" transform="matrix(1 0 0 1.0035 2057 1094)"/><path d="M222.951 28.0537 30.0139 220.991" stroke="#010101" stroke-width="0.642697" stroke-linejoin="round" fill="none" transform="matrix(1 0 0 1.0035 2057 1094)"/><path d="M56.9108 247.888 249.848 54.9506 246.506 51.5764 244.064 53.9222 53.5688 244.546C54.6613 245.639 55.7861 246.763 56.9108 247.888Z" fill="#010101" transform="matrix(1 0 0 1.0035 2057 1094)"/><path d="M64.7196 255.697 257.753 62.7593 254.411 59.4173 252.001 61.8274 61.4739 252.355C62.5022 253.48 63.5948 254.572 64.7196 255.697Z" fill="#010101" transform="matrix(1 0 0 1.0035 2057 1094)"/><path d="M41.1647 232.142 41.2611 232.142 234.199 39.2045 230.857 35.8625 228.447 38.2726 37.9191 228.8C38.9474 229.925 40.0721 231.049 41.1647 232.142Z" fill="#010101" transform="matrix(1 0 0 1.0035 2057 1094)"/><path d="M33.356 224.333 226.293 31.3957 222.951 28.0537 220.638 30.3674 30.0139 220.991C31.1387 222.116 32.2312 223.209 33.356 224.333Z" fill="#010101" transform="matrix(1 0 0 1.0035 2057 1094)"/></g></svg>