<svg width="336" height="336" xmlns="http://www.w3.org/2000/svg" xmlns:xlink="http://www.w3.org/1999/xlink" xml:space="preserve" overflow="hidden"><g transform="translate(-707 -336)"><path d="M1042.62 504.038C1042.62 482.066 1038.36 460.32 1029.94 439.971 1021.44 419.66 1009.17 401.124 993.544 385.494 978.027 369.978 959.491 357.632 939.18 349.213 918.831 340.795 896.972 336.415 875 336.415 853.028 336.415 831.169 340.795 810.82 349.213 790.471 357.632 772.01 369.978 756.494 385.494 740.94 401.124 728.595 419.66 720.176 439.971 711.644 460.32 707.378 482.066 707.378 504.038 707.378 526.123 711.644 547.869 720.176 568.218 728.595 588.566 740.94 607.027 756.494 622.657 772.01 638.173 790.471 650.556 810.82 658.975 831.169 667.394 853.028 671.773 875 671.773 896.972 671.773 918.831 667.394 939.18 658.975 959.491 650.556 978.027 638.173 993.544 622.657 1009.17 607.027 1021.44 588.566 1029.94 568.218 1038.36 547.869 1042.62 526.123 1042.62 504.038Z" fill="#FFFFFF"/><path d="M1042.62 504.038C1042.62 482.028 1038.36 460.282 1029.94 439.933 1021.44 419.622 1009.17 401.124 993.544 385.494 978.027 369.978 959.529 357.632 939.218 349.213 918.869 340.795 897.01 336.415 875 336.415" stroke="#343434" stroke-width="0.755056" stroke-linejoin="round" fill="none"/><path d="M875.038 336.415C853.066 336.415 831.207 340.795 810.858 349.213 790.509 357.632 772.048 369.978 756.532 385.494 740.978 401.124 728.632 419.622 720.214 439.933 711.644 460.282 707.378 482.028 707.378 504.038" stroke="#343434" stroke-width="0.755056" stroke-linejoin="round" fill="none"/><path d="M707.378 504C707.378 526.085 711.644 547.831 720.214 568.18 728.632 588.529 740.978 606.99 756.532 622.619 772.048 638.136 790.509 650.519 810.858 658.938 831.207 667.394 853.066 671.773 875.038 671.773" stroke="#343434" stroke-width="0.755056" stroke-linejoin="round" fill="none"/><path d="M875 671.773C897.01 671.773 918.869 667.394 939.218 658.938 959.529 650.519 978.027 638.136 993.544 622.619 1009.17 606.99 1021.44 588.529 1029.94 568.18 1038.36 547.831 1042.62 526.085 1042.62 504" stroke="#343434" stroke-width="0.755056" stroke-linejoin="round" fill="none"/><path d="M1034.43 504.038C1034.43 483.16 1030.39 462.396 1022.31 443.029 1014.31 423.7 1002.6 406.182 987.768 391.308 973.006 376.547 955.376 364.843 936.009 356.726 916.641 348.76 895.991 344.608 875 344.608 854.123 344.608 833.359 348.76 813.991 356.726 794.624 364.843 777.031 376.547 762.27 391.308 747.396 406.182 735.692 423.813 727.726 443.029 719.76 462.396 715.608 483.16 715.608 504.038 715.608 525.028 719.76 545.792 727.726 565.16 735.692 584.413 747.396 602.006 762.27 616.881 777.031 631.642 794.624 643.346 813.991 651.425 833.359 659.391 854.123 663.543 875 663.543 895.991 663.543 916.641 659.391 936.009 651.425 955.376 643.346 973.006 631.642 987.768 616.881 1002.6 602.006 1014.31 584.413 1022.31 565.16 1030.39 545.792 1034.43 525.028 1034.43 504.038Z" fill="#0055FF"/><path d="M884.438 533.9 913.395 533.9C913.621 536.279 913.961 538.808 914.603 541.338 915.169 543.716 916.037 546.245 917.245 548.775 919.435 553.683 922.72 558.175 926.948 561.988 931.101 565.801 935.933 568.784 941.067 570.52 943.597 571.502 946.202 572.144 948.731 572.484 951.223 572.937 953.752 573.012 956.169 573.012 958.773 573.012 961.416 572.823 964.134 572.257 966.853 571.729 969.609 570.936 972.214 569.954 977.688 567.764 982.709 564.518 987.088 560.252 991.354 555.986 994.639 550.851 996.715 545.49 997.81 542.734 998.565 540.016 999.131 537.373 999.547 534.655 999.773 532.05 999.773 529.408 999.886 526.463 999.547 523.292 998.905 520.007 998.15 516.723 997.055 513.438 995.394 510.116 993.884 506.831 991.807 503.66 989.278 500.829 986.786 497.997 983.917 495.355 980.632 493.165 977.461 491.013 973.988 489.352 970.364 488.144 966.777 486.936 963.04 486.181 959.453 485.954 955.829 485.765 952.318 485.954 949.033 486.52 945.786 487.049 942.691 488.031 939.859 489.125L929.364 470.551 935.065 461.906 943.257 461.906C943.899 461.906 944.692 461.604 945.333 461.037 945.862 460.509 946.089 459.716 946.089 459.074L946.089 449.032C945.975 448.466 945.673 447.937 945.22 447.371 944.767 446.956 944.239 446.502 943.597 446.276 942.804 446.049 942.162 446.049 941.52 446.276 940.841 446.389 940.312 446.729 939.859 447.031L916.906 455.676C915.358 456.016 914.376 457.451 914.489 458.961 914.603 459.603 914.829 460.396 915.358 460.924 915.924 461.49 916.679 461.792 917.359 461.906L924.343 461.906 919.548 469.003 835.624 469.003 839.173 462.698 835.737 449.334 860.276 449.334C861.711 449.334 862.995 448.805 863.976 447.824 864.958 446.842 865.524 445.521 865.524 444.086 865.524 442.878 865.071 441.481 863.976 440.5 862.881 439.405 861.598 438.952 860.276 438.952L838.304 438.952C837.209 439.065 836.077 439.405 835.095 439.933 834 440.387 832.906 441.028 831.924 441.783 829.848 443.444 828.187 445.521 827.205 448.126 826.223 450.769 826.035 453.487 826.45 456.016 826.676 457.224 827.016 458.432 827.431 459.527 827.885 460.584 828.526 461.49 829.093 462.359L813.765 490.56C810.933 489.239 807.875 488.144 804.591 487.389 801.193 486.52 797.607 486.067 793.869 486.181 790.056 486.181 786.205 486.747 782.392 487.842 778.579 488.937 774.955 490.56 771.444 492.636 768.084 494.826 764.913 497.355 762.157 500.3 759.552 503.132 757.249 506.303 755.512 509.701 753.738 513.023 752.53 516.383 751.775 519.667 750.906 523.065 750.567 526.35 750.453 529.408 750.453 532.05 750.68 534.655 751.246 537.373 751.662 540.016 752.454 542.734 753.549 545.49 755.701 550.851 758.986 555.986 763.252 560.252 767.518 564.518 772.652 567.764 778.013 569.954 780.769 570.936 783.487 571.729 786.205 572.257 788.848 572.823 791.566 573.012 794.096 573.012 796.701 573.012 799.343 572.823 802.062 572.257 804.818 571.729 807.422 570.936 810.178 569.954 815.615 567.764 820.674 564.518 824.94 560.252 829.281 555.986 832.566 550.851 834.642 545.49 835.737 542.734 836.568 540.016 837.096 537.373 837.549 534.655 837.738 532.05 837.738 529.408 837.738 522.952 836.303 516.609 833.359 510.796 830.376 504.982 826.11 499.96 820.976 496.147L827.205 484.557 882.702 533.221C883.23 533.674 883.796 533.9 884.438 533.9ZM816.068 503.132C818.597 505.208 820.862 507.738 822.863 510.682 824.827 513.778 826.337 517.062 827.318 520.536 828.187 524.047 828.64 527.671 828.413 531.144 828.3 534.769 827.545 538.166 826.45 541.224 825.355 544.282 823.732 547.34 821.655 550.172 819.466 553.041 816.823 555.533 813.878 557.609 810.933 559.799 807.649 561.346 804.251 562.441 800.853 563.423 797.38 563.838 794.096 563.838 792.133 563.838 789.943 563.725 787.867 563.31 785.677 562.97 783.487 562.328 781.411 561.46 777.145 559.799 773.105 557.194 769.707 553.796 766.31 550.398 763.705 546.359 762.044 542.093 761.175 540.016 760.534 537.827 760.194 535.75 759.778 533.56 759.552 531.484 759.552 529.408 759.552 526.991 759.778 524.5 760.42 521.857 760.949 519.252 761.855 516.496 763.138 513.891 764.46 511.211 766.196 508.719 768.273 506.416 770.349 504 772.765 502.037 775.408 500.3 778.126 498.526 780.958 497.355 783.94 496.336 786.885 495.468 789.943 495.053 792.888 494.939 795.832 494.939 798.588 495.166 801.307 495.808 803.949 496.336 806.328 497.242 808.517 498.337L793.114 522.197C791.264 522.612 789.49 523.707 788.282 525.255 786.998 526.878 786.432 528.879 786.545 530.842 786.658 532.805 787.527 534.655 788.848 536.09 790.283 537.487 792.133 538.355 794.096 538.468 797.154 538.808 800.098 537.298 801.646 534.655 802.401 533.334 802.854 531.937 802.741 530.276 802.628 528.766 802.062 527.331 801.307 526.123L816.068 503.132ZM886.854 524.915 833.245 477.988 916.377 477.988 891.007 524.915 886.854 524.915ZM931.893 493.165C926.419 496.563 921.813 501.169 918.642 506.756 915.358 512.343 913.508 518.573 913.281 524.915L901.163 524.915 924.985 480.933 931.893 493.165ZM957.037 520.989 943.71 497.355C945.862 496.449 948.391 495.694 950.921 495.241 953.526 494.826 956.282 494.713 959.113 494.939 961.945 495.166 964.889 495.694 967.759 496.676 970.59 497.658 973.308 498.979 975.838 500.716 978.367 502.49 980.632 504.566 982.595 506.831 984.596 509.134 986.107 511.551 987.428 514.193 988.636 516.836 989.504 519.365 990.033 521.97 990.599 524.613 990.712 526.991 990.712 529.408 990.712 531.484 990.599 533.56 990.146 535.75 989.731 537.827 989.164 540.016 988.296 542.093 986.56 546.359 984.03 550.398 980.632 553.796 977.272 557.194 973.195 559.799 968.929 561.46 966.777 562.328 964.587 562.97 962.511 563.31 960.321 563.725 958.245 563.838 956.169 563.838 954.281 563.951 952.318 563.838 950.355 563.536 948.391 563.31 946.315 562.743 944.352 562.102 940.312 560.667 936.575 558.477 933.215 555.646 929.93 552.701 927.288 549.19 925.438 545.377 924.456 543.527 923.777 541.526 923.248 539.676 922.72 537.713 922.38 535.75 922.153 533.9L952.318 533.9C953.413 533.447 954.507 532.805 955.489 531.937 956.471 530.956 957.263 529.861 957.679 528.539 958.132 527.218 958.358 525.783 958.132 524.5 958.018 523.178 957.565 521.97 957.037 520.989ZM944.465 524.915 922.493 524.915C922.795 520.46 924.23 515.968 926.646 511.777 929.024 507.738 932.195 504.34 936.046 501.81L946.768 521.102C947.183 521.744 947.297 522.725 946.768 523.631 946.202 524.613 945.22 524.915 944.465 524.915Z" fill="#FEFEFE"/><path d="M784.242 635.191C784.355 635.191 784.355 635.191 784.507 635.342" stroke="#010101" stroke-width="0.755056" stroke-linejoin="round" fill="none"/><path d="M747.622 599.93C752.115 605.819 756.909 611.52 762.27 616.881 767.518 622.129 773.218 627.036 779.221 631.529L1002.53 408.221C998.036 402.332 993.091 396.631 987.768 391.27 982.52 386.022 976.819 381.115 970.817 376.622L747.622 599.93Z" fill="#FF0000"/></g></svg>