<svg width="220" height="220" xmlns="http://www.w3.org/2000/svg" xmlns:xlink="http://www.w3.org/1999/xlink" xml:space="preserve" overflow="hidden"><g transform="translate(-445 -33)"><path d="M664.179 142.573C664.179 128.257 661.355 114.072 655.806 100.773 650.388 87.5075 642.245 75.4896 632.197 65.3104 622.018 55.1313 609.869 47.1194 596.603 41.5701 583.305 36.1522 569.119 33.3284 554.803 33.3284 540.487 33.3284 526.302 36.1522 513.003 41.5701 499.737 47.1194 487.719 55.1313 477.409 65.3104 467.23 75.4896 459.218 87.5075 453.669 100.773 448.119 114.072 445.296 128.257 445.296 142.573 445.296 157.021 448.119 171.206 453.669 184.504 459.218 197.639 467.23 209.788 477.409 219.967 487.719 230.146 499.737 238.29 513.003 243.707 526.302 249.257 540.487 252.081 554.803 252.081 569.119 252.081 583.305 249.257 596.603 243.707 609.869 238.29 622.018 230.146 632.197 219.967 642.245 209.788 650.388 197.639 655.806 184.504 661.355 171.206 664.179 157.021 664.179 142.573Z" fill="#FFFFFF"/><path d="M664.179 142.704C664.179 128.388 661.355 114.203 655.806 100.904 650.388 87.6388 642.245 75.6209 632.066 65.4418 621.887 55.1313 609.737 47.1194 596.472 41.5701 583.173 36.1522 568.988 33.3284 554.672 33.3284" stroke="#343434" stroke-width="0.591045" stroke-linejoin="round" fill="none"/><path d="M554.803 33.3284C540.487 33.3284 526.17 36.1522 512.872 41.5701 499.606 47.1194 487.588 55.1313 477.409 65.4418 467.23 75.6209 459.218 87.6388 453.669 100.904 448.119 114.203 445.296 128.388 445.296 142.704" stroke="#343434" stroke-width="0.591045" stroke-linejoin="round" fill="none"/><path d="M445.296 142.573C445.296 157.021 448.119 171.337 453.669 184.636 459.218 197.77 467.23 209.919 477.409 220.099 487.588 230.146 499.606 238.29 512.872 243.707 526.17 249.257 540.487 252.081 554.803 252.081" stroke="#343434" stroke-width="0.591045" stroke-linejoin="round" fill="none"/><path d="M554.672 252.081C568.988 252.081 583.173 249.257 596.472 243.707 609.737 238.29 621.887 230.146 632.066 220.099 642.245 209.919 650.388 197.77 655.806 184.636 661.355 171.337 664.179 157.021 664.179 142.573" stroke="#343434" stroke-width="0.591045" stroke-linejoin="round" fill="none"/><path d="M658.761 142.704C658.761 129.176 656.069 115.615 650.881 102.973 645.725 90.3313 638.009 78.7403 628.322 69.0537 618.636 59.4985 607.307 51.7821 594.666 46.4955 582.024 41.3075 568.463 38.6149 554.803 38.6149 541.143 38.6149 527.582 41.3075 515.072 46.4955 502.43 51.7821 490.97 59.4985 481.284 69.0537 471.597 78.7403 464.012 90.3313 458.594 102.973 453.406 115.615 450.713 129.176 450.713 142.704 450.713 156.364 453.406 169.925 458.594 182.567 464.012 195.078 471.597 206.537 481.284 216.355 490.97 225.91 502.43 233.496 515.072 238.782 527.582 244.069 541.143 246.794 554.803 246.794 568.463 246.794 582.024 244.069 594.666 238.782 607.307 233.496 618.636 225.91 628.322 216.355 638.009 206.537 645.725 195.078 650.881 182.567 656.069 169.925 658.761 156.364 658.761 142.704Z" fill="#0055FF"/><path d="M522.164 158.17 586.785 158.17C587.179 159.352 587.836 160.764 588.591 162.045 589.379 163.325 590.528 164.507 591.678 165.394 592.991 166.313 594.272 167.069 595.684 167.594 597.227 167.988 598.672 168.251 599.952 168.251 603.039 168.251 605.994 167.2 608.325 165.394 610.657 163.588 612.463 161.027 613.218 158.17L630.785 158.17 630.785 106.191 528.107 106.191 528.107 110.066 513.397 110.066C511.985 110.066 510.704 110.985 510.31 112.397L505.516 130.719 492.875 130.719C490.576 130.719 488.376 131.606 486.702 133.281 485.027 134.955 484.107 137.287 484.107 139.487L484.107 150.322 478.197 150.322 478.197 158.17 495.863 158.17C496.618 161.027 498.293 163.588 500.624 165.394 503.087 167.2 506.042 168.251 508.997 168.251 511.985 168.251 514.94 167.2 517.403 165.394 519.734 163.588 521.409 161.027 522.164 158.17ZM528.107 130.719 512.51 130.719 516.352 116.896 528.107 116.896 528.107 130.719Z" fill="#FFFFFF"/><path d="M471.597 205.257C474.454 209.131 477.672 212.875 481.152 216.355 484.633 219.704 488.376 222.922 492.251 225.91L637.878 80.2836C635.021 76.2776 631.803 72.6657 628.322 69.1851 624.842 65.8358 621.23 62.4866 617.355 59.4985L471.597 205.257Z" fill="#FF0000"/></g></svg>