<svg width="281" height="281" xmlns="http://www.w3.org/2000/svg" xmlns:xlink="http://www.w3.org/1999/xlink" xml:space="preserve" overflow="hidden"><g transform="translate(-978 -151)"><path d="M1258.65 291.5C1258.65 273.03 1255.02 254.844 1247.98 237.826 1240.94 220.84 1230.58 205.337 1217.61 192.361 1204.63 179.384 1189.16 169.06 1172.14 162.019 1155.12 154.978 1136.84 151.316 1118.47 151.316 1100.09 151.316 1081.81 154.978 1064.79 162.019 1047.87 169.06 1032.43 179.384 1019.36 192.361 1006.38 205.337 996.028 220.84 988.987 237.826 981.947 254.844 978.316 273.03 978.316 291.5 978.316 309.876 981.947 328.093 988.987 345.079 996.028 362.097 1006.38 377.537 1019.36 390.608 1032.43 403.616 1047.87 413.94 1064.79 420.981 1081.81 428.022 1100.09 431.684 1118.47 431.684 1136.84 431.684 1155.12 428.022 1172.14 420.981 1189.16 413.94 1204.63 403.616 1217.61 390.608 1230.58 377.537 1240.94 362.097 1247.98 345.079 1255.02 328.093 1258.65 309.876 1258.65 291.5Z" fill="#FFFFFF"/><path d="M1258.65 291.5C1258.65 272.998 1255.02 254.812 1247.98 237.794 1240.94 220.808 1230.58 205.337 1217.61 192.361 1204.63 179.384 1189.19 169.06 1172.17 162.019 1155.16 154.978 1136.88 151.316 1118.47 151.316" stroke="#010101" stroke-width="0.631461" stroke-linejoin="round" fill="none"/><path d="M1118.5 151.316C1100.12 151.316 1081.84 154.978 1064.83 162.019 1047.9 169.06 1032.46 179.384 1019.39 192.361 1006.42 205.337 996.06 220.808 989.019 237.794 981.947 254.812 978.316 272.998 978.316 291.5" stroke="#010101" stroke-width="0.631461" stroke-linejoin="round" fill="none"/><path d="M978.316 291.468C978.316 309.844 981.947 328.062 989.019 345.048 996.06 362.066 1006.42 377.505 1019.39 390.576 1032.46 403.584 1047.9 413.909 1064.83 420.949 1081.84 428.022 1100.12 431.684 1118.5 431.684" stroke="#010101" stroke-width="0.631461" stroke-linejoin="round" fill="none"/><path d="M1118.47 431.684C1136.88 431.684 1155.16 428.022 1172.17 420.949 1189.19 413.909 1204.63 403.584 1217.61 390.576 1230.58 377.505 1240.94 362.066 1247.98 345.048 1255.02 328.062 1258.65 309.844 1258.65 291.468" stroke="#010101" stroke-width="0.631461" stroke-linejoin="round" fill="none"/><path d="M1251.8 291.5C1251.8 273.945 1248.33 256.675 1241.67 240.478 1234.97 224.313 1225.12 209.6 1212.78 197.255 1200.43 184.878 1185.72 174.996 1169.49 168.302 1153.29 161.64 1136.02 158.167 1118.47 158.167 1101.01 158.167 1083.64 161.64 1067.45 168.302 1051.28 174.996 1036.63 184.878 1024.19 197.255 1011.85 209.6 1002 224.313 995.302 240.478 988.64 256.675 985.167 273.945 985.167 291.5 985.167 308.96 988.64 326.357 995.302 342.522 1002 358.719 1011.85 373.337 1024.19 385.777 1036.63 398.122 1051.28 407.91 1067.45 414.666 1083.64 421.328 1101.01 424.833 1118.47 424.833 1136.02 424.833 1153.29 421.328 1169.49 414.666 1185.72 407.91 1200.43 398.122 1212.78 385.777 1225.12 373.337 1234.97 358.719 1241.67 342.522 1248.33 326.357 1251.8 308.96 1251.8 291.5Z" fill="#0055FF"/><path d="M1099.11 342.427C1100.12 343.154 1101.23 343.817 1102.49 344.353 1103.69 344.89 1105.05 345.364 1106.44 345.742 1109.28 346.279 1112.28 346.279 1115.22 345.553 1118.22 344.827 1120.87 343.343 1123.08 341.512 1124.18 340.596 1125.16 339.523 1125.98 338.512 1126.74 337.407 1127.47 336.302 1128 335.229L1137.41 335.229 1153.61 335.229 1158.91 335.229C1159.29 336.776 1159.83 338.512 1160.65 340.154 1161.38 341.891 1162.39 343.532 1163.68 345.079 1164.94 346.658 1166.4 348.11 1168.07 349.373 1169.81 350.668 1171.64 351.678 1173.63 352.499 1175.65 353.32 1177.67 353.762 1179.75 354.046 1181.87 354.33 1183.95 354.236 1185.97 353.951 1187.9 353.667 1189.82 353.225 1191.56 352.594 1193.3 351.868 1194.84 351.047 1196.23 350.131 1197.59 349.216 1198.95 348.016 1200.24 346.721 1201.51 345.364 1202.71 343.817 1203.72 342.08 1204.73 340.344 1205.55 338.418 1206.08 336.397 1206.65 334.376 1206.9 332.292 1206.9 330.082 1207 327.998 1206.75 325.788 1206.18 323.799 1205.64 321.779 1204.82 319.853 1203.91 318.116 1202.89 316.38 1201.69 314.832 1200.53 313.443 1199.23 312.086 1197.87 310.886 1196.49 309.97 1195.13 308.96 1193.58 308.139 1191.84 307.413 1190.17 306.781 1188.28 306.245 1186.35 305.866 1184.33 305.582 1182.21 305.582 1180.13 305.771 1178.02 305.96 1176.03 306.497 1174.01 307.223 1171.98 307.981 1170.06 309.055 1168.42 310.254 1166.68 311.517 1165.13 312.907 1163.93 314.454 1162.67 316.001 1161.57 317.674 1160.84 319.411 1160.02 321.052 1159.36 322.694 1159.01 324.336L1129.65 324.336C1129.83 318.558 1129.65 312.812 1129.11 307.065 1128.57 301.288 1127.56 295.636 1126.27 290.048L1127.37 289.732C1128.29 289.542 1129.3 288.911 1129.93 287.901 1130.56 286.89 1130.66 285.722 1130.37 284.807L1128.48 276.313 1130.31 275.935 1129.65 273.188 1126.74 273.914 1124.53 264.789C1124.44 264.316 1124.18 263.874 1123.61 263.495 1123.17 263.211 1122.51 263.147 1122.07 263.305L1120.77 263.589C1120.33 263.684 1119.79 263.968 1119.51 264.505 1119.13 264.947 1119.13 265.61 1119.23 266.052L1121.34 275.208 1117.87 276.029 1115.66 266.873C1115.56 266.431 1115.31 265.957 1114.74 265.61 1114.55 265.421 1114.3 265.326 1114.02 265.326 1113.73 265.231 1113.48 265.326 1113.2 265.326L1111.93 265.705C1111.46 265.8 1110.92 266.052 1110.64 266.62 1110.26 267.062 1110.26 267.599 1110.35 268.168L1112.47 277.229 1109.09 278.05 1109.72 280.702 1112 280.134 1114.02 288.658C1114.21 289.542 1114.84 290.584 1115.85 291.247 1116.86 291.879 1118.06 291.974 1118.94 291.689L1120.05 291.5C1122.6 302.203 1123.71 313.285 1123.27 324.336L1096.46 324.336 1070.86 288.185 1088.41 221.976 1107.17 221.976 1110.35 212.567 1079.1 212.567 1054.6 305.676C1052.86 305.676 1051.12 305.771 1049.29 306.15 1047.46 306.497 1045.63 307.065 1043.8 307.886 1042.06 308.707 1040.2 309.781 1038.65 311.17 1037.01 312.433 1035.53 314.012 1034.26 315.748 1032.97 317.485 1031.96 319.316 1031.23 321.305 1030.51 323.231 1030.06 325.252 1029.78 327.272 1029.59 329.261 1029.59 331.187 1029.87 333.019 1030.06 334.85 1030.51 336.586 1031.07 338.133 1031.61 339.68 1032.34 341.354 1033.35 342.901 1034.36 344.448 1035.53 345.995 1036.92 347.384 1038.37 348.742 1040.01 350.036 1041.84 351.047 1043.7 352.12 1045.63 352.941 1047.74 353.509 1049.83 354.046 1051.94 354.33 1054.03 354.236 1056.14 354.236 1058.16 353.951 1060.09 353.509 1061.98 352.941 1063.82 352.215 1065.46 351.394 1067.13 350.478 1068.49 349.468 1069.75 348.395 1071.05 347.29 1072.34 345.995 1073.41 344.543 1074.52 343.09 1075.53 341.417 1076.26 339.617 1077.08 337.786 1077.64 335.765 1077.99 333.65 1078.28 331.661 1078.37 329.451 1078.09 327.335 1077.9 325.252 1077.36 323.136 1076.63 321.21 1075.91 319.221 1074.9 317.485 1073.7 315.843 1072.5 314.169 1071.24 312.812 1069.75 311.517 1068.39 310.349 1066.94 309.339 1065.46 308.613L1067.86 299.551 1093.08 335.229 1095.1 337.944C1096.27 339.617 1097.66 341.07 1099.11 342.427ZM1186.35 335.229C1187.08 334.66 1187.8 333.934 1188.34 332.924 1188.81 331.913 1189.1 330.84 1189.1 329.546 1189 328.346 1188.62 327.272 1187.99 326.357 1187.36 325.441 1186.54 324.778 1185.78 324.336L1168.32 324.336C1168.7 323.326 1169.24 322.41 1169.81 321.494 1170.44 320.484 1171.16 319.663 1172.08 318.748 1173.82 317.106 1176.03 315.843 1178.58 315.085 1181.05 314.454 1183.6 314.359 1185.97 314.927 1187.17 315.18 1188.28 315.559 1189.26 316.095 1190.27 316.569 1191.18 317.106 1192 317.737 1192.82 318.4 1193.64 319.126 1194.4 319.947 1195.13 320.863 1195.76 321.779 1196.3 322.884 1197.4 325.062 1198.03 327.525 1198.03 330.082 1197.97 332.734 1197.31 335.229 1196.14 337.312 1195.57 338.418 1194.84 339.333 1194.12 340.154 1193.39 340.975 1192.57 341.701 1191.75 342.333 1190.93 342.901 1190.01 343.438 1189 343.911 1187.9 344.353 1186.79 344.732 1185.62 344.985 1183.22 345.458 1180.67 345.364 1178.2 344.637 1175.74 343.911 1173.53 342.522 1171.8 340.786 1170.97 339.965 1170.25 339.049 1169.62 338.039 1169.05 337.123 1168.61 336.113 1168.23 335.229L1186.35 335.229ZM1052.2 314.738 1047.74 331.566C1048 332.64 1048.57 333.65 1049.48 334.471 1050.3 335.387 1051.31 335.955 1052.39 336.207 1053.49 336.492 1054.6 336.492 1055.76 336.113 1056.96 335.765 1057.88 335.134 1058.7 334.313L1063.09 317.674C1063.91 318.211 1064.73 318.937 1065.46 319.758 1066.22 320.579 1066.85 321.589 1067.48 322.599 1068.58 324.778 1069.31 327.178 1069.31 329.83 1069.4 332.387 1068.77 334.85 1067.67 336.965 1067.13 338.039 1066.47 339.049 1065.74 339.87 1065.02 340.691 1064.19 341.417 1063.37 342.08 1062.65 342.711 1061.73 343.248 1060.72 343.817 1059.71 344.259 1058.61 344.637 1057.44 344.89 1055.04 345.458 1052.48 345.458 1050.02 344.827 1047.56 344.164 1045.35 342.901 1043.51 341.259 1042.6 340.438 1041.84 339.523 1041.21 338.607 1040.58 337.691 1040.1 336.776 1039.76 335.765 1039.28 334.85 1039 333.839 1038.84 332.734 1038.65 331.661 1038.56 330.461 1038.56 329.261 1038.75 326.799 1039.38 324.431 1040.67 322.126 1042.06 319.947 1043.89 318.116 1045.91 316.916 1046.92 316.285 1048 315.748 1049.1 315.464 1050.11 315.085 1051.22 314.832 1052.2 314.738ZM1100.57 335.229 1120.52 335.229C1119.42 336.492 1118.06 337.597 1116.32 338.512 1114.55 339.333 1112.56 339.775 1110.54 339.775 1108.43 339.775 1106.53 339.333 1104.8 338.512 1103.06 337.597 1101.58 336.492 1100.57 335.229Z" fill="#FFFFFF"/><path d="M1011.94 371.601C1015.7 376.526 1019.71 381.294 1024.19 385.777 1028.58 390.166 1033.35 394.27 1038.37 398.027L1225.12 211.305C1221.36 206.253 1217.26 201.612 1212.78 197.128 1208.39 192.74 1203.62 188.603 1198.7 184.878L1011.94 371.601Z" fill="#FF0000"/></g></svg>