<svg width="242" height="242" xmlns="http://www.w3.org/2000/svg" xmlns:xlink="http://www.w3.org/1999/xlink" xml:space="preserve" overflow="hidden"><g transform="translate(-60 -245)"><path d="M301.81 366C301.81 350.175 298.656 334.513 292.592 319.857 286.528 305.201 277.637 291.877 266.461 280.62 255.204 269.445 241.853 260.526 227.225 254.462 212.569 248.399 196.907 245.272 181.082 245.272 165.175 245.272 149.513 248.399 134.857 254.462 120.201 260.526 106.904 269.445 95.6474 280.62 84.4719 291.877 75.5533 305.201 69.4897 319.857 63.4261 334.513 60.2719 350.175 60.2719 366 60.2719 381.907 63.4261 397.569 69.4897 412.225 75.5533 426.881 84.4719 440.177 95.6474 451.434 106.904 462.61 120.201 471.528 134.857 477.592 149.513 483.656 165.175 486.782 181.082 486.782 196.907 486.782 212.569 483.656 227.225 477.592 241.853 471.528 255.204 462.61 266.461 451.434 277.637 440.177 286.528 426.881 292.592 412.225 298.656 397.569 301.81 381.907 301.81 366Z" fill="#FFFFFF"/><path d="M301.81 366C301.81 350.148 298.656 334.486 292.592 319.83 286.528 305.174 277.637 291.877 266.461 280.62 255.204 269.445 241.881 260.526 227.252 254.462 212.596 248.399 196.934 245.272 181.082 245.272" stroke="#343434" stroke-width="0.54382" stroke-linejoin="round" fill="none"/><path d="M181.109 245.272C165.202 245.272 149.54 248.399 134.884 254.462 120.228 260.526 106.932 269.445 95.6746 280.62 84.4991 291.877 75.5805 305.174 69.5169 319.83 63.4261 334.486 60.2719 350.148 60.2719 366" stroke="#343434" stroke-width="0.54382" stroke-linejoin="round" fill="none"/><path d="M60.2719 365.973C60.2719 381.88 63.4261 397.542 69.5169 412.198 75.5805 426.853 84.4991 440.15 95.6746 451.407 106.932 462.582 120.228 471.501 134.884 477.592 149.54 483.656 165.202 486.782 181.109 486.782" stroke="#343434" stroke-width="0.54382" stroke-linejoin="round" fill="none"/><path d="M181.082 486.782C196.934 486.782 212.596 483.656 227.252 477.592 241.881 471.501 255.204 462.582 266.461 451.407 277.637 440.15 286.528 426.853 292.592 412.198 298.656 397.542 301.81 381.88 301.81 365.973" stroke="#343434" stroke-width="0.54382" stroke-linejoin="round" fill="none"/><path d="M295.909 366C295.909 350.963 292.918 336.008 287.181 322.059 281.416 308.138 272.906 295.521 262.274 284.808 251.588 274.149 238.971 265.665 225.022 259.901 211.073 254.163 196.118 251.172 181.082 251.172 165.963 251.172 151.008 254.163 137.141 259.901 123.192 265.665 110.521 274.149 99.8076 284.808 89.176 295.521 80.7467 308.138 74.9279 322.059 69.1906 336.008 66.1996 350.963 66.1996 366 66.1996 381.118 69.1906 396.073 74.9279 409.941 80.7467 423.89 89.176 436.561 99.8076 447.274 110.521 457.906 123.192 466.308 137.141 472.154 151.008 477.891 165.963 480.882 181.082 480.882 196.118 480.882 211.073 477.891 225.022 472.154 238.971 466.308 251.588 457.906 262.274 447.274 272.906 436.561 281.416 423.89 287.181 409.941 292.918 396.073 295.909 381.118 295.909 366Z" fill="#0055FF"/><path d="M189.592 417.337C188.396 417.745 187.607 418.914 187.852 420.164 188.015 420.736 188.015 421.361 187.852 421.986 187.607 422.53 187.308 423.101 186.9 423.482L180.918 429.464C180.592 429.79 180.538 430.252 180.674 430.66 180.755 430.878 180.918 431.041 181.082 431.204 181.299 431.286 181.462 431.367 181.707 431.367L190.218 431.367C190.598 431.367 191.006 431.204 191.305 430.796 191.387 430.579 191.469 430.334 191.55 430.089 191.55 429.953 191.469 429.709 191.469 429.545L190.517 427.017C190.299 426.391 190.381 425.603 190.843 424.977 191.305 424.27 192.012 423.944 192.719 423.944 194.079 423.89 195.167 422.938 195.493 421.687 195.574 420.899 195.792 420.11 196.2 419.403 198.402 415.297 200.985 411.355 203.949 407.738 204.874 406.487 206.152 405.617 207.566 405.046L207.158 396.943 209.687 393.653C209.768 393.572 209.931 393.49 210.013 393.49 210.067 393.49 210.149 393.49 210.23 393.49L210.312 393.572 211.971 394.659C213.303 395.448 214.581 396.4 215.75 397.433 218.36 399.635 219.992 402.762 220.318 406.243 219.91 409.614 221.188 413.013 223.69 415.379 224.424 416.249 225.267 417.119 226.219 417.962 227.089 418.751 228.04 419.458 229.047 420.164L230.488 419.24C230.624 419.158 230.868 419.158 231.031 419.403 232.201 420.817 234.267 421.361 235.98 420.572 237.394 419.24 239.542 418.832 241.418 419.539 241.582 419.621 241.745 419.539 241.881 419.403 241.881 419.322 241.962 419.158 241.962 419.077 241.962 418.995 241.881 418.832 241.826 418.832L234.485 410.974C234.322 410.811 234.104 410.648 233.859 410.566 233.533 410.566 233.316 410.648 233.071 410.729L231.113 411.98C230.787 412.225 230.324 412.225 229.917 411.98 229.753 411.898 229.618 411.762 229.536 411.518 229.454 411.273 229.454 411.056 229.454 410.892L229.753 409.152C229.835 408.69 229.618 408.2 229.21 407.983 228.258 407.493 227.469 406.786 226.926 405.835 226.3 404.91 225.974 403.877 225.974 402.844L225.675 392.538C224.886 392.294 224.016 391.913 223.228 391.369 222.439 390.717 221.732 390.01 221.27 389.058 220.78 388.188 220.481 387.236 220.4 386.203 220.318 385.278 220.4 384.327 220.699 383.538 223.064 379.514 224.642 375.027 225.131 370.296 225.267 366.381 224.642 362.438 223.391 358.74 226.056 358.658 228.747 359.529 230.95 361.106 233.152 362.656 234.729 364.885 235.6 367.468 236.062 369.372 236.143 371.411 235.899 373.287 235.899 374.783 235.98 376.36 236.388 377.937 236.687 379.514 237.258 381.091 237.965 382.668 238.754 384.245 239.678 385.822 240.875 387.236 241.962 388.65 243.376 389.928 244.872 391.043 246.394 392.076 248.026 393.001 249.766 393.653 251.425 394.279 253.219 394.741 254.96 394.904 256.7 395.149 258.358 395.149 260.017 394.986 261.567 394.741 263.062 394.442 264.504 393.952 264.884 393.789 265.211 393.409 265.211 392.919 265.211 392.457 264.966 392.076 264.504 391.913 258.821 389.683 254.334 385.278 251.969 379.677 248.434 373.287 245.66 366.435 243.866 359.365 243.322 358.414 242.615 357.544 241.881 356.673 241.092 355.885 240.249 355.096 239.298 354.308 237.394 352.894 235.11 351.806 232.69 351.262 230.243 350.691 227.714 350.61 225.349 351.099 224.179 351.262 223.064 351.643 221.977 352.051 220.944 352.432 219.992 352.975 219.067 353.547 218.36 354.009 217.327 354.009 216.62 353.465 211.427 349.821 205.2 347.945 198.865 348.108 192.583 348.271 186.438 350.474 181.462 354.308 178.961 356.538 176.269 358.414 173.359 360.072L186.601 377.719 186.112 383.457C188.233 383.919 190.517 383.783 192.665 383.076 192.176 387.562 193.589 392.076 196.58 395.529 196.662 403.415 194.215 411.056 189.592 417.337Z" fill="#FFFFFF"/><path d="M177.9 342.262 159.764 353.411C159.22 353.791 158.649 354.281 158.187 354.906 157.724 355.531 157.398 356.238 157.235 357.027 157.099 357.815 157.153 358.686 157.317 359.393 157.48 360.181 157.888 360.807 158.268 361.35L175.317 384.191C176.16 385.306 177.356 386.013 178.689 386.149 180.021 386.393 181.353 386.094 182.468 385.224 182.931 384.898 183.42 384.435 183.801 383.81 184.127 383.239 184.372 382.532 184.508 381.825 184.589 381.118 184.508 380.493 184.372 379.786 184.209 379.16 183.882 378.535 183.583 378.046L171.048 361.35C170.749 360.888 170.504 360.263 170.667 359.637 170.749 359.311 170.885 358.985 171.048 358.767 171.211 358.522 171.456 358.278 171.673 358.142L190.734 346.395C191.985 345.688 193.018 344.41 193.562 342.833 194.052 341.175 193.889 339.598 193.345 338.265L183.638 315.098C183.257 314.174 182.713 313.304 181.761 312.515 180.891 311.808 179.722 311.237 178.444 311.101 177.112 310.938 175.942 311.183 174.828 311.645 173.74 312.107 172.951 312.814 172.38 313.603L150.954 341.419C150.084 342.507 149.676 343.839 149.921 345.199 150.084 346.64 150.791 347.809 151.878 348.679 152.368 349.006 152.912 349.305 153.537 349.549 154.244 349.713 154.951 349.794 155.658 349.631 156.365 349.549 157.018 349.305 157.643 349.006 158.187 348.598 158.649 348.217 159.057 347.728L170.504 332.745C170.586 332.664 170.749 332.582 170.885 332.582 170.967 332.582 170.967 332.582 171.048 332.664 171.13 332.664 171.211 332.745 171.211 332.745L178.063 341.555C178.063 341.637 178.145 341.8 178.145 341.963 178.063 342.126 177.982 342.208 177.9 342.262Z" fill="#FFFFFF"/><path d="M176.785 303.379C176.785 301.476 175.97 299.681 174.61 298.322 173.278 296.989 171.456 296.282 169.58 296.282 167.676 296.282 165.8 296.989 164.468 298.322 163.135 299.681 162.401 301.476 162.401 303.379 162.401 305.337 163.135 307.159 164.468 308.491 165.8 309.851 167.676 310.558 169.58 310.558 171.456 310.558 173.278 309.851 174.61 308.491 175.97 307.159 176.785 305.337 176.785 303.379Z" fill="#FFFFFF"/><path d="M131.268 359.229C132.437 359.936 133.47 360.97 134.259 362.22 135.047 363.471 135.428 364.831 135.509 366.245L135.754 369.943C136.053 372.934 137.25 375.843 138.963 378.29 132.355 380.955 126.346 384.979 121.316 390.01 121.234 390.091 121.153 390.091 121.071 390.173 120.609 390.254 119.983 390.418 119.494 390.798 118.95 391.206 118.542 391.75 118.243 392.375 117.998 393.001 117.835 393.708 117.917 394.36 117.998 394.986 118.243 395.529 118.542 395.992L119.657 407.82C119.82 408.826 120.446 409.778 121.316 410.403 122.186 411.056 123.273 411.273 124.388 411.11 125.095 411.056 125.802 411.273 126.264 411.762 128.467 414.047 131.648 414.971 134.721 414.264 136.923 414.047 139.044 414.672 140.703 416.167 141.111 416.548 141.655 416.874 142.28 417.119 142.905 417.337 143.531 417.5 144.265 417.418 144.972 417.418 145.679 417.173 146.223 416.874 146.848 416.548 147.31 416.167 147.718 415.76L141.111 408.771 136.706 408.826 136.38 407.983C136.298 407.738 136.135 407.493 135.972 407.412 135.754 407.276 135.509 407.194 135.265 407.194L131.186 407.657C130.561 407.575 129.908 407.493 129.364 407.113 128.712 406.786 128.168 406.324 127.76 405.699 127.379 405.046 127.135 404.339 127.135 403.632 127.053 403.007 127.216 402.382 127.461 401.838 128.005 400.723 128.385 399.472 128.63 398.221 128.875 396.943 128.984 395.693 128.875 394.442L145.189 388.596C145.026 391.206 145.978 393.708 147.881 395.529 148.806 396.4 149.295 397.569 149.295 398.847 149.132 402.925 151.036 406.868 154.326 409.397 157.235 414.346 158.812 420.029 158.894 425.766 157.153 427.805 155.658 429.953 154.326 432.292 154.244 432.455 154.162 432.618 154.326 432.863 154.407 432.944 154.489 433.026 154.57 433.026 154.652 433.08 154.733 433.08 154.815 433.08L164.413 433.08C164.957 433.08 165.583 432.863 166.072 432.373 166.534 431.911 166.698 431.286 166.616 430.742 166.453 429.165 165.909 427.669 164.957 426.391 164.495 425.766 164.169 424.977 164.25 424.026 164.332 423.183 164.794 422.394 165.365 421.905L167.241 420.328C163.38 414.753 160.389 408.69 158.268 402.3 157.153 397.27 156.936 392.158 157.643 387.019 162.51 389.303 168.193 389.466 173.223 387.345 173.55 387.182 173.849 386.883 174.012 386.475 174.012 386.23 174.012 386.013 174.012 385.849 173.93 385.605 173.849 385.442 173.767 385.306L156.773 362.465C155.658 361.051 155.196 359.311 155.359 357.489 155.44 355.776 156.229 354.036 157.48 352.84 155.658 353.247 153.7 353.003 151.96 352.133 150.301 351.29 148.969 349.794 148.18 348.054 147.392 346.314 147.31 344.356 147.881 342.534 148.344 340.658 149.54 339.081 151.09 337.966 146.141 332.12 140.485 326.927 134.096 322.576 130.316 319.911 125.558 318.742 120.908 319.367 118.95 319.531 117.128 320.292 115.633 321.733 115.334 321.951 114.926 322.195 114.545 322.195 114.056 322.277 113.593 322.195 113.267 321.951L107.448 317.709C106.904 317.247 106.116 317.247 105.572 317.627 105.001 318.089 104.865 318.796 105.083 319.449 105.953 320.863 106.415 322.522 106.497 324.235 106.497 325.975 106.116 327.715 105.327 329.129L103.506 333.371C105.083 336.607 105.572 340.332 105.001 343.867 104.702 344.981 104.539 346.015 104.62 347.102 104.62 348.217 104.784 349.305 105.001 350.338L107.693 352.704C108.237 353.411 109.025 353.954 110.059 354.036 111.146 354.118 112.016 353.71 112.723 353.166 113.349 353.954 114.464 354.281 115.415 353.791 116.34 353.329 116.829 352.296 116.503 351.29 115.334 350.093 114.708 348.435 114.844 346.776 115.878 345.851 116.666 344.655 117.291 343.404 117.917 342.153 118.325 340.794 118.406 339.38L121.533 342.534C121.941 342.942 122.186 343.404 122.186 343.948 122.322 347.102 123.192 350.093 124.769 352.785 126.346 355.45 128.549 357.652 131.268 359.229Z" fill="#FFFFFF"/><path d="M89.2575 435.065C92.4933 439.307 96.0281 443.413 99.8076 447.274 103.669 451.053 107.775 454.588 112.016 457.824L272.851 296.989C269.616 292.666 266.053 288.642 262.274 284.78 258.44 281.001 254.416 277.466 250.092 274.23L89.2575 435.065Z" fill="#FF0000"/></g></svg>