<svg width="230" height="230" xmlns="http://www.w3.org/2000/svg" xmlns:xlink="http://www.w3.org/1999/xlink" xml:space="preserve" overflow="hidden"><g transform="translate(-936 -450)"><path d="M1165.72 565C1165.72 549.96 1162.82 534.997 1157.06 521.067 1151.3 507.164 1142.82 494.475 1132.12 483.854 1121.5 473.233 1108.84 464.782 1094.91 459.019 1080.98 453.256 1066.01 450.258 1050.97 450.258 1035.93 450.258 1020.97 453.256 1007.04 459.019 993.112 464.782 980.475 473.233 969.854 483.854 959.233 494.475 950.756 507.164 944.993 521.067 939.23 534.997 936.258 549.96 936.258 565 936.258 580.04 939.23 595.029 944.993 608.933 950.756 622.862 959.233 635.499 969.854 646.12 980.475 656.845 993.112 665.296 1007.04 671.058 1020.97 676.821 1035.93 679.742 1050.97 679.742 1066.01 679.742 1080.98 676.821 1094.91 671.058 1108.84 665.296 1121.5 656.845 1132.12 646.12 1142.82 635.499 1151.3 622.862 1157.06 608.933 1162.82 595.029 1165.72 580.04 1165.72 565Z" fill="#FFFFFF"/><path d="M1165.72 565C1165.72 549.934 1162.82 534.971 1157.06 521.042 1151.3 507.138 1142.82 494.475 1132.12 483.854 1121.5 473.233 1108.86 464.782 1094.93 459.019 1081 453.256 1066.04 450.258 1050.97 450.258" stroke="#343434" stroke-width="0.516854" stroke-linejoin="round" fill="none"/><path d="M1051 450.258C1035.96 450.258 1021 453.256 1007.07 459.019 993.138 464.782 980.501 473.233 969.88 483.854 959.258 494.475 950.782 507.138 945.019 521.042 939.23 534.971 936.258 549.934 936.258 565" stroke="#343434" stroke-width="0.516854" stroke-linejoin="round" fill="none"/><path d="M936.258 564.974C936.258 580.015 939.23 595.003 945.019 608.907 950.782 622.836 959.258 635.473 969.88 646.094 980.501 656.819 993.138 665.27 1007.07 671.033 1021 676.821 1035.96 679.742 1051 679.742" stroke="#343434" stroke-width="0.516854" stroke-linejoin="round" fill="none"/><path d="M1050.97 679.742C1066.04 679.742 1081 676.821 1094.93 671.033 1108.86 665.27 1121.5 656.819 1132.12 646.094 1142.82 635.473 1151.3 622.836 1157.06 608.907 1162.82 595.003 1165.72 580.015 1165.72 564.974" stroke="#343434" stroke-width="0.516854" stroke-linejoin="round" fill="none"/><path d="M1160.11 565C1160.11 550.709 1157.34 536.495 1151.81 523.238 1146.33 510.007 1138.35 497.964 1128.17 487.86 1118.06 477.729 1106.02 469.64 1092.74 464.162 1079.48 458.709 1065.34 455.866 1050.97 455.866 1036.68 455.866 1022.47 458.709 1009.21 464.162 995.981 469.64 983.912 477.729 973.808 487.86 963.703 497.964 955.64 510.007 950.162 523.238 944.709 536.495 941.866 550.709 941.866 565 941.866 579.369 944.709 593.53 950.162 606.762 955.64 620.019 963.703 632.062 973.808 642.166 983.912 652.348 995.981 660.36 1009.21 665.812 1022.47 671.343 1036.68 674.134 1050.97 674.134 1065.34 674.134 1079.48 671.343 1092.74 665.812 1106.02 660.36 1118.06 652.348 1128.17 642.166 1138.35 632.062 1146.33 620.019 1151.81 606.762 1157.34 593.53 1160.11 579.369 1160.11 565Z" fill="#0055FF"/><path d="M1041.26 541.276C1042.29 542.026 1043.48 542.62 1044.9 542.93 1046.4 543.24 1047.9 543.24 1049.4 542.853 1050.9 542.491 1052.24 541.819 1053.38 540.837 1054.49 539.855 1055.24 538.821 1055.83 537.607L1060.56 537.607 1068.78 537.607 1071.42 537.607C1071.62 538.434 1071.93 539.338 1072.29 540.165 1072.68 540.992 1073.2 541.871 1073.79 542.62 1075.06 544.274 1076.79 545.54 1078.81 546.367 1080.9 547.194 1082.99 547.427 1085.06 547.117 1086.09 546.962 1087 546.755 1087.9 546.445 1088.78 546.083 1089.53 545.618 1090.28 545.179 1090.95 544.714 1091.62 544.119 1092.32 543.447 1092.92 542.775 1093.51 542.026 1094.03 541.121 1095.09 539.338 1095.68 537.322 1095.68 535.074 1095.68 532.903 1095.17 530.81 1094.11 529.001 1093.67 528.122 1093.07 527.373 1092.37 526.701 1091.78 526.029 1091.11 525.409 1090.44 524.97 1089.69 524.453 1088.94 523.988 1088.03 523.703 1087.23 523.316 1086.25 523.031 1085.27 522.876 1083.23 522.566 1081.06 522.799 1079.04 523.548 1076.95 524.375 1075.21 525.642 1073.95 527.218 1073.28 527.967 1072.76 528.872 1072.37 529.673 1071.93 530.5 1071.7 531.327 1071.47 532.154L1056.66 532.154C1056.74 529.311 1056.66 526.391 1056.38 523.471 1056.14 520.551 1055.63 517.708 1054.93 514.865L1055.47 514.71C1056.58 514.503 1057.33 513.366 1057.05 512.255L1056.07 507.991 1056.97 507.758 1056.66 506.415 1055.16 506.776 1054.13 502.151C1054.05 501.918 1053.89 501.685 1053.58 501.556 1053.38 501.401 1053.07 501.324 1052.83 501.401L1052.16 501.556C1051.96 501.608 1051.72 501.763 1051.57 501.996 1051.34 502.28 1051.34 502.59 1051.41 502.822L1052.47 507.371 1050.66 507.836 1049.63 503.184C1049.55 502.978 1049.4 502.745 1049.19 502.59 1049.04 502.512 1048.88 502.435 1048.73 502.435 1048.65 502.435 1048.49 502.435 1048.36 502.435L1047.69 502.59C1047.15 502.745 1046.79 503.262 1046.94 503.856L1047.98 508.43 1046.32 508.87 1046.63 510.213 1047.74 509.929 1048.8 514.193C1048.88 514.633 1049.19 515.175 1049.71 515.46 1049.91 515.615 1050.22 515.77 1050.53 515.77 1050.74 515.847 1051.05 515.77 1051.28 515.77L1051.8 515.615C1052.47 518.302 1052.91 521.067 1053.22 523.858 1053.38 525.202 1053.46 526.624 1053.46 528.045 1053.51 528.717 1053.51 529.389 1053.51 530.061 1053.51 530.81 1053.46 531.482 1053.46 532.154L1039.89 532.154 1027.02 513.961 1035.86 480.598 1045.29 480.598 1046.94 475.765 1031.15 475.765 1018.8 522.799C1017.97 522.721 1017.07 522.799 1016.16 523.031 1015.21 523.161 1014.3 523.471 1013.4 523.91 1011.54 524.737 1009.81 526.081 1008.54 527.812 1007.27 529.621 1006.52 531.637 1006.29 533.653 1006.21 534.687 1006.21 535.669 1006.29 536.573 1006.45 537.478 1006.68 538.356 1006.96 539.106 1007.2 539.933 1007.56 540.76 1008.1 541.509 1008.62 542.336 1009.21 543.085 1009.88 543.835 1011.38 545.256 1013.24 546.29 1015.36 546.884 1017.46 547.427 1019.63 547.427 1021.57 546.884 1022.55 546.6 1023.43 546.29 1024.25 545.851 1025.08 545.411 1025.83 544.869 1026.5 544.352 1027.1 543.757 1027.69 543.163 1028.31 542.413 1028.83 541.664 1029.34 540.837 1029.73 539.855 1030.53 537.994 1030.92 535.901 1030.69 533.73 1030.4 531.56 1029.65 529.544 1028.44 527.89 1027.84 527.063 1027.17 526.313 1026.5 525.719 1025.75 525.125 1025 524.66 1024.25 524.22L1025.52 519.724 1038.26 537.607 1039.22 539.028C1039.84 539.855 1040.51 540.604 1041.26 541.276ZM1085.27 537.607C1085.66 537.4 1086.02 537.012 1086.25 536.495 1086.56 536.056 1086.69 535.436 1086.61 534.842 1086.61 534.247 1086.4 533.653 1086.09 533.214 1085.81 532.748 1085.42 532.387 1084.98 532.154L1076.2 532.154C1076.56 531.172 1077.18 530.216 1078.06 529.389 1078.96 528.562 1080.1 527.89 1081.37 527.502 1082.55 527.218 1083.92 527.14 1085.14 527.451 1086.33 527.735 1087.31 528.252 1088.11 528.872 1088.94 529.544 1089.76 530.345 1090.28 531.482 1090.9 532.516 1091.19 533.808 1091.19 535.074 1091.19 536.418 1090.82 537.607 1090.2 538.744 1089.61 539.778 1088.86 540.604 1087.98 541.276 1087.15 541.871 1086.09 542.336 1084.91 542.62 1083.72 542.853 1082.4 542.775 1081.13 542.413 1079.87 542.026 1078.81 541.354 1077.93 540.449 1077.02 539.648 1076.51 538.589 1076.12 537.607L1085.27 537.607ZM1017.59 527.373 1015.36 535.824C1015.49 536.34 1015.8 536.857 1016.16 537.322 1016.63 537.762 1017.15 537.994 1017.66 538.149 1018.21 538.279 1018.8 538.279 1019.39 538.149 1019.99 537.994 1020.43 537.607 1020.89 537.245L1023.06 528.794C1023.89 529.389 1024.72 530.216 1025.31 531.327 1025.91 532.387 1026.19 533.653 1026.19 534.919 1026.27 536.185 1025.91 537.478 1025.39 538.589 1024.85 539.648 1024.02 540.527 1023.22 541.121 1022.47 541.819 1021.41 542.336 1020.22 542.543 1019.01 542.853 1017.74 542.853 1016.47 542.491 1015.21 542.181 1014.15 541.587 1013.24 540.682 1012.37 539.855 1011.69 538.899 1011.31 537.994 1010.94 537.012 1010.71 535.901 1010.71 534.687 1010.79 533.42 1011.15 532.231 1011.82 531.094 1012.52 529.983 1013.4 529.079 1014.46 528.407 1014.98 528.122 1015.49 527.89 1016.03 527.657 1016.24 527.58 1016.55 527.502 1016.78 527.451 1016.91 527.451 1017.07 527.451 1017.22 527.373 1017.3 527.373 1017.46 527.373 1017.59 527.373ZM1041.98 537.607 1052.09 537.607C1051.49 538.279 1050.82 538.899 1049.91 539.338 1049.04 539.778 1048.05 540.01 1047.02 540.01 1045.96 540.01 1044.98 539.778 1044.1 539.338 1043.27 538.899 1042.52 538.279 1041.98 537.607Z" fill="#FFFFFF"/><path d="M1055.91 625.782 1071.34 625.782C1071.42 627.048 1071.62 628.392 1071.93 629.736 1072.29 631.002 1072.76 632.372 1073.35 633.716 1074.54 636.326 1076.27 638.729 1078.52 640.745 1080.77 642.838 1083.3 644.337 1086.07 645.319 1087.41 645.836 1088.76 646.12 1090.13 646.353 1091.47 646.585 1092.81 646.663 1094.08 646.585 1095.5 646.585 1096.92 646.508 1098.34 646.198 1099.77 645.991 1101.26 645.526 1102.69 645.009 1105.55 643.82 1108.24 642.089 1110.57 639.84 1112.89 637.515 1114.62 634.827 1115.74 631.907 1116.33 630.485 1116.72 629.064 1117 627.643 1117.23 626.221 1117.39 624.8 1117.39 623.379 1117.39 621.776 1117.23 620.071 1116.85 618.339 1116.49 616.608 1115.89 614.825 1115.06 613.093 1114.16 611.388 1113.13 609.734 1111.76 608.157 1110.41 606.658 1108.91 605.237 1107.21 604.126 1105.48 602.937 1103.62 602.033 1101.65 601.438 1099.69 600.766 1097.75 600.379 1095.81 600.224 1093.92 600.146 1092.06 600.224 1090.26 600.534 1088.55 600.818 1086.9 601.361 1085.4 601.955L1079.79 592.006 1082.86 587.431 1087.21 587.431C1087.57 587.431 1088.01 587.276 1088.32 586.992 1088.63 586.682 1088.76 586.32 1088.76 585.933L1088.76 580.557C1088.63 579.937 1088.16 579.343 1087.33 579.136 1086.97 579.058 1086.59 579.058 1086.3 579.136 1085.91 579.188 1085.63 579.343 1085.4 579.498L1073.2 584.149C1072.37 584.279 1071.86 585.028 1071.93 585.855 1072.01 586.682 1072.6 587.354 1073.43 587.431L1077.18 587.431 1074.62 591.256 1029.94 591.256 1031.82 587.871 1030.02 580.764 1043.04 580.764C1043.79 580.764 1044.46 580.48 1044.98 579.937 1045.52 579.42 1045.81 578.748 1045.81 577.999 1045.81 577.327 1045.57 576.578 1044.98 575.983 1044.46 575.466 1043.71 575.234 1043.04 575.156L1031.28 575.156C1030.17 575.389 1029.06 575.906 1027.92 576.733 1026.89 577.56 1025.98 578.748 1025.44 580.092 1024.92 581.513 1024.77 582.935 1025 584.279 1025.23 585.648 1025.75 586.76 1026.42 587.664L1018.26 602.704C1016.78 602.033 1015.13 601.438 1013.32 600.973 1011.62 600.611 1009.65 600.301 1007.64 600.379 1005.62 600.379 1003.6 600.689 1001.59 601.283 999.573 601.878 997.609 602.704 995.748 603.816 993.939 604.953 992.234 606.297 990.812 607.873 989.391 609.424 988.176 611.078 987.298 612.887 986.316 614.592 985.644 616.479 985.256 618.184 984.817 619.993 984.584 621.699 984.584 623.379 984.584 624.8 984.662 626.221 984.972 627.643 985.179 629.064 985.644 630.485 986.161 631.907 987.349 634.827 989.081 637.515 991.407 639.84 993.655 642.089 996.343 643.82 999.263 645.009 1000.68 645.526 1002.11 645.991 1003.6 646.198 1005.03 646.508 1006.45 646.585 1007.79 646.585 1009.13 646.585 1010.56 646.508 1012.06 646.198 1013.48 645.991 1014.9 645.526 1016.32 645.009 1019.24 643.82 1021.93 642.089 1024.25 639.84 1026.5 637.515 1028.31 634.827 1029.42 631.907 1029.94 630.485 1030.4 629.064 1030.61 627.643 1030.92 626.221 1031.08 624.8 1031.08 623.379 1031.08 619.916 1030.25 616.556 1028.67 613.481 1027.17 610.406 1024.85 607.718 1022.08 605.702L1025.44 599.552 1055.01 625.472C1055.24 625.704 1055.55 625.782 1055.91 625.782ZM1019.47 609.372C1020.82 610.483 1022.08 611.827 1023.14 613.481 1024.18 615.057 1024.92 616.763 1025.44 618.649 1025.98 620.51 1026.19 622.474 1026.14 624.361 1025.98 626.221 1025.6 628.03 1025 629.658 1024.41 631.312 1023.58 632.966 1022.47 634.465 1021.33 635.964 1019.91 637.308 1018.33 638.419 1016.78 639.556 1014.98 640.357 1013.19 640.978 1011.38 641.494 1009.6 641.779 1007.79 641.779 1006.76 641.779 1005.62 641.649 1004.43 641.494 1003.29 641.262 1002.18 640.9 1001.05 640.435 998.746 639.556 996.653 638.187 994.766 636.403 992.983 634.594 991.639 632.424 990.735 630.201 990.27 629.064 989.908 627.875 989.753 626.738 989.52 625.627 989.391 624.516 989.391 623.379 989.391 622.112 989.52 620.743 989.83 619.321 990.14 617.978 990.657 616.479 991.329 615.135 992.001 613.714 992.906 612.344 994.017 611.155 995.154 609.889 996.42 608.752 997.842 607.873 999.263 606.969 1000.84 606.297 1002.42 605.831 1003.97 605.315 1005.54 605.082 1007.12 605.03 1008.7 605.03 1010.19 605.16 1011.62 605.47 1013.04 605.78 1014.3 606.297 1015.49 606.813L1007.27 619.528C1006.21 619.761 1005.31 620.355 1004.64 621.182 1004.04 622.035 1003.76 623.094 1003.76 624.128 1003.84 625.188 1004.28 626.221 1005.03 626.971 1005.78 627.72 1006.76 628.16 1007.79 628.237 1009.44 628.392 1011.02 627.565 1011.82 626.144 1012.21 625.472 1012.44 624.722 1012.37 623.896 1012.37 623.094 1012.06 622.267 1011.62 621.621L1019.47 609.372ZM1057.18 621.027 1028.67 596.037 1072.91 596.037 1059.35 621.027 1057.18 621.027ZM1081.21 604.126C1078.29 605.909 1075.81 608.39 1074.1 611.31 1072.37 614.308 1071.42 617.59 1071.26 621.027L1064.83 621.027 1077.46 597.613 1081.21 604.126ZM1094.52 618.856 1087.49 606.297C1088.63 605.831 1089.97 605.47 1091.31 605.237 1092.74 604.953 1094.16 604.875 1095.66 605.03 1097.23 605.082 1098.73 605.47 1100.28 605.987 1101.78 606.529 1103.23 607.201 1104.57 608.157 1105.94 609.062 1107.21 610.121 1108.16 611.388 1109.22 612.576 1110.13 613.92 1110.72 615.264 1111.39 616.608 1111.83 618.029 1112.14 619.399 1112.45 620.82 1112.51 622.19 1112.51 623.379 1112.51 624.516 1112.45 625.627 1112.22 626.738 1111.99 627.875 1111.7 629.064 1111.24 630.201 1110.33 632.424 1108.91 634.594 1107.13 636.403 1105.32 638.187 1103.15 639.556 1100.9 640.435 1099.77 640.9 1098.58 641.262 1097.44 641.494 1096.33 641.649 1095.19 641.779 1094.08 641.779 1092.06 641.856 1089.97 641.572 1087.8 640.822 1085.71 640.073 1083.69 638.936 1081.88 637.385 1080.1 635.809 1078.73 633.922 1077.7 631.907 1076.71 629.891 1076.2 627.798 1075.96 625.782L1092.06 625.782C1092.66 625.549 1093.25 625.239 1093.72 624.722 1094.23 624.283 1094.67 623.611 1094.91 622.939 1095.14 622.19 1095.19 621.415 1095.14 620.743 1095.06 620.071 1094.83 619.399 1094.52 618.856ZM1087.88 621.027 1076.2 621.027C1076.35 618.649 1077.1 616.246 1078.37 613.998 1079.63 611.827 1081.37 610.044 1083.38 608.674L1089.07 618.934C1089.3 619.321 1089.38 619.838 1089.07 620.278 1088.76 620.82 1088.32 621.027 1087.88 621.027Z" fill="#FEFEFE"/><path d="M963.781 630.64C966.856 634.672 970.138 638.574 973.808 642.166 977.4 645.836 981.302 649.195 985.411 652.271L1138.27 499.411C1135.2 495.302 1131.84 491.426 1128.17 487.834 1124.57 484.164 1120.67 480.856 1116.56 477.807L963.781 630.64Z" fill="#FF0000"/></g></svg>