<?xml version="1.0" encoding="UTF-8" standalone="no"?>
<svg
   viewBox="0 0 307.50001 307.50001"
   version="1.1"
   id="svg50"
   sodipodi:docname="Spain traffic signal r514, 2023 set.svg"
   width="307.5"
   height="307.5"
   inkscape:version="1.1.2 (b8e25be833, 2022-02-05)"
   xmlns:inkscape="http://www.inkscape.org/namespaces/inkscape"
   xmlns:sodipodi="http://sodipodi.sourceforge.net/DTD/sodipodi-0.dtd"
   xmlns="http://www.w3.org/2000/svg"
   xmlns:svg="http://www.w3.org/2000/svg">
  <sodipodi:namedview
     id="namedview52"
     pagecolor="#ffffff"
     bordercolor="#666666"
     borderopacity="1.0"
     inkscape:pageshadow="2"
     inkscape:pageopacity="0.0"
     inkscape:pagecheckerboard="0"
     showgrid="false"
     inkscape:snap-intersection-paths="false"
     inkscape:object-nodes="true"
     inkscape:snap-smooth-nodes="false"
     inkscape:snap-bbox="false"
     inkscape:snap-bbox-edge-midpoints="false"
     inkscape:bbox-nodes="false"
     showguides="true"
     inkscape:guide-bbox="true"
     inkscape:object-paths="false"
     inkscape:snap-bbox-midpoints="false"
     inkscape:zoom="2"
     inkscape:cx="144.75"
     inkscape:cy="137.25"
     inkscape:window-width="1920"
     inkscape:window-height="1001"
     inkscape:window-x="-9"
     inkscape:window-y="-9"
     inkscape:window-maximized="1"
     inkscape:current-layer="Capa_1-2">
    <sodipodi:guide
       position="-345.73232,687.9091"
       orientation="0,-1"
       id="guide1263" />
  </sodipodi:namedview>
  <defs
     id="defs4">
    <style
       id="style2">.cls-1{fill:#fff;}.cls-1,.cls-3,.cls-4{fill-rule:evenodd;}.cls-2{fill:none;stroke:#343434;stroke-linejoin:round;stroke-width:0.48px;}.cls-3{fill:#05f;}.cls-4{fill:#010101;}</style>
  </defs>
  <g
     id="Capa_2"
     data-name="Capa 2">
    <g
       id="Capa_1-2"
       data-name="Capa 1">
      <path
         d="m 307,153.69999 c 0,-20.1 -3.9,-39.99999 -11.6,-58.599993 -7.7,-18.6 -19,-35.499998 -33.3,-49.700002 C 247.9,31.1 231,19.799997 212.4,12.099995 193.8,4.4 173.9,0.5 153.8,0.5 133.6,0.5 113.7,4.4 95.1,12.099994 76.5,19.799997 59.6,31.1 45.4,45.399995 31.1,59.6 19.8,76.499997 12.1,95.099997 4.4,113.7 0.5,133.59999 0.5,153.69999 c 0,20.2 3.9,40.10001 11.6,58.7 7.7,18.6 19,35.5 33.3,49.7 14.2,14.3 31.1,25.6 49.7,33.3 18.6,7.7 38.5,11.6 58.7,11.6 20.1,0 40,-3.9 58.6,-11.6 18.6,-7.7 35.5,-19 49.7,-33.3 14.3,-14.2 25.6,-31.1 33.3,-49.7 7.7,-18.59999 11.6,-38.5 11.6,-58.7"
         style="fill:#ffffff;fill-opacity:1;fill-rule:evenodd;stroke:none;stroke-width:0.999997;stroke-miterlimit:4;stroke-dasharray:none;stroke-opacity:1"
         id="path24-8-9"
         mask="none"
         inkscape:label="path44" />
      <path
         d="m 307,153.69999 c 0,-20.1 -3.9,-39.99999 -11.6,-58.599993 -7.7,-18.6 -19,-35.499998 -33.3,-49.700002 C 247.9,31.1 231,19.799997 212.4,12.099995 193.8,4.4 173.9,0.5 153.8,0.5 133.6,0.5 113.7,4.4 95.1,12.099994 76.5,19.799997 59.6,31.1 45.4,45.399995 31.1,59.6 19.8,76.499997 12.1,95.099997 4.4,113.7 0.5,133.59999 0.5,153.69999 c 0,20.2 3.9,40.10001 11.6,58.7 7.7,18.6 19,35.5 33.3,49.7 14.2,14.3 31.1,25.6 49.7,33.3 18.6,7.7 38.5,11.6 58.7,11.6 20.1,0 40,-3.9 58.6,-11.6 18.6,-7.7 35.5,-19 49.7,-33.3 14.3,-14.2 25.6,-31.1 33.3,-49.7 7.7,-18.59999 11.6,-38.5 11.6,-58.7"
         style="fill:none;fill-opacity:1;fill-rule:evenodd;stroke:#000000;stroke-width:1;stroke-miterlimit:4;stroke-dasharray:none;stroke-opacity:1"
         id="path24-8-9-2"
         mask="none"
         inkscape:label="path48" />
      <path
         d="m 299.6,153.69999 c 0,-19.1 -3.8,-38.09999 -11.1,-55.799995 C 281.1,80.3 270.4001,64.199997 256.8,50.699997 243.3,37.1 227.2001,26.399997 209.6,18.999995 c -17.7,-7.299998 -36.7,-11.1 -55.8,-11.1 -19.1999,0 -38.0999,3.800002 -55.7999,11.1 C 80.3001,26.399997 64.2,37.1 50.7,50.699997 37.1001,64.199997 26.4,80.3 19.1001,97.899995 11.7,115.6 8.0001,134.59999 8.0001,153.69999 c 0,19.2 3.6999,38.1 11.1,55.8 7.2999,17.7 18,33.8 31.5999,47.3 13.5,13.6 29.6001,24.3 47.3001,31.6 17.7,7.4 36.6,11.1 55.7999,11.1 19.1,0 38.1,-3.7 55.8,-11.1 17.6001,-7.3 33.7,-18 47.2,-31.6 13.6001,-13.5 24.3,-29.6 31.7,-47.3 7.3,-17.7 11.1,-36.6 11.1,-55.8"
         style="fill:#0055ff;fill-opacity:1;fill-rule:evenodd;stroke:none;stroke-width:0.999997"
         id="path1729-0"
         inkscape:label="path52" />
      <path
         d="M 154.8002,75.399997 131.7001,132.9 h 6.0001 l 20.8999,-51.900001 h 60.4001 V 146 c 1,0.3 1.9,0.59999 2.7999,0.99999 1.0001,0.40001 1.9,0.70001 2.8,1.2 V 75.399997 h -69.7999"
         style="display:inline;fill:#fefefe;fill-opacity:1;fill-rule:evenodd;stroke:none;stroke-width:0.999997"
         id="path52-3"
         inkscape:label="path56" />
      <path
         d="m 74.8002,175.2 h 75.9999 l -5.4999,-27.8 5.9999,-6 4.8001,4.8 3.6999,-3.6 -13.3,-13.3 -3.5999,3.6 4.7999,4.89999 -3.5999,3.60001 -1.0001,-4.8 h -76 l 7.7001,38.6"
         style="display:inline;fill:#fefefe;fill-opacity:1;fill-rule:evenodd;stroke:none;stroke-width:0.999997"
         id="path56-8"
         inkscape:label="path60" />
      <path
         d="m 151.3001,177.6 1.9,9.69998 h -43.3999 c -1.2,-2.29998 -2.7,-4.29998 -4.7001,-5.99999 -2,-1.69999 -4.3,-2.89999 -6.6999,-3.69999 h 52.8999"
         style="display:inline;fill:#fefefe;fill-opacity:1;fill-rule:evenodd;stroke:none;stroke-width:0.999997"
         id="path60-7"
         inkscape:label="path64" />
      <path
         d="m 86.8002,177.6 c -6,0 -11.9,2.4 -16.2,6.69999 -4.3,4.3 -6.7,10.2 -6.7,16.2 0,1.4 0.1,2.80001 0.4,4.2 0.3,1.4 0.7,2.9 1.2,4.30001 1.2,2.79999 2.9,5.49999 5.1,7.8 2.3,2.19999 4.9999,3.89999 7.7999,5.09999 1.4001,0.5 2.9001,0.90001 4.3,1.2 1.4001,0.3 2.8001,0.4 4.1001,0.4 6.0999,0 12,-2.4 16.2999,-6.69999 4.3001,-4.30001 6.7001,-10.20001 6.7001,-16.30001 0,-1.3 -0.1,-2.70001 -0.4001,-4.1 -0.3,-1.4 -0.7,-2.9 -1.2,-4.3 -1.2,-2.8 -2.9,-5.5 -5.1,-7.8 -2.3,-2.19999 -4.9999,-3.89999 -7.8,-5.09999 -1.3999,-0.5 -2.8999,-0.90001 -4.3,-1.20001 C 89.6001,177.7 88.2001,177.6 86.8002,177.6 m 0,14.49999 c 1.0999,0 2.0999,0.2 3.1999,0.6 1,0.4 2,1 2.8,1.9 0.9,0.8 1.5,1.8 1.9,2.8 0.4001,1.10001 0.6,2.1 0.6,3.1 0,2.3 -0.9,4.4 -2.5,6 -1.5999,1.6 -3.7,2.50001 -5.9999,2.50001 -1,0 -2.0001,-0.20001 -3.1,-0.60001 -1.0001,-0.4 -2,-1 -2.8001,-1.9 -0.9,-0.8 -1.5,-1.8 -1.9,-2.8 -0.3999,-1.1 -0.6,-2.19999 -0.6,-3.2 0,-2.2 0.9,-4.3 2.5,-5.9 1.6001,-1.6 3.7001,-2.5 5.9001,-2.5"
         style="display:inline;fill:#fefefe;fill-opacity:1;fill-rule:evenodd;stroke:none;stroke-width:0.999997"
         id="path64-1"
         inkscape:label="path68" />
      <path
         d="m 207.0001,149.79999 c -2.2,0 -4.5,0.20001 -6.7,0.70001 -2.3,0.4 -4.6,1 -6.9,1.9 -4.5999,1.8 -8.8,4.59999 -12.5001,8.2 -3.5999,3.7 -6.3999,7.9 -8.1999,12.5 -0.9,2.29999 -1.5,4.6 -1.9,6.9 -0.5,2.2 -0.7,4.5 -0.7,6.69999 0,4.8 1.0001,9.59999 2.8001,14.09999 1.8999,4.40001 4.6,8.50001 7.9998,11.90001 3.4001,3.4 7.5001,6.09999 12.0001,7.99999 4.4,1.8 9.2,2.80001 14.1,2.80001 4.7999,0 9.6,-1.00001 14.1,-2.80001 4.4,-1.9 8.5,-4.59999 11.9,-7.99999 3.4,-3.4 6.1,-7.5 8,-11.90001 1.8,-4.5 2.8,-9.29999 2.8,-14.09999 0,-4.89999 -1,-9.69999 -2.8,-14.09999 -1.9,-4.5 -4.6,-8.6 -8,-12 -3.4,-3.4 -7.5,-6.1 -11.9,-8.00001 -4.5,-1.79999 -9.3001,-2.8 -14.1,-2.8 m 0,24.20001 c 3.2999,0 6.5,1.29999 8.9,3.7 2.4,2.4 3.7,5.6 3.7,8.99999 0,1.5 -0.1999,3.1 -0.9,4.6 -0.6,1.6 -1.5,3.1 -2.8,4.3 -1.2,1.3 -2.7,2.19999 -4.3,2.89999 -1.5,0.60001 -3.1,0.8 -4.6,0.8 -1.5,0 -3.1,-0.19999 -4.6999,-0.8 -1.6001,-0.7 -3.0001,-1.59999 -4.3001,-2.89999 -1.2001,-1.2 -2.2,-2.7 -2.8,-4.3 -0.6,-1.5 -0.9,-3.1 -0.9,-4.6 0,-3.39999 1.2999,-6.59999 3.7,-8.99999 2.4,-2.40001 5.6,-3.7 9,-3.7"
         style="display:inline;fill:#fefefe;fill-opacity:1;fill-rule:evenodd;stroke:none;stroke-width:0.999997"
         id="path68-1"
         inkscape:label="path72" />
      <path
         d="m 207.0001,117.3 c -0.1,-1.5 -0.3999,-3 -1.3,-4.5 -0.8,-1.5 -2.1,-2.9 -3.6999,-3.8 -1.6001,-1 -3.4001,-1.4 -5.1001,-1.4 -1.8,0.1 -3.3,0.5 -4.5,1.2 l -30,15.7 c -1.4999,0.7 -2.6,2 -3.2,3.5 -0.6,1.6 -0.5,3.3 0.2001,4.8 0.6999,1.5 1.9999,2.7 3.4999,3.3 1.6,0.5 3.2999,0.4 4.8,-0.3 l 17.4,-9.6 4.4,10.4 -20.1,4.3 c -1.4,0.3 -2.8,1 -3.9,2.1 -1.1,1 -1.9,2.29999 -2.4,3.7 l -7.9,29.69999 c -0.4,1.5 -0.2,3.1 0.5,4.5 0.8,1.30001 2.1,2.3 3.6,2.70001 1.4,0.39999 3,0.29999 4.5,-0.5 1.4,-0.8 2.3,-2.20001 2.6999,-3.60001 l 7.3002,-27.19999 27.9999,-7.30001 c 1.4001,-0.39999 2.8,-1.29999 3.8001,-2.7 1,-1.39999 1.3999,-3 1.3999,-4.5 V 117.3"
         style="display:inline;fill:#fefefe;fill-opacity:1;fill-rule:evenodd;stroke:none;stroke-width:0.999997"
         id="path72-7"
         inkscape:label="path76" />
      <path
         d="m 196.7001,106.4 c 2.4,0 4.7001,-0.99999 6.4,-2.7 1.7,-1.7 2.7,-3.999993 2.7,-6.399993 0,-2.4 -1,-4.700003 -2.7,-6.400006 -1.6999,-1.699997 -4,-2.599997 -6.4,-2.599997 -2.4,0 -4.7,0.9 -6.3999,2.599997 -1.7001,1.700003 -2.7,4.000006 -2.7,6.400006 0,2.4 0.9999,4.699993 2.7,6.399993 1.6999,1.70001 3.9999,2.7 6.3999,2.7"
         style="display:inline;fill:#fefefe;fill-opacity:1;fill-rule:evenodd;stroke:none;stroke-width:0.999997"
         id="path76-2"
         inkscape:label="path80" />
      <path
         d="m 37.2002,241.29999 c 4.1,5.50001 8.6,10.7 13.4,15.5 4.9,4.90001 10.1,9.40001 15.5,13.5 L 270.3,66.100005 c -4.0998,-5.499998 -8.5998,-10.700003 -13.3999,-15.500003 -4.9,-4.899997 -10,-9.299999 -15.5,-13.399995 L 37.2002,241.29999"
         style="display:inline;fill:#ff0000;fill-opacity:1;fill-rule:evenodd;stroke:none;stroke-width:0.999997"
         id="path220-3"
         inkscape:label="path84" />
    </g>
  </g>
</svg>
