<svg width="306" height="306" xmlns="http://www.w3.org/2000/svg" xmlns:xlink="http://www.w3.org/1999/xlink" xml:space="preserve" overflow="hidden"><g transform="translate(-328 -257)"><path d="M633.759 410C633.759 389.99 629.771 370.186 622.104 351.654 614.437 333.122 603.194 316.275 589.063 302.04 574.829 287.909 557.947 276.632 539.449 268.965 520.918 261.298 501.113 257.344 481.103 257.344 460.99 257.344 441.186 261.298 422.654 268.965 404.122 276.632 387.309 287.909 373.075 302.04 358.944 316.275 347.667 333.122 339.999 351.654 332.332 370.186 328.344 389.99 328.344 410 328.344 430.113 332.332 449.918 339.999 468.449 347.667 486.981 358.944 503.794 373.075 518.028 387.309 532.159 404.122 543.437 422.654 551.104 441.186 558.771 460.99 562.725 481.103 562.725 501.113 562.725 520.918 558.771 539.449 551.104 557.947 543.437 574.829 532.159 589.063 518.028 603.194 503.794 614.437 486.981 622.104 468.449 629.771 449.918 633.759 430.113 633.759 410Z" fill="#FFFFFF"/><path d="M633.759 410C633.759 389.955 629.771 370.151 622.104 351.619 614.437 333.087 603.194 316.275 589.063 302.04 574.829 287.909 557.981 276.632 539.484 268.965 520.952 261.298 501.148 257.344 481.103 257.344" stroke="#343434" stroke-width="0.68764" stroke-linejoin="round" fill="none"/><path d="M481.138 257.344C461.024 257.344 441.22 261.298 422.688 268.965 404.156 276.632 387.343 287.909 373.109 302.04 358.978 316.275 347.701 333.087 340.034 351.619 332.332 370.151 328.344 389.955 328.344 410" stroke="#343434" stroke-width="0.68764" stroke-linejoin="round" fill="none"/><path d="M328.344 409.966C328.344 430.079 332.332 449.883 340.034 468.415 347.701 486.947 358.978 503.76 373.109 517.994 387.343 532.125 404.156 543.402 422.688 551.104 441.22 558.771 461.024 562.725 481.138 562.725" stroke="#343434" stroke-width="0.68764" stroke-linejoin="round" fill="none"/><path d="M481.103 562.725C501.148 562.725 520.952 558.771 539.484 551.104 557.981 543.402 574.829 532.125 589.063 517.994 603.194 503.76 614.437 486.947 622.104 468.415 629.771 449.883 633.759 430.079 633.759 409.966" stroke="#343434" stroke-width="0.68764" stroke-linejoin="round" fill="none"/><path d="M626.298 410C626.298 390.987 622.516 372.077 615.262 354.439 607.973 336.835 597.211 320.882 583.768 307.335 570.256 293.858 554.302 283.13 536.664 275.841 519.026 268.587 500.116 264.805 481.103 264.805 461.987 264.805 443.077 268.587 425.542 275.841 407.904 283.13 391.882 293.858 378.335 307.335 364.892 320.882 354.233 336.835 346.876 354.439 339.621 372.077 335.839 390.987 335.839 410 335.839 429.116 339.621 448.027 346.876 465.561 354.233 483.199 364.892 499.221 378.335 512.768 391.882 526.211 407.904 536.835 425.542 544.227 443.077 551.482 461.987 555.264 481.103 555.264 500.116 555.264 519.026 551.482 536.664 544.227 554.302 536.835 570.256 526.211 583.768 512.768 597.211 499.221 607.973 483.199 615.262 465.561 622.516 448.027 626.298 429.116 626.298 410Z" fill="#0055FF"/><path d="M519.061 344.777C519.061 343.161 518.373 341.649 517.273 340.48 516.173 339.379 514.66 338.795 513.044 338.795 511.462 338.795 509.984 339.379 508.781 340.48 507.68 341.649 507.096 343.161 507.096 344.777 507.096 346.187 507.577 347.769 508.781 348.972 510.087 350.278 511.566 350.76 513.044 350.76 514.66 350.76 516.173 350.175 517.273 348.972 518.373 347.872 519.061 346.393 519.061 344.777Z" fill="#FFFFFF"/><path d="M492.14 384.695 514.488 386.517C515.382 386.62 516.482 386.311 517.273 385.486 518.167 384.764 518.58 383.767 518.683 382.873L520.058 358.874C520.058 358.186 519.955 357.292 519.577 356.502 519.164 355.608 518.476 354.817 517.582 354.301 516.792 353.717 515.795 353.51 514.798 353.51 513.904 353.51 513.078 353.717 512.391 354.095L486.57 363.756C485.47 364.169 484.576 364.96 484.094 365.957 483.579 367.057 483.476 368.26 483.888 369.36 484.198 370.358 484.885 371.32 486.089 371.939 487.154 372.42 488.358 372.42 489.355 372.145L503.314 367.263 503.314 375.618 489.355 374.93C488.083 374.93 486.57 375.412 485.47 376.615 484.369 377.715 483.888 379.091 483.888 380.5L481.791 403.433C481.585 404.636 481.894 405.909 482.582 406.802 483.304 407.8 484.369 408.522 485.573 408.693 486.673 408.797 487.876 408.625 488.977 407.8 489.458 407.421 489.871 407.009 490.249 406.424 490.558 405.909 490.764 405.427 490.764 404.843L492.14 384.695Z" fill="#FFFFFF"/><path d="M485.023 431.214 485.229 431.214 508.918 433.208C508.506 434.893 508.196 436.784 508.196 438.675 508.196 440.669 508.299 442.663 508.815 444.657 509.606 448.817 511.497 452.806 514.282 456.313 517.17 459.682 520.642 462.261 524.528 463.98 526.419 464.771 528.413 465.252 530.304 465.664 532.195 465.974 534.086 466.043 535.908 466.043 537.49 466.043 539.174 465.974 540.962 465.664 542.647 465.355 544.469 464.874 546.257 464.152 549.73 462.88 553.03 460.679 555.712 457.791 558.497 455.006 560.491 451.637 561.695 448.027 562.279 446.239 562.76 444.554 562.967 442.766 563.173 440.978 563.276 439.259 563.07 437.678L584.696 439.569 585.384 431.901 575.619 431.214 585.384 394.356 493.584 386.758 492.484 402.745 498.466 424.337 482.513 423.34 478.353 411.788C476.565 409.519 474.158 407.8 471.373 406.906L465.803 404.121 457.448 399.238C457.036 399.135 456.554 399.067 456.039 399.067 455.557 399.067 455.145 399.135 454.629 399.238L445.69 400.648C438.71 398.448 431.352 397.554 424.063 397.863 422.276 397.863 420.488 397.176 419.216 395.766L410.792 386.07 404.638 379.091C402.953 377.612 400.959 376.512 398.758 375.721 396.558 375.033 394.289 374.724 392.088 374.93L389.303 375.618C388.891 375.515 388.512 375.309 388.1 375.137 387.687 374.93 387.412 374.518 387.206 374.208L383.733 370.736C383.63 370.426 383.424 370.048 383.114 369.842 382.736 369.635 382.324 369.635 382.014 369.739 381.636 369.739 381.327 370.048 381.12 370.358 380.948 370.736 380.845 371.148 380.948 371.423L382.324 374.208C382.633 375.309 382.117 376.409 381.223 377.028 380.329 377.612 379.642 378.712 379.539 379.813 379.539 382.391 379.332 384.97 378.851 387.583 378.335 390.162 377.648 392.671 376.754 395.078L375.653 403.433C375.757 404.636 376.341 405.805 377.441 406.631 378.542 407.524 379.848 407.696 380.948 407.628L383.733 407.628C384.799 407.628 385.899 407.215 386.69 406.424 387.515 405.633 387.893 404.533 387.893 403.433 387.893 402.539 387.687 401.542 387.309 400.648 387 400.064 386.793 399.342 386.793 398.551 386.793 397.863 387 397.176 387.309 396.453L389.303 393.669C390.507 392.568 392.294 392.568 393.463 393.669L403.228 410.413 402.54 415.982C402.437 417.186 402.643 418.355 403.228 419.455 403.537 419.764 403.847 420.349 403.64 421.071 403.537 421.656 402.953 422.034 402.54 422.24L394.185 429.907 390.678 436.096C390.3 436.474 390.3 437.093 390.678 437.471 391.572 438.984 392.088 440.669 392.088 442.353 392.569 446.239 393.773 450.021 395.561 453.528 395.354 454.903 395.458 456.416 395.87 457.894 396.248 459.304 396.867 460.679 397.658 461.882L404.638 454.215C405.119 453.218 404.844 452.015 403.915 451.43 403.228 451.224 402.54 451.224 401.853 451.43 401.543 450.915 401.234 450.536 400.959 450.124 400.546 449.746 400.133 449.333 399.755 449.024L397.658 439.569C397.658 439.19 397.761 438.881 397.967 438.468 398.174 438.09 398.346 437.781 398.655 437.471L409.004 432.589C413.989 439.878 417.668 447.855 419.903 456.313 419.387 457.894 418.493 459.373 417.084 460.473 416.568 461.195 416.19 461.882 415.88 462.776 415.571 463.567 415.468 464.461 415.468 465.355L422.998 465.355C423.169 465.355 423.376 465.149 423.479 464.977 423.582 464.771 423.582 464.461 423.376 464.358 423.273 464.152 423.169 463.98 423.169 463.773 423.169 463.567 423.273 463.361 423.376 463.258L425.473 457.688C422.482 448.749 421.107 439.259 421.278 429.907 429.049 431.901 437.232 431.901 445.002 429.907 445.999 429.632 447.168 429.701 448.165 430.526 449.265 431.214 449.781 432.314 449.781 433.311L447.684 436.784 446.377 443.763 443.592 446.548 435.238 457.688C434.825 458.41 434.447 459.098 434.24 459.888 433.931 460.679 433.828 461.47 433.828 462.261L442.183 461.882C442.698 461.676 443.283 461.092 443.386 460.301 443.592 459.373 443.18 458.788 442.698 458.41 444.28 457.688 445.69 456.484 446.377 454.903 448.475 450.743 451.844 447.339 456.039 445.138 456.726 442.457 457.93 439.775 459.511 437.471 460.818 437.678 462.124 438.09 463.396 438.675 464.6 439.259 465.803 440.084 466.8 441.185 467.797 442.25 468.588 443.454 469.069 444.76 469.585 446.032 469.895 447.339 469.963 448.645L472.061 456.313C472.061 457.791 471.579 459.304 470.685 460.473 469.963 461.195 469.379 461.986 468.966 462.983 468.691 463.98 468.485 465.08 468.588 466.043L475.568 466.043C476.633 466.043 477.631 465.08 477.631 463.98L477.252 461.195 478.353 459.785C476.737 453.631 476.255 447.236 476.943 440.978 476.84 438.468 475.155 436.199 472.783 435.408 471.854 434.893 471.064 433.999 470.582 433.002 470.376 432.52 470.17 432.005 470.067 431.523 469.963 430.904 469.963 430.423 469.963 429.907L477.631 430.629C477.94 432.692 478.353 434.789 479.04 436.784 479.522 438.09 480.244 439.19 481.034 440.256 481.825 441.356 482.822 442.25 483.922 443.076L486.604 445.138C487.189 445.551 488.014 445.86 488.805 445.448 489.183 445.345 489.492 445.035 489.699 444.76 490.008 444.451 490.077 444.038 490.077 443.763L490.077 440.978C489.699 438.778 488.392 436.784 486.604 435.408 486.123 434.893 485.71 434.205 485.401 433.517 485.126 432.795 485.023 432.005 485.023 431.214Z" fill="#FFFFFF"/><path d="M513.766 433.173 527.588 434.858C527.106 435.958 526.694 437.471 526.797 438.984 526.797 440.566 527.209 442.25 528.207 443.66 529.1 445.138 530.269 446.239 531.714 446.926 533.089 447.648 534.602 447.923 535.908 447.923 537.077 447.923 538.384 447.648 539.69 446.926 540.962 446.239 542.166 445.345 543.06 444.038 543.953 442.766 544.469 441.356 544.641 439.981 544.847 438.468 544.744 437.196 544.366 435.958L558.291 437.471C558.291 438.881 558.291 440.256 558.084 441.769 557.913 443.144 557.603 444.657 557.087 446.135 556.022 449.024 554.406 451.809 552.136 454.215 549.936 456.588 547.254 458.41 544.366 459.579 542.956 460.198 541.478 460.576 540.068 460.885 538.693 461.195 537.18 461.264 535.908 461.264 534.395 461.264 532.814 461.092 531.163 460.782 529.582 460.37 528 459.888 526.384 459.201 523.324 457.688 520.436 455.419 518.029 452.531 515.76 449.642 514.247 446.239 513.663 442.869 513.25 441.185 513.147 439.465 513.147 437.781 513.147 436.165 513.354 434.652 513.766 433.173Z" fill="#0055FF"/><path d="M471.339 422.962 470.651 419.421C470.548 419.146 470.651 418.836 470.754 418.63 470.857 418.32 471.132 418.217 471.339 418.149 471.923 417.942 472.542 418.217 472.748 418.733L474.846 423.134 471.339 422.962Z" fill="#0055FF"/><path d="M364.995 497.33C369.087 502.694 373.556 507.886 378.335 512.768 383.218 517.547 388.409 522.017 393.773 526.108L597.142 322.738C593.051 317.272 588.547 312.183 583.768 307.301 578.92 302.522 573.831 298.052 568.365 293.961L364.995 497.33Z" fill="#FF0000"/></g></svg>