<svg width="269" height="269" xmlns="http://www.w3.org/2000/svg" xmlns:xlink="http://www.w3.org/1999/xlink" xml:space="preserve" overflow="hidden"><g transform="translate(-709 -36)"><path d="M977.788 170.5C977.788 152.909 974.282 135.5 967.542 119.209 960.802 102.918 950.919 88.1074 938.496 75.5944 925.983 63.172 911.143 53.2583 894.882 46.5182 878.591 39.7781 861.181 36.3022 843.591 36.3022 825.909 36.3022 808.5 39.7781 792.209 46.5182 775.918 53.2583 761.138 63.172 748.625 75.5944 736.202 88.1074 726.289 102.918 719.548 119.209 712.808 135.5 709.302 152.909 709.302 170.5 709.302 188.181 712.808 205.591 719.548 221.882 726.289 238.173 736.202 252.953 748.625 265.466 761.138 277.888 775.918 287.802 792.209 294.542 808.5 301.282 825.909 304.758 843.591 304.758 861.181 304.758 878.591 301.282 894.882 294.542 911.143 287.802 925.983 277.888 938.496 265.466 950.919 252.953 960.802 238.173 967.542 221.882 974.282 205.591 977.788 188.181 977.788 170.5Z" fill="#FFFFFF"/><path d="M977.788 170.5C977.788 152.879 974.282 135.47 967.542 119.178 960.802 102.887 950.919 88.1074 938.496 75.5944 925.983 63.172 911.173 53.2583 894.912 46.5182 878.621 39.7781 861.212 36.3022 843.591 36.3022" stroke="#343434" stroke-width="0.604494" stroke-linejoin="round" fill="none"/><path d="M843.621 36.3022C825.939 36.3022 808.53 39.7781 792.239 46.5182 775.948 53.2583 761.168 63.172 748.655 75.5944 736.232 88.1074 726.319 102.887 719.579 119.178 712.808 135.47 709.302 152.879 709.302 170.5" stroke="#343434" stroke-width="0.604494" stroke-linejoin="round" fill="none"/><path d="M709.302 170.47C709.302 188.151 712.808 205.561 719.579 221.852 726.319 238.143 736.232 252.923 748.655 265.436 761.168 277.858 775.948 287.772 792.239 294.542 808.53 301.282 825.939 304.758 843.621 304.758" stroke="#343434" stroke-width="0.604494" stroke-linejoin="round" fill="none"/><path d="M843.591 304.758C861.212 304.758 878.621 301.282 894.912 294.542 911.173 287.772 925.983 277.858 938.496 265.436 950.919 252.923 960.802 238.143 967.542 221.852 974.282 205.561 977.788 188.151 977.788 170.47" stroke="#343434" stroke-width="0.604494" stroke-linejoin="round" fill="none"/><path d="M971.23 170.5C971.23 153.786 967.905 137.162 961.528 121.657 955.12 106.182 945.66 92.1575 933.842 80.249 921.963 68.4009 907.939 58.9708 892.434 52.5631 876.929 46.1857 860.305 42.861 843.591 42.861 826.786 42.861 810.162 46.1857 794.748 52.5631 779.242 58.9708 765.158 68.4009 753.249 80.249 741.431 92.1575 732.061 106.182 725.593 121.657 719.216 137.162 715.891 153.786 715.891 170.5 715.891 187.305 719.216 203.929 725.593 219.343 732.061 234.848 741.431 248.933 753.249 260.842 765.158 272.66 779.242 281.999 794.748 288.497 810.162 294.875 826.786 298.199 843.591 298.199 860.305 298.199 876.929 294.875 892.434 288.497 907.939 281.999 921.963 272.66 933.842 260.842 945.66 248.933 955.12 234.848 961.528 219.343 967.905 203.929 971.23 187.305 971.23 170.5Z" fill="#0055FF"/><path d="M807.351 253.255C811.734 254.555 816.449 254.041 820.469 251.835 824.489 249.659 827.481 245.88 828.781 241.528L834.674 216.472 844.921 197.068C845.374 196.251 846.16 195.738 847.036 195.738 847.913 195.738 848.789 196.251 849.122 197.068L856.134 219.283 881.432 252.621C884.938 250.535 887.386 247.12 888.354 243.19 889.23 239.14 888.595 234.939 886.419 231.554L871.972 212.271 863.055 176.122 863.932 142.663 878.349 153.876 878.349 174.731C878.349 175.336 878.621 176.061 879.226 176.484 879.498 176.666 879.86 176.847 880.193 176.847 880.556 176.847 880.888 176.847 881.16 176.666L885.905 174.459C887.991 173.432 889.381 171.225 889.472 168.868L889.472 145.474 858.854 118.513C857.796 117.456 856.406 116.851 854.804 116.67 853.323 116.488 851.842 116.851 850.542 117.637L835.218 126.039 797.619 176.122C797.196 176.666 797.105 177.361 797.377 177.966 797.558 178.238 797.71 178.51 798.072 178.661 798.344 178.842 798.677 178.933 799.039 178.933L803.755 178.933C805.084 179.023 806.384 178.51 807.351 177.542L832.377 152.486 835.218 176.122 819.078 206.77 807.351 253.255Z" fill="#FFFFFF"/><path d="M844.89 116.247C848.88 116.247 852.537 114.735 855.348 111.924 858.068 109.204 859.549 105.517 859.549 101.588 859.549 97.7491 858.068 94.0617 855.348 91.2508 852.537 88.5608 848.88 86.9589 844.89 86.9589 841.052 86.9589 837.364 88.5608 834.584 91.2508 831.863 94.0617 830.382 97.7491 830.382 101.588 830.382 105.517 831.863 109.204 834.584 111.924 837.364 114.735 841.052 116.247 844.89 116.247Z" fill="#FFFFFF"/><path d="M741.522 247.271C745.119 251.986 749.048 256.55 753.249 260.842 757.541 265.043 762.105 268.972 766.82 272.569L945.599 93.7897C942.002 88.9839 938.043 84.5107 933.842 80.2188 929.58 76.0175 925.107 72.0883 920.301 68.4916L741.522 247.271Z" fill="#FF0000"/></g></svg>