<svg width="260" height="260" xmlns="http://www.w3.org/2000/svg" xmlns:xlink="http://www.w3.org/1999/xlink" xml:space="preserve" overflow="hidden"><g transform="translate(-659 -322)"><path d="M918.796 452C918.796 434.998 915.407 418.171 908.892 402.425 902.378 386.679 892.825 372.364 880.818 360.27 868.724 348.263 854.38 338.681 838.663 332.166 822.917 325.652 806.09 322.292 789.088 322.292 771.998 322.292 755.171 325.652 739.425 332.166 723.679 338.681 709.393 348.263 697.299 360.27 685.292 372.364 675.71 386.679 669.195 402.425 662.681 418.171 659.292 434.998 659.292 452 659.292 469.09 662.681 485.917 669.195 501.663 675.71 517.409 685.292 531.694 697.299 543.789 709.393 555.796 723.679 565.378 739.425 571.892 755.171 578.407 771.998 581.766 789.088 581.766 806.09 581.766 822.917 578.407 838.663 571.892 854.38 565.378 868.724 555.796 880.818 543.789 892.825 531.694 902.378 517.409 908.892 501.663 915.407 485.917 918.796 469.09 918.796 452Z" fill="#FFFFFF"/><path d="M918.796 452C918.796 434.969 915.407 418.142 908.892 402.396 902.378 386.649 892.825 372.364 880.818 360.27 868.724 348.263 854.409 338.681 838.692 332.166 822.946 325.652 806.119 322.292 789.088 322.292" stroke="#343434" stroke-width="0.58427" stroke-linejoin="round" fill="none"/><path d="M789.117 322.292C772.027 322.292 755.2 325.652 739.454 332.166 723.708 338.681 709.422 348.263 697.328 360.27 685.321 372.364 675.739 386.649 669.225 402.396 662.681 418.142 659.292 434.969 659.292 452" stroke="#343434" stroke-width="0.58427" stroke-linejoin="round" fill="none"/><path d="M659.292 451.971C659.292 469.061 662.681 485.888 669.225 501.634 675.739 517.38 685.321 531.665 697.328 543.76 709.422 555.766 723.708 565.348 739.454 571.892 755.2 578.407 772.027 581.766 789.117 581.766" stroke="#343434" stroke-width="0.58427" stroke-linejoin="round" fill="none"/><path d="M789.088 581.766C806.119 581.766 822.946 578.407 838.692 571.892 854.409 565.348 868.724 555.766 880.818 543.76 892.825 531.665 902.378 517.38 908.892 501.634 915.407 485.888 918.796 469.061 918.796 451.971" stroke="#343434" stroke-width="0.58427" stroke-linejoin="round" fill="none"/><path d="M912.456 452C912.456 435.845 909.243 419.778 903.079 404.791 896.885 389.834 887.742 376.279 876.319 364.769 864.838 353.317 851.283 344.202 836.297 338.009 821.31 331.845 805.243 328.631 789.088 328.631 772.845 328.631 756.778 331.845 741.879 338.009 726.892 344.202 713.279 353.317 701.769 364.769 690.346 376.279 681.29 389.834 675.038 404.791 668.874 419.778 665.661 435.845 665.661 452 665.661 468.243 668.874 484.31 675.038 499.209 681.29 514.195 690.346 527.809 701.769 539.319 713.279 550.742 726.892 559.769 741.879 566.049 756.778 572.214 772.845 575.427 789.088 575.427 805.243 575.427 821.31 572.214 836.297 566.049 851.283 559.769 864.838 550.742 876.319 539.319 887.742 527.809 896.885 514.195 903.079 499.209 909.243 484.31 912.456 468.243 912.456 452Z" fill="#0055FF"/><path d="M763.438 399.766 779.593 399.766 779.593 387.584 763.964 387.584C761.685 387.584 759.29 388.256 757.274 389.629 755.171 391.061 753.622 393.018 752.775 395.121L743.661 416.944 738.753 411.539C737.555 412.387 736.474 413.467 735.452 414.665 734.429 415.921 733.67 417.382 733.085 418.901 732.472 420.42 732.151 422.027 731.975 423.546 731.888 425.153 731.975 426.672 732.238 428.191L739.249 427.607 722.335 468.389C722.072 468.973 721.897 469.733 721.897 470.492 721.897 471.252 722.072 472.099 722.335 472.858 722.685 473.56 723.094 474.231 723.679 474.816 724.292 475.312 724.876 475.751 725.548 476.013 726.133 476.276 726.892 476.452 727.652 476.452 728.411 476.452 729.171 476.276 729.96 476.013 730.719 475.663 731.391 475.225 731.888 474.64 732.472 474.144 732.822 473.472 733.085 472.858L751.519 428.454 777.402 470.492C778.512 472.362 780.207 473.969 782.222 475.079 784.267 476.247 786.458 476.802 788.649 476.802L851.546 476.802C852.89 476.715 854.409 476.16 855.607 474.991 856.717 473.793 857.301 472.274 857.301 470.93 857.389 469.499 856.863 467.951 855.782 466.694 854.76 465.438 853.24 464.825 851.897 464.649L852.218 464.591 788.065 464.591 781.726 454.337 789.76 431.258 779.009 414.169 757.449 414.169 763.438 399.766Z" fill="#FEFEFE"/><path d="M811.494 420.596 819.966 435.728C820.375 436.4 820.901 437.101 821.661 437.627 822.42 438.124 823.384 438.474 824.378 438.562 825.312 438.649 826.335 438.474 827.182 438.036 827.942 437.715 828.613 437.101 829.139 436.488 830.805 434.472 833.025 432.69 835.479 431.492 838.02 430.236 840.708 429.564 843.337 429.476L875.501 428.279 875.501 414.169 815.234 414.169C814.533 414.169 813.861 414.315 813.189 414.665 812.517 415.016 811.933 415.6 811.494 416.272 811.085 417.031 810.91 417.791 810.91 418.638 810.91 419.398 811.173 420.07 811.494 420.596Z" fill="#FEFEFE"/><path d="M763.643 470.404C763.643 467.512 763.234 464.562 762.533 461.582 761.773 458.631 760.604 455.769 759.085 453.052 757.566 450.335 755.784 447.881 753.652 445.661 751.548 443.557 749.182 441.688 746.728 440.169L742.171 451.094C743.515 452.117 744.858 453.315 746.144 454.746 747.4 456.178 748.51 457.784 749.445 459.654 750.351 461.494 751.052 463.539 751.461 465.643 751.957 467.863 752.045 470.054 751.899 472.245 751.724 474.465 751.198 476.656 750.438 478.672 749.679 480.717 748.685 482.645 747.488 484.339 746.29 485.946 744.858 487.407 743.427 488.663 741.995 489.861 740.476 490.854 738.957 491.613 737.497 492.373 735.802 492.987 733.962 493.483 732.092 493.921 730.135 494.155 728.119 494.155 725.987 494.155 723.883 493.921 721.78 493.308 719.647 492.724 717.631 491.876 715.733 490.708 713.775 489.51 712.11 488.079 710.562 486.472 709.13 484.865 707.962 483.083 706.939 481.301 706.005 479.431 705.333 477.591 704.894 475.721 704.485 473.852 704.31 472.07 704.31 470.404 704.31 468.856 704.485 467.337 704.807 465.73 705.07 464.124 705.596 462.517 706.267 460.998 707.611 457.784 709.715 454.834 712.519 452.467 715.236 450.072 718.479 448.407 721.78 447.472 723.474 446.946 725.081 446.683 726.688 446.596 728.382 446.508 729.901 446.596 731.333 446.8L735.89 435.757C733.786 435.261 731.596 434.998 729.2 434.91 726.921 434.822 724.555 434.998 722.101 435.407 717.193 436.254 712.344 438.211 708.108 441.103 703.813 444.054 700.337 447.881 697.708 452.117 696.452 454.22 695.429 456.44 694.67 458.631 693.91 460.822 693.413 463.043 693.063 465.146 692.712 467.337 692.625 469.557 692.712 471.924 692.8 474.202 693.151 476.656 693.735 479.022 695.02 483.843 697.211 488.488 700.512 492.548 703.726 496.609 707.786 499.822 712.169 502.043 714.389 503.124 716.697 503.971 718.888 504.555 721.166 505.256 723.387 505.578 725.578 505.753 727.681 505.928 729.989 505.84 732.267 505.578 734.634 505.344 737 504.818 739.279 504.058 744.011 502.452 748.51 499.91 752.308 496.375 756.106 492.811 758.998 488.575 760.926 483.93 761.861 481.652 762.533 479.344 762.971 477.065 763.38 474.786 763.643 472.596 763.643 470.404Z" fill="#FEFEFE"/><path d="M827.065 464.62C827.416 463.335 827.825 462.079 828.351 460.793 828.935 459.537 829.607 458.252 830.366 457.083 832.061 454.629 834.164 452.497 836.618 450.744 839.16 449.049 841.876 447.852 844.739 447.18 846.2 446.829 847.631 446.654 848.975 446.566 850.319 446.479 851.78 446.566 853.036 446.771 858.82 447.443 864.137 450.218 868.052 454.542 871.849 458.953 873.953 464.533 873.953 470.375 873.953 476.101 871.937 481.71 868.139 486.004 864.312 490.328 859.171 493.133 853.386 493.951 850.845 494.301 848.04 494.214 845.265 493.629 842.373 493.045 839.685 491.935 837.144 490.24 834.602 488.634 832.47 486.618 830.775 484.222 829.11 481.856 827.912 479.315 827.24 476.802L815.321 476.802C815.643 478.73 816.227 480.775 816.928 482.703 817.688 484.748 818.593 486.676 819.791 488.546 822.07 492.344 825.049 495.82 828.76 498.625 832.47 501.4 836.53 503.445 840.854 504.526 842.987 505.139 845.177 505.548 847.281 505.724 849.326 505.899 851.429 505.811 853.386 505.636 855.402 505.461 857.476 505.139 859.492 504.526 861.537 504.029 863.553 503.27 865.598 502.335 869.571 500.407 873.281 497.69 876.319 494.214 879.474 490.825 881.84 486.939 883.447 482.703 884.207 480.688 884.703 478.555 885.142 476.452 885.463 474.436 885.638 472.391 885.638 470.375 885.638 468.33 885.463 466.315 885.142 464.182 884.703 462.079 884.119 459.946 883.36 457.93 881.84 453.694 879.386 449.721 876.261 446.303 873.106 442.827 869.308 440.139 865.247 438.27 863.319 437.335 861.187 436.575 859.171 436.079 857.126 435.465 854.993 435.144 853.036 434.969 851.02 434.793 848.975 434.793 846.872 435.056 844.739 435.231 842.548 435.64 840.445 436.225 836.121 437.51 831.973 439.526 828.351 442.418 824.611 445.281 821.661 448.786 819.44 452.672 818.272 454.629 817.425 456.645 816.665 458.69 815.993 460.618 815.467 462.663 815.146 464.62L827.065 464.62Z" fill="#FEFEFE"/><path d="M690.434 526.202C693.91 530.76 697.708 535.171 701.769 539.319 705.917 543.38 710.328 547.177 714.885 550.654L887.683 377.856C884.207 373.211 880.38 368.888 876.319 364.739 872.2 360.679 867.876 356.881 863.231 353.404L690.434 526.202Z" fill="#FF0000"/></g></svg>