<svg width="336" height="336" xmlns="http://www.w3.org/2000/svg" xmlns:xlink="http://www.w3.org/1999/xlink" xml:space="preserve" overflow="hidden"><g transform="translate(-455 -183)"><path d="M455.378 500.01C455.378 502.2 455.831 504.503 456.699 506.806 457.68 509.109 459.002 511.298 460.852 513.148 462.702 514.998 464.891 516.433 467.194 517.301 469.497 518.169 471.913 518.622 474.103 518.622L772.048 518.622C774.351 518.622 776.654 518.169 778.919 517.301 781.222 516.433 783.412 514.998 785.262 513.148 787.149 511.298 788.433 509.109 789.414 506.806 790.32 504.503 790.736 502.2 790.736 500.01L790.736 201.952C790.736 199.762 790.32 197.346 789.414 195.081 788.433 192.778 787.149 190.588 785.262 188.738 783.412 186.964 781.222 185.567 778.919 184.586 776.654 183.68 774.351 183.378 772.048 183.378L474.103 183.378C471.913 183.378 469.497 183.68 467.194 184.586 464.891 185.567 462.702 186.964 460.852 188.738 459.002 190.588 457.68 192.778 456.699 195.081 455.831 197.346 455.378 199.762 455.378 201.952L455.378 500.01Z" fill="#FFFFFF"/><path d="M455.378 499.973C455.378 504.918 457.378 509.637 460.889 513.148 464.4 516.659 469.195 518.622 474.141 518.622" stroke="#343434" stroke-width="0.755056" stroke-linejoin="round" fill="none"/><path d="M474.103 518.585 772.01 518.585" stroke="#343434" stroke-width="0.755056" stroke-linejoin="round" fill="none"/><path d="M772.01 518.622C777.031 518.622 781.788 516.659 785.262 513.148 788.773 509.637 790.736 504.918 790.736 499.973" stroke="#343434" stroke-width="0.755056" stroke-linejoin="round" fill="none"/><path d="M790.698 499.973 790.698 201.952" stroke="#343434" stroke-width="0.755056" stroke-linejoin="round" fill="none"/><path d="M790.736 201.99C790.736 197.082 788.773 192.212 785.262 188.738 781.788 185.227 777.031 183.378 772.01 183.378" stroke="#343434" stroke-width="0.755056" stroke-linejoin="round" fill="none"/><path d="M772.01 183.378 474.103 183.378" stroke="#343434" stroke-width="0.755056" stroke-linejoin="round" fill="none"/><path d="M474.141 183.378C469.195 183.378 464.4 185.227 460.889 188.738 457.378 192.212 455.378 197.082 455.378 201.99" stroke="#343434" stroke-width="0.755056" stroke-linejoin="round" fill="none"/><path d="M455.378 201.952 455.378 499.973" stroke="#343434" stroke-width="0.755056" stroke-linejoin="round" fill="none"/><path d="M463.608 500.01C463.608 501.218 463.796 502.54 464.363 503.861 464.891 505.145 465.684 506.353 466.666 507.334 467.76 508.316 468.969 509.222 470.252 509.637 471.46 510.204 472.782 510.392 474.103 510.392L772.048 510.392C773.369 510.392 774.691 510.204 775.974 509.637 777.182 509.222 778.504 508.316 779.485 507.334 780.467 506.353 781.222 505.145 781.788 503.861 782.317 502.54 782.543 501.218 782.543 500.01L782.543 201.952C782.543 200.744 782.317 199.422 781.788 198.139 781.222 196.818 780.467 195.609 779.485 194.515 778.504 193.533 777.182 192.778 775.974 192.212 774.691 191.683 773.369 191.457 772.048 191.457L474.103 191.457C472.782 191.457 471.46 191.683 470.252 192.212 468.969 192.778 467.76 193.533 466.666 194.515 465.684 195.609 464.891 196.818 464.363 198.139 463.796 199.422 463.608 200.744 463.608 201.952L463.608 500.01Z" fill="#0055FF"/><path d="M680.875 462.748 705.037 462.748 705.037 313.7 734.862 313.7 692.88 239.252 650.975 313.7 680.875 313.7 680.875 462.748Z" fill="#FFFFFF"/><path d="M541.114 239.252 565.276 239.252 565.276 388.187 595.138 388.187 553.233 462.748 511.252 388.187 541.114 388.187 541.114 239.252Z" fill="#FF0000"/></g></svg>