<svg xmlns="http://www.w3.org/2000/svg" viewBox="0 0 425.05 374.5"><defs><style>.cls-1{fill:red;}.cls-1,.cls-2,.cls-3{fill-rule:evenodd;}.cls-2{fill:#fff;}.cls-3{fill:#010101;}</style></defs><g id="Capa_2" data-name="Capa 2"><g id="Capa_1-2" data-name="Capa 1"><path class="cls-1" d="M401.23,374.5a26.16,26.16,0,0,0,5.39-.6,26.75,26.75,0,0,0,5.7-2.2,19,19,0,0,0,5.3-3.8,19.48,19.48,0,0,0,4.2-5.3,25.32,25.32,0,0,0,2.6-6.4,24.58,24.58,0,0,0-.4-12.5,20.14,20.14,0,0,0-2.2-5L233.23,11.9a24.32,24.32,0,0,0-3.31-4.3,20.09,20.09,0,0,0-4.69-3.9,24.68,24.68,0,0,0-5.9-2.7,26.08,26.08,0,0,0-6.81-1,24.6,24.6,0,0,0-6.69,1,23.07,23.07,0,0,0-6,2.7,19.79,19.79,0,0,0-4.71,3.9,24.9,24.9,0,0,0-3.2,4.3L3.23,338.7a25.24,25.24,0,0,0-2.21,5,24.58,24.58,0,0,0-.4,12.5,25.35,25.35,0,0,0,2.61,6.4,19.67,19.67,0,0,0,4.2,5.3,19,19,0,0,0,5.3,3.8,26.35,26.35,0,0,0,5.7,2.2,26.17,26.17,0,0,0,5.4.6h377.4"/><polyline class="cls-2" points="44.52 338.7 380.52 338.7 212.53 47.7 44.52 338.7"/><path class="cls-3" d="M141.32,229.4a9.93,9.93,0,0,0-6.9,2.8,9.78,9.78,0,0,0,0,13.7,9.61,9.61,0,0,0,6.9,2.9H194l37.9,71.2h19.5l-19-71.2H271l9.5,16.2h12.9L287,239.1l6.4-25.9h-12.9L271,229.4h-38.6l19-71.3h-19.5L194,229.4h-52.7"/></g></g></svg>