<?xml version="1.0" encoding="UTF-8" standalone="no"?>
<svg
   viewBox="0 0 425.12 374.5"
   version="1.1"
   id="svg18803"
   sodipodi:docname="Spain_traffic_signal_p20-a,_2023_set.svg"
   inkscape:version="1.2.2 (732a01da63, 2022-12-09)"
   xmlns:inkscape="http://www.inkscape.org/namespaces/inkscape"
   xmlns:sodipodi="http://sodipodi.sourceforge.net/DTD/sodipodi-0.dtd"
   xmlns:xlink="http://www.w3.org/1999/xlink"
   xmlns="http://www.w3.org/2000/svg"
   xmlns:svg="http://www.w3.org/2000/svg"
   xmlns:i="http://ns.adobe.com/AdobeIllustrator/10.0/">
  <sodipodi:namedview
     id="namedview18805"
     pagecolor="#ffffff"
     bordercolor="#000000"
     borderopacity="0.25"
     inkscape:showpageshadow="2"
     inkscape:pageopacity="0.0"
     inkscape:pagecheckerboard="0"
     inkscape:deskcolor="#d1d1d1"
     showgrid="false"
     inkscape:zoom="2.2162884"
     inkscape:cx="153.63524"
     inkscape:cy="306.14247"
     inkscape:window-width="1920"
     inkscape:window-height="991"
     inkscape:window-x="-9"
     inkscape:window-y="-9"
     inkscape:window-maximized="1"
     inkscape:current-layer="Capa_1-2" />
  <defs
     id="defs18773">
    <style
       id="style18771">.cls-1{fill:red;}.cls-1,.cls-2,.cls-3{fill-rule:evenodd;}.cls-2{fill:#fff;}.cls-3{fill:#010101;}</style>
    <clipPath
       id="XMLID_3_">
					<use
   xlink:href="#XMLID_1_"
   id="use18526" />

				</clipPath>
    <polyline
       id="XMLID_1_"
       points="21.883,173.879 108.918,23.176 195.953,173.879 21.883,173.879 " />
  </defs>
  <g
     id="Capa_2"
     data-name="Capa 2">
    <g
       id="Capa_1-2"
       data-name="Capa 1">
      <path
         class="cls-1"
         d="M401.2,374.5a26.44,26.44,0,0,0,5.5-.6,26.75,26.75,0,0,0,5.7-2.2,26,26,0,0,0,5.3-3.8,24.54,24.54,0,0,0,4.2-5.3,25,25,0,0,0,2.5-6.4,20.91,20.91,0,0,0,.7-6.5,28.93,28.93,0,0,0-1-6,25.22,25.22,0,0,0-2.2-5L233.2,11.9A24.44,24.44,0,0,0,230,7.5a22.32,22.32,0,0,0-4.7-3.8,20.42,20.42,0,0,0-6-2.7,21.32,21.32,0,0,0-6.7-1,22.4,22.4,0,0,0-6.8,1,21.06,21.06,0,0,0-5.9,2.7,22.32,22.32,0,0,0-4.7,3.8,25.24,25.24,0,0,0-3.3,4.4L3.2,338.7a32.77,32.77,0,0,0-2.2,5,28.93,28.93,0,0,0-1,6,29.37,29.37,0,0,0,.7,6.5,25,25,0,0,0,2.5,6.4,24.54,24.54,0,0,0,4.2,5.3,26,26,0,0,0,5.3,3.8,26.75,26.75,0,0,0,5.7,2.2,26.44,26.44,0,0,0,5.5.6H401.2"
         id="path18775" />
      <polyline
         class="cls-2"
         points="44.6 338.7 380.6 338.7 212.6 47.7 44.6 338.7"
         id="polyline18777" />
      <g
         id="g18531"
         transform="matrix(1.9302579,0,0,1.9302579,2.3601655,3.0686793)"
         style="fill:#000000">
				<defs
   id="defs18524">
					<polyline
   id="polyline19012"
   points="21.883,173.879 108.918,23.176 195.953,173.879 21.883,173.879 " />

				</defs>

				<clipPath
   id="clipPath18945">
					<use
   xlink:href="#XMLID_1_"
   id="use18943" />

				</clipPath>

				<polyline
   i:knockout="Off"
   clip-path="url(#XMLID_3_)"
   fill="#1c1d20"
   points="9.18,180.941 207.773,180.941 62.141,96.207       9.18,180.941 "
   id="polyline18529"
   style="fill:#000000" />

			</g>
      <g
         id="g18555"
         transform="matrix(1.9302579,0,0,1.9302579,2.3601655,3.0686793)"
         style="fill:#000000">
				<path
   i:knockout="Off"
   fill="#1c1d20"
   d="m 93.115,90.818 c -2.494,4.239 -4.795,8.299 -7.193,12.448 -1.66,-0.923 -3.319,-1.844 -4.887,-2.858 2.675,-4.795 5.626,-9.498 8.208,-14.385 -1.106,-0.829 -2.582,-1.199 -3.597,-2.212 0.831,-1.383 1.568,-2.766 2.398,-4.057 1.013,0.276 1.659,1.106 2.766,1.383 1.66,0.37 2.674,-1.014 3.228,-2.305 1.383,1.015 3.134,1.568 4.426,2.767 -1.845,3.041 -3.505,6.084 -5.349,9.219 z"
   id="path18533"
   style="fill:#000000" />

				<g
   i:knockout="Off"
   id="g18539"
   style="fill:#000000">
					<g
   id="g18537"
   style="fill:#000000">
						<path
   i:knockout="Off"
   fill="#1c1d20"
   d="m 116.351,91.094 c -1.383,-1.014 -2.673,-1.751 -4.333,-2.212 -5.717,-1.476 -10.789,2.582 -13.37,7.469 -1.871,3.54 -3.136,7.561 -1.752,11.435 1.659,4.425 6.362,7.283 11.064,6.822 3.688,-0.461 6.64,-2.767 8.76,-5.9 1.936,-2.951 3.412,-5.994 3.504,-9.405 0.092,-3.138 -1.291,-6.179 -3.873,-8.209 z m -2.95,10.973 c -1.107,2.12 -1.938,4.334 -3.967,5.902 -1.935,1.383 -4.61,0.829 -6.177,-0.922 -0.922,-1.107 -1.383,-2.583 -0.922,-3.967 0.738,-2.488 2.028,-4.61 3.596,-6.73 0.553,-0.646 1.106,-1.106 1.845,-1.475 1.105,-0.461 2.397,-0.461 3.596,0 1.475,0.646 2.674,1.936 2.951,3.688 0.202,1.289 -0.277,2.399 -0.922,3.504 z"
   id="path18535"
   style="fill:#000000" />

					</g>

				</g>

				<path
   i:knockout="Off"
   fill="#1c1d20"
   d="m 134.977,122.354 c -2.004,1.961 -3.964,3.873 -5.9,5.809 -1.2,-0.552 -2.306,-1.29 -3.412,-1.936 6.271,-6.087 12.448,-12.172 18.719,-18.35 1.198,0.554 2.305,1.199 3.411,1.937 -4.335,4.149 -8.484,8.298 -12.818,12.54 z"
   id="path18541"
   style="fill:#000000" />

				<g
   i:knockout="Off"
   id="g18547"
   style="fill:#000000">
					<g
   id="g18545"
   style="fill:#000000">
						<path
   i:knockout="Off"
   fill="#1c1d20"
   d="m 148.808,122.262 c -1.383,-1.567 -3.412,-2.49 -5.439,-2.306 -2.582,0.276 -4.474,2.332 -5.81,4.519 -1.014,1.659 -1.567,3.412 -1.476,5.255 0.185,3.505 3.781,5.995 7.192,5.533 2.582,-0.461 4.334,-2.397 5.532,-4.52 1.478,-2.673 2.122,-5.993 0.001,-8.481 z m -3.042,6.454 c -0.707,0.973 -1.014,2.12 -2.029,2.767 -1.658,1.105 -4.057,-0.185 -4.149,-2.029 -0.185,-2.028 1.199,-3.503 2.306,-5.163 0.37,-0.462 0.922,-0.646 1.476,-0.83 1.476,-0.276 2.95,0.554 3.228,2.029 0.274,1.105 -0.095,2.212 -0.832,3.226 z"
   id="path18543"
   style="fill:#000000" />

					</g>

				</g>

				<g
   i:knockout="Off"
   id="g18553"
   style="fill:#000000">
					<g
   id="g18551"
   style="fill:#000000">
						<path
   i:knockout="Off"
   fill="#1c1d20"
   d="m 136.083,103.45 c -1.659,-2.396 -4.701,-3.318 -7.284,-2.304 -3.503,1.566 -5.716,5.347 -5.624,9.129 0,2.396 1.568,4.425 3.779,5.347 1.845,0.738 3.874,0.738 5.626,-0.461 3.688,-2.581 6.299,-7.673 3.503,-11.711 z m -2.674,4.981 c -0.813,1.627 -1.475,3.595 -3.411,4.149 -1.66,0.368 -3.412,-0.831 -3.412,-2.49 -0.093,-1.937 1.29,-3.411 2.306,-4.979 0.368,-0.461 0.829,-0.646 1.383,-0.83 1.198,-0.277 2.306,0.185 3.044,1.199 0.644,0.921 0.551,2.028 0.09,2.951 z"
   id="path18549"
   style="fill:#000000" />

					</g>

				</g>

			</g>
      <path
         fill-rule="evenodd"
         fill="#fefefe"
         fill-opacity="1"
         d="m 126.08399,226.38285 -7.60565,13.41252 83.08723,47.15107 -9.41222,16.61901 54.76062,0.0977 -28.33053,-46.84997 -9.41222,16.61901 -83.08723,-47.0494"
         id="path19334"
         sodipodi:nodetypes="cccccccc"
         style="fill:#ffffff;stroke-width:1.00105" />
    </g>
  </g>
</svg>
