<?xml version="1.0" encoding="UTF-8" standalone="no"?>
<svg
   viewBox="0 0 425.12 374.5"
   version="1.1"
   id="svg18803"
   sodipodi:docname="Spain_traffic_signal_p20-a,_2023_set.svg.2025_03_14_14_34_13.0.svg"
   inkscape:version="1.2.2 (732a01da63, 2022-12-09)"
   xmlns:inkscape="http://www.inkscape.org/namespaces/inkscape"
   xmlns:sodipodi="http://sodipodi.sourceforge.net/DTD/sodipodi-0.dtd"
   xmlns:xlink="http://www.w3.org/1999/xlink"
   xmlns="http://www.w3.org/2000/svg"
   xmlns:svg="http://www.w3.org/2000/svg"
   xmlns:i="http://ns.adobe.com/AdobeIllustrator/10.0/">
  <sodipodi:namedview
     id="namedview18805"
     pagecolor="#ffffff"
     bordercolor="#000000"
     borderopacity="0.25"
     inkscape:showpageshadow="2"
     inkscape:pageopacity="0.0"
     inkscape:pagecheckerboard="0"
     inkscape:deskcolor="#d1d1d1"
     showgrid="false"
     inkscape:zoom="1.5671526"
     inkscape:cx="263.85434"
     inkscape:cy="253.64474"
     inkscape:window-width="1920"
     inkscape:window-height="991"
     inkscape:window-x="-9"
     inkscape:window-y="-9"
     inkscape:window-maximized="1"
     inkscape:current-layer="Capa_1-2" />
  <defs
     id="defs18773">
    <style
       id="style18771">.cls-1{fill:red;}.cls-1,.cls-2,.cls-3{fill-rule:evenodd;}.cls-2{fill:#fff;}.cls-3{fill:#010101;}</style>
    <clipPath
       id="XMLID_3_">
      <use
         xlink:href="#XMLID_1_"
         id="use18526" />
    </clipPath>
    <polyline
       id="XMLID_1_"
       points="21.883,173.879 108.918,23.176 195.953,173.879 21.883,173.879 " />
    <clipPath
       id="XMLID_3_-9">
      <use
         xlink:href="#XMLID_1_-4"
         id="use20203" />
    </clipPath>
    <polyline
       id="XMLID_1_-4"
       points="196.07,173.879 109.035,23.176 22,173.879 196.07,173.879 " />
  </defs>
  <g
     id="Capa_2"
     data-name="Capa 2">
    <g
       id="Capa_1-2"
       data-name="Capa 1">
      <path
         class="cls-1"
         d="M401.2,374.5a26.44,26.44,0,0,0,5.5-.6,26.75,26.75,0,0,0,5.7-2.2,26,26,0,0,0,5.3-3.8,24.54,24.54,0,0,0,4.2-5.3,25,25,0,0,0,2.5-6.4,20.91,20.91,0,0,0,.7-6.5,28.93,28.93,0,0,0-1-6,25.22,25.22,0,0,0-2.2-5L233.2,11.9A24.44,24.44,0,0,0,230,7.5a22.32,22.32,0,0,0-4.7-3.8,20.42,20.42,0,0,0-6-2.7,21.32,21.32,0,0,0-6.7-1,22.4,22.4,0,0,0-6.8,1,21.06,21.06,0,0,0-5.9,2.7,22.32,22.32,0,0,0-4.7,3.8,25.24,25.24,0,0,0-3.3,4.4L3.2,338.7a32.77,32.77,0,0,0-2.2,5,28.93,28.93,0,0,0-1,6,29.37,29.37,0,0,0,.7,6.5,25,25,0,0,0,2.5,6.4,24.54,24.54,0,0,0,4.2,5.3,26,26,0,0,0,5.3,3.8,26.75,26.75,0,0,0,5.7,2.2,26.44,26.44,0,0,0,5.5.6H401.2"
         id="path18775" />
      <polyline
         class="cls-2"
         points="44.6 338.7 380.6 338.7 212.6 47.7 44.6 338.7"
         id="polyline18777" />
      <g
         id="g20208"
         transform="matrix(1.9302579,0,0,1.9302579,2.1343253,3.0686793)"
         style="fill:#000000">
        <defs
           id="defs20201">
          <polyline
             id="polyline20466"
             points="196.07,173.879 109.035,23.176 22,173.879 196.07,173.879 " />
        </defs>
        <clipPath
           id="clipPath20399">
          <use
             xlink:href="#XMLID_1_-4"
             id="use20397" />
        </clipPath>
        <polyline
           i:knockout="Off"
           clip-path="url(#XMLID_3_-9)"
           fill="#1c1d20"
           points="208.773,180.941 10.18,180.941 155.813,96.207       208.773,180.941 "
           id="polyline20206"
           style="fill:#000000" />
      </g>
      <g
         id="g20232"
         transform="matrix(1.9302579,0,0,1.9302579,2.1343253,3.0686793)"
         style="fill:#000000">
        <path
           i:knockout="Off"
           fill="#1c1d20"
           d="m 77.28,118.42 c 2.424,4.28 4.79,8.303 7.184,12.454 -1.629,0.976 -3.256,1.952 -4.919,2.803 -2.815,-4.714 -5.412,-9.621 -8.354,-14.301 -1.271,0.544 -2.329,1.637 -3.714,2.009 -0.783,-1.411 -1.611,-2.74 -2.314,-4.105 0.746,-0.739 1.787,-0.884 2.581,-1.704 1.15,-1.253 0.458,-2.822 -0.383,-3.947 1.571,-0.69 2.925,-1.931 4.609,-2.449 1.712,3.117 3.517,6.076 5.31,9.24 z"
           id="path20210"
           style="fill:#000000" />
        <g
           i:knockout="Off"
           id="g20216"
           style="fill:#000000">
          <g
             id="g20214"
             style="fill:#000000">
            <path
               i:knockout="Off"
               fill="#1c1d20"
               d="m 89.137,98.436 c -1.569,0.69 -2.853,1.439 -4.083,2.646 -4.136,4.213 -3.159,10.634 -0.217,15.313 2.131,3.391 4.98,6.496 9.027,7.235 4.661,0.775 9.488,-1.869 11.44,-6.172 1.445,-3.424 0.924,-7.133 -0.729,-10.536 -1.589,-3.151 -3.485,-5.952 -6.394,-7.737 -2.67,-1.649 -5.995,-1.971 -9.044,-0.749 z m 8.028,8.041 c 1.283,2.019 2.785,3.845 3.129,6.386 0.229,2.367 -1.587,4.407 -3.887,4.889 -1.42,0.245 -2.929,-0.094 -3.897,-1.185 -1.786,-1.884 -2.979,-4.062 -4.031,-6.479 -0.282,-0.802 -0.405,-1.512 -0.354,-2.335 0.153,-1.188 0.799,-2.308 1.798,-3.114 1.296,-0.954 3.013,-1.348 4.67,-0.712 1.216,0.468 1.937,1.438 2.572,2.55 z"
               id="path20212"
               style="fill:#000000" />
          </g>
        </g>
        <path
           i:knockout="Off"
           fill="#1c1d20"
           d="m 125.521,97.935 c 0.696,2.716 1.372,5.369 2.08,8.014 -1.078,0.764 -2.271,1.353 -3.382,1.987 -2.137,-8.474 -4.317,-16.866 -6.532,-25.385 1.078,-0.761 2.19,-1.396 3.383,-1.986 1.426,5.827 2.946,11.496 4.451,17.37 z"
           id="path20218"
           style="fill:#000000" />
        <g
           i:knockout="Off"
           id="g20224"
           style="fill:#000000">
          <g
             id="g20222"
             style="fill:#000000">
            <path
               i:knockout="Off"
               fill="#1c1d20"
               d="m 132.357,85.911 c -2.049,0.414 -3.862,1.71 -4.717,3.558 -1.052,2.375 -0.217,5.041 1.009,7.291 0.93,1.708 2.171,3.063 3.813,3.905 3.128,1.593 7.083,-0.277 8.389,-3.462 0.892,-2.467 0.091,-4.952 -1.148,-7.051 -1.576,-2.617 -4.13,-4.834 -7.346,-4.241 z m 4.069,5.861 c 0.489,1.099 1.329,1.938 1.381,3.14 0.129,1.989 -2.188,3.422 -3.832,2.579 -1.849,-0.854 -2.434,-2.79 -3.318,-4.578 -0.215,-0.551 -0.098,-1.121 0.02,-1.693 0.498,-1.416 1.954,-2.278 3.371,-1.78 1.095,0.313 1.869,1.186 2.378,2.332 z"
               id="path20220"
               style="fill:#000000" />
          </g>
        </g>
        <g
           i:knockout="Off"
           id="g20230"
           style="fill:#000000">
          <g
             id="g20228"
             style="fill:#000000">
            <path
               i:knockout="Off"
               fill="#1c1d20"
               d="m 109.704,87.524 c -2.904,0.239 -5.225,2.412 -5.638,5.157 -0.395,3.816 1.772,7.623 5.094,9.435 2.076,1.198 4.616,0.854 6.521,-0.6 1.562,-1.229 2.576,-2.986 2.414,-5.103 -0.392,-4.483 -3.496,-9.29 -8.391,-8.889 z m 2.976,4.807 c 1.003,1.517 2.376,3.074 1.889,5.029 -0.512,1.622 -2.426,2.539 -3.863,1.71 -1.723,-0.888 -2.309,-2.823 -3.159,-4.487 -0.215,-0.549 -0.145,-1.04 -0.027,-1.611 0.358,-1.177 1.313,-1.905 2.561,-2.037 1.118,-0.099 2.03,0.535 2.599,1.396 z"
               id="path20226"
               style="fill:#000000" />
          </g>
        </g>
      </g>
      <path
         fill-rule="evenodd"
         fill="#fefefe"
         fill-opacity="1"
         d="m 175.59999,297.00078 7.69923,13.5 82.60156,-47.69922 9.59766,16.5 L 303.40078,232.2 248.6,232.80156 l 9.60156,16.5 -82.60157,47.69922"
         id="path1637"
         style="fill:#ffffff;stroke-width:0.999998" />
    </g>
  </g>
</svg>
