<?xml version="1.0" encoding="UTF-8" standalone="no"?>
<svg
   viewBox="0 0 425.12 374.5"
   version="1.1"
   id="svg24"
   sodipodi:docname="Spain_traffic_signal_p24a.svg"
   inkscape:version="1.2.2 (732a01da63, 2022-12-09)"
   xmlns:inkscape="http://www.inkscape.org/namespaces/inkscape"
   xmlns:sodipodi="http://sodipodi.sourceforge.net/DTD/sodipodi-0.dtd"
   xmlns="http://www.w3.org/2000/svg"
   xmlns:svg="http://www.w3.org/2000/svg">
  <sodipodi:namedview
     id="namedview26"
     pagecolor="#ffffff"
     bordercolor="#666666"
     borderopacity="1.0"
     inkscape:pageshadow="2"
     inkscape:pageopacity="0.0"
     inkscape:pagecheckerboard="0"
     showgrid="false"
     inkscape:snap-intersection-paths="false"
     inkscape:snap-smooth-nodes="false"
     inkscape:snap-bbox="false"
     inkscape:snap-bbox-edge-midpoints="false"
     inkscape:bbox-nodes="false"
     showguides="true"
     inkscape:guide-bbox="true"
     inkscape:object-paths="false"
     inkscape:snap-bbox-midpoints="false"
     inkscape:zoom="3.0512272"
     inkscape:cx="222.36954"
     inkscape:cy="333.47238"
     inkscape:window-width="1920"
     inkscape:window-height="991"
     inkscape:window-x="-9"
     inkscape:window-y="-9"
     inkscape:window-maximized="1"
     inkscape:current-layer="Capa_1-2"
     inkscape:showpageshadow="2"
     inkscape:deskcolor="#d1d1d1" />
  <defs
     id="defs4">
    <style
       id="style2">.cls-1{fill:red;}.cls-1,.cls-2,.cls-3{fill-rule:evenodd;}.cls-2{fill:#fff;}.cls-3{fill:#010101;}</style>
  </defs>
  <g
     id="Capa_2"
     data-name="Capa 2">
    <g
       id="Capa_1-2"
       data-name="Capa 1">
      <path
         class="cls-1"
         d="m 401.2,374.5 a 21.28,21.28 0 0 0 5.5,-0.7 21.94,21.94 0 0 0 5.7,-2.1 30.58,30.58 0 0 0 5.3,-3.8 27.9,27.9 0 0 0 4.2,-5.4 24.37,24.37 0 0 0 2.5,-6.3 20.91,20.91 0 0 0 0.7,-6.5 28.93,28.93 0 0 0 -1,-6 25.22,25.22 0 0 0 -2.2,-5 L 233.2,11.9 a 21.37,21.37 0 0 0 -3.2,-4.4 30.44,30.44 0 0 0 -4.7,-3.9 23.18,23.18 0 0 0 -6,-2.6 21.32,21.32 0 0 0 -6.7,-1 22.4,22.4 0 0 0 -6.8,1 24.06,24.06 0 0 0 -5.9,2.6 26.34,26.34 0 0 0 -4.7,3.9 22,22 0 0 0 -3.3,4.4 L 3.2,338.7 a 32.77,32.77 0 0 0 -2.2,5 28.93,28.93 0 0 0 -1,6 29.37,29.37 0 0 0 0.7,6.5 24.37,24.37 0 0 0 2.5,6.3 27.9,27.9 0 0 0 4.2,5.4 30.58,30.58 0 0 0 5.3,3.8 21.94,21.94 0 0 0 5.7,2.1 21.28,21.28 0 0 0 5.5,0.7 h 377.3"
         id="path6" />
      <polyline
         class="cls-2"
         points="44.5 338.7 380.6 338.7 212.6 47.7 44.5 338.7"
         id="polyline8"
         style="display:inline" />
      <g
         id="g1614"
         transform="matrix(0.91364283,0,0,0.91364283,543.12574,-188.87848)">
        <path
           fill-rule="evenodd"
           fill="rgb(20.399475%, 20.399475%, 20.399475%)"
           fill-opacity="1"
           d="m -514.1237,565.51792 h 21.125 l 24.84374,-65.23437 h -17.18229 l -28.78645,65.23437"
           id="path492"
           style="fill:#000000;stroke-width:1.33333" />
        <path
           fill-rule="evenodd"
           fill="rgb(20.399475%, 20.399475%, 20.399475%)"
           fill-opacity="1"
           d="m -272.34246,565.51792 h 21.125 l -21.125,-65.23437 h -17.29688 l 17.29688,65.23437"
           id="path494"
           style="fill:#000000;stroke-width:1.33333" />
        <path
           fill-rule="evenodd"
           fill="rgb(20.399475%, 20.399475%, 20.399475%)"
           fill-opacity="1"
           d="m -232.06642,565.51792 h 21.125 l -28.78646,-65.23437 h -17.29167 l 24.95313,65.23437"
           id="path496"
           style="fill:#000000;stroke-width:1.33333" />
        <path
           fill-rule="evenodd"
           fill="rgb(20.399475%, 20.399475%, 20.399475%)"
           fill-opacity="1"
           d="m -331.88412,565.51792 -5.91147,-65.23437 h -17.0729 l 1.85937,65.23437 h 21.125"
           id="path498"
           style="fill:#000000;stroke-width:1.33333" />
        <path
           fill-rule="evenodd"
           fill="rgb(20.399475%, 20.399475%, 20.399475%)"
           fill-opacity="1"
           d="m -291.60808,565.51792 -13.35417,-65.23437 h -17.29167 l 9.63021,65.23437 h 21.01563"
           id="path500"
           style="fill:#000000;stroke-width:1.33333" />
        <path
           fill-rule="evenodd"
           fill="rgb(20.399475%, 20.399475%, 20.399475%)"
           fill-opacity="1"
           d="m -421.19663,420.60126 c 3.5,0 6.89063,-1.42188 9.30208,-3.82814 2.51563,-2.52082 3.93751,-5.80208 3.93751,-9.30728 0,-3.5 -1.42188,-6.89584 -3.93751,-9.30209 -2.41145,-2.51563 -5.80208,-3.83333 -9.30208,-3.83333 -1.53645,0 -3.17708,0.22396 -4.8177,0.88021 -1.64063,0.65625 -3.17708,1.64063 -4.38022,2.95312 -1.31249,1.31251 -2.29686,2.84376 -2.95311,4.38021 -0.65626,1.64063 -0.98438,3.28126 -0.98438,4.92188 0,1.53124 0.32812,3.17708 0.98438,4.81771 0.65625,1.64063 1.64062,3.17187 2.95311,4.48957 1.20314,1.20314 2.73959,2.18751 4.38022,2.84376 1.64062,0.65624 3.28125,0.98438 4.8177,0.98438"
           id="path502"
           style="fill:#000000;stroke-width:1.33333" />
        <path
           fill-rule="evenodd"
           fill="rgb(20.399475%, 20.399475%, 20.399475%)"
           fill-opacity="1"
           d="m -343.59767,436.2523 -1.20312,-12.8073 h -12.3698 l 0.43751,12.8073 h 13.13541"
           id="path504"
           style="fill:#000000;stroke-width:1.33333" />
        <path
           fill-rule="evenodd"
           fill="rgb(20.399475%, 20.399475%, 20.399475%)"
           fill-opacity="1"
           d="m -368.33204,436.2523 0.32812,-12.8073 h -12.80729 l -1.09375,12.8073 h 13.57292"
           id="path506"
           style="fill:#000000;stroke-width:1.33333" />
        <path
           fill-rule="evenodd"
           fill="rgb(20.399475%, 20.399475%, 20.399475%)"
           fill-opacity="1"
           d="m -443.63412,436.2523 4.92187,-12.8073 h -12.80729 l -5.57812,12.8073 h 13.46354"
           id="path508"
           style="fill:#000000;stroke-width:1.33333" />
        <path
           fill-rule="evenodd"
           fill="rgb(20.399475%, 20.399475%, 20.399475%)"
           fill-opacity="1"
           d="m -293.13934,388.86167 c 0,-2.08333 -0.875,-4.05208 -2.29688,-5.47396 -1.42708,-1.53125 -3.39582,-2.29687 -5.47394,-2.29687 -2.07813,0 -4.05209,0.76562 -5.58333,2.29687 -1.42188,1.42188 -2.29688,3.39063 -2.29688,5.47396 0,2.07812 0.875,4.04688 2.29688,5.46875 1.53124,1.53646 3.5052,2.30209 5.58333,2.30209 2.07812,0 4.04686,-0.76563 5.47394,-2.30209 1.42188,-1.42187 2.29688,-3.39063 2.29688,-5.46875"
           id="path510"
           style="fill:#000000;stroke-width:1.33333" />
        <path
           fill-rule="evenodd"
           fill="rgb(20.399475%, 20.399475%, 20.399475%)"
           fill-opacity="1"
           d="m -454.91016,543.73667 c 3.94271,1.20312 8.20834,0.76562 11.82291,-1.20834 3.60937,-1.96874 6.23437,-5.35937 7.44271,-9.30208 l 5.24999,-22.54688 9.19792,-17.51041 c 0.43751,-0.65625 1.09375,-1.09375 1.96875,-1.09375 0.76563,0 1.42188,0.4375 1.85939,1.09375 l 6.23957,20.03125 22.76563,30.09896 c 3.17188,-1.97396 5.36458,-5.03646 6.23958,-8.65105 0.76563,-3.5 0.21875,-7.33333 -1.75,-10.39583 l -13.02604,-17.29166 -7.98958,-32.51042 0.76562,-30.09895 13.02604,10.07291 v 18.71354 c 0,0.54688 0.21875,1.20313 0.76563,1.53125 0.32812,0.21875 0.54688,0.32812 0.875,0.32812 0.32812,0.10933 0.65625,0 0.875,-0.10933 l 4.27083,-1.96875 c 1.85938,-0.98437 3.0625,-2.84375 3.17188,-5.03645 v -21.01043 l -27.47396,-24.30208 c -2.07812,-1.85937 -5.14063,-2.18749 -7.55208,-0.76562 l -13.79167,7.55208 -33.70833,45.09375 c -0.43751,0.4375 -0.54688,1.09375 -0.21875,1.64583 0.10934,0.21875 0.32812,0.43751 0.54687,0.65625 0.32813,0.10934 0.54688,0.21875 0.875,0.10934 h 4.27084 c 1.20312,0.10933 2.40625,-0.32812 3.28125,-1.20834 l 22.54687,-22.54687 2.40625,21.34375 -14.44792,27.47396 -10.5052,41.8125"
           id="path512"
           style="fill:#000000;stroke-width:1.33333" />
        <path
           fill-rule="evenodd"
           fill="rgb(20.399475%, 20.399475%, 20.399475%)"
           fill-opacity="1"
           d="m -448.23308,548.54917 c -1.96874,0.21875 -4.05208,0.10934 -6.02084,-0.21876 -2.07812,-0.43749 -3.93749,-1.09374 -5.6927,-2.07812 l 11.4948,-45.96874 h -4.27084 l -21.125,65.23437 h 21.125 l 4.48958,-16.96875"
           id="path514"
           style="fill:#000000;stroke-width:1.33333" />
        <path
           fill-rule="evenodd"
           fill="rgb(20.399475%, 20.399475%, 20.399475%)"
           fill-opacity="1"
           d="m -412.44141,565.51792 5.80208,-39.40625 -8.32292,-10.94271 -4.92187,-15.86979 -13.68229,66.21875 h 21.125"
           id="path516"
           style="fill:#000000;stroke-width:1.33333" />
        <path
           fill-rule="evenodd"
           fill="rgb(20.399475%, 20.399475%, 20.399475%)"
           fill-opacity="1"
           d="m -380.37371,521.84604 c 0.76563,0.98437 1.3125,2.18751 1.75,3.5 0.4375,1.20313 0.875,2.63021 0.98438,4.05208 0.32812,3.06251 0,6.13021 -1.3125,9.08333 -1.20313,2.95314 -3.17188,5.47396 -5.57813,7.22396 -1.09896,0.98438 -2.30208,1.64063 -3.61459,2.29688 -1.20312,0.54688 -2.51561,0.875 -3.71874,1.20312 l -1.42708,16.31251 h 21.125 l 1.96874,-65.23437 h -17.29166 l -0.98438,10.72396 8.09896,10.83853"
           id="path518"
           style="fill:#000000;stroke-width:1.33333" />
        <path
           fill-rule="evenodd"
           fill="rgb(20.399475%, 20.399475%, 20.399475%)"
           fill-opacity="1"
           d="m -307.58725,442.27312 c -0.21875,-0.43749 -0.21875,-1.09374 0,-1.64061 0.10933,-0.21876 0.21876,-0.43751 0.4375,-0.65625 0.21875,-0.10934 0.4375,-0.32814 0.65626,-0.32814 l 17.9479,-6.5677 c 1.31771,-0.54687 2.63021,-1.53124 3.39584,-2.95834 0.875,-1.42186 1.09375,-3.06249 0.76563,-4.48437 l -4.0521,-22.32812 c -0.54686,-2.63021 -2.40624,-4.81771 -4.92186,-5.58333 -1.20314,-0.43751 -2.52084,-0.43751 -3.83334,-0.21875 -1.3125,0.32812 -2.51562,0.98437 -3.39062,1.85937 l -24.18751,23.53124 c -0.54686,0.65626 -0.8802,1.53647 -0.98957,2.41147 -0.10933,0.98437 0,1.85937 0.33333,2.625 h -5.36458 c -0.98438,0.21875 -2.08334,0.65625 -3.06771,1.42187 -0.98437,0.76562 -1.75,1.75 -2.18751,3.06772 -0.54686,1.20312 -0.65624,2.51561 -0.43749,3.71874 0.21875,1.20312 0.65625,2.1875 1.31249,3.06771 l -7.33333,13.45833 c -1.31249,-0.65625 -2.73437,-1.20312 -4.375,-1.64062 -1.64583,-0.32812 -3.28645,-0.54688 -5.14583,-0.54688 -3.61458,0.10933 -7.22396,1.09376 -10.6198,3.17187 -3.28124,1.97396 -5.90624,4.81771 -7.55208,7.99479 -0.875,1.64063 -1.42186,3.28125 -1.85937,4.81251 -0.32812,1.64062 -0.54688,3.17708 -0.54688,4.70833 0,2.40625 0.43751,5.03645 1.42188,7.55208 0.98437,2.625 2.63021,5.03647 4.59896,7.11459 2.07812,1.96874 4.48959,3.60937 7.11459,4.59374 2.51562,0.98959 5.14582,1.42708 7.66145,1.42708 2.40625,0 5.03645,-0.43749 7.55208,-1.42708 2.625,-0.98437 5.03647,-2.625 7.11459,-4.59374 2.07812,-2.07812 3.60937,-4.48959 4.59896,-7.11459 0.98437,-2.51563 1.42188,-5.14583 1.42188,-7.55208 0.10933,-6.34896 -2.95834,-12.15104 -7.98959,-15.86979 l 3.06249,-5.58333 26.38022,23.20312 c 0.10933,0.10933 0.21874,0.21875 0.32812,0.21875 0.21876,0.10933 0.32813,0.10933 0.54688,0.10933 h 13.79166 c 0.10933,2.29688 0.65625,4.70833 1.75,7.11459 1.09375,2.29688 2.625,4.48958 4.59375,6.34896 1.97396,1.75 4.38021,3.17188 6.78646,4.05208 2.41146,0.875 4.81771,1.20313 7.22395,1.09374 2.41147,0 5.03647,-0.43749 7.55209,-1.42708 2.6302,-0.98437 5.03646,-2.625 7.11458,-4.59374 2.08333,-2.07812 3.61458,-4.48959 4.59896,-7.11459 0.98437,-2.51563 1.42188,-5.14583 1.42188,-7.55208 0.10933,-1.53125 -0.10934,-2.95833 -0.43751,-4.59896 -0.32812,-1.53125 -0.875,-3.06249 -1.64061,-4.59375 -1.53126,-3.17708 -3.83334,-6.02084 -7.00522,-8.09896 -3.0625,-2.08333 -6.5677,-3.28645 -10.0677,-3.50521 -1.75522,-0.10933 -3.39584,0 -5.03647,0.32814 -1.53124,0.21874 -2.95833,0.65624 -4.27083,1.20312 l -5.03125,-8.86459 2.73437,-4.16145 h 3.83334 c 0.32813,0 0.76562,-0.10934 0.98437,-0.32812 0.32813,-0.32814 0.43751,-0.65626 0.43751,-0.98439 v -4.81249 c -0.10934,-0.54688 -0.54688,-1.09375 -1.20312,-1.20312 -0.32814,-0.11454 -0.77084,-0.11454 -0.98959,-0.11454 -0.32813,0.11454 -0.65625,0.22396 -0.76563,0.44271 l -10.9427,4.04688 c -0.76563,0.21875 -1.20314,0.875 -1.20314,1.64061 0,0.32814 0.21876,0.65626 0.43751,0.875 0.32812,0.32814 0.65625,0.43751 0.98437,0.43751 h 3.28126 l -2.29688,3.50521 h -15.32292 l -0.10933,-0.10933 m 21.34375,11.60417 c -2.63021,1.64063 -4.81772,3.82812 -6.34896,6.45312 -1.53125,2.63021 -2.40625,5.58333 -2.51562,8.65104 h -5.80208 l 11.3802,-20.90624 3.28646,5.80208 m 1.96875,4.04688 5.14583,9.19271 c 0,0.10933 0.10933,0.32812 0.10933,0.54686 0,0.21876 0,0.43751 -0.21875,0.65626 -0.10933,0.22396 -0.21874,0.4427 -0.43749,0.55208 -0.21876,0.10933 -0.43751,0.10933 -0.54688,0.10933 h -10.51041 c 0.21874,-2.19271 0.76562,-4.27083 1.96874,-6.23957 1.09896,-1.97396 2.63022,-3.61459 4.48959,-4.81771 m 7.77083,15.32291 c 1.09376,-0.4375 2.07813,-1.20312 2.51562,-2.51563 0.21875,-0.65624 0.32814,-1.31249 0.21875,-1.96875 -0.10933,-0.66145 -0.21875,-1.20833 -0.54687,-1.64582 l -6.34374,-11.27084 c 1.09374,-0.4375 2.18749,-0.76563 3.5,-0.98438 1.20312,-0.21874 2.51561,-0.32812 3.83333,-0.21874 2.84375,0.21874 5.57812,1.09374 7.98957,2.84374 2.40626,1.64063 4.26563,3.94271 5.46876,6.34896 0.65624,1.20312 0.98438,2.51563 1.31771,3.71875 0.21875,1.20833 0.32812,2.41147 0.32812,3.61459 0,1.85937 -0.32812,3.93749 -1.20833,6.02082 -0.76563,1.96876 -1.96875,3.93751 -3.60938,5.57814 -1.64062,1.64582 -3.50521,2.84896 -5.58333,3.61458 -2.07812,0.875 -4.15625,1.20312 -6.02084,1.20312 -1.85937,0 -3.71875,-0.21874 -5.68749,-0.875 -1.86459,-0.65625 -3.72396,-1.75 -5.25522,-3.0625 -1.64062,-1.42708 -2.84896,-3.06771 -3.72396,-4.92708 -0.875,-1.75 -1.42186,-3.72396 -1.53124,-5.47396 h 14.33854 m -64.90624,-14.66667 c 1.20833,0.98437 2.30208,2.18751 3.28645,3.61459 0.875,1.42188 1.64063,2.95312 2.07812,4.70312 0.43751,1.64584 0.65626,3.39584 0.54688,5.03646 -0.10933,1.75 -0.4375,3.28126 -0.98437,4.81771 -0.43751,1.42188 -1.20313,2.95312 -2.29688,4.26563 -0.98437,1.31249 -2.19271,2.52082 -3.61459,3.61458 -1.42186,0.98438 -3.06249,1.75 -4.59374,2.1875 -1.64583,0.54688 -3.28646,0.76562 -4.81771,0.76562 -1.96875,0 -4.05208,-0.32812 -6.13021,-1.20312 -1.96875,-0.76562 -3.9375,-1.96876 -5.58334,-3.61458 -1.53124,-1.64063 -2.84374,-3.60938 -3.60937,-5.57814 -0.76563,-2.08333 -1.20312,-4.16145 -1.20312,-6.02082 0,-1.20312 0.10933,-2.40626 0.43749,-3.72396 0.21876,-1.20312 0.65626,-2.51563 1.31251,-3.71875 1.31249,-2.51563 3.28125,-4.81771 5.80208,-6.45833 2.625,-1.64063 5.46875,-2.51563 8.31771,-2.51563 1.42188,-0.10933 2.73437,0.10933 4.04688,0.32812 1.20833,0.32813 2.41145,0.65625 3.39582,1.20313 l -7.33333,11.3802 c -1.85937,0.43751 -3.17708,2.19271 -3.06771,4.16147 0.10934,1.85937 1.64584,3.5 3.61459,3.60937 1.42188,0.10934 2.84375,-0.54688 3.5,-1.85937 0.43751,-0.54688 0.54688,-1.31251 0.54688,-2.07813 0,-0.65624 -0.32813,-1.42187 -0.65625,-1.96875 l 7.00521,-10.94792 m 41.375,-0.10933 -5.47396,-11.81771 h 11.8229 l -6.34894,11.81771 m -20.35939,-25.5 c 0.65626,0 1.42188,-0.21875 1.85939,-0.875 0.55208,-0.54687 0.77083,-1.20833 0.66145,-1.86459 l 13.02083,-12.36457 4.70833,8.31771 -16.41666,6.23958 c -0.65624,0.32812 -1.42187,0.65624 -1.97395,1.3125 -0.65625,0.54688 -1.09376,1.20312 -1.42188,2.07812 -0.32812,0.76562 -0.43751,1.64062 -0.43751,2.51562 0,0.32814 0.10934,0.77084 0.21876,1.09896 0.10934,0.43751 0.21875,0.76563 0.32812,1.09375 l 0.875,1.85939 h -13.13021 l 1.64063,-3.06251 -1.53124,-6.34896 h 11.59894 m 12.69792,36.01041 -25.5052,-22.32812 h 16.3125 l 10.61458,22.32812 h -1.42188"
           id="path520"
           style="fill:#000000;stroke-width:1.33333" />
      </g>
    </g>
  </g>
</svg>
