<svg xmlns="http://www.w3.org/2000/svg" viewBox="0 0 425.12 374.5"><defs><style>.cls-1{fill:red;}.cls-1,.cls-2,.cls-3{fill-rule:evenodd;}.cls-2{fill:#fff;}.cls-3{fill:#010101;}</style></defs><g id="Capa_2" data-name="Capa 2"><g id="Capa_1-2" data-name="Capa 1"><path class="cls-1" d="M401.2,374.5a26.44,26.44,0,0,0,5.5-.6,26.75,26.75,0,0,0,5.7-2.2,26,26,0,0,0,5.3-3.8,24.54,24.54,0,0,0,4.2-5.3,25,25,0,0,0,2.5-6.4,20.91,20.91,0,0,0,.7-6.5,28.93,28.93,0,0,0-1-6,25.22,25.22,0,0,0-2.2-5L233.2,11.9A24.44,24.44,0,0,0,230,7.5a22.32,22.32,0,0,0-4.7-3.8,20.42,20.42,0,0,0-6-2.7,21.32,21.32,0,0,0-6.7-1,22.4,22.4,0,0,0-6.8,1,21.06,21.06,0,0,0-5.9,2.7,22.32,22.32,0,0,0-4.7,3.8,25.24,25.24,0,0,0-3.3,4.4L3.2,338.7a32.77,32.77,0,0,0-2.2,5,28.93,28.93,0,0,0-1,6,29.37,29.37,0,0,0,.7,6.5,25,25,0,0,0,2.5,6.4,24.54,24.54,0,0,0,4.2,5.3,26,26,0,0,0,5.3,3.8,26.75,26.75,0,0,0,5.7,2.2,26.44,26.44,0,0,0,5.5.6H401.2"/><polyline class="cls-2" points="44.6 338.7 380.6 338.7 212.6 47.7 44.6 338.7"/><polyline class="cls-3" points="87.4 320 104.8 320 125.4 266.1 111.1 266.1 87.4 320"/><polyline class="cls-3" points="120.6 320 138.1 320 152.3 266.1 138.1 266.1 120.6 320"/><polyline class="cls-3" points="287 320 304.5 320 287 266.1 272.8 266.1 287 320"/><polyline class="cls-3" points="320.3 320 337.8 320 314 266.1 299.7 266.1 320.3 320"/><path class="cls-3" d="M207.8,148.8a16.41,16.41,0,0,0,6.1-1.1,19.27,19.27,0,0,0,5.7-3.7,17.48,17.48,0,0,0,3.7-5.7,16.41,16.41,0,0,0,1.1-6.1,16.72,16.72,0,0,0-4.8-11.8,17,17,0,0,0-11.8-4.9,16.55,16.55,0,0,0-6.1,1.2,17.48,17.48,0,0,0-5.7,3.7,19.27,19.27,0,0,0-3.7,5.7,16.41,16.41,0,0,0-1.1,6.1,16.39,16.39,0,0,0,16.6,16.6"/><path class="cls-3" d="M207.8,149.2a17.29,17.29,0,0,0,6.2-1.1,16.77,16.77,0,0,0,5.7-3.8,17.79,17.79,0,0,0,3.8-5.7,17.29,17.29,0,0,0,1.1-6.2,16.9,16.9,0,0,0-16.8-16.9,17.47,17.47,0,0,0-6.2,1.2,17.79,17.79,0,0,0-5.7,3.8,16.77,16.77,0,0,0-3.8,5.7,17.29,17.29,0,0,0-1.1,6.2,16.73,16.73,0,0,0,16.8,16.8"/><path class="cls-3" d="M164.5,307.1a19.88,19.88,0,0,0,24.7-13.5l6.7-28.9,11.9-22.4a2.67,2.67,0,0,1,4.8,0l8,25.6,29.2,38.5a17.48,17.48,0,0,0,5.8-24.3l-16.7-22.2-10.2-41.7.9-38.5,16.7,12.9v24a2.21,2.21,0,0,0,1,2,1.5,1.5,0,0,0,1.1.4,2,2,0,0,0,1.1-.1l5.5-2.6a7.53,7.53,0,0,0,4.1-6.4v-27l-35.3-31.1a7.84,7.84,0,0,0-4.6-2.1,8,8,0,0,0-5,1.1l-17.6,9.7-43.3,57.7a1.82,1.82,0,0,0-.3,2.2,2,2,0,0,0,.8.8,1.39,1.39,0,0,0,1.1.2h5.4a5.43,5.43,0,0,0,4.2-1.6l28.9-28.9,3.2,27.3L178,253.5l-13.5,53.6"/><path class="cls-3" d="M172.4,312.9a24.93,24.93,0,0,1-7.2-.4,22.35,22.35,0,0,1-6.7-2.4l11-44H165L153.9,320h17.5l1-7.1"/><path class="cls-3" d="M188.5,304.9,187.2,320h17.4l1.6-53.9H201l-.2.4-6.7,28.4a24.2,24.2,0,0,1-5.6,10"/><polyline class="cls-3" points="219.1 274.4 220.5 320 237.9 320 235.8 296.4 219.1 274.4"/><path class="cls-3" d="M259.8,279.2a24,24,0,0,1,3.2,8,24.86,24.86,0,0,1-.2,9.4,22.54,22.54,0,0,1-4,8.4,16,16,0,0,1-3,3.3,27.85,27.85,0,0,1-3.4,2.6l1.4,9.1h17.4l-11.1-53.9H250l9.8,13.1"/></g></g></svg>