<svg xmlns="http://www.w3.org/2000/svg" viewBox="0 0 425.12 374.5"><defs><style>.cls-1{fill:red;}.cls-1,.cls-2,.cls-3{fill-rule:evenodd;}.cls-2{fill:#fff;}.cls-3{fill:#010101;}</style></defs><g id="Capa_2" data-name="Capa 2"><g id="Capa_1-2" data-name="Capa 1"><path class="cls-1" d="M401.2,374.5a21.28,21.28,0,0,0,5.5-.7,21.94,21.94,0,0,0,5.7-2.1,30.58,30.58,0,0,0,5.3-3.8,27.9,27.9,0,0,0,4.2-5.4,24.37,24.37,0,0,0,2.5-6.3,20.91,20.91,0,0,0,.7-6.5,28.93,28.93,0,0,0-1-6,25.22,25.22,0,0,0-2.2-5L233.2,11.9A21.37,21.37,0,0,0,230,7.5a30.44,30.44,0,0,0-4.7-3.9,23.18,23.18,0,0,0-6-2.6,21.32,21.32,0,0,0-6.7-1,22.4,22.4,0,0,0-6.8,1,24.06,24.06,0,0,0-5.9,2.6,26.34,26.34,0,0,0-4.7,3.9,22,22,0,0,0-3.3,4.4L3.2,338.7a32.77,32.77,0,0,0-2.2,5,28.93,28.93,0,0,0-1,6,29.37,29.37,0,0,0,.7,6.5,24.37,24.37,0,0,0,2.5,6.3,27.9,27.9,0,0,0,4.2,5.4,30.58,30.58,0,0,0,5.3,3.8,21.94,21.94,0,0,0,5.7,2.1,21.28,21.28,0,0,0,5.5.7H401.2"/><polyline class="cls-2" points="44.5 338.7 380.6 338.7 212.6 47.7 44.5 338.7"/><polyline class="cls-3" points="116.3 256.8 147.6 273.9 160.8 251.9 129.5 234.2 116.3 256.8"/><path class="cls-3" d="M152.8,185.2a13.7,13.7,0,0,0,4.5,8.8,13.54,13.54,0,0,0,9.2,3.5,13.39,13.39,0,0,0,9.1-3.6,13.7,13.7,0,0,0,4.3-8.9l1.8-.1-1.1,4.4,11.1-1.3-3.8-4.5,7.7-.2-.8-6.1-7.4.6.2-3.8-8.9,1,1.8,4.1-2.8-.4a12.22,12.22,0,0,0-6.1-7.1,13.1,13.1,0,0,0-9.3-1.1,13,13,0,0,0-9.5,14.7"/><path class="cls-3" d="M164.9,202.7l-18.6,31.6a5.21,5.21,0,0,0-.6,3.9,5.1,5.1,0,0,0,2.4,3.1,4.88,4.88,0,0,0,3.9.5,5.15,5.15,0,0,0,3.1-2.3l12.6-19,9.5,12.8-6.4,22.3,2.8,1.5-4,18,6.3,29.3a5.89,5.89,0,0,0,2.1,4.1,6.52,6.52,0,0,0,4.4,1.3,5.87,5.87,0,0,0,4-2.1,6.3,6.3,0,0,0,1.3-4.4L181.5,275l4.5-17.5,5.9-.3,4.2,7.4a11.69,11.69,0,0,0,9.9,5.9,11.64,11.64,0,0,0,3.8-.6l21.2-7.6a6.41,6.41,0,0,0,3.1-3.7,6.56,6.56,0,0,0-.5-4.8,11.92,11.92,0,0,0-1.5-1.8,7.76,7.76,0,0,0-2.2-1.2,7.63,7.63,0,0,0-2.6-.2,5.19,5.19,0,0,0-2.2.7l-19.6,6.9-1.3-3.2,2.6-2.3-12.5-22.8-2-16.5,18.7,7a5.8,5.8,0,0,0,4.3.1,5.52,5.52,0,0,0,3.1-2.9,5.78,5.78,0,0,0,.2-4.3,5.33,5.33,0,0,0-1.3-2,6.57,6.57,0,0,0-1.7-1.2L180.2,198a13,13,0,0,0-15.3,4.7"/><polyline class="cls-3" points="280.8 241.1 281.7 256.3 303.8 249.4 296.9 235.7 280.8 241.1"/><path class="cls-3" d="M258.8,210a13,13,0,1,0-9.2-3.8,13,13,0,0,0,9.2,3.8"/><path class="cls-3" d="M285.1,223a9.56,9.56,0,0,0-2.3-2.6,10.88,10.88,0,0,0-3.1-1.8l-16.2-6.4a19.76,19.76,0,0,0-10.2,1.5l-19.6,11.7-6.4-6.8a4.07,4.07,0,0,0-3-1.4,3.94,3.94,0,0,0-3.1,1.1,4.3,4.3,0,0,0-1.4,3.1,4.23,4.23,0,0,0,1.1,3.1l6.9,7.8a6.48,6.48,0,0,0,1.7,2,6.78,6.78,0,0,0,2.7,1.3,7.59,7.59,0,0,0,3-.1,9,9,0,0,0,2.4-1.2l8.8-5.4,2.5,14.4-6.1,12.9,2.1,1.5-4,8.5,1.2,34.7a5.79,5.79,0,0,0,1.4,4.2,5.61,5.61,0,0,0,3.9,1.9,5.43,5.43,0,0,0,4.1-1.4,5.53,5.53,0,0,0,2-3.9l-1.4-33,3.5-7.6,2.2.7,3.5-4.1,3.4,5.3,2-1.6,4.1,6.7a11.53,11.53,0,0,0,1.9,2.6,8.53,8.53,0,0,0,3,1.9,8.28,8.28,0,0,0,3.5.5,7.83,7.83,0,0,0,3.1-.7l17.7-7.9a5.21,5.21,0,0,0,3-3,5.55,5.55,0,0,0,0-4.2,5.22,5.22,0,0,0-3-3,5.12,5.12,0,0,0-4.2,0l-16.2,6.3-3.5-4.4,1.9-1.6-9.9-13.2,3.3-15.5,4.9,1.5,2.4,7.8a4.46,4.46,0,0,0,1.8,2.8,4.24,4.24,0,0,0,3.1.7,4.57,4.57,0,0,0,2.8-1.8,4,4,0,0,0,.6-1.5,3,3,0,0,0,.1-1.6l-2-10.8"/></g></g></svg>