<?xml version="1.0" encoding="UTF-8" standalone="no"?>
<svg
   viewBox="0 0 425.12 374.5"
   version="1.1"
   id="svg24"
   sodipodi:docname="Spain traffic signal p21-b, 2023 set.svg"
   inkscape:version="1.1.2 (b8e25be833, 2022-02-05)"
   xmlns:inkscape="http://www.inkscape.org/namespaces/inkscape"
   xmlns:sodipodi="http://sodipodi.sourceforge.net/DTD/sodipodi-0.dtd"
   xmlns="http://www.w3.org/2000/svg"
   xmlns:svg="http://www.w3.org/2000/svg">
  <sodipodi:namedview
     id="namedview26"
     pagecolor="#ffffff"
     bordercolor="#666666"
     borderopacity="1.0"
     inkscape:pageshadow="2"
     inkscape:pageopacity="0.0"
     inkscape:pagecheckerboard="0"
     showgrid="false"
     inkscape:snap-intersection-paths="false"
     inkscape:snap-smooth-nodes="false"
     inkscape:snap-bbox="false"
     inkscape:snap-bbox-edge-midpoints="false"
     inkscape:bbox-nodes="false"
     showguides="true"
     inkscape:guide-bbox="true"
     inkscape:object-paths="false"
     inkscape:snap-bbox-midpoints="false"
     inkscape:zoom="1.5256136"
     inkscape:cx="235.6429"
     inkscape:cy="177.96119"
     inkscape:window-width="1920"
     inkscape:window-height="1001"
     inkscape:window-x="-9"
     inkscape:window-y="-9"
     inkscape:window-maximized="1"
     inkscape:current-layer="Capa_1-2" />
  <defs
     id="defs4">
    <style
       id="style2">.cls-1{fill:red;}.cls-1,.cls-2,.cls-3{fill-rule:evenodd;}.cls-2{fill:#fff;}.cls-3{fill:#010101;}</style>
  </defs>
  <g
     id="Capa_2"
     data-name="Capa 2">
    <g
       id="Capa_1-2"
       data-name="Capa 1">
      <path
         class="cls-1"
         d="m 401.2,374.5 a 21.28,21.28 0 0 0 5.5,-0.7 21.94,21.94 0 0 0 5.7,-2.1 30.58,30.58 0 0 0 5.3,-3.8 27.9,27.9 0 0 0 4.2,-5.4 24.37,24.37 0 0 0 2.5,-6.3 20.91,20.91 0 0 0 0.7,-6.5 28.93,28.93 0 0 0 -1,-6 25.22,25.22 0 0 0 -2.2,-5 L 233.2,11.9 a 21.37,21.37 0 0 0 -3.2,-4.4 30.44,30.44 0 0 0 -4.7,-3.9 23.18,23.18 0 0 0 -6,-2.6 21.32,21.32 0 0 0 -6.7,-1 22.4,22.4 0 0 0 -6.8,1 24.06,24.06 0 0 0 -5.9,2.6 26.34,26.34 0 0 0 -4.7,3.9 22,22 0 0 0 -3.3,4.4 L 3.2,338.7 a 32.77,32.77 0 0 0 -2.2,5 28.93,28.93 0 0 0 -1,6 29.37,29.37 0 0 0 0.7,6.5 24.37,24.37 0 0 0 2.5,6.3 27.9,27.9 0 0 0 4.2,5.4 30.58,30.58 0 0 0 5.3,3.8 21.94,21.94 0 0 0 5.7,2.1 21.28,21.28 0 0 0 5.5,0.7 h 377.3"
         id="path6" />
      <polyline
         class="cls-2"
         points="44.5 338.7 380.6 338.7 212.6 47.7 44.5 338.7"
         id="polyline8"
         style="display:inline" />
      <path
         d="m 243.6,153.2 c -2.3,-2.3 -5.5,-3.6 -8.8,-3.6 -3.3,0 -6.4,1.3 -8.8,3.6 -2.3,2.4 -3.6,5.5 -3.6,8.8 0,3.3 1.3,6.50001 3.6,8.8 2.4,2.3 5.5,3.6 8.8,3.6 3.3,0 6.5,-1.3 8.8,-3.6 2.3,-2.29999 3.6,-5.5 3.6,-8.8 0,-3.3 -1.3,-6.4 -3.6,-8.8 z"
         style="fill:#010101;fill-opacity:1;fill-rule:evenodd;stroke:none;stroke-width:0.999998"
         id="path72"
         sodipodi:nodetypes="cscscsscc" />
      <path
         d="m 175,166 c -2.2,-2.1 -5.1,-3.3 -8.2,-3.3 -3.1,0 -6,1.2 -8.2,3.3 -2.2,2.2 -3.4,5.2 -3.4,8.2 0,3.1 1.2,6.1 3.4,8.2 2.2,2.2 5.1,3.4 8.2,3.4 3.1,0 6,-1.2 8.2,-3.4 2.2,-2.1 3.4,-5.1 3.4,-8.2 0,-3 -1.2,-6 -3.4,-8.2 z"
         style="fill:#010101;fill-opacity:1;fill-rule:evenodd;stroke:none;stroke-width:0.999998"
         id="path76"
         sodipodi:nodetypes="cscscsccc" />
      <path
         d="m 138.7,240.1 c 0,-0.5 0.1,-1.1 0.6,-1.59999 C 139.8,238 140.4,237.7 140.9,237.7 c 0.6,0 1.2,0.3 1.7,0.80001 C 142.8,238.7 143,239 143,239.3 c 0.1,0.3 0.2,0.6 0.1,0.8 v 77.7 c 0.1,0.6 -0.1,1.2 -0.5,1.7 -0.5,0.5 -1.1,0.7 -1.7,0.7 -0.5,0 -1.1,-0.2 -1.6,-0.7 -0.2,-0.3 -0.4,-0.5 -0.5,-0.8 -0.1,-0.3 -0.1,-0.6 -0.1,-0.9 v -77.7"
         style="fill:#010101;fill-opacity:1;fill-rule:evenodd;stroke:none;stroke-width:0.999998"
         id="path80" />
      <path
         d="m 254.7,169.6 c -1.5,-0.5 -3.1,-0.6 -4.7,-0.3 -1.6,0.3 -3.1,1 -4.2,1.9 L 231.9,182 c -0.7,0.6 -1.3,1.2 -1.9,1.9 -0.6,0.7 -1.2,1.4 -1.6,2.1 l -7.6,11.1 c -0.6,1 -1.3,1.9 -2.1,2.7 -0.8,0.8 -1.8,1.5 -2.8,2 l -4.3,1.7 c -1.7,0.5 -3.3,1.2 -4.8,2.2 -2.3,1.8 -3.4,4.8 -2.8,7.60001 0.5,2.89999 2.6,5.19999 5.4,6.09999 0.8,0.20001 1.6,0.3 2.5,0.3 0.8,0 1.6,-0.2 2.4,-0.5 l 9.8,-3.79999 C 225.3,215 226.4,214.4 227.5,213.7 c 1,-0.8 1.9,-1.7 2.6,-2.7 l 5,-7.2 c 0.3,-0.4 0.7,-0.9 1.3,-1.2 0.6,-0.4 1.2,-0.6 1.9,-0.7 0.8,0 1.4,0.1 2.1,0.4 0.6,0.3 1.1,0.7 1.4,1.1 l 13.9,15.2 -15.4,49.8 -5.9,40.1 c -0.2,1.1 -0.2,2.4 0.1,3.7 0.3,1.3 0.9,2.5 1.7,3.6 0.8,1.1 1.9,2 3,2.7 1.2,0.7 2.4,1.1 3.5,1.2 1.2,0.2 2.4,0.2 3.7,-0.1 1.3,-0.3 2.6,-0.9 3.7,-1.7 1.1,-0.8 2,-1.9 2.6,-3 0.7,-1.2 1.1,-2.4 1.3,-3.5 l 5.7,-38.7 3.2,-10.5 -0.9,7.1 10.4,42.8 c 0.3,1.1 0.8,2.3 1.6,3.3 0.8,1.1 1.8,2.1 2.9,2.8 1.2,0.7 2.5,1.2 3.8,1.4 1.4,0.1 2.6,0 3.8,-0.2 1.1,-0.3 2.3,-0.8 3.4,-1.6 1,-0.8 2,-1.7 2.7,-2.9 0.7,-1.2 1.2,-2.5 1.4,-3.8 0.1,-1.3 0,-2.6 -0.2,-3.8 l -9.4,-38.5 4.9,-40.3 0.1,-2.5 c 0,-2 -0.1,-4.1 -0.4,-6.2 -0.3,-1.99999 -0.8,-4.09999 -1.5,-6 -0.5,-1.5 -1,-2.89999 -1.7,-4.39999 C 283.2,208 282.5,206.6 281.7,205.3 l -14,-24.6 c -0.8,-1.5 -1.8,-2.9 -2.9,-4.2 -1.2,-1.3 -2.4,-2.5 -3.8,-3.6 l -0.3,-0.2 c -0.7,-0.6 -1.5,-1.1 -2.3,-1.6 -1.2,-0.6 -2.5,-1.1 -3.7,-1.5"
         style="fill:#010101;fill-opacity:1;fill-rule:evenodd;stroke:none;stroke-width:0.999998"
         id="path84" />
      <path
         d="m 196.6,190.5 14.1,24.80001 c 1.4,2.4 2.49999,4.9 3.3,7.6 0.8,2.6 1.29999,5.4 1.5,8.1 L 218.8,279.2 c 0,0.10001 0,0.10001 0,0.2 -0.1,0.1 -0.1,0.20001 -0.20001,0.20001 0,0.1 -0.1,0.1 -0.1,0.1 -0.1,0.1 -0.20001,0.1 -0.3,0.1 h -7.8 l 7.7,32.1 v 0.10001 c 0.19999,0.79999 0.3,1.69999 0.1,2.7 -0.1,0.9 -0.4,1.8 -1,2.7 -0.5,0.79999 -1.2,1.59999 -2,2.1 -0.80001,0.6 -1.6,0.9 -2.4,1.09999 -0.9,0.2 -1.8,0.3 -2.7,0.2 -1,-0.2 -2.00001,-0.5 -2.8,-0.99999 -0.9,-0.50001 -1.60001,-1.2 -2.20001,-2.00001 -0.19999,-0.39999 -0.49999,-0.8 -0.69999,-1.2 -0.1,-0.5 -0.3,-0.9 -0.4,-1.29999 v 0 l -8.6,-35.50001 h -8.00001 l -5.29999,35.20001 v 0.1 c -0.10001,0.80001 -0.40001,1.70001 -0.9,2.5 -0.5,0.8 -1.2,1.60001 -2,2.20001 -0.80001,0.6 -1.70001,0.99999 -2.7,1.2 -0.9,0.19999 -1.9,0.19999 -2.70001,0.1 -0.9,-0.2 -1.7,-0.5 -2.6,-0.99999 -0.79999,-0.50001 -1.5,-1.10001 -2.1,-2.00001 -0.6,-0.8 -1,-1.7 -1.2,-2.7 -0.19999,-0.9 -0.19999,-1.8 -0.1,-2.7 v 0.1 l 5.00001,-33 h -4.5 c -0.10001,0 -0.20001,0 -0.20001,-0.1 -0.1,0 -0.2,-0.1 -0.3,-0.1 0,-0.10001 0,-0.20001 -0.1,-0.3 0,-0.10001 0,-0.20001 0.1,-0.3 l 18.00001,-52 -13.20001,-14.4 c -0.39999,-0.40001 -0.9,-0.8 -1.5,-1.00001 -0.69999,-0.19999 -1.4,-0.3 -2.1,-0.19999 -0.69999,0.19999 -1.4,0.49999 -1.89999,1 -0.50001,0.39999 -0.80001,0.9 -1.00001,1.5 l -10.9,21.39999 c -0.3,0.80001 -0.69999,1.60001 -1.29999,2.4 -0.6,0.70001 -1.40001,1.40001 -2.30001,1.8 -0.9,0.40001 -1.89999,0.6 -2.9,0.70001 -0.9,0 -1.8,-0.2 -2.59999,-0.5 -0.80001,-0.4 -1.6,-0.80001 -2.30001,-1.5 -0.69999,-0.7 -1.2,-1.5 -1.59999,-2.5 -0.3,-0.9 -0.50001,-1.90001 -0.4,-2.9 0,-0.9 0.3,-1.8 0.7,-2.60001 l 18.2,-33.3 c 0.4,-0.7 0.9,-1.3 1.39999,-1.99999 0.6,-0.6 1.10001,-1.2 1.8,-1.70001 l 12.60001,-9.8 c 2.3,-1.8 5.3,-2.4 8.1,-1.5 4.8,1.5 9.09999,4.5 12,8.6"
         style="fill:#010101;fill-opacity:1;fill-rule:evenodd;stroke:none;stroke-width:0.999998"
         id="path88" />
    </g>
  </g>
</svg>
