<?xml version="1.0" encoding="UTF-8" standalone="no"?>
<svg
   viewBox="0 0 425.12 374.5"
   version="1.1"
   id="svg24"
   sodipodi:docname="Spain traffic signal p22-a, 2023 set.svg"
   inkscape:version="1.1.2 (b8e25be833, 2022-02-05)"
   xmlns:inkscape="http://www.inkscape.org/namespaces/inkscape"
   xmlns:sodipodi="http://sodipodi.sourceforge.net/DTD/sodipodi-0.dtd"
   xmlns="http://www.w3.org/2000/svg"
   xmlns:svg="http://www.w3.org/2000/svg">
  <sodipodi:namedview
     id="namedview26"
     pagecolor="#ffffff"
     bordercolor="#666666"
     borderopacity="1.0"
     inkscape:pageshadow="2"
     inkscape:pageopacity="0.0"
     inkscape:pagecheckerboard="0"
     showgrid="false"
     inkscape:snap-intersection-paths="false"
     inkscape:snap-smooth-nodes="false"
     inkscape:snap-bbox="true"
     inkscape:snap-bbox-edge-midpoints="false"
     inkscape:bbox-nodes="false"
     showguides="true"
     inkscape:guide-bbox="true"
     inkscape:object-paths="false"
     inkscape:snap-bbox-midpoints="false"
     inkscape:zoom="2.1575434"
     inkscape:cx="199.53248"
     inkscape:cy="187.48174"
     inkscape:window-width="1920"
     inkscape:window-height="1001"
     inkscape:window-x="-9"
     inkscape:window-y="-9"
     inkscape:window-maximized="1"
     inkscape:current-layer="Capa_1-2" />
  <defs
     id="defs4">
    <style
       id="style2">.cls-1{fill:red;}.cls-1,.cls-2,.cls-3{fill-rule:evenodd;}.cls-2{fill:#fff;}.cls-3{fill:#010101;}</style>
  </defs>
  <g
     id="Capa_2"
     data-name="Capa 2">
    <g
       id="Capa_1-2"
       data-name="Capa 1">
      <path
         class="cls-1"
         d="m 401.2,374.5 a 21.28,21.28 0 0 0 5.5,-0.7 21.94,21.94 0 0 0 5.7,-2.1 30.58,30.58 0 0 0 5.3,-3.8 27.9,27.9 0 0 0 4.2,-5.4 24.37,24.37 0 0 0 2.5,-6.3 20.91,20.91 0 0 0 0.7,-6.5 28.93,28.93 0 0 0 -1,-6 25.22,25.22 0 0 0 -2.2,-5 L 233.2,11.9 a 21.37,21.37 0 0 0 -3.2,-4.4 30.44,30.44 0 0 0 -4.7,-3.9 23.18,23.18 0 0 0 -6,-2.6 21.32,21.32 0 0 0 -6.7,-1 22.4,22.4 0 0 0 -6.8,1 24.06,24.06 0 0 0 -5.9,2.6 26.34,26.34 0 0 0 -4.7,3.9 22,22 0 0 0 -3.3,4.4 L 3.2,338.7 a 32.77,32.77 0 0 0 -2.2,5 28.93,28.93 0 0 0 -1,6 29.37,29.37 0 0 0 0.7,6.5 24.37,24.37 0 0 0 2.5,6.3 27.9,27.9 0 0 0 4.2,5.4 30.58,30.58 0 0 0 5.3,3.8 21.94,21.94 0 0 0 5.7,2.1 21.28,21.28 0 0 0 5.5,0.7 h 377.3"
         id="path6" />
      <polyline
         class="cls-2"
         points="44.5 338.7 380.6 338.7 212.6 47.7 44.5 338.7"
         id="polyline8"
         style="display:inline" />
      <path
         d="m 334.59999,313.2 h -17 l 5.2,13.6 h 17.9 l -6.1,-13.6"
         style="fill:#010101;fill-opacity:1;fill-rule:evenodd;stroke:none;stroke-width:0.999998"
         id="path72" />
      <path
         d="m 302.19999,313.2 h -17.1 l 3.6,13.6 H 306.6 l -4.40001,-13.6"
         style="fill:#010101;fill-opacity:1;fill-rule:evenodd;stroke:none;stroke-width:0.999998"
         id="path76" />
      <path
         d="M 269.7,313.2 H 252.69999 L 254.7,326.8 h 17.79999 L 269.7,313.2"
         style="fill:#010101;fill-opacity:1;fill-rule:evenodd;stroke:none;stroke-width:0.999998"
         id="path80" />
      <path
         d="m 237.2,313.2 h -17 l 0.4,13.6 h 17.8 l -1.2,-13.6"
         style="fill:#010101;fill-opacity:1;fill-rule:evenodd;stroke:none;stroke-width:0.999998"
         id="path84" />
      <path
         d="m 204.69999,313.2 h -17 l -1.2,13.6 h 17.8 l 0.4,-13.6"
         style="fill:#010101;fill-opacity:1;fill-rule:evenodd;stroke:none;stroke-width:0.999998"
         id="path88" />
      <path
         d="m 172.29999,313.2 h -17.1 l -2.8,13.6 h 17.9 l 2,-13.6"
         style="fill:#010101;fill-opacity:1;fill-rule:evenodd;stroke:none;stroke-width:0.999998"
         id="path92" />
      <path
         d="m 139.79999,313.2 h -17.1 l -4.4,13.6 h 17.9 l 3.6,-13.6"
         style="fill:#010101;fill-opacity:1;fill-rule:evenodd;stroke:none;stroke-width:0.999998"
         id="path96" />
      <path
         d="M 107.3,313.2 H 90.299991 l -5.99999,13.6 H 102.1 l 5.2,-13.6"
         style="fill:#010101;fill-opacity:1;fill-rule:evenodd;stroke:none;stroke-width:0.999998"
         id="path100" />
      <path
         d="m 215.3,148.1 c 0,3.20001 1.3,6.2 3.5,8.5 2.3,2.2 5.3,3.50001 8.5,3.50001 3.2,0 6.2,-1.30001 8.5,-3.50001 2.2,-2.3 3.5,-5.29999 3.5,-8.5 0,-3.2 -1.3,-6.2 -3.5,-8.5 -2.3,-2.2 -5.3,-3.49999 -8.5,-3.49999 -3.2,0 -6.2,1.29999 -8.5,3.49999 -2.2,2.3 -3.5,5.3 -3.5,8.5"
         style="fill:#010101;fill-opacity:1;fill-rule:evenodd;stroke:none;stroke-width:0.999998"
         id="path104" />
      <path
         d="m 198.29999,227.40001 21.60001,45.3 9.2,-16.60001 -12,-26.09999 c -0.10001,-0.3 -0.2,-0.70001 -0.2,-1.1 -0.1,-0.40001 0,-0.9 0.2,-1.3 0.1,-0.40001 0.4,-0.70001 0.7,-1.00001 0.3,-0.3 0.69999,-0.49999 0.99999,-0.6 L 246.3,215.90001 c 0.99999,-0.40001 2,-0.9 3,-1.7 0.9,-0.80001 1.69999,-1.70001 2.29999,-2.8 0.6,-1.1 1.00001,-2.30001 1.2,-3.40001 0.2,-1.2 0.2,-2.4 0,-3.49999 l -6.4,-34.30001 c -0.69999,-4 -3.6,-7.3 -7.5,-8.5 -1.8,-0.6 -3.79999,-0.8 -5.89999,-0.3 -2,0.50001 -3.8,1.5 -5.1,2.8 l -37.2,36.10001 c -1.00001,1.39999 -1.5,3.09999 -1.5,4.8 0,1.69999 0.49999,3.39999 1.5,4.8 0.9,1.3 2.29999,2.4 3.99999,3 1.70001,0.6 3.50001,0.6 5.1,0.1 l 21.4,-20.40001 7.40001,12.80001 -25.3,9.6 c -1.10001,0.4 -2.1,1 -3,1.9 -1.00001,0.9 -1.70001,2 -2.20001,3.2 -0.49999,1.3 -0.7,2.59999 -0.7,3.9 0.1,1.2 0.4,2.4 0.9,3.4"
         style="fill:#010101;fill-opacity:1;fill-rule:evenodd;stroke:none;stroke-width:0.999998"
         id="path108" />
      <path
         d="M 215.19999,277.7 H 236.4 c 0.1,1.7 0.3,3.6 0.79999,5.4 0.40001,1.8 1.1,3.6 1.90001,5.4 1.69999,3.7 4.09999,7 7.09999,9.8 3.10001,2.8 6.6,4.9 10.4,6.2 1.8,0.7 3.7,1.2 5.60001,1.5 1.8,0.2 3.69999,0.4 5.39999,0.3 1.9,0 3.9,-0.2 5.8,-0.5 2,-0.4 4,-1 6,-1.7 3.9,-1.6 7.6,-4 10.8,-7.1 3.1,-3.2 5.5,-6.9 7.1,-10.9 0.8,-1.9 1.3,-3.9 1.7,-5.9 0.4,-2 0.5,-3.9 0.5,-5.8 0.1,-2.2 -0.2,-4.5 -0.7,-6.9 -0.5,-2.4 -1.3,-4.8 -2.5,-7.2 -1.1,-2.4 -2.6,-4.7 -4.5,-6.8 -1.8,-2.1 -3.9,-4 -6.3,-5.6 -2.3,-1.6 -4.9,-2.8 -7.5,-3.7 -2.7,-0.9 -5.4,-1.4 -8,-1.6 -2.7,-0.2 -5.2,0 -7.6,0.4 -2.4,0.4 -4.69999,1.1 -6.7,1.9 l -7.7,-13.6 4.2,-6.3 h 6 c 0.5,0 1.00001,-0.2 1.5,-0.7 0.40001,-0.4 0.6,-0.9 0.6,-1.4 v -7.4 c -0.1,-0.4 -0.3,-0.8 -0.7,-1.2 -0.3,-0.3 -0.69999,-0.6 -1.2,-0.8 -0.5,-0.1 -0.99999,-0.1 -1.5,0 -0.5,0.1 -0.9,0.3 -1.2,0.6 l -16.8,6.3 c -1.1,0.3 -1.8,1.3 -1.8,2.4 0.1,0.5 0.3,1.1 0.7,1.5 0.40001,0.4 0.9,0.6 1.4,0.7 h 5.1 l -3.5,5.2 h -61.3 l 2.5,-4.7 -2.4,-9.7 h 17.9 c 1,0 2,-0.4 2.7,-1.1 0.7,-0.8 1.1,-1.7 1.1,-2.7 0,-1 -0.3,-2 -1.1,-2.7 -0.8,-0.8 -1.8,-1.2 -2.7,-1.2 h -16.1 c -0.8,0.2 -1.6,0.4 -2.3,0.8 -0.8,0.3 -1.6,0.8 -2.3,1.4 -1.5,1.1 -2.7,2.7 -3.5,4.6 -0.7,1.9 -0.9,3.9 -0.6,5.7 0.2,1 0.5,1.8 0.8,2.6 0.3,0.8 0.8,1.5 1.2,2.1 l -11.2,20.7 c -2,-1 -4.29999,-1.8 -6.8,-2.4 -2.4,-0.6 -4.99999,-0.9 -7.8,-0.8 -2.7,0 -5.5,0.4 -8.29999,1.2 -2.80001,0.8 -5.50001,2 -8.00001,3.5 -2.6,1.6 -4.8,3.4 -6.8,5.6 -1.99999,2.1 -3.6,4.4 -4.9,6.8 -1.29999,2.5 -2.19999,5 -2.79999,7.4 -0.6,2.5 -0.9,4.8 -0.9,7.1 0,1.9 0.19999,3.8 0.49999,5.8 0.40001,2 1.00001,4 1.7,5.9 1.6,4 4,7.7 7.2,10.9 3.1,3.1 6.80001,5.5 10.8,7.1 1.9,0.7 3.9,1.3 5.90001,1.7 1.99999,0.3 3.9,0.5 5.79999,0.5 1.9,0 3.80001,-0.2 5.8,-0.5 2,-0.4 4.00001,-1 6,-1.7 3.9,-1.6 7.6,-4 10.8,-7.1 3.1,-3.2 5.5,-6.9 7.1,-10.9 0.8,-1.9 1.3,-3.9 1.7,-5.9 0.4,-2 0.5,-3.9 0.5,-5.8 0,-4.7 -1.1,-9.4 -3.2,-13.6 -2.1,-4.3 -5.2,-8 -9,-10.8 l 4.5,-8.4 40.60001,35.6 c 0.3,0.3 0.79999,0.5 1.29999,0.5 m -50.1,-22.5 c 1.9,1.5 3.6,3.4 5,5.5 1.5,2.2 2.6,4.6 3.3,7.2 0.7,2.6 1,5.2 0.8,7.8 -0.1,2.6 -0.6,5.1 -1.4,7.3 -0.8,2.3 -2,4.5 -3.6,6.6 -1.5,2.1 -3.4,4 -5.6,5.5 -2.2,1.5 -4.6,2.7 -7.09999,3.4 -2.50001,0.8 -5.00001,1.2 -7.40001,1.1 -1.5,0 -3,-0.1 -4.59999,-0.4 -1.5,-0.3 -3.10001,-0.7 -4.70001,-1.3 -3.09999,-1.3 -6,-3.2 -8.49999,-5.6 -2.50001,-2.5 -4.40001,-5.5 -5.7,-8.6 -0.6,-1.6 -1.00001,-3.1 -1.30001,-4.7 -0.3,-1.6 -0.4,-3.1 -0.4,-4.6 0,-1.8 0.1,-3.6 0.50001,-5.6 0.49999,-1.9 1.09999,-3.9 2.1,-5.8 0.99999,-1.9 2.19999,-3.8 3.69999,-5.5 1.5,-1.7 3.3,-3.2 5.2,-4.4 2,-1.3 4.1,-2.2 6.3,-2.9 2.20001,-0.6 4.4,-1 6.5,-1 2.2,-0.1 4.2,0.2 6.1,0.6 2,0.4 3.70001,1.1 5.3,1.8 L 148.4,269.1 c -1.40001,0.3 -2.7,1.1 -3.6,2.3 -0.9,1.1 -1.30001,2.6 -1.2,4 0.1,1.5 0.69999,2.8 1.69999,3.9 1.00001,1 2.4,1.6 3.8,1.8 2.30001,0.2 4.40001,-0.9 5.5,-2.9 0.6,-0.9 0.9,-2 0.8,-3.1 0,-1.2 -0.39999,-2.3 -0.99999,-3.1 l 10.69999,-16.8 M 216.9,271.1 177.79999,236.8 H 238.5 l -18.6,34.3 h -3 m 33,-23.2 c -4.00001,2.5 -7.40001,5.9 -9.80001,9.9 -2.3,4.1 -3.69999,8.6 -3.8,13.3 H 227.4 l 17.4,-32.2 5.1,9 m 18.29999,20.3 -9.7,-17.3 c 1.60001,-0.6 3.40001,-1.2 5.3,-1.5 1.9,-0.3 3.9,-0.4 6,-0.3 2.1,0.2 4.2,0.6 6.3,1.3 2.1,0.8 4.1,1.8 5.9,3 1.9,1.3 3.5,2.8 4.9,4.5 1.5,1.7 2.6,3.5 3.5,5.4 0.9,1.8 1.6,3.8 2,5.6 0.4,1.9 0.5,3.8 0.5,5.5 0,1.5 -0.2,3 -0.4,4.6 -0.3,1.6 -0.8,3.1 -1.4,4.7 -1.2,3.1 -3.1,6.1 -5.6,8.6 -2.5,2.4 -5.4,4.3 -8.6,5.6 -1.5,0.6 -3.1,1 -4.7,1.3 -1.5,0.3 -3.1,0.4 -4.6,0.4 -2.69999,0.1 -5.69999,-0.3 -8.6,-1.3 -3,-1 -5.7,-2.6 -8.19999,-4.7 -2.4,-2.1 -4.30001,-4.7 -5.7,-7.5 -1.40001,-2.8 -2.1,-5.7 -2.4,-8.4 h 22.09999 c 0.8,-0.3 1.6,-0.8 2.3,-1.5 0.7,-0.6 1.3,-1.5 1.6,-2.5 0.4,-0.9 0.5,-2 0.4,-2.9 -0.2,-1 -0.5,-1.9 -0.9,-2.6 m -9.1,2.9 H 243 c 0.19999,-3.3 1.2,-6.6 3,-9.6 1.69999,-3 4.09999,-5.5 6.9,-7.3 l 7.8,14.1 c 0.3,0.5 0.39999,1.2 0,1.9 -0.40001,0.7 -1.10001,0.9 -1.60001,0.9"
         style="fill:#010101;fill-opacity:1;fill-rule:evenodd;stroke:none;stroke-width:0.999998"
         id="path112" />
      <path
         d="m 139.9,228.00001 h -12.1 l -4.5,10.2 H 136 l 3.9,-10.2"
         style="fill:#010101;fill-opacity:1;fill-rule:evenodd;stroke:none;stroke-width:0.999998"
         id="path132" />
      <path
         d="m 162.29999,228.00001 h -12 l -3.3,10.2 h 12.6 l 2.7,-10.2"
         style="fill:#010101;fill-opacity:1;fill-rule:evenodd;stroke:none;stroke-width:0.999998"
         id="path136" />
      <path
         d="m 262.8,228.00001 c 0,0 -0.1,0.1 -0.20001,0.1 l 2.7,10.10001 h 12.6 l -3.3,-10.2 H 262.8"
         style="fill:#010101;fill-opacity:1;fill-rule:evenodd;stroke:none;stroke-width:0.999998"
         id="path140" />
      <path
         d="M 297.09999,228.00001 H 285 l 3.99999,10.2 h 12.6 l -4.5,-10.2"
         style="fill:#010101;fill-opacity:1;fill-rule:evenodd;stroke:none;stroke-width:0.999998"
         id="path144" />
    </g>
  </g>
</svg>
