<svg width="506" height="446" xmlns="http://www.w3.org/2000/svg" xmlns:xlink="http://www.w3.org/1999/xlink" xml:space="preserve" overflow="hidden"><g transform="translate(-124 -119)"><path d="M600.433 563.922C602.434 563.922 604.738 563.734 607.003 563.243 609.118 562.639 611.497 561.808 613.649 560.6 615.877 559.542 618.03 558.032 620.031 556.106 621.919 554.331 623.581 552.179 625.016 549.8 626.337 547.459 627.394 544.815 627.999 542.21 628.603 539.718 628.792 537.112 628.792 534.469 628.678 531.977 628.225 529.598 627.546 527.332 626.904 525.217 625.96 523.216 625.016 521.441L400.941 133.369C399.997 131.67 398.713 129.933 397.127 128.234 395.503 126.459 393.69 124.911 391.576 123.589 389.423 122.305 387.044 121.135 384.477 120.417 381.833 119.7 379.228 119.209 376.509 119.209 373.639 119.209 371.034 119.7 368.428 120.417 365.823 121.135 363.444 122.305 361.291 123.589 359.177 124.911 357.364 126.459 355.854 128.234 354.192 129.933 352.984 131.67 351.927 133.369L127.852 521.441C126.719 523.216 125.926 525.217 125.208 527.332 124.604 529.598 124.151 531.977 124.038 534.469 123.924 537.112 124.151 539.718 124.869 542.21 125.473 544.815 126.417 547.459 127.852 549.8 129.249 552.179 130.91 554.331 132.798 556.106 134.8 558.032 136.952 559.542 139.104 560.6 141.37 561.808 143.636 562.639 145.901 563.243 148.129 563.734 150.282 563.922 152.396 563.922L600.433 563.922Z" fill="#FF0000"/><path d="M176.903 521.441 576.001 521.441 376.358 175.889 176.903 521.441Z" fill="#FFFFFF"/><path d="M383.721 465.101 408.757 465.101C409.021 467.254 409.248 469.368 409.814 471.521 410.305 473.749 411.136 475.939 412.08 478.054 414.119 482.321 416.951 486.361 420.539 489.684 424.201 493.045 428.355 495.537 432.849 497.085 435.001 497.916 437.267 498.407 439.495 498.784 441.647 499.087 443.913 499.238 445.952 499.238 448.218 499.238 450.446 498.973 452.824 498.52 455.203 498.143 457.545 497.463 459.924 496.519 464.568 494.706 468.948 491.836 472.762 488.023 476.463 484.322 479.295 479.942 481.259 475.184 482.203 472.805 482.769 470.577 483.26 468.198 483.751 465.819 483.826 463.553 483.826 461.288 483.826 458.72 483.638 455.85 482.996 453.131 482.429 450.261 481.485 447.316 480.013 444.559 478.691 441.727 476.954 439.008 474.65 436.478 472.498 433.873 470.044 431.721 467.174 429.833 464.455 427.944 461.358 426.396 458.3 425.339 455.09 424.282 451.843 423.64 448.784 423.526 445.574 423.338 442.629 423.451 439.759 424.017 436.927 424.508 434.17 425.339 431.791 426.283L422.653 410.008 427.676 402.531 434.737 402.531C435.379 402.531 435.945 402.305 436.436 401.814 437.003 401.361 437.267 400.643 437.267 400.039L437.267 391.392C437.116 390.901 436.927 390.41 436.436 389.957 436.059 389.579 435.605 389.239 435.001 389.013 434.435 388.899 433.68 388.748 433.226 389.013 432.622 389.126 432.169 389.353 431.791 389.692L411.891 397.207C410.57 397.547 409.626 398.717 409.701 400.039 409.814 400.643 410.079 401.21 410.57 401.7 411.023 402.305 411.627 402.531 412.193 402.531L418.273 402.531 414.119 408.8 341.316 408.8 344.299 403.249 341.429 391.731 362.726 391.731C363.897 391.58 365.105 391.127 365.898 390.334 366.729 389.466 367.22 388.257 367.22 387.087 367.22 386.03 366.842 384.821 365.898 383.877 364.954 382.933 363.784 382.556 362.726 382.556L343.581 382.556C342.637 382.707 341.693 383.046 340.749 383.424 339.919 383.877 338.937 384.368 338.106 385.086 336.331 386.52 334.896 388.409 333.952 390.636 333.159 392.902 332.895 395.281 333.235 397.396 333.461 398.491 333.726 399.548 334.217 400.53 334.556 401.474 335.047 402.305 335.614 402.984L322.322 427.605C319.83 426.396 317.224 425.339 314.241 424.735 311.409 424.017 308.199 423.64 304.989 423.64 301.78 423.791 298.343 424.282 295.134 425.226 291.811 426.019 288.639 427.454 285.505 429.342 282.559 431.154 279.916 433.42 277.537 435.912 275.158 438.367 273.27 441.236 271.722 444.068 270.211 446.938 269.154 449.884 268.399 452.905 267.719 455.737 267.341 458.607 267.341 461.288 267.341 463.553 267.606 465.819 267.946 468.198 268.399 470.577 269.154 472.805 269.985 475.184 271.835 479.942 274.705 484.322 278.406 488.023 282.182 491.836 286.562 494.706 291.32 496.519 293.586 497.463 295.964 498.143 298.343 498.52 300.722 498.973 302.988 499.238 305.216 499.238 307.482 499.238 309.747 498.973 312.126 498.52 314.505 498.143 316.884 497.463 319.112 496.519 323.87 494.706 328.288 491.836 332.026 488.023 335.727 484.322 338.597 479.942 340.485 475.184 341.316 472.805 342.033 470.577 342.486 468.198 342.864 465.819 343.128 463.553 343.128 461.288 343.128 455.586 341.807 450.148 339.314 445.05 336.784 440.066 333.159 435.686 328.515 432.363L333.952 422.356 382.173 464.611C382.513 464.988 383.117 465.101 383.721 465.101ZM324.21 438.367C326.476 440.292 328.515 442.445 330.138 445.05 331.951 447.656 333.235 450.526 334.103 453.584 334.896 456.53 335.161 459.777 335.047 462.836 334.896 465.932 334.33 468.802 333.348 471.521 332.291 474.24 330.969 476.883 329.081 479.375 327.193 481.83 324.965 483.982 322.435 485.908 319.83 487.645 316.997 488.967 314.014 489.911 311.069 490.855 308.086 491.232 305.216 491.232 303.479 491.232 301.666 491.119 299.778 490.779 297.853 490.401 296.078 489.911 294.19 489.08 290.527 487.645 286.94 485.417 284.107 482.434 281.124 479.451 278.859 476.014 277.31 472.352 276.593 470.426 276.14 468.538 275.8 466.801 275.422 464.875 275.309 463.1 275.309 461.288 275.158 459.173 275.422 456.907 275.913 454.642 276.48 452.414 277.235 450.035 278.406 447.769 279.463 445.503 281.011 443.238 282.786 441.236 284.561 439.235 286.713 437.423 288.941 436.025 291.32 434.477 293.812 433.42 296.455 432.589 298.948 431.721 301.553 431.418 304.159 431.418 306.651 431.267 309.181 431.494 311.409 431.985 313.788 432.589 315.789 433.307 317.677 434.251L304.423 455.019C302.724 455.397 301.213 456.341 300.118 457.663 299.023 459.022 298.57 460.721 298.721 462.496 298.834 464.157 299.514 465.819 300.722 466.99 301.893 468.311 303.554 469.029 305.216 469.142 307.859 469.368 310.427 468.047 311.749 465.819 312.504 464.724 312.806 463.44 312.693 462.043 312.617 460.721 312.24 459.4 311.484 458.456L324.21 438.367ZM385.723 457.398 339.163 416.578 411.4 416.578 389.272 457.398 385.723 457.398ZM424.919 429.833C420.048 432.665 416.121 436.743 413.251 441.614 410.57 446.334 408.87 451.81 408.644 457.398L398.108 457.398 418.839 419.146 424.919 429.833ZM446.632 453.962 435.114 433.42C437.003 432.589 439.193 431.985 441.421 431.607 443.686 431.267 446.065 431.041 448.52 431.267 451.012 431.494 453.542 431.985 456.034 432.816 458.413 433.646 460.792 434.855 463.058 436.365 465.172 437.913 467.174 439.688 468.873 441.614 470.648 443.615 471.932 445.768 472.989 447.996 474.084 450.261 474.877 452.527 475.255 454.793 475.746 457.021 475.972 459.173 475.972 461.288 475.972 463.1 475.746 464.875 475.368 466.801 475.141 468.538 474.575 470.426 473.82 472.352 472.385 476.014 470.119 479.451 467.174 482.434 464.228 485.417 460.792 487.645 456.978 489.08 455.203 489.911 453.278 490.401 451.39 490.779 449.501 491.119 447.727 491.232 445.952 491.232 442.629 491.346 439.193 490.855 435.719 489.684 432.169 488.476 428.846 486.588 425.976 484.095 423.144 481.528 420.879 478.507 419.217 475.184 417.556 471.861 416.725 468.424 416.385 465.101L442.629 465.101C443.573 464.724 444.517 464.271 445.348 463.44 446.141 462.609 446.896 461.665 447.274 460.457 447.576 459.286 447.84 458.116 447.576 456.907 447.462 455.85 447.123 454.793 446.632 453.962ZM435.719 457.398 416.725 457.398C416.951 453.471 418.16 449.582 420.274 445.994 422.276 442.445 425.146 439.424 428.355 437.309L437.758 453.962C438.098 454.528 438.211 455.472 437.758 456.228 437.267 457.021 436.436 457.398 435.719 457.398Z" fill="#010101"/><path d="M363.708 405.552 389.31 459.362 400.261 439.499 385.987 408.686C385.874 408.309 385.761 407.818 385.685 407.365 385.685 406.76 385.761 406.307 385.987 405.816 386.138 405.326 386.478 404.986 386.856 404.608 387.196 404.23 387.573 404.042 388.026 403.928L420.69 391.92C421.86 391.467 423.069 390.712 424.239 389.881 425.334 388.937 426.278 387.767 426.958 386.558 427.713 385.274 428.166 383.839 428.393 382.442 428.657 381.007 428.657 379.686 428.393 378.364L420.803 337.544C419.934 332.786 416.498 328.935 411.929 327.424 409.739 326.669 407.284 326.556 404.906 327.16 402.527 327.726 400.412 328.935 398.713 330.483L354.645 373.38C353.437 375.041 352.72 377.042 352.72 379.081 352.72 381.121 353.437 383.122 354.645 384.783 355.703 386.332 357.364 387.653 359.441 388.333 361.442 389.088 363.557 389.088 365.332 388.446L390.896 364.128 399.657 379.308 369.637 390.825C368.315 391.316 367.144 392.034 366.087 393.091 364.879 394.148 364.01 395.47 363.444 396.905 362.877 398.34 362.613 399.963 362.613 401.398 362.764 402.984 363.066 404.381 363.708 405.552Z" fill="#010101"/><path d="M383.835 311.338C383.835 315.039 385.383 318.739 387.988 321.345 390.707 324.101 394.295 325.498 398.108 325.498 401.885 325.498 405.434 324.101 408.191 321.345 410.796 318.739 412.382 315.039 412.382 311.338 412.382 307.524 410.796 303.861 408.191 301.256 405.434 298.499 401.885 297.064 398.108 297.064 394.295 297.064 390.707 298.499 387.988 301.256 385.383 303.861 383.835 307.524 383.835 311.338Z" fill="#010101"/></g></svg>