<?xml version="1.0" encoding="UTF-8" standalone="no"?>
<svg
   viewBox="0 0 425.12 374.5"
   version="1.1"
   id="svg24"
   sodipodi:docname="Spain_traffic_signal_p21-b,_2023_set.svg"
   inkscape:version="1.2.2 (732a01da63, 2022-12-09)"
   xmlns:inkscape="http://www.inkscape.org/namespaces/inkscape"
   xmlns:sodipodi="http://sodipodi.sourceforge.net/DTD/sodipodi-0.dtd"
   xmlns="http://www.w3.org/2000/svg"
   xmlns:svg="http://www.w3.org/2000/svg">
  <sodipodi:namedview
     id="namedview26"
     pagecolor="#ffffff"
     bordercolor="#666666"
     borderopacity="1.0"
     inkscape:pageshadow="2"
     inkscape:pageopacity="0.0"
     inkscape:pagecheckerboard="0"
     showgrid="false"
     inkscape:snap-intersection-paths="false"
     inkscape:snap-smooth-nodes="false"
     inkscape:snap-bbox="false"
     inkscape:snap-bbox-edge-midpoints="false"
     inkscape:bbox-nodes="false"
     showguides="true"
     inkscape:guide-bbox="true"
     inkscape:object-paths="false"
     inkscape:snap-bbox-midpoints="false"
     inkscape:zoom="1.5256136"
     inkscape:cx="172.71739"
     inkscape:cy="272.34943"
     inkscape:window-width="1920"
     inkscape:window-height="991"
     inkscape:window-x="-9"
     inkscape:window-y="-9"
     inkscape:window-maximized="1"
     inkscape:current-layer="Capa_1-2"
     inkscape:showpageshadow="2"
     inkscape:deskcolor="#d1d1d1" />
  <defs
     id="defs4">
    <style
       id="style2">.cls-1{fill:red;}.cls-1,.cls-2,.cls-3{fill-rule:evenodd;}.cls-2{fill:#fff;}.cls-3{fill:#010101;}</style>
  </defs>
  <g
     id="Capa_2"
     data-name="Capa 2">
    <g
       id="Capa_1-2"
       data-name="Capa 1">
      <path
         class="cls-1"
         d="m 401.2,374.5 a 21.28,21.28 0 0 0 5.5,-0.7 21.94,21.94 0 0 0 5.7,-2.1 30.58,30.58 0 0 0 5.3,-3.8 27.9,27.9 0 0 0 4.2,-5.4 24.37,24.37 0 0 0 2.5,-6.3 20.91,20.91 0 0 0 0.7,-6.5 28.93,28.93 0 0 0 -1,-6 25.22,25.22 0 0 0 -2.2,-5 L 233.2,11.9 a 21.37,21.37 0 0 0 -3.2,-4.4 30.44,30.44 0 0 0 -4.7,-3.9 23.18,23.18 0 0 0 -6,-2.6 21.32,21.32 0 0 0 -6.7,-1 22.4,22.4 0 0 0 -6.8,1 24.06,24.06 0 0 0 -5.9,2.6 26.34,26.34 0 0 0 -4.7,3.9 22,22 0 0 0 -3.3,4.4 L 3.2,338.7 a 32.77,32.77 0 0 0 -2.2,5 28.93,28.93 0 0 0 -1,6 29.37,29.37 0 0 0 0.7,6.5 24.37,24.37 0 0 0 2.5,6.3 27.9,27.9 0 0 0 4.2,5.4 30.58,30.58 0 0 0 5.3,3.8 21.94,21.94 0 0 0 5.7,2.1 21.28,21.28 0 0 0 5.5,0.7 h 377.3"
         id="path6" />
      <polyline
         class="cls-2"
         points="44.5 338.7 380.6 338.7 212.6 47.7 44.5 338.7"
         id="polyline8"
         style="display:inline" />
      <g
         id="g3331"
         style="fill:#000000"
         transform="matrix(0.75000002,0,0,0.75000002,254.33647,90.454455)">
        <path
           fill-rule="evenodd"
           fill="#010101"
           fill-opacity="1"
           d="m -104.64758,262.06176 2.26562,-0.66667 0.9375,1.86459 5.463544,-1.46355 c 0.536454,-1.0677 1.333334,-2.13541 2.135414,-2.66666 0.40104,-0.26562 0.79688,-0.40104 1.067706,-0.40104 0.130267,0 0.265627,0.26562 0.39584,0.53125 l 1.734374,0.80208 h 0.932293 l 1.869787,-2.40104 v -9.86459 c 0.130266,-1.0677 0.265626,-2.13541 0.531253,-3.20312 0.135413,-1.19792 0.40104,-2.26562 0.666667,-3.33333 l 5.468746,-11.72916 c 2.79688,-2.27084 4.666667,-5.73438 4.79688,-9.46876 v -3.46874 h 3.869787 c 2.531253,7.86978 5.734373,15.60417 9.598959,22.9375 1.19792,2.53124 2.531254,4.93228 3.734374,7.46353 0.130266,0.13542 0.130266,0.26563 0.130266,0.40104 0,0.13543 0,0.26563 0,0.40104 v 8.40106 c 0,0.53124 -0.130266,0.93228 -0.39584,1.1979 l -3.4688,3.19792 -2.80208,4.27084 9.333333,0.53124 2.40104,-4.26562 h 2.666667 l 0.80208,-4 -1.869787,-5.20312 -2.531253,-8.39583 c 0,0 0,-0.13543 0,-0.13543 -0.135413,-0.13541 -0.135413,-0.26562 -0.135413,-0.26562 v -14 c 0,-0.13541 0.135413,-0.40104 0.135413,-0.66667 0.932293,-2 1.59896,-4.26561 2,-6.53645 0.40104,-2.26563 0.531253,-4.66667 0.40104,-6.93229 l 7.463547,1.0677 c 1.067706,0.13543 2.135413,0.53126 2.937493,1.19792 1.729173,1.33334 4,2.27084 6.39584,2.40104 2.536453,0.13542 4.802079,-0.40104 6.802079,-1.46353 l 20.5312533,-9.33333 c 0.80208,-0.66667 1.9999999,-0.66667 2.9374932,-0.13543 0.9322933,0.53125 1.3333333,1.46876 1.19792,2.53125 0,0.13542 0,0.13542 0,0.27084 0,0 0,0.13014 0,0.13014 l 1.19792,14.53646 c 0.1354133,2 0.6666666,4 1.3333333,6 0,0.13014 0.1354133,0.39583 0.1354133,0.66667 l -0.5312533,12.79686 -3.6041599,7.59896 c 0,0.13542 -0.1302667,0.27084 -0.1302667,0.40104 -0.1354133,0 -0.1354133,0.13542 -0.1354133,0.13542 -0.1302667,0 -0.1302667,0.13026 -0.1302667,0.13026 0,0 0,0 -0.1354133,0 l -10.9322929,7.86979 4,0.93229 -0.536454,2.13543 6.8020802,-0.27084 5.7343732,-4.53125 1.06770666,1.46876 1.59895994,-10.53647 c 0,0 0,-0.13013 0,-0.13013 0,-0.13543 0.1302667,-0.13543 0.1302667,-0.13543 l 6.5364532,-16 c 0.1302666,-0.26563 0.2656266,-0.40104 0.4010399,-0.53124 1.0625067,-1.06772 1.8645862,-2.13542 2.6666662,-3.46876 0.666667,-1.33333 1.19792,-2.66666 1.463547,-4 l 1.734427,-6.80213 c 0,-0.39583 0.40104,-0.93229 0.932293,-1.19792 0.40104,0 0.666667,0 0.932293,0 0.270827,0 0.536454,0.13543 0.666667,0.26563 l 19.604159,16.13541 c 0.130267,0.26562 0.39584,0.40105 0.39584,0.66666 1.869787,4.26563 1.869787,9.06772 -0.130266,13.19792 -0.666667,0.53647 -1.333333,1.33334 -1.734373,2 -0.531254,0.80208 -0.80208,1.73438 -0.932294,2.53647 l 3.333333,2 3.864587,-0.93751 3.869787,-7.19792 2,-0.13541 c -0.536454,-4.26563 -2,-8.39583 -4.270827,-12.13021 0,0 0,-0.13542 -0.130267,-0.13542 0,0 0,-0.13013 0,-0.13013 l -2.536453,-6.80209 c -2.265627,-7.33333 -6.130213,-14 -11.19792,-19.73437 -1.067706,-1.19792 -1.067706,-2.9323 -0.135413,-4.1302 3.20312,-3.73439 5.20312,-8.27084 6.135413,-13.06772 0,-0.26562 0,-0.53646 0.135414,-0.80208 0,-0.26563 0,-0.66667 0,-0.9323 v -7.33333 c 4.796879,0.53125 9.333333,3.06771 12.395839,6.80209 2,3.46354 3.20312,7.33334 3.468747,11.33334 0.135413,0.39582 0.135413,0.79686 0,1.1979 -0.135414,4.13543 0.80208,8.26563 3.067706,12 1.19792,1.33334 2.666667,2.53126 4.265627,3.33334 0.932293,0.40104 1.734373,0.66666 2.666667,0.93229 0.932293,0.26563 1.864586,0.40104 2.666666,0.53647 0.666667,-1.20314 1.067707,-2.53647 0.80208,-4 -0.135413,-1.33334 -0.80208,-2.53647 -1.734373,-3.46876 -2.40104,-1.86458 -3.59896,-4.9323 -3.067707,-7.86458 0.135414,-0.40105 0.135414,-0.80209 0.135414,-1.33333 0.130266,-0.40105 0,-0.80209 0,-1.20313 l -0.135414,-2.66667 c 0,-0.13013 -0.135413,-0.40104 -0.135413,-0.53125 0,-3.86979 -1.19792,-7.73438 -3.333333,-10.93228 -2.265627,-3.20314 -5.333334,-5.73439 -8.79688,-7.33334 -0.536453,-0.27084 -1.067707,-0.53646 -1.59896,-0.80209 -7.468747,-5.06771 -13.734373,-11.73437 -18.536453,-19.33333 -0.40104,-0.66667 -0.932293,-1.33334 -1.463547,-1.86458 -8.135413,-7.8698 -18.5364525,-12.9375 -29.6041588,-14.27084 -0.2656267,-0.13026 -0.39584,-0.13026 -0.6666667,-0.13026 -7.7291735,-0.53646 -15.4635465,-1.86979 -22.9322925,-4.13542 -0.265627,-0.13013 -0.531254,-0.13013 -0.79688,-0.26562 -9.20312,-3.73438 -19.067706,-5.73438 -28.937493,-6.13542 -10,-0.26562 -19.864586,0.93751 -29.333332,4 -2.265627,0.53646 -4.666667,0.27084 -6.666667,-0.79688 -0.932293,-1.0677 -2,-2 -3.19792,-2.66666 -2.265626,-1.46875 -5.333331,-1.46875 -7.468751,0.26562 0.9375,-1.73437 1.06771,-3.73437 0.53646,-5.59896 -3.06771,-0.93228 -6.26563,0.13027 -8.26563,2.53126 -1.60416,1.33333 -3.60416,2 -5.60416,1.73437 0.53645,-0.80208 0.53645,-1.86457 0,-2.66667 -0.13027,0.66667 -0.66666,1.59896 -1.46354,2 -0.40104,0.26563 -0.9323,0.40104 -1.33334,0.40104 -0.40104,0 -0.80208,-0.13541 -1.20312,-0.40104 l -3.33333,-5.73437 c -0.13027,-0.53125 -0.79688,-0.79687 -1.33333,-0.66667 -0.26563,0.13542 -0.53126,0.26563 -0.66667,0.53647 -0.13027,0.26561 -0.26563,0.53124 -0.13027,0.79687 v 5.46874 c 0.40104,1.06772 1.19792,2 2.26563,2.66667 0.53125,2.13021 -0.13541,4.40105 -1.86459,6 -1.46874,2.13021 -2.80208,4.53125 -4.13541,6.79688 -1.33333,2.40104 -2.53125,4.80208 -3.59896,7.20312 l -24.93229,22.40105 c -0.80208,0.66667 -1.73438,1.19791 -2.80208,1.59895 -1.06771,0.26563 -2.13542,0.40105 -3.06771,0.26563 v 2.80209 c 0.13541,0.39583 0.40104,0.79687 0.93229,0.93228 0.40104,0.26563 0.80208,0.26563 1.20312,0.13027 l 2,2.9375 c 1.19792,1.59895 3.19792,2.66667 5.33334,2.79687 h 3.19792 l -2.13022,1.46875 c 0.53126,0.26562 1.06251,0.66666 1.59896,0.79688 0.66667,0.27084 1.19792,0.40104 1.86459,0.40104 h 16.53645 c 1.19792,-0.13014 2.39584,-0.13014 3.46355,0 1.20312,0.26562 2.26563,0.53646 3.33333,1.0677 l 28.135415,10.66667 c 1.999999,0.40104 3.333333,2 3.734373,3.86459 l 2.79688,40.13541 -1.067707,4.93229 c -4.39584,1.8698 -8.000001,5.06771 -10.531251,9.06771 -0.26563,0.66666 -0.40104,1.33333 -0.40104,2 m -44.26547,-89.59903 c 1.06771,0.66667 1.86459,1.73439 2.53126,2.79688 0.40104,0.66667 0.66666,1.20312 0.80208,1.86979 0.13541,0.66667 0.26562,1.33333 0.26562,2 l -2.26562,1.59896 c 0.40104,-1.46875 0.53125,-2.80208 0.26562,-4.26563 -0.26562,-1.46874 -0.79688,-2.80208 -1.59896,-4"
           id="path2814"
           style="fill:#000000;stroke-width:1.33333" />
      </g>
    </g>
  </g>
</svg>
