<svg width="463" height="408" xmlns="http://www.w3.org/2000/svg" xmlns:xlink="http://www.w3.org/1999/xlink" xml:space="preserve" overflow="hidden"><defs><clipPath id="clip0"><rect x="76" y="67" width="463" height="408"/></clipPath></defs><g clip-path="url(#clip0)" transform="translate(-76 -67)"><path d="M25.9216 407.532C24.0808 407.532 22.1273 407.307 20.061 406.743 17.9948 406.33 15.9286 405.541 13.8624 404.452 11.7586 403.362 9.80512 402.085 8.07701 400.319 6.23621 398.591 4.69594 396.638 3.49378 394.459 2.21648 392.28 1.31486 389.988 0.676215 387.621 0.15027 385.217-0.075135 382.813 0.0375675 380.521 0.15027 378.267 0.45081 376.088 1.12703 374.022 1.76567 372.031 2.51702 370.19 3.49378 368.575L208.725 12.9984C209.702 11.3454 210.904 9.72998 212.332 8.18972 213.722 6.68702 215.487 5.25945 217.441 4.05729 219.394 2.77999 221.573 1.80324 223.865 1.12703 226.231 0.375675 228.749 0.0375675 231.266 0.0375675 233.745 0.0375675 236.262 0.375675 238.554 1.12703 240.92 1.80324 243.099 2.77999 245.053 4.05729 247.006 5.25945 248.772 6.68702 250.162 8.18972 251.59 9.72998 252.792 11.3454 253.656 12.9984L458.962 368.575C459.939 370.19 460.803 372.031 461.329 374.022 462.005 376.088 462.306 378.267 462.418 380.521 462.531 382.813 462.306 385.217 461.78 387.621 461.141 389.988 460.239 392.28 458.962 394.459 457.76 396.638 456.22 398.591 454.379 400.319 452.651 402.085 450.697 403.362 448.631 404.452 446.565 405.541 444.499 406.33 442.432 406.743 440.366 407.307 438.375 407.532 436.534 407.532L25.9216 407.532Z" fill="#FF0000" transform="matrix(1 0 0 1.00058 76.1726 67)"/><path d="M414.031 368.575 48.4245 368.575 231.228 51.9559 414.031 368.575Z" fill="#FFFFFF" transform="matrix(1 0 0 1.00058 76.1726 67)"/><path d="M146.701 263.423 146.701 348.213 148.993 348.213 148.993 268.983 170.106 304.222 342.09 317.596C343.743 317.708 345.358 317.521 347.011 317.07 348.626 316.619 350.279 315.868 351.669 314.778 353.097 313.576 354.299 312.299 355.163 310.871 356.027 309.331 356.591 307.828 356.891 306.288 357.868 300.765 358.093 295.205 357.567 289.758 357.342 288.03 356.703 286.377 355.614 284.987 354.412 283.559 352.872 282.583 351.369 282.057L189.152 225.781 140.916 256.473 140.916 348.213 143.245 348.213 143.245 257.788 183.179 232.317C177.732 242.648 173.825 253.956 171.646 265.828 169.58 277.699 169.467 289.533 171.082 301.179L148.016 263.01C148.016 262.897 147.903 262.785 147.678 262.672 147.49 262.672 147.377 262.672 147.152 262.672 146.814 262.785 146.626 263.123 146.701 263.423Z" fill="#010101" transform="matrix(1 0 0 1.00058 76.1726 67)"/><path d="M223.902 306.138C223.564 295.656 224.541 285.1 226.833 274.656 229.237 264.287 232.806 254.294 237.614 245.053L215.374 237.314C209.289 247.119 204.705 258.014 201.888 269.434 199.145 280.967 198.281 292.576 199.145 304.146L223.902 306.138Z" fill="#FEFEFE" transform="matrix(1 0 0 1.00058 76.1726 67)"/><path d="M269.885 309.594C269.096 301.216 269.66 292.538 271.613 284.01 273.567 275.52 276.948 267.443 281.418 260.155L263.348 253.956C258.84 262.146 255.346 270.937 253.28 280.178 251.139 289.458 250.35 298.925 250.913 308.204L269.885 309.594Z" fill="#FEFEFE" transform="matrix(1 0 0 1.00058 76.1726 67)"/><path d="M319.925 313.501 320.038 313.501C319.587 307.189 320.038 300.803 321.428 294.379 322.742 288.03 325.034 281.944 327.964 276.384L307.152 269.096C303.884 275.745 301.479 282.695 299.977 289.871 298.324 297.197 297.685 304.597 298.023 311.885L319.925 313.501Z" fill="#FEFEFE" transform="matrix(1 0 0 1.00058 76.1726 67)"/><path d="M350.768 312.411C352.721 310.683 354.149 308.392 354.6 305.799 355.614 300.578 355.802 295.205 355.126 289.984 355.126 289.533 355.013 289.119 354.9 288.669 352.609 291.599 351.331 295.093 350.993 298.774 350.43 303.282 350.354 307.866 350.768 312.411Z" fill="#FEFEFE" transform="matrix(1 0 0 1.00058 76.1726 67)"/><path d="M303.47 455.506 128.331 455.506" stroke="#808080" stroke-width="0.75135" stroke-linejoin="round" stroke-dasharray="4.80864 4.80864" fill="none" transform="matrix(1 0 0 1.00058 76.1726 67)"/><path d="M488.19 335.027 509.528 161.165" stroke="#808080" stroke-width="0.75135" stroke-linejoin="round" stroke-dasharray="4.80864 4.80864" fill="none" transform="matrix(1 0 0 1.00058 76.1726 67)"/></g></svg>