<svg width="465" height="410" xmlns="http://www.w3.org/2000/svg" xmlns:xlink="http://www.w3.org/1999/xlink" xml:space="preserve" overflow="hidden"><defs><clipPath id="clip0"><rect x="653" y="65" width="465" height="410"/></clipPath></defs><g clip-path="url(#clip0)" transform="translate(-653 -65)"><path d="M26.0546 409.548C24.2043 409.548 22.1275 409.321 20.1262 408.906 18.0494 408.453 15.9726 407.697 13.8958 406.602 11.819 405.507 9.85542 404.072 8.11845 402.335 6.2682 400.712 4.72003 398.71 3.39842 396.558 2.22785 394.368 1.20833 392.065 0.679684 389.648 0.151041 387.231-0.0755205 384.852 0.0377602 382.549 0.151041 380.132 0.453123 377.942 1.13281 375.979 1.66145 373.902 2.52994 372.052 3.39842 370.39L209.796 13.1028C210.778 11.4791 211.873 9.85542 213.421 8.30725 214.818 6.75908 216.593 5.24867 218.556 4.04035 220.52 2.83202 222.71 1.85025 225.013 1.09505 227.392 0.453123 229.922 0 232.414 0 234.944 0 237.361 0.453123 239.74 1.09505 242.156 1.85025 244.347 2.83202 246.31 4.04035 248.274 5.24867 249.935 6.75908 251.445 8.30725 252.88 9.85542 254.089 11.4791 254.957 13.1028L461.317 370.39C462.299 372.052 463.054 373.902 463.696 375.979 464.375 377.942 464.678 380.132 464.791 382.549 464.904 384.852 464.678 387.231 464.149 389.648 463.507 392.065 462.601 394.368 461.317 396.558 460.109 398.71 458.447 400.712 456.71 402.335 454.973 404.072 453.01 405.507 450.933 406.602 448.818 407.697 446.741 408.453 444.665 408.906 442.588 409.321 440.624 409.548 438.774 409.548L26.0546 409.548Z" fill="#FF0000" transform="matrix(1.00011 0 0 1 653 65.1653)"/><path d="M416.156 370.39 48.5597 370.39 232.377 52.1469 416.156 370.39Z" fill="#FFFFFF" transform="matrix(1.00011 0 0 1 653 65.1653)"/><path d="M374.959 478.724 113.583 478.724" stroke="#808080" stroke-width="0.755205" stroke-linejoin="round" stroke-dasharray="4.83331 4.83331" fill="none" transform="matrix(1.00011 0 0 1 653 65.1653)"/><path d="M185.931 255.108C185.818 255.221 185.818 255.335 185.705 255.335 185.592 255.448 185.478 255.448 185.478 255.561 184.383 255.75 183.515 256.317 182.646 257.072 181.891 257.827 181.325 258.846 180.985 259.828L180.872 259.828C180.343 261.792 179.89 263.755 179.814 265.832 179.588 267.833 179.701 269.91 179.89 271.874L180.003 271.874C180.116 272.856 180.23 273.951 180.569 274.932 180.796 276.027 181.098 277.009 181.551 277.878L181.665 277.878C181.665 277.991 181.778 278.104 181.778 278.217 181.778 278.331 181.665 278.444 181.665 278.444 180.985 279.539 180.683 281.049 181.211 282.598 181.665 284.146 182.873 285.128 183.968 285.656L183.968 295.398C183.968 296.72 185.063 297.702 186.234 297.702L198.506 297.702C199.714 297.702 200.696 296.72 200.696 295.398L200.696 284.788 215.007 284.788 212.93 289.281C212.93 289.395 212.817 289.47 212.703 289.583 212.59 289.697 212.477 289.697 212.401 289.697 210.853 290.15 209.532 290.905 208.323 292 207.228 293.208 206.473 294.53 206.058 295.927L205.831 295.927C205.038 298.684 204.509 301.516 204.283 304.461 204.056 307.293 204.056 310.276 204.396 313.108L204.623 313.108C204.736 314.543 204.963 316.053 205.265 317.488 205.718 318.999 206.133 320.32 206.813 321.755L206.926 321.642C207.039 321.755 207.039 321.982 207.039 322.057 207.039 322.284 207.039 322.397 206.926 322.51 206.36 323.265 206.058 324.247 205.944 325.229 205.831 326.324 205.944 327.306 206.246 328.401 206.586 329.496 207.115 330.364 207.908 331.157 208.663 331.913 209.418 332.479 210.287 332.781L210.287 346.677C210.287 347.545 210.627 348.3 211.306 348.98 211.948 349.622 212.703 349.962 213.572 349.962L230.979 349.962C232.716 349.962 234.151 348.527 234.151 346.677L234.151 331.573 275.31 331.573 316.431 331.573 316.431 346.677C316.431 348.527 317.828 349.962 319.678 349.962L337.086 349.962C338.823 349.962 340.371 348.527 340.371 346.677L340.371 332.781C341.126 332.479 341.995 331.913 342.674 331.157 343.429 330.364 343.958 329.496 344.298 328.401 344.751 327.306 344.827 326.324 344.638 325.229 344.524 324.247 344.185 323.265 343.769 322.51 343.656 322.397 343.656 322.284 343.543 322.057 343.543 321.982 343.656 321.755 343.656 321.642L343.845 321.755C344.411 320.32 344.94 318.999 345.28 317.488 345.733 316.053 345.922 314.543 346.035 313.108L346.148 313.108C346.488 310.276 346.601 307.293 346.375 304.461 346.148 301.516 345.62 298.684 344.827 295.927L344.524 295.927C344.185 294.53 343.429 293.208 342.221 292 341.655 291.471 341.013 291.018 340.371 290.565 339.691 290.263 338.936 289.923 338.294 289.697 337.954 289.697 337.728 289.47 337.614 289.281L320.887 253.485 320.887 253.371C319.792 251.181 317.488 249.633 314.996 249.633L314.883 249.633 314.656 249.633 275.31 249.86 270.703 249.973 261.376 230.073C260.621 228.525 259.073 227.43 257.336 227.43L257.109 227.43 229.545 227.657 226.033 227.657 219.802 214.214C219.274 213.119 218.179 212.364 216.857 212.364L216.744 212.364 197.524 212.477 178.153 212.364 178.04 212.364C176.831 212.364 175.623 213.119 175.094 214.214L175.208 214.214 166.9 231.697C166.9 231.81 166.9 231.81 166.787 231.923L166.674 232.037C165.126 232.49 163.955 233.585 163.615 235.095L163.389 234.982C163.049 236.417 162.747 237.738 162.633 239.136 162.52 240.571 162.633 242.081 162.747 243.403L162.86 243.403C162.86 244.195 162.973 244.951 163.162 245.593 163.389 246.348 163.615 247.028 163.955 247.669 164.068 247.669 164.068 247.783 164.068 247.896 164.068 247.896 164.068 248.009 163.955 248.009 163.502 248.878 163.275 249.86 163.615 250.955 163.842 251.521 164.068 251.936 164.484 252.276 164.823 252.692 165.239 252.918 165.579 253.145L165.579 259.941C165.579 260.357 165.805 260.697 166.145 260.999 166.447 261.339 166.787 261.452 167.202 261.452L175.736 261.452C176.642 261.452 177.284 260.81 177.284 259.941L177.284 252.503 187.14 252.503 185.818 255.108 185.931 255.108ZM234.68 257.94C235.36 256.656 236.643 255.75 238.192 255.75L238.192 255.675 275.31 255.977 312.466 255.675 312.466 255.75C313.901 255.75 315.336 256.656 315.864 257.94L328.212 286.109C328.439 286.525 328.439 287.28 327.985 287.96 327.797 288.299 327.457 288.488 327.117 288.602 326.928 288.715 326.588 288.715 326.249 288.715 309.294 287.091 292.34 286.298 275.31 286.411 266.889 286.298 258.318 286.525 249.784 286.865 241.25 287.28 232.83 287.846 224.296 288.715 223.767 288.828 223.088 288.602 222.672 287.96 222.106 287.28 222.219 286.525 222.446 286.109L234.68 257.94ZM295.512 317.601C295.512 318.583 294.756 319.338 293.775 319.338L275.31 319.338 256.77 319.338C255.901 319.338 255.146 318.583 255.146 317.601L255.146 311.786C255.146 310.805 255.901 310.049 256.77 310.049L275.31 310.049 293.775 310.049C294.756 310.049 295.512 310.805 295.512 311.786L295.512 317.601ZM188.424 246.461C188.008 246.461 187.555 246.159 187.555 245.706L187.555 242.761C187.555 242.307 188.008 242.005 188.424 242.005L192.049 242.005 189.972 246.461 188.424 246.461ZM172.451 231.508C172.262 231.508 171.922 231.395 171.696 231.168 171.583 230.942 171.469 230.828 171.469 230.602 171.469 230.526 171.469 230.3 171.583 230.186L177.624 216.404C177.813 215.762 178.606 215.309 179.248 215.309L197.524 215.535 215.649 215.309C216.442 215.309 217.084 215.762 217.423 216.404L217.31 216.404 222.219 227.543 201.866 227.43 201.791 227.43C199.903 227.43 198.392 228.525 197.637 230.073L197.524 230.413C193.37 230.413 189.217 230.413 184.95 230.602 180.796 230.828 176.642 231.055 172.451 231.508ZM216.555 276.254C215.875 276.254 215.347 275.725 215.347 275.046L215.347 270.892C215.347 270.25 215.875 269.684 216.555 269.684L222.106 269.684 219.047 276.254 216.555 276.254ZM235.775 249.633C233.283 249.633 230.979 250.955 229.884 253.145 223.88 253.145 217.839 253.258 211.835 253.485 205.831 253.787 199.789 254.24 193.786 254.768 193.483 254.768 192.917 254.693 192.577 254.24 192.275 253.787 192.388 253.258 192.464 252.918L201.111 233.245C201.564 232.263 202.433 231.697 203.528 231.697L229.545 231.923 255.448 231.697C256.014 231.697 256.468 231.81 256.883 232.15 257.449 232.377 257.751 232.792 257.865 233.245L265.19 249.86 235.775 249.633Z" fill="#010101" transform="matrix(1.00011 0 0 1 653 65.1653)"/><path d="M488.731 340.899 470.53 80.1272" stroke="#808080" stroke-width="0.755205" stroke-linejoin="round" stroke-dasharray="4.83331 4.83331" fill="none" transform="matrix(1.00011 0 0 1 653 65.1653)"/></g></svg>