<svg xmlns="http://www.w3.org/2000/svg" viewBox="0 0 425.05 374.4"><defs><style>.cls-1{fill:red;}.cls-1,.cls-2,.cls-3,.cls-4{fill-rule:evenodd;}.cls-2{fill:#fff;}.cls-3{fill:#010101;}.cls-4{fill:#fefefe;}.cls-5{fill:none;stroke:#010101;stroke-linejoin:round;stroke-width:0.48px;}</style></defs><g id="Capa_2" data-name="Capa 2"><g id="Capa_1-2" data-name="Capa 1"><path class="cls-1" d="M23.82,374.4a20.79,20.79,0,0,1-5.4-.6,21.94,21.94,0,0,1-5.7-2.1,23.3,23.3,0,0,1-9.5-9.2,21.27,21.27,0,0,1-2.5-6.3,20.91,20.91,0,0,1-.7-6.5,27.85,27.85,0,0,1,1-6,22.89,22.89,0,0,1,2.2-5L191.92,11.9a21.37,21.37,0,0,1,3.2-4.4,26.34,26.34,0,0,1,4.7-3.9,27.37,27.37,0,0,1,6-2.7,24.63,24.63,0,0,1,6.7-.9,25.91,25.91,0,0,1,6.8.9,28.81,28.81,0,0,1,5.9,2.7,24.79,24.79,0,0,1,8,8.3l188.7,326.8a22.77,22.77,0,0,1,2.1,5,19.35,19.35,0,0,1,1,6,23.36,23.36,0,0,1-3.1,12.8,22.75,22.75,0,0,1-9.6,9.2,21.31,21.31,0,0,1-5.6,2.1,21.53,21.53,0,0,1-5.5.6H23.82"/><polyline class="cls-2" points="380.52 338.7 44.52 338.7 212.53 47.7 380.52 338.7"/><path class="cls-3" d="M296.92,293.7a18.09,18.09,0,0,0-5.3-12.8,18.42,18.42,0,0,0-12.8-5.2,18,18,0,1,0,0,36,18.42,18.42,0,0,0,12.8-5.2,18.09,18.09,0,0,0,5.3-12.8"/><path class="cls-3" d="M167.92,178.9h42.8a4.25,4.25,0,0,0,1.1-.2,2.36,2.36,0,0,0,.9-.6,2.71,2.71,0,0,0,.8-2,2.5,2.5,0,0,0-.8-1.9,2.36,2.36,0,0,0-.9-.6,4.25,4.25,0,0,0-1.1-.2h-42.8a2.71,2.71,0,0,0-2,.8,2.78,2.78,0,0,0,0,3.9,2.71,2.71,0,0,0,2,.8"/><path class="cls-3" d="M157.32,187.6h71.6a2,2,0,0,1,1,.2,2.68,2.68,0,0,1,.9,4.4,5.5,5.5,0,0,1-.9.7,3.75,3.75,0,0,1-1,.1h-71.6a2.4,2.4,0,0,1-1.9-.7,2.7,2.7,0,0,1,1.9-4.7"/><path class="cls-3" d="M151.72,201.6h81.2a2.75,2.75,0,1,1,0,5.5l-.2.1h-80.5l-.5-.1a3.55,3.55,0,0,1-1-.2,2.07,2.07,0,0,1-1-.6,2.78,2.78,0,0,1,0-3.9,2.71,2.71,0,0,1,2-.8"/><path class="cls-3" d="M143.72,215.7h71.6a3.55,3.55,0,0,1,1,.2,3.33,3.33,0,0,1,1,.6,3.18,3.18,0,0,1,.8,2,2.73,2.73,0,0,1-.8,1.9,3.59,3.59,0,0,1-1,.7,3.55,3.55,0,0,1-1,.2h-71.4l-.2-.1a2.73,2.73,0,0,1-2.8-2.7,2.8,2.8,0,0,1,2.8-2.8"/><path class="cls-3" d="M197.32,235.4h0"/><path class="cls-3" d="M197.32,235.4H135l-.3-.1a2.76,2.76,0,0,1-1.9-4.7,3.15,3.15,0,0,1,1.9-.8h62.5a2.93,2.93,0,0,1,1.9.8,3.31,3.31,0,0,1,.9,2,2.84,2.84,0,0,1-2.7,2.8"/><path class="cls-3" d="M129.62,243.9H198a3,3,0,0,1,1,.2,3.59,3.59,0,0,1,1,.7,2.93,2.93,0,0,1,.8,1.9,3,3,0,0,1-2.8,2.8H130l-.4-.1a2.71,2.71,0,0,1-2-.8,2.75,2.75,0,0,1,2-4.7"/><path class="cls-3" d="M119.92,258h94.7a1.93,1.93,0,0,1,1,.3,2.56,2.56,0,0,1,1.6,2.7,2.8,2.8,0,0,1-.9,1.9,3.13,3.13,0,0,1-1,.5,1.8,1.8,0,0,1-1,.2h-94.4v-.1a1.8,1.8,0,0,1-1-.2,2.07,2.07,0,0,1-1-.6,2.93,2.93,0,0,1-.8-1.9,2.73,2.73,0,0,1,2.8-2.8"/><path class="cls-3" d="M109.82,272.1h115.4a4.1,4.1,0,0,1,1.1.1,4.67,4.67,0,0,1,1,.5,3,3,0,0,1,1,1.9,2.86,2.86,0,0,1-.6,2.1,2.7,2.7,0,0,1-.8.7c-.4.1-.7.2-1,.3H110.22l-.4-.1a1.64,1.64,0,0,1-1-.2,2.07,2.07,0,0,1-1-.6,2.93,2.93,0,0,1-.8-1.9,2.73,2.73,0,0,1,2.8-2.8"/><path class="cls-3" d="M100.82,286.2h114.3a4.4,4.4,0,0,1,1,.2,1.8,1.8,0,0,1,.9.6,2.62,2.62,0,0,1,.9,1.9,2.71,2.71,0,0,1-.8,2,2.18,2.18,0,0,1-.9.7,3.55,3.55,0,0,1-1,.2H100.82v-.1a2.73,2.73,0,0,1-2.7-2.7,2.84,2.84,0,0,1,2.7-2.8"/><path class="cls-3" d="M92.32,300.3h109.5a3.55,3.55,0,0,1,1,.2,8.79,8.79,0,0,1,1,.6,2.71,2.71,0,0,1,.8,2,2.4,2.4,0,0,1-.7,1.9,3.59,3.59,0,0,1-1,.7,3,3,0,0,1-1,.2H92.12a2.83,2.83,0,0,1-2-.9,3.06,3.06,0,0,1-.7-2,2.46,2.46,0,0,1,.9-1.9,2.87,2.87,0,0,1,2-.8"/><path class="cls-3" d="M107.22,314.5h110.4a2.08,2.08,0,0,1,1.1.1l.9.6a3.31,3.31,0,0,1,.9,2,2.93,2.93,0,0,1-.8,1.9,5.5,5.5,0,0,1-.9.7,1.27,1.27,0,0,1-.6.1c0,.1-.1.1-.2.1H106.92a2.62,2.62,0,0,1-1.9-.9,2.71,2.71,0,0,1-.8-2,2.84,2.84,0,0,1,.9-1.9,2.47,2.47,0,0,1,2.1-.7"/><path class="cls-4" d="M283.22,293.7a4.39,4.39,0,0,0-1.3-3.1,4.3,4.3,0,0,0-3.1-1.2,4.23,4.23,0,0,0-3,1.2,4,4,0,0,0-1.3,3.1,4.32,4.32,0,0,0,1.3,3.1,4.23,4.23,0,0,0,3,1.2,4.3,4.3,0,0,0,3.1-1.2,4.77,4.77,0,0,0,1.3-3.1"/><path class="cls-5" d="M177.52,300.7c-.2-.2-.3-.4-.5-.6"/><path class="cls-3" d="M309.32,300.7l11-13.8L312,253.7,281.62,226H203l-5.8,2.3a5,5,0,0,1,1.6.3,4.19,4.19,0,0,1,1.4.9,4.32,4.32,0,0,1,1.3,3.1,4.1,4.1,0,0,1-1.3,3,3.32,3.32,0,0,1-1.4,1,5,5,0,0,1-1.6.3v.2l.8,5.3a4.32,4.32,0,0,1,3.1,1.3,4.65,4.65,0,0,1,1.2,3.1,4.26,4.26,0,0,1-1.3,3,4.21,4.21,0,0,1-3.1,1.2l16.8,5.5a4.45,4.45,0,0,1,3,1.4,5.1,5.1,0,0,1,1.1,3.1,4.45,4.45,0,0,1-1.4,3,4.39,4.39,0,0,1-3.1,1.1l10.9,5.5a3.91,3.91,0,0,1,3.1,1,4.26,4.26,0,0,1,1.6,2.9,4.38,4.38,0,0,1-1,3.2,4.57,4.57,0,0,1-3,1.5L215,284.7a4.3,4.3,0,0,1,3.1,1.2,4.94,4.94,0,0,1,1.4,3,4.65,4.65,0,0,1-1.2,3.1,4.32,4.32,0,0,1-3.1,1.3l-13.4,5.5a4.06,4.06,0,0,1,2.1.5,5.56,5.56,0,0,1,1.6,1.4h52.8v-7a21.17,21.17,0,0,1,1.4-7.6,20.87,20.87,0,0,1,4.6-6.9,19,19,0,0,1,7-4.6,20.46,20.46,0,0,1,7.5-1.5,21,21,0,0,1,7.6,1.5,19.81,19.81,0,0,1,7,4.6,20.57,20.57,0,0,1,4.5,6.9,19.39,19.39,0,0,1,1.5,7.6v7h9.9"/><path class="cls-4" d="M218.52,259.2h7.7l2.8-22.1h-31.8l.8,5.3a4.32,4.32,0,0,1,3.1,1.3,4.65,4.65,0,0,1,1.2,3.1,4.26,4.26,0,0,1-1.3,3,4.21,4.21,0,0,1-3.1,1.2l16.8,5.5a4.41,4.41,0,0,1,3.8,2.7"/><path class="cls-4" d="M269.42,259.2a2.71,2.71,0,0,0,2-.8,2.93,2.93,0,0,0,.8-1.9v-5.6a13.62,13.62,0,0,0-4.1-9.7,13.85,13.85,0,0,0-9.8-4.1h-18.2l-2.8,22.1h32.1"/><polyline class="cls-5" points="237.32 259.2 240.13 237.1 258.32 237.1"/><path class="cls-5" d="M258.32,237.1a13.85,13.85,0,0,1,9.8,4.1,13.62,13.62,0,0,1,4.1,9.7"/><line class="cls-5" x1="272.22" y1="250.9" x2="272.22" y2="256.5"/><path class="cls-5" d="M272.22,256.5a2.78,2.78,0,0,1-2.8,2.7"/><line class="cls-5" x1="269.42" y1="259.2" x2="237.32" y2="259.2"/></g></g></svg>