<?xml version="1.0" encoding="UTF-8" standalone="no"?>
<svg
   viewBox="0 0 425.12 374.5"
   version="1.1"
   id="svg18803"
   sodipodi:docname="Spain_traffic_signal_p20-a,_2023_set.svg.2025_03_14_14_34_13.0.svg"
   inkscape:version="1.2.2 (732a01da63, 2022-12-09)"
   xmlns:inkscape="http://www.inkscape.org/namespaces/inkscape"
   xmlns:sodipodi="http://sodipodi.sourceforge.net/DTD/sodipodi-0.dtd"
   xmlns:xlink="http://www.w3.org/1999/xlink"
   xmlns="http://www.w3.org/2000/svg"
   xmlns:svg="http://www.w3.org/2000/svg">
  <sodipodi:namedview
     id="namedview18805"
     pagecolor="#ffffff"
     bordercolor="#000000"
     borderopacity="0.25"
     inkscape:showpageshadow="2"
     inkscape:pageopacity="0.0"
     inkscape:pagecheckerboard="0"
     inkscape:deskcolor="#d1d1d1"
     showgrid="false"
     inkscape:zoom="2.2162884"
     inkscape:cx="268.24126"
     inkscape:cy="330.50753"
     inkscape:window-width="1920"
     inkscape:window-height="991"
     inkscape:window-x="-9"
     inkscape:window-y="-9"
     inkscape:window-maximized="1"
     inkscape:current-layer="Capa_2" />
  <defs
     id="defs18773">
    <style
       id="style18771">.cls-1{fill:red;}.cls-1,.cls-2,.cls-3{fill-rule:evenodd;}.cls-2{fill:#fff;}.cls-3{fill:#010101;}</style>
    <clipPath
       id="XMLID_3_">
      <use
         xlink:href="#XMLID_1_"
         id="use18526" />
    </clipPath>
    <polyline
       id="XMLID_1_"
       points="21.883,173.879 108.918,23.176 195.953,173.879 21.883,173.879 " />
    <clipPath
       id="XMLID_3_-9">
      <use
         xlink:href="#XMLID_1_-4"
         id="use20203" />
    </clipPath>
    <polyline
       id="XMLID_1_-4"
       points="196.07,173.879 109.035,23.176 22,173.879 196.07,173.879 " />
  </defs>
  <g
     id="Capa_2"
     data-name="Capa 2">
    <path
       class="cls-1"
       d="m 401.2,374.5 a 26.44,26.44 0 0 0 5.5,-0.6 26.75,26.75 0 0 0 5.7,-2.2 26,26 0 0 0 5.3,-3.8 24.54,24.54 0 0 0 4.2,-5.3 25,25 0 0 0 2.5,-6.4 20.91,20.91 0 0 0 0.7,-6.5 28.93,28.93 0 0 0 -1,-6 25.22,25.22 0 0 0 -2.2,-5 L 233.2,11.9 a 24.44,24.44 0 0 0 -3.2,-4.4 22.32,22.32 0 0 0 -4.7,-3.8 20.42,20.42 0 0 0 -6,-2.7 21.32,21.32 0 0 0 -6.7,-1 22.4,22.4 0 0 0 -6.8,1 21.06,21.06 0 0 0 -5.9,2.7 22.32,22.32 0 0 0 -4.7,3.8 25.24,25.24 0 0 0 -3.3,4.4 L 3.2,338.7 a 32.77,32.77 0 0 0 -2.2,5 28.93,28.93 0 0 0 -1,6 29.37,29.37 0 0 0 0.7,6.5 25,25 0 0 0 2.5,6.4 24.54,24.54 0 0 0 4.2,5.3 26,26 0 0 0 5.3,3.8 26.75,26.75 0 0 0 5.7,2.2 26.44,26.44 0 0 0 5.5,0.6 h 377.3"
       id="path18775" />
    <polyline
       class="cls-2"
       points="44.6 338.7 380.6 338.7 212.6 47.7 44.6 338.7"
       id="polyline18777" />
    <path
       fill-rule="evenodd"
       fill="#010101"
       fill-opacity="1"
       d="m 183.80312,190.2 v -14.69921 h 13.69922 l -20.5,-32.70313 L 156.6,175.50079 h 13.60156 v 21 l 28,23.89843 10.5,-9 L 183.80312,190.2"
       id="path2445"
       style="fill:#000000;stroke-width:0.999998" />
    <path
       fill-rule="evenodd"
       fill="#010101"
       fill-opacity="1"
       d="m 227.90078,227.09844 32.90234,28.19922 h -21 l -22.40234,-19.19922 10.5,-9"
       id="path2447"
       style="fill:#000000;stroke-width:0.999998" />
    <path
       fill-rule="evenodd"
       fill="#010101"
       fill-opacity="1"
       d="m 241.40078,190.2 -76.19922,65.09766 h 21 L 255.1,196.50079 v -21 h 13.60156 l -20.39844,-32.70313 -20.5,32.70313 h 13.59766 V 190.2"
       id="path2449"
       style="fill:#000000;stroke-width:0.999998" />
    <g
       id="g4846">
      <path
         id="path3155"
         d="m 180.70962,262.00079 -48.71158,0.0105 c -2.3199,0 -3.48307,2.31691 -3.48307,2.31691 l -8.11688,20.883 c -2.3199,1.15601 -2.31948,2.31691 -2.31948,2.31691 -2.32516,4.63847 -2.32461,9.28304 -2.32461,9.28304 0,5.79977 2.32461,6.95072 2.32461,6.95072 -2.32516,3.48247 1.15589,5.81026 1.15589,5.81026 v 8.11173 c 0,1.27963 1.04241,2.31691 2.32204,2.31691 h 9.28048 c 1.28489,0 2.31434,-1.03728 2.31434,-2.31691 v -9.28304 h 46.39723 v 9.28304 c 0,1.27963 1.03716,2.31691 2.32205,2.31691 h 9.27791 c 1.27962,0 2.32204,-1.03728 2.32204,-2.31691 v -8.11173 c 0,0 3.4783,-2.32779 1.16102,-5.81026 0,0 2.31691,-1.15095 2.31691,-6.95072 0,0 3.7e-4,-4.64325 -2.31691,-9.28304 0,0 4.9e-4,-1.1609 -2.32204,-2.31691 l -8.11689,-20.883 c 0,0 -1.16185,-2.32718 -3.48306,-2.32718 z m -46.39724,5.79998 H 178.385 c 2.32254,0 2.32462,1.17643 2.32462,1.17643 l 5.79997,13.90659 c 1.15601,3.48379 -2.31947,2.32718 -2.31947,2.32718 -8.11705,-2.3278 -27.83373,-2.32718 -27.83373,-2.32718 0,0 -19.72438,-6.2e-4 -27.84142,2.32718 0,0 -3.48337,1.1553 -2.31947,-2.32718 l 5.80254,-13.90659 c 0,0 -3.1e-4,-1.17643 2.31434,-1.17643 z m 11.36877,29.10261 h 21.34278 c 0.54197,0 0.97865,0.43668 0.97865,0.97865 v 3.43683 c 0,0.54197 -0.43668,0.97865 -0.97865,0.97865 h -21.34278 c -0.54197,0 -0.97865,-0.43668 -0.97865,-0.97865 v -3.43683 c 0,-0.54197 0.43668,-0.97865 0.97865,-0.97865 z"
         style="stroke-width:1.31514" />
      <path
         id="path4842"
         d="m 293.20961,262.00079 -48.71158,0.0105 c -2.3199,0 -3.48307,2.31691 -3.48307,2.31691 l -8.11688,20.883 c -2.3199,1.15601 -2.31948,2.31691 -2.31948,2.31691 -2.32516,4.63847 -2.32461,9.28304 -2.32461,9.28304 0,5.79977 2.32461,6.95072 2.32461,6.95072 -2.32516,3.48247 1.15589,5.81026 1.15589,5.81026 v 8.11173 c 0,1.27963 1.04241,2.31691 2.32204,2.31691 h 9.28048 c 1.28489,0 2.31434,-1.03728 2.31434,-2.31691 v -9.28304 h 46.39723 v 9.28304 c 0,1.27963 1.03716,2.31691 2.32205,2.31691 h 9.27791 c 1.27962,0 2.32204,-1.03728 2.32204,-2.31691 v -8.11173 c 0,0 3.4783,-2.32779 1.16102,-5.81026 0,0 2.31691,-1.15095 2.31691,-6.95072 0,0 3.7e-4,-4.64325 -2.31691,-9.28304 0,0 4.9e-4,-1.1609 -2.32204,-2.31691 l -8.11689,-20.883 c 0,0 -1.16185,-2.32718 -3.48306,-2.32718 z m -46.39724,5.79998 h 44.07262 c 2.32254,0 2.32462,1.17643 2.32462,1.17643 l 5.79997,13.90659 c 1.15601,3.48379 -2.31947,2.32718 -2.31947,2.32718 -8.11705,-2.3278 -27.83373,-2.32718 -27.83373,-2.32718 0,0 -19.72438,-6.2e-4 -27.84142,2.32718 0,0 -3.48337,1.1553 -2.31947,-2.32718 l 5.80254,-13.90659 c 0,0 -3.1e-4,-1.17643 2.31434,-1.17643 z m 11.36877,29.10261 h 21.34278 c 0.54197,0 0.97865,0.43668 0.97865,0.97865 v 3.43683 c 0,0.54197 -0.43668,0.97865 -0.97865,0.97865 h -21.34278 c -0.54197,0 -0.97865,-0.43668 -0.97865,-0.97865 v -3.43683 c 0,-0.54197 0.43668,-0.97865 0.97865,-0.97865 z"
         style="stroke-width:1.31514" />
    </g>
  </g>
</svg>
