<svg xmlns="http://www.w3.org/2000/svg" viewBox="0 0 425.05 374.5"><defs><style>.cls-1{fill:red;}.cls-1,.cls-2,.cls-3{fill-rule:evenodd;}.cls-2{fill:#fff;}.cls-3{fill:#010101;}</style></defs><g id="Capa_2" data-name="Capa 2"><g id="Capa_1-2" data-name="Capa 1"><path class="cls-1" d="M401.22,374.5a27.18,27.18,0,0,0,5.5-.6,31.9,31.9,0,0,0,5.6-2.1,24.47,24.47,0,0,0,9.6-9.2,25,25,0,0,0,2.5-6.4,23.53,23.53,0,0,0,.6-6.5,19.86,19.86,0,0,0-1-6,25,25,0,0,0-2.1-5L233.22,11.9A23.91,23.91,0,0,0,230,7.6a22.18,22.18,0,0,0-4.7-3.9,23.38,23.38,0,0,0-6-2.7,23.28,23.28,0,0,0-13.5,0,23.38,23.38,0,0,0-6,2.7,22.18,22.18,0,0,0-4.7,3.9,23.91,23.91,0,0,0-3.2,4.3L3.22,338.7a25.22,25.22,0,0,0-2.2,5,28.93,28.93,0,0,0-1,6,20.29,20.29,0,0,0,.7,6.5,23,23,0,0,0,6.7,11.7,22,22,0,0,0,5.3,3.9,32.83,32.83,0,0,0,5.7,2.1,26.25,26.25,0,0,0,5.4.6h377.4"/><polyline class="cls-2" points="44.52 338.7 380.63 338.7 212.53 47.7 44.52 338.7"/><path class="cls-3" d="M179.22,231.5a6.6,6.6,0,0,1-2.7-.6,8.4,8.4,0,0,1-2.4-1.8,6.81,6.81,0,0,1-1.5-2.6,6.26,6.26,0,0,1-.3-2.7V204.6a7.22,7.22,0,0,1,.5-2.8,9,9,0,0,1,1.7-2.6,8.32,8.32,0,0,1,2.6-1.7,7.22,7.22,0,0,1,2.8-.5h65.3a6.92,6.92,0,0,1,2.8.5,6.54,6.54,0,0,1,2.6,1.7,6.19,6.19,0,0,1,1.7,2.6,7.44,7.44,0,0,1,.6,2.8v19.2a7.92,7.92,0,0,1-.6,2.9,6.87,6.87,0,0,1-1.7,2.6A7.82,7.82,0,0,1,248,231a9.18,9.18,0,0,1-2.8.5h-66M251,262.2a10.25,10.25,0,0,1-2.9,6.8,9.79,9.79,0,0,1-13.5,0,9.7,9.7,0,0,1-2.8-6.8,9.55,9.55,0,0,1,16.3-6.7,10,10,0,0,1,2.9,6.7m-76.8,0a9.55,9.55,0,0,1,16.3-6.7,9.57,9.57,0,0,1,2.9,6.7A9.69,9.69,0,0,1,177,269a9.7,9.7,0,0,1-2.8-6.8m38.4-96.7a10,10,0,0,1,0,19.9,10,10,0,0,1,0-19.9m-32.3,133.2,4.6-6.9h55.3l4.6,6.9h-64.5m68-16.5a17.51,17.51,0,0,0,5.3-1.8,15.42,15.42,0,0,0,4.7-3.7,15.89,15.89,0,0,0,3.1-5.1,18.53,18.53,0,0,0,1.1-5.5V189.3a17.22,17.22,0,0,0-17.3-17.3h-17.3a16,16,0,0,0-1.9-4.8,15.41,15.41,0,0,0-3.6-4.1,17.16,17.16,0,0,0-4.8-2.6,14.92,14.92,0,0,0-5-.8,15.1,15.1,0,0,0-5.1.8,18.67,18.67,0,0,0-4.8,2.6,20,20,0,0,0-3.6,4.1,19.18,19.18,0,0,0-1.9,4.8h-17.3a17.15,17.15,0,0,0-12.2,5.1,16.67,16.67,0,0,0-3.8,5.8,16.46,16.46,0,0,0-1.2,6.4v76.8a16.5,16.5,0,0,0,4.1,10.6,16.66,16.66,0,0,0,10.1,5.5l-11.2,16.5h-14.6v8.4H160l-8.9,12.7h14.6l8.9-12.7h76l8.8,12.7H274l-8.8-12.7H274v-8.4h-14.6l-11.1-16.5"/></g></g></svg>