<svg width="336" height="504" xmlns="http://www.w3.org/2000/svg" xmlns:xlink="http://www.w3.org/1999/xlink" xml:space="preserve" overflow="hidden"><defs><clipPath id="clip0"><rect x="472" y="108" width="336" height="504"/></clipPath></defs><g clip-path="url(#clip0)" transform="translate(-472 -108)"><path d="M1.58228 483.613C1.58228 485.911 2.03436 488.209 2.90085 490.508 3.88036 492.768 5.19893 494.953 7.04492 496.799 8.89092 498.683 11.076 499.964 13.3741 500.981 15.6721 501.847 18.0832 502.262 20.2683 502.262L317.587 502.262C319.885 502.262 322.183 501.847 324.443 500.981 326.741 499.964 328.926 498.683 330.772 496.799 332.656 494.953 333.937 492.768 334.916 490.508 335.821 488.209 336.235 485.911 336.235 483.613L336.235 19.0251C336.235 16.727 335.821 14.4666 334.916 12.1685 333.937 9.87043 332.656 7.68537 330.772 5.83938 328.926 3.99338 326.741 2.67481 324.443 1.6953 322.183 0.828815 319.885 0.376734 317.587 0.376734L20.2683 0.376734C18.0832 0.376734 15.6721 0.828815 13.3741 1.6953 11.076 2.67481 8.89092 3.99338 7.04492 5.83938 5.19893 7.68537 3.88036 9.87043 2.90085 12.1685 2.03436 14.4666 1.58228 16.727 1.58228 19.0251L1.58228 483.613Z" fill="#FFFFFF" transform="matrix(1 0 0 1.00218 471.065 108)"/><path d="M1.58228 483.576C1.58228 488.624 3.57897 493.333 7.0826 496.799 10.5862 500.303 15.3707 502.262 20.306 502.262" stroke="#343434" stroke-width="0.753468" stroke-linejoin="round" fill="none" transform="matrix(1 0 0 1.00218 471.065 108)"/><path d="M20.2683 502.224 317.549 502.224" stroke="#343434" stroke-width="0.753468" stroke-linejoin="round" fill="none" transform="matrix(1 0 0 1.00218 471.065 108)"/><path d="M317.549 502.262C322.56 502.262 327.306 500.303 330.772 496.799 334.276 493.333 336.235 488.624 336.235 483.576" stroke="#343434" stroke-width="0.753468" stroke-linejoin="round" fill="none" transform="matrix(1 0 0 1.00218 471.065 108)"/><path d="M336.197 483.576 336.197 19.0251" stroke="#343434" stroke-width="0.753468" stroke-linejoin="round" fill="none" transform="matrix(1 0 0 1.00218 471.065 108)"/><path d="M336.235 19.0627C336.235 14.0522 334.276 9.38067 330.772 5.87705 327.306 2.37342 322.56 0.376734 317.549 0.376734" stroke="#343434" stroke-width="0.753468" stroke-linejoin="round" fill="none" transform="matrix(1 0 0 1.00218 471.065 108)"/><path d="M317.549 0.376734 20.2683 0.376734" stroke="#343434" stroke-width="0.753468" stroke-linejoin="round" fill="none" transform="matrix(1 0 0 1.00218 471.065 108)"/><path d="M20.306 0.376734C15.3707 0.376734 10.5862 2.37342 7.0826 5.87705 3.57897 9.38067 1.58228 14.0522 1.58228 19.0627" stroke="#343434" stroke-width="0.753468" stroke-linejoin="round" fill="none" transform="matrix(1 0 0 1.00218 471.065 108)"/><path d="M1.58228 19.0251 1.58228 483.576" stroke="#343434" stroke-width="0.753468" stroke-linejoin="round" fill="none" transform="matrix(1 0 0 1.00218 471.065 108)"/><path d="M9.79508 483.613C9.79508 484.932 9.98345 486.25 10.5485 487.531 11.076 488.737 11.8671 489.942 12.8466 491.035 13.9392 492.014 15.1447 492.768 16.4256 493.333 17.6311 493.86 18.9497 494.087 20.2683 494.087L317.587 494.087C318.905 494.087 320.224 493.86 321.505 493.333 322.71 492.768 324.029 492.014 325.008 491.035 325.988 489.942 326.741 488.737 327.306 487.531 327.834 486.25 328.06 484.932 328.06 483.613L328.06 19.0251C328.06 17.7065 327.834 16.4256 327.306 15.107 326.741 13.9015 325.988 12.5829 325.008 11.6034 324.029 10.6239 322.71 9.87043 321.505 9.343 320.224 8.7779 318.905 8.55186 317.587 8.55186L20.2683 8.55186C18.9497 8.55186 17.6311 8.7779 16.4256 9.343 15.1447 9.87043 13.9392 10.6239 12.8466 11.6034 11.8671 12.5829 11.076 13.9015 10.5485 15.107 9.98345 16.4256 9.79508 17.7065 9.79508 19.0251L9.79508 483.613Z" fill="#0055FF" transform="matrix(1 0 0 1.00218 471.065 108)"/><path d="M127.6 177.705 156.684 177.705 159.622 66.1545 144.741 66.1545 127.6 177.705Z" fill="#FFFFFF" transform="matrix(1 0 0 1.00218 471.065 108)"/><path d="M90.8305 416.743 150.355 416.743 156.006 203.738 123.606 203.738 90.8305 416.743Z" fill="#FFFFFF" transform="matrix(1 0 0 1.00218 471.065 108)"/><path d="M210.218 177.705 181.171 177.705 178.233 66.1545 193.114 66.1545 210.218 177.705Z" fill="#FFFFFF" transform="matrix(1 0 0 1.00218 471.065 108)"/><path d="M246.987 416.743 187.5 416.743 181.849 203.738 214.249 203.738 246.987 416.743Z" fill="#FFFFFF" transform="matrix(1 0 0 1.00218 471.065 108)"/><path d="M61.1816 196.316 94.5979 196.316 94.5979 216.773 109.441 216.773 109.441 196.316 228.451 196.316 228.451 216.773 243.295 216.773 243.295 196.316 276.786 196.316 276.786 185.202 61.1816 185.202 61.1816 196.316Z" fill="#FFFFFF" transform="matrix(1 0 0 1.00218 471.065 108)"/><path d="M326.967 563.782 336.273 566.08 326.967 568.491" stroke="#010101" stroke-width="0.753468" stroke-linejoin="round" fill="none" transform="matrix(1 0 0 1.00218 471.065 108)"/><path d="M11.076 568.491 1.61996 566.08 11.076 563.782" stroke="#010101" stroke-width="0.753468" stroke-linejoin="round" fill="none" transform="matrix(1 0 0 1.00218 471.065 108)"/><path d="M1.61996 566.043 336.235 566.043" stroke="#010101" stroke-width="0.753468" stroke-linejoin="round" fill="none" transform="matrix(1 0 0 1.00218 471.065 108)"/><path d="M1.61996 535.527 1.61996 570.752" stroke="#808080" stroke-width="0.753468" stroke-linejoin="round" stroke-dasharray="4.82219 4.82219" fill="none" transform="matrix(1 0 0 1.00218 471.065 108)"/><path d="M176.424 530.818 185.73 533.116 176.424 535.452" stroke="#010101" stroke-width="0.753468" stroke-linejoin="round" fill="none" transform="matrix(1 0 0 1.00218 471.065 108)"/><path d="M147.604 535.452 156.91 530.818" stroke="#010101" stroke-width="0.753468" stroke-linejoin="round" fill="none" transform="matrix(1 0 0 1.00218 471.065 108)"/><path d="M152.201 533.116 185.692 533.116" stroke="#010101" stroke-width="0.753468" stroke-linejoin="round" fill="none" transform="matrix(1 0 0 1.00218 471.065 108)"/><path d="M128.956 535.452 138.374 530.818" stroke="#010101" stroke-width="0.753468" stroke-linejoin="round" fill="none" transform="matrix(1 0 0 1.00218 471.065 108)"/><path d="M133.665 533.116 152.201 533.116" stroke="#010101" stroke-width="0.753468" stroke-linejoin="round" fill="none" transform="matrix(1 0 0 1.00218 471.065 108)"/><path d="M90.0017 535.452 99.3071 530.818" stroke="#010101" stroke-width="0.753468" stroke-linejoin="round" fill="none" transform="matrix(1 0 0 1.00218 471.065 108)"/><path d="M94.5979 533.116 133.665 533.116" stroke="#010101" stroke-width="0.753468" stroke-linejoin="round" fill="none" transform="matrix(1 0 0 1.00218 471.065 108)"/><path d="M80.6211 535.452 90.0394 530.818" stroke="#010101" stroke-width="0.753468" stroke-linejoin="round" fill="none" transform="matrix(1 0 0 1.00218 471.065 108)"/><path d="M85.3302 533.116 94.5979 533.116" stroke="#010101" stroke-width="0.753468" stroke-linejoin="round" fill="none" transform="matrix(1 0 0 1.00218 471.065 108)"/><path d="M41.6668 535.452 50.9721 530.818" stroke="#010101" stroke-width="0.753468" stroke-linejoin="round" fill="none" transform="matrix(1 0 0 1.00218 471.065 108)"/><path d="M46.2629 533.116 85.3302 533.116" stroke="#010101" stroke-width="0.753468" stroke-linejoin="round" fill="none" transform="matrix(1 0 0 1.00218 471.065 108)"/><path d="M23.0184 535.452 32.3238 530.818" stroke="#010101" stroke-width="0.753468" stroke-linejoin="round" fill="none" transform="matrix(1 0 0 1.00218 471.065 108)"/><path d="M27.7276 533.116 46.2629 533.116" stroke="#010101" stroke-width="0.753468" stroke-linejoin="round" fill="none" transform="matrix(1 0 0 1.00218 471.065 108)"/><path d="M11.076 535.452 1.61996 533.116 11.076 530.818" stroke="#010101" stroke-width="0.753468" stroke-linejoin="round" fill="none" transform="matrix(1 0 0 1.00218 471.065 108)"/><path d="M1.61996 533.116 27.7276 533.116" stroke="#010101" stroke-width="0.753468" stroke-linejoin="round" fill="none" transform="matrix(1 0 0 1.00218 471.065 108)"/><path d="M159.17 558.32C159.283 559.073 159.509 559.638 159.924 560.053 160.489 560.542 161.054 560.731 161.845 560.731 162.485 560.731 163.05 560.542 163.578 560.203 164.105 559.714 164.444 559.186 164.783 558.546 165.009 557.755 165.122 556.888 165.122 555.682 165.122 554.477 165.009 553.61 164.783 553.083 164.444 552.405 164.105 551.991 163.578 551.651 163.126 551.312 162.485 551.237 161.958 551.237 161.054 551.237 160.376 551.425 159.848 552.104 159.283 552.631 158.944 553.384 158.944 554.289 158.944 555.268 159.283 556.022 159.735 556.549 160.263 557.114 160.941 557.34 161.732 557.34 162.259 557.34 162.598 557.227 163.05 557.001 163.465 556.775 163.804 556.474 164.03 556.135 164.03 556.248 164.03 556.361 164.03 556.361 164.03 556.888 163.917 557.34 163.804 557.755 163.691 558.207 163.578 558.546 163.352 558.847 163.239 559.073 163.05 559.299 162.711 559.525 162.485 559.638 162.146 559.714 161.845 559.714 161.393 559.714 161.054 559.638 160.828 559.412 160.489 559.186 160.376 558.734 160.263 558.32L159.17 558.32ZM163.804 554.289C163.804 554.929 163.691 555.456 163.352 555.796 163.05 556.135 162.598 556.361 162.033 556.361 161.506 556.361 161.054 556.135 160.715 555.796 160.376 555.456 160.15 554.929 160.15 554.402 160.15 553.724 160.376 553.196 160.715 552.744 161.167 552.292 161.619 552.104 162.033 552.104 162.598 552.104 163.05 552.292 163.352 552.744 163.691 553.083 163.804 553.61 163.804 554.289Z" fill="#010101" transform="matrix(1 0 0 1.00218 471.065 108)"/><path d="M166.177 555.909C166.177 557.642 166.479 558.96 167.195 559.714 167.609 560.429 168.362 560.731 169.267 560.731 169.907 560.731 170.434 560.542 171 560.203 171.452 559.714 171.753 559.299 171.979 558.546 172.205 557.868 172.318 557.001 172.318 555.909 172.318 555.042 172.205 554.289 172.092 553.724 171.979 553.196 171.753 552.744 171.527 552.292 171.226 551.991 171 551.651 170.547 551.425 170.246 551.312 169.794 551.237 169.267 551.237 168.588 551.237 168.061 551.312 167.609 551.764 167.195 552.104 166.705 552.631 166.479 553.309 166.253 553.95 166.177 554.816 166.177 555.909ZM167.383 555.909C167.383 554.402 167.609 553.384 167.948 552.744 168.287 552.292 168.701 552.104 169.267 552.104 169.794 552.104 170.246 552.405 170.547 552.857 170.887 553.384 171.113 554.402 171.113 555.909 171.113 557.453 170.887 558.433 170.547 558.96 170.246 559.525 169.794 559.714 169.267 559.714 168.701 559.714 168.287 559.525 167.948 558.96 167.609 558.546 167.383 557.453 167.383 555.909Z" fill="#010101" transform="matrix(1 0 0 1.00218 471.065 108)"/><path d="M173.373 555.909C173.373 557.642 173.674 558.96 174.352 559.714 174.88 560.429 175.558 560.731 176.424 560.731 177.065 560.731 177.705 560.542 178.157 560.203 178.61 559.714 178.911 559.299 179.137 558.546 179.401 557.868 179.514 557.001 179.514 555.909 179.514 555.042 179.401 554.289 179.25 553.724 179.137 553.196 178.911 552.744 178.723 552.292 178.497 551.991 178.157 551.651 177.705 551.425 177.404 551.312 176.952 551.237 176.424 551.237 175.746 551.237 175.219 551.312 174.767 551.764 174.352 552.104 174.013 552.631 173.787 553.309 173.561 553.95 173.373 554.816 173.373 555.909ZM174.541 555.909C174.541 554.402 174.767 553.384 175.219 552.744 175.445 552.292 175.859 552.104 176.424 552.104 176.952 552.104 177.404 552.405 177.705 552.857 178.157 553.384 178.27 554.402 178.27 555.909 178.27 557.453 178.157 558.433 177.705 558.96 177.404 559.525 176.952 559.714 176.424 559.714 175.859 559.714 175.445 559.525 175.106 558.96 174.767 558.546 174.541 557.453 174.541 555.909Z" fill="#010101" transform="matrix(1 0 0 1.00218 471.065 108)"/><text font-family="Times New Roman,Times New Roman_MSFontService,sans-serif" font-weight="400" font-size="247" transform="matrix(0.0376734 0 0 0.0377554 629.519 670)">900</text><path d="M162.787 525.393C162.9 526.147 163.088 526.712 163.54 527.164 164.068 527.465 164.633 527.691 165.386 527.691 166.064 527.691 166.592 527.578 167.195 527.164 167.722 526.825 168.061 526.26 168.362 525.619 168.588 524.866 168.701 523.886 168.701 522.794 168.701 521.55 168.588 520.684 168.362 520.119 168.061 519.478 167.722 519.026 167.195 518.725 166.705 518.386 166.177 518.16 165.499 518.16 164.633 518.16 163.992 518.499 163.427 519.026 162.9 519.704 162.561 520.345 162.561 521.324 162.561 522.191 162.9 522.982 163.427 523.547 163.879 524.075 164.52 524.414 165.273 524.414 165.838 524.414 166.253 524.301 166.592 524.075 167.044 523.886 167.383 523.547 167.609 523.208 167.609 523.321 167.609 523.321 167.609 523.434 167.609 523.886 167.496 524.301 167.383 524.866 167.27 525.28 167.195 525.619 166.931 525.958 166.818 526.147 166.592 526.373 166.253 526.599 166.064 526.712 165.725 526.825 165.386 526.825 164.972 526.825 164.633 526.712 164.407 526.486 164.068 526.147 163.992 525.845 163.879 525.28L162.787 525.393ZM167.496 521.324C167.496 521.965 167.27 522.455 166.931 522.907 166.592 523.208 166.177 523.434 165.612 523.434 165.085 523.434 164.633 523.208 164.294 522.907 163.992 522.455 163.766 521.965 163.766 521.324 163.766 520.684 163.992 520.232 164.294 519.817 164.746 519.365 165.16 519.139 165.612 519.139 166.177 519.139 166.592 519.365 166.931 519.704 167.27 520.119 167.496 520.684 167.496 521.324Z" fill="#010101" transform="matrix(1 0 0 1.00218 471.065 108)"/><path d="M169.756 522.982C169.756 524.753 170.095 525.958 170.736 526.825 171.188 527.352 171.941 527.691 172.808 527.691 173.524 527.691 174.164 527.578 174.578 527.164 175.031 526.825 175.37 526.26 175.596 525.619 175.784 524.979 175.897 524.075 175.897 522.982 175.897 521.965 175.784 521.324 175.671 520.797 175.596 520.232 175.37 519.817 175.144 519.365 174.805 519.026 174.578 518.725 174.164 518.499 173.825 518.273 173.411 518.16 172.808 518.16 172.167 518.16 171.602 518.386 171.188 518.725 170.736 519.139 170.397 519.591 170.095 520.345 169.869 520.985 169.756 521.889 169.756 522.982ZM170.962 522.982C170.962 521.437 171.188 520.345 171.602 519.817 171.828 519.365 172.28 519.139 172.808 519.139 173.411 519.139 173.825 519.365 174.164 519.893 174.503 520.458 174.692 521.437 174.692 522.982 174.692 524.527 174.503 525.506 174.164 526.071 173.825 526.486 173.411 526.825 172.808 526.825 172.28 526.825 171.828 526.486 171.489 526.071 171.188 525.506 170.962 524.527 170.962 522.982Z" fill="#010101" transform="matrix(1 0 0 1.00218 471.065 108)"/><text font-family="Times New Roman,Times New Roman_MSFontService,sans-serif" font-weight="400" font-size="247" transform="matrix(0.0376734 0 0 0.0377554 633.136 637)">90</text><path d="M136.604 525.167C136.604 525.958 136.905 526.486 137.47 527.051 137.998 527.465 138.676 527.691 139.542 527.691 140.635 527.691 141.388 527.352 141.953 526.599 142.481 525.958 142.744 525.28 142.744 524.414 142.744 523.509 142.481 522.756 141.953 522.191 141.275 521.663 140.635 521.324 139.881 521.324 139.203 521.324 138.676 521.55 138.111 521.965L138.563 519.478 142.255 519.478 142.255 518.386 137.696 518.386 136.83 523.17 137.809 523.283C137.998 522.944 138.224 522.756 138.563 522.643 138.789 522.417 139.203 522.417 139.542 522.417 140.07 522.417 140.635 522.53 140.974 522.944 141.275 523.283 141.501 523.886 141.501 524.527 141.501 525.167 141.275 525.732 140.974 526.147 140.522 526.599 140.07 526.825 139.542 526.825 139.09 526.825 138.676 526.599 138.337 526.373 137.998 526.071 137.885 525.619 137.809 525.092L136.604 525.167Z" fill="#010101" transform="matrix(1 0 0 1.00218 471.065 108)"/><path d="M143.799 522.982C143.799 524.753 144.138 525.958 144.666 526.825 145.193 527.352 145.871 527.691 146.851 527.691 147.529 527.691 148.094 527.578 148.509 527.164 148.961 526.825 149.3 526.26 149.488 525.619 149.714 524.979 149.827 524.075 149.827 522.982 149.827 521.965 149.827 521.324 149.601 520.797 149.488 520.232 149.3 519.817 149.074 519.365 148.848 519.026 148.509 518.725 148.207 518.499 147.755 518.273 147.303 518.16 146.851 518.16 146.097 518.16 145.532 518.386 145.118 518.725 144.666 519.139 144.327 519.591 144.138 520.345 143.912 520.985 143.799 521.889 143.799 522.982ZM145.005 522.982C145.005 521.437 145.118 520.345 145.532 519.817 145.871 519.365 146.286 519.139 146.851 519.139 147.303 519.139 147.755 519.365 148.207 519.893 148.509 520.458 148.735 521.437 148.735 522.982 148.735 524.527 148.509 525.506 148.207 526.071 147.755 526.486 147.303 526.825 146.851 526.825 146.286 526.825 145.871 526.486 145.532 526.071 145.118 525.506 145.005 524.527 145.005 522.982Z" fill="#010101" transform="matrix(1 0 0 1.00218 471.065 108)"/><text font-family="Times New Roman,Times New Roman_MSFontService,sans-serif" font-weight="400" font-size="247" transform="matrix(0.0376734 0 0 0.0377554 607.104 637)">50</text><path d="M108.386 527.578 108.386 518.16 107.708 518.16C107.52 518.612 107.181 519.026 106.616 519.478 106.201 519.893 105.636 520.232 104.958 520.571L104.958 521.663C105.184 521.55 105.297 521.55 105.485 521.437 105.749 521.324 105.975 521.211 106.201 520.985 106.616 520.797 106.955 520.571 107.294 520.232L107.294 527.578 108.386 527.578Z" fill="#010101" transform="matrix(1 0 0 1.00218 471.065 108)"/><path d="M111.287 522.982C111.287 524.753 111.626 525.958 112.304 526.825 112.756 527.352 113.51 527.691 114.376 527.691 115.017 527.691 115.582 527.578 116.109 527.164 116.561 526.825 116.901 526.26 117.089 525.619 117.315 524.979 117.428 524.075 117.428 522.982 117.428 521.965 117.315 521.324 117.202 520.797 117.089 520.232 116.901 519.817 116.674 519.365 116.335 519.026 116.109 518.725 115.695 518.499 115.356 518.273 114.904 518.16 114.376 518.16 113.736 518.16 113.171 518.386 112.756 518.725 112.304 519.139 111.815 519.591 111.626 520.345 111.4 520.985 111.287 521.889 111.287 522.982ZM112.53 522.982C112.53 521.437 112.756 520.345 113.058 519.817 113.397 519.365 113.811 519.139 114.376 519.139 114.904 519.139 115.356 519.365 115.695 519.893 115.996 520.458 116.222 521.437 116.222 522.982 116.222 524.527 115.996 525.506 115.695 526.071 115.356 526.486 114.904 526.825 114.376 526.825 113.811 526.825 113.397 526.486 113.058 526.071 112.756 525.506 112.53 524.527 112.53 522.982Z" fill="#010101" transform="matrix(1 0 0 1.00218 471.065 108)"/><path d="M118.483 525.167C118.596 525.958 118.973 526.486 119.5 527.051 120.065 527.465 120.706 527.691 121.572 527.691 122.552 527.691 123.418 527.352 123.983 526.599 124.511 525.958 124.737 525.28 124.737 524.414 124.737 523.509 124.398 522.756 123.87 522.191 123.305 521.663 122.665 521.324 121.798 521.324 121.233 521.324 120.593 521.55 120.065 521.965L120.593 519.478 124.285 519.478 124.285 518.386 119.726 518.386 118.709 523.17 119.839 523.283C120.065 522.944 120.253 522.756 120.48 522.643 120.819 522.417 121.12 522.417 121.572 522.417 122.137 522.417 122.552 522.53 123.004 522.944 123.305 523.283 123.531 523.886 123.531 524.527 123.531 525.167 123.305 525.732 123.004 526.147 122.552 526.599 122.137 526.825 121.572 526.825 121.12 526.825 120.706 526.599 120.366 526.373 120.065 526.071 119.839 525.619 119.726 525.092L118.483 525.167Z" fill="#010101" transform="matrix(1 0 0 1.00218 471.065 108)"/><text font-family="Times New Roman,Times New Roman_MSFontService,sans-serif" font-weight="400" font-size="247" transform="matrix(0.0376734 0 0 0.0377554 574.629 637)">105</text><path d="M89.625 526.486 84.9912 526.486C85.1042 526.26 85.3302 526.071 85.4433 525.845 85.6316 525.619 86.0837 525.28 86.7241 524.602 87.5906 523.962 88.1934 523.396 88.6455 522.944 88.9469 522.643 89.1729 522.191 89.2859 521.889 89.512 521.55 89.625 521.098 89.625 520.797 89.625 520.006 89.2859 519.478 88.7208 518.913 88.3064 518.499 87.5153 518.16 86.6111 518.16 85.7446 518.16 84.9912 518.386 84.5391 518.913 84.0117 519.365 83.6726 520.006 83.5596 520.872L84.7651 520.985C84.7651 520.458 84.9912 520.006 85.3302 519.704 85.6316 519.365 86.0837 519.139 86.6111 519.139 87.0632 519.139 87.5153 519.252 87.8543 519.591 88.1934 519.893 88.4194 520.345 88.4194 520.797 88.4194 521.211 88.1934 521.663 87.8543 522.078 87.5153 522.643 86.7241 523.283 85.7446 524.037 85.1042 524.602 84.6521 525.167 84.2377 525.506 83.8986 525.958 83.6726 526.373 83.5596 526.825 83.4466 527.051 83.3712 527.239 83.3712 527.578L89.625 527.578 89.625 526.486Z" fill="#010101" transform="matrix(1 0 0 1.00218 471.065 108)"/><path d="M90.7552 525.167C90.8682 525.958 91.0943 526.486 91.6594 527.051 92.1868 527.465 92.9403 527.691 93.7314 527.691 94.8616 527.691 95.6151 527.352 96.2555 526.599 96.7076 525.958 96.9336 525.28 96.9336 524.414 96.9336 523.509 96.7076 522.756 96.1425 522.191 95.6151 521.663 94.8616 521.324 94.0705 521.324 93.3923 521.324 92.8272 521.55 92.2998 521.965L92.7519 519.478 96.4816 519.478 96.4816 518.386 91.8477 518.386 90.9812 523.17 92.0738 523.283C92.1868 522.944 92.4128 522.756 92.7519 522.643 93.0533 522.417 93.3923 522.417 93.7314 522.417 94.4095 522.417 94.8616 522.53 95.163 522.944 95.6151 523.283 95.7281 523.886 95.7281 524.527 95.7281 525.167 95.6151 525.732 95.163 526.147 94.8616 526.599 94.2965 526.825 93.7314 526.825 93.2793 526.825 92.8272 526.599 92.6389 526.373 92.2998 526.071 92.0738 525.619 91.9607 525.092L90.7552 525.167Z" fill="#010101" transform="matrix(1 0 0 1.00218 471.065 108)"/><text font-family="Times New Roman,Times New Roman_MSFontService,sans-serif" font-weight="400" font-size="247" transform="matrix(0.0376734 0 0 0.0377554 554.097 637)">25</text><path d="M60.1644 527.578 60.1644 518.16 59.3733 518.16C59.1849 518.612 58.8458 519.026 58.3561 519.478 57.8287 519.893 57.2636 520.232 56.6231 520.571L56.6231 521.663C56.8491 521.55 57.0752 521.55 57.1505 521.437 57.3766 521.324 57.6026 521.211 57.8287 520.985 58.2431 520.797 58.7328 520.571 58.9589 520.232L58.9589 527.578 60.1644 527.578Z" fill="#010101" transform="matrix(1 0 0 1.00218 471.065 108)"/><path d="M62.9522 522.982C62.9522 524.753 63.2913 525.958 63.9694 526.825 64.4215 527.352 65.175 527.691 66.0415 527.691 66.6819 527.691 67.247 527.578 67.7744 527.164 68.2265 526.825 68.5656 526.26 68.7539 525.619 68.98 524.979 69.093 524.075 69.093 522.982 69.093 521.965 68.98 521.324 68.867 520.797 68.7539 520.232 68.5656 519.817 68.3395 519.365 68.0005 519.026 67.7744 518.725 67.36 518.499 67.021 518.273 66.6066 518.16 66.0415 518.16 65.401 518.16 64.8359 518.386 64.4215 518.725 63.9694 519.139 63.6304 519.591 63.2913 520.345 63.0653 520.985 62.9522 521.889 62.9522 522.982ZM64.1955 522.982C64.1955 521.437 64.4215 520.345 64.7229 519.817 65.062 519.365 65.514 519.139 66.0415 519.139 66.6066 519.139 67.021 519.365 67.36 519.893 67.6614 520.458 67.8875 521.437 67.8875 522.982 67.8875 524.527 67.6614 525.506 67.36 526.071 67.021 526.486 66.6066 526.825 66.0415 526.825 65.514 526.825 65.062 526.486 64.7229 526.071 64.4215 525.506 64.1955 524.527 64.1955 522.982Z" fill="#010101" transform="matrix(1 0 0 1.00218 471.065 108)"/><path d="M70.1479 525.167C70.2609 525.958 70.5999 526.486 71.1274 527.051 71.6925 527.465 72.3329 527.691 73.1994 527.691 74.1789 527.691 75.0454 527.352 75.6482 526.599 76.1756 525.958 76.4016 525.28 76.4016 524.414 76.4016 523.509 76.0626 522.756 75.5351 522.191 74.97 521.663 74.2919 521.324 73.4254 521.324 72.8603 521.324 72.3329 521.55 71.6925 521.965L72.2199 519.478 75.9872 519.478 75.9872 518.386 71.3534 518.386 70.3739 523.17 71.4664 523.283C71.6925 522.944 71.8808 522.756 72.2199 522.643 72.4459 522.417 72.785 522.417 73.1994 522.417 73.7645 522.417 74.2919 522.53 74.631 522.944 74.97 523.283 75.1584 523.886 75.1584 524.527 75.1584 525.167 74.97 525.732 74.631 526.147 74.1789 526.599 73.7645 526.825 73.1994 526.825 72.785 526.825 72.3329 526.599 71.9939 526.373 71.6925 526.071 71.4664 525.619 71.3534 525.092L70.1479 525.167Z" fill="#010101" transform="matrix(1 0 0 1.00218 471.065 108)"/><text font-family="Times New Roman,Times New Roman_MSFontService,sans-serif" font-weight="400" font-size="247" transform="matrix(0.0376734 0 0 0.0377554 526.332 637)">105</text><path d="M30.6661 525.167C30.6661 525.958 30.9675 526.486 31.5326 527.051 32.0601 527.465 32.7382 527.691 33.6423 527.691 34.7349 527.691 35.4883 527.352 36.0534 526.599 36.5809 525.958 36.8069 525.28 36.8069 524.414 36.8069 523.509 36.5809 522.756 36.0534 522.191 35.3753 521.663 34.7349 521.324 33.9814 521.324 33.3033 521.324 32.7382 521.55 32.1731 521.965L32.6252 519.478 36.3548 519.478 36.3548 518.386 31.7587 518.386 30.8922 523.17 31.8717 523.283C32.0601 522.944 32.2861 522.756 32.6252 522.643 32.8889 522.417 33.3033 522.417 33.6423 522.417 34.1698 522.417 34.7349 522.53 35.0739 522.944 35.3753 523.283 35.6014 523.886 35.6014 524.527 35.6014 525.167 35.3753 525.732 35.0739 526.147 34.6218 526.599 34.1698 526.825 33.6423 526.825 33.1903 526.825 32.7382 526.599 32.3991 526.373 32.0601 526.071 31.8717 525.619 31.8717 525.092L30.6661 525.167Z" fill="#010101" transform="matrix(1 0 0 1.00218 471.065 108)"/><path d="M37.8618 522.982C37.8618 524.753 38.2008 525.958 38.7282 526.825 39.2933 527.352 39.9715 527.691 40.951 527.691 41.5914 527.691 42.1565 527.578 42.5709 527.164 43.023 526.825 43.3621 526.26 43.5504 525.619 43.7765 524.979 43.8895 524.075 43.8895 522.982 43.8895 521.965 43.8895 521.324 43.6635 520.797 43.5504 520.232 43.3621 519.817 43.136 519.365 42.91 519.026 42.5709 518.725 42.2695 518.499 41.8175 518.273 41.4031 518.16 40.951 518.16 40.1975 518.16 39.5947 518.386 39.1803 518.725 38.7282 519.139 38.3892 519.591 38.2008 520.345 37.9748 520.985 37.8618 521.889 37.8618 522.982ZM39.0673 522.982C39.0673 521.437 39.1803 520.345 39.5947 519.817 39.9715 519.365 40.4235 519.139 40.838 519.139 41.4031 519.139 41.8175 519.365 42.2695 519.893 42.5709 520.458 42.797 521.437 42.797 522.982 42.797 524.527 42.5709 525.506 42.2695 526.071 41.8175 526.486 41.4031 526.825 40.951 526.825 40.4235 526.825 39.9715 526.486 39.5947 526.071 39.1803 525.506 39.0673 524.527 39.0673 522.982Z" fill="#010101" transform="matrix(1 0 0 1.00218 471.065 108)"/><text font-family="Times New Roman,Times New Roman_MSFontService,sans-serif" font-weight="400" font-size="247" transform="matrix(0.0376734 0 0 0.0377554 501.166 637)">50</text><path d="M8.40117 519.478 13.035 519.478C12.3569 520.119 11.8294 520.872 11.3774 521.889 10.8499 522.907 10.3979 523.886 10.1718 524.979 9.87043 525.958 9.75741 526.825 9.75741 527.578L10.963 527.578C10.963 526.599 11.1513 525.845 11.3774 524.979 11.7164 523.886 12.1308 522.907 12.6959 521.776 13.2234 520.684 13.9015 519.893 14.4289 519.252L14.4289 518.386 8.40117 518.386 8.40117 519.478Z" fill="#010101" transform="matrix(1 0 0 1.00218 471.065 108)"/><path d="M15.4838 522.982C15.4838 524.753 15.8228 525.958 16.4633 526.825 17.0284 527.352 17.6688 527.691 18.5353 527.691 19.2134 527.691 19.8539 527.578 20.306 527.164 20.758 526.825 21.0971 526.26 21.3231 525.619 21.5492 524.979 21.6245 524.075 21.6245 522.982 21.6245 521.965 21.5492 521.324 21.4362 520.797 21.3231 520.232 21.0971 519.817 20.8711 519.365 20.645 519.026 20.306 518.725 19.8539 518.499 19.5148 518.273 19.1004 518.16 18.5353 518.16 17.8949 518.16 17.3298 518.386 16.9154 518.725 16.4633 519.139 16.1619 519.591 15.9358 520.345 15.5968 520.985 15.4838 521.889 15.4838 522.982ZM16.6893 522.982C16.6893 521.437 16.9154 520.345 17.3298 519.817 17.5558 519.365 18.0079 519.139 18.5353 519.139 19.1004 519.139 19.5148 519.365 19.8539 519.893 20.306 520.458 20.419 521.437 20.419 522.982 20.419 524.527 20.306 525.506 19.8539 526.071 19.5148 526.486 19.1004 526.825 18.5353 526.825 18.0079 526.825 17.5558 526.486 17.2544 526.071 16.9154 525.506 16.6893 524.527 16.6893 522.982Z" fill="#010101" transform="matrix(1 0 0 1.00218 471.065 108)"/><text font-family="Times New Roman,Times New Roman_MSFontService,sans-serif" font-weight="400" font-size="247" transform="matrix(0.0376734 0 0 0.0377554 478.863 637)">70</text></g></svg>