<svg width="336" height="336" xmlns="http://www.w3.org/2000/svg" xmlns:xlink="http://www.w3.org/1999/xlink" xml:space="preserve" overflow="hidden"><g transform="translate(-365 -17)"><path d="M365.378 334.01C365.378 336.2 365.831 338.503 366.699 340.919 367.68 343.222 369.115 345.298 370.852 347.148 372.702 348.998 374.891 350.433 377.194 351.301 379.497 352.283 381.913 352.622 384.103 352.622L682.048 352.622C684.351 352.622 686.654 352.283 688.919 351.301 691.222 350.433 693.412 348.998 695.262 347.148 697.149 345.298 698.433 343.222 699.414 340.919 700.32 338.503 700.736 336.2 700.736 334.01L700.736 35.9519C700.736 33.7622 700.32 31.4593 699.414 29.0809 698.433 26.778 697.149 24.5883 695.262 22.8517 693.412 20.964 691.222 19.5672 688.919 18.6611 686.654 17.6796 684.351 17.3775 682.048 17.3775L384.103 17.3775C381.913 17.3775 379.497 17.6796 377.194 18.6611 374.891 19.5672 372.702 20.964 370.852 22.8517 369.115 24.5883 367.68 26.778 366.699 29.0809 365.831 31.4593 365.378 33.7622 365.378 35.9519L365.378 334.01Z" fill="#FFFFFF"/><path d="M365.378 333.973C365.378 338.918 367.378 343.637 370.889 347.148 374.4 350.622 379.195 352.622 384.141 352.622" stroke="#343434" stroke-width="0.755056" stroke-linejoin="round" fill="none"/><path d="M384.103 352.585 682.01 352.585" stroke="#343434" stroke-width="0.755056" stroke-linejoin="round" fill="none"/><path d="M682.01 352.622C687.031 352.622 691.788 350.622 695.262 347.148 698.773 343.637 700.736 338.918 700.736 333.973" stroke="#343434" stroke-width="0.755056" stroke-linejoin="round" fill="none"/><path d="M700.698 333.973 700.698 35.9519" stroke="#343434" stroke-width="0.755056" stroke-linejoin="round" fill="none"/><path d="M700.736 35.9897C700.736 31.0818 698.773 26.3249 695.262 22.8517 691.788 19.3407 687.031 17.3775 682.01 17.3775" stroke="#343434" stroke-width="0.755056" stroke-linejoin="round" fill="none"/><path d="M682.01 17.3775 384.103 17.3775" stroke="#343434" stroke-width="0.755056" stroke-linejoin="round" fill="none"/><path d="M384.141 17.3775C379.195 17.3775 374.4 19.3407 370.889 22.8517 367.378 26.3249 365.378 31.0818 365.378 35.9897" stroke="#343434" stroke-width="0.755056" stroke-linejoin="round" fill="none"/><path d="M365.378 35.9519 365.378 333.973" stroke="#343434" stroke-width="0.755056" stroke-linejoin="round" fill="none"/><path d="M373.608 334.01C373.608 335.218 373.796 336.54 374.363 337.861 374.891 339.145 375.684 340.353 376.666 341.334 377.76 342.429 378.969 343.222 380.252 343.751 381.46 344.204 382.782 344.392 384.103 344.392L682.048 344.392C683.369 344.392 684.691 344.204 685.974 343.751 687.182 343.222 688.504 342.429 689.485 341.334 690.467 340.353 691.222 339.145 691.788 337.861 692.317 336.54 692.543 335.218 692.543 334.01L692.543 35.9519C692.543 34.7438 692.317 33.4225 691.788 32.1389 691.222 30.8175 690.467 29.6094 689.485 28.6279 688.504 27.533 687.182 26.778 685.974 26.2117 684.691 25.7964 683.369 25.5699 682.048 25.5699L384.103 25.5699C382.782 25.5699 381.46 25.7964 380.252 26.2117 378.969 26.778 377.76 27.533 376.666 28.6279 375.684 29.6094 374.891 30.8175 374.363 32.1389 373.796 33.4225 373.608 34.7438 373.608 35.9519L373.608 334.01Z" fill="#0055FF"/><path d="M452.964 293.011 479.127 293.011 479.127 144 503.289 144 466.027 76.9515 428.802 144 452.964 144 452.964 293.011Z" fill="#FEFEFE"/><path d="M587.1 293.011 613.187 293.011 613.187 144 637.462 144 600.125 76.9515 562.825 144 587.1 144 587.1 293.011Z" fill="#FEFEFE"/></g></svg>