<svg width="336" height="336" xmlns="http://www.w3.org/2000/svg" xmlns:xlink="http://www.w3.org/1999/xlink" xml:space="preserve" overflow="hidden"><g transform="translate(-17 -16)"><path d="M17.3775 333.01C17.3775 335.2 17.8306 337.503 18.6989 339.919 19.6804 342.222 21.1151 344.298 22.8517 346.148 24.7016 347.998 26.8912 349.433 29.1942 350.301 31.4971 351.283 33.9133 351.622 36.1029 351.622L334.048 351.622C336.351 351.622 338.654 351.283 340.919 350.301 343.222 349.433 345.412 347.998 347.262 346.148 349.149 344.298 350.433 342.222 351.414 339.919 352.32 337.503 352.736 335.2 352.736 333.01L352.736 34.9519C352.736 32.7622 352.32 30.4593 351.414 28.0809 350.433 25.778 349.149 23.5883 347.262 21.8517 345.412 19.964 343.222 18.5672 340.919 17.6611 338.654 16.6796 336.351 16.3775 334.048 16.3775L36.1029 16.3775C33.9133 16.3775 31.4971 16.6796 29.1942 17.6611 26.8912 18.5672 24.7016 19.964 22.8517 21.8517 21.1151 23.5883 19.6804 25.778 18.6989 28.0809 17.8306 30.4593 17.3775 32.7622 17.3775 34.9519L17.3775 333.01Z" fill="#FFFFFF"/><path d="M17.3775 332.973C17.3775 337.918 19.3784 342.637 22.8894 346.148 26.4004 349.622 31.1951 351.622 36.1407 351.622" stroke="#343434" stroke-width="0.755056" stroke-linejoin="round" fill="none"/><path d="M36.1029 351.585 334.01 351.585" stroke="#343434" stroke-width="0.755056" stroke-linejoin="round" fill="none"/><path d="M334.01 351.622C339.031 351.622 343.788 349.622 347.262 346.148 350.773 342.637 352.736 337.918 352.736 332.973" stroke="#343434" stroke-width="0.755056" stroke-linejoin="round" fill="none"/><path d="M352.698 332.973 352.698 34.9519" stroke="#343434" stroke-width="0.755056" stroke-linejoin="round" fill="none"/><path d="M352.736 34.9897C352.736 30.0818 350.773 25.3249 347.262 21.8517 343.788 18.3407 339.031 16.3775 334.01 16.3775" stroke="#343434" stroke-width="0.755056" stroke-linejoin="round" fill="none"/><path d="M334.01 16.3775 36.1029 16.3775" stroke="#343434" stroke-width="0.755056" stroke-linejoin="round" fill="none"/><path d="M36.1407 16.3775C31.1951 16.3775 26.4004 18.3407 22.8894 21.8517 19.3784 25.3249 17.3775 30.0818 17.3775 34.9897" stroke="#343434" stroke-width="0.755056" stroke-linejoin="round" fill="none"/><path d="M17.3775 34.9519 17.3775 332.973" stroke="#343434" stroke-width="0.755056" stroke-linejoin="round" fill="none"/><path d="M25.6076 333.01C25.6076 334.218 25.7964 335.54 26.3627 336.861 26.8912 338.145 27.684 339.353 28.6656 340.334 29.7604 341.429 30.9685 342.222 32.2521 342.751 33.4602 343.204 34.7816 343.392 36.1029 343.392L334.048 343.392C335.369 343.392 336.691 343.204 337.974 342.751 339.182 342.222 340.504 341.429 341.485 340.334 342.467 339.353 343.222 338.145 343.788 336.861 344.317 335.54 344.543 334.218 344.543 333.01L344.543 34.9519C344.543 33.7438 344.317 32.4225 343.788 31.1389 343.222 29.8175 342.467 28.6094 341.485 27.6279 340.504 26.533 339.182 25.778 337.974 25.2117 336.691 24.7964 335.369 24.5699 334.048 24.5699L36.1029 24.5699C34.7816 24.5699 33.4602 24.7964 32.2521 25.2117 30.9685 25.778 29.7604 26.533 28.6656 27.6279 27.684 28.6094 26.8912 29.8175 26.3627 31.1389 25.7964 32.4225 25.6076 33.7438 25.6076 34.9519L25.6076 333.01Z" fill="#0055FF"/><path d="M258.618 170.522 185.151 49.8265 111.646 170.409C110.853 171.504 110.551 172.938 110.551 174.449 110.665 175.883 111.193 177.318 112.062 178.375 112.93 179.394 114.025 180.262 115.573 180.678 117.007 181.131 118.404 181.131 119.725 180.678L162.726 166.822 162.726 318.136 207.463 318.136 207.463 166.822 250.426 180.791C251.709 181.244 253.144 181.244 254.692 180.791 256.089 180.376 257.297 179.47 258.052 178.488 259.939 176.223 260.128 173.052 258.618 170.522Z" fill="#FEFEFE"/></g></svg>