<svg width="1576" height="1126" xmlns="http://www.w3.org/2000/svg" xmlns:xlink="http://www.w3.org/1999/xlink" xml:space="preserve" overflow="hidden"><defs><clipPath id="clip0"><rect x="2823" y="302" width="994" height="1126"/></clipPath><clipPath id="clip1"><rect x="2823" y="302" width="994" height="1126"/></clipPath></defs><g transform="translate(-2241 -302)"><path d="M1019.77 1705.35C1019.77 1712.69 1021.29 1720.41 1024.2 1728.5 1027.48 1736.22 1032.29 1743.18 1038.11 1749.37 1044.3 1755.57 1051.64 1760.38 1059.36 1763.29 1067.07 1766.57 1075.17 1767.71 1082.51 1767.71L2080.72 1767.71C2088.44 1767.71 2096.16 1766.57 2103.74 1763.29 2111.46 1760.38 2118.8 1755.57 2124.99 1749.37 2131.31 1743.18 2135.62 1736.22 2138.91 1728.5 2141.94 1720.41 2143.33 1712.69 2143.33 1705.35L2143.33 706.76C2143.33 699.424 2141.94 691.709 2138.91 683.74 2135.62 676.025 2131.31 668.689 2124.99 662.87 2118.8 656.546 2111.46 651.867 2103.74 648.831 2096.16 645.542 2088.44 644.53 2080.72 644.53L1082.51 644.53C1075.17 644.53 1067.07 645.542 1059.36 648.831 1051.64 651.867 1044.3 656.546 1038.11 662.87 1032.29 668.689 1027.48 676.025 1024.2 683.74 1021.29 691.709 1019.77 699.424 1019.77 706.76L1019.77 1705.35Z" fill="#FFFFFF" transform="matrix(1 0 0 1.00025 1222.5 -341.428)"/><path d="M1019.77 1705.23C1019.77 1721.8 1026.48 1737.62 1038.23 1749.37 1049.99 1761.01 1066.07 1767.71 1082.64 1767.71" stroke="#343434" stroke-width="2.5297" stroke-linejoin="round" fill="none" transform="matrix(1 0 0 1.00025 1222.5 -341.428)"/><path d="M1082.51 1767.59 2080.59 1767.59" stroke="#343434" stroke-width="2.5297" stroke-linejoin="round" fill="none" transform="matrix(1 0 0 1.00025 1222.5 -341.428)"/><path d="M2080.59 1767.71C2097.42 1767.71 2113.35 1761.01 2124.99 1749.37 2136.75 1737.62 2143.33 1721.8 2143.33 1705.23" stroke="#343434" stroke-width="2.5297" stroke-linejoin="round" fill="none" transform="matrix(1 0 0 1.00025 1222.5 -341.428)"/><path d="M2143.2 1705.23 2143.2 706.76" stroke="#343434" stroke-width="2.5297" stroke-linejoin="round" fill="none" transform="matrix(1 0 0 1.00025 1222.5 -341.428)"/><path d="M2143.33 706.887C2143.33 690.444 2136.75 674.508 2124.99 662.87 2113.35 651.107 2097.42 644.53 2080.59 644.53" stroke="#343434" stroke-width="2.5297" stroke-linejoin="round" fill="none" transform="matrix(1 0 0 1.00025 1222.5 -341.428)"/><path d="M2080.59 644.53 1082.51 644.53" stroke="#343434" stroke-width="2.5297" stroke-linejoin="round" fill="none" transform="matrix(1 0 0 1.00025 1222.5 -341.428)"/><path d="M1082.64 644.53C1066.07 644.53 1049.99 651.107 1038.23 662.87 1026.48 674.508 1019.77 690.444 1019.77 706.887" stroke="#343434" stroke-width="2.5297" stroke-linejoin="round" fill="none" transform="matrix(1 0 0 1.00025 1222.5 -341.428)"/><path d="M1019.77 706.76 1019.77 1705.23" stroke="#343434" stroke-width="2.5297" stroke-linejoin="round" fill="none" transform="matrix(1 0 0 1.00025 1222.5 -341.428)"/><path d="M1047.34 1705.35C1047.34 1709.41 1047.98 1713.83 1049.87 1718.26 1051.64 1722.56 1054.3 1726.61 1057.59 1729.9 1061.25 1733.56 1065.31 1736.22 1069.6 1738 1073.65 1739.51 1078.07 1740.14 1082.51 1740.14L2080.72 1740.14C2085.15 1740.14 2089.58 1739.51 2093.88 1738 2097.92 1736.22 2102.35 1733.56 2105.64 1729.9 2108.93 1726.61 2111.46 1722.56 2113.35 1718.26 2115.12 1713.83 2115.88 1709.41 2115.88 1705.35L2115.88 706.76C2115.88 702.713 2115.12 698.286 2113.35 693.986 2111.46 689.559 2108.93 685.511 2105.64 682.223 2102.35 678.554 2097.92 676.025 2093.88 674.127 2089.58 672.737 2085.15 671.977 2080.72 671.977L1082.51 671.977C1078.07 671.977 1073.65 672.737 1069.6 674.127 1065.31 676.025 1061.25 678.554 1057.59 682.223 1054.3 685.511 1051.64 689.559 1049.87 693.986 1047.98 698.286 1047.34 702.713 1047.34 706.76L1047.34 1705.35Z" fill="#0055FF" transform="matrix(1 0 0 1.00025 1222.5 -341.428)"/><path d="M1313.22 1568 1400.87 1568 1400.87 1068.76 1481.82 1068.76 1356.98 844.123 1232.26 1068.76 1313.22 1068.76 1313.22 1568Z" fill="#FEFEFE" transform="matrix(1 0 0 1.00025 1222.5 -341.428)"/><path d="M1762.62 1568 1850.01 1568 1850.01 1068.76 1931.35 1068.76 1806.25 844.123 1681.28 1068.76 1762.62 1068.76 1762.62 1568Z" fill="#FEFEFE" transform="matrix(1 0 0 1.00025 1222.5 -341.428)"/><g clip-path="url(#clip0)"><g clip-path="url(#clip1)"><path d="M1.26444 1061.75C1.26444 1069.08 2.78175 1076.79 5.68995 1084.89 8.97748 1092.6 13.7823 1099.55 19.5987 1105.74 25.7945 1111.94 33.1282 1116.75 40.8412 1119.65 48.5543 1122.95 56.6466 1124.08 63.9803 1124.08L1061.88 1124.08C1069.58 1124.08 1077.29 1122.95 1084.89 1119.65 1092.6 1116.75 1099.94 1111.94 1106.12 1105.74 1112.45 1099.55 1116.75 1092.6 1120.03 1084.89 1123.07 1076.79 1124.46 1069.08 1124.46 1061.75L1124.46 63.4746C1124.46 56.1409 1123.07 48.4278 1120.03 40.4619 1116.75 32.7488 1112.45 25.4151 1106.12 19.5987 1099.94 13.2765 1092.6 8.59815 1084.89 5.5635 1077.29 2.27598 1069.58 1.26444 1061.88 1.26444L63.9803 1.26444C56.6466 1.26444 48.5543 2.27598 40.8412 5.5635 33.1282 8.59815 25.7945 13.2765 19.5987 19.5987 13.7823 25.4151 8.97748 32.7488 5.68995 40.4619 2.78175 48.4278 1.26444 56.1409 1.26444 63.4746L1.26444 1061.75Z" fill="#FFFFFF" transform="matrix(1 0 0 1.00058 2691.66 302)"/><path d="M1.26444 1061.62C1.26444 1078.18 7.96592 1093.99 19.7251 1105.74 31.4844 1117.38 47.5427 1124.08 64.1068 1124.08" stroke="#343434" stroke-width="2.52887" stroke-linejoin="round" fill="none" transform="matrix(1 0 0 1.00058 2691.66 302)"/><path d="M63.9803 1123.95 1061.75 1123.95" stroke="#343434" stroke-width="2.52887" stroke-linejoin="round" fill="none" transform="matrix(1 0 0 1.00058 2691.66 302)"/><path d="M1061.75 1124.08C1078.56 1124.08 1094.5 1117.38 1106.12 1105.74 1117.89 1093.99 1124.46 1078.18 1124.46 1061.62" stroke="#343434" stroke-width="2.52887" stroke-linejoin="round" fill="none" transform="matrix(1 0 0 1.00058 2691.66 302)"/><path d="M1124.33 1061.62 1124.33 63.4746" stroke="#343434" stroke-width="2.52887" stroke-linejoin="round" fill="none" transform="matrix(1 0 0 1.00058 2691.66 302)"/><path d="M1124.46 63.601C1124.46 47.1633 1117.89 31.2315 1106.12 19.5987 1094.5 7.83949 1078.56 1.26444 1061.75 1.26444" stroke="#343434" stroke-width="2.52887" stroke-linejoin="round" fill="none" transform="matrix(1 0 0 1.00058 2691.66 302)"/><path d="M1061.75 1.26444 63.9803 1.26444" stroke="#343434" stroke-width="2.52887" stroke-linejoin="round" fill="none" transform="matrix(1 0 0 1.00058 2691.66 302)"/><path d="M64.1068 1.26444C47.5427 1.26444 31.4844 7.83949 19.7251 19.5987 7.96592 31.2315 1.26444 47.1633 1.26444 63.601" stroke="#343434" stroke-width="2.52887" stroke-linejoin="round" fill="none" transform="matrix(1 0 0 1.00058 2691.66 302)"/><path d="M1.26444 63.4746 1.26444 1061.62" stroke="#343434" stroke-width="2.52887" stroke-linejoin="round" fill="none" transform="matrix(1 0 0 1.00058 2691.66 302)"/><path d="M28.8291 1061.75C28.8291 1065.79 29.4613 1070.22 31.3579 1074.64 33.1282 1078.94 35.7835 1082.99 39.071 1086.27 42.7379 1089.94 46.784 1092.6 51.0831 1094.37 55.1293 1095.88 59.5548 1096.51 63.9803 1096.51L1061.88 1096.51C1066.3 1096.51 1070.72 1095.88 1075.02 1094.37 1079.07 1092.6 1083.49 1089.94 1086.78 1086.27 1090.07 1082.99 1092.6 1078.94 1094.5 1074.64 1096.26 1070.22 1097.02 1065.79 1097.02 1061.75L1097.02 63.4746C1097.02 59.4284 1096.26 55.0029 1094.5 50.7037 1092.6 46.2783 1090.07 42.232 1086.78 38.9445 1083.49 35.2776 1079.07 32.7488 1075.02 30.8522 1070.72 29.4613 1066.3 28.7026 1061.88 28.7026L63.9803 28.7026C59.5548 28.7026 55.1293 29.4613 51.0831 30.8522 46.784 32.7488 42.7379 35.2776 39.071 38.9445 35.7835 42.232 33.1282 46.2783 31.3579 50.7037 29.4613 55.0029 28.8291 59.4284 28.8291 63.4746L28.8291 1061.75Z" fill="#0055FF" transform="matrix(1 0 0 1.00058 2691.66 302)"/><path d="M294.613 924.427 382.238 924.427 382.238 425.355 463.162 425.355 338.362 200.792 213.689 425.355 294.613 425.355 294.613 924.427Z" fill="#FEFEFE" transform="matrix(1 0 0 1.00058 2691.66 302)"/><path d="M743.866 924.427 831.238 924.427 831.238 425.355 912.541 425.355 787.489 200.792 662.563 425.355 743.866 425.355 743.866 924.427Z" fill="#FEFEFE" transform="matrix(1 0 0 1.00058 2691.66 302)"/></g></g><rect x="2775.5" y="334.5" width="98" height="1060" stroke="#0055FF" stroke-width="6.875" stroke-miterlimit="8" fill="#0055FF"/></g></svg>