<svg width="450" height="224" xmlns="http://www.w3.org/2000/svg" xmlns:xlink="http://www.w3.org/1999/xlink" xml:space="preserve" overflow="hidden"><defs><clipPath id="clip0"><rect x="821" y="248" width="450" height="224"/></clipPath></defs><g clip-path="url(#clip0)" transform="translate(-821 -248)"><path d="M0.376434 204.705C0.376434 206.888 0.715224 209.297 1.69395 211.556 2.55975 213.852 3.9902 216.035 5.83472 217.88 7.67925 219.762 9.74963 221.042 12.1588 222.021 14.4551 222.924 16.7513 223.338 18.897 223.338L427.516 223.338C429.699 223.338 432.108 222.924 434.404 222.021 436.701 221.042 438.846 219.762 440.729 217.88 442.46 216.035 443.891 213.852 444.756 211.556 445.735 209.297 446.074 206.888 446.074 204.705L446.074 19.0099C446.074 16.8266 445.735 14.4551 444.756 12.1588 443.891 9.86256 442.46 7.67925 440.729 5.83472 438.846 3.9902 436.701 2.67268 434.404 1.69395 432.108 0.828154 429.699 0.376434 427.516 0.376434L18.897 0.376434C16.7513 0.376434 14.4551 0.828154 12.1588 1.69395 9.74963 2.67268 7.67925 3.9902 5.83472 5.83472 3.9902 7.67925 2.55975 9.86256 1.69395 12.1588 0.715224 14.4551 0.376434 16.8266 0.376434 19.0099L0.376434 204.705Z" fill="#FFFFFF" transform="matrix(-1.00357 0 0 1 1270.78 248)"/><path d="M0.376434 204.667C0.376434 209.561 2.33389 214.379 5.83472 217.88 9.33556 221.381 14.041 223.338 18.9346 223.338" stroke="#343434" stroke-width="0.752867" stroke-linejoin="round" fill="none" transform="matrix(-1.00357 0 0 1 1270.78 248)"/><path d="M18.897 223.3 427.478 223.3" stroke="#343434" stroke-width="0.752867" stroke-linejoin="round" fill="none" transform="matrix(-1.00357 0 0 1 1270.78 248)"/><path d="M427.478 223.338C432.409 223.338 437.19 221.381 440.729 217.88 444.192 214.379 446.074 209.561 446.074 204.667" stroke="#343434" stroke-width="0.752867" stroke-linejoin="round" fill="none" transform="matrix(-1.00357 0 0 1 1270.78 248)"/><path d="M446.036 204.667 446.036 19.0099" stroke="#343434" stroke-width="0.752867" stroke-linejoin="round" fill="none" transform="matrix(-1.00357 0 0 1 1270.78 248)"/><path d="M446.074 19.0475C446.074 14.1539 444.192 9.29791 440.729 5.83472 437.19 2.33389 432.409 0.376434 427.478 0.376434" stroke="#343434" stroke-width="0.752867" stroke-linejoin="round" fill="none" transform="matrix(-1.00357 0 0 1 1270.78 248)"/><path d="M427.478 0.376434 18.897 0.376434" stroke="#343434" stroke-width="0.752867" stroke-linejoin="round" fill="none" transform="matrix(-1.00357 0 0 1 1270.78 248)"/><path d="M18.9346 0.376434C14.041 0.376434 9.33556 2.33389 5.83472 5.83472 2.33389 9.29791 0.376434 14.1539 0.376434 19.0475" stroke="#343434" stroke-width="0.752867" stroke-linejoin="round" fill="none" transform="matrix(-1.00357 0 0 1 1270.78 248)"/><path d="M0.376434 19.0099 0.376434 204.667" stroke="#343434" stroke-width="0.752867" stroke-linejoin="round" fill="none" transform="matrix(-1.00357 0 0 1 1270.78 248)"/><path d="M8.54504 204.705C8.54504 206.022 8.7709 207.302 9.33556 208.507 9.74963 209.824 10.5025 211.029 11.5942 212.12 12.5729 213.099 13.7775 213.852 15.095 214.417 16.4502 214.944 17.7677 215.169 18.9346 215.169L427.516 215.169C428.72 215.169 430.038 214.944 431.355 214.417 432.635 213.852 433.84 213.099 434.931 212.12 435.91 211.029 436.701 209.824 437.228 208.507 437.679 207.302 437.868 206.022 437.868 204.705L437.868 19.0099C437.868 17.6924 437.679 16.4125 437.228 15.2079 436.701 13.8904 435.91 12.6858 434.931 11.5942 433.84 10.6154 432.635 9.86256 431.355 9.29791 430.038 8.7709 428.72 8.54504 427.516 8.54504L18.9346 8.54504C17.7677 8.54504 16.4502 8.7709 15.095 9.29791 13.7775 9.86256 12.5729 10.6154 11.5942 11.5942 10.5025 12.6858 9.74963 13.8904 9.33556 15.2079 8.7709 16.4125 8.54504 17.6924 8.54504 19.0099L8.54504 204.705Z" fill="#0055FF" transform="matrix(-1.00357 0 0 1 1270.78 248)"/><path d="M283.906 175.907 388.517 111.951 283.906 47.8071C282.928 47.1295 281.723 46.8283 280.443 46.8283 279.013 46.9413 277.921 47.4683 276.942 48.1082 275.964 48.8987 275.211 49.9904 274.872 51.195 274.42 52.4748 274.533 53.7924 274.872 54.884L287.407 93.2426 57.9331 93.2426 57.9331 130.472 287.407 130.472 274.872 168.83C274.533 169.922 274.42 171.24 274.872 172.557 275.211 173.762 275.964 174.816 276.942 175.606 278.9 177.112 281.723 177.338 283.906 175.907Z" fill="#FEFEFE" transform="matrix(-1.00357 0 0 1 1270.78 248)"/><path d="M141.878 269.941 319.14 254.432" stroke="#808080" stroke-width="0.752867" stroke-linejoin="round" stroke-dasharray="4.81835 4.81835" fill="none" transform="matrix(-1.00357 0 0 1 1270.78 248)"/></g></svg>