<svg xmlns="http://www.w3.org/2000/svg" viewBox="0 0 307.08 307.18"><defs><style>.cls-1{fill:#fff;}.cls-1,.cls-3,.cls-4{fill-rule:evenodd;}.cls-2{fill:none;stroke:#343434;stroke-linejoin:round;stroke-width:0.48px;}.cls-3{fill:#05f;}.cls-4{fill:#010101;}</style></defs><g id="Capa_2" data-name="Capa 2"><g id="Capa_1-2" data-name="Capa 1"><path class="cls-1" d="M.24,289.84a17.44,17.44,0,0,0,1.1,6.3,20.07,20.07,0,0,0,3.8,5.8,18.2,18.2,0,0,0,5.8,3.8,18,18,0,0,0,6.3,1.2h272.6a17.47,17.47,0,0,0,6.2-1.2,18.2,18.2,0,0,0,5.8-3.8,16.67,16.67,0,0,0,3.8-5.8,17.59,17.59,0,0,0,1.2-6.3V17.34a18,18,0,0,0-1.2-6.3,16.67,16.67,0,0,0-3.8-5.8,18.2,18.2,0,0,0-5.8-3.8,17.47,17.47,0,0,0-6.2-1.2H17.24a18,18,0,0,0-6.3,1.2,18.2,18.2,0,0,0-5.8,3.8A20.07,20.07,0,0,0,1.34,11a17.82,17.82,0,0,0-1.1,6.3v272.5"/><path class="cls-2" d="M.24,289.84a16.92,16.92,0,0,0,4.9,12.1,17.19,17.19,0,0,0,12.1,5"/><line class="cls-2" x1="17.24" y1="306.94" x2="289.84" y2="306.94"/><path class="cls-2" d="M289.84,306.94a17.07,17.07,0,0,0,17-17.1"/><line class="cls-2" x1="306.84" y1="289.84" x2="306.84" y2="17.34"/><path class="cls-2" d="M306.84,17.34a17.19,17.19,0,0,0-5-12.1,17,17,0,0,0-12-5"/><line class="cls-2" x1="289.84" y1="0.24" x2="17.24" y2="0.24"/><path class="cls-2" d="M17.24.24a17.19,17.19,0,0,0-12.1,5,17.09,17.09,0,0,0-4.9,12.1"/><line class="cls-2" x1="0.24" y1="17.34" x2="0.24" y2="289.84"/><path class="cls-3" d="M7.64,289.84a11.49,11.49,0,0,0,.7,3.6,11.08,11.08,0,0,0,2.1,3.2,11.55,11.55,0,0,0,3.3,2.1,9.1,9.1,0,0,0,3.5.7h272.6a9.1,9.1,0,0,0,3.5-.7,9.88,9.88,0,0,0,3.2-2.1,9.35,9.35,0,0,0,2.1-3.2,9.22,9.22,0,0,0,.7-3.6V17.34a8.42,8.42,0,0,0-.7-3.5,9.73,9.73,0,0,0-2.1-3.3,9.88,9.88,0,0,0-3.2-2.1,9.1,9.1,0,0,0-3.5-.7H17.24a9.1,9.1,0,0,0-3.5.7,11.55,11.55,0,0,0-3.3,2.1,11.55,11.55,0,0,0-2.1,3.3,10.39,10.39,0,0,0-.7,3.5v272.5"/><polyline class="cls-1" points="153.54 7.74 299.34 262.64 7.64 262.64 153.54 7.74"/><polyline class="cls-4" points="32.64 253.14 49.54 253.14 69.44 201.04 55.64 201.04 32.64 253.14"/><polyline class="cls-4" points="64.84 253.14 81.64 253.14 95.44 201.04 81.64 201.04 64.84 253.14"/><polyline class="cls-4" points="225.64 253.14 242.54 253.14 225.64 201.04 211.84 201.04 225.64 253.14"/><polyline class="cls-4" points="257.84 253.14 274.74 253.14 251.74 201.04 237.94 201.04 257.84 253.14"/><path class="cls-4" d="M114.84,246.24a26.64,26.64,0,0,1-6.9-.3,26.12,26.12,0,0,1-6.6-2.4L112,201h-4.3L97,253.14h16.8l1-6.9"/><path class="cls-4" d="M130.44,238.54l-1.3,14.6H146l1.5-52.1h-5l-.3.4-6.4,27.4a24.49,24.49,0,0,1-5.4,9.7"/><polyline class="cls-4" points="160.04 209.04 161.34 253.14 178.14 253.14 176.14 230.24 160.04 209.04"/><path class="cls-4" d="M199.34,213.64a20.49,20.49,0,0,1,1.9,3.6,25.76,25.76,0,0,1,1.2,4.2,22.78,22.78,0,0,1-.2,9,22.2,22.2,0,0,1-3.9,8.2,14.75,14.75,0,0,1-2.9,3.2,24.28,24.28,0,0,1-3.2,2.4l1.3,8.9h16.8L199.64,201h-9.8l9.5,12.6"/><path class="cls-4" d="M107.24,240.64a19.08,19.08,0,0,0,14.6-1.6,18.71,18.71,0,0,0,9.2-11.4l6.6-27.9,11.4-21.8a2.67,2.67,0,0,1,4.7,0l7.7,24.9,28.3,37.2a17.07,17.07,0,0,0,7.6-10.7,16.77,16.77,0,0,0-2.1-12.9L179.14,195l-9.9-40.3.9-37.2,15.8,11.9v23a2.3,2.3,0,0,0,.9,1.9,4.87,4.87,0,0,0,1.1.4,2.51,2.51,0,0,0,1-.2l5.3-2.4a7.35,7.35,0,0,0,3.9-6.2l.8-25.7-34.4-29.7a7.57,7.57,0,0,0-4.4-2.1,8.52,8.52,0,0,0-4.9,1.2l-17,9.3-41.2,55a1.67,1.67,0,0,0-.2,2,1.78,1.78,0,0,0,.7.8,2,2,0,0,0,1.1.3h5.2a5.51,5.51,0,0,0,4-1.6l27.5-27.5,2.9,26.8-18,34.1-13,51.8"/><path class="cls-4" d="M149,88a15.91,15.91,0,0,0,6-1.1,17.08,17.08,0,0,0,5.6-3.7,16.42,16.42,0,0,0,0-23,16.68,16.68,0,0,0-11.6-4.8,16.86,16.86,0,0,0-6,1.2,16.33,16.33,0,0,0-5.5,26.6A16.2,16.2,0,0,0,149,88"/></g></g></svg>