<?xml version="1.0" encoding="UTF-8" standalone="no"?>
<svg
   viewBox="0 0 307.70003 460.9"
   version="1.1"
   id="svg50"
   sodipodi:docname="Spain_traffic_signal_s13,_2023_set.svg"
   inkscape:version="1.1.2 (b8e25be833, 2022-02-05)"
   width="307.70001"
   height="460.89999"
   xmlns:inkscape="http://www.inkscape.org/namespaces/inkscape"
   xmlns:sodipodi="http://sodipodi.sourceforge.net/DTD/sodipodi-0.dtd"
   xmlns="http://www.w3.org/2000/svg"
   xmlns:svg="http://www.w3.org/2000/svg">
  <sodipodi:namedview
     id="namedview52"
     pagecolor="#ffffff"
     bordercolor="#666666"
     borderopacity="1.0"
     inkscape:pageshadow="2"
     inkscape:pageopacity="0.0"
     inkscape:pagecheckerboard="0"
     showgrid="false"
     inkscape:object-paths="false"
     inkscape:snap-smooth-nodes="false"
     inkscape:snap-intersection-paths="false"
     inkscape:snap-bbox="false"
     inkscape:snap-bbox-edge-midpoints="false"
     inkscape:bbox-nodes="false"
     showguides="true"
     inkscape:guide-bbox="true"
     inkscape:zoom="1.4142136"
     inkscape:cx="209.65716"
     inkscape:cy="254.20488"
     inkscape:window-width="1920"
     inkscape:window-height="1001"
     inkscape:window-x="-9"
     inkscape:window-y="-9"
     inkscape:window-maximized="1"
     inkscape:current-layer="Capa_1-2"
     height="460.9px" />
  <defs
     id="defs4">
    <style
       id="style2">.cls-1{fill:#fff;}.cls-1,.cls-3,.cls-4{fill-rule:evenodd;}.cls-2{fill:none;stroke:#343434;stroke-linejoin:round;stroke-width:0.48px;}.cls-3{fill:#05f;}.cls-4{fill:#010101;}</style>
  </defs>
  <g
     id="Capa_2"
     data-name="Capa 2">
    <g
       id="Capa_1-2"
       data-name="Capa 1">
      <path
         d="m 0.5,443.39999 c 0,2 0.39998,4.19999 1.2,6.3 0.9,2.1 2.19998,4.1 3.80003,5.7 1.69995,1.69999 3.69997,3 5.79997,3.8 2.1,0.89999 4.29998,1.2 6.3,1.2 h 272.49998 c 2.1,0 4.2,-0.30001 6.3,-1.2 2.1,-0.8 4.1,-2.10001 5.8,-3.8 1.7,-1.60001 2.9,-3.60001 3.8,-5.7 0.8,-2.10001 1.2,-4.3 1.2,-6.3 V 17.500024 c 0,-2.000025 -0.4,-4.100025 -1.2,-6.299999 -0.9,-2.1 -2.1,-4.100025 -3.8,-5.7 -1.7,-1.700025 -3.7,-3 -5.8,-3.800025 -2.1,-0.9 -4.2,-1.2 -6.3,-1.2 H 17.6 C 15.59998,0.5 13.4,0.8 11.3,1.7 9.2,2.500025 7.19998,3.8 5.50003,5.500025 3.89998,7.1 2.6,9.100025 1.7,11.200025 0.89998,13.399999 0.5,15.499999 0.5,17.500024 V 443.39999"
         style="fill:#ffffff;fill-opacity:1;fill-rule:evenodd;stroke:none;stroke-width:0.999997"
         id="path24-6"
         inkscape:label="path44" />
      <path
         d="m 0.5,443.39999 c 0,2 0.39998,4.19999 1.2,6.3 0.9,2.1 2.19998,4.1 3.80003,5.7 1.69995,1.69999 3.69997,3 5.79997,3.8 2.1,0.89999 4.29998,1.2 6.3,1.2 h 272.49998 c 2.1,0 4.2,-0.30001 6.3,-1.2 2.1,-0.8 4.1,-2.10001 5.8,-3.8 1.7,-1.60001 2.9,-3.60001 3.8,-5.7 0.8,-2.10001 1.2,-4.3 1.2,-6.3 V 17.500024 c 0,-2.000025 -0.4,-4.100025 -1.2,-6.299999 -0.9,-2.1 -2.1,-4.100025 -3.8,-5.7 -1.7,-1.700025 -3.7,-3 -5.8,-3.800025 -2.1,-0.9 -4.2,-1.2 -6.3,-1.2 H 17.6 C 15.59998,0.5 13.4,0.8 11.3,1.7 9.2,2.500025 7.19998,3.8 5.50003,5.500025 3.89998,7.1 2.6,9.100025 1.7,11.200025 0.89998,13.399999 0.5,15.499999 0.5,17.500024 V 443.39999"
         style="fill:none;fill-opacity:1;fill-rule:evenodd;stroke:#000000;stroke-width:1;stroke-miterlimit:4;stroke-dasharray:none;stroke-opacity:1"
         id="path24-6-2"
         inkscape:label="path48" />
      <path
         d="m 8,443.39999 c 0,1.1 0.20003,2.3 0.69998,3.5 0.50002,1.19999 1.2,2.3 2.1,3.19999 1.00005,1 2.1,1.7 3.3,2.2 1.10002,0.4 2.30002,0.60001 3.50002,0.60001 h 272.49998 c 1.2,0 2.4,-0.2 3.6,-0.60001 1.1,-0.5 2.3,-1.2 3.2,-2.2 0.9,-0.89999 1.6,-2 2.1,-3.19999 0.5,-1.2 0.7,-2.4 0.7,-3.5 V 17.500024 c 0,-1.100025 -0.2,-2.300025 -0.7,-3.500025 -0.5,-1.2 -1.2,-2.300024 -2.1,-3.200024 -0.9,-0.999975 -2.1,-1.69995 -3.2,-2.199975 -1.2,-0.399975 -2.4,-0.6 -3.6,-0.6 H 17.6 c -1.2,0 -2.4,0.200025 -3.50002,0.6 -1.2,0.500025 -2.29995,1.2 -3.3,2.199975 -0.9,0.9 -1.59998,2.000024 -2.1,3.200024 C 8.20003,15.199999 8,16.399999 8,17.500024 V 443.39999"
         style="display:inline;fill:#0055ff;fill-opacity:1;fill-rule:evenodd;stroke:none;stroke-width:0.999997"
         id="path60"
         inkscape:label="path52" />
      <path
         d="m 44.8,372.49999 h 47.7 v -27.2 h 47.7 V 318 h 47.69999 v -27.2 h 75 V 318 h -47.7 v 27.29999 H 167.5 v 27.2 h -47.7 v 27.3 h -75 v -27.3"
         style="fill:#ffffff;fill-opacity:1;fill-rule:evenodd;stroke:none;stroke-width:0.999997"
         id="path64-0"
         inkscape:label="path56" />
      <path
         d="m 150.99999,67.10001 c -5.1,-5.2 -12.1,-8 -19.3,-8 -7.2,0 -14.1,2.8 -19.29999,8 -5.1,5.1 -7.9,12 -7.9,19.2 0,7.3 2.8,14.19999 7.9,19.29999 5.19999,5.1 12.09999,8.00001 19.29999,8.00001 7.2,0 14.2,-2.90001 19.3,-8.00001 5.1,-5.1 8,-11.99999 8,-19.29999 0,-7.2 -2.9,-14.1 -8,-19.2 z"
         style="fill:#ffffff;fill-opacity:1;fill-rule:evenodd;stroke:none;stroke-width:0.999997"
         id="path68-2"
         sodipodi:nodetypes="cssscsscc"
         inkscape:label="path60" />
      <path
         d="m 121.3,333.2 c 4.5,-4.5 7,-10.6 7,-16.9 v -90.29999 h 1.7 l 3.4,23.89999 40.89999,63 c 4.7,-2.9 8.1,-7.6 9.4,-13.1 1.3,-5.4 0.4,-11.1 -2.6,-15.9 L 153.9,238.00001 v -85.2 l 23.8,20.4 v 37.5 c 2.49999,1.39999 5.39999,2.19999 8.39999,2.49999 2.9,0.3 5.9,0 8.6,-0.8 v -49.39999 l -42.49999,-35.8 c -1.7,-1.4 -3.6,-2.8 -5.7,-4 -2.1,-1.2 -4.4,-2.2 -6.9,-2.9 -2.5,-0.8 -5.1,-1.3 -7.8,-1.5 -2.6,-0.2 -5.3,-0.1 -8,0.4 -2.7,0.4 -5.3,1.1 -7.8,2.2 -2.5,1 -4.8,2.3 -6.9,3.8 -2.1,1.5 -4,3.2 -5.6,4.9 -1.6,1.8 -3,3.7 -4.2,5.6 l -51.09999,75 C 52.8,213.40001 58.2,214.2 63.3,212.9 c 5.1,-1.2 9.5,-4.5 12.2,-9 l 29,-44.29999 V 340.2 c 6.3,0 12.4,-2.5 16.8,-7 z"
         style="fill:#ffffff;fill-opacity:1;fill-rule:evenodd;stroke:none;stroke-width:0.999997"
         id="path72-7"
         sodipodi:nodetypes="csccccccccccccccsccccscccccccc"
         inkscape:label="path64" />
    </g>
  </g>
</svg>
