<svg width="336" height="504" xmlns="http://www.w3.org/2000/svg" xmlns:xlink="http://www.w3.org/1999/xlink" xml:space="preserve" overflow="hidden"><defs><clipPath id="clip0"><rect x="71" y="108" width="336" height="504"/></clipPath></defs><g clip-path="url(#clip0)" transform="translate(-71 -108)"><path d="M0.377453 484.536C0.377453 486.725 0.830396 489.141 1.69854 491.406 2.67991 493.708 4.11423 495.897 5.85052 497.634 7.70004 499.521 9.88926 500.918 12.1917 501.823 14.4942 502.805 16.9099 503.107 19.0991 503.107L316.985 503.107C319.287 503.107 321.59 502.805 323.854 501.823 326.157 500.918 328.346 499.521 330.196 497.634 332.083 495.897 333.366 493.708 334.348 491.406 335.254 489.141 335.669 486.725 335.669 484.536L335.669 18.9481C335.669 16.7589 335.254 14.4942 334.348 12.0785 333.366 9.77603 332.083 7.5868 330.196 5.85052 328.346 4.001 326.157 2.56668 323.854 1.69854 321.59 0.71716 319.287 0.377453 316.985 0.377453L19.0991 0.377453C16.9099 0.377453 14.4942 0.71716 12.1917 1.69854 9.88926 2.56668 7.70004 4.001 5.85052 5.85052 4.11423 7.5868 2.67991 9.77603 1.69854 12.0785 0.830396 14.4942 0.377453 16.7589 0.377453 18.9481L0.377453 484.536Z" fill="#FFFFFF" transform="matrix(1.0002 0 0 1 71 108.506)"/><path d="M0.377453 484.498C0.377453 489.405 2.37795 494.237 5.88826 497.596 9.39857 501.106 14.1922 503.107 19.1369 503.107" stroke="#343434" stroke-width="0.754905" stroke-linejoin="round" fill="none" transform="matrix(1.0002 0 0 1 71 108.506)"/><path d="M19.0991 503.069 316.947 503.069" stroke="#343434" stroke-width="0.754905" stroke-linejoin="round" fill="none" transform="matrix(1.0002 0 0 1 71 108.506)"/><path d="M316.947 503.107C321.967 503.107 326.723 501.106 330.196 497.596 333.706 494.237 335.669 489.405 335.669 484.498" stroke="#343434" stroke-width="0.754905" stroke-linejoin="round" fill="none" transform="matrix(1.0002 0 0 1 71 108.506)"/><path d="M335.631 484.498 335.631 18.9481" stroke="#343434" stroke-width="0.754905" stroke-linejoin="round" fill="none" transform="matrix(1.0002 0 0 1 71 108.506)"/><path d="M335.669 18.9859C335.669 14.0412 333.706 9.32308 330.196 5.85052 326.723 2.34021 321.967 0.377453 316.947 0.377453" stroke="#343434" stroke-width="0.754905" stroke-linejoin="round" fill="none" transform="matrix(1.0002 0 0 1 71 108.506)"/><path d="M316.947 0.377453 19.0991 0.377453" stroke="#343434" stroke-width="0.754905" stroke-linejoin="round" fill="none" transform="matrix(1.0002 0 0 1 71 108.506)"/><path d="M19.1369 0.377453C14.1922 0.377453 9.39857 2.34021 5.88826 5.85052 2.37795 9.32308 0.377453 14.0412 0.377453 18.9859" stroke="#343434" stroke-width="0.754905" stroke-linejoin="round" fill="none" transform="matrix(1.0002 0 0 1 71 108.506)"/><path d="M0.377453 18.9481 0.377453 484.498" stroke="#343434" stroke-width="0.754905" stroke-linejoin="round" fill="none" transform="matrix(1.0002 0 0 1 71 108.506)"/><path d="M8.60592 484.536C8.60592 485.744 8.79465 487.065 9.36083 488.348 9.88926 489.669 10.6819 490.877 11.6633 491.859 12.7579 492.953 13.9658 493.708 15.2491 494.274 16.4569 494.69 17.778 494.916 19.0991 494.916L316.985 494.916C318.306 494.916 319.627 494.69 320.91 494.274 322.118 493.708 323.439 492.953 324.421 491.859 325.402 490.877 326.157 489.669 326.723 488.348 327.252 487.065 327.478 485.744 327.478 484.536L327.478 18.9481C327.478 17.7403 327.252 16.4569 326.723 15.1359 326.157 13.8148 325.402 12.6069 324.421 11.6255 323.439 10.5309 322.118 9.77603 320.91 9.24759 319.627 8.79465 318.306 8.56818 316.985 8.56818L19.0991 8.56818C17.778 8.56818 16.4569 8.79465 15.2491 9.24759 13.9658 9.77603 12.7579 10.5309 11.6633 11.6255 10.6819 12.6069 9.88926 13.8148 9.36083 15.1359 8.79465 16.4569 8.60592 17.7403 8.60592 18.9481L8.60592 484.536Z" fill="#0055FF" transform="matrix(1.0002 0 0 1 71 108.506)"/><path d="M172.798 325.704 174.459 316.419 46.6154 252.554 46.6154 262.594 101.006 289.846 155.209 316.985 172.798 325.704Z" fill="#FEFEFE" transform="matrix(1.0002 0 0 1 71 108.506)"/><path d="M253.082 120.596C252.742 114.897 250.138 109.386 245.873 105.574 241.494 101.724 235.908 99.7608 230.133 100.1 224.32 100.44 218.885 103.045 215.035 107.31 211.223 111.688 209.222 117.312 209.524 123.087 209.864 128.9 212.544 134.335 216.771 138.185 221.15 141.998 226.849 143.96 232.624 143.659 238.324 143.319 243.797 140.677 247.609 136.411 251.421 132.071 253.422 126.371 253.082 120.596Z" fill="#FEFEFE" transform="matrix(1.0002 0 0 1 71 108.506)"/><path d="M232.398 355.56 231.718 345.067 196.615 327.516 194.841 336.726 209.486 344.086 232.398 355.56Z" fill="#FEFEFE" transform="matrix(1.0002 0 0 1 71 108.506)"/><path d="M307.813 393.268 307.813 383.077 260.329 359.335 259.876 369.3 263.726 371.263 307.813 393.268Z" fill="#FEFEFE" transform="matrix(1.0002 0 0 1 71 108.506)"/><path d="M164.079 322.269 126.258 322.269 109.801 322.269 109.801 295.055 82.6999 295.055 55.4856 295.055 55.4856 267.954 28.3844 267.954 28.3844 295.055 28.3844 322.269 82.6999 322.269 82.6999 349.408 136.94 349.408 136.94 376.509 191.293 376.509 191.293 403.761 272.71 403.761 272.71 376.509 218.394 376.509 218.394 349.408 212.695 349.408 164.079 349.408 164.079 322.269Z" fill="#FEFEFE" transform="matrix(1.0002 0 0 1 71 108.506)"/><path d="M274.899 231.718 254.101 142.035 220.093 149.924 196.049 175.176 170.911 173.062C169.288 172.76 167.627 173.062 166.117 173.968 164.569 174.949 163.475 176.233 163.06 177.78 162.493 179.328 162.493 181.064 163.06 182.574 163.588 184.235 164.796 185.556 166.23 186.311L202.503 191.331 215.526 180.422 225.453 228.85 183.14 275.201 172.232 340.349C174.949 340.123 177.893 339.481 180.762 338.273 183.593 337.065 186.235 335.329 188.5 333.14 190.916 330.951 192.765 328.459 194.086 325.591 195.521 322.873 196.389 320.042 196.728 317.174L202.277 287.883 233.87 264.406 234.964 367.563C237.72 367.375 240.437 366.695 243.042 365.601 245.797 364.506 248.288 362.996 250.478 361.034 252.78 359.033 254.63 356.768 256.177 354.239 257.612 351.71 258.631 349.106 259.159 346.464L262.669 270.067C268.029 257.725 272.068 244.816 274.899 231.718Z" fill="#FEFEFE" transform="matrix(1.0002 0 0 1 71 108.506)"/><path d="M165.136 189.934C164.154 189.519 163.248 188.953 162.38 188.198 161.625 187.443 160.984 186.688 160.417 185.707L141.847 198.691C140.865 197.257 139.658 195.973 138.45 194.652 137.242 193.331 135.845 192.123 134.411 190.953 131.467 188.538 128.183 186.348 124.446 184.499 120.747 182.725 116.708 181.328 112.443 180.498 108.178 179.743 103.686 179.517 99.3078 179.856 94.8539 180.309 90.5887 181.328 86.5122 182.838 82.3602 184.386 78.6612 186.348 75.2641 188.764 71.9802 191.142 69.0361 193.897 66.6204 196.842 65.4503 198.276 64.3557 199.673 63.2611 201.22 62.2797 202.73 61.3738 204.277 60.6189 205.674 59.2978 208.316 58.3164 210.921 57.4483 213.902 56.5802 216.847 56.014 219.904 55.712 222.961 55.1458 229.416 55.9385 235.983 58.0145 242.325 60.2037 248.666 63.4498 254.328 67.715 259.159 69.9043 261.424 72.2067 263.613 74.6224 265.387 77.0381 267.237 79.5293 268.746 82.0582 269.954 84.5494 271.275 87.3048 272.37 90.249 273.238 93.0798 273.993 96.1372 274.672 99.3078 274.899 105.649 275.427 112.33 274.786 118.671 272.596 125.012 270.52 130.674 267.123 135.392 262.858 137.808 260.782 139.884 258.48 141.734 256.064 143.583 253.573 145.131 251.157 146.338 248.553 149.471 242.211 151.132 235.191 151.132 228.095 151.132 220.999 149.471 214.016 146.225 207.561L158.002 199.371 185.594 267.01 192.916 258.933 167.249 195.86 220.357 222.433 217.828 210.166 182.196 192.35 165.136 189.934ZM137.921 212.015C139.431 215.412 140.412 219.036 140.865 222.961 141.394 226.774 141.167 230.737 140.412 234.662 139.658 238.588 138.223 242.325 136.374 245.797 134.411 249.194 132.108 252.138 129.504 254.667 126.862 257.159 123.691 259.348 120.294 261.122 116.822 262.858 112.972 264.066 109.046 264.708 105.007 265.274 101.082 265.274 97.2318 264.594 93.3063 263.953 89.796 262.745 86.5122 261.122 84.5494 260.14 82.4734 258.933 80.6239 257.385 78.7744 255.988 76.9249 254.328 75.2641 252.478 71.867 248.666 69.1493 244.174 67.5263 239.154 65.8655 234.096 65.3371 228.963 65.7523 223.829 65.9787 221.414 66.4317 218.923 67.0734 216.62 67.715 214.318 68.6209 212.242 69.6023 210.166 70.7724 207.863 72.2067 205.485 74.0562 203.07 75.9435 200.767 78.095 198.578 80.7371 196.728 83.3416 194.766 86.2102 193.105 89.3808 191.821 92.5514 190.5 95.9107 189.745 99.4211 189.293 102.931 188.953 106.328 189.066 109.688 189.745 113.085 190.274 116.255 191.255 119.2 192.69 122.181 194.011 124.786 195.747 127.088 197.597 129.391 199.446 131.24 201.522 132.863 203.598L106.102 219.564C103.913 219.036 101.724 219.262 99.7608 220.244 97.798 221.225 96.2505 222.735 95.3823 224.811 94.5142 226.774 94.4009 229.076 95.0426 231.152 95.722 233.228 97.1186 235.002 99.0059 236.097 101.837 237.946 105.536 237.833 108.404 235.983 109.688 235.078 110.782 233.907 111.462 232.247 112.217 230.737 112.443 228.963 112.103 227.453L137.921 212.015Z" fill="#FEFEFE" transform="matrix(1.0002 0 0 1 71 108.506)"/><path d="M191.406 159.738C189.632 159.323 187.67 159.096 185.707 159.21 183.631 159.398 181.668 159.964 179.818 160.87 177.931 161.852 176.27 163.06 174.836 164.607 173.553 166.117 172.571 167.778 171.779 169.401L183.518 170.382 183.857 168.872 187.556 170.722 194.69 171.364 200.994 164.607 191.406 159.738Z" fill="#FEFEFE" transform="matrix(1.0002 0 0 1 71 108.506)"/><path d="M260.216 354.579C264.594 354.768 269.086 354.466 273.653 353.371 278.258 352.277 282.674 350.54 286.826 348.125 290.978 345.709 294.677 342.765 297.848 339.255 301.019 335.895 303.547 332.045 305.51 328.233 307.058 325.289 308.228 322.231 309.134 318.721 310.002 315.324 310.53 311.738 310.644 307.888 310.757 304.189 310.417 300.226 309.549 296.3 308.794 292.488 307.36 288.638 305.51 285.052 303.774 281.429 301.471 278.145 298.829 275.088 296.225 272.106 293.281 269.615 290.11 267.425 287.053 265.236 283.769 263.575 280.447 262.292 277.164 260.971 273.88 260.103 270.709 259.65 269.501 262.82 268.293 265.991 267.01 269.048 269.615 269.388 272.257 269.916 274.974 270.785 277.692 271.69 280.447 272.861 283.09 274.559 285.732 276.182 288.223 278.258 290.525 280.561 292.715 282.976 294.677 285.694 296.338 288.563 297.848 291.507 299.056 294.564 299.811 297.848 300.603 301.019 300.792 304.189 300.792 307.247 300.717 310.417 300.264 313.361 299.509 316.079 298.829 318.834 297.735 321.439 296.565 323.741 295.13 326.685 293.168 329.554 290.865 332.158 288.449 334.687 285.732 337.065 282.788 338.953 279.692 340.802 276.409 342.199 273.012 343.218 269.615 344.199 266.217 344.614 262.934 344.614L262.858 347.03C262.292 349.634 261.424 352.163 260.216 354.579Z" fill="#FEFEFE" transform="matrix(1.0002 0 0 1 71 108.506)"/><path d="M228.85 272.785C227.642 274.068 226.547 275.39 225.453 276.824 224.471 278.22 223.603 279.768 222.735 281.278L219.564 279.655 210.694 286.222 218.47 290.148C216.696 294.3 215.526 298.905 214.959 303.812 214.544 308.719 214.846 313.663 216.054 318.57 217.262 323.477 219.111 328.195 221.753 332.347 223.037 334.461 224.471 336.31 226.019 338.16 227.642 339.934 229.303 341.557 231.077 343.105L230.85 327.969C229.303 325.666 227.868 323.062 226.887 320.306 225.792 317.589 225.113 314.645 224.811 311.7 224.471 308.719 224.471 305.661 224.924 302.717 225.226 299.886 226.019 297.018 227 294.413L230.473 296.149 230.171 271.69 228.85 272.785Z" fill="#FEFEFE" transform="matrix(1.0002 0 0 1 71 108.506)"/><path d="M84.5872 506.844 286.487 506.844 286.487 519.186 84.5872 519.186 84.5872 506.844Z" stroke="#010101" stroke-width="0.754905" stroke-linejoin="round" fill="none" transform="matrix(1.0002 0 0 1 71 108.506)"/></g></svg>