<svg width="336" height="504" xmlns="http://www.w3.org/2000/svg" xmlns:xlink="http://www.w3.org/1999/xlink" xml:space="preserve" overflow="hidden"><defs><clipPath id="clip0"><rect x="872" y="108" width="336" height="504"/></clipPath></defs><g clip-path="url(#clip0)" transform="translate(-872 -108)"><path d="M0.377453 484.536C0.377453 486.725 0.830396 489.141 1.69854 491.406 2.67991 493.708 4.11423 495.897 5.85052 497.634 7.70003 499.521 9.88926 500.917 12.1917 501.823 14.4942 502.805 16.9099 503.107 19.0991 503.107L316.985 503.107C319.287 503.107 321.59 502.805 323.854 501.823 326.157 500.917 328.346 499.521 330.196 497.634 332.083 495.897 333.366 493.708 334.348 491.406 335.253 489.141 335.669 486.725 335.669 484.536L335.669 18.9481C335.669 16.7589 335.253 14.4942 334.348 12.0785 333.366 9.77602 332.083 7.5868 330.196 5.85052 328.346 4.001 326.157 2.56668 323.854 1.69854 321.59 0.71716 319.287 0.377453 316.985 0.377453L19.0991 0.377453C16.9099 0.377453 14.4942 0.71716 12.1917 1.69854 9.88926 2.56668 7.70003 4.001 5.85052 5.85052 4.11423 7.5868 2.67991 9.77602 1.69854 12.0785 0.830396 14.4942 0.377453 16.7589 0.377453 18.9481L0.377453 484.536Z" fill="#FFFFFF" transform="matrix(1.0002 0 0 1 872 108.067)"/><path d="M0.377453 484.498C0.377453 489.405 2.37795 494.236 5.88826 497.596 9.39857 501.106 14.1922 503.107 19.1368 503.107" stroke="#343434" stroke-width="0.754905" stroke-linejoin="round" fill="none" transform="matrix(1.0002 0 0 1 872 108.067)"/><path d="M19.0991 503.069 316.947 503.069" stroke="#343434" stroke-width="0.754905" stroke-linejoin="round" fill="none" transform="matrix(1.0002 0 0 1 872 108.067)"/><path d="M316.947 503.107C321.967 503.107 326.723 501.106 330.196 497.596 333.706 494.236 335.669 489.405 335.669 484.498" stroke="#343434" stroke-width="0.754905" stroke-linejoin="round" fill="none" transform="matrix(1.0002 0 0 1 872 108.067)"/><path d="M335.631 484.498 335.631 18.9481" stroke="#343434" stroke-width="0.754905" stroke-linejoin="round" fill="none" transform="matrix(1.0002 0 0 1 872 108.067)"/><path d="M335.669 18.9859C335.669 14.0412 333.706 9.32308 330.196 5.85052 326.723 2.34021 321.967 0.377453 316.947 0.377453" stroke="#343434" stroke-width="0.754905" stroke-linejoin="round" fill="none" transform="matrix(1.0002 0 0 1 872 108.067)"/><path d="M316.947 0.377453 19.0991 0.377453" stroke="#343434" stroke-width="0.754905" stroke-linejoin="round" fill="none" transform="matrix(1.0002 0 0 1 872 108.067)"/><path d="M19.1368 0.377453C14.1922 0.377453 9.39857 2.34021 5.88826 5.85052 2.37795 9.32308 0.377453 14.0412 0.377453 18.9859" stroke="#343434" stroke-width="0.754905" stroke-linejoin="round" fill="none" transform="matrix(1.0002 0 0 1 872 108.067)"/><path d="M0.377453 18.9481 0.377453 484.498" stroke="#343434" stroke-width="0.754905" stroke-linejoin="round" fill="none" transform="matrix(1.0002 0 0 1 872 108.067)"/><path d="M8.60592 484.536C8.60592 485.744 8.79465 487.065 9.36082 488.348 9.88926 489.669 10.6819 490.877 11.6633 491.858 12.7579 492.953 13.9657 493.708 15.2491 494.274 16.4569 494.689 17.778 494.916 19.0991 494.916L316.985 494.916C318.306 494.916 319.627 494.689 320.91 494.274 322.118 493.708 323.439 492.953 324.421 491.858 325.402 490.877 326.157 489.669 326.723 488.348 327.251 487.065 327.478 485.744 327.478 484.536L327.478 18.9481C327.478 17.7403 327.251 16.4569 326.723 15.1358 326.157 13.8148 325.402 12.6069 324.421 11.6255 323.439 10.5309 322.118 9.77602 320.91 9.24759 319.627 8.79465 318.306 8.56817 316.985 8.56817L19.0991 8.56817C17.778 8.56817 16.4569 8.79465 15.2491 9.24759 13.9657 9.77602 12.7579 10.5309 11.6633 11.6255 10.6819 12.6069 9.88926 13.8148 9.36082 15.1358 8.79465 16.4569 8.60592 17.7403 8.60592 18.9481L8.60592 484.536Z" fill="#0055FF" transform="matrix(1.0002 0 0 1 872 108.067)"/><path d="M173.666 94.1744C173.666 86.2857 170.533 78.7366 164.947 73.1881 159.36 67.4885 151.698 64.4312 143.847 64.4312 135.921 64.4312 128.409 67.4885 122.71 73.1881 117.124 78.7366 114.066 86.2857 114.066 94.1744 114.066 102.139 117.124 109.725 122.71 115.312 128.409 120.86 135.921 124.031 143.847 124.031 151.698 124.031 159.36 120.86 164.947 115.312 170.533 109.725 173.666 102.139 173.666 94.1744Z" fill="#FFFFFF" transform="matrix(1.0002 0 0 1 872 108.067)"/><path d="M114.066 371.715C120.974 371.715 127.617 368.998 132.448 364.091 137.355 359.146 140.073 352.503 140.073 345.596L140.073 246.854 141.96 246.854 145.659 273.011 190.425 341.897C195.558 338.726 199.257 333.593 200.692 327.553 202.088 321.665 201.107 315.437 197.823 310.191L168.117 259.989 168.117 166.834 194.124 189.141 194.124 230.133C196.842 231.68 200.012 232.549 203.296 232.888 206.467 233.19 209.75 232.888 212.695 231.982L212.695 178.007 166.268 138.865C164.381 137.355 162.305 135.807 160.04 134.486 157.737 133.165 155.209 132.108 152.453 131.316 149.698 130.448 146.867 129.919 143.923 129.693 141.092 129.466 138.11 129.579 135.166 130.108 132.222 130.561 129.391 131.316 126.635 132.524 123.918 133.618 121.389 135.053 119.086 136.676 116.822 138.336 114.746 140.186 112.972 142.035 111.235 143.998 109.688 146.074 108.404 148.15L52.5414 230.133C57.5615 233.077 63.4498 233.983 69.0361 232.549 74.6224 231.227 79.416 227.642 82.3602 222.697L114.066 174.27 114.066 371.715Z" fill="#FFFFFF" transform="matrix(1.0002 0 0 1 872 108.067)"/><path d="M37.6698 436.864 298.301 306.341 298.301 436.864 37.6698 436.864Z" fill="#FEFEFE" transform="matrix(1.0002 0 0 1 872 108.067)"/><text font-family="Times New Roman,Times New Roman_MSFontService,sans-serif" font-weight="400" font-size="296" transform="matrix(0.0377528 0 0 0.0377453 1008.25 647)">cotas en mm</text></g></svg>