<svg width="336" height="504" xmlns="http://www.w3.org/2000/svg" xmlns:xlink="http://www.w3.org/1999/xlink" xml:space="preserve" overflow="hidden"><defs><clipPath id="clip0"><rect x="472" y="108" width="336" height="504"/></clipPath></defs><g clip-path="url(#clip0)" transform="translate(-472 -108)"><path d="M0.377456 484.54C0.377456 486.729 0.830402 489.145 1.69855 491.409 2.67993 493.712 4.11426 495.901 5.85056 497.637 7.70009 499.525 9.88933 500.921 12.1918 501.827 14.4943 502.808 16.91 503.11 19.0992 503.11L316.987 503.11C319.29 503.11 321.592 502.808 323.857 501.827 326.159 500.921 328.349 499.525 330.198 497.637 332.085 495.901 333.369 493.712 334.35 491.409 335.256 489.145 335.671 486.729 335.671 484.54L335.671 18.9483C335.671 16.759 335.256 14.4943 334.35 12.0786 333.369 9.7761 332.085 7.58686 330.198 5.85056 328.349 4.00103 326.159 2.5667 323.857 1.69855 321.592 0.717165 319.29 0.377456 316.987 0.377456L19.0992 0.377456C16.91 0.377456 14.4943 0.717165 12.1918 1.69855 9.88933 2.5667 7.70009 4.00103 5.85056 5.85056 4.11426 7.58686 2.67993 9.7761 1.69855 12.0786 0.830402 14.4943 0.377456 16.759 0.377456 18.9483L0.377456 484.54Z" fill="#FFFFFF" transform="matrix(1.00019 0 0 1 472 108.191)"/><path d="M0.377456 484.502C0.377456 489.409 2.37797 494.24 5.88831 497.6 9.39864 501.11 14.1923 503.11 19.137 503.11" stroke="#343434" stroke-width="0.754911" stroke-linejoin="round" fill="none" transform="matrix(1.00019 0 0 1 472 108.191)"/><path d="M19.0992 503.073 316.949 503.073" stroke="#343434" stroke-width="0.754911" stroke-linejoin="round" fill="none" transform="matrix(1.00019 0 0 1 472 108.191)"/><path d="M316.949 503.11C321.97 503.11 326.725 501.11 330.198 497.6 333.708 494.24 335.671 489.409 335.671 484.502" stroke="#343434" stroke-width="0.754911" stroke-linejoin="round" fill="none" transform="matrix(1.00019 0 0 1 472 108.191)"/><path d="M335.633 484.502 335.633 18.9483" stroke="#343434" stroke-width="0.754911" stroke-linejoin="round" fill="none" transform="matrix(1.00019 0 0 1 472 108.191)"/><path d="M335.671 18.986C335.671 14.0413 333.708 9.32315 330.198 5.85056 326.725 2.34022 321.97 0.377456 316.949 0.377456" stroke="#343434" stroke-width="0.754911" stroke-linejoin="round" fill="none" transform="matrix(1.00019 0 0 1 472 108.191)"/><path d="M316.949 0.377456 19.0992 0.377456" stroke="#343434" stroke-width="0.754911" stroke-linejoin="round" fill="none" transform="matrix(1.00019 0 0 1 472 108.191)"/><path d="M19.137 0.377456C14.1923 0.377456 9.39864 2.34022 5.88831 5.85056 2.37797 9.32315 0.377456 14.0413 0.377456 18.986" stroke="#343434" stroke-width="0.754911" stroke-linejoin="round" fill="none" transform="matrix(1.00019 0 0 1 472 108.191)"/><path d="M0.377456 18.9483 0.377456 484.502" stroke="#343434" stroke-width="0.754911" stroke-linejoin="round" fill="none" transform="matrix(1.00019 0 0 1 472 108.191)"/><path d="M8.60599 484.54C8.60599 485.747 8.79471 487.069 9.3609 488.352 9.88933 489.673 10.682 490.881 11.6634 491.862 12.758 492.957 13.9659 493.712 15.2492 494.278 16.4571 494.693 17.7782 494.92 19.0992 494.92L316.987 494.92C318.308 494.92 319.629 494.693 320.913 494.278 322.121 493.712 323.442 492.957 324.423 491.862 325.404 490.881 326.159 489.673 326.725 488.352 327.254 487.069 327.48 485.747 327.48 484.54L327.48 18.9483C327.48 17.7404 327.254 16.4571 326.725 15.136 326.159 13.8149 325.404 12.607 324.423 11.6256 323.442 10.531 322.121 9.7761 320.913 9.24766 319.629 8.79471 318.308 8.56824 316.987 8.56824L19.0992 8.56824C17.7782 8.56824 16.4571 8.79471 15.2492 9.24766 13.9659 9.7761 12.758 10.531 11.6634 11.6256 10.682 12.607 9.88933 13.8149 9.3609 15.136 8.79471 16.4571 8.60599 17.7404 8.60599 18.9483L8.60599 484.54Z" fill="#0055FF" transform="matrix(1.00019 0 0 1 472 108.191)"/><path d="M223.982 94.1751C223.982 86.2863 220.811 78.7372 215.225 73.1886 209.639 67.489 202.014 64.4317 194.088 64.4317 186.237 64.4317 178.687 67.489 172.988 73.1886 167.402 78.7372 164.344 86.2863 164.344 94.1751 164.344 102.139 167.402 109.726 172.988 115.313 178.687 120.861 186.237 124.032 194.088 124.032 202.014 124.032 209.639 120.861 215.225 115.313 220.811 109.726 223.982 102.139 223.982 94.1751Z" fill="#FFFFFF" transform="matrix(1.00019 0 0 1 472 108.191)"/><path d="M138.224 341.899C145.132 341.899 151.775 339.144 156.72 334.237 161.513 329.443 164.344 322.762 164.344 315.893L164.344 273.014 194.125 231.984 194.125 371.718C200.995 371.718 207.676 369 212.583 364.094 217.414 359.149 220.245 352.506 220.245 345.598L220.245 166.835 242.553 189.143 242.553 231.984C245.837 233.985 249.423 235.381 253.386 236.061 257.311 236.702 261.237 236.589 264.861 235.721L264.861 179.858 223.982 138.866C221.793 137.13 219.377 135.356 216.659 133.959 214.017 132.525 211.073 131.317 208.016 130.335 204.958 129.354 201.788 128.826 198.391 128.486 195.107 128.259 191.71 128.373 188.35 128.826 185.029 129.241 181.745 130.109 178.574 131.204 175.517 132.411 172.573 133.959 169.817 135.695 167.1 137.356 164.684 139.319 162.495 141.508 160.305 143.584 158.456 145.849 156.833 148.151L91.6839 230.135C100.856 233.192 110.896 232.55 119.653 228.285L168.081 168.723 168.081 222.699 138.224 265.578 138.224 341.899Z" fill="#FFFFFF" transform="matrix(1.00019 0 0 1 472 108.191)"/><path d="M298.53 436.867 37.7833 306.343 37.7833 436.867 298.53 436.867Z" fill="#FEFEFE" transform="matrix(1.00019 0 0 1 472 108.191)"/><path d="M183.368 578.828 262.596 560.559" stroke="#808080" stroke-width="0.754911" stroke-linejoin="round" stroke-dasharray="4.83143 4.83143" fill="none" transform="matrix(1.00019 0 0 1 472 108.191)"/></g></svg>