<?xml version="1.0" encoding="UTF-8" standalone="no"?>
<svg
   viewBox="0 0 307.70003 460.9"
   version="1.1"
   id="svg50"
   sodipodi:docname="Spain_traffic_signal_s14b.svg"
   inkscape:version="1.2.2 (732a01da63, 2022-12-09)"
   width="307.70001"
   height="460.89999"
   xmlns:inkscape="http://www.inkscape.org/namespaces/inkscape"
   xmlns:sodipodi="http://sodipodi.sourceforge.net/DTD/sodipodi-0.dtd"
   xmlns="http://www.w3.org/2000/svg"
   xmlns:svg="http://www.w3.org/2000/svg">
  <sodipodi:namedview
     id="namedview52"
     pagecolor="#ffffff"
     bordercolor="#666666"
     borderopacity="1.0"
     inkscape:pageshadow="2"
     inkscape:pageopacity="0.0"
     inkscape:pagecheckerboard="0"
     showgrid="false"
     inkscape:object-paths="false"
     inkscape:snap-smooth-nodes="false"
     inkscape:snap-intersection-paths="false"
     inkscape:snap-bbox="false"
     inkscape:snap-bbox-edge-midpoints="false"
     inkscape:bbox-nodes="false"
     showguides="true"
     inkscape:guide-bbox="true"
     inkscape:zoom="1"
     inkscape:cx="-20.499999"
     inkscape:cy="305.49999"
     inkscape:window-width="1920"
     inkscape:window-height="991"
     inkscape:window-x="-9"
     inkscape:window-y="-9"
     inkscape:window-maximized="1"
     inkscape:current-layer="Capa_1-2"
     height="460.9px"
     inkscape:showpageshadow="2"
     inkscape:deskcolor="#d1d1d1" />
  <defs
     id="defs4">
    <style
       id="style2">.cls-1{fill:#fff;}.cls-1,.cls-3,.cls-4{fill-rule:evenodd;}.cls-2{fill:none;stroke:#343434;stroke-linejoin:round;stroke-width:0.48px;}.cls-3{fill:#05f;}.cls-4{fill:#010101;}</style>
  </defs>
  <g
     id="Capa_2"
     data-name="Capa 2">
    <g
       id="Capa_1-2"
       data-name="Capa 1">
      <path
         d="m 0.5,443.39999 c 0,2 0.39998,4.19999 1.2,6.3 0.9,2.1 2.19998,4.1 3.80003,5.7 1.69995,1.69999 3.69997,3 5.79997,3.8 2.1,0.89999 4.29998,1.2 6.3,1.2 h 272.49998 c 2.1,0 4.2,-0.30001 6.3,-1.2 2.1,-0.8 4.1,-2.10001 5.8,-3.8 1.7,-1.60001 2.9,-3.60001 3.8,-5.7 0.8,-2.10001 1.2,-4.3 1.2,-6.3 V 17.500024 c 0,-2.000025 -0.4,-4.100025 -1.2,-6.299999 -0.9,-2.1 -2.1,-4.100025 -3.8,-5.7 -1.7,-1.700025 -3.7,-3 -5.8,-3.800025 -2.1,-0.9 -4.2,-1.2 -6.3,-1.2 H 17.6 C 15.59998,0.5 13.4,0.8 11.3,1.7 9.2,2.500025 7.19998,3.8 5.50003,5.500025 3.89998,7.1 2.6,9.100025 1.7,11.200025 0.89998,13.399999 0.5,15.499999 0.5,17.500024 V 443.39999"
         style="fill:#ffffff;fill-opacity:1;fill-rule:evenodd;stroke:none;stroke-width:0.999997"
         id="path24-6"
         inkscape:label="path44" />
      <path
         d="m 0.5,443.39999 c 0,2 0.39998,4.19999 1.2,6.3 0.9,2.1 2.19998,4.1 3.80003,5.7 1.69995,1.69999 3.69997,3 5.79997,3.8 2.1,0.89999 4.29998,1.2 6.3,1.2 h 272.49998 c 2.1,0 4.2,-0.30001 6.3,-1.2 2.1,-0.8 4.1,-2.10001 5.8,-3.8 1.7,-1.60001 2.9,-3.60001 3.8,-5.7 0.8,-2.10001 1.2,-4.3 1.2,-6.3 V 17.500024 c 0,-2.000025 -0.4,-4.100025 -1.2,-6.299999 -0.9,-2.1 -2.1,-4.100025 -3.8,-5.7 -1.7,-1.700025 -3.7,-3 -5.8,-3.800025 -2.1,-0.9 -4.2,-1.2 -6.3,-1.2 H 17.6 C 15.59998,0.5 13.4,0.8 11.3,1.7 9.2,2.500025 7.19998,3.8 5.50003,5.500025 3.89998,7.1 2.6,9.100025 1.7,11.200025 0.89998,13.399999 0.5,15.499999 0.5,17.500024 V 443.39999"
         style="fill:none;fill-opacity:1;fill-rule:evenodd;stroke:#000000;stroke-width:1;stroke-miterlimit:4;stroke-dasharray:none;stroke-opacity:1"
         id="path24-6-2"
         inkscape:label="path48" />
      <path
         d="m 8,443.39999 c 0,1.1 0.20003,2.3 0.69998,3.5 0.50002,1.19999 1.2,2.3 2.1,3.19999 1.00005,1 2.1,1.7 3.3,2.2 1.10002,0.4 2.30002,0.60001 3.50002,0.60001 h 272.49998 c 1.2,0 2.4,-0.2 3.6,-0.60001 1.1,-0.5 2.3,-1.2 3.2,-2.2 0.9,-0.89999 1.6,-2 2.1,-3.19999 0.5,-1.2 0.7,-2.4 0.7,-3.5 V 17.500024 c 0,-1.100025 -0.2,-2.300025 -0.7,-3.500025 -0.5,-1.2 -1.2,-2.300024 -2.1,-3.200024 -0.9,-0.999975 -2.1,-1.69995 -3.2,-2.199975 -1.2,-0.399975 -2.4,-0.6 -3.6,-0.6 H 17.6 c -1.2,0 -2.4,0.200025 -3.50002,0.6 -1.2,0.500025 -2.29995,1.2 -3.3,2.199975 -0.9,0.9 -1.59998,2.000024 -2.1,3.200024 C 8.20003,15.199999 8,16.399999 8,17.500024 V 443.39999"
         style="display:inline;fill:#0055ff;fill-opacity:1;fill-rule:evenodd;stroke:none;stroke-width:0.999997"
         id="path60"
         inkscape:label="path52" />
      <g
         id="g1140"
         transform="matrix(0.75000267,0,0,0.75000267,-135.2759,107.44957)"
         style="fill:#ffffff">
        <path
           id="path385"
           d="m 355.44595,-22.244796 c -6.60425,-0.04533 -13.00295,2.341813 -17.88085,6.843747 -5.33334,4.666666 -8.5306,11.1979461 -8.93164,18.2656259 -0.40104,7.0677065 1.9987,14.0000131 6.80077,19.2031331 4.66667,5.333306 11.19795,8.5306 18.26563,8.93164 7.0677,0.40104 14.0013,-1.998707 19.19922,-6.800787 5.33331,-4.666666 8.53646,-11.19792 8.9375,-18.2656262 0.39584,-7.0676798 -2.00066,-14.0013196 -6.80274,-19.1992128 -4.66666,-5.333333 -11.19792,-8.536466 -18.26562,-8.937506 -0.44174,-0.0248 -0.88198,-0.038 -1.32227,-0.04107 z m 22.11915,56.177732 -40.13087,14.265626 c -1.86979,0.80208 -3.73437,1.8698 -5.20312,3.468747 -1.46355,1.463547 -2.5306,3.33204 -3.19727,5.33204 l -25.33398,79.734371 c -0.80208,2 -0.80077,4.39583 0.13672,6.53125 1.06249,2.26559 2.79622,3.86588 4.66601,4.66796 2,0.66667 4.26563,0.9323 6.53125,0 2.26563,-0.93229 4.00066,-2.66666 4.80274,-4.53125 L 343.29947,75.264975 V 279.6673 c 3.20312,0 6.66667,-0.66796 10,-1.87109 3.33333,-1.33333 6.53711,-3.46224 9.06836,-6.12891 2.66667,-2.66662 4.80143,-5.73502 6.13476,-9.06836 1.33333,-3.33329 1.86524,-6.80208 1.86524,-10 V 150.46419 h 1.86328 l 3.87109,26.93749 46.26563,71.33204 c 2.40104,-1.46875 4.66601,-3.46876 6.66601,-6 1.86459,-2.53646 3.19792,-5.46746 4,-8.80079 0.80208,-3.19791 0.80208,-6.53193 0.26563,-9.5996 -0.53125,-3.20313 -1.73372,-5.99936 -3.19727,-8.4004 L 399.43423,164.06771 389.96548,62.333335 c -1.0677,-5.067706 -2.66666,-10.000666 -4.79688,-14.802746 -1.99996,-4.79684 -4.66601,-9.332026 -7.6035,-13.597653 z m 78.62109,59.216799 c -2.2832,0.01693 -4.55144,0.18424 -6.75196,0.517573 -4.53642,0.666667 -8.80083,1.863933 -12.80077,3.462893 -4,1.734374 -7.59896,3.869149 -10.79688,6.134769 -3.20312,2.40099 -5.87044,5.06771 -8.27148,7.73438 l -19.72852,-13.332042 1.19726,13.734372 12.26563,8.12891 c -4.1302,6.53645 -6.53191,13.8698 -7.06836,21.46876 -0.39584,7.5989 0.9388,15.19792 4.13672,22.26562 l -3.33399,1.5996 5.46875,9.20314 2.79688,-1.46876 c 1.33333,2.53125 3.06836,4.93294 5.06836,7.33398 2,2.26563 4.26436,4.53126 6.80077,6.53126 5.06251,4 10.9336,7.20316 17.46485,8.93749 6.40099,1.86459 13.06771,2.39453 19.46875,1.59767 3.19792,-0.40104 6.26497,-1.06771 9.19727,-2 2.93229,-0.9323 5.73437,-2.13543 8.26562,-3.46876 2.66667,-1.33328 5.46875,-2.93164 8,-4.93164 2.66667,-1.99995 5.06771,-4.26627 7.46875,-6.80274 4.53124,-5.19786 8.26563,-11.33333 10.53125,-18.26562 2.27083,-6.79683 3.06706,-14.00004 2.40039,-20.79687 -0.26563,-3.46875 -0.93229,-6.80209 -1.73437,-10 -0.9323,-3.06771 -2.12956,-5.99871 -3.4629,-8.80079 -1.59896,-3.1979 -3.5983,-6.40104 -6.13476,-9.46874 -2.53125,-3.19792 -5.46354,-6.13151 -8.79688,-8.66798 -3.46874,-2.66666 -7.33333,-4.931635 -11.46874,-6.666009 -4.26563,-1.72916 -8.66732,-2.932946 -13.33399,-3.599613 -2.26563,-0.265613 -4.56445,-0.397787 -6.84765,-0.380853 z m -154.3418,9.531255 c -0.21834,0.003 -0.4427,0.0189 -0.67578,0.0528 -0.80208,0 -1.60351,0.26692 -2.13476,0.66796 l -16.26563,8.1289 c -1.06771,0.66667 -2.00065,1.60027 -2.80273,2.66798 -0.9323,1.0677 -1.73372,2.40104 -2.40039,3.73437 -1.33333,2.80208 -1.86524,5.99936 -1.59961,9.19727 0.26562,3.33333 1.4694,6.40169 3.33398,8.80273 0.9323,1.19792 1.86915,2.26497 2.93164,3.19727 1.06771,0.9375 2.27148,1.60352 3.33399,2.13477 l -1.33399,38.26561 c -3.59896,0 -7.46289,0.53647 -11.46289,1.46876 -4,0.9323 -8.13541,2.4024 -12,4.40234 -4,2.13021 -7.73503,4.66537 -11.33399,7.86329 -3.46869,3.19785 -6.53516,6.93359 -9.0664,10.93359 -2.53125,4.13541 -4.40104,8.53516 -5.73437,13.06641 -1.33333,4.53118 -2.00065,9.0677 -2.13087,13.46874 0,4.53119 0.3965,8.79694 1.33399,12.79687 0.93229,4 2.26432,7.73509 3.86328,11.06836 1.33333,2.66667 2.9336,5.3334 4.9336,8 2,2.53125 4.26432,5.06836 6.80077,7.33399 5.19792,4.66666 11.3334,8.26562 18.26563,10.53125 6.80208,2.40104 13.86529,3.0664 20.80273,2.53516 3.46355,-0.26563 6.79754,-0.93164 9.86524,-1.86915 3.19791,-0.93229 6.13418,-2.12956 8.80077,-3.46289 2.79688,-1.33333 5.4642,-2.93359 8.13087,-4.93359 2.53645,-2 5.06836,-4.26953 7.33399,-6.80078 4.6666,-5.19786 8.26497,-11.33334 10.66601,-18.26563 2.26563,-6.80201 3.06705,-14.00065 2.40039,-20.80273 -0.26563,-3.46348 -0.93099,-6.79758 -1.86328,-9.86523 -0.9375,-3.20312 -2,-6.13482 -3.46875,-8.93164 -3.33333,-6.80208 -8.40105,-12.80209 -14.53125,-17.46876 -6.27078,-4.6666 -13.33339,-7.73502 -20.93749,-9.06836 l 0.53514,-15.59765 43.33399,11.46875 V 166.3334 l -40.40039,-10.53712 7.86328,-4 c -3.46354,-1.59895 -6.13021,-4.66536 -7.0625,-8.39453 l -3.0664,1.59766 0.26562,-8.66601 -10.66797,-12.4004 18.80273,-9.46875 c 1.33333,-0.66666 2.66603,-1.86524 3.19727,-3.59961 0.53125,-1.73437 0.26628,-3.33268 -0.40039,-4.66601 -0.66667,-1.46355 -1.86524,-2.66798 -3.59961,-3.19922 -0.60156,-0.19922 -1.20044,-0.32496 -1.85547,-0.31836 z m 154.72265,1.11913 c 1.79948,0 3.59896,0.1328 5.39844,0.39844 3.59896,0.53645 7.06901,1.46811 10.40235,2.93164 3.33333,1.33333 6.26436,3.20313 9.0664,5.20313 2.66666,2.13016 4.9336,4.40039 6.9336,6.93164 1.86457,2.40099 3.46809,4.93294 4.66601,7.5996 1.06771,2.13542 1.99935,4.4004 2.66601,6.93164 0.80208,2.53647 1.33334,5.06906 1.46875,7.8711 0.53125,5.46354 -0.13476,11.06772 -1.86913,16.53125 -1.86459,5.33333 -4.66607,10.26501 -8.40039,14.40039 -1.86459,2 -3.72983,3.73502 -5.86524,5.33398 -2,1.59896 -4.13477,2.80208 -6.40039,4 -1.86458,1.06771 -4.0013,1.99935 -6.40234,2.66602 -2.26563,0.80209 -4.66667,1.33398 -7.06251,1.59961 -5.06765,0.66667 -10.26953,0.39969 -15.33203,-0.93359 -5.0677,-1.33333 -9.73437,-3.59832 -13.73437,-6.66602 -2,-1.59895 -3.73502,-3.19856 -5.33398,-5.06836 -1.73438,-1.73434 -3.06771,-3.59835 -4.26563,-5.46288 l 32.13086,-16.13478 c 0.9323,-0.93229 1.73438,-2.26562 2.26563,-3.73437 0.53645,-1.46355 0.66536,-3.19792 0.53515,-4.79688 -0.26562,-1.73433 -0.80208,-3.20377 -1.73438,-4.53711 -0.80208,-1.33333 -1.86328,-2.40038 -3.0664,-3.19726 l -26.66797,-18 c 1.86979,-2.13542 4.13672,-4.26563 6.66798,-6 2.40104,-1.86979 5.33268,-3.4694 8.40038,-4.80274 3.19792,-1.33333 6.53064,-2.26497 10.13476,-2.66601 1.79948,-0.26563 3.59896,-0.39844 5.39844,-0.39844 z m -117.79882,19.86719 -8.80274,4.4004 -4.93164,14.39648 13.73438,-6.9336 z m 81.46289,2.79688 21.60546,14.80078 c 0.79688,0.53124 1.46224,1.4694 1.33203,2.80274 0,1.1979 -0.80208,2.1302 -1.73437,2.53124 l -23.33203,11.73438 c -2,-5.0677 -2.93358,-10.53582 -2.66797,-16.13477 0.40104,-5.73433 2.13021,-11.06771 4.79688,-15.73437 z m 113.46874,39.46874 -98.80077,49.33204 c 0.9375,1.59893 1.60351,3.47005 2.13476,5.19921 0.53126,1.86979 0.93295,3.73372 1.06836,5.60352 l 29.46289,-14.80273 66.13476,-33.06641 z m -10.80077,18.80079 v 33.06249 h -66.26563 v 33.20313 h -66.13086 v 33.06836 h -66.27148 v 33.0625 h -66.1289 v 33.06835 h 99.33202 V 317.1302 h 66.13087 v -33.0625 h 66.27147 v -33.06836 h 66.12891 v -66.26562 z m -240.13086,5.73047 -3.59961,33.73437 c -1.86974,1.46874 -3.06706,3.4681 -3.60351,5.86914 -0.39584,2.26556 0,4.66602 1.20312,6.66602 1.19792,2.1302 3.06707,3.59961 5.19727,4.39648 2.26562,0.80208 4.66797,0.80144 6.9336,-0.1308 3.33326,-1.33334 5.73372,-4.53582 5.86913,-8.13478 0.13027,-1.73437 -0.13607,-3.5983 -1.06836,-5.19726 -0.93229,-1.59895 -2.26563,-2.9323 -3.73437,-3.73438 l 3.33398,-32.26562 c 3.86979,0.93229 7.73503,2.40105 11.33399,4.53125 3.73432,2 7.06705,4.8021 9.86913,8 2.93229,3.20312 5.33269,6.8015 6.93164,10.66601 1.73437,3.86979 2.79753,7.86986 3.33399,11.73438 0.40104,4 0.26628,8.13548 -0.40039,12.26562 -0.80208,4.13542 -2.26563,8.13548 -4.26563,12 -2,3.86979 -4.66666,7.20248 -7.73437,10.13478 -3.06771,2.93222 -6.40105,5.33398 -10,7.06836 -2.13541,1.06249 -4.53256,1.99934 -6.9336,2.66601 -2.53645,0.66667 -5.06705,1.19921 -7.86913,1.46484 -5.46355,0.53645 -11.06251,-0.13027 -16.53125,-2 -5.46875,-1.73437 -10.26503,-4.66667 -14.40039,-8.26563 -2,-1.86457 -3.73503,-3.86529 -5.33399,-5.86522 -1.59896,-2.13542 -2.93229,-4.27019 -4,-6.4004 -1.33333,-2.5364 -2.40038,-5.4694 -3.19726,-8.53711 -0.80208,-3.06249 -1.20312,-6.39584 -1.20312,-10 0,-3.46353 0.39973,-7.06185 1.33202,-10.66601 1.06771,-3.46354 2.53776,-6.9323 4.40235,-10.26563 2,-3.1979 4.26432,-6.1315 7.0664,-8.66797 2.66667,-2.53119 5.60027,-4.53129 8.66797,-6.26561 3.06771,-1.59896 6.26432,-2.80079 9.33203,-3.59767 3.19792,-0.80208 6.13608,-1.06771 9.06836,-1.20312 z m 122.26562,39.73437 -30.93164,15.46874 c 0.9323,4 1.06706,8.12894 0.40039,12.12891 l 26.79688,-13.33203 9.73437,-4.9336 z m -66.26562,33.20312 -123.59961,61.72852 v 12.40038 L 338.76822,275.6673 Z"
           style="fill:#ffffff;stroke-width:1.33333" />
      </g>
    </g>
  </g>
</svg>
