<?xml version="1.0" encoding="UTF-8" standalone="no"?>
<svg
   viewBox="0 0 307.70003 460.9"
   version="1.1"
   id="svg50"
   sodipodi:docname="Spain_traffic_signal_s13,_2023_set.svg"
   inkscape:version="1.1.2 (b8e25be833, 2022-02-05)"
   width="307.70001"
   height="460.89999"
   xmlns:inkscape="http://www.inkscape.org/namespaces/inkscape"
   xmlns:sodipodi="http://sodipodi.sourceforge.net/DTD/sodipodi-0.dtd"
   xmlns="http://www.w3.org/2000/svg"
   xmlns:svg="http://www.w3.org/2000/svg">
  <sodipodi:namedview
     id="namedview52"
     pagecolor="#ffffff"
     bordercolor="#666666"
     borderopacity="1.0"
     inkscape:pageshadow="2"
     inkscape:pageopacity="0.0"
     inkscape:pagecheckerboard="0"
     showgrid="false"
     inkscape:object-paths="false"
     inkscape:snap-smooth-nodes="false"
     inkscape:snap-intersection-paths="false"
     inkscape:snap-bbox="false"
     inkscape:snap-bbox-edge-midpoints="false"
     inkscape:bbox-nodes="false"
     showguides="true"
     inkscape:guide-bbox="true"
     inkscape:zoom="1.4142136"
     inkscape:cx="232.99168"
     inkscape:cy="212.48558"
     inkscape:window-width="1920"
     inkscape:window-height="1001"
     inkscape:window-x="-9"
     inkscape:window-y="-9"
     inkscape:window-maximized="1"
     inkscape:current-layer="Capa_1-2"
     height="460.9px" />
  <defs
     id="defs4">
    <style
       id="style2">.cls-1{fill:#fff;}.cls-1,.cls-3,.cls-4{fill-rule:evenodd;}.cls-2{fill:none;stroke:#343434;stroke-linejoin:round;stroke-width:0.48px;}.cls-3{fill:#05f;}.cls-4{fill:#010101;}</style>
  </defs>
  <g
     id="Capa_2"
     data-name="Capa 2">
    <g
       id="Capa_1-2"
       data-name="Capa 1">
      <path
         d="m 0.5,443.39999 c 0,2 0.39998,4.19999 1.2,6.3 0.9,2.1 2.19998,4.1 3.80003,5.7 1.69995,1.69999 3.69997,3 5.79997,3.8 2.1,0.89999 4.29998,1.2 6.3,1.2 h 272.49998 c 2.1,0 4.2,-0.30001 6.3,-1.2 2.1,-0.8 4.1,-2.10001 5.8,-3.8 1.7,-1.60001 2.9,-3.60001 3.8,-5.7 0.8,-2.10001 1.2,-4.3 1.2,-6.3 V 17.500024 c 0,-2.000025 -0.4,-4.100025 -1.2,-6.299999 -0.9,-2.1 -2.1,-4.100025 -3.8,-5.7 -1.7,-1.700025 -3.7,-3 -5.8,-3.800025 -2.1,-0.9 -4.2,-1.2 -6.3,-1.2 H 17.6 C 15.59998,0.5 13.4,0.8 11.3,1.7 9.2,2.500025 7.19998,3.8 5.50003,5.500025 3.89998,7.1 2.6,9.100025 1.7,11.200025 0.89998,13.399999 0.5,15.499999 0.5,17.500024 V 443.39999"
         style="fill:#ffffff;fill-opacity:1;fill-rule:evenodd;stroke:none;stroke-width:0.999997"
         id="path24-6"
         inkscape:label="path44" />
      <path
         d="m 0.5,443.39999 c 0,2 0.39998,4.19999 1.2,6.3 0.9,2.1 2.19998,4.1 3.80003,5.7 1.69995,1.69999 3.69997,3 5.79997,3.8 2.1,0.89999 4.29998,1.2 6.3,1.2 h 272.49998 c 2.1,0 4.2,-0.30001 6.3,-1.2 2.1,-0.8 4.1,-2.10001 5.8,-3.8 1.7,-1.60001 2.9,-3.60001 3.8,-5.7 0.8,-2.10001 1.2,-4.3 1.2,-6.3 V 17.500024 c 0,-2.000025 -0.4,-4.100025 -1.2,-6.299999 -0.9,-2.1 -2.1,-4.100025 -3.8,-5.7 -1.7,-1.700025 -3.7,-3 -5.8,-3.800025 -2.1,-0.9 -4.2,-1.2 -6.3,-1.2 H 17.6 C 15.59998,0.5 13.4,0.8 11.3,1.7 9.2,2.500025 7.19998,3.8 5.50003,5.500025 3.89998,7.1 2.6,9.100025 1.7,11.200025 0.89998,13.399999 0.5,15.499999 0.5,17.500024 V 443.39999"
         style="fill:none;fill-opacity:1;fill-rule:evenodd;stroke:#000000;stroke-width:1;stroke-miterlimit:4;stroke-dasharray:none;stroke-opacity:1"
         id="path24-6-2"
         inkscape:label="path48" />
      <path
         d="m 8,443.39999 c 0,1.1 0.20003,2.3 0.69998,3.5 0.50002,1.19999 1.2,2.3 2.1,3.19999 1.00005,1 2.1,1.7 3.3,2.2 1.10002,0.4 2.30002,0.60001 3.50002,0.60001 h 272.49998 c 1.2,0 2.4,-0.2 3.6,-0.60001 1.1,-0.5 2.3,-1.2 3.2,-2.2 0.9,-0.89999 1.6,-2 2.1,-3.19999 0.5,-1.2 0.7,-2.4 0.7,-3.5 V 17.500024 c 0,-1.100025 -0.2,-2.300025 -0.7,-3.500025 -0.5,-1.2 -1.2,-2.300024 -2.1,-3.200024 -0.9,-0.999975 -2.1,-1.69995 -3.2,-2.199975 -1.2,-0.399975 -2.4,-0.6 -3.6,-0.6 H 17.6 c -1.2,0 -2.4,0.200025 -3.50002,0.6 -1.2,0.500025 -2.29995,1.2 -3.3,2.199975 -0.9,0.9 -1.59998,2.000024 -2.1,3.200024 C 8.20003,15.199999 8,16.399999 8,17.500024 V 443.39999"
         style="fill:#0055ff;fill-opacity:1;fill-rule:evenodd;stroke:none;stroke-width:0.999997"
         id="path60"
         inkscape:label="path52" />
      <path
         d="m 92.50002,318 v 27.3 h 47.7 v 27.19999 h 47.7 v 27.3 h 74.99999 v -27.3 h -47.7 V 345.3 H 167.50002 V 318 h -47.7 v -27.2 h -75 V 318 Z"
         style="fill:#ffffff;fill-opacity:1;fill-rule:evenodd;stroke:none;stroke-width:0.999997"
         id="path64"
         inkscape:label="path56"
         sodipodi:nodetypes="ccccccccccccccccc" />
      <path
         d="m 197.00001,67.099997 c -5.1,-5.199974 -12.1,-8.000024 -19.3,-8.000024 -7.2,0 -14.1,2.80005 -19.3,8.000024 -5.09999,5.1 -7.89999,12 -7.89999,19.199999 0,7.299975 2.8,14.199974 7.89999,19.299974 5.2,5.1 12.1,8.00003 19.3,8.00003 7.2,0 14.2,-2.90003 19.3,-8.00003 5.1,-5.1 8,-11.999999 8,-19.299974 0,-7.199999 -2.9,-14.099999 -8,-19.199999 z"
         style="fill:#ffffff;fill-opacity:1;fill-rule:evenodd;stroke:none;stroke-width:0.999997"
         id="path68"
         inkscape:label="path60"
         sodipodi:nodetypes="cssscsscc" />
      <path
         d="m 143.50001,305.89999 c 4.40001,-4.39999 7.00001,-10.5 7.00001,-16.8 v -39.2 l 27.19999,-37.5 v 127.8 c 6.3,0 12.4,-2.5 16.9,-7 4.4,-4.5 7,-10.6 7,-16.9 V 152.80002 l 20.4,20.4 v 39.19997 c 3,1.8 6.3,3.10001 9.9,3.70001 3.6,0.6 7.2,0.49999 10.5,-0.3 v -51.10003 l -37.4,-37.5 c -2,-1.59997 -4.2,-3.19995 -6.7,-4.5 -2.4,-1.29998 -5.1,-2.4 -7.9,-3.3 -2.8,-0.9 -5.7,-1.39995 -8.8,-1.69995 -3,-0.20003 -6.1,-0.10005 -9.19999,0.3 -3,0.39997 -6,1.2 -8.90001,2.19997 -2.79999,1.10003 -5.49999,2.49998 -8,4.10003 -2.49999,1.5 -4.69999,3.3 -6.69999,5.29995 -2.00001,1.90005 -3.7,4.00005 -5.2,6.10005 L 84.00005,210.7 c 8.4,2.80001 17.59995,2.2 25.59996,-1.69999 l 44.3,-54.50004 v 49.40004 L 126.60002,243.1 v 69.79999 c 6.3,0 12.39999,-2.5 16.89999,-7 z"
         style="fill:#ffffff;fill-opacity:1;fill-rule:evenodd;stroke:none;stroke-width:0.999997"
         id="path72"
         inkscape:label="path64"
         sodipodi:nodetypes="ssccccscccsccccsccccccccccccs" />
    </g>
  </g>
</svg>
