<svg width="336" height="504" xmlns="http://www.w3.org/2000/svg" xmlns:xlink="http://www.w3.org/1999/xlink" xml:space="preserve" overflow="hidden"><defs><clipPath id="clip0"><rect x="848" y="108" width="336" height="504"/></clipPath></defs><g clip-path="url(#clip0)" transform="translate(-848 -108)"><path d="M0.377455 484.54C0.377455 486.729 0.830402 489.145 1.69855 491.409 2.67993 493.712 4.11426 495.901 5.85056 497.637 7.70009 499.525 9.88933 500.921 12.1918 501.827 14.4943 502.808 16.91 503.11 19.0992 503.11L316.987 503.11C319.29 503.11 321.592 502.808 323.857 501.827 326.159 500.921 328.348 499.525 330.198 497.637 332.085 495.901 333.369 493.712 334.35 491.409 335.256 489.145 335.671 486.729 335.671 484.54L335.671 18.9483C335.671 16.759 335.256 14.4943 334.35 12.0786 333.369 9.7761 332.085 7.58685 330.198 5.85056 328.348 4.00103 326.159 2.5667 323.857 1.69855 321.592 0.717165 319.29 0.377455 316.987 0.377455L19.0992 0.377455C16.91 0.377455 14.4943 0.717165 12.1918 1.69855 9.88933 2.5667 7.70009 4.00103 5.85056 5.85056 4.11426 7.58685 2.67993 9.7761 1.69855 12.0786 0.830402 14.4943 0.377455 16.759 0.377455 18.9483L0.377455 484.54Z" fill="#FFFFFF" transform="matrix(1.00019 0 0 1 848 108.354)"/><path d="M0.377455 484.502C0.377455 489.409 2.37797 494.24 5.8883 497.599 9.39864 501.11 14.1923 503.11 19.137 503.11" stroke="#343434" stroke-width="0.754911" stroke-linejoin="round" fill="none" transform="matrix(1.00019 0 0 1 848 108.354)"/><path d="M19.0992 503.073 316.949 503.073" stroke="#343434" stroke-width="0.754911" stroke-linejoin="round" fill="none" transform="matrix(1.00019 0 0 1 848 108.354)"/><path d="M316.949 503.11C321.969 503.11 326.725 501.11 330.198 497.599 333.708 494.24 335.671 489.409 335.671 484.502" stroke="#343434" stroke-width="0.754911" stroke-linejoin="round" fill="none" transform="matrix(1.00019 0 0 1 848 108.354)"/><path d="M335.633 484.502 335.633 18.9483" stroke="#343434" stroke-width="0.754911" stroke-linejoin="round" fill="none" transform="matrix(1.00019 0 0 1 848 108.354)"/><path d="M335.671 18.986C335.671 14.0413 333.708 9.32315 330.198 5.85056 326.725 2.34022 321.969 0.377455 316.949 0.377455" stroke="#343434" stroke-width="0.754911" stroke-linejoin="round" fill="none" transform="matrix(1.00019 0 0 1 848 108.354)"/><path d="M316.949 0.377455 19.0992 0.377455" stroke="#343434" stroke-width="0.754911" stroke-linejoin="round" fill="none" transform="matrix(1.00019 0 0 1 848 108.354)"/><path d="M19.137 0.377455C14.1923 0.377455 9.39864 2.34022 5.8883 5.85056 2.37797 9.32315 0.377455 14.0413 0.377455 18.986" stroke="#343434" stroke-width="0.754911" stroke-linejoin="round" fill="none" transform="matrix(1.00019 0 0 1 848 108.354)"/><path d="M0.377455 18.9483 0.377455 484.502" stroke="#343434" stroke-width="0.754911" stroke-linejoin="round" fill="none" transform="matrix(1.00019 0 0 1 848 108.354)"/><path d="M8.60598 484.54C8.60598 485.747 8.79471 487.068 9.36089 488.352 9.88933 489.673 10.682 490.881 11.6634 491.862 12.758 492.957 13.9659 493.712 15.2492 494.278 16.4571 494.693 17.7782 494.92 19.0992 494.92L316.987 494.92C318.308 494.92 319.629 494.693 320.913 494.278 322.12 493.712 323.442 492.957 324.423 491.862 325.404 490.881 326.159 489.673 326.725 488.352 327.254 487.068 327.48 485.747 327.48 484.54L327.48 18.9483C327.48 17.7404 327.254 16.4571 326.725 15.136 326.159 13.8149 325.404 12.607 324.423 11.6256 323.442 10.531 322.12 9.7761 320.913 9.24766 319.629 8.79471 318.308 8.56824 316.987 8.56824L19.0992 8.56824C17.7782 8.56824 16.4571 8.79471 15.2492 9.24766 13.9659 9.7761 12.758 10.531 11.6634 11.6256 10.682 12.607 9.88933 13.8149 9.36089 15.136 8.79471 16.4571 8.60598 17.7404 8.60598 18.9483L8.60598 484.54Z" fill="#0055FF" transform="matrix(1.00019 0 0 1 848 108.354)"/><path d="M218.358 469.668 218.358 33.82 255.575 33.82 255.575 469.668 218.358 469.668Z" fill="#FFFFFF" transform="matrix(1.00019 0 0 1 848 108.354)"/><path d="M255.575 270.371 255.575 233.079 128.939 233.079 128.939 195.824 73.0754 195.824 73.0754 307.664 128.939 307.664 128.939 270.371 255.575 270.371Z" fill="#FFFFFF" transform="matrix(1.00019 0 0 1 848 108.354)"/><path d="M125.277 303.965 76.8122 303.965 76.8122 199.636 125.277 199.636 125.277 303.965Z" fill="#FF0000" transform="matrix(1.00019 0 0 1 848 108.354)"/><path d="M0.377455 567.014 335.633 567.014" stroke="#010101" stroke-width="0.754911" stroke-linejoin="round" fill="none" transform="matrix(1.00019 0 0 1 848 108.354)"/><path d="M158.229 559.389C158.343 560.031 158.569 560.597 158.984 561.012 159.55 561.503 160.117 561.691 160.909 561.691 161.551 561.691 162.117 561.503 162.646 561.163 163.174 560.672 163.514 560.144 163.853 559.502 164.08 558.71 164.193 557.841 164.193 556.634 164.193 555.426 164.08 554.671 163.853 554.029 163.514 553.35 163.174 552.934 162.646 552.595 162.193 552.255 161.551 552.18 161.022 552.18 160.117 552.18 159.437 552.368 158.909 553.048 158.343 553.576 158.003 554.331 158.003 555.35 158.003 556.218 158.343 556.973 158.796 557.502 159.324 558.068 160.003 558.294 160.796 558.294 161.324 558.294 161.777 558.181 162.117 557.955 162.532 557.728 162.872 557.502 163.098 557.086 163.098 557.2 163.098 557.313 163.098 557.313 163.098 557.841 162.985 558.294 162.872 558.71 162.759 559.162 162.646 559.578 162.419 559.804 162.306 560.031 162.117 560.257 161.777 560.484 161.551 560.597 161.211 560.672 160.909 560.672 160.456 560.672 160.117 560.597 159.89 560.37 159.55 560.144 159.437 559.691 159.324 559.276L158.229 559.389ZM162.985 555.237C162.985 555.879 162.759 556.407 162.419 556.747 162.117 557.086 161.664 557.313 161.098 557.313 160.57 557.313 160.117 557.086 159.777 556.747 159.437 556.407 159.211 555.879 159.211 555.35 159.211 554.671 159.437 554.142 159.777 553.689 160.23 553.236 160.683 553.048 161.098 553.048 161.664 553.048 162.117 553.236 162.419 553.689 162.759 554.029 162.985 554.557 162.985 555.237Z" fill="#010101" transform="matrix(1.00019 0 0 1 848 108.354)"/><path d="M165.25 556.86C165.25 558.596 165.552 559.917 166.269 560.672 166.684 561.389 167.439 561.691 168.345 561.691 168.987 561.691 169.515 561.503 170.081 561.163 170.534 560.672 170.836 560.257 171.063 559.502 171.289 558.823 171.403 557.955 171.403 556.86 171.403 555.992 171.289 555.237 171.176 554.671 171.063 554.142 170.836 553.689 170.61 553.236 170.308 552.934 170.081 552.595 169.628 552.482 169.327 552.255 168.874 552.18 168.345 552.18 167.666 552.18 167.137 552.255 166.684 552.708 166.269 553.048 165.892 553.576 165.552 554.256 165.325 554.897 165.25 555.765 165.25 556.86ZM166.458 556.86C166.458 555.35 166.684 554.331 167.024 553.803 167.364 553.236 167.779 553.048 168.345 553.048 168.874 553.048 169.327 553.35 169.628 553.803 169.968 554.331 170.195 555.35 170.195 556.86 170.195 558.408 169.968 559.502 169.628 559.917 169.327 560.484 168.874 560.672 168.345 560.672 167.779 560.672 167.364 560.484 167.024 559.917 166.684 559.502 166.458 558.408 166.458 556.86Z" fill="#010101" transform="matrix(1.00019 0 0 1 848 108.354)"/><path d="M172.459 556.86C172.459 558.596 172.761 559.917 173.441 560.672 173.969 561.389 174.649 561.691 175.517 561.691 176.158 561.691 176.8 561.503 177.253 561.163 177.706 560.672 178.008 560.257 178.234 559.502 178.499 558.823 178.612 557.955 178.612 556.86 178.612 555.992 178.499 555.237 178.348 554.671 178.234 554.142 178.008 553.689 177.819 553.236 177.593 552.934 177.253 552.595 176.8 552.482 176.498 552.255 176.045 552.18 175.517 552.18 174.837 552.18 174.309 552.255 173.856 552.708 173.441 553.048 173.101 553.576 172.875 554.256 172.648 554.897 172.459 555.765 172.459 556.86ZM173.63 556.86C173.63 555.35 173.856 554.331 174.309 553.803 174.649 553.236 174.951 553.048 175.517 553.048 176.045 553.048 176.498 553.35 176.8 553.803 177.253 554.331 177.366 555.35 177.366 556.86 177.366 558.408 177.253 559.502 176.8 559.917 176.498 560.484 176.045 560.672 175.517 560.672 174.951 560.672 174.535 560.484 174.196 559.917 173.856 559.502 173.63 558.408 173.63 556.86Z" fill="#010101" transform="matrix(1.00019 0 0 1 848 108.354)"/><text font-family="Times New Roman,Times New Roman_MSFontService,sans-serif" font-weight="400" font-size="247" transform="matrix(0.0377528 0 0 0.0377455 1005.54 670)">900</text></g></svg>