<svg width="336" height="504" xmlns="http://www.w3.org/2000/svg" xmlns:xlink="http://www.w3.org/1999/xlink" xml:space="preserve" overflow="hidden"><defs><clipPath id="clip0"><rect x="96" y="108" width="336" height="504"/></clipPath></defs><g clip-path="url(#clip0)" transform="translate(-96 -108)"><path d="M0.37745 484.533C0.37745 486.722 0.83039 489.138 1.69853 491.402 2.6799 493.705 4.11421 495.894 5.85048 497.63 7.69998 499.518 9.88919 500.914 12.1916 501.82 14.4941 502.801 16.9098 503.103 19.099 503.103L316.983 503.103C319.285 503.103 321.588 502.801 323.852 501.82 326.155 500.914 328.344 499.518 330.193 497.63 332.081 495.894 333.364 493.705 334.345 491.402 335.251 489.138 335.666 486.722 335.666 484.533L335.666 18.948C335.666 16.7588 335.251 14.4941 334.345 12.0784 333.364 9.77596 332.081 7.58675 330.193 5.85048 328.344 4.00097 326.155 2.56666 323.852 1.69853 321.588 0.717155 319.285 0.37745 316.983 0.37745L19.099 0.37745C16.9098 0.37745 14.4941 0.717155 12.1916 1.69853 9.88919 2.56666 7.69998 4.00097 5.85048 5.85048 4.11421 7.58675 2.6799 9.77596 1.69853 12.0784 0.83039 14.4941 0.37745 16.7588 0.37745 18.948L0.37745 484.533Z" fill="#FFFFFF" transform="matrix(1.00021 0 0 1 96 108.079)"/><path d="M0.37745 484.495C0.37745 489.402 2.37794 494.233 5.88822 497.593 9.39851 501.103 14.1921 503.103 19.1367 503.103" stroke="#343434" stroke-width="0.7549" stroke-linejoin="round" fill="none" transform="matrix(1.00021 0 0 1 96 108.079)"/><path d="M19.099 503.066 316.945 503.066" stroke="#343434" stroke-width="0.7549" stroke-linejoin="round" fill="none" transform="matrix(1.00021 0 0 1 96 108.079)"/><path d="M316.945 503.103C321.965 503.103 326.721 501.103 330.193 497.593 333.704 494.233 335.666 489.402 335.666 484.495" stroke="#343434" stroke-width="0.7549" stroke-linejoin="round" fill="none" transform="matrix(1.00021 0 0 1 96 108.079)"/><path d="M335.629 484.495 335.629 18.948" stroke="#343434" stroke-width="0.7549" stroke-linejoin="round" fill="none" transform="matrix(1.00021 0 0 1 96 108.079)"/><path d="M335.666 18.9857C335.666 14.0411 333.704 9.32302 330.193 5.85048 326.721 2.34019 321.965 0.37745 316.945 0.37745" stroke="#343434" stroke-width="0.7549" stroke-linejoin="round" fill="none" transform="matrix(1.00021 0 0 1 96 108.079)"/><path d="M316.945 0.37745 19.099 0.37745" stroke="#343434" stroke-width="0.7549" stroke-linejoin="round" fill="none" transform="matrix(1.00021 0 0 1 96 108.079)"/><path d="M19.1367 0.37745C14.1921 0.37745 9.39851 2.34019 5.88822 5.85048 2.37794 9.32302 0.37745 14.0411 0.37745 18.9857" stroke="#343434" stroke-width="0.7549" stroke-linejoin="round" fill="none" transform="matrix(1.00021 0 0 1 96 108.079)"/><path d="M0.37745 18.948 0.37745 484.495" stroke="#343434" stroke-width="0.7549" stroke-linejoin="round" fill="none" transform="matrix(1.00021 0 0 1 96 108.079)"/><path d="M8.60586 484.533C8.60586 485.741 8.79459 487.062 9.36076 488.345 9.88919 489.666 10.6818 490.874 11.6632 491.855 12.7578 492.95 13.9657 493.705 15.249 494.271 16.4568 494.686 17.7779 494.913 19.099 494.913L316.983 494.913C318.304 494.913 319.625 494.686 320.908 494.271 322.116 493.705 323.437 492.95 324.418 491.855 325.4 490.874 326.155 489.666 326.721 488.345 327.249 487.062 327.476 485.741 327.476 484.533L327.476 18.948C327.476 17.7402 327.249 16.4568 326.721 15.1358 326.155 13.8147 325.4 12.6068 324.418 11.6255 323.437 10.5309 322.116 9.77596 320.908 9.24753 319.625 8.79459 318.304 8.56812 316.983 8.56812L19.099 8.56812C17.7779 8.56812 16.4568 8.79459 15.249 9.24753 13.9657 9.77596 12.7578 10.5309 11.6632 11.6255 10.6818 12.6068 9.88919 13.8147 9.36076 15.1358 8.79459 16.4568 8.60586 17.7402 8.60586 18.948L8.60586 484.533Z" fill="#0055FF" transform="matrix(1.00021 0 0 1 96 108.079)"/><path d="M218.355 469.661 218.355 33.8195 255.572 33.8195 255.572 469.661 218.355 469.661Z" fill="#FFFFFF" transform="matrix(1.00021 0 0 1 96 108.079)"/><path d="M223.715 264.932 250.098 238.586 150.036 138.562 176.382 112.178 136.826 72.6214 57.9009 151.697 97.3444 191.141 123.69 164.908 223.715 264.932Z" fill="#FFFFFF" transform="matrix(1.00021 0 0 1 96 108.079)"/><path d="M97.3444 185.894 63.1474 151.697 136.863 77.868 171.174 112.178 97.3444 185.894Z" fill="#FF0000" transform="matrix(1.00021 0 0 1 96 108.079)"/><path d="M216.203 524.505 216.203 574.026" stroke="#808080" stroke-width="0.7549" stroke-linejoin="round" stroke-dasharray="4.83136 4.83136" fill="none" transform="matrix(1.00021 0 0 1 96 108.079)"/></g></svg>