<?xml version="1.0" encoding="UTF-8" standalone="no"?>
<svg
   viewBox="0 0 307.60002 307.70002"
   version="1.1"
   id="svg50"
   sodipodi:docname="Spain traffic signal s33, 2023 set.svg"
   inkscape:version="1.1.2 (b8e25be833, 2022-02-05)"
   width="307.60001"
   height="307.70001"
   xmlns:inkscape="http://www.inkscape.org/namespaces/inkscape"
   xmlns:sodipodi="http://sodipodi.sourceforge.net/DTD/sodipodi-0.dtd"
   xmlns="http://www.w3.org/2000/svg"
   xmlns:svg="http://www.w3.org/2000/svg">
  <sodipodi:namedview
     id="namedview52"
     pagecolor="#ffffff"
     bordercolor="#666666"
     borderopacity="1.0"
     inkscape:pageshadow="2"
     inkscape:pageopacity="0.0"
     inkscape:pagecheckerboard="0"
     showgrid="false"
     inkscape:object-paths="false"
     inkscape:snap-intersection-paths="false"
     inkscape:snap-smooth-nodes="false"
     inkscape:snap-bbox="false"
     inkscape:snap-bbox-edge-midpoints="false"
     inkscape:bbox-nodes="false"
     showguides="true"
     inkscape:guide-bbox="true"
     inkscape:zoom="2.0000001"
     inkscape:cx="122.74999"
     inkscape:cy="137.74999"
     inkscape:window-width="1920"
     inkscape:window-height="1001"
     inkscape:window-x="-9"
     inkscape:window-y="-9"
     inkscape:window-maximized="1"
     inkscape:current-layer="Capa_1-2" />
  <defs
     id="defs4">
    <style
       id="style2">.cls-1{fill:#fff;}.cls-1,.cls-3,.cls-4{fill-rule:evenodd;}.cls-2{fill:none;stroke:#343434;stroke-linejoin:round;stroke-width:0.48px;}.cls-3{fill:#05f;}.cls-4{fill:#010101;}</style>
  </defs>
  <g
     id="Capa_2"
     data-name="Capa 2">
    <g
       id="Capa_1-2"
       data-name="Capa 1">
      <path
         d="M 0.5,290.19999 C 0.5,292.2 0.89999,294.3 1.7,296.4 c 0.8,2.1 2.1,4.09999 3.8,5.79999 1.69999,1.70001 3.6,3 5.8,3.80001 2.1,0.79999 4.2,1.2 6.2,1.2 h 272.59999 c 2,0 4.2,-0.40001 6.3,-1.2 2.1,-0.80001 4.1,-2.1 5.8,-3.80001 1.6,-1.7 2.9,-3.69999 3.7,-5.79999 0.9,-2.1 1.2,-4.2 1.2,-6.20001 V 17.6 c 0,-1.999995 -0.3,-4.2 -1.2,-6.3 -0.8,-2.1 -2.1,-4.099995 -3.7,-5.7999975 -1.7,-1.5999975 -3.7,-2.9000025 -5.8,-3.8000025 -2.1,-0.799995 -4.3,-1.2 -6.3,-1.2 H 17.5 c -2,0 -4.1,0.400005 -6.2,1.2 C 9.1,2.6 7.19999,3.900005 5.5,5.5000025 3.8,7.200005 2.5,9.2 1.7,11.3 0.89999,13.4 0.5,15.600005 0.5,17.6 v 272.59999"
         style="fill:#ffffff;fill-opacity:1;fill-rule:evenodd;stroke:none;stroke-width:0.999997;stroke-miterlimit:4;stroke-dasharray:none;stroke-opacity:1"
         id="path20-9"
         mask="none"
         inkscape:label="path44" />
      <path
         d="m 0.5,290.2 c 0,2 0.39999,4.1 1.2,6.2 0.8,2.1 2.1,4.09999 3.8,5.8 1.69999,1.7 3.6,3 5.8,3.8 2.1,0.79999 4.2,1.2 6.2,1.2 h 272.59999 c 2,0 4.2,-0.40001 6.3,-1.2 2.1,-0.8 4.1,-2.1 5.8,-3.8 1.6,-1.70001 2.9,-3.7 3.7,-5.8 0.9,-2.1 1.2,-4.2 1.2,-6.2 V 17.6 c 0,-1.999995 -0.3,-4.2 -1.2,-6.3 -0.8,-2.0999999 -2.1,-4.099995 -3.7,-5.7999974 -1.7,-1.5999975 -3.7,-2.9000025 -5.8,-3.8000025 -2.1,-0.7999951 -4.3,-1.2000001 -6.3,-1.2000001 H 17.5 c -2,0 -4.1,0.400005 -6.2,1.2000001 -2.2,0.9 -4.10001,2.200005 -5.8,3.8000025 C 3.8,7.2000051 2.5,9.2000001 1.7,11.3 0.89999,13.4 0.5,15.600005 0.5,17.6 v 272.6"
         style="fill:none;fill-opacity:1;fill-rule:evenodd;stroke:#000000;stroke-width:1;stroke-miterlimit:4;stroke-dasharray:none;stroke-opacity:1"
         id="path20-9-8"
         mask="none"
         inkscape:label="path48" />
      <path
         d="m 8,290.2 c 0,1.1 0.2,2.3 0.69999,3.5 0.40001,1.09999 1.2,2.29999 2.1,3.19999 0.9,0.9 2.00001,1.70001 3.20001,2.1 C 15.2,299.5 16.4,299.7 17.5,299.7 h 272.59999 c 1.1,0 2.3,-0.2 3.5,-0.70001 1.2,-0.39999 2.3,-1.2 3.3,-2.1 0.9,-0.9 1.6,-2.1 2.1,-3.19999 0.4,-1.2 0.6,-2.4 0.6,-3.5 V 17.6 c 0,-1.099995 -0.2,-2.299995 -0.6,-3.499995 -0.5,-1.2 -1.2,-2.300003 -2.1,-3.3 -1,-0.8999999 -2.1,-1.6000049 -3.3,-2.0999999 -1.2,-0.5000025 -2.4,-0.700005 -3.5,-0.700005 H 17.5 c -1.1,0 -2.3,0.2000025 -3.5,0.700005 -1.2,0.499995 -2.30001,1.2 -3.20001,2.0999999 -0.9,0.999997 -1.69999,2.1 -2.1,3.3 C 8.2,15.300005 8,16.4 8,17.6 v 272.6"
         style="fill:#0055ff;fill-opacity:1;fill-rule:evenodd;stroke:none;stroke-width:0.999997"
         id="path1591"
         inkscape:label="path52" />
      <path
         id="path60"
         style="fill:#ffffff;fill-opacity:1;fill-rule:evenodd;stroke:none;stroke-width:1"
         d="m 150.4003,114.49946 v 23.90039 h -47.69971 v 51.09961 h 34.1001 v 102.3003 h 34.09863 v -102.3003 h 34.00049 V 138.39985 H 157.2001 v -23.90039 z"
         inkscape:label="path56" />
      <path
         d="M 106.1,186.10001 V 141.8 h 95.4 v 44.30001 h -95.4"
         style="fill:#ff0000;fill-opacity:1;fill-rule:evenodd;stroke:none;stroke-width:1"
         id="path64"
         inkscape:label="path60" />
      <path
         d="m 100.3,45.300005 c 1.9,0 3.8,-0.800002 5.1,-2.1 1.4,-1.400002 2.2,-3.200002 2.2,-5.199997 0,-1.900006 -0.8,-3.800003 -2.2,-5.1 -1.3,-1.400003 -3.2,-2.200006 -5.1,-2.200006 -1.9,0 -3.8,0.800003 -5.2,2.200006 -1.30001,1.299997 -2.1,3.199994 -2.1,5.1 0,1.999995 0.79999,3.799995 2.1,5.199997 1.4,1.299998 3.3,2.1 5.2,2.1"
         style="fill:#fefefe;fill-opacity:1;fill-rule:evenodd;stroke:none;stroke-width:1"
         id="path72"
         inkscape:label="path64" />
      <path
         d="M 97.8,50.700005 79,75.700003 v 0 c -0.2,0.199994 -0.29999,0.6 -0.1,0.9 0.20001,0.299999 0.5,0.499995 0.8,0.499995 h 0.10001 2.3 C 82.7,77.099998 83.4,76.900002 83.9,76.4 V 76.3 L 96.40001,63.799997 97.8,75.7 89.70001,90.899995 83.9,114.2 c 1,0.2 2.10001,0.4 3.20001,0.3 1.2,-0.1 2.29999,-0.5 3.29999,-1 1.1,-0.6 2,-1.4 2.7,-2.3 0.7,-0.9 1.20001,-1.9 1.5,-2.9 v 0 l 2.9,-12.5 5.20001,-9.700005 H 102.6 c 0.20001,-0.399998 0.6,-0.600001 1.1,-0.600001 0.4,0 0.8,0.200003 1,0.600001 h 0.10001 l 3.39999,11.1 L 120.8,113.8 v 0.1 c 1.80001,-1.1 3,-2.8 3.5,-4.8 0.4,-2 0.10001,-4.1 -1,-5.8 h 0.10001 L 116.1,93.7 111.6,75.7 112.1,59.100003 119.3,64.6 v 10.399995 0 c 0,0.3 0.10001,0.599999 0.4,0.899999 0.3,0.200003 0.70001,0.200003 1.00001,0.100006 v 0 L 123,74.799999 c 1.10001,-0.500002 1.8,-1.499999 1.90001,-2.7 V 71.999998 60.400002 L 109.55655,46.949578 c -1.17425,-1.029376 -2.83143,-1.06449 -4.16914,-0.34281 z"
         style="fill:#fefefe;fill-opacity:1;fill-rule:evenodd;stroke:none;stroke-width:1;stroke-opacity:1"
         id="path76"
         sodipodi:nodetypes="ccssscsccccccccssccccscccccccccccccscscccccccc"
         inkscape:label="path68" />
      <path
         d="m 205.5,83.9 h 12.69999 c 0.1,2.1 0.6,4.299998 1.6,6.500003 1.00001,2.199997 2.50001,4.2 4.30001,5.799998 1.79999,1.700002 3.9,3 6.2,3.799999 2.2,0.8 4.5,1.1 6.6,1 2.29999,0 4.59999,-0.4 7,-1.299997 2.4,-0.900001 4.59999,-2.4 6.5,-4.300005 1.9,-1.8 3.3,-4.099995 4.2,-6.399997 0.99999,-2.4 1.39999,-4.8 1.39999,-7.100003 0,-1.299998 -0.1,-2.7 -0.4,-4.099995 -0.39999,-1.400003 -0.8,-2.900002 -1.5,-4.300006 -1.4,-2.899994 -3.59999,-5.499997 -6.5,-7.399994 -2.89999,-2.000003 -6.1,-3 -9.3,-3.200003 C 236.7,62.8 235.2,62.9 233.7,63.100003 c -1.40001,0.3 -2.7,0.699997 -3.9,1.2 l -4.70001,-8.200006 2.6,-3.799994 H 231.2 c 0.3,0 0.69999,-0.100005 0.9,-0.3 0.29999,-0.3 0.4,-0.6 0.4,-0.9 V 46.7 c -0.10001,-0.500002 -0.50001,-0.999998 -1.2,-1.2 -0.3,-0.1 -0.6,-0.1 -0.80001,0 -0.29999,0 -0.6,0.200002 -0.69999,0.3 l -10.10001,3.800003 c -0.7,0.199995 -1.09999,0.799995 -1.09999,1.5 0.1,0.3 0.19999,0.6 0.39999,0.799994 0.3,0.300001 0.60001,0.400006 0.90001,0.400006 h 3.09999 l -2.1,3.199995 H 184.2 L 185.7,52.7 184.2,46.799997 h 10.7 c 1.29999,0 2.29999,-0.999997 2.29999,-2.199997 0,-0.6 -0.2,-1.2 -0.7,-1.700002 C 196.1,42.5 195.49999,42.299997 194.9,42.299997 h -9.6 c -0.90001,0.100006 -1.90001,0.500003 -2.80001,1.200001 -0.9,0.700005 -1.6,1.700002 -1.99999,2.800005 -0.5,1.099994 -0.6,2.299995 -0.40001,3.499995 0.20001,1.100002 0.6,2.000002 1.2,2.7 L 174.6,64.900002 C 173.4,64.300003 171.99999,63.8 170.49999,63.5 c -1.39999,-0.3 -3,-0.500002 -4.59999,-0.500002 -3.4,0 -6.80001,1.000005 -9.80001,2.800005 -3.09999,1.899997 -5.39999,4.5 -6.99999,7.5 -0.8,1.399995 -1.30001,2.899995 -1.7,4.399995 -0.3,1.400002 -0.5,2.900002 -0.5,4.2 0,2.300003 0.39999,4.700003 1.29999,7.100003 1.00001,2.300002 2.40001,4.599997 4.30001,6.399997 1.9,1.900005 4.09999,3.400004 6.39999,4.300005 C 161.3,100.6 163.7,101 165.99999,101 c 2.20001,0 4.60001,-0.4 7,-1.299997 2.40001,-0.900001 4.60001,-2.4 6.50001,-4.300005 1.89999,-1.8 3.29999,-4.099995 4.2,-6.399997 1,-2.4 1.39999,-4.8 1.39999,-7.100003 0,-5.7 -2.7,-11.100001 -7.4,-14.599996 L 180.5,62.3 204.69999,83.6 c 0.2,0.200003 0.5,0.3 0.80001,0.3 M 175.59999,70.4 c 1.1,0.9 2.1,2.000002 3,3.3 0.8,1.299998 1.5,2.799998 1.90001,4.299998 0.39999,1.600004 0.6,3.100005 0.5,4.700002 -0.10001,1.599998 -0.40001,3 -0.90001,4.400003 -0.49999,1.399995 -1.2,2.7 -2.09999,3.9 -0.90001,1.299997 -2.10001,2.4 -3.4,3.3 -1.3,0.9 -2.7,1.599997 -4.2,2.099999 -1.5,0.399999 -3,0.600001 -4.40001,0.600001 -1.8,0 -3.7,-0.3 -5.6,-1.000005 C 158.49999,95.200003 156.8,94.100001 155.3,92.6 c -1.5,-1.5 -2.60001,-3.200002 -3.4,-5.1 -0.70001,-1.899997 -1.00001,-3.800002 -1.00001,-5.600002 0,-0.999998 0.10001,-2.1 0.3,-3.3 0.3,-1.2 0.70001,-2.299995 1.2,-3.499995 C 153.6,72.8 155.39999,70.7 157.8,69.2 c 2.4,-1.5 5,-2.300002 7.6,-2.4 1.3,0 2.59999,0.1 3.7,0.399998 1.19999,0.3 2.19999,0.6 3.2,1.100002 l -6.70001,10.5 c -1.8,0.3 -3,1.899997 -2.9,3.699998 0.10001,1.8 1.5,3.3 3.3,3.400005 1.3,0.1 2.60001,-0.500003 3.3,-1.700002 C 169.6,83.699998 169.79999,83 169.7,82.300003 c 0,-0.700005 -0.20001,-1.300005 -0.6,-1.8 L 175.59999,70.4 m 30.9,9.6 -23.4,-20.600002 h 36.4 L 208.29999,80 h -1.8 m 19.8,-13.899997 c -2.4,1.399995 -4.39999,3.499995 -5.89999,5.899995 -1.40001,2.4 -2.20001,5.200004 -2.3,8.000002 h -5.30001 l 10.4,-19.299997 3.1,5.4 M 237.2,78.2 231.39999,67.900003 c 1,-0.400005 2.1,-0.700005 3.2,-0.9 C 235.7,66.8 236.9,66.700003 238.2,66.8 c 2.49999,0.200003 5,0.999998 7.29999,2.600003 2.20001,1.5 3.9,3.6 5.00001,5.899995 0.6,1.100002 0.89999,2.200005 1.19999,3.400005 C 251.9,79.799998 252,80.9 252,81.899998 c 0,1.8 -0.30001,3.700005 -1.10001,5.600002 -0.7,1.899998 -1.8,3.6 -3.3,5.1 -1.5,1.500001 -3.29999,2.600003 -5.19999,3.399998 -1.8,0.700005 -3.7,1.000005 -5.5,1.000005 -1.7,0.1 -3.40001,-0.100005 -5.2,-0.700005 -1.80001,-0.6 -3.4,-1.599998 -4.9,-2.899995 -1.40001,-1.300005 -2.60001,-2.800005 -3.4,-4.5 C 222.6,87.299998 222.09999,85.499997 221.99999,83.9 H 235.2 c 0.99999,-0.399997 1.89999,-1.2 2.3,-2.4 0.19999,-0.6 0.3,-1.2 0.19999,-1.700002 0,-0.6 -0.19999,-1.099995 -0.49999,-1.599998 m -5.4,1.8 h -9.6 c 0.1,-2.000002 0.69999,-3.999997 1.69999,-5.799997 C 225,72.400002 226.4,70.900003 228,69.800001 l 4.79999,8.499996 c 0.1,0.300001 0.20001,0.700006 -0.1,1.100004 -0.2,0.399997 -0.6,0.599999 -0.9,0.599999"
         style="fill:#fefefe;fill-opacity:1;fill-rule:evenodd;stroke:none;stroke-width:1"
         id="path80"
         inkscape:label="path72" />
    </g>
  </g>
</svg>
