<svg width="336" height="504" xmlns="http://www.w3.org/2000/svg" xmlns:xlink="http://www.w3.org/1999/xlink" xml:space="preserve" overflow="hidden"><defs><clipPath id="clip0"><rect x="848" y="108" width="336" height="504"/></clipPath></defs><g clip-path="url(#clip0)" transform="translate(-848 -108)"><path d="M0.377453 484.649C0.377453 486.839 0.830396 489.103 1.69854 491.406 2.67991 493.708 4.11423 495.897 5.85052 497.747 7.70004 499.596 9.88926 501.031 12.1917 501.899 14.4942 502.767 16.9099 503.22 19.0991 503.22L316.985 503.22C319.287 503.22 321.59 502.767 323.854 501.899 326.157 501.031 328.346 499.596 330.196 497.747 332.083 495.897 333.366 493.708 334.348 491.406 335.254 489.103 335.669 486.839 335.669 484.649L335.669 19.0614C335.669 16.7589 335.254 14.4564 334.348 12.1917 333.366 9.88926 332.083 7.70004 330.196 5.85052 328.346 3.96325 326.157 2.67991 323.854 1.69854 321.59 0.792651 319.287 0.377453 316.985 0.377453L19.0991 0.377453C16.9099 0.377453 14.4942 0.792651 12.1917 1.69854 9.88926 2.67991 7.70004 3.96325 5.85052 5.85052 4.001 7.70004 2.67991 9.88926 1.69854 12.1917 0.830396 14.4564 0.377453 16.7589 0.377453 19.0614L0.377453 484.649Z" fill="#FFFFFF" transform="matrix(1.0002 0 0 1 848 108.129)"/><path d="M0.377453 484.612C0.377453 489.518 2.37795 494.237 5.88826 497.709 9.39857 501.257 14.1922 503.22 19.1369 503.22" stroke="#343434" stroke-width="0.754905" stroke-linejoin="round" fill="none" transform="matrix(1.0002 0 0 1 848 108.129)"/><path d="M19.0991 503.182 316.947 503.182" stroke="#343434" stroke-width="0.754905" stroke-linejoin="round" fill="none" transform="matrix(1.0002 0 0 1 848 108.129)"/><path d="M316.947 503.22C321.967 503.22 326.723 501.257 330.196 497.709 333.706 494.237 335.669 489.518 335.669 484.612" stroke="#343434" stroke-width="0.754905" stroke-linejoin="round" fill="none" transform="matrix(1.0002 0 0 1 848 108.129)"/><path d="M335.631 484.612 335.631 19.0614" stroke="#343434" stroke-width="0.754905" stroke-linejoin="round" fill="none" transform="matrix(1.0002 0 0 1 848 108.129)"/><path d="M335.669 19.0991C335.669 14.079 333.706 9.36083 330.196 5.88826 326.723 2.37795 321.967 0.377453 316.947 0.377453" stroke="#343434" stroke-width="0.754905" stroke-linejoin="round" fill="none" transform="matrix(1.0002 0 0 1 848 108.129)"/><path d="M316.947 0.377453 19.0991 0.377453" stroke="#343434" stroke-width="0.754905" stroke-linejoin="round" fill="none" transform="matrix(1.0002 0 0 1 848 108.129)"/><path d="M19.1369 0.377453C14.1922 0.377453 9.39857 2.37795 5.88826 5.88826 2.37795 9.36083 0.377453 14.079 0.377453 19.0991" stroke="#343434" stroke-width="0.754905" stroke-linejoin="round" fill="none" transform="matrix(1.0002 0 0 1 848 108.129)"/><path d="M0.377453 19.0614 0.377453 484.612" stroke="#343434" stroke-width="0.754905" stroke-linejoin="round" fill="none" transform="matrix(1.0002 0 0 1 848 108.129)"/><path d="M8.60592 484.649C8.60592 485.857 8.79465 487.141 9.36083 488.462 9.88926 489.783 10.6819 490.991 11.6633 491.972 12.7579 492.953 13.9658 493.821 15.2491 494.274 16.4569 494.803 17.778 495.029 19.0991 495.029L316.985 495.029C318.306 495.029 319.627 494.803 320.91 494.274 322.118 493.821 323.439 492.953 324.421 491.972 325.402 490.991 326.157 489.783 326.723 488.462 327.252 487.141 327.478 485.857 327.478 484.649L327.478 19.0614C327.478 17.7403 327.252 16.4569 326.723 15.2491 326.157 13.928 325.402 12.7202 324.421 11.6255 323.439 10.6442 322.118 9.88926 320.91 9.32308 319.627 8.79465 318.306 8.56818 316.985 8.56818L19.0991 8.56818C17.778 8.56818 16.4569 8.79465 15.2491 9.32308 13.9658 9.88926 12.7579 10.6442 11.6633 11.6255 10.6819 12.7202 9.88926 13.928 9.36083 15.2491 8.79465 16.4569 8.60592 17.7403 8.60592 19.0614L8.60592 484.649Z" fill="#0055FF" transform="matrix(1.0002 0 0 1 848 108.129)"/><path d="M28.3844 401.912 28.3844 364.582 307.699 364.582 307.699 401.912 28.3844 401.912Z" fill="#FFFFFF" transform="matrix(1.0002 0 0 1 848 108.129)"/><path d="M149.396 475.251 149.396 316.909 186.688 316.909 186.688 475.251 149.396 475.251Z" fill="#FFFFFF" transform="matrix(1.0002 0 0 1 848 108.129)"/><path d="M149.434 327.44 186.688 327.44 186.688 185.895 223.98 185.895 223.98 129.995 112.217 129.995 112.217 185.895 149.434 185.895 149.434 327.44Z" fill="#FFFFFF" transform="matrix(1.0002 0 0 1 848 108.129)"/><path d="M115.916 182.196 115.916 133.732 220.244 133.732 220.244 182.196 115.916 182.196Z" fill="#FF0000" transform="matrix(1.0002 0 0 1 848 108.129)"/><path d="M124.031 558.592 188.84 558.592" stroke="#808080" stroke-width="0.754905" stroke-linejoin="round" stroke-dasharray="4.8314 4.8314" fill="none" transform="matrix(1.0002 0 0 1 848 108.129)"/></g></svg>