<svg width="336" height="336" xmlns="http://www.w3.org/2000/svg" xmlns:xlink="http://www.w3.org/1999/xlink" xml:space="preserve" overflow="hidden"><g transform="translate(-472 -192)"><path d="M472.378 509.048C472.378 511.351 472.831 513.616 473.699 515.919 474.68 518.222 476.115 520.412 477.852 522.262 479.702 524.111 481.891 525.433 484.194 526.414 486.497 527.283 488.913 527.736 491.103 527.736L789.048 527.736C791.351 527.736 793.654 527.283 795.919 526.414 798.222 525.433 800.412 524.111 802.262 522.262 804.149 520.412 805.433 518.222 806.414 515.919 807.32 513.616 807.736 511.351 807.736 509.048L807.736 211.065C807.736 208.876 807.32 206.497 806.414 204.194 805.433 201.891 804.149 199.702 802.262 197.852 800.412 196.002 798.222 194.68 795.919 193.699 793.654 192.831 791.351 192.378 789.048 192.378L491.103 192.378C488.913 192.378 486.497 192.831 484.194 193.699 481.891 194.68 479.702 196.002 477.852 197.852 476.115 199.702 474.68 201.891 473.699 204.194 472.831 206.497 472.378 208.876 472.378 211.065L472.378 509.048Z" fill="#FFFFFF"/><path d="M472.378 509.01C472.378 514.031 474.378 518.751 477.889 522.262 481.4 525.773 486.195 527.736 491.141 527.736" stroke="#343434" stroke-width="0.755056" stroke-linejoin="round" fill="none"/><path d="M491.103 527.698 789.01 527.698" stroke="#343434" stroke-width="0.755056" stroke-linejoin="round" fill="none"/><path d="M789.01 527.736C794.031 527.736 798.788 525.773 802.262 522.262 805.773 518.751 807.736 514.031 807.736 509.01" stroke="#343434" stroke-width="0.755056" stroke-linejoin="round" fill="none"/><path d="M807.698 509.01 807.698 211.065" stroke="#343434" stroke-width="0.755056" stroke-linejoin="round" fill="none"/><path d="M807.736 211.103C807.736 206.195 805.773 201.363 802.262 197.852 798.788 194.341 794.031 192.378 789.01 192.378" stroke="#343434" stroke-width="0.755056" stroke-linejoin="round" fill="none"/><path d="M789.01 192.378 491.103 192.378" stroke="#343434" stroke-width="0.755056" stroke-linejoin="round" fill="none"/><path d="M491.141 192.378C486.195 192.378 481.4 194.341 477.889 197.852 474.378 201.363 472.378 206.195 472.378 211.103" stroke="#343434" stroke-width="0.755056" stroke-linejoin="round" fill="none"/><path d="M472.378 211.065 472.378 509.01" stroke="#343434" stroke-width="0.755056" stroke-linejoin="round" fill="none"/><path d="M480.608 509.048C480.608 510.369 480.796 511.653 481.363 512.974 481.891 514.182 482.684 515.391 483.666 516.485 484.76 517.467 485.969 518.222 487.252 518.788 488.46 519.317 489.782 519.543 491.103 519.543L789.048 519.543C790.369 519.543 791.691 519.317 792.974 518.788 794.182 518.222 795.504 517.467 796.485 516.485 797.467 515.391 798.222 514.182 798.788 512.974 799.317 511.653 799.543 510.369 799.543 509.048L799.543 211.065C799.543 209.782 799.317 208.46 798.788 207.252 798.222 205.931 797.467 204.723 796.485 203.628 795.504 202.646 794.182 201.891 792.974 201.363 791.691 200.796 790.369 200.57 789.048 200.57L491.103 200.57C489.782 200.57 488.46 200.796 487.252 201.363 485.969 201.891 484.76 202.646 483.666 203.628 482.684 204.723 481.891 205.931 481.363 207.252 480.796 208.46 480.608 209.782 480.608 211.065L480.608 509.048Z" fill="#0055FF"/><path d="M621.463 501.611 658.725 501.611 658.725 360.113 696.025 360.113 696.025 304.126 584.239 304.126 584.239 360.113 621.463 360.113 621.463 501.611Z" fill="#FFFFFF"/><path d="M587.939 356.3 587.939 307.939 692.288 307.939 692.288 356.3 587.939 356.3Z" fill="#FF0000"/></g></svg>