<svg width="336" height="504" xmlns="http://www.w3.org/2000/svg" xmlns:xlink="http://www.w3.org/1999/xlink" xml:space="preserve" overflow="hidden"><defs><clipPath id="clip0"><rect x="472" y="117" width="336" height="504"/></clipPath></defs><g clip-path="url(#clip0)" transform="translate(-472 -117)"><path d="M0.377454 484.651C0.377454 486.84 0.830399 489.105 1.69854 491.407 2.67992 493.71 4.11425 495.899 5.85054 497.749 7.70006 499.598 9.88929 501.032 12.1918 501.901 14.4942 502.769 16.9099 503.222 19.0992 503.222L316.986 503.222C319.288 503.222 321.591 502.769 323.855 501.901 326.158 501.032 328.347 499.598 330.197 497.749 332.084 495.899 333.367 493.71 334.349 491.407 335.255 489.105 335.67 486.84 335.67 484.651L335.67 19.0614C335.67 16.759 335.255 14.4565 334.349 12.1918 333.367 9.88929 332.084 7.70006 330.197 5.85054 328.347 3.96327 326.158 2.67992 323.855 1.69854 321.591 0.792653 319.288 0.377454 316.986 0.377454L19.0992 0.377454C16.9099 0.377454 14.4942 0.792653 12.1918 1.69854 9.88929 2.67992 7.70006 3.96327 5.85054 5.85054 4.00101 7.70006 2.67992 9.88929 1.69854 12.1918 0.830399 14.4565 0.377454 16.759 0.377454 19.0614L0.377454 484.651Z" fill="#FFFFFF" transform="matrix(1.0002 0 0 1 472 117.242)"/><path d="M0.377454 484.613C0.377454 489.52 2.37796 494.238 5.88828 497.711 9.3986 501.259 14.1923 503.222 19.1369 503.222" stroke="#343434" stroke-width="0.754908" stroke-linejoin="round" fill="none" transform="matrix(1.0002 0 0 1 472 117.242)"/><path d="M19.0992 503.184 316.948 503.184" stroke="#343434" stroke-width="0.754908" stroke-linejoin="round" fill="none" transform="matrix(1.0002 0 0 1 472 117.242)"/><path d="M316.948 503.222C321.968 503.222 326.724 501.259 330.197 497.711 333.707 494.238 335.67 489.52 335.67 484.613" stroke="#343434" stroke-width="0.754908" stroke-linejoin="round" fill="none" transform="matrix(1.0002 0 0 1 472 117.242)"/><path d="M335.632 484.613 335.632 19.0614" stroke="#343434" stroke-width="0.754908" stroke-linejoin="round" fill="none" transform="matrix(1.0002 0 0 1 472 117.242)"/><path d="M335.67 19.0992C335.67 14.079 333.707 9.36086 330.197 5.88828 326.724 2.37796 321.968 0.377454 316.948 0.377454" stroke="#343434" stroke-width="0.754908" stroke-linejoin="round" fill="none" transform="matrix(1.0002 0 0 1 472 117.242)"/><path d="M316.948 0.377454 19.0992 0.377454" stroke="#343434" stroke-width="0.754908" stroke-linejoin="round" fill="none" transform="matrix(1.0002 0 0 1 472 117.242)"/><path d="M19.1369 0.377454C14.1923 0.377454 9.3986 2.37796 5.88828 5.88828 2.37796 9.36086 0.377454 14.079 0.377454 19.0992" stroke="#343434" stroke-width="0.754908" stroke-linejoin="round" fill="none" transform="matrix(1.0002 0 0 1 472 117.242)"/><path d="M0.377454 19.0614 0.377454 484.613" stroke="#343434" stroke-width="0.754908" stroke-linejoin="round" fill="none" transform="matrix(1.0002 0 0 1 472 117.242)"/><path d="M8.60595 484.651C8.60595 485.859 8.79468 487.142 9.36086 488.463 9.88929 489.784 10.6819 490.992 11.6633 491.974 12.7579 492.955 13.9658 493.823 15.2491 494.276 16.457 494.804 17.7781 495.031 19.0992 495.031L316.986 495.031C318.307 495.031 319.628 494.804 320.911 494.276 322.119 493.823 323.44 492.955 324.422 491.974 325.403 490.992 326.158 489.784 326.724 488.463 327.253 487.142 327.479 485.859 327.479 484.651L327.479 19.0614C327.479 17.7403 327.253 16.457 326.724 15.2491 326.158 13.9281 325.403 12.7202 324.422 11.6256 323.44 10.6442 322.119 9.88929 320.911 9.32311 319.628 8.79468 318.307 8.5682 316.986 8.5682L19.0992 8.5682C17.7781 8.5682 16.457 8.79468 15.2491 9.32311 13.9658 9.88929 12.7579 10.6442 11.6633 11.6256 10.6819 12.7202 9.88929 13.9281 9.36086 15.2491 8.79468 16.457 8.60595 17.7403 8.60595 19.0614L8.60595 484.651Z" fill="#0055FF" transform="matrix(1.0002 0 0 1 472 117.242)"/><path d="M223.981 461.136 261.123 461.136 261.123 256.254 279.807 256.254 279.807 51.4092 223.981 51.4092 223.981 256.254 242.552 256.254 242.552 373.491 51.447 36.0091 19.0992 54.3534 218.395 406.367C220.018 409.424 221.452 412.821 222.434 416.332 223.302 419.729 223.868 423.315 223.981 426.825L223.981 461.136Z" fill="#FFFFFF" transform="matrix(1.0002 0 0 1 472 117.242)"/><path d="M235.003 250.894C235.003 249.271 233.682 248.063 232.134 248.063 230.587 248.063 229.379 249.271 229.379 250.894 229.379 252.441 230.587 253.687 232.134 253.687 233.682 253.687 235.003 252.441 235.003 250.894Z" fill="#010101" transform="matrix(1.0002 0 0 1 472 117.242)"/><path d="M246.138 250.894C246.138 249.271 244.968 248.063 243.382 248.063 241.759 248.063 240.551 249.271 240.551 250.894 240.551 252.441 241.759 253.687 243.382 253.687 244.968 253.687 246.138 252.441 246.138 250.894Z" fill="#010101" transform="matrix(1.0002 0 0 1 472 117.242)"/><path d="M257.31 250.894C257.31 249.271 256.103 248.063 254.517 248.063 253.007 248.063 251.686 249.271 251.686 250.894 251.686 252.441 253.007 253.687 254.517 253.687 256.103 253.687 257.31 252.441 257.31 250.894Z" fill="#010101" transform="matrix(1.0002 0 0 1 472 117.242)"/><path d="M268.559 250.894C268.559 249.271 267.237 248.063 265.69 248.063 264.142 248.063 262.859 249.271 262.859 250.894 262.859 252.441 264.142 253.687 265.69 253.687 267.237 253.687 268.559 252.441 268.559 250.894Z" fill="#010101" transform="matrix(1.0002 0 0 1 472 117.242)"/><path d="M279.731 250.894C279.731 249.271 278.41 248.063 276.825 248.063 275.315 248.063 274.107 249.271 274.107 250.894 274.107 252.441 275.315 253.687 276.825 253.687 278.41 253.687 279.731 252.441 279.731 250.894Z" fill="#010101" transform="matrix(1.0002 0 0 1 472 117.242)"/><path d="M229.643 244.401C229.643 242.854 228.322 241.495 226.774 241.495 225.227 241.495 224.057 242.854 224.057 244.401 224.057 245.911 225.227 247.232 226.774 247.232 228.322 247.232 229.643 245.911 229.643 244.401Z" fill="#010101" transform="matrix(1.0002 0 0 1 472 117.242)"/><path d="M240.816 244.401C240.816 242.854 239.608 241.495 237.909 241.495 236.399 241.495 235.192 242.854 235.192 244.401 235.192 245.911 236.399 247.232 237.909 247.232 239.608 247.232 240.816 245.911 240.816 244.401Z" fill="#010101" transform="matrix(1.0002 0 0 1 472 117.242)"/><path d="M251.951 244.401C251.951 242.854 250.743 241.495 249.195 241.495 247.648 241.495 246.326 242.854 246.326 244.401 246.326 245.911 247.648 247.232 249.195 247.232 250.743 247.232 251.951 245.911 251.951 244.401Z" fill="#010101" transform="matrix(1.0002 0 0 1 472 117.242)"/><path d="M263.085 244.401C263.085 242.854 261.878 241.495 260.33 241.495 258.782 241.495 257.499 242.854 257.499 244.401 257.499 245.911 258.782 247.232 260.33 247.232 261.878 247.232 263.085 245.911 263.085 244.401Z" fill="#010101" transform="matrix(1.0002 0 0 1 472 117.242)"/><path d="M274.371 244.401C274.371 242.854 273.05 241.495 271.465 241.495 269.955 241.495 268.747 242.854 268.747 244.401 268.747 245.911 269.955 247.232 271.465 247.232 273.05 247.232 274.371 245.911 274.371 244.401Z" fill="#010101" transform="matrix(1.0002 0 0 1 472 117.242)"/><path d="M235.003 237.834C235.003 236.286 233.682 235.041 232.134 235.041 230.587 235.041 229.379 236.286 229.379 237.834 229.379 239.344 230.587 240.665 232.134 240.665 233.682 240.665 235.003 239.344 235.003 237.834Z" fill="#010101" transform="matrix(1.0002 0 0 1 472 117.242)"/><path d="M246.138 237.834C246.138 236.286 244.968 235.041 243.382 235.041 241.759 235.041 240.551 236.286 240.551 237.834 240.551 239.344 241.759 240.665 243.382 240.665 244.968 240.665 246.138 239.344 246.138 237.834Z" fill="#010101" transform="matrix(1.0002 0 0 1 472 117.242)"/><path d="M257.31 237.834C257.31 236.286 256.103 235.041 254.517 235.041 253.007 235.041 251.686 236.286 251.686 237.834 251.686 239.344 253.007 240.665 254.517 240.665 256.103 240.665 257.31 239.344 257.31 237.834Z" fill="#010101" transform="matrix(1.0002 0 0 1 472 117.242)"/><path d="M268.559 237.834C268.559 236.286 267.237 235.041 265.69 235.041 264.142 235.041 262.859 236.286 262.859 237.834 262.859 239.344 264.142 240.665 265.69 240.665 267.237 240.665 268.559 239.344 268.559 237.834Z" fill="#010101" transform="matrix(1.0002 0 0 1 472 117.242)"/><path d="M279.731 237.834C279.731 236.286 278.41 235.041 276.825 235.041 275.315 235.041 274.107 236.286 274.107 237.834 274.107 239.344 275.315 240.665 276.825 240.665 278.41 240.665 279.731 239.344 279.731 237.834Z" fill="#010101" transform="matrix(1.0002 0 0 1 472 117.242)"/><path d="M229.643 231.379C229.643 229.794 228.322 228.511 226.774 228.511 225.227 228.511 224.057 229.794 224.057 231.379 224.057 232.889 225.227 234.097 226.774 234.097 228.322 234.097 229.643 232.889 229.643 231.379Z" fill="#010101" transform="matrix(1.0002 0 0 1 472 117.242)"/><path d="M240.816 231.379C240.816 229.794 239.608 228.511 237.909 228.511 236.399 228.511 235.192 229.794 235.192 231.379 235.192 232.889 236.399 234.097 237.909 234.097 239.608 234.097 240.816 232.889 240.816 231.379Z" fill="#010101" transform="matrix(1.0002 0 0 1 472 117.242)"/><path d="M251.951 231.379C251.951 229.794 250.743 228.511 249.195 228.511 247.648 228.511 246.326 229.794 246.326 231.379 246.326 232.889 247.648 234.097 249.195 234.097 250.743 234.097 251.951 232.889 251.951 231.379Z" fill="#010101" transform="matrix(1.0002 0 0 1 472 117.242)"/><path d="M263.085 231.379C263.085 229.794 261.878 228.511 260.33 228.511 258.782 228.511 257.499 229.794 257.499 231.379 257.499 232.889 258.782 234.097 260.33 234.097 261.878 234.097 263.085 232.889 263.085 231.379Z" fill="#010101" transform="matrix(1.0002 0 0 1 472 117.242)"/><path d="M274.371 231.379C274.371 229.794 273.05 228.511 271.465 228.511 269.955 228.511 268.747 229.794 268.747 231.379 268.747 232.889 269.955 234.097 271.465 234.097 273.05 234.097 274.371 232.889 274.371 231.379Z" fill="#010101" transform="matrix(1.0002 0 0 1 472 117.242)"/><path d="M235.003 224.774C235.003 223.264 233.682 222.056 232.134 222.056 230.587 222.056 229.379 223.264 229.379 224.774 229.379 226.359 230.587 227.642 232.134 227.642 233.682 227.642 235.003 226.359 235.003 224.774Z" fill="#010101" transform="matrix(1.0002 0 0 1 472 117.242)"/><path d="M246.138 224.774C246.138 223.264 244.968 222.056 243.382 222.056 241.759 222.056 240.551 223.264 240.551 224.774 240.551 226.359 241.759 227.642 243.382 227.642 244.968 227.642 246.138 226.359 246.138 224.774Z" fill="#010101" transform="matrix(1.0002 0 0 1 472 117.242)"/><path d="M257.31 224.774C257.31 223.264 256.103 222.056 254.517 222.056 253.007 222.056 251.686 223.264 251.686 224.774 251.686 226.359 253.007 227.642 254.517 227.642 256.103 227.642 257.31 226.359 257.31 224.774Z" fill="#010101" transform="matrix(1.0002 0 0 1 472 117.242)"/><path d="M268.559 224.774C268.559 223.264 267.237 222.056 265.69 222.056 264.142 222.056 262.859 223.264 262.859 224.774 262.859 226.359 264.142 227.642 265.69 227.642 267.237 227.642 268.559 226.359 268.559 224.774Z" fill="#010101" transform="matrix(1.0002 0 0 1 472 117.242)"/><path d="M279.731 224.774C279.731 223.264 278.41 222.056 276.825 222.056 275.315 222.056 274.107 223.264 274.107 224.774 274.107 226.359 275.315 227.642 276.825 227.642 278.41 227.642 279.731 226.359 279.731 224.774Z" fill="#010101" transform="matrix(1.0002 0 0 1 472 117.242)"/><path d="M229.643 218.206C229.643 216.696 228.322 215.488 226.774 215.488 225.227 215.488 224.057 216.696 224.057 218.206 224.057 219.905 225.227 221.113 226.774 221.113 228.322 221.113 229.643 219.905 229.643 218.206Z" fill="#010101" transform="matrix(1.0002 0 0 1 472 117.242)"/><path d="M240.816 218.206C240.816 216.696 239.608 215.488 237.909 215.488 236.399 215.488 235.192 216.696 235.192 218.206 235.192 219.905 236.399 221.113 237.909 221.113 239.608 221.113 240.816 219.905 240.816 218.206Z" fill="#010101" transform="matrix(1.0002 0 0 1 472 117.242)"/><path d="M251.951 218.206C251.951 216.696 250.743 215.488 249.195 215.488 247.648 215.488 246.326 216.696 246.326 218.206 246.326 219.905 247.648 221.113 249.195 221.113 250.743 221.113 251.951 219.905 251.951 218.206Z" fill="#010101" transform="matrix(1.0002 0 0 1 472 117.242)"/><path d="M263.085 218.206C263.085 216.696 261.878 215.488 260.33 215.488 258.782 215.488 257.499 216.696 257.499 218.206 257.499 219.905 258.782 221.113 260.33 221.113 261.878 221.113 263.085 219.905 263.085 218.206Z" fill="#010101" transform="matrix(1.0002 0 0 1 472 117.242)"/><path d="M274.371 218.206C274.371 216.696 273.05 215.488 271.465 215.488 269.955 215.488 268.747 216.696 268.747 218.206 268.747 219.905 269.955 221.113 271.465 221.113 273.05 221.113 274.371 219.905 274.371 218.206Z" fill="#010101" transform="matrix(1.0002 0 0 1 472 117.242)"/><path d="M235.003 211.789C235.003 210.242 233.682 208.921 232.134 208.921 230.587 208.921 229.379 210.242 229.379 211.789 229.379 213.299 230.587 214.545 232.134 214.545 233.682 214.545 235.003 213.299 235.003 211.789Z" fill="#010101" transform="matrix(1.0002 0 0 1 472 117.242)"/><path d="M246.138 211.789C246.138 210.242 244.968 208.921 243.382 208.921 241.759 208.921 240.551 210.242 240.551 211.789 240.551 213.299 241.759 214.545 243.382 214.545 244.968 214.545 246.138 213.299 246.138 211.789Z" fill="#010101" transform="matrix(1.0002 0 0 1 472 117.242)"/><path d="M257.31 211.789C257.31 210.242 256.103 208.921 254.517 208.921 253.007 208.921 251.686 210.242 251.686 211.789 251.686 213.299 253.007 214.545 254.517 214.545 256.103 214.545 257.31 213.299 257.31 211.789Z" fill="#010101" transform="matrix(1.0002 0 0 1 472 117.242)"/><path d="M268.559 211.789C268.559 210.242 267.237 208.921 265.69 208.921 264.142 208.921 262.859 210.242 262.859 211.789 262.859 213.299 264.142 214.545 265.69 214.545 267.237 214.545 268.559 213.299 268.559 211.789Z" fill="#010101" transform="matrix(1.0002 0 0 1 472 117.242)"/><path d="M279.731 211.789C279.731 210.242 278.41 208.921 276.825 208.921 275.315 208.921 274.107 210.242 274.107 211.789 274.107 213.299 275.315 214.545 276.825 214.545 278.41 214.545 279.731 213.299 279.731 211.789Z" fill="#010101" transform="matrix(1.0002 0 0 1 472 117.242)"/><path d="M229.643 205.259C229.643 203.712 228.322 202.466 226.774 202.466 225.227 202.466 224.057 203.712 224.057 205.259 224.057 206.769 225.227 208.09 226.774 208.09 228.322 208.09 229.643 206.769 229.643 205.259Z" fill="#010101" transform="matrix(1.0002 0 0 1 472 117.242)"/><path d="M240.816 205.259C240.816 203.712 239.608 202.466 237.909 202.466 236.399 202.466 235.192 203.712 235.192 205.259 235.192 206.769 236.399 208.09 237.909 208.09 239.608 208.09 240.816 206.769 240.816 205.259Z" fill="#010101" transform="matrix(1.0002 0 0 1 472 117.242)"/><path d="M251.951 205.259C251.951 203.712 250.743 202.466 249.195 202.466 247.648 202.466 246.326 203.712 246.326 205.259 246.326 206.769 247.648 208.09 249.195 208.09 250.743 208.09 251.951 206.769 251.951 205.259Z" fill="#010101" transform="matrix(1.0002 0 0 1 472 117.242)"/><path d="M263.085 205.259C263.085 203.712 261.878 202.466 260.33 202.466 258.782 202.466 257.499 203.712 257.499 205.259 257.499 206.769 258.782 208.09 260.33 208.09 261.878 208.09 263.085 206.769 263.085 205.259Z" fill="#010101" transform="matrix(1.0002 0 0 1 472 117.242)"/><path d="M274.371 205.259C274.371 203.712 273.05 202.466 271.465 202.466 269.955 202.466 268.747 203.712 268.747 205.259 268.747 206.769 269.955 208.09 271.465 208.09 273.05 208.09 274.371 206.769 274.371 205.259Z" fill="#010101" transform="matrix(1.0002 0 0 1 472 117.242)"/><path d="M235.003 198.805C235.003 197.106 233.682 195.936 232.134 195.936 230.587 195.936 229.379 197.106 229.379 198.805 229.379 200.315 230.587 201.523 232.134 201.523 233.682 201.523 235.003 200.315 235.003 198.805Z" fill="#010101" transform="matrix(1.0002 0 0 1 472 117.242)"/><path d="M246.138 198.805C246.138 197.106 244.968 195.936 243.382 195.936 241.759 195.936 240.551 197.106 240.551 198.805 240.551 200.315 241.759 201.523 243.382 201.523 244.968 201.523 246.138 200.315 246.138 198.805Z" fill="#010101" transform="matrix(1.0002 0 0 1 472 117.242)"/><path d="M257.31 198.805C257.31 197.106 256.103 195.936 254.517 195.936 253.007 195.936 251.686 197.106 251.686 198.805 251.686 200.315 253.007 201.523 254.517 201.523 256.103 201.523 257.31 200.315 257.31 198.805Z" fill="#010101" transform="matrix(1.0002 0 0 1 472 117.242)"/><path d="M268.559 198.805C268.559 197.106 267.237 195.936 265.69 195.936 264.142 195.936 262.859 197.106 262.859 198.805 262.859 200.315 264.142 201.523 265.69 201.523 267.237 201.523 268.559 200.315 268.559 198.805Z" fill="#010101" transform="matrix(1.0002 0 0 1 472 117.242)"/><path d="M279.731 198.805C279.731 197.106 278.41 195.936 276.825 195.936 275.315 195.936 274.107 197.106 274.107 198.805 274.107 200.315 275.315 201.523 276.825 201.523 278.41 201.523 279.731 200.315 279.731 198.805Z" fill="#010101" transform="matrix(1.0002 0 0 1 472 117.242)"/><path d="M229.643 192.237C229.643 190.69 228.322 189.369 226.774 189.369 225.227 189.369 224.057 190.69 224.057 192.237 224.057 193.785 225.227 195.068 226.774 195.068 228.322 195.068 229.643 193.785 229.643 192.237Z" fill="#010101" transform="matrix(1.0002 0 0 1 472 117.242)"/><path d="M240.816 192.237C240.816 190.69 239.608 189.369 237.909 189.369 236.399 189.369 235.192 190.69 235.192 192.237 235.192 193.785 236.399 195.068 237.909 195.068 239.608 195.068 240.816 193.785 240.816 192.237Z" fill="#010101" transform="matrix(1.0002 0 0 1 472 117.242)"/><path d="M251.951 192.237C251.951 190.69 250.743 189.369 249.195 189.369 247.648 189.369 246.326 190.69 246.326 192.237 246.326 193.785 247.648 195.068 249.195 195.068 250.743 195.068 251.951 193.785 251.951 192.237Z" fill="#010101" transform="matrix(1.0002 0 0 1 472 117.242)"/><path d="M263.085 192.237C263.085 190.69 261.878 189.369 260.33 189.369 258.782 189.369 257.499 190.69 257.499 192.237 257.499 193.785 258.782 195.068 260.33 195.068 261.878 195.068 263.085 193.785 263.085 192.237Z" fill="#010101" transform="matrix(1.0002 0 0 1 472 117.242)"/><path d="M274.371 192.237C274.371 190.69 273.05 189.369 271.465 189.369 269.955 189.369 268.747 190.69 268.747 192.237 268.747 193.785 269.955 195.068 271.465 195.068 273.05 195.068 274.371 193.785 274.371 192.237Z" fill="#010101" transform="matrix(1.0002 0 0 1 472 117.242)"/><path d="M235.003 185.632C235.003 184.122 233.682 182.914 232.134 182.914 230.587 182.914 229.379 184.122 229.379 185.632 229.379 187.217 230.587 188.538 232.134 188.538 233.682 188.538 235.003 187.217 235.003 185.632Z" fill="#010101" transform="matrix(1.0002 0 0 1 472 117.242)"/><path d="M246.138 185.632C246.138 184.122 244.968 182.914 243.382 182.914 241.759 182.914 240.551 184.122 240.551 185.632 240.551 187.217 241.759 188.538 243.382 188.538 244.968 188.538 246.138 187.217 246.138 185.632Z" fill="#010101" transform="matrix(1.0002 0 0 1 472 117.242)"/><path d="M257.31 185.632C257.31 184.122 256.103 182.914 254.517 182.914 253.007 182.914 251.686 184.122 251.686 185.632 251.686 187.217 253.007 188.538 254.517 188.538 256.103 188.538 257.31 187.217 257.31 185.632Z" fill="#010101" transform="matrix(1.0002 0 0 1 472 117.242)"/><path d="M268.559 185.632C268.559 184.122 267.237 182.914 265.69 182.914 264.142 182.914 262.859 184.122 262.859 185.632 262.859 187.217 264.142 188.538 265.69 188.538 267.237 188.538 268.559 187.217 268.559 185.632Z" fill="#010101" transform="matrix(1.0002 0 0 1 472 117.242)"/><path d="M279.731 185.632C279.731 184.122 278.41 182.914 276.825 182.914 275.315 182.914 274.107 184.122 274.107 185.632 274.107 187.217 275.315 188.538 276.825 188.538 278.41 188.538 279.731 187.217 279.731 185.632Z" fill="#010101" transform="matrix(1.0002 0 0 1 472 117.242)"/><path d="M229.643 179.215C229.643 177.668 228.322 176.346 226.774 176.346 225.227 176.346 224.057 177.668 224.057 179.215 224.057 180.763 225.227 181.971 226.774 181.971 228.322 181.971 229.643 180.763 229.643 179.215Z" fill="#010101" transform="matrix(1.0002 0 0 1 472 117.242)"/><path d="M240.816 179.215C240.816 177.668 239.608 176.346 237.909 176.346 236.399 176.346 235.192 177.668 235.192 179.215 235.192 180.763 236.399 181.971 237.909 181.971 239.608 181.971 240.816 180.763 240.816 179.215Z" fill="#010101" transform="matrix(1.0002 0 0 1 472 117.242)"/><path d="M251.951 179.215C251.951 177.668 250.743 176.346 249.195 176.346 247.648 176.346 246.326 177.668 246.326 179.215 246.326 180.763 247.648 181.971 249.195 181.971 250.743 181.971 251.951 180.763 251.951 179.215Z" fill="#010101" transform="matrix(1.0002 0 0 1 472 117.242)"/><path d="M263.085 179.215C263.085 177.668 261.878 176.346 260.33 176.346 258.782 176.346 257.499 177.668 257.499 179.215 257.499 180.763 258.782 181.971 260.33 181.971 261.878 181.971 263.085 180.763 263.085 179.215Z" fill="#010101" transform="matrix(1.0002 0 0 1 472 117.242)"/><path d="M274.371 179.215C274.371 177.668 273.05 176.346 271.465 176.346 269.955 176.346 268.747 177.668 268.747 179.215 268.747 180.763 269.955 181.971 271.465 181.971 273.05 181.971 274.371 180.763 274.371 179.215Z" fill="#010101" transform="matrix(1.0002 0 0 1 472 117.242)"/><path d="M235.003 172.647C235.003 171.1 233.682 169.892 232.134 169.892 230.587 169.892 229.379 171.1 229.379 172.647 229.379 174.157 230.587 175.516 232.134 175.516 233.682 175.516 235.003 174.157 235.003 172.647Z" fill="#010101" transform="matrix(1.0002 0 0 1 472 117.242)"/><path d="M246.138 172.647C246.138 171.1 244.968 169.892 243.382 169.892 241.759 169.892 240.551 171.1 240.551 172.647 240.551 174.157 241.759 175.516 243.382 175.516 244.968 175.516 246.138 174.157 246.138 172.647Z" fill="#010101" transform="matrix(1.0002 0 0 1 472 117.242)"/><path d="M257.31 172.647C257.31 171.1 256.103 169.892 254.517 169.892 253.007 169.892 251.686 171.1 251.686 172.647 251.686 174.157 253.007 175.516 254.517 175.516 256.103 175.516 257.31 174.157 257.31 172.647Z" fill="#010101" transform="matrix(1.0002 0 0 1 472 117.242)"/><path d="M268.559 172.647C268.559 171.1 267.237 169.892 265.69 169.892 264.142 169.892 262.859 171.1 262.859 172.647 262.859 174.157 264.142 175.516 265.69 175.516 267.237 175.516 268.559 174.157 268.559 172.647Z" fill="#010101" transform="matrix(1.0002 0 0 1 472 117.242)"/><path d="M279.731 172.647C279.731 171.1 278.41 169.892 276.825 169.892 275.315 169.892 274.107 171.1 274.107 172.647 274.107 174.157 275.315 175.516 276.825 175.516 278.41 175.516 279.731 174.157 279.731 172.647Z" fill="#010101" transform="matrix(1.0002 0 0 1 472 117.242)"/><path d="M229.643 166.117C229.643 164.57 228.322 163.362 226.774 163.362 225.227 163.362 224.057 164.57 224.057 166.117 224.057 167.741 225.227 168.948 226.774 168.948 228.322 168.948 229.643 167.741 229.643 166.117Z" fill="#010101" transform="matrix(1.0002 0 0 1 472 117.242)"/><path d="M240.816 166.117C240.816 164.57 239.608 163.362 237.909 163.362 236.399 163.362 235.192 164.57 235.192 166.117 235.192 167.741 236.399 168.948 237.909 168.948 239.608 168.948 240.816 167.741 240.816 166.117Z" fill="#010101" transform="matrix(1.0002 0 0 1 472 117.242)"/><path d="M251.951 166.117C251.951 164.57 250.743 163.362 249.195 163.362 247.648 163.362 246.326 164.57 246.326 166.117 246.326 167.741 247.648 168.948 249.195 168.948 250.743 168.948 251.951 167.741 251.951 166.117Z" fill="#010101" transform="matrix(1.0002 0 0 1 472 117.242)"/><path d="M263.085 166.117C263.085 164.57 261.878 163.362 260.33 163.362 258.782 163.362 257.499 164.57 257.499 166.117 257.499 167.741 258.782 168.948 260.33 168.948 261.878 168.948 263.085 167.741 263.085 166.117Z" fill="#010101" transform="matrix(1.0002 0 0 1 472 117.242)"/><path d="M274.371 166.117C274.371 164.57 273.05 163.362 271.465 163.362 269.955 163.362 268.747 164.57 268.747 166.117 268.747 167.741 269.955 168.948 271.465 168.948 273.05 168.948 274.371 167.741 274.371 166.117Z" fill="#010101" transform="matrix(1.0002 0 0 1 472 117.242)"/><path d="M235.003 159.663C235.003 158.115 233.682 156.794 232.134 156.794 230.587 156.794 229.379 158.115 229.379 159.663 229.379 161.211 230.587 162.418 232.134 162.418 233.682 162.418 235.003 161.211 235.003 159.663Z" fill="#010101" transform="matrix(1.0002 0 0 1 472 117.242)"/><path d="M246.138 159.663C246.138 158.115 244.968 156.794 243.382 156.794 241.759 156.794 240.551 158.115 240.551 159.663 240.551 161.211 241.759 162.418 243.382 162.418 244.968 162.418 246.138 161.211 246.138 159.663Z" fill="#010101" transform="matrix(1.0002 0 0 1 472 117.242)"/><path d="M257.31 159.663C257.31 158.115 256.103 156.794 254.517 156.794 253.007 156.794 251.686 158.115 251.686 159.663 251.686 161.211 253.007 162.418 254.517 162.418 256.103 162.418 257.31 161.211 257.31 159.663Z" fill="#010101" transform="matrix(1.0002 0 0 1 472 117.242)"/><path d="M268.559 159.663C268.559 158.115 267.237 156.794 265.69 156.794 264.142 156.794 262.859 158.115 262.859 159.663 262.859 161.211 264.142 162.418 265.69 162.418 267.237 162.418 268.559 161.211 268.559 159.663Z" fill="#010101" transform="matrix(1.0002 0 0 1 472 117.242)"/><path d="M279.731 159.663C279.731 158.115 278.41 156.794 276.825 156.794 275.315 156.794 274.107 158.115 274.107 159.663 274.107 161.211 275.315 162.418 276.825 162.418 278.41 162.418 279.731 161.211 279.731 159.663Z" fill="#010101" transform="matrix(1.0002 0 0 1 472 117.242)"/><path d="M229.643 153.095C229.643 151.548 228.322 150.34 226.774 150.34 225.227 150.34 224.057 151.548 224.057 153.095 224.057 154.643 225.227 155.964 226.774 155.964 228.322 155.964 229.643 154.643 229.643 153.095Z" fill="#010101" transform="matrix(1.0002 0 0 1 472 117.242)"/><path d="M240.816 153.095C240.816 151.548 239.608 150.34 237.909 150.34 236.399 150.34 235.192 151.548 235.192 153.095 235.192 154.643 236.399 155.964 237.909 155.964 239.608 155.964 240.816 154.643 240.816 153.095Z" fill="#010101" transform="matrix(1.0002 0 0 1 472 117.242)"/><path d="M251.951 153.095C251.951 151.548 250.743 150.34 249.195 150.34 247.648 150.34 246.326 151.548 246.326 153.095 246.326 154.643 247.648 155.964 249.195 155.964 250.743 155.964 251.951 154.643 251.951 153.095Z" fill="#010101" transform="matrix(1.0002 0 0 1 472 117.242)"/><path d="M263.085 153.095C263.085 151.548 261.878 150.34 260.33 150.34 258.782 150.34 257.499 151.548 257.499 153.095 257.499 154.643 258.782 155.964 260.33 155.964 261.878 155.964 263.085 154.643 263.085 153.095Z" fill="#010101" transform="matrix(1.0002 0 0 1 472 117.242)"/><path d="M274.371 153.095C274.371 151.548 273.05 150.34 271.465 150.34 269.955 150.34 268.747 151.548 268.747 153.095 268.747 154.643 269.955 155.964 271.465 155.964 273.05 155.964 274.371 154.643 274.371 153.095Z" fill="#010101" transform="matrix(1.0002 0 0 1 472 117.242)"/><path d="M235.003 146.641C235.003 144.98 233.682 143.772 232.134 143.772 230.587 143.772 229.379 144.98 229.379 146.641 229.379 148.188 230.587 149.396 232.134 149.396 233.682 149.396 235.003 148.188 235.003 146.641Z" fill="#010101" transform="matrix(1.0002 0 0 1 472 117.242)"/><path d="M246.138 146.641C246.138 144.98 244.968 143.772 243.382 143.772 241.759 143.772 240.551 144.98 240.551 146.641 240.551 148.188 241.759 149.396 243.382 149.396 244.968 149.396 246.138 148.188 246.138 146.641Z" fill="#010101" transform="matrix(1.0002 0 0 1 472 117.242)"/><path d="M257.31 146.641C257.31 144.98 256.103 143.772 254.517 143.772 253.007 143.772 251.686 144.98 251.686 146.641 251.686 148.188 253.007 149.396 254.517 149.396 256.103 149.396 257.31 148.188 257.31 146.641Z" fill="#010101" transform="matrix(1.0002 0 0 1 472 117.242)"/><path d="M268.559 146.641C268.559 144.98 267.237 143.772 265.69 143.772 264.142 143.772 262.859 144.98 262.859 146.641 262.859 148.188 264.142 149.396 265.69 149.396 267.237 149.396 268.559 148.188 268.559 146.641Z" fill="#010101" transform="matrix(1.0002 0 0 1 472 117.242)"/><path d="M279.731 146.641C279.731 144.98 278.41 143.772 276.825 143.772 275.315 143.772 274.107 144.98 274.107 146.641 274.107 148.188 275.315 149.396 276.825 149.396 278.41 149.396 279.731 148.188 279.731 146.641Z" fill="#010101" transform="matrix(1.0002 0 0 1 472 117.242)"/><path d="M229.643 140.073C229.643 138.526 228.322 137.242 226.774 137.242 225.227 137.242 224.057 138.526 224.057 140.073 224.057 141.621 225.227 142.942 226.774 142.942 228.322 142.942 229.643 141.621 229.643 140.073Z" fill="#010101" transform="matrix(1.0002 0 0 1 472 117.242)"/><path d="M240.816 140.073C240.816 138.526 239.608 137.242 237.909 137.242 236.399 137.242 235.192 138.526 235.192 140.073 235.192 141.621 236.399 142.942 237.909 142.942 239.608 142.942 240.816 141.621 240.816 140.073Z" fill="#010101" transform="matrix(1.0002 0 0 1 472 117.242)"/><path d="M251.951 140.073C251.951 138.526 250.743 137.242 249.195 137.242 247.648 137.242 246.326 138.526 246.326 140.073 246.326 141.621 247.648 142.942 249.195 142.942 250.743 142.942 251.951 141.621 251.951 140.073Z" fill="#010101" transform="matrix(1.0002 0 0 1 472 117.242)"/><path d="M263.085 140.073C263.085 138.526 261.878 137.242 260.33 137.242 258.782 137.242 257.499 138.526 257.499 140.073 257.499 141.621 258.782 142.942 260.33 142.942 261.878 142.942 263.085 141.621 263.085 140.073Z" fill="#010101" transform="matrix(1.0002 0 0 1 472 117.242)"/><path d="M274.371 140.073C274.371 138.526 273.05 137.242 271.465 137.242 269.955 137.242 268.747 138.526 268.747 140.073 268.747 141.621 269.955 142.942 271.465 142.942 273.05 142.942 274.371 141.621 274.371 140.073Z" fill="#010101" transform="matrix(1.0002 0 0 1 472 117.242)"/><path d="M235.003 133.505C235.003 131.996 233.682 130.788 232.134 130.788 230.587 130.788 229.379 131.996 229.379 133.505 229.379 135.053 230.587 136.374 232.134 136.374 233.682 136.374 235.003 135.053 235.003 133.505Z" fill="#010101" transform="matrix(1.0002 0 0 1 472 117.242)"/><path d="M246.138 133.505C246.138 131.996 244.968 130.788 243.382 130.788 241.759 130.788 240.551 131.996 240.551 133.505 240.551 135.053 241.759 136.374 243.382 136.374 244.968 136.374 246.138 135.053 246.138 133.505Z" fill="#010101" transform="matrix(1.0002 0 0 1 472 117.242)"/><path d="M257.31 133.505C257.31 131.996 256.103 130.788 254.517 130.788 253.007 130.788 251.686 131.996 251.686 133.505 251.686 135.053 253.007 136.374 254.517 136.374 256.103 136.374 257.31 135.053 257.31 133.505Z" fill="#010101" transform="matrix(1.0002 0 0 1 472 117.242)"/><path d="M268.559 133.505C268.559 131.996 267.237 130.788 265.69 130.788 264.142 130.788 262.859 131.996 262.859 133.505 262.859 135.053 264.142 136.374 265.69 136.374 267.237 136.374 268.559 135.053 268.559 133.505Z" fill="#010101" transform="matrix(1.0002 0 0 1 472 117.242)"/><path d="M279.731 133.505C279.731 131.996 278.41 130.788 276.825 130.788 275.315 130.788 274.107 131.996 274.107 133.505 274.107 135.053 275.315 136.374 276.825 136.374 278.41 136.374 279.731 135.053 279.731 133.505Z" fill="#010101" transform="matrix(1.0002 0 0 1 472 117.242)"/><path d="M229.643 127.089C229.643 125.579 228.322 124.22 226.774 124.22 225.227 124.22 224.057 125.579 224.057 127.089 224.057 128.636 225.227 129.844 226.774 129.844 228.322 129.844 229.643 128.636 229.643 127.089Z" fill="#010101" transform="matrix(1.0002 0 0 1 472 117.242)"/><path d="M240.816 127.089C240.816 125.579 239.608 124.22 237.909 124.22 236.399 124.22 235.192 125.579 235.192 127.089 235.192 128.636 236.399 129.844 237.909 129.844 239.608 129.844 240.816 128.636 240.816 127.089Z" fill="#010101" transform="matrix(1.0002 0 0 1 472 117.242)"/><path d="M251.951 127.089C251.951 125.579 250.743 124.22 249.195 124.22 247.648 124.22 246.326 125.579 246.326 127.089 246.326 128.636 247.648 129.844 249.195 129.844 250.743 129.844 251.951 128.636 251.951 127.089Z" fill="#010101" transform="matrix(1.0002 0 0 1 472 117.242)"/><path d="M263.085 127.089C263.085 125.579 261.878 124.22 260.33 124.22 258.782 124.22 257.499 125.579 257.499 127.089 257.499 128.636 258.782 129.844 260.33 129.844 261.878 129.844 263.085 128.636 263.085 127.089Z" fill="#010101" transform="matrix(1.0002 0 0 1 472 117.242)"/><path d="M274.371 127.089C274.371 125.579 273.05 124.22 271.465 124.22 269.955 124.22 268.747 125.579 268.747 127.089 268.747 128.636 269.955 129.844 271.465 129.844 273.05 129.844 274.371 128.636 274.371 127.089Z" fill="#010101" transform="matrix(1.0002 0 0 1 472 117.242)"/><path d="M235.003 120.521C235.003 118.973 233.682 117.766 232.134 117.766 230.587 117.766 229.379 118.973 229.379 120.521 229.379 122.069 230.587 123.39 232.134 123.39 233.682 123.39 235.003 122.069 235.003 120.521Z" fill="#010101" transform="matrix(1.0002 0 0 1 472 117.242)"/><path d="M246.138 120.521C246.138 118.973 244.968 117.766 243.382 117.766 241.759 117.766 240.551 118.973 240.551 120.521 240.551 122.069 241.759 123.39 243.382 123.39 244.968 123.39 246.138 122.069 246.138 120.521Z" fill="#010101" transform="matrix(1.0002 0 0 1 472 117.242)"/><path d="M257.31 120.521C257.31 118.973 256.103 117.766 254.517 117.766 253.007 117.766 251.686 118.973 251.686 120.521 251.686 122.069 253.007 123.39 254.517 123.39 256.103 123.39 257.31 122.069 257.31 120.521Z" fill="#010101" transform="matrix(1.0002 0 0 1 472 117.242)"/><path d="M268.559 120.521C268.559 118.973 267.237 117.766 265.69 117.766 264.142 117.766 262.859 118.973 262.859 120.521 262.859 122.069 264.142 123.39 265.69 123.39 267.237 123.39 268.559 122.069 268.559 120.521Z" fill="#010101" transform="matrix(1.0002 0 0 1 472 117.242)"/><path d="M279.731 120.521C279.731 118.973 278.41 117.766 276.825 117.766 275.315 117.766 274.107 118.973 274.107 120.521 274.107 122.069 275.315 123.39 276.825 123.39 278.41 123.39 279.731 122.069 279.731 120.521Z" fill="#010101" transform="matrix(1.0002 0 0 1 472 117.242)"/><path d="M229.643 113.953C229.643 112.406 228.322 111.198 226.774 111.198 225.227 111.198 224.057 112.406 224.057 113.953 224.057 115.614 225.227 116.822 226.774 116.822 228.322 116.822 229.643 115.614 229.643 113.953Z" fill="#010101" transform="matrix(1.0002 0 0 1 472 117.242)"/><path d="M240.816 113.953C240.816 112.406 239.608 111.198 237.909 111.198 236.399 111.198 235.192 112.406 235.192 113.953 235.192 115.614 236.399 116.822 237.909 116.822 239.608 116.822 240.816 115.614 240.816 113.953Z" fill="#010101" transform="matrix(1.0002 0 0 1 472 117.242)"/><path d="M251.951 113.953C251.951 112.406 250.743 111.198 249.195 111.198 247.648 111.198 246.326 112.406 246.326 113.953 246.326 115.614 247.648 116.822 249.195 116.822 250.743 116.822 251.951 115.614 251.951 113.953Z" fill="#010101" transform="matrix(1.0002 0 0 1 472 117.242)"/><path d="M263.085 113.953C263.085 112.406 261.878 111.198 260.33 111.198 258.782 111.198 257.499 112.406 257.499 113.953 257.499 115.614 258.782 116.822 260.33 116.822 261.878 116.822 263.085 115.614 263.085 113.953Z" fill="#010101" transform="matrix(1.0002 0 0 1 472 117.242)"/><path d="M274.371 113.953C274.371 112.406 273.05 111.198 271.465 111.198 269.955 111.198 268.747 112.406 268.747 113.953 268.747 115.614 269.955 116.822 271.465 116.822 273.05 116.822 274.371 115.614 274.371 113.953Z" fill="#010101" transform="matrix(1.0002 0 0 1 472 117.242)"/><path d="M235.003 107.499C235.003 105.951 233.682 104.668 232.134 104.668 230.587 104.668 229.379 105.951 229.379 107.499 229.379 109.046 230.587 110.254 232.134 110.254 233.682 110.254 235.003 109.046 235.003 107.499Z" fill="#010101" transform="matrix(1.0002 0 0 1 472 117.242)"/><path d="M246.138 107.499C246.138 105.951 244.968 104.668 243.382 104.668 241.759 104.668 240.551 105.951 240.551 107.499 240.551 109.046 241.759 110.254 243.382 110.254 244.968 110.254 246.138 109.046 246.138 107.499Z" fill="#010101" transform="matrix(1.0002 0 0 1 472 117.242)"/><path d="M257.31 107.499C257.31 105.951 256.103 104.668 254.517 104.668 253.007 104.668 251.686 105.951 251.686 107.499 251.686 109.046 253.007 110.254 254.517 110.254 256.103 110.254 257.31 109.046 257.31 107.499Z" fill="#010101" transform="matrix(1.0002 0 0 1 472 117.242)"/><path d="M268.559 107.499C268.559 105.951 267.237 104.668 265.69 104.668 264.142 104.668 262.859 105.951 262.859 107.499 262.859 109.046 264.142 110.254 265.69 110.254 267.237 110.254 268.559 109.046 268.559 107.499Z" fill="#010101" transform="matrix(1.0002 0 0 1 472 117.242)"/><path d="M279.731 107.499C279.731 105.951 278.41 104.668 276.825 104.668 275.315 104.668 274.107 105.951 274.107 107.499 274.107 109.046 275.315 110.254 276.825 110.254 278.41 110.254 279.731 109.046 279.731 107.499Z" fill="#010101" transform="matrix(1.0002 0 0 1 472 117.242)"/><path d="M229.643 100.931C229.643 99.4214 228.322 98.2135 226.774 98.2135 225.227 98.2135 224.057 99.4214 224.057 100.931 224.057 102.479 225.227 103.8 226.774 103.8 228.322 103.8 229.643 102.479 229.643 100.931Z" fill="#010101" transform="matrix(1.0002 0 0 1 472 117.242)"/><path d="M240.816 100.931C240.816 99.4214 239.608 98.2135 237.909 98.2135 236.399 98.2135 235.192 99.4214 235.192 100.931 235.192 102.479 236.399 103.8 237.909 103.8 239.608 103.8 240.816 102.479 240.816 100.931Z" fill="#010101" transform="matrix(1.0002 0 0 1 472 117.242)"/><path d="M251.951 100.931C251.951 99.4214 250.743 98.2135 249.195 98.2135 247.648 98.2135 246.326 99.4214 246.326 100.931 246.326 102.479 247.648 103.8 249.195 103.8 250.743 103.8 251.951 102.479 251.951 100.931Z" fill="#010101" transform="matrix(1.0002 0 0 1 472 117.242)"/><path d="M263.085 100.931C263.085 99.4214 261.878 98.2135 260.33 98.2135 258.782 98.2135 257.499 99.4214 257.499 100.931 257.499 102.479 258.782 103.8 260.33 103.8 261.878 103.8 263.085 102.479 263.085 100.931Z" fill="#010101" transform="matrix(1.0002 0 0 1 472 117.242)"/><path d="M274.371 100.931C274.371 99.4214 273.05 98.2135 271.465 98.2135 269.955 98.2135 268.747 99.4214 268.747 100.931 268.747 102.479 269.955 103.8 271.465 103.8 273.05 103.8 274.371 102.479 274.371 100.931Z" fill="#010101" transform="matrix(1.0002 0 0 1 472 117.242)"/><path d="M235.003 94.5145C235.003 92.8914 233.682 91.6458 232.134 91.6458 230.587 91.6458 229.379 92.8914 229.379 94.5145 229.379 96.062 230.587 97.2699 232.134 97.2699 233.682 97.2699 235.003 96.062 235.003 94.5145Z" fill="#010101" transform="matrix(1.0002 0 0 1 472 117.242)"/><path d="M246.138 94.5145C246.138 92.8914 244.968 91.6458 243.382 91.6458 241.759 91.6458 240.551 92.8914 240.551 94.5145 240.551 96.062 241.759 97.2699 243.382 97.2699 244.968 97.2699 246.138 96.062 246.138 94.5145Z" fill="#010101" transform="matrix(1.0002 0 0 1 472 117.242)"/><path d="M257.31 94.5145C257.31 92.8914 256.103 91.6458 254.517 91.6458 253.007 91.6458 251.686 92.8914 251.686 94.5145 251.686 96.062 253.007 97.2699 254.517 97.2699 256.103 97.2699 257.31 96.062 257.31 94.5145Z" fill="#010101" transform="matrix(1.0002 0 0 1 472 117.242)"/><path d="M268.559 94.5145C268.559 92.8914 267.237 91.6458 265.69 91.6458 264.142 91.6458 262.859 92.8914 262.859 94.5145 262.859 96.062 264.142 97.2699 265.69 97.2699 267.237 97.2699 268.559 96.062 268.559 94.5145Z" fill="#010101" transform="matrix(1.0002 0 0 1 472 117.242)"/><path d="M279.731 94.5145C279.731 92.8914 278.41 91.6458 276.825 91.6458 275.315 91.6458 274.107 92.8914 274.107 94.5145 274.107 96.062 275.315 97.2699 276.825 97.2699 278.41 97.2699 279.731 96.062 279.731 94.5145Z" fill="#010101" transform="matrix(1.0002 0 0 1 472 117.242)"/><path d="M229.643 87.909C229.643 86.3992 228.322 85.0781 226.774 85.0781 225.227 85.0781 224.057 86.3992 224.057 87.909 224.057 89.4943 225.227 90.8154 226.774 90.8154 228.322 90.8154 229.643 89.4943 229.643 87.909Z" fill="#010101" transform="matrix(1.0002 0 0 1 472 117.242)"/><path d="M240.816 87.909C240.816 86.3992 239.608 85.0781 237.909 85.0781 236.399 85.0781 235.192 86.3992 235.192 87.909 235.192 89.4943 236.399 90.8154 237.909 90.8154 239.608 90.8154 240.816 89.4943 240.816 87.909Z" fill="#010101" transform="matrix(1.0002 0 0 1 472 117.242)"/><path d="M251.951 87.909C251.951 86.3992 250.743 85.0781 249.195 85.0781 247.648 85.0781 246.326 86.3992 246.326 87.909 246.326 89.4943 247.648 90.8154 249.195 90.8154 250.743 90.8154 251.951 89.4943 251.951 87.909Z" fill="#010101" transform="matrix(1.0002 0 0 1 472 117.242)"/><path d="M263.085 87.909C263.085 86.3992 261.878 85.0781 260.33 85.0781 258.782 85.0781 257.499 86.3992 257.499 87.909 257.499 89.4943 258.782 90.8154 260.33 90.8154 261.878 90.8154 263.085 89.4943 263.085 87.909Z" fill="#010101" transform="matrix(1.0002 0 0 1 472 117.242)"/><path d="M274.371 87.909C274.371 86.3992 273.05 85.0781 271.465 85.0781 269.955 85.0781 268.747 86.3992 268.747 87.909 268.747 89.4943 269.955 90.8154 271.465 90.8154 273.05 90.8154 274.371 89.4943 274.371 87.909Z" fill="#010101" transform="matrix(1.0002 0 0 1 472 117.242)"/><path d="M235.003 81.4168C235.003 79.8315 233.682 78.6237 232.134 78.6237 230.587 78.6237 229.379 79.8315 229.379 81.4168 229.379 82.9266 230.587 84.2477 232.134 84.2477 233.682 84.2477 235.003 82.9266 235.003 81.4168Z" fill="#010101" transform="matrix(1.0002 0 0 1 472 117.242)"/><path d="M246.138 81.4168C246.138 79.8315 244.968 78.6237 243.382 78.6237 241.759 78.6237 240.551 79.8315 240.551 81.4168 240.551 82.9266 241.759 84.2477 243.382 84.2477 244.968 84.2477 246.138 82.9266 246.138 81.4168Z" fill="#010101" transform="matrix(1.0002 0 0 1 472 117.242)"/><path d="M257.31 81.4168C257.31 79.8315 256.103 78.6237 254.517 78.6237 253.007 78.6237 251.686 79.8315 251.686 81.4168 251.686 82.9266 253.007 84.2477 254.517 84.2477 256.103 84.2477 257.31 82.9266 257.31 81.4168Z" fill="#010101" transform="matrix(1.0002 0 0 1 472 117.242)"/><path d="M268.559 81.4168C268.559 79.8315 267.237 78.6237 265.69 78.6237 264.142 78.6237 262.859 79.8315 262.859 81.4168 262.859 82.9266 264.142 84.2477 265.69 84.2477 267.237 84.2477 268.559 82.9266 268.559 81.4168Z" fill="#010101" transform="matrix(1.0002 0 0 1 472 117.242)"/><path d="M279.731 81.4168C279.731 79.8315 278.41 78.6237 276.825 78.6237 275.315 78.6237 274.107 79.8315 274.107 81.4168 274.107 82.9266 275.315 84.2477 276.825 84.2477 278.41 84.2477 279.731 82.9266 279.731 81.4168Z" fill="#010101" transform="matrix(1.0002 0 0 1 472 117.242)"/><path d="M229.643 74.9246C229.643 73.3771 228.322 72.0937 226.774 72.0937 225.227 72.0937 224.057 73.3771 224.057 74.9246 224.057 76.4722 225.227 77.68 226.774 77.68 228.322 77.68 229.643 76.4722 229.643 74.9246Z" fill="#010101" transform="matrix(1.0002 0 0 1 472 117.242)"/><path d="M240.816 74.9246C240.816 73.3771 239.608 72.0937 237.909 72.0937 236.399 72.0937 235.192 73.3771 235.192 74.9246 235.192 76.4722 236.399 77.68 237.909 77.68 239.608 77.68 240.816 76.4722 240.816 74.9246Z" fill="#010101" transform="matrix(1.0002 0 0 1 472 117.242)"/><path d="M251.951 74.9246C251.951 73.3771 250.743 72.0937 249.195 72.0937 247.648 72.0937 246.326 73.3771 246.326 74.9246 246.326 76.4722 247.648 77.68 249.195 77.68 250.743 77.68 251.951 76.4722 251.951 74.9246Z" fill="#010101" transform="matrix(1.0002 0 0 1 472 117.242)"/><path d="M263.085 74.9246C263.085 73.3771 261.878 72.0937 260.33 72.0937 258.782 72.0937 257.499 73.3771 257.499 74.9246 257.499 76.4722 258.782 77.68 260.33 77.68 261.878 77.68 263.085 76.4722 263.085 74.9246Z" fill="#010101" transform="matrix(1.0002 0 0 1 472 117.242)"/><path d="M274.371 74.9246C274.371 73.3771 273.05 72.0937 271.465 72.0937 269.955 72.0937 268.747 73.3771 268.747 74.9246 268.747 76.4722 269.955 77.68 271.465 77.68 273.05 77.68 274.371 76.4722 274.371 74.9246Z" fill="#010101" transform="matrix(1.0002 0 0 1 472 117.242)"/><path d="M235.003 68.3569C235.003 66.8471 233.682 65.6392 232.134 65.6392 230.587 65.6392 229.379 66.8471 229.379 68.3569 229.379 69.9422 230.587 71.2256 232.134 71.2256 233.682 71.2256 235.003 69.9422 235.003 68.3569Z" fill="#010101" transform="matrix(1.0002 0 0 1 472 117.242)"/><path d="M246.138 68.3569C246.138 66.8471 244.968 65.6392 243.382 65.6392 241.759 65.6392 240.551 66.8471 240.551 68.3569 240.551 69.9422 241.759 71.2256 243.382 71.2256 244.968 71.2256 246.138 69.9422 246.138 68.3569Z" fill="#010101" transform="matrix(1.0002 0 0 1 472 117.242)"/><path d="M257.31 68.3569C257.31 66.8471 256.103 65.6392 254.517 65.6392 253.007 65.6392 251.686 66.8471 251.686 68.3569 251.686 69.9422 253.007 71.2256 254.517 71.2256 256.103 71.2256 257.31 69.9422 257.31 68.3569Z" fill="#010101" transform="matrix(1.0002 0 0 1 472 117.242)"/><path d="M268.559 68.3569C268.559 66.8471 267.237 65.6392 265.69 65.6392 264.142 65.6392 262.859 66.8471 262.859 68.3569 262.859 69.9422 264.142 71.2256 265.69 71.2256 267.237 71.2256 268.559 69.9422 268.559 68.3569Z" fill="#010101" transform="matrix(1.0002 0 0 1 472 117.242)"/><path d="M279.731 68.3569C279.731 66.8471 278.41 65.6392 276.825 65.6392 275.315 65.6392 274.107 66.8471 274.107 68.3569 274.107 69.9422 275.315 71.2256 276.825 71.2256 278.41 71.2256 279.731 69.9422 279.731 68.3569Z" fill="#010101" transform="matrix(1.0002 0 0 1 472 117.242)"/><path d="M229.643 61.7892C229.643 60.2794 228.322 59.0715 226.774 59.0715 225.227 59.0715 224.057 60.2794 224.057 61.7892 224.057 63.45 225.227 64.6956 226.774 64.6956 228.322 64.6956 229.643 63.45 229.643 61.7892Z" fill="#010101" transform="matrix(1.0002 0 0 1 472 117.242)"/><path d="M240.816 61.7892C240.816 60.2794 239.608 59.0715 237.909 59.0715 236.399 59.0715 235.192 60.2794 235.192 61.7892 235.192 63.45 236.399 64.6956 237.909 64.6956 239.608 64.6956 240.816 63.45 240.816 61.7892Z" fill="#010101" transform="matrix(1.0002 0 0 1 472 117.242)"/><path d="M251.951 61.7892C251.951 60.2794 250.743 59.0715 249.195 59.0715 247.648 59.0715 246.326 60.2794 246.326 61.7892 246.326 63.45 247.648 64.6956 249.195 64.6956 250.743 64.6956 251.951 63.45 251.951 61.7892Z" fill="#010101" transform="matrix(1.0002 0 0 1 472 117.242)"/><path d="M263.085 61.7892C263.085 60.2794 261.878 59.0715 260.33 59.0715 258.782 59.0715 257.499 60.2794 257.499 61.7892 257.499 63.45 258.782 64.6956 260.33 64.6956 261.878 64.6956 263.085 63.45 263.085 61.7892Z" fill="#010101" transform="matrix(1.0002 0 0 1 472 117.242)"/><path d="M274.371 61.7892C274.371 60.2794 273.05 59.0715 271.465 59.0715 269.955 59.0715 268.747 60.2794 268.747 61.7892 268.747 63.45 269.955 64.6956 271.465 64.6956 273.05 64.6956 274.371 63.45 274.371 61.7892Z" fill="#010101" transform="matrix(1.0002 0 0 1 472 117.242)"/><path d="M235.003 55.3725C235.003 53.8627 233.682 52.5038 232.134 52.5038 230.587 52.5038 229.379 53.8627 229.379 55.3725 229.379 56.9201 230.587 58.1279 232.134 58.1279 233.682 58.1279 235.003 56.9201 235.003 55.3725Z" fill="#010101" transform="matrix(1.0002 0 0 1 472 117.242)"/><path d="M246.138 55.3725C246.138 53.8627 244.968 52.5038 243.382 52.5038 241.759 52.5038 240.551 53.8627 240.551 55.3725 240.551 56.9201 241.759 58.1279 243.382 58.1279 244.968 58.1279 246.138 56.9201 246.138 55.3725Z" fill="#010101" transform="matrix(1.0002 0 0 1 472 117.242)"/><path d="M257.31 55.3725C257.31 53.8627 256.103 52.5038 254.517 52.5038 253.007 52.5038 251.686 53.8627 251.686 55.3725 251.686 56.9201 253.007 58.1279 254.517 58.1279 256.103 58.1279 257.31 56.9201 257.31 55.3725Z" fill="#010101" transform="matrix(1.0002 0 0 1 472 117.242)"/><path d="M268.559 55.3725C268.559 53.8627 267.237 52.5038 265.69 52.5038 264.142 52.5038 262.859 53.8627 262.859 55.3725 262.859 56.9201 264.142 58.1279 265.69 58.1279 267.237 58.1279 268.559 56.9201 268.559 55.3725Z" fill="#010101" transform="matrix(1.0002 0 0 1 472 117.242)"/><path d="M279.731 55.3725C279.731 53.8627 278.41 52.5038 276.825 52.5038 275.315 52.5038 274.107 53.8627 274.107 55.3725 274.107 56.9201 275.315 58.1279 276.825 58.1279 278.41 58.1279 279.731 56.9201 279.731 55.3725Z" fill="#010101" transform="matrix(1.0002 0 0 1 472 117.242)"/><path d="M158.229 559.16C158.342 559.915 158.568 560.481 158.984 560.897 159.55 561.274 160.116 561.501 160.909 561.501 161.55 561.501 162.116 561.387 162.645 560.897 163.173 560.557 163.513 560.028 163.853 559.387 164.079 558.594 164.192 557.613 164.192 556.518 164.192 555.31 164.079 554.442 163.853 553.914 163.513 553.234 163.173 552.819 162.645 552.479 162.192 552.14 161.55 551.951 161.022 551.951 160.116 551.951 159.437 552.253 158.908 552.819 158.342 553.461 158.002 554.216 158.002 555.122 158.002 556.103 158.342 556.745 158.795 557.311 159.323 557.839 160.003 558.179 160.795 558.179 161.324 558.179 161.777 558.066 162.116 557.839 162.532 557.613 162.871 557.311 163.098 556.971 163.098 557.084 163.098 557.084 163.098 557.198 163.098 557.613 162.985 558.066 162.871 558.594 162.758 559.047 162.645 559.387 162.418 559.689 162.305 559.915 162.116 560.142 161.777 560.368 161.55 560.481 161.211 560.557 160.909 560.557 160.456 560.557 160.116 560.481 159.89 560.255 159.55 559.915 159.437 559.576 159.323 559.047L158.229 559.16ZM162.985 555.122C162.985 555.763 162.758 556.216 162.418 556.631 162.116 556.971 161.664 557.198 161.097 557.198 160.569 557.198 160.116 556.971 159.776 556.631 159.437 556.216 159.21 555.763 159.21 555.122 159.21 554.442 159.437 554.027 159.776 553.574 160.229 553.121 160.682 552.932 161.097 552.932 161.664 552.932 162.116 553.121 162.418 553.461 162.758 553.914 162.985 554.442 162.985 555.122Z" fill="#010101" transform="matrix(1.0002 0 0 1 472 117.242)"/><path d="M165.249 556.745C165.249 558.481 165.551 559.689 166.268 560.557 166.684 561.161 167.439 561.501 168.344 561.501 168.986 561.501 169.515 561.387 170.081 560.897 170.534 560.557 170.836 560.028 171.062 559.387 171.289 558.707 171.402 557.839 171.402 556.745 171.402 555.763 171.289 555.122 171.175 554.555 171.062 554.027 170.836 553.574 170.609 553.121 170.307 552.819 170.081 552.479 169.628 552.253 169.326 552.064 168.873 551.951 168.344 551.951 167.665 551.951 167.137 552.14 166.684 552.479 166.268 552.932 165.891 553.348 165.551 554.14 165.325 554.782 165.249 555.65 165.249 556.745ZM166.457 556.745C166.457 555.235 166.684 554.14 167.023 553.574 167.363 553.121 167.778 552.932 168.344 552.932 168.873 552.932 169.326 553.121 169.628 553.687 169.968 554.216 170.194 555.235 170.194 556.745 170.194 558.292 169.968 559.274 169.628 559.802 169.326 560.255 168.873 560.557 168.344 560.557 167.778 560.557 167.363 560.255 167.023 559.802 166.684 559.274 166.457 558.292 166.457 556.745Z" fill="#010101" transform="matrix(1.0002 0 0 1 472 117.242)"/><path d="M172.459 556.745C172.459 558.481 172.761 559.689 173.44 560.557 173.969 561.161 174.648 561.501 175.516 561.501 176.158 561.501 176.799 561.387 177.252 560.897 177.705 560.557 178.007 560.028 178.234 559.387 178.498 558.707 178.611 557.839 178.611 556.745 178.611 555.763 178.498 555.122 178.347 554.555 178.234 554.027 178.007 553.574 177.819 553.121 177.592 552.819 177.252 552.479 176.799 552.253 176.497 552.064 176.045 551.951 175.516 551.951 174.837 551.951 174.308 552.14 173.855 552.479 173.44 552.932 173.1 553.348 172.874 554.14 172.647 554.782 172.459 555.65 172.459 556.745ZM173.629 556.745C173.629 555.235 173.855 554.14 174.308 553.574 174.648 553.121 174.95 552.932 175.516 552.932 176.045 552.932 176.497 553.121 176.799 553.687 177.252 554.216 177.366 555.235 177.366 556.745 177.366 558.292 177.252 559.274 176.799 559.802 176.497 560.255 176.045 560.557 175.516 560.557 174.95 560.557 174.535 560.255 174.195 559.802 173.855 559.274 173.629 558.292 173.629 556.745Z" fill="#010101" transform="matrix(1.0002 0 0 1 472 117.242)"/><text font-family="Times New Roman,Times New Roman_MSFontService,sans-serif" font-weight="400" font-size="247" transform="matrix(0.0377528 0 0 0.0377454 629.542 679)">900</text></g></svg>