<svg width="336" height="336" xmlns="http://www.w3.org/2000/svg" xmlns:xlink="http://www.w3.org/1999/xlink" xml:space="preserve" overflow="hidden"><g transform="translate(-82 -369)"><path d="M82.3775 686.048C82.3775 688.2 82.8306 690.616 83.6989 692.919 84.6805 695.222 86.1151 697.412 87.8517 699.148 89.7016 700.998 91.8912 702.433 94.1942 703.301 96.4971 704.283 98.9133 704.622 101.103 704.622L399.048 704.622C401.351 704.622 403.654 704.283 405.919 703.301 408.222 702.433 410.412 700.998 412.262 699.148 414.149 697.412 415.433 695.222 416.414 692.919 417.32 690.616 417.736 688.2 417.736 686.048L417.736 387.952C417.736 385.762 417.32 383.497 416.414 381.194 415.433 378.778 414.149 376.702 412.262 374.852 410.412 373.002 408.222 371.567 405.919 370.699 403.654 369.831 401.351 369.378 399.048 369.378L101.103 369.378C98.9133 369.378 96.4971 369.831 94.1942 370.699 91.8912 371.567 89.7016 373.002 87.8517 374.852 86.1151 376.702 84.6805 378.778 83.6989 381.194 82.8306 383.497 82.3775 385.762 82.3775 387.952L82.3775 686.048Z" fill="#FFFFFF"/><path d="M82.3775 686.01C82.3775 690.918 84.3784 695.637 87.8894 699.148 91.4005 702.659 96.1951 704.622 101.141 704.622" stroke="#343434" stroke-width="0.755056" stroke-linejoin="round" fill="none"/><path d="M101.103 704.585 399.01 704.585" stroke="#343434" stroke-width="0.755056" stroke-linejoin="round" fill="none"/><path d="M399.01 704.622C404.031 704.622 408.788 702.659 412.262 699.148 415.773 695.637 417.736 690.918 417.736 686.01" stroke="#343434" stroke-width="0.755056" stroke-linejoin="round" fill="none"/><path d="M417.698 686.01 417.698 387.952" stroke="#343434" stroke-width="0.755056" stroke-linejoin="round" fill="none"/><path d="M417.736 387.99C417.736 383.082 415.773 378.363 412.262 374.852 408.788 371.341 404.031 369.378 399.01 369.378" stroke="#343434" stroke-width="0.755056" stroke-linejoin="round" fill="none"/><path d="M399.01 369.378 101.103 369.378" stroke="#343434" stroke-width="0.755056" stroke-linejoin="round" fill="none"/><path d="M101.141 369.378C96.1951 369.378 91.4005 371.341 87.8894 374.852 84.3784 378.363 82.3775 383.082 82.3775 387.99" stroke="#343434" stroke-width="0.755056" stroke-linejoin="round" fill="none"/><path d="M82.3775 387.952 82.3775 686.01" stroke="#343434" stroke-width="0.755056" stroke-linejoin="round" fill="none"/><path d="M90.6076 686.048C90.6076 687.218 90.7964 688.54 91.3627 689.861 91.8912 691.182 92.684 692.391 93.6656 693.372 94.7605 694.467 95.9685 695.222 97.2521 695.751 98.4602 696.204 99.7816 696.43 101.103 696.43L399.048 696.43C400.369 696.43 401.691 696.204 402.974 695.751 404.182 695.222 405.504 694.467 406.485 693.372 407.467 692.391 408.222 691.182 408.788 689.861 409.317 688.54 409.543 687.218 409.543 686.048L409.543 387.952C409.543 386.744 409.317 385.46 408.788 384.139 408.222 382.818 407.467 381.609 406.485 380.628 405.504 379.533 404.182 378.778 402.974 378.325 401.691 377.796 400.369 377.57 399.048 377.57L101.103 377.57C99.7816 377.57 98.4602 377.796 97.2521 378.325 95.9685 378.778 94.7605 379.533 93.6656 380.628 92.684 381.609 91.8912 382.818 91.3627 384.139 90.7964 385.46 90.6076 386.744 90.6076 387.952L90.6076 686.048Z" fill="#0055FF"/><path d="M253.058 681.555 253.058 618.206 316.407 618.206 316.407 681.555 253.058 681.555Z" stroke="#343434" stroke-width="0.755056" stroke-linejoin="round" fill="none"/><path d="M253.058 681.555 253.058 618.206 316.407 618.206 316.407 681.555 253.058 681.555Z" stroke="#343434" stroke-width="0.755056" stroke-linejoin="round" fill="none"/><path d="M363.674 633.723 363.674 638.026 362.277 638.026 362.277 633.723 363.674 633.723Z" fill="#FEFEFE"/><path d="M384.626 655.959 380.323 655.959 380.323 654.713 384.626 654.713 384.626 655.959Z" fill="#FEFEFE"/><path d="M341.286 654.713 345.59 654.713 345.59 655.959 341.286 655.959 341.286 654.713Z" fill="#FEFEFE"/><path d="M362.277 677.063 362.277 672.759 363.674 672.759 363.674 677.063 362.277 677.063Z" fill="#FEFEFE"/><path d="M365.675 655.657 378.397 649.277 364.806 653.354C364.58 653.128 364.24 652.901 363.825 652.788 363.372 652.561 362.919 652.561 362.503 652.675 361.635 652.788 360.842 653.354 360.54 653.996 360.2 654.638 359.974 655.544 360.314 656.412 360.653 657.28 361.409 657.809 362.05 658.036 362.805 658.262 363.711 658.149 364.466 657.733 365.222 657.167 365.675 656.299 365.675 655.657Z" fill="#FEFEFE"/><path d="M366.656 629.457 366.656 625.757 369.601 625.757 369.601 618.206 356.274 618.206 356.274 625.757 359.219 625.757 359.219 629.457C357.558 629.683 355.821 630.136 354.084 630.778 352.31 631.344 350.687 632.213 348.95 633.194 345.666 635.384 342.721 638.215 340.531 641.84 338.342 645.426 337.133 649.352 336.794 653.43 336.68 655.28 336.794 657.243 337.02 659.093 337.247 660.867 337.662 662.604 338.342 664.114 338.87 665.775 339.663 667.398 340.644 668.984 341.513 670.494 342.721 672.042 344.004 673.476 346.76 676.421 350.234 678.611 354.198 680.008 358.124 681.442 362.277 681.895 366.203 681.329 368.166 681.102 370.054 680.687 371.791 680.008 373.527 679.366 375.075 678.611 376.472 677.705 378.02 676.836 379.454 675.742 380.738 674.571 382.059 673.25 383.381 671.815 384.513 670.192 386.703 666.983 388.326 663.019 388.893 658.866 389.421 654.713 389.006 650.674 387.684 646.861 387.005 645.011 386.25 643.35 385.268 641.726 384.249 640.178 383.154 638.782 382.059 637.573L385.495 634.402 387.118 636.252C387.571 636.479 388.024 636.365 388.326 636.139 388.666 635.799 388.779 635.271 388.666 634.931L386.929 633.081 385.608 631.646 383.834 629.796C383.494 629.57 382.928 629.683 382.626 629.91 382.286 630.249 382.173 630.665 382.399 631.118L384.136 632.968 380.662 636.139C376.812 632.515 371.904 630.249 366.656 629.457ZM339.738 655.393C339.738 652.637 340.305 649.692 341.4 646.861 342.608 644.029 344.231 641.273 346.534 638.97 348.837 636.705 351.555 634.931 354.424 633.836 357.256 632.741 360.2 632.213 362.919 632.213 365.675 632.213 368.619 632.741 371.451 633.836 374.32 634.931 377.038 636.705 379.228 638.97 381.531 641.273 383.267 644.029 384.513 646.861 385.608 649.692 386.023 652.637 386.023 655.393 386.023 658.111 385.608 660.942 384.513 663.925 383.267 666.756 381.531 669.399 379.228 671.702 377.038 674.005 374.32 675.742 371.451 676.836 368.619 678.044 365.675 678.498 362.919 678.498 360.2 678.498 357.256 678.044 354.424 676.836 351.555 675.742 348.837 674.005 346.534 671.702 344.231 669.399 342.608 666.756 341.4 663.925 340.305 660.942 339.738 658.111 339.738 655.393Z" fill="#FEFEFE"/><path d="M363.598 639.537C366.354 639.65 369.11 640.518 371.489 642.028 374.018 643.689 375.868 645.804 377.076 648.22L365.108 651.806C364.92 651.693 364.58 651.466 364.353 651.466 364.127 651.391 363.9 651.278 363.598 651.278L363.598 639.537Z" fill="#FEFEFE"/><path d="M253.058 681.555 253.058 618.206 316.407 618.206 316.407 681.555 253.058 681.555Z" fill="#FFFFFF"/><path d="M253.058 681.555 253.058 618.206 316.407 618.206 316.407 681.555 253.058 681.555Z" stroke="#D2D2D2" stroke-width="0.755056" stroke-linejoin="round" fill="none"/><path d="M270.991 672.042 298.437 672.042 290.018 655.166 306.893 663.585 306.893 636.139 290.018 644.558 298.437 627.72 270.991 627.72 279.409 644.558 262.572 636.139 262.572 663.585 279.409 655.166 270.991 672.042Z" fill="#009600"/><path d="M267.178 574.828C277.673 574.828 288.055 572.752 297.757 568.712 307.384 564.786 316.294 558.897 323.731 551.459 331.169 543.984 336.945 535.112 340.984 525.485 345.024 515.783 347.1 505.401 347.1 494.906 347.1 490.187 346.685 485.279 345.817 480.333 344.835 475.425 343.4 470.404 341.437 465.496 339.587 460.551 337.058 455.756 334.113 451.15 331.055 446.582 327.544 442.316 323.731 438.352 319.805 434.539 315.539 431.028 310.933 427.97 306.289 425.025 301.495 422.496 296.587 420.646 291.641 418.683 286.62 417.248 281.712 416.267 276.767 415.398 271.859 414.983 267.178 414.983L156.939 414.983 156.939 657.167 215.116 657.167 215.116 574.828 267.178 574.828ZM257.437 463.382C265.856 463.382 273.822 466.78 279.749 472.707 285.639 478.596 288.923 486.562 288.923 494.906 288.923 503.211 285.639 511.29 279.749 517.18 273.822 523.107 265.856 526.391 257.437 526.391L215.116 526.391 215.116 463.382 257.437 463.382Z" fill="#FEFEFE"/></g></svg>