<svg width="336" height="336" xmlns="http://www.w3.org/2000/svg" xmlns:xlink="http://www.w3.org/1999/xlink" xml:space="preserve" overflow="hidden"><g transform="translate(-472 -192)"><path d="M472.378 509.048C472.378 511.2 472.831 513.616 473.699 515.919 474.68 518.222 476.115 520.412 477.852 522.148 479.702 523.998 481.891 525.433 484.194 526.301 486.497 527.283 488.913 527.622 491.103 527.622L789.048 527.622C791.351 527.622 793.654 527.283 795.919 526.301 798.222 525.433 800.412 523.998 802.262 522.148 804.149 520.412 805.433 518.222 806.414 515.919 807.32 513.616 807.736 511.2 807.736 509.048L807.736 210.952C807.736 208.762 807.32 206.497 806.414 204.194 805.433 201.778 804.149 199.702 802.262 197.852 800.412 196.002 798.222 194.567 795.919 193.699 793.654 192.831 791.351 192.378 789.048 192.378L491.103 192.378C488.913 192.378 486.497 192.831 484.194 193.699 481.891 194.567 479.702 196.002 477.852 197.852 476.115 199.702 474.68 201.778 473.699 204.194 472.831 206.497 472.378 208.762 472.378 210.952L472.378 509.048Z" fill="#FEFEFE"/><path d="M472.378 509.01C472.378 513.918 474.378 518.637 477.889 522.148 481.4 525.659 486.195 527.622 491.141 527.622" stroke="#343434" stroke-width="0.755056" stroke-linejoin="round" fill="none"/><path d="M491.103 527.585 789.01 527.585" stroke="#343434" stroke-width="0.755056" stroke-linejoin="round" fill="none"/><path d="M789.01 527.622C794.031 527.622 798.788 525.659 802.262 522.148 805.773 518.637 807.736 513.918 807.736 509.01" stroke="#343434" stroke-width="0.755056" stroke-linejoin="round" fill="none"/><path d="M807.698 509.01 807.698 210.952" stroke="#343434" stroke-width="0.755056" stroke-linejoin="round" fill="none"/><path d="M807.736 210.99C807.736 206.082 805.773 201.363 802.262 197.852 798.788 194.341 794.031 192.378 789.01 192.378" stroke="#343434" stroke-width="0.755056" stroke-linejoin="round" fill="none"/><path d="M789.01 192.378 491.103 192.378" stroke="#343434" stroke-width="0.755056" stroke-linejoin="round" fill="none"/><path d="M491.141 192.378C486.195 192.378 481.4 194.341 477.889 197.852 474.378 201.363 472.378 206.082 472.378 210.99" stroke="#343434" stroke-width="0.755056" stroke-linejoin="round" fill="none"/><path d="M472.378 210.952 472.378 509.01" stroke="#343434" stroke-width="0.755056" stroke-linejoin="round" fill="none"/><path d="M480.608 509.048C480.608 510.218 480.796 511.54 481.363 512.861 481.891 514.182 482.684 515.391 483.666 516.372 484.76 517.467 485.969 518.222 487.252 518.751 488.46 519.204 489.782 519.43 491.103 519.43L789.048 519.43C790.369 519.43 791.691 519.204 792.974 518.751 794.182 518.222 795.504 517.467 796.485 516.372 797.467 515.391 798.222 514.182 798.788 512.861 799.317 511.54 799.543 510.218 799.543 509.048L799.543 210.952C799.543 209.744 799.317 208.46 798.788 207.139 798.222 205.818 797.467 204.609 796.485 203.628 795.504 202.533 794.182 201.778 792.974 201.325 791.691 200.796 790.369 200.57 789.048 200.57L491.103 200.57C489.782 200.57 488.46 200.796 487.252 201.325 485.969 201.778 484.76 202.533 483.666 203.628 482.684 204.609 481.891 205.818 481.363 207.139 480.796 208.46 480.608 209.744 480.608 210.952L480.608 509.048Z" fill="#0055FF"/><path d="M519.644 404.737 540.71 404.737 540.71 334.064 567.099 334.064 567.099 315.263 493.293 315.263 493.293 334.064 519.644 334.064 519.644 404.737Z" fill="#FEFEFE"/><path d="M573.517 404.737 594.961 404.737 599.642 390.429 632.827 390.429 637.508 404.737 658.952 404.737 629.656 315.263 603.266 315.263 573.517 404.737ZM605.985 371.175 615.763 340.293 626.598 371.175 605.985 371.175Z" fill="#FEFEFE"/><path d="M665.672 404.737 689.456 404.737 707.502 375.214 725.623 404.737 749.37 404.737 719.394 354.224 742.801 315.263 719.205 315.263 707.502 334.932 695.912 315.263 672.128 315.263 695.685 354.224 665.672 404.737Z" fill="#FEFEFE"/><path d="M766.698 404.737 787.311 404.737 787.311 315.263 766.698 315.263 766.698 404.737Z" fill="#FEFEFE"/></g></svg>