<svg width="336" height="504" xmlns="http://www.w3.org/2000/svg" xmlns:xlink="http://www.w3.org/1999/xlink" xml:space="preserve" overflow="hidden"><defs><clipPath id="clip0"><rect x="62" y="108" width="336" height="504"/></clipPath></defs><g clip-path="url(#clip0)" transform="translate(-62 -108)"><path d="M0.377453 484.536C0.377453 486.801 0.830396 489.103 1.69854 491.406 2.67991 493.708 4.11423 495.897 5.85052 497.747 7.70004 499.596 9.88926 500.917 12.1917 501.899 14.4942 502.767 16.9099 503.22 19.0991 503.22L316.985 503.22C319.287 503.22 321.59 502.767 323.854 501.899 326.157 500.917 328.346 499.596 330.196 497.747 332.083 495.897 333.366 493.708 334.348 491.406 335.254 489.103 335.669 486.801 335.669 484.536L335.669 19.0614C335.669 16.7589 335.254 14.4564 334.348 12.154 333.366 9.88926 332.083 7.70004 330.196 5.81277 328.346 3.96325 326.157 2.52893 323.854 1.66079 321.59 0.792651 319.287 0.377453 316.985 0.377453L19.0991 0.377453C16.9099 0.377453 14.4942 0.792651 12.1917 1.66079 9.88926 2.52893 7.70004 3.96325 5.85052 5.81277 4.11423 7.70004 2.67991 9.88926 1.69854 12.154 0.830396 14.4564 0.377453 16.7589 0.377453 19.0614L0.377453 484.536Z" fill="#FFFFFF" transform="matrix(1.0002 0 0 1 62 108.416)"/><path d="M0.377453 484.498C0.377453 489.556 2.37795 494.237 5.88826 497.747 9.39857 501.257 14.1922 503.22 19.1369 503.22" stroke="#343434" stroke-width="0.754905" stroke-linejoin="round" fill="none" transform="matrix(1.0002 0 0 1 62 108.416)"/><path d="M19.0991 503.182 316.947 503.182" stroke="#343434" stroke-width="0.754905" stroke-linejoin="round" fill="none" transform="matrix(1.0002 0 0 1 62 108.416)"/><path d="M316.947 503.22C321.967 503.22 326.723 501.257 330.196 497.747 333.706 494.237 335.669 489.556 335.669 484.498" stroke="#343434" stroke-width="0.754905" stroke-linejoin="round" fill="none" transform="matrix(1.0002 0 0 1 62 108.416)"/><path d="M335.631 484.498 335.631 19.0614" stroke="#343434" stroke-width="0.754905" stroke-linejoin="round" fill="none" transform="matrix(1.0002 0 0 1 62 108.416)"/><path d="M335.669 19.0991C335.669 14.079 333.706 9.36083 330.196 5.85052 326.723 2.34021 321.967 0.377453 316.947 0.377453" stroke="#343434" stroke-width="0.754905" stroke-linejoin="round" fill="none" transform="matrix(1.0002 0 0 1 62 108.416)"/><path d="M316.947 0.377453 19.0991 0.377453" stroke="#343434" stroke-width="0.754905" stroke-linejoin="round" fill="none" transform="matrix(1.0002 0 0 1 62 108.416)"/><path d="M19.1369 0.377453C14.1922 0.377453 9.39857 2.34021 5.88826 5.85052 2.37795 9.36083 0.377453 14.079 0.377453 19.0991" stroke="#343434" stroke-width="0.754905" stroke-linejoin="round" fill="none" transform="matrix(1.0002 0 0 1 62 108.416)"/><path d="M0.377453 19.0614 0.377453 484.498" stroke="#343434" stroke-width="0.754905" stroke-linejoin="round" fill="none" transform="matrix(1.0002 0 0 1 62 108.416)"/><path d="M8.60592 484.536C8.60592 485.819 8.79465 487.14 9.36083 488.462 9.88926 489.669 10.6819 490.877 11.6633 491.972 12.7579 492.953 13.9658 493.708 15.2491 494.237 16.4569 494.803 17.778 495.029 19.0991 495.029L316.985 495.029C318.306 495.029 319.627 494.803 320.91 494.237 322.118 493.708 323.439 492.953 324.421 491.972 325.402 490.877 326.157 489.669 326.723 488.462 327.251 487.14 327.478 485.819 327.478 484.536L327.478 19.0614C327.478 17.7403 327.251 16.4192 326.723 15.1359 326.157 13.928 325.402 12.6069 324.421 11.6255 323.439 10.6442 322.118 9.77602 320.91 9.32308 319.627 8.79465 318.306 8.56818 316.985 8.56818L19.0991 8.56818C17.778 8.56818 16.4569 8.79465 15.2491 9.32308 13.9658 9.77602 12.7579 10.6442 11.6633 11.6255 10.6819 12.6069 9.88926 13.928 9.36083 15.1359 8.79465 16.4192 8.60592 17.7403 8.60592 19.0614L8.60592 484.536Z" fill="#0055FF" transform="matrix(1.0002 0 0 1 62 108.416)"/><path d="M26.5349 465.928 45.1056 465.928 132.712 132.637 128.976 132.637 26.5349 465.928Z" fill="#FFFFFF" transform="matrix(1.0002 0 0 1 62 108.416)"/><path d="M84.2474 465.928 93.5328 465.928 109.839 365.336 102.856 365.336 84.2474 465.928Z" fill="#FFFFFF" transform="matrix(1.0002 0 0 1 62 108.416)"/><path d="M115.161 298.376 120.747 298.376 127.353 257.347 122.71 257.347 115.161 298.376Z" fill="#FFFFFF" transform="matrix(1.0002 0 0 1 62 108.416)"/><path d="M129.58 220.093 133.316 220.093 137.393 195.898 134.071 195.898 129.58 220.093Z" fill="#FFFFFF" transform="matrix(1.0002 0 0 1 62 108.416)"/><path d="M138.11 173.553 140.979 173.553 143.96 154.907 141.507 154.907 138.11 173.553Z" fill="#FFFFFF" transform="matrix(1.0002 0 0 1 62 108.416)"/><path d="M144.338 140.11 146.338 140.11 147.546 132.637 145.659 132.637 144.338 140.11Z" fill="#FFFFFF" transform="matrix(1.0002 0 0 1 62 108.416)"/><path d="M132.675 465.928 151.283 465.928 164.381 132.637 160.568 132.637 132.675 465.928Z" fill="#FFFFFF" transform="matrix(1.0002 0 0 1 62 108.416)"/><path d="M309.549 465.928 290.978 465.928 203.372 132.637 207.108 132.637 309.549 465.928Z" fill="#FFFFFF" transform="matrix(1.0002 0 0 1 62 108.416)"/><path d="M251.836 465.928 242.513 465.928 226.207 365.336 233.341 365.336 251.836 465.928Z" fill="#FFFFFF" transform="matrix(1.0002 0 0 1 62 108.416)"/><path d="M220.923 298.376 215.412 298.376 208.731 257.347 213.45 257.347 220.923 298.376Z" fill="#FFFFFF" transform="matrix(1.0002 0 0 1 62 108.416)"/><path d="M206.58 220.093 202.73 220.093 198.804 195.898 202.05 195.898 206.58 220.093Z" fill="#FFFFFF" transform="matrix(1.0002 0 0 1 62 108.416)"/><path d="M197.936 173.553 195.181 173.553 192.123 154.907 194.539 154.907 197.936 173.553Z" fill="#FFFFFF" transform="matrix(1.0002 0 0 1 62 108.416)"/><path d="M191.821 140.11 189.708 140.11 188.5 132.637 190.425 132.637 191.821 140.11Z" fill="#FFFFFF" transform="matrix(1.0002 0 0 1 62 108.416)"/><path d="M203.409 465.928 184.839 465.928 171.779 132.637 175.516 132.637 203.409 465.928Z" fill="#FFFFFF" transform="matrix(1.0002 0 0 1 62 108.416)"/><path d="M128.976 533.114 128.976 585.165" stroke="#808080" stroke-width="0.754905" stroke-linejoin="round" stroke-dasharray="4.83139 4.83139" fill="none" transform="matrix(1.0002 0 0 1 62 108.416)"/><path d="M31.3286 94.2877 41.1801 94.2877 43.3693 87.72 58.4674 87.72 60.6567 94.2877 70.5082 94.2877 57.0709 53.2586 44.9924 53.2586 31.3286 94.2877ZM46.2002 78.8499 50.7296 64.7331 55.6365 78.8499 46.2002 78.8499Z" fill="#FEFEFE" transform="matrix(1.0002 0 0 1 62 108.416)"/><path d="M87.871 53.2586 78.2082 53.2586 78.2082 77.5665C78.2082 82.2847 80.0955 86.6254 83.3416 89.9092 86.6631 93.1931 91.1548 95.0426 95.873 95.0426 100.44 95.0426 104.932 93.1931 108.216 89.9092 111.5 86.6254 113.349 82.2847 113.349 77.5665L113.349 53.2586 103.724 53.2586 103.724 77.5665C103.724 79.6425 102.856 81.7185 101.422 83.1528 99.9117 84.6626 97.949 85.4553 95.873 85.4553 94.8916 85.4553 93.8725 85.3421 92.8911 84.8891 91.9097 84.5494 91.0416 83.9077 90.2867 83.1528 89.5318 82.3602 88.8524 81.492 88.5504 80.5107 88.0975 79.5293 87.871 78.5479 87.871 77.5665L87.871 53.2586Z" fill="#FEFEFE" transform="matrix(1.0002 0 0 1 62 108.416)"/><path d="M132.863 94.2877 142.488 94.2877 142.488 61.9022 154.68 61.9022 154.68 53.2586 120.747 53.2586 120.747 61.9022 132.863 61.9022 132.863 94.2877Z" fill="#FEFEFE" transform="matrix(1.0002 0 0 1 62 108.416)"/><path d="M160.644 80.2087C161.852 84.4739 164.343 88.2862 167.853 90.8906 171.364 93.646 175.742 95.0426 180.12 95.0426 184.612 95.0426 188.877 93.646 192.501 90.8906 195.973 88.2862 198.502 84.4739 199.597 80.2087 200.805 76.0567 200.805 71.565 199.597 67.4131 198.502 63.1478 195.973 59.2601 192.501 56.5424 188.877 53.938 184.612 52.3904 180.12 52.3904 175.742 52.3904 171.364 53.938 167.853 56.5424 164.343 59.2601 161.852 63.1478 160.644 67.4131 159.549 71.565 159.549 76.0567 160.644 80.2087ZM170.911 78.4347C170.156 75.3773 170.156 72.2067 170.911 69.0361 171.477 67.0733 172.647 65.2238 174.308 63.9027 175.931 62.5817 178.007 61.94 180.12 61.94 182.31 61.94 184.272 62.5817 186.046 63.9027 187.669 65.2238 188.877 67.0733 189.444 69.0361 190.198 72.2067 190.198 75.3773 189.444 78.4347 188.877 80.5107 187.669 82.3602 186.046 83.6813 184.272 84.8891 182.31 85.644 180.12 85.644 178.007 85.644 175.931 84.8891 174.308 83.6813 172.647 82.3602 171.477 80.5107 170.911 78.4347Z" fill="#FEFEFE" transform="matrix(1.0002 0 0 1 62 108.416)"/><path d="M205.561 53.2586 215.224 53.2586 222.659 79.9445 229.755 53.2586 239.607 53.2586 228.434 94.2877 216.733 94.2877 205.561 53.2586Z" fill="#FEFEFE" transform="matrix(1.0002 0 0 1 62 108.416)"/><path d="M247.647 94.2877 257.083 94.2877 257.083 53.2586 247.647 53.2586 247.647 94.2877Z" fill="#FEFEFE" transform="matrix(1.0002 0 0 1 62 108.416)"/><path d="M249.27 50.4654 254.667 50.4654 260.82 42.237 252.591 42.237 249.27 50.4654Z" fill="#FEFEFE" transform="matrix(1.0002 0 0 1 62 108.416)"/><path d="M265.576 94.2877 275.427 94.2877 277.616 87.72 292.828 87.72 294.904 94.2877 304.755 94.2877 291.318 53.2586 279.24 53.2586 265.576 94.2877ZM280.447 78.8499 284.977 64.7331 289.884 78.8499 280.447 78.8499Z" fill="#FEFEFE" transform="matrix(1.0002 0 0 1 62 108.416)"/><path d="M138.11 173.553 140.979 173.553 143.96 154.907 141.507 154.907 138.11 173.553Z" fill="#FEFEFE" transform="matrix(1.0002 0 0 1 62 108.416)"/><path d="M144.338 140.11 146.338 140.11 147.546 132.637 145.659 132.637 144.338 140.11Z" fill="#FEFEFE" transform="matrix(1.0002 0 0 1 62 108.416)"/><path d="M197.936 173.553 195.181 173.553 192.123 154.907 194.539 154.907 197.936 173.553Z" fill="#FEFEFE" transform="matrix(1.0002 0 0 1 62 108.416)"/><path d="M191.821 140.11 189.708 140.11 188.5 132.637 190.425 132.637 191.821 140.11Z" fill="#FEFEFE" transform="matrix(1.0002 0 0 1 62 108.416)"/></g></svg>