<svg width="336" height="504" xmlns="http://www.w3.org/2000/svg" xmlns:xlink="http://www.w3.org/1999/xlink" xml:space="preserve" overflow="hidden"><defs><clipPath id="clip0"><rect x="62" y="108" width="336" height="504"/></clipPath></defs><g clip-path="url(#clip0)" transform="translate(-62 -108)"><path d="M0.377451 484.534C0.377451 486.799 0.830392 489.101 1.69853 491.403 2.6799 493.706 4.11422 495.895 5.85049 497.745 7.7 499.594 9.88922 500.915 12.1917 501.897 14.4941 502.765 16.9098 503.218 19.099 503.218L316.983 503.218C319.286 503.218 321.588 502.765 323.853 501.897 326.155 500.915 328.345 499.594 330.194 497.745 332.081 495.895 333.365 493.706 334.346 491.403 335.252 489.101 335.667 486.799 335.667 484.534L335.667 19.0613C335.667 16.7588 335.252 14.4564 334.346 12.1539 333.365 9.88922 332.081 7.7 330.194 5.81275 328.345 3.96324 326.155 2.52892 323.853 1.66078 321.588 0.792647 319.286 0.377451 316.983 0.377451L19.099 0.377451C16.9098 0.377451 14.4941 0.792647 12.1917 1.66078 9.88922 2.52892 7.7 3.96324 5.85049 5.81275 4.11422 7.7 2.6799 9.88922 1.69853 12.1539 0.830392 14.4564 0.377451 16.7588 0.377451 19.0613L0.377451 484.534Z" fill="#FFFFFF" transform="matrix(1.0002 0 0 1 62 108.404)"/><path d="M0.377451 484.496C0.377451 489.554 2.37794 494.234 5.88824 497.745 9.39853 501.255 14.1922 503.218 19.1368 503.218" stroke="#343434" stroke-width="0.754902" stroke-linejoin="round" fill="none" transform="matrix(1.0002 0 0 1 62 108.404)"/><path d="M19.099 503.18 316.946 503.18" stroke="#343434" stroke-width="0.754902" stroke-linejoin="round" fill="none" transform="matrix(1.0002 0 0 1 62 108.404)"/><path d="M316.946 503.218C321.966 503.218 326.722 501.255 330.194 497.745 333.704 494.234 335.667 489.554 335.667 484.496" stroke="#343434" stroke-width="0.754902" stroke-linejoin="round" fill="none" transform="matrix(1.0002 0 0 1 62 108.404)"/><path d="M335.629 484.496 335.629 19.0613" stroke="#343434" stroke-width="0.754902" stroke-linejoin="round" fill="none" transform="matrix(1.0002 0 0 1 62 108.404)"/><path d="M335.667 19.099C335.667 14.0789 333.704 9.36078 330.194 5.85049 326.722 2.3402 321.966 0.377451 316.946 0.377451" stroke="#343434" stroke-width="0.754902" stroke-linejoin="round" fill="none" transform="matrix(1.0002 0 0 1 62 108.404)"/><path d="M316.946 0.377451 19.099 0.377451" stroke="#343434" stroke-width="0.754902" stroke-linejoin="round" fill="none" transform="matrix(1.0002 0 0 1 62 108.404)"/><path d="M19.1368 0.377451C14.1922 0.377451 9.39853 2.3402 5.88824 5.85049 2.37794 9.36078 0.377451 14.0789 0.377451 19.099" stroke="#343434" stroke-width="0.754902" stroke-linejoin="round" fill="none" transform="matrix(1.0002 0 0 1 62 108.404)"/><path d="M0.377451 19.0613 0.377451 484.496" stroke="#343434" stroke-width="0.754902" stroke-linejoin="round" fill="none" transform="matrix(1.0002 0 0 1 62 108.404)"/><path d="M8.60588 484.534C8.60588 485.817 8.79461 487.138 9.36078 488.459 9.88922 489.667 10.6819 490.875 11.6632 491.97 12.7578 492.951 13.9657 493.706 15.249 494.234 16.4569 494.801 17.7779 495.027 19.099 495.027L316.983 495.027C318.304 495.027 319.625 494.801 320.909 494.234 322.117 493.706 323.438 492.951 324.419 491.97 325.401 490.875 326.155 489.667 326.722 488.459 327.25 487.138 327.476 485.817 327.476 484.534L327.476 19.0613C327.476 17.7402 327.25 16.4191 326.722 15.1358 326.155 13.9279 325.401 12.6069 324.419 11.6255 323.438 10.6441 322.117 9.77598 320.909 9.32304 319.625 8.79461 318.304 8.56814 316.983 8.56814L19.099 8.56814C17.7779 8.56814 16.4569 8.79461 15.249 9.32304 13.9657 9.77598 12.7578 10.6441 11.6632 11.6255 10.6819 12.6069 9.88922 13.9279 9.36078 15.1358 8.79461 16.4191 8.60588 17.7402 8.60588 19.0613L8.60588 484.534Z" fill="#0055FF" transform="matrix(1.0002 0 0 1 62 108.404)"/><path d="M126.635 178.006 155.774 178.006 158.718 66.2804 143.809 66.2804 126.635 178.006Z" fill="#FFFFFF" transform="matrix(1.0002 0 0 1 62 108.404)"/><path d="M89.7956 417.499 149.433 417.499 155.095 204.126 122.634 204.126 89.7956 417.499Z" fill="#FFFFFF" transform="matrix(1.0002 0 0 1 62 108.404)"/><path d="M209.41 178.006 180.308 178.006 177.364 66.2804 192.274 66.2804 209.41 178.006Z" fill="#FFFFFF" transform="matrix(1.0002 0 0 1 62 108.404)"/><path d="M246.249 417.499 186.65 417.499 180.988 204.126 213.449 204.126 246.249 417.499Z" fill="#FFFFFF" transform="matrix(1.0002 0 0 1 62 108.404)"/><path d="M60.0902 196.69 93.5701 196.69 93.5701 217.148 108.442 217.148 108.442 196.69 227.678 196.69 227.678 217.148 242.55 217.148 242.55 196.69 276.105 196.69 276.105 185.404 60.0902 185.404 60.0902 196.69Z" fill="#FFFFFF" transform="matrix(1.0002 0 0 1 62 108.404)"/><path d="M48.6912 495.027 327.476 67.375 327.476 19.0613C327.476 16.1926 326.382 13.5882 324.419 11.6255 322.456 9.66275 319.814 8.56814 316.983 8.56814L294.676 8.56814 8.60588 447.355 8.60588 484.534C8.60588 485.817 8.79461 487.138 9.36078 488.459 9.88922 489.667 10.6819 490.875 11.6632 491.97 12.7578 492.951 13.9657 493.706 15.249 494.234 16.4569 494.801 17.7779 495.027 19.099 495.027L48.6912 495.027Z" fill="#FF0000" transform="matrix(1.0002 0 0 1 62 108.404)"/><path d="M90.2108 550.059 216.544 525.487" stroke="#808080" stroke-width="0.754902" stroke-linejoin="round" stroke-dasharray="4.83137 4.83137" fill="none" transform="matrix(1.0002 0 0 1 62 108.404)"/></g></svg>