<svg width="410" height="393" xmlns="http://www.w3.org/2000/svg" xmlns:xlink="http://www.w3.org/1999/xlink" xml:space="preserve" overflow="hidden"><defs><clipPath id="clip0"><rect x="435" y="163" width="410" height="393"/></clipPath></defs><g clip-path="url(#clip0)" transform="translate(-435 -163)"><path d="M0.377869 371.823C0.377869 374.128 0.793525 376.66 1.77598 379.154 2.75844 381.685 4.3077 383.99 6.27262 386.069 8.23754 388.034 10.5425 389.545 13.0743 390.527 15.5682 391.51 18.0999 391.963 20.4805 391.963L388.525 391.963C390.943 391.963 393.475 391.51 395.969 390.527 398.5 389.545 400.806 388.034 402.77 386.069 404.735 383.99 406.285 381.685 407.267 379.154 408.25 376.66 408.665 374.128 408.665 371.823L408.665 20.5183C408.665 18.1377 408.25 15.606 407.267 13.0743 406.285 10.5803 404.735 8.27533 402.77 6.31041 400.806 4.34549 398.5 2.79623 395.969 1.81377 393.475 0.831311 390.943 0.377869 388.525 0.377869L20.4805 0.377869C18.0999 0.377869 15.5682 0.831311 13.0743 1.81377 10.5425 2.79623 8.23754 4.34549 6.27262 6.31041 4.3077 8.27533 2.75844 10.5803 1.77598 13.0743 0.793525 15.606 0.377869 18.1377 0.377869 20.5183L0.377869 371.823Z" fill="#0055FF" transform="matrix(1.00162 0 0 1 435 163.008)"/><path d="M0.377869 371.785C0.377869 377.075 2.45615 382.214 6.27262 386.069 9.97574 389.772 15.1525 391.963 20.5183 391.963" stroke="#343434" stroke-width="0.755738" stroke-linejoin="round" fill="none" transform="matrix(1.00162 0 0 1 435 163.008)"/><path d="M20.4805 391.926 388.487 391.926" stroke="#343434" stroke-width="0.755738" stroke-linejoin="round" fill="none" transform="matrix(1.00162 0 0 1 435 163.008)"/><path d="M388.487 391.963C393.853 391.963 398.992 389.772 402.77 386.069 406.587 382.214 408.665 377.075 408.665 371.785" stroke="#343434" stroke-width="0.755738" stroke-linejoin="round" fill="none" transform="matrix(1.00162 0 0 1 435 163.008)"/><path d="M408.627 371.785 408.627 20.5183" stroke="#343434" stroke-width="0.755738" stroke-linejoin="round" fill="none" transform="matrix(1.00162 0 0 1 435 163.008)"/><path d="M408.665 20.5561C408.665 15.1903 406.587 10.0135 402.77 6.31041 398.992 2.45615 393.853 0.377869 388.487 0.377869" stroke="#343434" stroke-width="0.755738" stroke-linejoin="round" fill="none" transform="matrix(1.00162 0 0 1 435 163.008)"/><path d="M388.487 0.377869 20.4805 0.377869" stroke="#343434" stroke-width="0.755738" stroke-linejoin="round" fill="none" transform="matrix(1.00162 0 0 1 435 163.008)"/><path d="M20.5183 0.377869C15.1525 0.377869 9.97574 2.45615 6.27262 6.31041 2.45615 10.0135 0.377869 15.1903 0.377869 20.5561" stroke="#343434" stroke-width="0.755738" stroke-linejoin="round" fill="none" transform="matrix(1.00162 0 0 1 435 163.008)"/><path d="M0.377869 20.5183 0.377869 371.785" stroke="#343434" stroke-width="0.755738" stroke-linejoin="round" fill="none" transform="matrix(1.00162 0 0 1 435 163.008)"/><path d="M2.64508 371.823C2.64508 373.901 2.98516 376.093 3.85426 378.398 4.72336 380.59 6.0459 382.668 7.82189 384.406 9.67344 386.182 11.7517 387.58 13.9434 388.449 16.135 389.356 18.4022 389.658 20.4805 389.658L388.525 389.658C390.603 389.658 392.908 389.356 395.1 388.449 397.291 387.58 399.37 386.182 401.221 384.406 402.997 382.668 404.282 380.59 405.189 378.398 406.058 376.093 406.36 373.901 406.36 371.823L406.36 310.193C406.36 308.114 406.058 305.809 405.189 303.618 404.282 301.426 402.997 299.348 401.221 297.61 399.37 295.834 397.291 294.435 395.1 293.566 392.908 292.659 390.603 292.357 388.525 292.357L20.4805 292.357C18.4022 292.357 16.135 292.659 13.9434 293.566 11.7517 294.435 9.67344 295.834 7.82189 297.61 6.0459 299.348 4.72336 301.426 3.85426 303.618 2.98516 305.809 2.64508 308.114 2.64508 310.193L2.64508 371.823ZM7.02836 371.823 7.02836 310.193C7.02836 308.643 7.36844 306.905 8.01082 305.242 8.69098 303.618 9.67344 302.068 10.996 300.784 12.2807 299.461 13.9434 298.365 15.5682 297.723 17.2308 297.043 18.969 296.816 20.4805 296.816L388.525 296.816C390.074 296.816 391.812 297.043 393.475 297.723 395.1 298.365 396.762 299.461 398.047 300.784 399.37 302.068 400.352 303.618 401.032 305.242 401.675 306.905 402.015 308.643 402.015 310.193L402.015 371.823C402.015 373.372 401.675 374.997 401.032 376.735 400.352 378.398 399.37 379.909 398.047 381.232 396.762 382.554 395.1 383.65 393.475 384.293 391.812 384.973 390.074 385.162 388.525 385.162L20.4805 385.162C18.969 385.162 17.2308 384.973 15.5682 384.293 13.9434 383.65 12.2807 382.554 10.996 381.232 9.67344 379.909 8.69098 378.398 8.01082 376.735 7.36844 374.997 7.02836 373.372 7.02836 371.823Z" fill="#FEFEFE" transform="matrix(1.00162 0 0 1 435 163.008)"/><path d="M2.64508 269.95C2.64508 272.141 2.98516 274.333 3.85426 276.638 4.72336 278.829 6.0459 280.908 7.82189 282.646 9.67344 284.384 11.7517 285.707 13.9434 286.576 16.135 287.445 18.4022 287.898 20.4805 287.898L388.525 287.898C390.603 287.898 392.908 287.445 395.1 286.576 397.291 285.707 399.37 284.384 401.221 282.646 402.997 280.908 404.282 278.829 405.189 276.638 406.058 274.333 406.36 272.141 406.36 269.95L406.36 208.432C406.36 206.354 406.058 204.049 405.189 201.858 404.282 199.666 402.997 197.588 401.221 195.849 399.37 193.96 397.291 192.675 395.1 191.768 392.908 190.899 390.603 190.597 388.525 190.597L20.4805 190.597C18.4022 190.597 16.135 190.899 13.9434 191.768 11.7517 192.675 9.67344 193.96 7.82189 195.849 6.0459 197.588 4.72336 199.666 3.85426 201.858 2.98516 204.049 2.64508 206.354 2.64508 208.432L2.64508 269.95ZM7.02836 269.95 7.02836 208.432C7.02836 206.883 7.36844 205.145 8.01082 203.482 8.69098 201.858 9.67344 200.308 10.996 198.91 12.2807 197.588 13.9434 196.605 15.5682 195.925 17.2308 195.283 18.969 195.056 20.4805 195.056L388.525 195.056C390.074 195.056 391.812 195.283 393.475 195.925 395.1 196.605 396.762 197.588 398.047 198.91 399.37 200.308 400.352 201.858 401.032 203.482 401.675 205.145 402.015 206.883 402.015 208.432L402.015 269.95C402.015 271.574 401.675 273.237 401.032 274.975 400.352 276.638 399.37 278.149 398.047 279.472 396.762 280.794 395.1 281.777 393.475 282.419 391.812 283.099 390.074 283.402 388.525 283.402L20.4805 283.402C18.969 283.402 17.2308 283.099 15.5682 282.419 13.9434 281.777 12.2807 280.794 10.996 279.472 9.67344 278.149 8.69098 276.638 8.01082 274.975 7.36844 273.237 7.02836 271.574 7.02836 269.95Z" fill="#FEFEFE" transform="matrix(1.00162 0 0 1 435 163.008)"/><path d="M2.64508 168.189C2.64508 170.381 2.98516 172.573 3.85426 174.764 4.72336 177.032 6.0459 179.11 7.82189 180.886 9.67344 182.624 11.7517 183.947 13.9434 184.816 16.135 185.685 18.4022 186.138 20.4805 186.138L388.525 186.138C390.603 186.138 392.908 185.685 395.1 184.816 397.291 183.947 399.37 182.624 401.221 180.886 402.997 179.11 404.282 177.032 405.189 174.764 406.058 172.573 406.36 170.381 406.36 168.189L406.36 106.635C406.36 104.556 406.058 102.289 405.189 100.097 404.282 97.9058 402.997 95.8275 401.221 93.9382 399.37 92.2 397.291 90.8775 395.1 90.0084 392.908 89.1393 390.603 88.6858 388.525 88.6858L20.4805 88.6858C18.4022 88.6858 16.135 89.1393 13.9434 90.0084 11.7517 90.8775 9.67344 92.2 7.82189 93.9382 6.0459 95.8275 4.72336 97.9058 3.85426 100.097 2.98516 102.289 2.64508 104.556 2.64508 106.635L2.64508 168.189ZM7.02836 168.189 7.02836 106.635C7.02836 105.123 7.36844 103.347 8.01082 101.722 8.69098 100.097 9.67344 98.4348 10.996 97.1123 12.2807 95.8275 13.9434 94.8451 15.5682 94.1649 17.2308 93.5225 18.969 93.1825 20.4805 93.1825L388.525 93.1825C390.074 93.1825 391.812 93.5225 393.475 94.1649 395.1 94.8451 396.762 95.8275 398.047 97.1123 399.37 98.4348 400.352 100.097 401.032 101.722 401.675 103.347 402.015 105.123 402.015 106.635L402.015 168.189C402.015 169.814 401.675 171.477 401.032 173.102 400.352 174.878 399.37 176.389 398.047 177.712 396.762 179.034 395.1 180.017 393.475 180.659 391.812 181.301 390.074 181.642 388.525 181.642L20.4805 181.642C18.969 181.642 17.2308 181.301 15.5682 180.659 13.9434 180.017 12.2807 179.034 10.996 177.712 9.67344 176.389 8.69098 174.878 8.01082 173.102 7.36844 171.477 7.02836 169.814 7.02836 168.189Z" fill="#FEFEFE" transform="matrix(1.00162 0 0 1 435 163.008)"/><path d="M2.64508 66.4293C2.64508 68.5076 2.98516 70.7748 3.85426 72.9665 4.72336 75.2715 6.0459 77.3498 7.82189 79.1257 9.67344 80.8639 11.7517 82.1865 13.9434 83.0556 16.135 83.9247 18.4022 84.3781 20.4805 84.3781L388.525 84.3781C390.603 84.3781 392.908 83.9247 395.1 83.0556 397.291 82.1865 399.37 80.8639 401.221 79.1257 402.997 77.3498 404.282 75.2715 405.189 72.9665 406.058 70.7748 406.36 68.5076 406.36 66.4293L406.36 20.5183C406.36 18.44 406.058 16.135 405.189 13.9811 404.282 11.6761 402.997 9.59787 401.221 7.82189 399.37 6.08369 397.291 4.76115 395.1 3.89205 392.908 3.02295 390.603 2.56951 388.525 2.56951L20.4805 2.56951C18.4022 2.56951 16.135 3.02295 13.9434 3.89205 11.7517 4.76115 9.67344 6.08369 7.82189 7.82189 6.0459 9.59787 4.72336 11.6761 3.85426 13.9811 2.98516 16.135 2.64508 18.44 2.64508 20.5183L2.64508 66.4293ZM7.02836 66.4293 7.02836 20.5183C7.02836 18.8934 7.36844 17.2308 8.01082 15.606 8.69098 13.9811 9.67344 12.3185 10.996 10.996 12.2807 9.71123 13.9434 8.72877 15.5682 8.04861 17.2308 7.40623 18.969 7.06615 20.4805 7.06615L388.525 7.06615C390.074 7.06615 391.812 7.40623 393.475 8.04861 395.1 8.72877 396.762 9.71123 398.047 10.996 399.37 12.3185 400.352 13.9811 401.032 15.606 401.675 17.2308 402.015 18.8934 402.015 20.5183L402.015 66.4293C402.015 68.0542 401.675 69.7168 401.032 71.3416 400.352 72.9665 399.37 74.6291 398.047 75.9516 396.762 77.2364 395.1 78.2189 393.475 78.899 391.812 79.5414 390.074 79.8815 388.525 79.8815L20.4805 79.8815C18.969 79.8815 17.2308 79.5414 15.5682 78.899 13.9434 78.2189 12.2807 77.2364 10.996 75.9516 9.67344 74.6291 8.69098 72.9665 8.01082 71.3416 7.36844 69.7168 7.02836 68.0542 7.02836 66.4293Z" fill="#FEFEFE" transform="matrix(1.00162 0 0 1 435 163.008)"/><path d="M27.6222 363.51 27.6222 317.637 73.6089 317.637 73.6089 363.51 27.6222 363.51Z" fill="#FEFEFE" transform="matrix(1.00162 0 0 1 435 163.008)"/><path d="M65.5225 347.639C64.9557 348.849 63.7465 349.718 62.4617 349.718 61.7816 349.718 61.1392 349.491 60.5724 349.075 60.0434 348.735 59.7033 348.206 59.4766 347.639L42.6236 347.639C42.208 348.849 40.961 349.718 39.6384 349.718 38.3537 349.718 37.1445 348.849 36.5777 347.639L32.7612 347.639 32.3078 345.032 33.1769 341.631 42.208 341.178 48.2161 335.888 62.8774 335.888 67.6007 340.309 68.8855 345.448 67.1473 347.639 65.5225 347.639ZM61.0258 341.178C61.1392 341.178 61.2525 341.064 61.2525 340.989 61.3659 340.989 61.4793 340.875 61.4793 340.762L61.4793 339.893C61.4793 338.684 60.459 337.701 59.2876 337.701L56.4158 337.701 56.0002 341.178 61.0258 341.178ZM54.2242 341.178 54.6776 337.701 48.8962 337.701 45.382 341.178 54.2242 341.178Z" fill="#010101" transform="matrix(1.00162 0 0 1 435 163.008)"/><path d="M96.4321 363.51 96.4321 317.637 381.534 317.637 381.534 363.51 96.4321 363.51Z" fill="#FEFEFE" transform="matrix(1.00162 0 0 1 435 163.008)"/><path d="M177.145 335.925C176.351 333.809 174.953 331.958 172.913 330.635 171.061 329.426 168.756 328.784 166.489 328.897 164.184 329.01 161.992 329.88 160.254 331.429 158.478 332.827 157.156 334.83 156.627 337.021 156.06 339.326 156.06 341.745 156.627 344.05 157.156 346.317 158.478 348.32 160.254 349.718 161.992 351.267 164.184 352.023 166.489 352.136 168.681 352.363 170.948 351.796 172.913 350.398 173.933 349.718 174.84 348.962 175.482 348.093 175.936 347.639 176.125 347.11 176.465 346.657 176.691 346.128 176.918 345.674 177.145 345.145L172.157 343.143C171.741 345.561 169.663 347.413 167.245 347.526 164.826 347.639 162.635 346.015 161.879 343.71 161.426 341.631 161.426 339.553 161.879 337.475 162.635 335.17 164.826 333.507 167.245 333.583 168.341 333.696 169.55 334.074 170.419 334.943 171.401 335.736 171.93 336.795 172.157 337.89L177.145 335.925Z" fill="#010101" transform="matrix(1.00162 0 0 1 435 163.008)"/><path d="M179.714 351.796 185.118 351.796 186.214 348.206 194.527 348.206 195.736 351.796 201.102 351.796 193.771 329.35 187.196 329.35 179.714 351.796ZM187.839 343.369 190.257 335.623 192.978 343.369 187.839 343.369Z" fill="#010101" transform="matrix(1.00162 0 0 1 435 163.008)"/><path d="M214.403 351.796C217.917 351.796 221.204 350.058 223.056 347.11 223.585 346.317 223.925 345.448 224.265 344.465 224.945 341.971 224.945 339.213 224.265 336.719 223.925 335.736 223.585 334.83 223.056 334.074 221.204 331.126 217.917 329.35 214.403 329.35L205.334 329.35 205.334 351.796 214.403 351.796ZM214.063 334.074C216.141 334.074 218.03 335.283 218.786 337.248 219.542 339.326 219.542 341.745 218.786 343.936 218.03 345.788 216.141 347.11 214.063 347.11L210.473 347.11 210.473 334.074 214.063 334.074Z" fill="#010101" transform="matrix(1.00162 0 0 1 435 163.008)"/><path d="M229.933 351.796 246.597 351.796 246.597 346.884 235.072 346.884 235.072 342.614 244.443 342.614 244.443 337.89 235.072 337.89 235.072 333.961 245.501 333.961 245.501 329.35 229.933 329.35 229.933 351.796Z" fill="#010101" transform="matrix(1.00162 0 0 1 435 163.008)"/><path d="M252.265 351.796 257.631 351.796 257.631 337.588 267.531 351.796 273.199 351.796 273.199 329.35 268.174 329.35 268.174 343.823 258.084 329.35 252.265 329.35 252.265 351.796Z" fill="#010101" transform="matrix(1.00162 0 0 1 435 163.008)"/><path d="M277.431 351.796 282.797 351.796 284.006 348.206 292.244 348.206 293.453 351.796 298.819 351.796 291.488 329.35 284.875 329.35 277.431 351.796ZM285.518 343.369 288.049 335.623 290.695 343.369 285.518 343.369Z" fill="#010101" transform="matrix(1.00162 0 0 1 435 163.008)"/><path d="M301.728 348.206C303.693 350.171 306.225 351.494 308.946 351.909 311.704 352.476 314.538 352.136 317.032 351.04 318.846 350.398 320.244 349.189 321.151 347.526 321.566 346.657 321.68 345.788 321.68 344.919 321.68 343.067 321.037 341.405 319.715 340.082 318.846 339.213 317.599 338.684 316.39 338.344 314.84 337.815 313.215 337.475 311.591 337.248 311.251 337.248 310.91 337.135 310.608 336.908 310.381 336.908 310.268 336.795 310.155 336.719 309.928 336.492 309.815 336.152 309.815 335.925 309.815 335.283 310.268 334.641 310.797 334.414 311.364 334.074 312.006 333.847 312.762 333.847 313.669 333.847 314.651 333.961 315.634 334.301 316.616 334.527 317.485 334.943 318.279 335.623L321.793 331.882C317.863 328.897 312.686 328.141 308.076 329.766 305.431 330.749 303.807 333.318 303.807 336.039 303.92 338.684 305.658 341.064 308.303 341.971 309.701 342.387 311.251 342.727 312.762 342.954 312.989 343.067 313.329 343.067 313.669 343.143 314.085 343.256 314.425 343.369 314.765 343.596 315.294 343.823 315.521 344.352 315.521 344.919 315.521 345.788 314.84 346.544 313.858 346.77 312.573 347.224 311.024 347.299 309.512 346.884 307.963 346.43 306.641 345.674 305.658 344.579L301.728 348.206Z" fill="#010101" transform="matrix(1.00162 0 0 1 435 163.008)"/><path d="M27.6222 261.07 27.6222 215.196 73.6089 215.196 73.6089 261.07 27.6222 261.07Z" fill="#FEFEFE" transform="matrix(1.00162 0 0 1 435 163.008)"/><path d="M58.9098 244.67C59.3632 246.219 60.7613 247.315 62.4239 247.315 63.9732 247.315 65.4091 246.219 65.8248 244.67L70.3214 244.67 70.3214 231.18 43.795 231.18 43.795 232.163 39.9785 232.163C39.5251 232.163 39.2228 232.503 39.1094 232.805L37.9002 237.566 34.6128 237.566C33.4036 237.566 32.3078 238.549 32.3078 239.871L32.3078 242.592 30.9097 242.592 30.9097 244.67 35.3685 244.67C35.822 246.219 37.2579 247.315 38.7693 247.315 39.5251 247.315 40.3186 247.088 40.961 246.522 41.6034 246.106 42.0568 245.312 42.2835 244.67L58.9098 244.67ZM39.7518 237.566 40.7343 234.014 43.795 234.014 43.795 237.566 39.7518 237.566Z" fill="#010101" transform="matrix(1.00162 0 0 1 435 163.008)"/><path d="M96.4321 261.07 96.4321 215.196 381.534 215.196 381.534 261.07 96.4321 261.07Z" fill="#FEFEFE" transform="matrix(1.00162 0 0 1 435 163.008)"/><path d="M177.447 233.485C176.691 231.294 175.256 229.518 173.253 228.233 171.401 226.91 169.096 226.343 166.791 226.457 164.486 226.57 162.332 227.439 160.556 228.875 158.818 230.424 157.496 232.389 156.967 234.581 156.4 236.848 156.4 239.267 156.967 241.609 157.496 243.801 158.818 245.879 160.556 247.315 162.332 248.713 164.486 249.582 166.791 249.696 168.983 249.809 171.288 249.28 173.253 247.958 174.235 247.315 175.142 246.522 175.822 245.539 176.238 245.124 176.578 244.67 176.805 244.254 177.032 243.688 177.22 243.234 177.447 242.705L172.497 240.74C172.044 243.159 169.965 244.897 167.585 245.01 165.166 245.124 162.975 243.574 162.332 241.156 161.766 239.153 161.766 236.962 162.332 234.997 162.975 232.616 165.166 231.067 167.585 231.18 168.681 231.18 169.852 231.596 170.759 232.503 171.741 233.258 172.27 234.354 172.497 235.45L177.447 233.485Z" fill="#010101" transform="matrix(1.00162 0 0 1 435 163.008)"/><path d="M182.435 249.28 199.137 249.28 199.137 244.33 187.612 244.33 187.612 240.06 197.059 240.06 197.059 235.45 187.612 235.45 187.612 231.52 198.041 231.52 198.041 226.91 182.435 226.91 182.435 249.28Z" fill="#010101" transform="matrix(1.00162 0 0 1 435 163.008)"/><path d="M218.106 240.06C219.542 239.531 220.751 238.435 221.507 236.962 222.3 235.563 222.603 234.014 222.3 232.503 221.96 230.84 221.204 229.518 219.995 228.46 218.673 227.439 217.237 226.91 215.612 226.91L204.88 226.91 204.88 249.28 209.906 249.28 209.906 240.627 212.665 240.627 217.804 249.28 223.509 249.28 218.106 240.06ZM214.516 231.407C215.839 231.407 216.935 232.389 216.935 233.712 216.935 234.997 215.839 236.092 214.516 236.092L209.906 236.092 209.906 231.407 214.516 231.407Z" fill="#010101" transform="matrix(1.00162 0 0 1 435 163.008)"/><path d="M242.101 240.06C243.499 239.531 244.708 238.435 245.501 236.962 246.295 235.563 246.522 234.014 246.295 232.503 245.955 230.84 245.086 229.518 243.839 228.46 242.63 227.439 241.118 226.91 239.569 226.91L228.724 226.91 228.724 249.28 233.787 249.28 233.787 240.627 236.621 240.627 241.76 249.28 247.504 249.28 242.101 240.06ZM238.473 231.407C239.796 231.407 240.891 232.389 240.891 233.712 240.891 234.997 239.796 236.092 238.473 236.092L233.787 236.092 233.787 231.407 238.473 231.407Z" fill="#010101" transform="matrix(1.00162 0 0 1 435 163.008)"/><path d="M250.3 249.28 255.666 249.28 256.762 245.766 265.075 245.766 266.284 249.28 271.688 249.28 264.319 226.91 257.744 226.91 250.3 249.28ZM258.387 240.967 260.805 233.145 263.526 240.967 258.387 240.967Z" fill="#010101" transform="matrix(1.00162 0 0 1 435 163.008)"/><path d="M285.026 249.28C288.541 249.393 291.79 247.617 293.68 244.67 294.209 243.801 294.549 242.932 294.889 242.063 295.531 239.418 295.531 236.773 294.889 234.128 294.549 233.258 294.209 232.389 293.68 231.52 291.79 228.535 288.541 226.797 285.026 226.91L275.92 226.91 275.92 249.28 285.026 249.28ZM284.686 231.596C286.765 231.596 288.616 232.805 289.41 234.694 290.165 236.848 290.165 239.304 289.41 241.496 288.616 243.348 286.765 244.557 284.686 244.557L281.059 244.557 281.059 231.596 284.686 231.596Z" fill="#010101" transform="matrix(1.00162 0 0 1 435 163.008)"/><path d="M299.537 241.609C300.179 243.914 301.615 245.993 303.466 247.504 305.431 248.94 307.736 249.696 310.155 249.696 312.724 249.696 314.991 248.94 316.994 247.504 318.846 245.993 320.244 243.914 320.924 241.609 321.453 239.304 321.453 236.848 320.924 234.581 320.244 232.276 318.846 230.198 316.994 228.648 314.991 227.25 312.724 226.457 310.155 226.457 307.736 226.457 305.431 227.25 303.466 228.648 301.615 230.198 300.179 232.276 299.537 234.581 298.97 236.848 298.97 239.304 299.537 241.609ZM305.129 240.74C304.676 239.002 304.676 237.188 305.129 235.563 305.771 233.258 307.85 231.596 310.155 231.596 312.611 231.596 314.689 233.258 315.218 235.563 315.672 237.188 315.672 239.002 315.218 240.74 314.689 243.045 312.611 244.557 310.155 244.557 307.85 244.557 305.771 243.045 305.129 240.74Z" fill="#010101" transform="matrix(1.00162 0 0 1 435 163.008)"/><path d="M27.6222 158.44 27.6222 112.567 381.534 112.567 381.534 158.44 27.6222 158.44Z" fill="#FEFEFE" transform="matrix(1.00162 0 0 1 435 163.008)"/><path d="M60.1567 130.932C59.401 128.74 57.8517 126.888 56.0002 125.679 54.0352 124.357 51.8436 123.828 49.5008 123.941 47.1958 124.054 45.0042 124.923 43.266 126.359 41.4144 127.757 40.2052 129.836 39.6384 132.027 38.9961 134.332 38.9961 136.751 39.6384 139.056 40.2052 141.21 41.4144 143.212 43.266 144.724 45.0042 146.16 47.1958 147.067 49.5008 147.18 51.6169 147.293 53.9219 146.689 56.0002 145.404 56.9826 144.724 57.8517 143.855 58.4941 142.986 59.2876 142.116 59.8166 141.134 60.1567 140.152L55.2066 138.149C54.791 140.567 52.7127 142.305 50.2566 142.419 47.7626 142.532 45.571 140.907 44.8908 138.602 44.4752 136.524 44.4752 134.446 44.8908 132.481 45.571 130.062 47.7626 128.551 50.2566 128.627 51.3902 128.627 52.486 129.08 53.4684 129.836 54.4509 130.705 55.0177 131.801 55.2066 132.896L60.1567 130.932Z" fill="#010101" transform="matrix(1.00162 0 0 1 435 163.008)"/><path d="M64.3133 139.094C64.8423 141.361 66.2782 143.439 68.2809 144.875 70.1325 146.424 72.5508 147.18 74.9692 147.18 77.3498 147.18 79.6548 146.424 81.6197 144.875 83.6224 143.439 84.9071 141.361 85.5873 139.094 86.2297 136.789 86.2297 134.37 85.5873 132.065 84.9071 129.76 83.6224 127.682 81.6197 126.17 79.6548 124.697 77.3498 123.828 74.9692 123.828 72.5508 123.828 70.1325 124.697 68.2809 126.17 66.2782 127.682 64.8423 129.76 64.3133 132.065 63.5953 134.37 63.5953 136.789 64.3133 139.094ZM69.9435 138.073C69.4901 136.448 69.4901 134.71 69.9435 132.934 70.4725 130.667 72.5508 129.118 74.9692 129.118 77.2742 129.118 79.3525 130.667 79.9948 132.934 80.4483 134.71 80.4483 136.448 79.9948 138.073 79.3525 140.378 77.2742 142.041 74.9692 142.041 72.5508 142.041 70.4725 140.378 69.9435 138.073Z" fill="#010101" transform="matrix(1.00162 0 0 1 435 163.008)"/><path d="M91.2931 146.726 96.6966 146.726 96.6966 132.519 106.559 146.726 112.227 146.726 112.227 124.357 107.201 124.357 107.201 138.753 97.1501 124.357 91.2931 124.357 91.2931 146.726Z" fill="#010101" transform="matrix(1.00162 0 0 1 435 163.008)"/><path d="M147.86 137.544C149.334 136.902 150.656 135.806 151.299 134.484 152.054 133.048 152.395 131.423 152.054 129.874 151.752 128.362 150.959 126.926 149.787 125.944 148.54 124.923 146.991 124.357 145.366 124.357L134.635 124.357 134.635 146.726 139.66 146.726 139.66 137.998 142.419 137.998 147.558 146.726 153.264 146.726 147.86 137.544ZM144.384 128.778C145.593 128.778 146.651 129.874 146.651 131.196 146.651 132.519 145.593 133.501 144.384 133.501L139.66 133.501 139.66 128.778 144.384 128.778Z" fill="#010101" transform="matrix(1.00162 0 0 1 435 163.008)"/><path d="M158.478 146.726 175.256 146.726 175.256 141.814 163.655 141.814 163.655 137.544 173.064 137.544 173.064 132.821 163.655 132.821 163.655 128.891 174.046 128.891 174.046 124.357 158.478 124.357 158.478 146.726Z" fill="#010101" transform="matrix(1.00162 0 0 1 435 163.008)"/><path d="M179.601 143.25C181.566 145.102 184.098 146.424 186.818 146.953 189.577 147.52 192.297 147.18 194.943 146.084 196.681 145.442 198.154 144.119 199.024 142.457 199.326 141.701 199.553 140.832 199.553 139.849 199.553 138.073 198.797 136.335 197.55 135.126 196.567 134.257 195.472 133.614 194.262 133.274 192.751 132.821 191.088 132.519 189.463 132.179 189.123 132.179 188.783 132.065 188.481 131.952 188.254 131.838 188.141 131.763 188.028 131.65 187.801 131.423 187.687 131.196 187.687 130.856 187.687 130.214 188.028 129.647 188.594 129.345 189.237 129.004 189.879 128.778 190.559 128.891 191.542 128.778 192.524 128.891 193.507 129.231 194.489 129.571 195.358 129.987 196.114 130.554L199.666 126.926C195.698 123.828 190.559 123.072 185.836 124.848 183.342 125.717 181.679 128.249 181.679 130.969 181.793 133.728 183.531 136.108 186.176 136.902 187.612 137.318 189.123 137.658 190.559 137.998 190.862 137.998 191.202 138.073 191.542 138.073 191.844 138.187 192.297 138.3 192.638 138.527 193.053 138.867 193.393 139.282 193.393 139.849 193.393 140.718 192.751 141.587 191.768 141.814 190.446 142.154 188.897 142.268 187.385 141.814 185.836 141.474 184.513 140.605 183.531 139.623L179.601 143.25Z" fill="#010101" transform="matrix(1.00162 0 0 1 435 163.008)"/><path d="M209.037 146.726 214.289 146.726 214.289 129.004 221.016 129.004 221.016 124.357 202.462 124.357 202.462 129.004 209.037 129.004 209.037 146.726Z" fill="#010101" transform="matrix(1.00162 0 0 1 435 163.008)"/><path d="M238.36 137.544C239.796 136.902 241.005 135.806 241.76 134.484 242.554 133.048 242.894 131.423 242.554 129.874 242.252 128.362 241.42 126.926 240.211 125.944 238.926 124.923 237.491 124.357 235.866 124.357L225.134 124.357 225.134 146.726 230.16 146.726 230.16 137.998 232.881 137.998 238.057 146.726 243.763 146.726 238.36 137.544ZM234.883 128.778C236.055 128.778 237.15 129.874 237.15 131.196 237.15 132.519 236.055 133.501 234.883 133.501L230.16 133.501 230.16 128.778 234.883 128.778Z" fill="#010101" transform="matrix(1.00162 0 0 1 435 163.008)"/><path d="M249.205 146.726 254.381 146.726 254.381 124.357 249.205 124.357 249.205 146.726Z" fill="#010101" transform="matrix(1.00162 0 0 1 435 163.008)"/><path d="M280.87 130.932C280.001 128.74 278.565 126.888 276.713 125.679 274.748 124.357 272.443 123.828 270.138 123.941 267.833 124.054 265.642 124.923 263.904 126.359 262.165 127.757 260.956 129.836 260.389 132.027 259.671 134.332 259.671 136.751 260.389 139.056 260.956 141.21 262.165 143.212 263.904 144.724 265.642 146.16 267.833 147.067 270.138 147.18 272.33 147.293 274.635 146.689 276.713 145.404 277.696 144.724 278.452 143.855 279.207 142.986 279.547 142.532 279.887 142.116 280.114 141.55 280.416 141.134 280.643 140.567 280.87 140.152L275.958 138.149C275.391 140.567 273.426 142.305 270.894 142.419 268.514 142.532 266.322 140.907 265.642 138.602 265.113 136.524 265.113 134.446 265.642 132.481 266.322 130.062 268.514 128.551 270.894 128.627 272.103 128.627 273.199 129.08 274.182 129.836 275.164 130.705 275.731 131.801 275.958 132.896L280.87 130.932Z" fill="#010101" transform="matrix(1.00162 0 0 1 435 163.008)"/><path d="M305.28 130.932C304.487 128.74 303.089 126.888 301.124 125.679 299.197 124.357 296.929 123.828 294.624 123.941 292.319 124.054 290.128 124.923 288.39 126.359 286.614 127.757 285.329 129.836 284.762 132.027 284.195 134.332 284.195 136.751 284.762 139.056 285.329 141.21 286.614 143.212 288.39 144.724 290.128 146.16 292.319 147.067 294.624 147.18 296.816 147.293 299.083 146.689 301.124 145.404 302.106 144.724 302.975 143.855 303.731 142.986 304.071 142.532 304.373 142.116 304.6 141.55 304.94 141.134 305.167 140.567 305.28 140.152L300.33 138.149C299.877 140.567 297.912 142.305 295.38 142.419 292.962 142.532 290.77 140.907 290.128 138.602 289.599 136.524 289.599 134.446 290.128 132.481 290.77 130.062 292.962 128.551 295.38 128.627 296.476 128.627 297.685 129.08 298.668 129.836 299.537 130.705 300.217 131.801 300.33 132.896L305.28 130.932Z" fill="#010101" transform="matrix(1.00162 0 0 1 435 163.008)"/><path d="M310.495 146.726 315.785 146.726 315.785 124.357 310.495 124.357 310.495 146.726Z" fill="#010101" transform="matrix(1.00162 0 0 1 435 163.008)"/><path d="M321.755 139.094C322.284 141.361 323.72 143.439 325.685 144.875 327.537 146.424 329.955 147.18 332.373 147.18 334.83 147.18 337.097 146.424 339.062 144.875 341.064 143.439 342.349 141.361 343.029 139.094 343.672 136.789 343.672 134.37 343.029 132.065 342.349 129.76 341.064 127.682 339.062 126.17 337.097 124.697 334.83 123.828 332.373 123.828 329.955 123.828 327.537 124.697 325.685 126.17 323.72 127.682 322.284 129.76 321.755 132.065 321.113 134.37 321.113 136.789 321.755 139.094ZM327.348 138.073C326.894 136.448 326.894 134.71 327.348 132.934 327.877 130.667 329.955 129.118 332.373 129.118 334.716 129.118 336.795 130.667 337.437 132.934 337.89 134.71 337.89 136.448 337.437 138.073 336.795 140.378 334.716 142.041 332.373 142.041 329.955 142.041 327.877 140.378 327.348 138.073Z" fill="#010101" transform="matrix(1.00162 0 0 1 435 163.008)"/><path d="M330.938 122.77 333.809 122.77 337.21 118.235 332.751 118.235 330.938 122.77Z" fill="#010101" transform="matrix(1.00162 0 0 1 435 163.008)"/><path d="M348.773 146.726 354.139 146.726 354.139 132.519 364.039 146.726 369.707 146.726 369.707 124.357 364.681 124.357 364.681 138.753 354.592 124.357 348.773 124.357 348.773 146.726Z" fill="#010101" transform="matrix(1.00162 0 0 1 435 163.008)"/><path d="M118.575 47.158C121.22 47.158 123.828 46.1756 125.679 44.324 127.569 42.4347 128.551 39.9407 128.551 37.1445 128.551 36.0487 128.324 34.7639 127.871 33.5548 127.342 32.3456 126.699 31.1364 125.679 30.1539 124.697 29.1715 123.525 28.4157 122.316 27.9623 120.994 27.4333 119.784 27.2066 118.575 27.2066L104.859 27.2066 104.859 57.4361 112.114 57.4361 112.114 47.158 118.575 47.158ZM117.366 33.328C118.462 33.328 119.444 33.6681 120.238 34.4239 120.88 35.1796 121.334 36.162 121.334 37.1445 121.334 38.2403 120.88 39.2228 120.238 40.0541 119.444 40.6965 118.462 41.1499 117.366 41.1499L112.114 41.1499 112.114 33.328 117.366 33.328Z" fill="#FEFEFE" transform="matrix(1.00162 0 0 1 435 163.008)"/><path d="M130.705 57.4361 137.922 57.4361 139.547 52.6371 150.732 52.6371 152.243 57.4361 159.612 57.4361 149.636 27.2066 140.756 27.2066 130.705 57.4361ZM141.625 46.1756 144.913 35.7464 148.54 46.1756 141.625 46.1756Z" fill="#FEFEFE" transform="matrix(1.00162 0 0 1 435 163.008)"/><path d="M170.23 27.2066 170.23 48.5939C170.23 49.123 170.117 49.6898 169.663 50.1054 169.323 50.5589 168.756 50.7856 168.227 50.7856 167.245 50.8611 166.262 50.8611 165.28 50.8611 164.297 50.7856 163.315 50.6722 162.408 50.3321L161.426 57.3227C164.713 58.0029 168 58.1162 171.326 57.6628 172.951 57.3227 174.5 56.567 175.596 55.2444 176.691 53.9597 177.22 52.2971 177.22 50.6722L177.22 27.2066 170.23 27.2066Z" fill="#FEFEFE" transform="matrix(1.00162 0 0 1 435 163.008)"/><path d="M182.36 57.4361 189.615 57.4361 191.239 52.6371 202.387 52.6371 204.049 57.4361 211.266 57.4361 201.329 27.2066 192.449 27.2066 182.36 57.4361ZM193.318 46.1756 196.719 35.7464 200.308 46.1756 193.318 46.1756Z" fill="#FEFEFE" transform="matrix(1.00162 0 0 1 435 163.008)"/><path d="M234.921 45.0798C236.886 44.2107 238.511 42.7748 239.493 40.9232 240.476 39.0339 240.816 36.8422 240.476 34.7639 240.06 32.6857 238.964 30.7207 237.302 29.3982 235.677 27.9623 233.599 27.2066 231.482 27.2066L216.935 27.2066 216.935 57.4361 223.698 57.4361 223.698 45.7221 227.439 45.7221 234.468 57.4361 242.138 57.4361 234.921 45.0798ZM230.047 33.328C231.785 33.328 233.221 34.6506 233.221 36.3888 233.221 38.1648 231.785 39.5629 230.047 39.5629L223.698 39.5629 223.698 33.328 230.047 33.328Z" fill="#FEFEFE" transform="matrix(1.00162 0 0 1 435 163.008)"/><path d="M249.091 57.4361 271.688 57.4361 271.688 50.8611 256.12 50.8611 256.12 45.0798 268.816 45.0798 268.816 38.6938 256.12 38.6938 256.12 33.4414 270.138 33.4414 270.138 27.2066 249.091 27.2066 249.091 57.4361Z" fill="#FEFEFE" transform="matrix(1.00162 0 0 1 435 163.008)"/><path d="M277.431 52.7127C280.152 55.32 283.553 57.096 287.18 57.7761 290.883 58.4185 294.738 58.0029 298.139 56.5292 300.557 55.6601 302.408 53.9219 303.618 51.7302 304.184 50.6344 304.487 49.4252 304.487 48.2161 304.373 45.7977 303.391 43.4171 301.766 41.7545 300.444 40.5453 299.045 39.6762 297.269 39.3361 295.191 38.6938 292.962 38.1648 290.883 37.8247 290.354 37.8247 289.901 37.7113 289.485 37.4846 289.259 37.3712 289.032 37.2579 288.805 37.0689 288.578 36.8422 288.503 36.3888 288.503 36.0487 288.503 35.1796 288.919 34.4239 289.674 33.9704 290.468 33.5548 291.45 33.328 292.319 33.328 293.642 33.2147 294.964 33.4414 296.287 33.7815 297.61 34.1971 298.819 34.8773 299.915 35.5197L304.487 30.6074C301.993 28.6425 298.932 27.3199 295.645 26.8665 292.433 26.3375 289.032 26.7531 285.971 27.8489 282.57 29.1715 280.265 32.4589 280.379 36.162 280.379 39.903 282.797 43.077 286.311 44.1729 288.276 44.8152 290.354 45.2687 292.319 45.571 292.773 45.571 293.188 45.6843 293.642 45.7977 294.171 45.9111 294.624 46.1378 295.078 46.3645 295.758 46.7802 296.174 47.4603 296.174 48.1027 296.06 49.4252 295.191 50.4077 293.944 50.7478 292.093 51.2768 290.014 51.3902 287.936 50.8234 285.858 50.2943 284.12 49.1985 282.797 47.7626L277.431 52.7127Z" fill="#FEFEFE" transform="matrix(1.00162 0 0 1 435 163.008)"/><path d="M458.582 324.211C458.015 325.421 456.806 326.29 455.521 326.29 454.841 326.29 454.198 326.063 453.632 325.647 453.103 325.307 452.762 324.778 452.536 324.211L435.683 324.211C435.267 325.421 434.02 326.29 432.698 326.29 431.413 326.29 430.204 325.421 429.637 324.211L425.82 324.211 425.367 321.604 426.236 318.203 435.267 317.75 441.275 312.46 455.937 312.46 460.66 316.881 461.945 322.02 460.206 324.211 458.582 324.211ZM454.085 317.75C454.198 317.75 454.312 317.637 454.312 317.561 454.425 317.561 454.538 317.448 454.538 317.334L454.538 316.465C454.538 315.256 453.518 314.274 452.347 314.274L449.475 314.274 449.059 317.75 454.085 317.75ZM447.283 317.75 447.737 314.274 441.955 314.274 438.441 317.75 447.283 317.75Z" fill="#010101" transform="matrix(1.00162 0 0 1 435 163.008)"/></g></svg>