<svg width="900" height="900" xmlns="http://www.w3.org/2000/svg"><defs><clipPath clipPathUnits="userSpaceOnUse" id="a"><path d="M14.053 25.392h572.621v809.749H14.053V25.392" transform="translate(-147 -293)" clip-rule="evenodd"/></clipPath><clipPath clipPathUnits="userSpaceOnUse" id="b"><path d="M14.053 25.392h572.621v809.749H14.053V25.392" transform="translate(-147 -293)" clip-rule="evenodd"/></clipPath><clipPath clipPathUnits="userSpaceOnUse" id="c"><path d="M14.053 25.392h572.621v809.749H14.053V25.392" transform="translate(-154.5 -293)" clip-rule="evenodd"/></clipPath><clipPath clipPathUnits="userSpaceOnUse" id="d"><path d="M14.053 25.392h572.621v809.749H14.053V25.392" transform="translate(-406 -455.6)" clip-rule="evenodd"/></clipPath><clipPath clipPathUnits="userSpaceOnUse" id="e"><path d="M14.053 25.392h572.621v809.749H14.053V25.392" transform="translate(-195.6 -333.9)" clip-rule="evenodd"/></clipPath><clipPath clipPathUnits="userSpaceOnUse" id="f"><path d="M14.053 25.392h572.621v809.749H14.053V25.392" transform="translate(-213.8 -343.5)" clip-rule="evenodd"/></clipPath><clipPath clipPathUnits="userSpaceOnUse" id="g"><path d="M14.053 25.392h572.621v809.749H14.053V25.392" transform="translate(-250.1 -344.6)" clip-rule="evenodd"/></clipPath><clipPath clipPathUnits="userSpaceOnUse" id="h"><path d="M14.053 25.392h572.621v809.749H14.053V25.392" transform="translate(-318.4 -333.9)" clip-rule="evenodd"/></clipPath></defs><path d="M0 0c0-2 .4-4.1 1.2-6.2.9-2.2 2.1-4.1 3.8-5.8 1.7-1.7 3.7-3 5.8-3.8 2.1-.8 4.3-1.2 6.3-1.2h272.5c2.1 0 4.2.4 6.3 1.2 2.1.8 4.1 2.1 5.8 3.8 1.7 1.7 2.9 3.6 3.8 5.8.8 2.1 1.2 4.2 1.2 6.2v272.6c0 2-.4 4.2-1.2 6.3-.9 2.1-2.1 4.1-3.8 5.7-1.7 1.7-3.7 3-5.8 3.8-2.1.9-4.2 1.2-6.3 1.2H17.1c-2 0-4.2-.3-6.3-1.2-2.1-.8-4.1-2.1-5.8-3.8-1.7-1.6-2.9-3.6-3.8-5.7-.8-2.1-1.2-4.3-1.2-6.3V0" style="fill:#fff;fill-opacity:1;fill-rule:evenodd;stroke:none" transform="matrix(2.92988 0 0 -2.93083 .703 849.473)" clip-path="url(#a)"/><path d="M5-12c3.2-3.2 7.6-5 12.1-5h272.5c4.6 0 8.9 1.8 12.1 5 3.2 3.2 5 7.5 5 12v272.6c0 4.5-1.8 8.9-5 12-3.2 3.2-7.5 5-12.1 5H17.1c-4.5 0-8.9-1.8-12.1-5-3.2-3.1-5-7.5-5-12V0c0-4.5 1.8-8.8 5-12Z" style="fill:none;stroke:#000;stroke-width:.48;stroke-linecap:butt;stroke-linejoin:round;stroke-miterlimit:1.414;stroke-dasharray:none;stroke-opacity:1" transform="matrix(2.92988 0 0 -2.93083 .703 849.473)" clip-path="url(#b)"/><path d="M0 0c0-1.1.2-2.3.7-3.5.5-1.2 1.2-2.3 2.1-3.2 1-1 2.1-1.7 3.3-2.1 1.1-.5 2.3-.7 3.5-.7h272.5c1.2 0 2.4.2 3.6.7 1.1.4 2.3 1.1 3.2 2.1.9.9 1.6 2 2.1 3.2.5 1.2.7 2.4.7 3.5v272.6c0 1.1-.2 2.3-.7 3.5-.5 1.2-1.2 2.3-2.1 3.2-.9 1-2.1 1.7-3.2 2.2-1.2.4-2.4.6-3.6.6H9.6c-1.2 0-2.4-.2-3.5-.6-1.2-.5-2.3-1.2-3.3-2.2-.9-.9-1.6-2-2.1-3.2-.5-1.2-.7-2.4-.7-3.5V0" style="fill:#05f;fill-opacity:1;fill-rule:evenodd;stroke:none" transform="matrix(2.92988 0 0 -2.93083 22.677 849.473)" clip-path="url(#c)"/><path d="M0 0c0 4.4-.4 8.9-1.2 13.5-.9 4.6-2.1 9.2-3.9 13.8-1.8 4.6-4 9-6.7 13.3-2.7 4.3-5.8 8.3-9.4 12-3.5 3.6-7.4 6.9-11.5 9.8-4.2 2.9-8.5 5.3-13 7.3-4.5 1.9-9.1 3.4-13.7 4.4-4.5 1-9 1.6-13.4 1.8-4.4.1-8.9 0-13.6-.7-4.6-.6-9.3-1.7-13.9-3.3-4.6-1.6-9.2-3.6-13.6-6.1-4.4-2.5-8.5-5.5-12.3-8.9-3.8-3.4-7.3-7.1-10.3-11.1-3.1-4.1-5.7-8.3-7.8-12.7-2.1-4.4-3.8-8.9-5-13.5-1.2-4.5-2-9-2.3-13.3l-25.3 11.3c-2 .9-4.5.3-5.9-1.4-.7-.8-1.1-1.8-1.2-3-.1-1.2.3-2.2.9-3.1l43.4-63.6 43.4 63.6c.6.9.9 1.9.9 3.1-.1 1.2-.5 2.2-1.2 3-.7.8-1.6 1.4-2.7 1.7-1.2.2-2.3.1-3.2-.3l-25.3-11.3c.5 6.5 2.2 13 5.1 18.9 2.9 5.9 6.9 11.2 11.8 15.7 4.8 4.4 10.5 7.9 16.7 10.2 6.1 2.3 12.7 3.4 19.3 3.3 2.9 0 6-.3 9.1-1 3.1-.6 6.3-1.5 9.4-2.7 6.2-2.5 12-6.3 16.9-11.1 5-4.9 8.9-10.6 11.5-16.8 1.3-3.1 2.3-6.2 3-9.3.6-3.1 1-6.1 1.1-9.1v-126.1H0V0" style="fill:#fefefe;fill-opacity:1;fill-rule:evenodd;stroke:none" transform="matrix(2.92988 0 0 -2.93083 759.541 372.92)" clip-path="url(#d)"/><path d="M0 0h8.8v37.5H1V36c0-1.1-.4-2.1-1.2-2.8-.7-.7-1.7-1.1-2.8-1.1h-3.3v-7.5H0V0" style="fill:#fefefe;fill-opacity:1;fill-rule:evenodd;stroke:none" transform="matrix(2.92988 0 0 -2.93083 143.095 729.602)" clip-path="url(#e)"/><path d="M0 0c.7-3.4 2.9-6.4 5.9-8.1 2.6-1.5 5.5-2.3 8.5-2.2 3.1-.1 6.1.8 8.7 2.6 2.5 1.8 4.4 4.4 5.3 7.3 1 4 .4 8.3-1.7 11.9-.9 1.6-2.2 2.9-3.8 3.8-4 2.3-8.7 2.7-12.9 1.2l.5 3.5h16.3v7.9h-24L.5 7.9l8.7-1.2c.4.7 1 1.4 1.9 2 .8.5 1.9.9 3 .9s2.1-.4 3-.9c.9-.5 1.5-1.2 1.9-1.9.7-1.3.9-2.8.6-4.2-.2-1.3-.9-2.5-1.9-3.4-1.1-.8-2.3-1.3-3.7-1.3-1.2 0-2.5.4-3.6 1.3S8.7 1.3 8.5 2.6L0 0" style="fill:#fefefe;fill-opacity:1;fill-rule:evenodd;stroke:none" transform="matrix(2.92988 0 0 -2.93083 196.419 701.466)" clip-path="url(#f)"/><path d="M0 0c.9-3.3 2.8-6.2 5.6-8.3 2.7-2 6-3.1 9.4-3.1 3.4 0 6.7 1.1 9.4 3.1 2.7 2.1 4.7 5 5.6 8.3 1.4 5.3 1.4 10.9 0 16.2-.9 3.3-2.9 6.1-5.6 8.2-2.7 2.1-6 3.2-9.4 3.2-3.4 0-6.7-1.1-9.4-3.2C2.8 22.3.9 19.5 0 16.2-1.5 10.9-1.5 5.3 0 0m8.1 2.8c-.6 3.5-.6 7 0 10.5.3 1.7 1.1 3.1 2.4 4.2 1.2 1.1 2.8 1.6 4.5 1.6 1.6 0 3.2-.5 4.5-1.6 1.2-1.1 2.1-2.5 2.3-4.2.6-3.5.6-7 0-10.5-.2-1.6-1.1-3.1-2.3-4.2C18.2-2.4 16.6-3 15-3c-1.7 0-3.3.6-4.5 1.6C9.2-.3 8.4 1.2 8.1 2.8" style="fill:#fefefe;fill-opacity:1;fill-rule:evenodd;stroke:none" transform="matrix(2.92988 0 0 -2.93083 302.774 698.242)" clip-path="url(#g)"/><path d="M0 0h8.6v16.1c0 2 1.6 3.6 3.6 3.6 1.9 0 3.5-1.6 3.5-3.6V0h8.5v16.1c0 2 1.6 3.6 3.5 3.6 2 0 3.6-1.6 3.6-3.6V0h8.6v16.9c0 2.2-.6 4.3-1.8 6.1-1.2 1.8-2.9 3.3-5 4.1-2 .8-4.2 1.1-6.3.6-2.1-.4-4.1-1.4-5.6-3-.7.9-1.6 1.7-2.7 2.2-1.1.6-2.3 1-3.6 1.1-1.3 0-2.6-.2-3.8-.6-1.1-.5-2.1-1.1-2.9-1.9l-.7 1.9H0V0" style="fill:#fefefe;fill-opacity:1;fill-rule:evenodd;stroke:none" transform="matrix(2.92988 0 0 -2.93083 502.884 729.602)" clip-path="url(#h)"/></svg>