<svg width="336" height="336" xmlns="http://www.w3.org/2000/svg" xmlns:xlink="http://www.w3.org/1999/xlink" xml:space="preserve" overflow="hidden"><g transform="translate(-873 -192)"><path d="M873.378 509.01C873.378 511.2 873.793 513.503 874.661 515.806 875.643 518.109 876.964 520.298 878.814 522.148 880.702 523.998 882.853 525.433 885.156 526.301 887.459 527.169 889.762 527.622 892.065 527.622L1190.01 527.622C1192.31 527.622 1194.62 527.169 1196.92 526.301 1199.18 525.433 1201.37 523.998 1203.26 522.148 1205.11 520.298 1206.43 518.109 1207.41 515.806 1208.28 513.503 1208.7 511.2 1208.7 509.01L1208.7 210.952C1208.7 208.762 1208.28 206.346 1207.41 204.081 1206.43 201.778 1205.11 199.588 1203.26 197.738 1201.37 195.964 1199.18 194.567 1196.92 193.586 1194.62 192.68 1192.31 192.378 1190.01 192.378L892.065 192.378C889.762 192.378 887.459 192.68 885.156 193.586 882.853 194.567 880.702 195.964 878.814 197.738 876.964 199.588 875.643 201.778 874.661 204.081 873.793 206.346 873.378 208.762 873.378 210.952L873.378 509.01Z" fill="#FFFFFF"/><path d="M873.378 508.973C873.378 513.918 875.341 518.6 878.814 522.111 882.325 525.659 887.082 527.622 892.103 527.622" stroke="#343434" stroke-width="0.755056" stroke-linejoin="round" fill="none"/><path d="M892.065 527.585 1189.97 527.585" stroke="#343434" stroke-width="0.755056" stroke-linejoin="round" fill="none"/><path d="M1189.97 527.622C1194.99 527.622 1199.71 525.659 1203.22 522.111 1206.73 518.6 1208.7 513.918 1208.7 508.973" stroke="#343434" stroke-width="0.755056" stroke-linejoin="round" fill="none"/><path d="M1208.66 508.973 1208.66 210.952" stroke="#343434" stroke-width="0.755056" stroke-linejoin="round" fill="none"/><path d="M1208.7 210.99C1208.7 206.044 1206.73 201.212 1203.22 197.738 1199.71 194.227 1194.99 192.378 1189.97 192.378" stroke="#343434" stroke-width="0.755056" stroke-linejoin="round" fill="none"/><path d="M1189.97 192.378 892.065 192.378" stroke="#343434" stroke-width="0.755056" stroke-linejoin="round" fill="none"/><path d="M892.103 192.378C887.082 192.378 882.325 194.227 878.814 197.738 875.341 201.212 873.378 206.044 873.378 210.99" stroke="#343434" stroke-width="0.755056" stroke-linejoin="round" fill="none"/><path d="M873.378 210.952 873.378 508.973" stroke="#343434" stroke-width="0.755056" stroke-linejoin="round" fill="none"/><path d="M881.57 509.01C881.57 510.218 881.796 511.54 882.325 512.861 882.853 514.145 883.646 515.353 884.628 516.334 885.723 517.316 886.931 518.222 888.214 518.637 889.422 519.204 890.744 519.392 892.065 519.392L1190.01 519.392C1191.33 519.392 1192.65 519.204 1193.82 518.637 1195.14 518.222 1196.35 517.316 1197.45 516.334 1198.43 515.353 1199.18 514.145 1199.75 512.861 1200.28 511.54 1200.51 510.218 1200.51 509.01L1200.51 210.952C1200.51 209.744 1200.28 208.46 1199.75 207.139 1199.18 205.818 1198.43 204.609 1197.45 203.515 1196.35 202.533 1195.14 201.778 1193.82 201.212 1192.65 200.683 1191.33 200.457 1190.01 200.457L892.065 200.457C890.744 200.457 889.422 200.683 888.214 201.212 886.931 201.778 885.723 202.533 884.628 203.515 883.646 204.609 882.853 205.818 882.325 207.139 881.796 208.46 881.57 209.744 881.57 210.952L881.57 509.01Z" fill="#0055FF"/><path d="M923.211 479.827 923.211 395.827 990.373 382.803 990.373 412.476 980.331 409.418 980.331 395.299 933.178 404.926 933.178 479.827 923.211 479.827Z" fill="#FFFFFF"/><path d="M934.16 444.642 934.16 434.524 969.836 439.545 969.836 449.663 934.16 444.642Z" fill="#FFFFFF"/><path d="M971.761 449.625 971.761 439.545 1077.96 454.646 1077.96 464.764 971.761 449.625Z" fill="#FFFFFF"/><path d="M1079.02 494.929 1079.02 431.051 1161.7 412.892 1161.7 464.16 1151.65 464.16 1151.65 425.01 1089.55 439.545 1089.55 494.929 1079.02 494.929Z" fill="#FFFFFF"/><path d="M1090.49 464.764 1090.49 454.646 1150.11 440.564 1150.11 450.607 1090.49 464.764Z" fill="#FFFFFF"/><path d="M1090.49 453.174 1090.49 440.111 1110.5 435.506 1150.67 439.545 1090.49 453.174Z" fill="#FFFFFF"/><path d="M938.728 419.008 980.331 410.929 1029.41 425.01 971.346 438.073 938.728 419.008Z" fill="#FFFFFF"/><path d="M975.272 438.564 1031.94 425.463 1077.51 431.051 1077.51 453.174 975.272 438.564Z" fill="#FFFFFF"/><path d="M1074.56 353.242 1074.56 321.643 1042.93 321.643 1042.93 265.618 1074.56 265.618 1074.56 234.019 1130.55 234.019 1130.55 265.618 1162.15 265.618 1162.15 321.643 1130.55 321.643 1130.55 353.242 1074.56 353.242Z" fill="#FFFFFF"/><path d="M1078.22 349.505 1078.22 317.906 1046.66 317.906 1046.66 269.355 1078.22 269.355 1078.22 237.756 1126.77 237.756 1126.77 269.355 1158.41 269.355 1158.41 317.906 1126.77 317.906 1126.77 349.505 1078.22 349.505Z" fill="#FF0000"/></g></svg>