<svg width="504" height="336" xmlns="http://www.w3.org/2000/svg" xmlns:xlink="http://www.w3.org/1999/xlink" xml:space="preserve" overflow="hidden"><defs><clipPath id="clip0"><rect x="191" y="72" width="504" height="336"/></clipPath></defs><g clip-path="url(#clip0)" transform="translate(-191 -72)"><path d="M0.415281 317.01C0.415281 319.2 0.755056 321.503 1.73663 323.806 2.60494 326.222 4.03955 328.298 5.88944 330.148 7.73933 331.998 9.81573 333.433 12.1187 334.301 14.5348 335.169 16.8378 335.622 18.9897 335.622L484.671 335.622C486.86 335.622 489.276 335.169 491.579 334.301 493.844 333.433 496.034 331.998 497.922 330.148 499.658 328.298 501.093 326.222 501.961 323.806 502.943 321.503 503.283 319.2 503.283 317.01L503.283 18.9519C503.283 16.7622 502.943 14.3461 501.961 12.0809 501.093 9.77798 499.658 7.58831 497.922 5.85169 496.034 3.96404 493.844 2.56719 491.579 1.66112 489.276 0.679551 486.86 0.377528 484.671 0.377528L18.9897 0.377528C16.8378 0.377528 14.5348 0.679551 12.1187 1.66112 9.81573 2.56719 7.73933 3.96404 5.88944 5.85169 4.03955 7.58831 2.60494 9.77798 1.73663 12.0809 0.755056 14.3461 0.415281 16.7622 0.415281 18.9519L0.415281 317.01Z" fill="#FFFFFF" transform="matrix(1.00014 0 0 1 191.281 72)"/><path d="M0.415281 316.973C0.415281 321.918 2.37843 326.637 5.88944 330.148 9.40045 333.622 14.1195 335.622 19.0274 335.622" stroke="#343434" stroke-width="0.755056" stroke-linejoin="round" fill="none" transform="matrix(1.00014 0 0 1 191.281 72)"/><path d="M18.9897 335.585 484.633 335.585" stroke="#343434" stroke-width="0.755056" stroke-linejoin="round" fill="none" transform="matrix(1.00014 0 0 1 191.281 72)"/><path d="M484.633 335.622C489.578 335.622 494.373 333.622 497.922 330.148 501.282 326.637 503.283 321.918 503.283 316.973" stroke="#343434" stroke-width="0.755056" stroke-linejoin="round" fill="none" transform="matrix(1.00014 0 0 1 191.281 72)"/><path d="M503.245 316.973 503.245 18.9519" stroke="#343434" stroke-width="0.755056" stroke-linejoin="round" fill="none" transform="matrix(1.00014 0 0 1 191.281 72)"/><path d="M503.283 18.9897C503.283 14.0818 501.282 9.21169 497.922 5.85169 494.373 2.34067 489.578 0.377528 484.633 0.377528" stroke="#343434" stroke-width="0.755056" stroke-linejoin="round" fill="none" transform="matrix(1.00014 0 0 1 191.281 72)"/><path d="M484.633 0.377528 18.9897 0.377528" stroke="#343434" stroke-width="0.755056" stroke-linejoin="round" fill="none" transform="matrix(1.00014 0 0 1 191.281 72)"/><path d="M19.0274 0.377528C14.1195 0.377528 9.40045 2.34067 5.88944 5.85169 2.37843 9.21169 0.415281 14.0818 0.415281 18.9897" stroke="#343434" stroke-width="0.755056" stroke-linejoin="round" fill="none" transform="matrix(1.00014 0 0 1 191.281 72)"/><path d="M0.415281 18.9519 0.415281 316.973" stroke="#343434" stroke-width="0.755056" stroke-linejoin="round" fill="none" transform="matrix(1.00014 0 0 1 191.281 72)"/><path d="M8.60764 317.01C8.60764 318.218 8.83416 319.54 9.28719 320.861 9.81573 322.145 10.6085 323.353 11.6656 324.334 12.6849 325.429 13.8553 326.222 15.1766 326.637 16.498 327.204 17.8193 327.392 18.9897 327.392L484.671 327.392C485.879 327.392 487.2 327.204 488.521 326.637 489.805 326.222 491.013 325.429 492.108 324.334 493.089 323.353 493.844 322.145 494.411 320.861 494.864 319.54 495.053 318.218 495.053 317.01L495.053 18.9519C495.053 17.7438 494.864 16.4225 494.411 15.1389 493.844 13.8175 493.089 12.6094 492.108 11.6279 491.013 10.533 489.805 9.77798 488.521 9.21169 487.2 8.7964 485.879 8.56989 484.671 8.56989L18.9897 8.56989C17.8193 8.56989 16.498 8.7964 15.1766 9.21169 13.8553 9.77798 12.6849 10.533 11.6656 11.6279 10.6085 12.6094 9.81573 13.8175 9.28719 15.1389 8.83416 16.4225 8.60764 17.7438 8.60764 18.9519L8.60764 317.01Z" fill="#0055FF" transform="matrix(1.00014 0 0 1 191.281 72)"/><path d="M237.541 238.749C240.183 239.164 242.902 239.391 245.658 239.504 248.376 239.73 251.207 239.73 254.076 239.617 259.739 239.391 265.667 238.749 271.556 237.427 277.445 236.106 283.259 234.256 288.96 231.727 294.51 229.348 299.871 226.29 304.778 222.666 309.724 219.155 314.179 215.078 318.03 210.698 321.843 206.357 325.127 201.751 327.657 196.843 330.262 192.011 332.111 187.216 333.433 182.308 334.792 177.363 335.547 172.568 335.66 167.962 335.547 163.281 334.792 158.449 333.433 153.654 332.111 148.708 330.262 143.8 327.657 139.006 325.127 134.173 321.843 129.605 318.03 125.226 314.179 120.847 309.724 116.807 304.778 113.183 299.871 109.71 294.51 106.652 288.96 104.122 283.259 101.706 277.445 99.8562 271.556 98.5348 265.667 97.2512 259.739 96.4584 254.076 96.3452 251.207 96.2319 248.376 96.2319 245.658 96.3452 242.902 96.5717 240.183 96.7982 237.541 97.2512 229.348 120.092 225.082 143.914 225.082 167.962 225.082 191.898 229.348 215.871 237.541 238.749Z" fill="#FFFFFF" transform="matrix(1.00014 0 0 1 191.281 72)"/><path d="M33.8643 200.354 48.9654 208.358 216.928 122.81 220.665 104.877 33.8643 200.354Z" fill="#FFFFFF" transform="matrix(1.00014 0 0 1 191.281 72)"/><path d="M64.0665 216.324 79.0166 224.327 213.19 156.712 215.078 139.761 64.0665 216.324Z" fill="#FFFFFF" transform="matrix(1.00014 0 0 1 191.281 72)"/><path d="M94.1177 232.293 109.219 240.372 213.228 188.726 212.246 172.795 94.1177 232.293Z" fill="#FFFFFF" transform="matrix(1.00014 0 0 1 191.281 72)"/><path d="M124.169 248.376 139.27 256.342 216.928 218.702 215.078 203.714 124.169 248.376Z" fill="#FFFFFF" transform="matrix(1.00014 0 0 1 191.281 72)"/><path d="M154.258 264.307 169.321 272.311 224.478 246.828 220.627 233.803 154.258 264.307Z" fill="#FFFFFF" transform="matrix(1.00014 0 0 1 191.281 72)"/><path d="M428.796 249.848C428.796 246.903 427.626 244.072 425.512 241.995 423.398 239.919 420.566 238.711 417.622 238.711 414.677 238.711 411.845 239.919 409.769 241.995 407.579 244.072 406.484 246.903 406.484 249.848 406.484 252.906 407.579 255.775 409.769 257.889 411.845 259.966 414.677 261.136 417.622 261.136 420.566 261.136 423.398 259.966 425.512 257.889 427.626 255.775 428.796 252.906 428.796 249.848Z" fill="#FFFFFF" transform="matrix(1.00014 0 0 1 191.281 72)"/><path d="M387.759 127C387.759 125.264 387.986 123.414 388.325 121.526 388.665 119.79 389.194 117.94 389.835 116.09 391.383 112.352 393.573 108.841 396.518 105.897 399.462 102.952 402.973 100.762 406.598 99.3654 408.448 98.5726 410.298 98.044 412.185 97.7043 414.035 97.3645 415.923 97.289 417.659 97.289 425.55 97.289 433.062 100.347 438.763 105.897 444.351 111.484 447.409 119.148 447.409 127 447.409 130.851 446.729 134.664 445.219 138.364 443.671 142.102 441.368 145.386 438.763 147.991L421.699 165.055C416.904 169.85 413.053 175.551 410.411 181.893 407.768 188.235 406.484 194.993 406.484 201.902L406.484 223.874 428.796 223.874 428.796 201.902C428.796 198.089 429.589 194.125 431.099 190.538 432.647 186.801 434.837 183.516 437.555 180.798L454.506 163.847C459.301 159.053 463.265 153.352 465.87 147.009 468.399 140.667 469.796 133.909 469.796 127 469.796 123.942 469.494 120.771 468.928 117.487 468.286 114.315 467.418 111.031 466.096 107.784 463.567 101.329 459.64 95.2881 454.506 90.116 449.372 84.9816 443.369 81.0553 436.8 78.5258 433.629 77.2422 430.344 76.3362 427.173 75.6944 423.889 75.1658 420.717 74.8261 417.659 74.8261 414.601 74.8261 411.43 75.1658 408.108 75.6944 404.823 76.3362 401.652 77.2422 398.368 78.5258 391.912 81.0553 385.909 84.9816 380.775 90.116 375.527 95.2881 371.714 101.329 369.071 107.784 367.863 111.031 366.882 114.315 366.353 117.487 365.674 120.771 365.485 123.942 365.485 127L387.759 127Z" fill="#FFFFFF" transform="matrix(1.00014 0 0 1 191.281 72)"/><path d="M514.344 316.973 514.344 18.9519" stroke="#343434" stroke-width="0.755056" stroke-linejoin="round" fill="none" transform="matrix(1.00014 0 0 1 191.281 72)"/></g></svg>