<svg width="336" height="336" xmlns="http://www.w3.org/2000/svg" xmlns:xlink="http://www.w3.org/1999/xlink" xml:space="preserve" overflow="hidden"><g transform="translate(-585 -24)"><path d="M585.378 341.01C585.378 343.2 585.831 345.503 586.699 347.806 587.68 350.222 589.115 352.298 590.852 354.148 592.702 355.998 594.891 357.433 597.194 358.301 599.497 359.169 601.913 359.622 604.103 359.622L902.048 359.622C904.351 359.622 906.654 359.169 908.919 358.301 911.222 357.433 913.412 355.998 915.262 354.148 917.149 352.298 918.433 350.222 919.414 347.806 920.32 345.503 920.736 343.2 920.736 341.01L920.736 42.9519C920.736 40.7622 920.32 38.3461 919.414 36.0809 918.433 33.778 917.149 31.5883 915.262 29.8517 913.412 27.964 911.222 26.5672 908.919 25.6611 906.654 24.6796 904.351 24.3775 902.048 24.3775L604.103 24.3775C601.913 24.3775 599.497 24.6796 597.194 25.6611 594.891 26.5672 592.702 27.964 590.852 29.8517 589.115 31.5883 587.68 33.778 586.699 36.0809 585.831 38.3461 585.378 40.7622 585.378 42.9519L585.378 341.01Z" fill="#FFFFFF"/><path d="M585.378 340.973C585.378 345.918 587.378 350.637 590.889 354.148 594.4 357.622 599.195 359.622 604.141 359.622" stroke="#343434" stroke-width="0.755056" stroke-linejoin="round" fill="none"/><path d="M604.103 359.585 902.01 359.585" stroke="#343434" stroke-width="0.755056" stroke-linejoin="round" fill="none"/><path d="M902.01 359.622C907.031 359.622 911.788 357.622 915.262 354.148 918.773 350.637 920.736 345.918 920.736 340.973" stroke="#343434" stroke-width="0.755056" stroke-linejoin="round" fill="none"/><path d="M920.698 340.973 920.698 42.9519" stroke="#343434" stroke-width="0.755056" stroke-linejoin="round" fill="none"/><path d="M920.736 42.9897C920.736 38.0818 918.773 33.2117 915.262 29.8517 911.788 26.3407 907.031 24.3775 902.01 24.3775" stroke="#343434" stroke-width="0.755056" stroke-linejoin="round" fill="none"/><path d="M902.01 24.3775 604.103 24.3775" stroke="#343434" stroke-width="0.755056" stroke-linejoin="round" fill="none"/><path d="M604.141 24.3775C599.195 24.3775 594.4 26.3407 590.889 29.8517 587.378 33.2117 585.378 38.0818 585.378 42.9897" stroke="#343434" stroke-width="0.755056" stroke-linejoin="round" fill="none"/><path d="M585.378 42.9519 585.378 340.973" stroke="#343434" stroke-width="0.755056" stroke-linejoin="round" fill="none"/><path d="M593.608 341.01C593.608 342.218 593.796 343.54 594.363 344.861 594.891 346.145 595.684 347.353 596.666 348.334 597.76 349.429 598.969 350.222 600.252 350.637 601.46 351.204 602.782 351.392 604.103 351.392L902.048 351.392C903.369 351.392 904.691 351.204 905.974 350.637 907.182 350.222 908.504 349.429 909.485 348.334 910.467 347.353 911.222 346.145 911.788 344.861 912.317 343.54 912.543 342.218 912.543 341.01L912.543 42.9519C912.543 41.7438 912.317 40.4225 911.788 39.1389 911.222 37.8175 910.467 36.6094 909.485 35.6279 908.504 34.533 907.182 33.778 905.974 33.2117 904.691 32.7964 903.369 32.5699 902.048 32.5699L604.103 32.5699C602.782 32.5699 601.46 32.7964 600.252 33.2117 598.969 33.778 597.76 34.533 596.666 35.6279 595.684 36.6094 594.891 37.8175 594.363 39.1389 593.796 40.4225 593.608 41.7438 593.608 42.9519L593.608 341.01Z" fill="#0055FF"/><path d="M743.146 182.713 770.404 182.713 767.044 117.438 784.75 117.438 756.813 69.0769 728.838 117.438 746.544 117.438 743.146 182.713Z" fill="#FFFFFF"/><path d="M738.125 314.885 775.425 314.885 775.085 305.598 833.489 208.573C833.942 207.705 834.282 206.837 834.584 205.855 834.81 204.874 835.037 203.892 835.037 202.684 835.15 200.494 834.471 198.078 833.3 196.002 831.979 193.925 830.204 192.302 828.128 191.207 827.146 190.754 826.165 190.452 825.183 190.226 824.202 189.999 823.22 189.886 822.239 189.886L684.101 190.112C681.156 190.112 678.325 191.32 676.249 193.397 674.172 195.473 672.964 198.305 672.964 201.249L672.964 229.262 659.939 229.262 682.251 247.836 704.676 229.262 691.538 229.262 691.538 212.424C691.538 211.556 691.991 210.537 692.633 209.782 693.426 209.027 694.408 208.687 695.389 208.687L794.906 208.687C795.472 208.687 796.114 208.8 796.755 209.027 797.435 209.366 797.964 209.782 798.417 210.461 798.832 211.103 799.058 211.745 799.058 212.538 799.058 213.179 798.832 213.821 798.643 214.274L776.444 249.686C775.84 250.441 774.972 250.781 774.104 250.555 773.235 250.366 772.556 249.46 772.669 248.591L771.461 216.124 742.052 216.124 738.125 314.885Z" fill="#FFFFFF"/></g></svg>