<svg width="504" height="336" xmlns="http://www.w3.org/2000/svg" xmlns:xlink="http://www.w3.org/1999/xlink" xml:space="preserve" overflow="hidden"><defs><clipPath id="clip0"><rect x="388" y="196" width="504" height="336"/></clipPath></defs><g clip-path="url(#clip0)" transform="translate(-388 -196)"><path d="M13.3619 0.490692C11.8521 0.490692 10.1913 0.717166 8.56824 1.35884 6.90744 2.03826 5.51085 3.01964 4.18976 4.34074 2.86866 5.62409 1.88728 7.05842 1.2456 8.68148 0.566183 10.3423 0.377456 11.9653 0.377456 13.5129L0.377456 322.649C0.377456 324.197 0.67942 325.82 1.35884 327.48 1.88728 329.103 2.86866 330.538 4.18976 331.859 5.51085 333.142 6.90744 334.048 8.56824 334.69 10.1913 335.332 11.8521 335.671 13.3619 335.671L490.315 335.671C491.862 335.671 493.372 335.332 495.033 334.69 496.656 334.161 498.204 333.142 499.411 331.859 500.695 330.538 501.676 329.103 502.356 327.48 502.884 325.82 503.224 324.197 503.224 322.649L503.111 12.5315C503.111 10.984 502.771 9.47413 502.129 7.92657 501.374 6.41674 500.393 4.98241 499.185 3.77456 497.864 2.67993 496.43 1.69855 494.806 1.17011 493.259 0.603929 491.636 0.377456 490.202 0.377456L13.3619 0.490692Z" fill="#FEFEFE" transform="matrix(1 0 0 1.00019 388.393 196)"/><path d="M13.3997 0.490692C9.92708 0.490692 6.64322 1.92502 4.2275 4.34074 1.77404 6.71871 0.377456 10.0403 0.377456 13.5507" stroke="#343434" stroke-width="0.754911" stroke-linejoin="round" fill="none" transform="matrix(1 0 0 1.00019 388.393 196)"/><path d="M0.377456 13.5129 0.377456 322.611" stroke="#343434" stroke-width="0.754911" stroke-linejoin="round" fill="none" transform="matrix(1 0 0 1.00019 388.393 196)"/><path d="M0.377456 322.611C0.377456 326.122 1.77404 329.405 4.2275 331.859 6.64322 334.237 9.92708 335.671 13.3997 335.671" stroke="#343434" stroke-width="0.754911" stroke-linejoin="round" fill="none" transform="matrix(1 0 0 1.00019 388.393 196)"/><path d="M13.3619 335.633 490.277 335.633" stroke="#343434" stroke-width="0.754911" stroke-linejoin="round" fill="none" transform="matrix(1 0 0 1.00019 388.393 196)"/><path d="M490.277 335.671C493.674 335.671 496.958 334.237 499.374 331.859 501.752 329.405 503.224 326.122 503.224 322.611" stroke="#343434" stroke-width="0.754911" stroke-linejoin="round" fill="none" transform="matrix(1 0 0 1.00019 388.393 196)"/><path d="M503.261 322.649 503.073 12.5315" stroke="#343434" stroke-width="0.754911" stroke-linejoin="round" fill="none" transform="matrix(1 0 0 1.00019 388.393 196)"/><path d="M503.111 12.5693C502.997 9.13442 501.525 6.07703 499.147 3.77456 496.731 1.47208 493.448 0.264219 490.164 0.377456" stroke="#343434" stroke-width="0.754911" stroke-linejoin="round" fill="none" transform="matrix(1 0 0 1.00019 388.393 196)"/><path d="M490.202 0.377456 13.3619 0.528438" stroke="#343434" stroke-width="0.754911" stroke-linejoin="round" fill="none" transform="matrix(1 0 0 1.00019 388.393 196)"/><path d="M13.3619 8.60599C12.1541 8.68148 10.984 9.13442 10.0026 10.1158 8.98344 11.1349 8.56824 12.3428 8.56824 13.5507L8.56824 322.649C8.56824 323.857 8.98344 325.065 10.0026 326.046 10.984 327.027 12.1541 327.48 13.3619 327.48L490.315 327.48C491.409 327.48 492.73 327.027 493.599 326.046 494.58 325.065 495.033 323.857 495.033 322.649L495.033 12.7957C494.92 11.5879 494.467 10.4555 493.599 9.66286 492.73 8.90795 491.636 8.60599 490.541 8.60599L490.315 8.60599 13.3619 8.60599Z" fill="#FEFEFE" transform="matrix(1 0 0 1.00019 388.393 196)"/><path d="M13.3997 8.60599C12.1163 8.68148 10.9085 9.13442 10.0403 10.1158 8.98344 10.984 8.56824 12.2296 8.56824 13.5507" stroke="#343434" stroke-width="0.754911" stroke-linejoin="round" fill="none" transform="matrix(1 0 0 1.00019 388.393 196)"/><path d="M8.56824 13.5129 8.56824 322.611" stroke="#343434" stroke-width="0.754911" stroke-linejoin="round" fill="none" transform="matrix(1 0 0 1.00019 388.393 196)"/><path d="M8.56824 322.611C8.56824 323.932 9.09668 325.14 10.0403 326.008 10.9085 326.914 12.1163 327.48 13.3997 327.48" stroke="#343434" stroke-width="0.754911" stroke-linejoin="round" fill="none" transform="matrix(1 0 0 1.00019 388.393 196)"/><path d="M13.3619 327.443 490.277 327.443" stroke="#343434" stroke-width="0.754911" stroke-linejoin="round" fill="none" transform="matrix(1 0 0 1.00019 388.393 196)"/><path d="M490.277 327.48C491.485 327.48 492.73 326.914 493.599 326.008 494.58 325.14 495.033 323.932 495.033 322.611" stroke="#343434" stroke-width="0.754911" stroke-linejoin="round" fill="none" transform="matrix(1 0 0 1.00019 388.393 196)"/><path d="M494.995 322.611 494.995 12.758" stroke="#343434" stroke-width="0.754911" stroke-linejoin="round" fill="none" transform="matrix(1 0 0 1.00019 388.393 196)"/><path d="M495.033 12.7957C494.92 11.5501 494.467 10.4555 493.599 9.66286 492.73 8.90795 491.598 8.60599 490.503 8.60599" stroke="#343434" stroke-width="0.754911" stroke-linejoin="round" fill="none" transform="matrix(1 0 0 1.00019 388.393 196)"/><path d="M490.503 8.60599 490.277 8.60599 13.3619 8.60599" stroke="#343434" stroke-width="0.754911" stroke-linejoin="round" fill="none" transform="matrix(1 0 0 1.00019 388.393 196)"/><path d="M13.3997 8.60599C12.1541 8.68148 10.984 9.13442 10.0026 10.1158 8.98344 11.0972 8.56824 12.3051 8.56824 13.5129L8.56824 66.4322 124.032 66.4322 124.032 8.60599 13.3997 8.60599Z" fill="#0055FF" transform="matrix(1 0 0 1.00019 388.393 196)"/><path d="M194.05 8.60599 194.05 66.4322 309.514 66.4322 309.514 8.60599 194.05 8.60599Z" fill="#0055FF" transform="matrix(1 0 0 1.00019 388.393 196)"/><path d="M495.033 12.758C494.92 11.5501 494.467 10.4555 493.599 9.66286 492.73 8.90795 491.636 8.60599 490.541 8.60599L490.315 8.60599 379.569 8.60599 379.569 66.4322 495.033 66.4322 495.033 12.758Z" fill="#0055FF" transform="matrix(1 0 0 1.00019 388.393 196)"/><path d="M309.514 212.055 309.514 124.145 194.05 124.145 194.05 212.055 309.514 212.055Z" fill="#0055FF" transform="matrix(1 0 0 1.00019 388.393 196)"/><path d="M379.569 212.055 495.033 212.055 495.033 124.145 379.569 124.145 379.569 212.055Z" fill="#0055FF" transform="matrix(1 0 0 1.00019 388.393 196)"/><path d="M8.56824 322.649C8.56824 323.97 9.09668 325.178 10.0026 326.046 10.8707 326.914 12.0786 327.48 13.3997 327.48L124.032 327.48 124.032 124.145 8.56824 124.145 8.56824 322.649Z" fill="#0055FF" transform="matrix(1 0 0 1.00019 388.393 196)"/><path d="M490.315 327.48C491.523 327.48 492.73 326.914 493.599 326.046 494.58 325.178 495.033 323.97 495.033 322.649L495.033 269.73 194.05 269.73 194.05 327.48 490.315 327.48Z" fill="#0055FF" transform="matrix(1 0 0 1.00019 388.393 196)"/><path d="M494.995 66.3944 494.995 124.145" stroke="#010101" stroke-width="0.754911" stroke-linejoin="round" fill="none" transform="matrix(1 0 0 1.00019 388.393 196)"/><path d="M494.995 212.017 494.995 269.73" stroke="#010101" stroke-width="0.754911" stroke-linejoin="round" fill="none" transform="matrix(1 0 0 1.00019 388.393 196)"/><path d="M123.994 327.443 194.05 327.443" stroke="#010101" stroke-width="0.754911" stroke-linejoin="round" fill="none" transform="matrix(1 0 0 1.00019 388.393 196)"/><path d="M150.001 254.367 150.001 327.48 167.93 327.48 167.93 264.747C168.043 262.973 168.383 261.124 169.025 259.274 169.779 257.538 170.874 255.764 172.422 254.254 173.856 252.82 175.592 251.725 177.442 250.97 179.178 250.178 181.179 249.876 182.915 249.876L331.18 249.876C333.784 249.762 336.539 249.196 339.257 248.102 341.975 246.931 344.617 245.271 346.693 243.081 348.882 240.892 350.618 238.401 351.713 235.645 352.808 232.928 353.487 230.21 353.487 227.455L353.487 108.594C353.261 102.819 350.845 97.2325 346.693 93.0805 342.541 88.9285 337.068 86.5128 331.18 86.3241L103.536 86.3241 103.536 78.8882 83.0025 95.2698 103.536 111.651 103.536 104.14 320.686 104.14C322.536 104.14 324.385 104.442 326.235 105.235 328.122 105.99 329.745 107.084 331.293 108.481 332.689 110.028 333.897 111.765 334.577 113.614 335.332 115.388 335.633 117.351 335.633 119.087L335.633 217.075C335.633 218.811 335.332 220.698 334.577 222.548 333.784 224.397 332.689 226.134 331.293 227.568 329.745 229.116 328.009 230.21 326.235 230.965 324.385 231.607 322.536 231.946 320.686 232.06L172.422 232.06C171.101 231.946 169.779 232.06 168.383 232.286 166.949 232.475 165.514 232.815 164.118 233.381 161.249 234.438 158.645 236.098 156.342 238.288 154.153 240.59 152.53 243.195 151.435 246.026 150.869 247.46 150.567 248.894 150.341 250.291 150.114 251.612 150.001 253.046 150.001 254.367Z" fill="#010101" transform="matrix(1 0 0 1.00019 388.393 196)"/><path d="M8.56824 124.145 8.56824 66.3944" stroke="#010101" stroke-width="0.754911" stroke-linejoin="round" fill="none" transform="matrix(1 0 0 1.00019 388.393 196)"/><path d="M517.68 328.235 517.492 18.1179" stroke="#343434" stroke-width="0.754911" stroke-linejoin="round" fill="none" transform="matrix(1 0 0 1.00019 388.393 196)"/></g></svg>