<svg width="225" height="450" xmlns="http://www.w3.org/2000/svg" xmlns:xlink="http://www.w3.org/1999/xlink" xml:space="preserve" overflow="hidden"><defs><clipPath id="clip0"><rect x="80" y="20" width="225" height="450"/></clipPath></defs><g clip-path="url(#clip0)" transform="translate(-80 -20)"><path d="M0.377889 422.858C0.377889 424.407 0.604622 425.919 0.831356 427.468 1.17146 428.98 1.58713 430.529 2.26733 432.078 3.43879 435.253 5.32823 438.087 7.70894 440.581 10.2408 442.999 13.075 444.851 16.2492 446.174 17.7986 446.74 19.3101 447.156 20.8595 447.496 22.371 447.723 23.9204 447.912 25.4319 447.912L199.147 447.912C200.697 447.912 202.208 447.723 203.758 447.496 205.269 447.156 206.819 446.74 208.444 446.174 211.542 444.851 214.376 442.999 216.87 440.581 219.289 438.087 221.254 435.253 222.463 432.078 223.03 430.529 223.446 428.98 223.786 427.468 224.126 425.919 224.202 424.407 224.202 422.858L224.202 25.3563C224.202 23.9582 224.126 22.4088 223.786 20.8973 223.446 19.3479 223.03 17.723 222.463 16.1736 221.254 13.1127 219.289 10.1652 216.87 7.74672 214.376 5.21487 211.542 3.36321 208.444 2.15397 206.819 1.51156 205.269 1.05809 203.758 0.869145 202.208 0.529045 200.697 0.415678 199.147 0.415678L25.4319 0.415678C23.9204 0.415678 22.371 0.529045 20.8595 0.869145 19.3101 1.05809 17.7986 1.51156 16.2492 2.15397 13.075 3.36321 10.2408 5.21487 7.70894 7.74672 5.32823 10.1652 3.43879 13.1127 2.26733 16.1736 1.58713 17.723 1.17146 19.3479 0.831356 20.8973 0.604622 22.4088 0.377889 23.9582 0.377889 25.3563L0.377889 422.858Z" fill="#FEFEFE" transform="matrix(1 0 0 1.00035 80 20.0769)"/><path d="M0.377889 422.82C0.377889 429.546 3.13648 435.895 7.70894 440.581 12.4703 445.304 18.8189 447.912 25.4697 447.912" stroke="#343434" stroke-width="0.755778" stroke-linejoin="round" fill="none" transform="matrix(1 0 0 1.00035 80 20.0769)"/><path d="M25.4319 447.874 199.11 447.874" stroke="#343434" stroke-width="0.755778" stroke-linejoin="round" fill="none" transform="matrix(1 0 0 1.00035 80 20.0769)"/><path d="M199.11 447.912C205.798 447.912 212.185 445.304 216.87 440.581 221.594 435.895 224.202 429.546 224.202 422.82" stroke="#343434" stroke-width="0.755778" stroke-linejoin="round" fill="none" transform="matrix(1 0 0 1.00035 80 20.0769)"/><path d="M224.164 422.82 224.164 25.3563" stroke="#343434" stroke-width="0.755778" stroke-linejoin="round" fill="none" transform="matrix(1 0 0 1.00035 80 20.0769)"/><path d="M224.202 25.3941C224.202 18.8189 221.594 12.4703 216.87 7.74672 212.185 3.0609 205.798 0.415678 199.11 0.415678" stroke="#343434" stroke-width="0.755778" stroke-linejoin="round" fill="none" transform="matrix(1 0 0 1.00035 80 20.0769)"/><path d="M199.11 0.415678 25.4319 0.415678" stroke="#343434" stroke-width="0.755778" stroke-linejoin="round" fill="none" transform="matrix(1 0 0 1.00035 80 20.0769)"/><path d="M25.4697 0.415678C18.8189 0.415678 12.4703 3.0609 7.70894 7.74672 3.13648 12.4703 0.377889 18.8189 0.377889 25.3941" stroke="#343434" stroke-width="0.755778" stroke-linejoin="round" fill="none" transform="matrix(1 0 0 1.00035 80 20.0769)"/><path d="M0.377889 25.3563 0.377889 422.82" stroke="#343434" stroke-width="0.755778" stroke-linejoin="round" fill="none" transform="matrix(1 0 0 1.00035 80 20.0769)"/><path d="M11.6768 422.858C11.6768 424.52 11.8657 426.259 12.6593 427.997 13.3017 429.66 14.2842 431.285 15.7202 432.607 17.005 434.043 18.6677 435.026 20.2926 435.782 22.0687 436.424 23.807 436.651 25.4319 436.651L199.11 436.651C200.81 436.651 202.548 436.424 204.287 435.782 206.063 435.026 207.574 434.043 209.01 432.607 210.333 431.285 211.429 429.66 212.071 427.997 212.714 426.259 213.054 424.52 213.054 422.858L213.054 25.3563C213.054 23.7314 212.714 22.0687 212.071 20.3304 211.429 18.5921 210.333 17.0428 209.01 15.6446 207.574 14.322 206.063 13.2261 204.287 12.5837 202.548 11.9035 200.81 11.5634 199.11 11.5634L25.4319 11.5634C23.807 11.5634 22.0687 11.9035 20.2926 12.5837 18.6677 13.2261 17.005 14.322 15.7202 15.6446 14.2842 17.0428 13.3017 18.5921 12.6593 20.3304 11.8657 22.0687 11.6768 23.7314 11.6768 25.3563L11.6768 422.858Z" fill="#0055FF" transform="matrix(1 0 0 1.00035 80 20.0769)"/><path d="M30.4956 67.6043C30.798 69.7961 31.3648 71.9879 32.2339 73.9529 33.9722 78.3742 37.4866 81.8885 41.9835 83.5135 48.7477 86.0453 56.0787 86.2343 62.9941 83.9669 68.1334 82.1908 72.1012 78.0341 73.5372 72.7436 74.0662 70.6652 74.4063 68.4735 74.4063 66.3951 74.4063 64.09 73.8395 61.936 72.7436 59.9332 71.5722 57.8548 69.456 56.2299 67.0375 55.5875 68.7758 54.9073 70.2496 53.8114 71.2321 52.2998 73.5372 48.7855 74.1796 44.6287 73.1971 40.6986 72.3279 37.6377 70.7786 34.9925 68.5491 32.8008 66.3951 30.609 63.6365 28.9841 60.689 28.2283 55.4363 26.9057 49.8436 26.9057 44.5909 28.4173 42.8526 28.8707 41.1899 29.5131 39.565 30.4201 36.9575 31.9316 34.7658 34.01 33.1031 36.7686 31.4782 39.4894 30.6846 42.4369 30.609 45.3845L43.8351 46.7071C43.6084 44.0996 45.0444 41.5678 47.3495 40.2452 49.8436 38.9226 52.7911 38.6203 55.663 39.376 58.2705 40.0184 60.1221 42.4369 59.8198 45.1955 59.7065 46.8204 58.6106 48.2564 57.1746 48.8988 55.7764 49.4279 54.3404 49.768 52.9045 49.9947 51.3929 50.2214 49.8436 50.2214 48.4454 49.9947L48.4454 61.5959C50.6371 61.4825 52.7911 61.4825 54.9828 61.5959 57.5147 61.7093 59.5931 63.4476 60.2355 65.8661 60.8023 68.3601 59.7065 70.892 57.5147 72.1012 56.1921 72.7436 54.7939 73.1971 53.2446 73.1971 51.9219 73.1971 50.5238 73.0837 49.2011 72.7436 47.7652 72.3279 46.367 71.4588 45.3845 70.1362 44.2886 68.8136 43.8351 67.2642 43.8351 65.7527L30.4956 67.6043Z" fill="#FEFEFE" transform="matrix(1 0 0 1.00035 80 20.0769)"/><path d="M88.615 68.3601C90.0509 73.3105 92.8851 77.7318 96.9285 80.7927 101.01 83.8536 105.96 85.4785 111.099 85.4785 116.125 85.4785 121.076 83.8536 125.119 80.7927 129.162 77.7318 132.11 73.3105 133.433 68.3601 135.624 60.5 135.624 52.1865 133.433 44.1752 132.11 39.2627 129.162 34.9925 125.119 31.9316 121.076 28.8707 116.125 27.2458 111.099 27.2458 105.96 27.2458 101.01 28.8707 96.9285 31.9316 92.8851 34.9925 90.0509 39.376 88.615 44.1752 86.3854 52.1865 86.3854 60.5 88.615 68.3601ZM100.783 64.2033C99.9138 58.9507 99.9138 53.698 100.783 48.4454 101.199 46.0647 102.408 43.8729 104.297 42.2102 106.3 40.6986 108.568 39.8295 111.099 39.8295 113.518 39.8295 115.899 40.6986 117.788 42.2102 119.64 43.8729 120.962 46.0647 121.265 48.4454 122.172 53.698 122.172 58.9507 121.265 64.2033 120.962 66.6218 119.64 68.8136 117.788 70.3629 115.899 71.9879 113.518 72.857 111.099 72.857 108.568 72.857 106.3 71.9879 104.297 70.3629 102.408 68.8136 101.199 66.6218 100.783 64.2033Z" fill="#FEFEFE" transform="matrix(1 0 0 1.00035 80 20.0769)"/><path d="M147.15 68.3601C148.548 73.3105 151.42 77.7318 155.501 80.7927 159.545 83.8536 164.457 85.4785 169.597 85.4785 174.66 85.4785 179.573 83.8536 183.616 80.7927 187.66 77.7318 190.607 73.3105 191.93 68.3601 194.122 60.5 194.122 52.1865 191.93 44.1752 190.607 39.2627 187.66 34.9925 183.616 31.9316 179.573 28.8707 174.66 27.2458 169.597 27.2458 164.457 27.2458 159.545 28.8707 155.501 31.9316 151.42 34.9925 148.548 39.376 147.15 44.1752 144.92 52.1865 144.92 60.5 147.15 68.3601ZM159.318 64.2033C158.449 58.9507 158.449 53.698 159.318 48.4454 159.771 46.0647 160.981 43.8729 162.832 42.2102 164.684 40.6986 167.103 39.8295 169.597 39.8295 172.015 39.8295 174.434 40.6986 176.285 42.2102 178.137 43.8729 179.346 46.0647 179.8 48.4454 180.669 53.698 180.669 58.9507 179.8 64.2033 179.346 66.6218 178.137 68.8136 176.285 70.3629 174.434 71.9879 172.015 72.857 169.597 72.857 167.103 72.857 164.684 71.9879 162.832 70.3629 160.981 68.8136 159.771 66.6218 159.318 64.2033Z" fill="#FEFEFE" transform="matrix(1 0 0 1.00035 80 20.0769)"/><path d="M86.0831 140.31 97.7977 140.31 97.7977 118.317C97.7977 116.994 98.3267 115.785 99.1959 114.916 100.065 113.896 101.388 113.48 102.597 113.48 103.919 113.48 105.167 113.896 106.149 114.916 107.018 115.785 107.547 116.994 107.547 118.317L107.547 140.31 119.035 140.31 119.035 118.317C119.035 116.994 119.488 115.785 120.471 114.916 121.34 113.896 122.549 113.48 123.872 113.48 125.195 113.48 126.366 113.896 127.273 114.916 128.256 115.785 128.671 116.994 128.671 118.317L128.671 140.31 140.499 140.31 140.499 117.221C140.499 114.236 139.63 111.402 137.967 108.87 136.342 106.338 134.037 104.486 131.316 103.277 128.558 102.181 125.497 101.879 122.663 102.408 119.715 103.05 117.07 104.486 114.878 106.565 114.009 105.355 112.8 104.373 111.288 103.504 109.739 102.748 108.114 102.181 106.376 102.181 104.562 102.068 102.824 102.295 101.161 102.975 99.6493 103.617 98.3267 104.486 97.2308 105.469L96.2483 102.975 86.0831 102.975 86.0831 140.31Z" fill="#FEFEFE" transform="matrix(1 0 0 1.00035 80 20.0769)"/><path d="M11.6768 432.494 11.6768 389.49 213.054 273.138 213.054 316.255 11.6768 432.494Z" fill="#FEFEFE" transform="matrix(1 0 0 1.00035 80 20.0769)"/><path d="M11.6768 346.373 11.6768 303.369 213.054 187.131 213.054 230.172 11.6768 346.373Z" fill="#FEFEFE" transform="matrix(1 0 0 1.00035 80 20.0769)"/><path d="M11.6768 260.252 11.6768 217.248 213.054 100.972 213.054 144.013 11.6768 260.252Z" fill="#FEFEFE" transform="matrix(1 0 0 1.00035 80 20.0769)"/><path d="M264.182 272.042 343.085 272.042" stroke="#808080" stroke-width="0.755778" stroke-linejoin="round" stroke-dasharray="4.83698 4.83698" fill="none" transform="matrix(1 0 0 1.00035 80 20.0769)"/></g></svg>