<svg width="225" height="450" xmlns="http://www.w3.org/2000/svg" xmlns:xlink="http://www.w3.org/1999/xlink" xml:space="preserve" overflow="hidden"><defs><clipPath id="clip0"><rect x="592" y="20" width="225" height="450"/></clipPath></defs><g clip-path="url(#clip0)" transform="translate(-592 -20)"><path d="M0.377642 422.544C0.377642 424.092 0.604228 425.527 0.830813 427.151 1.17069 428.7 1.5861 430.21 2.26585 431.759 3.43655 434.817 5.32476 437.763 7.7039 440.18 10.2341 442.672 13.0664 444.523 16.2386 445.731 17.787 446.411 19.2975 446.826 20.8459 447.166 22.3564 447.393 23.9048 447.506 25.4153 447.506L199.018 447.506C200.566 447.506 202.076 447.393 203.625 447.166 205.135 446.826 206.684 446.411 208.308 445.731 211.404 444.523 214.237 442.672 216.729 440.18 219.146 437.763 221.11 434.817 222.318 431.759 222.885 430.21 223.3 428.7 223.64 427.151 223.98 425.527 224.055 423.979 224.055 422.544L224.055 25.302C224.055 23.9048 223.98 22.3564 223.64 20.7326 223.3 19.1842 222.885 17.6737 222.318 16.1253 221.11 13.0664 219.146 10.1208 216.729 7.7039 214.237 5.21146 211.404 3.32325 208.308 2.1148 206.684 1.47281 205.135 1.0574 203.625 0.830813 202.076 0.490935 200.566 0.377642 199.018 0.377642L25.4153 0.377642C23.9048 0.377642 22.3564 0.490935 20.8459 0.830813 19.2975 1.0574 17.787 1.47281 16.2386 2.1148 13.0664 3.32325 10.2341 5.21146 7.7039 7.7039 5.32476 10.1208 3.43655 13.0664 2.26585 16.1253 1.5861 17.6737 1.17069 19.1842 0.830813 20.7326 0.604228 22.3564 0.377642 23.9048 0.377642 25.302L0.377642 422.544Z" fill="#FEFEFE" transform="matrix(1 0 0 1.00036 592 20.2222)"/><path d="M0.377642 422.506C0.377642 429.228 3.13443 435.573 7.7039 440.18 12.4622 444.863 18.8066 447.506 25.4531 447.506" stroke="#343434" stroke-width="0.755285" stroke-linejoin="round" fill="none" transform="matrix(1 0 0 1.00036 592 20.2222)"/><path d="M25.4153 447.468 198.98 447.468" stroke="#343434" stroke-width="0.755285" stroke-linejoin="round" fill="none" transform="matrix(1 0 0 1.00036 592 20.2222)"/><path d="M198.98 447.506C205.664 447.506 212.046 444.863 216.729 440.18 221.449 435.573 224.055 429.228 224.055 422.506" stroke="#343434" stroke-width="0.755285" stroke-linejoin="round" fill="none" transform="matrix(1 0 0 1.00036 592 20.2222)"/><path d="M224.017 422.506 224.017 25.302" stroke="#343434" stroke-width="0.755285" stroke-linejoin="round" fill="none" transform="matrix(1 0 0 1.00036 592 20.2222)"/><path d="M224.055 25.3398C224.055 18.6555 221.449 12.3111 216.729 7.7039 212.046 3.02114 205.664 0.377642 198.98 0.377642" stroke="#343434" stroke-width="0.755285" stroke-linejoin="round" fill="none" transform="matrix(1 0 0 1.00036 592 20.2222)"/><path d="M198.98 0.377642 25.4153 0.377642" stroke="#343434" stroke-width="0.755285" stroke-linejoin="round" fill="none" transform="matrix(1 0 0 1.00036 592 20.2222)"/><path d="M25.4531 0.377642C18.8066 0.377642 12.4622 3.02114 7.7039 7.7039 3.13443 12.3111 0.377642 18.6555 0.377642 25.3398" stroke="#343434" stroke-width="0.755285" stroke-linejoin="round" fill="none" transform="matrix(1 0 0 1.00036 592 20.2222)"/><path d="M0.377642 25.302 0.377642 422.506" stroke="#343434" stroke-width="0.755285" stroke-linejoin="round" fill="none" transform="matrix(1 0 0 1.00036 592 20.2222)"/><path d="M11.6691 422.544C11.6691 424.206 11.858 425.943 12.651 427.604 13.293 429.342 14.2749 430.965 15.7099 432.287 16.9939 433.722 18.6555 434.704 20.2794 435.346 22.0543 436.026 23.7915 436.328 25.4153 436.328L198.98 436.328C200.679 436.328 202.416 436.026 204.153 435.346 205.928 434.704 207.439 433.722 208.874 432.287 210.196 430.965 211.291 429.342 211.933 427.604 212.575 425.943 212.915 424.206 212.915 422.544L212.915 25.302C212.915 23.6782 212.575 21.941 211.933 20.2794 211.291 18.5422 210.196 16.8806 208.874 15.5966 207.439 14.1616 205.928 13.1797 204.153 12.5377 202.416 11.858 200.679 11.5559 198.98 11.5559L25.4153 11.5559C23.7915 11.5559 22.0543 11.858 20.2794 12.5377 18.6555 13.1797 16.9939 14.1616 15.7099 15.5966 14.2749 16.8806 13.293 18.5422 12.651 20.2794 11.858 21.941 11.6691 23.6782 11.6691 25.302L11.6691 422.544Z" fill="#0055FF" transform="matrix(1 0 0 1.00036 592 20.2222)"/><path d="M50.6418 84.1765 63.746 84.1765 63.746 28.2854 52.0391 28.2854 52.0391 30.5513C52.0391 31.9863 51.5104 33.5346 50.302 34.7053 49.0935 35.9138 47.5074 36.367 46.1101 36.367L41.0875 36.367 41.0875 47.6207 50.6418 47.6207 50.6418 84.1765Z" fill="#FEFEFE" transform="matrix(1 0 0 1.00036 592 20.2222)"/><path d="M78.9273 68.3155C80.2112 73.2249 83.1568 77.53 87.2354 80.5889 91.2762 83.6478 96.1855 85.3849 101.208 85.3849 106.306 85.3849 111.329 83.6478 115.37 80.5889 119.297 77.53 122.243 73.2249 123.678 68.3155 125.868 60.4228 125.868 52.0014 123.678 44.1464 122.243 39.1993 119.297 34.9319 115.37 31.873 111.329 28.8141 106.382 27.077 101.208 27.077 96.1855 27.077 91.2762 28.8141 87.2354 31.873 83.1568 34.9319 80.2112 39.1993 78.9273 44.1464 76.6992 52.0014 76.6992 60.4228 78.9273 68.3155ZM91.0496 64.0481C90.181 58.8744 90.181 53.5497 91.0496 48.376 91.3895 45.9968 92.6734 43.8065 94.5616 42.1449 96.4121 40.6343 98.829 39.7657 101.208 39.7657 103.738 39.7657 106.08 40.6343 107.93 42.1449 109.894 43.8065 111.102 45.9968 111.556 48.376 112.424 53.5497 112.424 58.8744 111.556 64.0481 111.102 66.4273 109.894 68.7309 107.93 70.2792 106.08 71.9031 103.738 72.7717 101.208 72.7717 98.829 72.7717 96.4121 71.9031 94.5616 70.2792 92.6734 68.7309 91.3895 66.4273 91.0496 64.0481Z" fill="#FEFEFE" transform="matrix(1 0 0 1.00036 592 20.2222)"/><path d="M137.424 68.3155C138.746 73.2249 141.691 77.53 145.732 80.5889 149.773 83.6478 154.72 85.3849 159.78 85.3849 164.803 85.3849 169.826 83.6478 173.753 80.5889 177.794 77.53 180.777 73.2249 182.061 68.3155 184.365 60.4228 184.365 52.0014 182.061 44.1464 180.777 39.1993 177.794 34.9319 173.753 31.873 169.826 28.8141 164.803 27.077 159.78 27.077 154.72 27.077 149.773 28.8141 145.732 31.873 141.691 34.9319 138.746 39.1993 137.424 44.1464 135.196 52.0014 135.196 60.4228 137.424 68.3155ZM149.546 64.0481C148.678 58.8744 148.678 53.5497 149.546 48.376 149.886 45.9968 151.208 43.8065 153.096 42.1449 154.947 40.6343 157.364 39.7657 159.78 39.7657 162.16 39.7657 164.577 40.6343 166.427 42.1449 168.315 43.8065 169.599 45.9968 170.052 48.376 170.921 53.5497 170.921 58.8744 170.052 64.0481 169.599 66.4273 168.315 68.7309 166.427 70.2792 164.577 71.9031 162.16 72.7717 159.78 72.7717 157.364 72.7717 154.947 71.9031 153.096 70.2792 151.208 68.7309 149.886 66.4273 149.546 64.0481Z" fill="#FEFEFE" transform="matrix(1 0 0 1.00036 592 20.2222)"/><path d="M86.0269 140.068 97.7338 140.068 97.7338 118.202C97.7338 116.88 98.2625 115.672 99.1311 114.69 99.9997 113.821 101.321 113.255 102.53 113.255 103.852 113.255 105.098 113.821 106.08 114.69 106.948 115.672 107.477 116.88 107.477 118.202L107.477 140.068 118.957 140.068 118.957 118.202C118.957 116.88 119.411 115.672 120.392 114.69 121.261 113.821 122.469 113.255 123.791 113.255 125.113 113.255 126.284 113.821 127.19 114.69 128.172 115.672 128.587 116.88 128.587 118.202L128.587 140.068 140.407 140.068 140.407 117.107C140.407 114.161 139.539 111.178 137.877 108.761 136.253 106.231 133.95 104.38 131.231 103.172 128.474 102.077 125.415 101.775 122.583 102.303 119.637 102.87 116.994 104.267 114.803 106.344 113.935 105.249 112.726 104.154 111.216 103.398 109.667 102.643 108.043 102.077 106.306 101.963 104.494 101.888 102.756 102.19 101.095 102.87 99.5843 103.398 98.2625 104.38 97.1674 105.362L96.1855 102.87 86.0269 102.87 86.0269 140.068Z" fill="#FEFEFE" transform="matrix(1 0 0 1.00036 592 20.2222)"/><path d="M11.6691 395.996 11.6691 296.978 212.915 180.815 212.915 279.795 11.6691 395.996Z" fill="#FEFEFE" transform="matrix(1 0 0 1.00036 592 20.2222)"/><path d="M286.517 199.206 374.546 199.206" stroke="#808080" stroke-width="0.755285" stroke-linejoin="round" stroke-dasharray="4.83382 4.83382" fill="none" transform="matrix(1 0 0 1.00036 592 20.2222)"/></g></svg>