<svg width="225" height="450" xmlns="http://www.w3.org/2000/svg" xmlns:xlink="http://www.w3.org/1999/xlink" xml:space="preserve" overflow="hidden"><defs><clipPath id="clip0"><rect x="336" y="20" width="225" height="450"/></clipPath></defs><g clip-path="url(#clip0)" transform="translate(-336 -20)"><path d="M0.378016 422.962C0.378016 424.399 0.604826 425.949 0.831635 427.574 1.17185 429.124 1.58767 430.636 2.15469 432.186 3.43995 435.248 5.33003 438.196 7.71153 440.616 10.2442 443.11 13.0794 444.963 16.2547 446.172 17.8046 446.853 19.3166 447.269 20.8665 447.495 22.3786 447.836 23.9284 447.949 25.4405 447.949L199.214 447.949C200.764 447.949 202.276 447.836 203.826 447.495 205.338 447.269 206.888 446.853 208.438 446.172 211.613 444.963 214.449 443.11 216.943 440.616 219.363 438.196 221.215 435.248 222.538 432.186 223.105 430.636 223.521 429.124 223.861 427.574 224.201 425.949 224.277 424.399 224.277 422.962L224.277 25.3271C224.277 23.9284 224.201 22.3786 223.861 20.7531 223.521 19.2032 223.105 17.6912 222.538 16.1413 221.215 13.0794 219.363 10.1308 216.943 7.71153 214.449 5.21662 211.613 3.32654 208.438 2.11689 206.888 1.47426 205.338 1.05844 203.826 0.831635 202.276 0.491421 200.764 0.378016 199.214 0.378016L25.4405 0.378016C23.9284 0.378016 22.3786 0.491421 20.8665 0.831635 19.3166 1.05844 17.8046 1.47426 16.2547 2.11689 13.0794 3.32654 10.2442 5.21662 7.71153 7.71153 5.33003 10.1308 3.43995 13.0794 2.15469 16.1413 1.58767 17.6912 1.17185 19.2032 0.831635 20.7531 0.604826 22.3786 0.378016 23.9284 0.378016 25.3271L0.378016 422.962Z" fill="#FEFEFE" transform="matrix(1 0 0 1.00036 336.143 20)"/><path d="M0.378016 422.924C0.378016 429.653 3.13753 436.004 7.71153 440.616 12.4745 445.303 18.8252 447.949 25.4783 447.949" stroke="#343434" stroke-width="0.756032" stroke-linejoin="round" fill="none" transform="matrix(1 0 0 1.00036 336.143 20)"/><path d="M25.4405 447.911 199.177 447.911" stroke="#343434" stroke-width="0.756032" stroke-linejoin="round" fill="none" transform="matrix(1 0 0 1.00036 336.143 20)"/><path d="M199.177 447.949C205.868 447.949 212.256 445.303 216.943 440.616 221.669 436.004 224.277 429.653 224.277 422.924" stroke="#343434" stroke-width="0.756032" stroke-linejoin="round" fill="none" transform="matrix(1 0 0 1.00036 336.143 20)"/><path d="M224.239 422.924 224.239 25.3271" stroke="#343434" stroke-width="0.756032" stroke-linejoin="round" fill="none" transform="matrix(1 0 0 1.00036 336.143 20)"/><path d="M224.277 25.3649C224.277 18.674 221.669 12.3233 216.943 7.71153 212.256 3.02413 205.868 0.378016 199.177 0.378016" stroke="#343434" stroke-width="0.756032" stroke-linejoin="round" fill="none" transform="matrix(1 0 0 1.00036 336.143 20)"/><path d="M199.177 0.378016 25.4405 0.378016" stroke="#343434" stroke-width="0.756032" stroke-linejoin="round" fill="none" transform="matrix(1 0 0 1.00036 336.143 20)"/><path d="M25.4783 0.378016C18.8252 0.378016 12.4745 3.02413 7.71153 7.71153 3.13753 12.3233 0.378016 18.674 0.378016 25.3649" stroke="#343434" stroke-width="0.756032" stroke-linejoin="round" fill="none" transform="matrix(1 0 0 1.00036 336.143 20)"/><path d="M0.378016 25.3271 0.378016 422.924" stroke="#343434" stroke-width="0.756032" stroke-linejoin="round" fill="none" transform="matrix(1 0 0 1.00036 336.143 20)"/><path d="M11.6807 422.962C11.6807 424.625 11.8697 426.364 12.6635 428.028 13.3062 429.766 14.289 431.392 15.7255 432.715 17.0107 434.151 18.674 435.134 20.2995 435.777 22.0761 436.457 23.815 436.76 25.4405 436.76L199.177 436.76C200.878 436.76 202.617 436.457 204.355 435.777 206.132 435.134 207.644 434.151 209.081 432.715 210.404 431.392 211.387 429.766 212.143 428.028 212.785 426.364 213.125 424.625 213.125 422.962L213.125 25.3271C213.125 23.7016 212.785 21.9627 212.143 20.2995 211.387 18.5606 210.404 16.8973 209.081 15.6121 207.644 14.1756 206.132 13.1928 204.355 12.5501 202.617 11.8697 200.878 11.5673 199.177 11.5673L25.4405 11.5673C23.815 11.5673 22.0761 11.8697 20.2995 12.5501 18.674 13.1928 17.0107 14.1756 15.7255 15.6121 14.289 16.8973 13.3062 18.5606 12.6635 20.2995 11.8697 21.9627 11.6807 23.7016 11.6807 25.3271L11.6807 422.962Z" fill="#0055FF" transform="matrix(1 0 0 1.00036 336.143 20)"/><path d="M34.097 84.2976 74.7716 84.2976 74.7716 72.6169 56.778 72.6169 65.548 65.17C66.5308 64.3383 67.4381 63.4689 68.3075 62.5995 72.5791 58.6681 74.9606 53.1869 74.9606 47.4788 75.074 43.2072 73.9777 39.1625 71.7096 35.6847 70.689 34.3617 69.5928 33.2654 68.3075 32.2826 67.0979 31.2997 65.7748 30.4303 64.3383 29.7499 62.7129 28.8804 60.9362 28.3512 59.0461 27.8976 52.7332 26.4611 46.1558 27.3684 40.4477 30.4303 38.1418 31.7155 36.2895 33.6056 34.9665 35.8737 33.7946 37.9528 32.8874 40.3721 32.3582 42.7914 31.9046 45.2863 31.7912 47.819 32.1314 50.2383L45.5887 50.2383C45.3997 48.3861 45.5887 46.3826 46.3826 44.6437 47.3654 41.6952 50.0871 39.6161 53.2625 39.5027 54.3587 39.5027 55.3416 39.7295 56.4378 39.9563 58.8571 40.4855 60.8228 42.3378 61.352 44.8705 61.919 47.819 61.163 50.7676 59.2729 53.1869 58.2901 54.5099 57.1938 55.7196 56.0976 56.8158 54.8879 57.8743 53.6027 58.9705 52.2796 59.8777L35.3067 72.6169C34.9665 72.8059 34.6641 73.1461 34.4373 73.5997 34.2105 74.0155 34.097 74.4692 34.097 74.7716L34.097 84.2976Z" fill="#FEFEFE" transform="matrix(1 0 0 1.00036 336.143 20)"/><path d="M87.5107 68.3831C88.8338 73.2973 91.7823 77.6067 95.8649 80.6686 99.9097 83.7306 104.824 85.4694 109.889 85.4694 115.03 85.4694 119.982 83.7306 124.027 80.6686 128.072 77.6067 130.907 73.2973 132.343 68.3831 134.536 60.4826 134.536 52.0528 132.343 44.1901 130.907 39.2381 128.072 34.9665 124.027 31.9046 119.982 28.8426 115.03 27.1038 109.889 27.1038 104.824 27.1038 99.9097 28.8426 95.8649 31.9046 91.7823 34.9665 88.8338 39.2381 87.5107 44.1901 85.356 52.0528 85.356 60.4826 87.5107 68.3831ZM99.6828 64.1115C98.8134 58.9327 98.8134 53.6027 99.6828 48.4239 100.099 46.0424 101.308 43.8499 103.198 42.1866 105.051 40.6745 107.47 39.8051 109.889 39.8051 112.422 39.8051 114.841 40.6745 116.694 42.1866 118.546 43.8499 119.755 46.0424 120.171 48.4239 121.079 53.6027 121.079 58.9327 120.171 64.1115 119.755 66.493 118.546 68.7989 116.694 70.3488 114.841 71.9743 112.422 72.8437 109.889 72.8437 107.47 72.8437 105.051 71.9743 103.198 70.3488 101.308 68.7989 100.099 66.493 99.6828 64.1115Z" fill="#FEFEFE" transform="matrix(1 0 0 1.00036 336.143 20)"/><path d="M146.103 68.3831C147.388 73.2973 150.375 77.6067 154.457 80.6686 158.502 83.7306 163.416 85.4694 168.482 85.4694 173.623 85.4694 178.537 83.7306 182.582 80.6686 186.627 77.6067 189.499 73.2973 190.898 68.3831 193.091 60.4826 193.091 52.0528 190.898 44.1901 189.499 39.2381 186.627 34.9665 182.582 31.9046 178.537 28.8426 173.623 27.1038 168.482 27.1038 163.416 27.1038 158.502 28.8426 154.457 31.9046 150.375 34.9665 147.388 39.2381 146.103 44.1901 143.873 52.0528 143.873 60.4826 146.103 68.3831ZM158.275 64.1115C157.406 58.9327 157.406 53.6027 158.275 48.4239 158.729 46.0424 159.939 43.8499 161.791 42.1866 163.643 40.6745 166.062 39.8051 168.482 39.8051 170.977 39.8051 173.396 40.6745 175.248 42.1866 177.101 43.8499 178.31 46.0424 178.764 48.4239 179.633 53.6027 179.633 58.9327 178.764 64.1115 178.31 66.493 177.101 68.7989 175.248 70.3488 173.396 71.9743 170.977 72.8437 168.482 72.8437 166.062 72.8437 163.643 71.9743 161.791 70.3488 159.939 68.7989 158.729 66.493 158.275 64.1115Z" fill="#FEFEFE" transform="matrix(1 0 0 1.00036 336.143 20)"/><path d="M86.1121 140.206 97.8306 140.206 97.8306 118.319C97.8306 116.996 98.3598 115.786 99.2292 114.803 100.099 113.934 101.422 113.367 102.631 113.367 103.954 113.367 105.202 113.934 106.185 114.803 107.054 115.786 107.583 116.996 107.583 118.319L107.583 140.206 119.075 140.206 119.075 118.319C119.075 116.996 119.529 115.786 120.512 114.803 121.381 113.934 122.591 113.367 123.914 113.367 125.237 113.367 126.409 113.934 127.316 114.803 128.299 115.786 128.714 116.996 128.714 118.319L128.714 140.206 140.546 140.206 140.546 117.223C140.546 114.274 139.677 111.288 138.014 108.869 136.388 106.336 134.082 104.484 131.361 103.274 128.601 102.178 125.539 101.875 122.704 102.405 119.755 102.972 117.109 104.37 114.917 106.449 114.047 105.353 112.838 104.257 111.326 103.501 109.776 102.745 108.15 102.178 106.412 102.064 104.597 101.989 102.858 102.291 101.195 102.972 99.6828 103.501 98.3598 104.484 97.2635 105.466L96.2807 102.972 86.1121 102.972 86.1121 140.206Z" fill="#FEFEFE" transform="matrix(1 0 0 1.00036 336.143 20)"/><path d="M11.6807 426.251 11.6807 361.686 213.125 245.37 213.125 310.011 11.6807 426.251Z" fill="#FEFEFE" transform="matrix(1 0 0 1.00036 336.143 20)"/><path d="M11.6807 297.083 11.6807 232.366 213.125 116.089 213.125 180.692 11.6807 297.083Z" fill="#FEFEFE" transform="matrix(1 0 0 1.00036 336.143 20)"/><path d="M251.91 329.517 385.576 329.517" stroke="#808080" stroke-width="0.756032" stroke-linejoin="round" stroke-dasharray="4.83861 4.83861" fill="none" transform="matrix(1 0 0 1.00036 336.143 20)"/></g></svg>