<svg width="201" height="202" xmlns="http://www.w3.org/2000/svg" xmlns:xlink="http://www.w3.org/1999/xlink" xml:space="preserve" overflow="hidden"><defs><clipPath id="clip0"><rect x="832" y="259" width="201" height="202"/></clipPath></defs><g clip-path="url(#clip0)" transform="translate(-832 -259)"><path d="M166.58 0.415034C168.542 0.415034 170.617 0.528225 172.692 0.980989 174.767 1.28283 176.842 1.96198 178.804 2.71659 182.955 4.33899 186.916 6.90466 190.199 10.1872 193.481 13.4697 196.009 17.3937 197.632 21.544 198.499 23.6192 199.065 25.6944 199.48 27.7695 199.82 29.8447 200.046 31.8067 200.046 33.7687L200.046 166.542C200.046 168.504 199.82 170.579 199.48 172.654 199.065 174.729 198.499 176.804 197.632 178.88 196.009 183.03 193.481 186.878 190.199 190.161 186.916 193.406 182.955 195.934 178.804 197.556 176.842 198.462 174.654 198.99 172.692 199.443 170.617 199.745 168.542 199.971 166.58 199.971L33.8064 199.971C31.8444 199.971 29.8824 199.745 27.8073 199.443 25.7321 198.99 23.6569 198.462 21.5818 197.556 17.4314 195.934 13.4697 193.406 10.2249 190.161 6.94239 186.878 4.41445 183.03 2.79205 178.88 1.88652 176.804 1.35829 174.729 1.01872 172.654 0.603686 170.579 0.377304 168.504 0.377304 166.542L0.377304 33.7687C0.377304 31.8067 0.603686 29.8447 1.01872 27.7695 1.35829 25.6944 1.88652 23.6192 2.79205 21.544 4.41445 17.3937 6.94239 13.4697 10.2249 10.1872 13.4697 6.90466 17.4314 4.33899 21.5818 2.71659 23.6569 1.96198 25.7321 1.28283 27.8073 0.980989 29.8824 0.528225 31.8444 0.415034 33.8064 0.415034L166.58 0.415034Z" fill="#FEFEFE" transform="matrix(1 0 0 1.00698 832.109 259)"/><path d="M166.58 0.415034C175.446 0.415034 183.973 3.92396 190.199 10.1495 196.537 16.4882 200.046 24.9398 200.046 33.7687" stroke="#010101" stroke-width="0.754607" stroke-linejoin="round" fill="none" transform="matrix(1 0 0 1.00698 832.109 259)"/><path d="M200.009 33.7309 200.009 166.504" stroke="#010101" stroke-width="0.754607" stroke-linejoin="round" fill="none" transform="matrix(1 0 0 1.00698 832.109 259)"/><path d="M200.046 166.504C200.046 175.371 196.537 183.86 190.199 190.123 183.973 196.5 175.446 199.971 166.58 199.971" stroke="#010101" stroke-width="0.754607" stroke-linejoin="round" fill="none" transform="matrix(1 0 0 1.00698 832.109 259)"/><path d="M166.58 199.933 33.8064 199.933" stroke="#010101" stroke-width="0.754607" stroke-linejoin="round" fill="none" transform="matrix(1 0 0 1.00698 832.109 259)"/><path d="M33.8441 199.971C25.0152 199.971 16.4882 196.5 10.2627 190.123 3.99942 183.86 0.377304 175.371 0.377304 166.504" stroke="#010101" stroke-width="0.754607" stroke-linejoin="round" fill="none" transform="matrix(1 0 0 1.00698 832.109 259)"/><path d="M0.377304 166.504 0.377304 33.7309" stroke="#010101" stroke-width="0.754607" stroke-linejoin="round" fill="none" transform="matrix(1 0 0 1.00698 832.109 259)"/><path d="M0.377304 33.7687C0.377304 24.9398 3.99942 16.4882 10.2627 10.1495 16.4882 3.92396 25.0152 0.415034 33.8441 0.415034" stroke="#010101" stroke-width="0.754607" stroke-linejoin="round" fill="none" transform="matrix(1 0 0 1.00698 832.109 259)"/><path d="M33.8064 0.415034 166.58 0.415034" stroke="#010101" stroke-width="0.754607" stroke-linejoin="round" fill="none" transform="matrix(1 0 0 1.00698 832.109 259)"/><path d="M33.8064 15.394 166.617 15.394C168.806 15.394 171.069 15.7336 173.371 16.6014 175.673 17.5823 177.861 18.9029 179.597 20.7517 181.445 22.6005 182.879 24.6757 183.747 26.9772 184.615 29.2788 185.067 31.5803 185.067 33.7309L185.067 166.542C185.067 168.73 184.615 171.032 183.747 173.333 182.879 175.597 181.445 177.785 179.597 179.559 177.861 181.408 175.673 182.841 173.371 183.709 171.069 184.577 168.806 184.992 166.617 184.992L33.8064 184.992C31.618 184.992 29.3165 184.577 27.0527 183.709 24.7511 182.841 22.6759 181.408 20.7894 179.559 18.9406 177.785 17.6201 175.597 16.6391 173.333 15.7713 171.032 15.3563 168.73 15.3563 166.542L15.3563 33.7309C15.3563 31.5803 15.7713 29.2788 16.6391 26.9772 17.6201 24.6757 18.9406 22.6005 20.7894 20.7517 22.6759 18.9029 24.7511 17.5823 27.0527 16.6014 29.3165 15.7336 31.618 15.394 33.8064 15.394Z" fill="#0055FF" transform="matrix(1 0 0 1.00698 832.109 259)"/><path d="M97.4198 112.097C98.0612 110.437 97.6084 108.475 96.3256 107.267 95.7597 106.739 95.0051 106.286 94.0241 106.173 93.1563 106.098 92.2507 106.173 91.4961 106.626L32.8254 137.565 91.4961 168.504C92.2507 168.957 93.1563 169.183 94.0241 168.957 95.0051 168.843 95.7597 168.504 96.3256 167.862 96.967 167.296 97.4198 166.542 97.6084 165.636 97.8348 164.768 97.7216 163.901 97.4198 163.108L90.8547 148.054 167.598 148.054 167.598 127.076 90.8547 127.076 97.4198 112.097Z" fill="#FFFFFF" transform="matrix(1 0 0 1.00698 832.109 259)"/><path d="M15.3563 166.504C15.3563 171.409 17.3182 176.125 20.7894 179.521 24.2984 183.03 29.0524 184.992 33.8441 184.992" stroke="#0055FF" stroke-width="0.754607" stroke-linejoin="round" fill="none" transform="matrix(1 0 0 1.00698 832.109 259)"/><path d="M33.8064 184.954 166.58 184.954" stroke="#0055FF" stroke-width="0.754607" stroke-linejoin="round" fill="none" transform="matrix(1 0 0 1.00698 832.109 259)"/><path d="M166.58 184.992C171.484 184.992 176.201 183.03 179.597 179.521 183.105 176.125 185.067 171.409 185.067 166.504" stroke="#0055FF" stroke-width="0.754607" stroke-linejoin="round" fill="none" transform="matrix(1 0 0 1.00698 832.109 259)"/><path d="M185.03 166.504 185.03 33.7309" stroke="#0055FF" stroke-width="0.754607" stroke-linejoin="round" fill="none" transform="matrix(1 0 0 1.00698 832.109 259)"/><path d="M185.067 33.7687C185.067 28.9392 183.105 24.2606 179.597 20.7517 176.201 17.2428 171.484 15.394 166.58 15.394" stroke="#0055FF" stroke-width="0.754607" stroke-linejoin="round" fill="none" transform="matrix(1 0 0 1.00698 832.109 259)"/><path d="M166.58 15.394 33.8064 15.394" stroke="#0055FF" stroke-width="0.754607" stroke-linejoin="round" fill="none" transform="matrix(1 0 0 1.00698 832.109 259)"/><path d="M33.8441 15.394C29.0524 15.394 24.2984 17.2428 20.7894 20.7517 17.3182 24.2606 15.3563 28.9392 15.3563 33.7687" stroke="#0055FF" stroke-width="0.754607" stroke-linejoin="round" fill="none" transform="matrix(1 0 0 1.00698 832.109 259)"/><path d="M15.3563 33.7309 15.3563 166.504" stroke="#0055FF" stroke-width="0.754607" stroke-linejoin="round" fill="none" transform="matrix(1 0 0 1.00698 832.109 259)"/><path d="M26.034 82.2899C30.4107 86.6666 36.108 89.4964 42.1071 90.7038 48.2194 91.798 54.4449 91.1566 60.2554 88.7418 64.0662 87.2326 67.2732 84.3651 69.2352 80.7807 70.1407 78.9319 70.669 76.9322 70.5558 74.857 70.5558 70.9331 68.9334 67.1223 66.0659 64.2548 63.953 62.2928 61.4628 61.01 58.7084 60.2177 55.3504 59.2367 51.7283 58.3689 48.1062 57.8406 47.3516 57.8406 46.4838 57.6143 45.8424 57.1615 45.5028 57.0483 45.1632 56.8597 44.8614 56.5201 44.4086 56.0673 44.1823 55.5391 44.1823 54.8599 44.1823 53.4639 44.9369 52.1434 46.2574 51.3888 47.578 50.6719 49.1249 50.2568 50.6341 50.2568 52.8225 50.2568 55.0109 50.4832 57.086 51.1624 59.1612 51.8038 61.2364 52.7848 62.972 54.1053L70.7822 45.8801C66.4054 42.5976 61.3496 40.4092 55.9919 39.6546 50.6341 38.9 45.1632 39.4282 40.1451 41.277 37.3153 42.3712 34.9006 44.2577 33.2782 46.6347 31.618 49.1627 30.7502 52.1434 30.7502 55.0863 30.8634 58.0293 31.8444 60.8968 33.58 63.2738 35.3533 65.6886 37.8436 67.4242 40.7111 68.3297 43.9559 69.3107 47.2384 70.0653 50.6341 70.5935 51.2756 70.7067 51.9547 70.8199 52.7093 70.9331 53.5771 71.1595 54.3695 71.499 55.1241 71.9141 56.2182 72.5932 56.8597 73.6874 56.8597 74.857 56.7465 76.9322 55.2373 78.7055 53.2753 79.1206 50.1814 79.9884 46.7102 80.2148 43.3145 79.347 39.9187 78.366 37.0889 76.6304 34.7874 74.3288L26.034 82.2899Z" fill="#FEFEFE" transform="matrix(1 0 0 1.00698 832.109 259)"/><path d="M76.7436 73.0082C78.1773 78.2528 81.2335 82.8559 85.497 86.1384 89.7605 89.421 95.0051 91.2697 100.476 91.2697 105.834 91.2697 111.078 89.421 115.455 86.1384 119.718 82.8559 122.775 78.2528 124.208 73.0082 125.529 67.9901 125.529 62.6324 124.208 57.5011 122.775 52.2565 119.718 47.6157 115.455 44.3332 111.078 41.0884 105.834 39.315 100.476 39.315 95.0051 39.315 89.7605 41.0884 85.497 44.3332 81.2335 47.6157 78.1773 52.2565 76.7436 57.5011 75.423 62.6324 75.423 67.9901 76.7436 73.0082ZM89.1946 71.0463C88.2136 67.2355 88.2136 63.2738 89.1946 59.5762 89.8737 57.0483 91.2697 54.8599 93.3449 53.2375 95.4201 51.6906 97.8348 50.7851 100.476 50.7851 102.966 50.7851 105.532 51.6906 107.607 53.2375 109.569 54.8599 111.078 57.0483 111.757 59.5762 112.738 63.2738 112.738 67.2355 111.757 71.0463 111.078 73.461 109.569 75.7626 107.607 77.2718 105.532 78.8187 102.966 79.6865 100.476 79.6865 97.8348 79.6865 95.4201 78.8187 93.3449 77.2718 91.2697 75.7626 89.8737 73.461 89.1946 71.0463Z" fill="#FEFEFE" transform="matrix(1 0 0 1.00698 832.109 259)"/><path d="M130.283 82.2899C134.66 86.6666 140.357 89.4964 146.469 90.7038 152.468 91.798 158.845 91.1566 164.542 88.7418 168.353 87.2326 171.522 84.3651 173.597 80.7807 174.465 78.9319 174.918 76.9322 174.805 74.857 174.805 70.9331 173.145 67.1223 170.315 64.2548 168.353 62.2928 165.825 61.01 163.108 60.2177 159.599 59.2367 156.015 58.3689 152.355 57.8406 151.601 57.8406 150.846 57.6143 150.054 57.1615 149.752 57.0483 149.412 56.8597 149.073 56.5201 148.658 56.0673 148.431 55.5391 148.431 54.8599 148.431 53.4639 149.186 52.1434 150.506 51.3888 151.827 50.6719 153.336 50.2568 154.921 50.2568 157.109 50.2568 159.298 50.4832 161.373 51.1624 163.561 51.8038 165.523 52.7848 167.259 54.1053L175.031 45.8801C170.768 42.5976 165.636 40.4092 160.279 39.6546 154.921 38.9 149.412 39.4282 144.394 41.277 141.64 42.3712 139.263 44.2577 137.489 46.6347 135.867 49.1627 134.999 52.1434 135.112 55.0863 135.112 58.0293 136.093 60.8968 137.942 63.2738 139.678 65.6886 142.093 67.4242 144.922 68.3297 148.205 69.3107 151.487 70.0653 154.921 70.5935 155.562 70.7067 156.317 70.8199 156.996 70.9331 157.864 71.1595 158.618 71.499 159.486 71.9141 160.467 72.5932 161.146 73.6874 161.146 74.857 161.033 76.9322 159.599 78.7055 157.524 79.1206 154.43 79.9884 150.959 80.2148 147.563 79.347 144.281 78.366 141.338 76.6304 139.036 74.3288L130.283 82.2899Z" fill="#FEFEFE" transform="matrix(1 0 0 1.00698 832.109 259)"/><path d="M210.837 32.5236 210.837 165.297" stroke="#010101" stroke-width="0.754607" stroke-linejoin="round" fill="none" transform="matrix(1 0 0 1.00698 832.109 259)"/><path d="M163.976 206.385 31.203 206.385" stroke="#010101" stroke-width="0.754607" stroke-linejoin="round" fill="none" transform="matrix(1 0 0 1.00698 832.109 259)"/></g></svg>