<svg width="505" height="336" xmlns="http://www.w3.org/2000/svg" xmlns:xlink="http://www.w3.org/1999/xlink" xml:space="preserve" overflow="hidden"><defs><clipPath id="clip0"><rect x="651" y="364" width="505" height="336"/></clipPath></defs><g clip-path="url(#clip0)" transform="translate(-651 -364)"><path d="M0.377528 317.01C0.377528 319.2 0.830562 321.503 1.69888 323.919 2.56719 326.184 4.0018 328.261 5.85169 330.148 7.70157 331.998 9.89124 333.433 12.1942 334.301 14.4971 335.283 16.8 335.622 18.9897 335.622L484.633 335.622C486.936 335.622 489.239 335.283 491.542 334.301 493.844 333.433 496.034 331.998 497.884 330.148 499.734 328.261 501.055 326.184 502.037 323.919 502.905 321.503 503.358 319.2 503.358 317.01L503.358 18.9519C503.358 16.7622 502.905 14.4593 502.037 12.0431 501.055 9.77798 499.734 7.58831 497.884 5.81393 496.034 3.96404 493.844 2.56719 491.542 1.66112 489.239 0.679551 486.936 0.377528 484.633 0.377528L18.9897 0.377528C16.8 0.377528 14.4971 0.679551 12.1942 1.66112 9.89124 2.56719 7.70157 3.96404 5.85169 5.81393 4.0018 7.58831 2.56719 9.77798 1.69888 12.0431 0.830562 14.4593 0.377528 16.7622 0.377528 18.9519L0.377528 317.01Z" fill="#FFFFFF" transform="matrix(1.00032 0 0 1 651.834 364)"/><path d="M0.377528 316.973C0.377528 321.918 2.37843 326.637 5.85169 330.148 9.40045 333.622 14.0818 335.622 19.0274 335.622" stroke="#343434" stroke-width="0.755056" stroke-linejoin="round" fill="none" transform="matrix(1.00032 0 0 1 651.834 364)"/><path d="M18.9897 335.585 484.595 335.585" stroke="#343434" stroke-width="0.755056" stroke-linejoin="round" fill="none" transform="matrix(1.00032 0 0 1 651.834 364)"/><path d="M484.595 335.622C489.654 335.622 494.335 333.622 497.884 330.148 501.357 326.637 503.358 321.918 503.358 316.973" stroke="#343434" stroke-width="0.755056" stroke-linejoin="round" fill="none" transform="matrix(1.00032 0 0 1 651.834 364)"/><path d="M503.32 316.973 503.32 18.9519" stroke="#343434" stroke-width="0.755056" stroke-linejoin="round" fill="none" transform="matrix(1.00032 0 0 1 651.834 364)"/><path d="M503.358 18.9897C503.358 14.0818 501.357 9.32494 497.884 5.81393 494.335 2.34067 489.654 0.377528 484.595 0.377528" stroke="#343434" stroke-width="0.755056" stroke-linejoin="round" fill="none" transform="matrix(1.00032 0 0 1 651.834 364)"/><path d="M484.595 0.377528 18.9897 0.377528" stroke="#343434" stroke-width="0.755056" stroke-linejoin="round" fill="none" transform="matrix(1.00032 0 0 1 651.834 364)"/><path d="M19.0274 0.377528C14.0818 0.377528 9.40045 2.34067 5.85169 5.81393 2.37843 9.32494 0.377528 14.0818 0.377528 18.9897" stroke="#343434" stroke-width="0.755056" stroke-linejoin="round" fill="none" transform="matrix(1.00032 0 0 1 651.834 364)"/><path d="M0.377528 18.9519 0.377528 316.973" stroke="#343434" stroke-width="0.755056" stroke-linejoin="round" fill="none" transform="matrix(1.00032 0 0 1 651.834 364)"/><path d="M8.60764 317.01C8.60764 318.218 8.7964 319.54 9.3627 320.861 9.77798 322.145 10.684 323.353 11.6656 324.334 12.6472 325.429 13.9308 326.184 15.1389 326.751 16.4602 327.204 17.7816 327.392 18.9897 327.392L484.633 327.392C485.954 327.392 487.275 327.204 488.597 326.751 489.805 326.184 490.975 325.429 492.07 324.334 493.052 323.353 493.844 322.145 494.373 320.861 494.939 319.54 495.128 318.218 495.128 317.01L495.128 18.9519C495.128 17.7438 494.939 16.4225 494.373 15.1389 493.844 13.8175 493.052 12.6094 492.07 11.6279 490.975 10.533 489.805 9.77798 488.597 9.21169 487.275 8.7964 485.954 8.56989 484.633 8.56989L18.9897 8.56989C17.7816 8.56989 16.4602 8.7964 15.1389 9.21169 13.9308 9.77798 12.6472 10.533 11.6656 11.6279 10.684 12.6094 9.77798 13.8175 9.3627 15.1389 8.7964 16.4225 8.60764 17.7438 8.60764 18.9519L8.60764 317.01Z" fill="#0055FF" transform="matrix(1.00032 0 0 1 651.834 364)"/><path d="M19.2917 173.776C18.7631 174.871 18.3101 176.041 18.0081 177.476 17.6683 178.797 17.4418 180.194 17.3285 181.629 17.3285 184.573 17.8948 187.631 19.2162 190.501 20.4998 193.219 22.4629 195.635 24.7658 197.485 25.9739 198.353 27.182 199.108 28.3901 199.788 29.7115 200.316 30.8818 200.769 32.0899 201.109L52.3254 169.812 52.8539 217.154 28.6166 252.264C23.369 258.04 20.613 265.591 20.8396 273.255 21.1793 281.032 24.4638 288.356 30.1267 293.717L73.3159 229.499 73.3159 289.791C73.2027 290.999 73.4292 292.32 73.6557 293.604 73.9577 294.812 74.4108 296.133 74.9393 297.454 76.2607 300.059 78.2238 302.475 80.8665 304.099 83.3582 305.873 86.3407 306.855 89.2854 307.081 90.6822 307.195 92.0036 307.081 93.3249 306.855 94.6463 306.628 95.8544 306.213 96.9115 305.76L96.9115 178.684C99.3276 182.497 102.839 185.442 106.878 187.329 110.918 189.179 115.41 189.821 119.79 189.293 124.244 188.613 128.435 186.763 131.795 183.932 135.193 181.1 137.76 177.249 139.044 172.983L99.1011 152.974 100.876 129.605C100.422 124.018 98.0063 118.77 94.3065 114.618 90.4935 110.465 85.4346 107.633 79.8849 106.614 77.3555 106.199 74.6373 106.085 71.7681 106.538 69.0499 106.84 66.2184 107.709 63.689 109.03 61.084 110.465 58.7811 112.201 56.818 114.278 54.8548 116.241 53.4202 118.544 52.3254 120.96L19.2917 173.776Z" fill="#FFFFFF" transform="matrix(1.00032 0 0 1 651.834 364)"/><path d="M106.274 84.5663C106.274 79.0921 104.084 73.9577 100.234 70.107 96.3829 66.2939 91.2485 64.1043 85.8876 64.1043 80.4135 64.1043 75.2791 66.2939 71.4661 70.107 67.6153 73.9577 65.4256 79.0921 65.4256 84.5663 65.4256 89.9272 67.6153 95.1748 71.4661 99.0256 75.2791 102.839 80.4135 105.028 85.8876 105.028 91.2485 105.028 96.3829 102.839 100.234 99.0256 104.084 95.1748 106.274 89.9272 106.274 84.5663Z" fill="#FFFFFF" transform="matrix(1.00032 0 0 1 651.834 364)"/><path d="M205.64 291.338C205.64 289.677 205.3 287.941 204.658 286.204 204.016 284.543 202.921 282.882 201.6 281.447 200.165 280.126 198.542 279.031 196.768 278.389 195.144 277.747 193.408 277.408 191.633 277.408 188.047 277.408 184.422 278.842 181.818 281.447 179.137 284.128 177.74 287.714 177.74 291.338 177.74 295.038 179.137 298.662 181.818 301.267 184.422 303.91 188.047 305.307 191.633 305.307 195.371 305.307 198.957 303.91 201.6 301.267 204.205 298.662 205.64 295.038 205.64 291.338Z" fill="#FFFFFF" transform="matrix(1.00032 0 0 1 651.834 364)"/><path d="M267.063 302.136C267.705 303.797 268.8 305.194 270.31 306.213 271.745 307.27 273.595 307.723 275.369 307.61 277.106 307.61 278.842 306.968 280.277 305.873 281.711 304.778 282.693 303.231 283.222 301.494L283.222 269.404 290.244 269.404C290.168 270.423 290.357 271.631 290.81 272.726 291.263 273.934 292.018 275.029 293 275.784 294.094 276.69 295.189 277.219 296.511 277.445 297.681 277.785 298.776 277.672 299.871 277.445L336.944 273.293C334.339 266.799 328.978 261.891 322.296 259.815L306.1 259.815 296.171 238.824 296.813 232.255 299.455 232.255 312.027 247.545C313.122 248.111 314.33 248.527 315.727 248.64 317.161 248.753 318.596 248.527 319.993 247.998 321.314 247.356 322.522 246.337 323.391 245.242 324.146 244.185 324.712 242.977 324.901 241.769L313.537 225.044C312.555 222.175 310.706 219.57 308.101 217.607 305.458 215.644 302.4 214.662 299.455 214.549L288.092 214.549C281.032 217.947 273.066 218.929 265.402 217.381L236.446 246.337 236.446 250.188C240.901 253.586 246.828 254.567 252.076 252.604L264.987 241.769 267.063 241.769 267.063 302.136Z" fill="#FFFFFF" transform="matrix(1.00032 0 0 1 651.834 364)"/><path d="M293.226 200.316C293.226 196.503 291.678 192.766 288.96 190.048 286.204 187.329 282.466 185.782 278.653 185.782 276.879 185.782 275.029 186.008 273.179 186.763 271.405 187.518 269.668 188.613 268.234 190.048 266.837 191.482 265.742 193.106 264.987 194.955 264.307 196.843 263.968 198.58 263.968 200.316 263.968 204.318 265.516 208.018 268.234 210.736 270.99 213.492 274.689 215.002 278.653 215.002 282.466 215.002 286.204 213.492 288.96 210.736 291.678 208.018 293.226 204.318 293.226 200.316Z" fill="#FFFFFF" transform="matrix(1.00032 0 0 1 651.834 364)"/><path d="M354.084 218.74 455.148 288.356 462.661 270.348 362.691 200.807C356.802 195.333 351.441 189.444 346.42 182.875 341.512 176.381 337.133 169.397 333.395 162.073 329.695 154.635 326.751 147.085 324.334 139.195 322.031 131.342 320.521 123.452 319.615 115.486L301.796 115.486C301.494 120.28 301.381 125.226 301.72 130.247 302.022 135.155 302.589 140.214 303.57 145.235 305.533 155.277 308.931 165.018 313.613 174.418 318.332 183.743 324.221 192.162 331.205 199.712 334.603 203.525 338.341 206.923 342.154 210.094 345.967 213.266 349.931 216.21 354.084 218.74Z" fill="#FFFFFF" transform="matrix(1.00032 0 0 1 651.834 364)"/><path d="M161.771 63.8778 161.771 99.0256 167.132 103.82 167.132 124.282 187.896 124.282 187.896 103.82 248.829 103.82 248.829 123.074 268.271 123.074 268.271 103.82 274.312 98.7991 274.312 65.0858 271.896 61.5748 268.271 61.5748 253.51 33.6 180.005 33.6 169.85 60.5933 164.489 60.5933 161.771 63.8778ZM180.005 61.2728 188.764 43.8688 247.621 43.8688 256.908 61.2728 180.005 61.2728ZM183.177 79.7717C183.177 80.9798 182.648 82.1879 181.78 83.0562 180.911 83.9245 179.703 84.4908 178.382 84.4908 177.174 84.4908 175.966 83.9245 175.098 83.0562 174.229 82.1879 173.663 80.9798 173.663 79.7717 173.663 78.4503 174.229 77.2422 175.098 76.3739 175.966 75.5056 177.174 74.9771 178.382 74.9771 179.703 74.9771 180.911 75.5056 181.78 76.3739 182.648 77.2422 183.177 78.4503 183.177 79.7717ZM263.137 80.2247C263.137 81.3951 262.722 82.6031 261.853 83.5092 260.947 84.3775 259.777 84.7928 258.569 84.7928 257.361 84.7928 256.153 84.3775 255.284 83.5092 254.416 82.6031 253.963 81.3951 253.963 80.2247 253.963 79.0166 254.416 77.8085 255.284 77.0535 256.153 76.1474 257.361 75.6189 258.569 75.6189 259.777 75.6189 260.947 76.1474 261.853 77.0535 262.722 77.8085 263.137 79.0166 263.137 80.2247Z" fill="#FFFFFF" transform="matrix(1.00032 0 0 1 651.834 364)"/><path d="M358.236 78.2993 358.236 180.043 456.016 180.043 456.016 81.0553 486.294 81.0553 407.995 28.2391 392.478 39.6027 392.478 31.1838 376.811 31.1838 376.811 46.8135 327.053 78.2993 358.236 78.2993ZM369.034 164.187 369.034 75.0526 407.466 44.4351 445.294 77.431 445.294 163.319 421.548 163.319 421.548 123.603 393.346 123.603 393.346 164.187 369.034 164.187Z" fill="#FFFFFF" transform="matrix(1.00032 0 0 1 651.834 364)"/><path d="M377.151 110.163 403.2 110.163 403.2 76.7892 377.151 76.7892 377.151 110.163Z" fill="#FFFFFF" transform="matrix(1.00032 0 0 1 651.834 364)"/><path d="M410.146 110.163 436.234 110.163 436.234 76.7892 410.146 76.7892 410.146 110.163Z" fill="#FFFFFF" transform="matrix(1.00032 0 0 1 651.834 364)"/><path d="M516.647 47.0778 527.293 298.134" stroke="#3465A4" stroke-width="1.06546" stroke-linejoin="round" fill="none" transform="matrix(1.00032 0 0 1 651.834 364)"/></g></svg>