<svg width="504" height="336" xmlns="http://www.w3.org/2000/svg" xmlns:xlink="http://www.w3.org/1999/xlink" xml:space="preserve" overflow="hidden"><defs><clipPath id="clip0"><rect x="649" y="11" width="504" height="336"/></clipPath></defs><g clip-path="url(#clip0)" transform="translate(-649 -11)"><path d="M0.377453 316.947C0.377453 319.137 0.830397 321.439 1.69854 323.855 2.56668 326.12 4.001 328.196 5.85052 330.083 7.70005 331.932 9.88927 333.367 12.1917 334.235 14.4942 335.216 16.7967 335.556 18.9859 335.556L484.537 335.556C486.839 335.556 489.142 335.216 491.444 334.235 493.747 333.367 495.936 331.932 497.785 330.083 499.635 328.196 500.956 326.12 501.937 323.855 502.805 321.439 503.258 319.137 503.258 316.947L503.258 18.9482C503.258 16.7589 502.805 14.4565 501.937 12.0408 500.956 9.77604 499.635 7.58681 497.785 5.81278 495.936 3.96326 493.747 2.56668 491.444 1.66079 489.142 0.679416 486.839 0.377453 484.537 0.377453L18.9859 0.377453C16.7967 0.377453 14.4942 0.679416 12.1917 1.66079 9.88927 2.56668 7.70005 3.96326 5.85052 5.81278 4.001 7.58681 2.56668 9.77604 1.69854 12.0408 0.830397 14.4565 0.377453 16.7589 0.377453 18.9482L0.377453 316.947Z" fill="#FFFFFF" transform="matrix(1 0 0 1.0002 649.23 11)"/><path d="M0.377453 316.91C0.377453 321.854 2.37796 326.573 5.85052 330.083 9.39859 333.555 14.079 335.556 19.0236 335.556" stroke="#343434" stroke-width="0.754906" stroke-linejoin="round" fill="none" transform="matrix(1 0 0 1.0002 649.23 11)"/><path d="M18.9859 335.518 484.499 335.518" stroke="#343434" stroke-width="0.754906" stroke-linejoin="round" fill="none" transform="matrix(1 0 0 1.0002 649.23 11)"/><path d="M484.499 335.556C489.557 335.556 494.237 333.555 497.785 330.083 501.258 326.573 503.258 321.854 503.258 316.91" stroke="#343434" stroke-width="0.754906" stroke-linejoin="round" fill="none" transform="matrix(1 0 0 1.0002 649.23 11)"/><path d="M503.221 316.91 503.221 18.9482" stroke="#343434" stroke-width="0.754906" stroke-linejoin="round" fill="none" transform="matrix(1 0 0 1.0002 649.23 11)"/><path d="M503.258 18.9859C503.258 14.079 501.258 9.32309 497.785 5.81278 494.237 2.34021 489.557 0.377453 484.499 0.377453" stroke="#343434" stroke-width="0.754906" stroke-linejoin="round" fill="none" transform="matrix(1 0 0 1.0002 649.23 11)"/><path d="M484.499 0.377453 18.9859 0.377453" stroke="#343434" stroke-width="0.754906" stroke-linejoin="round" fill="none" transform="matrix(1 0 0 1.0002 649.23 11)"/><path d="M19.0236 0.377453C14.079 0.377453 9.39859 2.34021 5.85052 5.81278 2.37796 9.32309 0.377453 14.079 0.377453 18.9859" stroke="#343434" stroke-width="0.754906" stroke-linejoin="round" fill="none" transform="matrix(1 0 0 1.0002 649.23 11)"/><path d="M0.377453 18.9482 0.377453 316.91" stroke="#343434" stroke-width="0.754906" stroke-linejoin="round" fill="none" transform="matrix(1 0 0 1.0002 649.23 11)"/><path d="M8.60593 316.947C8.60593 318.155 8.79466 319.476 9.36084 320.797 9.77604 322.081 10.6819 323.289 11.6633 324.27 12.6447 325.365 13.928 326.12 15.1359 326.686 16.457 327.139 17.778 327.327 18.9859 327.327L484.537 327.327C485.858 327.327 487.179 327.139 488.5 326.686 489.708 326.12 490.878 325.365 491.973 324.27 492.954 323.289 493.747 322.081 494.275 320.797 494.841 319.476 495.03 318.155 495.03 316.947L495.03 18.9482C495.03 17.7403 494.841 16.4192 494.275 15.1359 493.747 13.8148 492.954 12.6069 491.973 11.6256 490.878 10.5309 489.708 9.77604 488.5 9.20986 487.179 8.79466 485.858 8.56819 484.537 8.56819L18.9859 8.56819C17.778 8.56819 16.457 8.79466 15.1359 9.20986 13.928 9.77604 12.6447 10.5309 11.6633 11.6256 10.6819 12.6069 9.77604 13.8148 9.36084 15.1359 8.79466 16.4192 8.60593 17.7403 8.60593 18.9482L8.60593 316.947Z" fill="#0055FF" transform="matrix(1 0 0 1.0002 649.23 11)"/><path d="M19.2879 173.742C18.7594 174.836 18.3065 176.006 18.0045 177.441 17.6648 178.762 17.4383 180.158 17.3251 181.593 17.3251 184.537 17.8913 187.594 19.2124 190.463 20.4957 193.181 22.4585 195.596 24.7609 197.446 25.9688 198.314 27.1766 199.069 28.3845 199.748 29.7056 200.277 30.8757 200.73 32.0835 201.069L52.315 169.778 52.8435 217.111 28.611 252.214C23.3644 257.989 20.6089 265.538 20.8354 273.201 21.1751 280.976 24.459 288.299 30.1208 293.659L73.3014 229.454 73.3014 289.733C73.1882 290.941 73.4146 292.262 73.6411 293.545 73.9431 294.753 74.396 296.074 74.9245 297.395 76.2456 300 78.2083 302.416 80.8505 304.039 83.3417 305.813 86.3236 306.794 89.2677 307.02 90.6643 307.134 91.9854 307.02 93.3064 306.794 94.6275 306.568 95.8354 306.152 96.8922 305.699L96.8922 178.649C99.3079 182.461 102.818 185.405 106.857 187.292 110.896 189.142 115.387 189.783 119.766 189.255 124.22 188.576 128.41 186.726 131.769 183.895 135.166 181.064 137.733 177.214 139.016 172.949L99.0815 152.944 100.856 129.58C100.403 123.993 97.9869 118.747 94.2878 114.595 90.4755 110.443 85.4177 107.612 79.8691 106.593 77.3402 106.178 74.6225 106.064 71.7539 106.517 69.0362 106.819 66.2053 107.687 63.6764 109.008 61.0719 110.443 58.7695 112.179 56.8067 114.255 54.844 116.218 53.4096 118.52 52.315 120.936L19.2879 173.742Z" fill="#FFFFFF" transform="matrix(1 0 0 1.0002 649.23 11)"/><path d="M106.253 84.5495C106.253 79.0765 104.064 73.9431 100.214 70.0931 96.3638 66.2808 91.2304 64.0916 85.8706 64.0916 80.3975 64.0916 75.2642 66.2808 71.4519 70.0931 67.6019 73.9431 65.4126 79.0765 65.4126 84.5495 65.4126 89.9094 67.6019 95.156 71.4519 99.006 75.2642 102.818 80.3975 105.007 85.8706 105.007 91.2304 105.007 96.3638 102.818 100.214 99.006 104.064 95.156 106.253 89.9094 106.253 84.5495Z" fill="#FFFFFF" transform="matrix(1 0 0 1.0002 649.23 11)"/><path d="M205.599 291.281C205.599 289.62 205.259 287.884 204.617 286.147 203.976 284.487 202.881 282.826 201.56 281.391 200.126 280.07 198.503 278.976 196.729 278.334 195.106 277.692 193.369 277.353 191.595 277.353 188.009 277.353 184.386 278.787 181.781 281.391 179.102 284.071 177.705 287.657 177.705 291.281 177.705 294.98 179.102 298.603 181.781 301.208 184.386 303.85 188.009 305.246 191.595 305.246 195.332 305.246 198.918 303.85 201.56 301.208 204.164 298.603 205.599 294.98 205.599 291.281Z" fill="#FFFFFF" transform="matrix(1 0 0 1.0002 649.23 11)"/><path d="M267.01 302.076C267.652 303.737 268.747 305.133 270.257 306.152 271.691 307.209 273.54 307.662 275.314 307.549 277.051 307.549 278.787 306.907 280.221 305.813 281.656 304.718 282.637 303.17 283.165 301.434L283.165 269.351 290.186 269.351C290.111 270.37 290.299 271.578 290.752 272.672 291.205 273.88 291.96 274.975 292.941 275.73 294.036 276.635 295.131 277.164 296.452 277.39 297.622 277.73 298.716 277.617 299.811 277.39L336.877 273.238C334.273 266.746 328.913 261.839 322.232 259.763L306.039 259.763 296.112 238.777 296.754 232.209 299.396 232.209 311.965 247.496C313.06 248.062 314.268 248.477 315.664 248.591 317.098 248.704 318.533 248.477 319.929 247.949 321.25 247.307 322.458 246.288 323.326 245.194 324.081 244.137 324.648 242.929 324.836 241.721L313.475 225C312.494 222.131 310.644 219.527 308.04 217.564 305.397 215.601 302.34 214.62 299.396 214.507L288.035 214.507C280.976 217.904 273.012 218.885 265.35 217.338L236.399 246.288 236.399 250.138C240.853 253.535 246.779 254.517 252.026 252.554L264.934 241.721 267.01 241.721 267.01 302.076Z" fill="#FFFFFF" transform="matrix(1 0 0 1.0002 649.23 11)"/><path d="M293.168 200.277C293.168 196.464 291.62 192.728 288.903 190.01 286.147 187.292 282.41 185.745 278.598 185.745 276.824 185.745 274.975 185.971 273.125 186.726 271.351 187.481 269.615 188.576 268.181 190.01 266.784 191.444 265.689 193.067 264.934 194.917 264.255 196.804 263.915 198.54 263.915 200.277 263.915 204.278 265.463 207.977 268.181 210.694 270.936 213.45 274.635 214.96 278.598 214.96 282.41 214.96 286.147 213.45 288.903 210.694 291.62 207.977 293.168 204.278 293.168 200.277Z" fill="#FFFFFF" transform="matrix(1 0 0 1.0002 649.23 11)"/><path d="M354.013 218.696 455.058 288.299 462.569 270.294 362.619 200.767C356.731 195.294 351.371 189.406 346.351 182.838 341.444 176.346 337.066 169.363 333.329 162.041 329.63 154.605 326.686 147.056 324.27 139.167 321.968 131.316 320.458 123.427 319.552 115.463L301.736 115.463C301.434 120.257 301.321 125.201 301.661 130.221 301.963 135.128 302.529 140.186 303.51 145.206 305.473 155.247 308.87 164.985 313.55 174.383 318.269 183.706 324.157 192.124 331.14 199.673 334.537 203.485 338.274 206.882 342.086 210.053 345.898 213.223 349.861 216.167 354.013 218.696Z" fill="#FFFFFF" transform="matrix(1 0 0 1.0002 649.23 11)"/><path d="M161.739 63.8651 161.739 99.006 167.099 103.8 167.099 124.258 187.858 124.258 187.858 103.8 248.779 103.8 248.779 123.05 268.218 123.05 268.218 103.8 274.258 98.7795 274.258 65.0729 271.842 61.5626 268.218 61.5626 253.46 33.5933 179.97 33.5933 169.816 60.5812 164.456 60.5812 161.739 63.8651ZM179.97 61.2607 188.727 43.8601 247.572 43.8601 256.857 61.2607 179.97 61.2607ZM183.14 79.7559C183.14 80.9637 182.612 82.1716 181.744 83.0397 180.876 83.9079 179.668 84.474 178.347 84.474 177.139 84.474 175.931 83.9079 175.063 83.0397 174.195 82.1716 173.628 80.9637 173.628 79.7559 173.628 78.4348 174.195 77.2269 175.063 76.3588 175.931 75.4906 177.139 74.9622 178.347 74.9622 179.668 74.9622 180.876 75.4906 181.744 76.3588 182.612 77.2269 183.14 78.4348 183.14 79.7559ZM263.085 80.2088C263.085 81.3789 262.67 82.5868 261.802 83.4927 260.896 84.3608 259.726 84.776 258.518 84.776 257.31 84.776 256.102 84.3608 255.234 83.4927 254.366 82.5868 253.913 81.3789 253.913 80.2088 253.913 79.001 254.366 77.7931 255.234 77.0382 256.102 76.1323 257.31 75.6039 258.518 75.6039 259.726 75.6039 260.896 76.1323 261.802 77.0382 262.67 77.7931 263.085 79.001 263.085 80.2088Z" fill="#FFFFFF" transform="matrix(1 0 0 1.0002 649.23 11)"/><path d="M358.165 78.2838 358.165 180.007 455.926 180.007 455.926 81.0392 486.198 81.0392 407.914 28.2335 392.4 39.5948 392.4 31.1776 376.736 31.1776 376.736 46.8042 326.988 78.2838 358.165 78.2838ZM368.961 164.154 368.961 75.0377 407.385 44.4262 445.206 77.4157 445.206 163.286 421.464 163.286 421.464 123.578 393.269 123.578 393.269 164.154 368.961 164.154Z" fill="#FFFFFF" transform="matrix(1 0 0 1.0002 649.23 11)"/><path d="M377.076 110.141 403.12 110.141 403.12 76.774 377.076 76.774 377.076 110.141Z" fill="#FFFFFF" transform="matrix(1 0 0 1.0002 649.23 11)"/><path d="M410.065 110.141 436.147 110.141 436.147 76.774 410.065 76.774 410.065 110.141Z" fill="#FFFFFF" transform="matrix(1 0 0 1.0002 649.23 11)"/><path d="M8.60593 286.147 448.716 8.56819 488.273 8.56819C490.576 8.98339 492.539 10.4177 493.86 12.3805 495.03 14.3432 495.483 16.6457 495.03 18.9482L495.03 49.7861 51.1072 327.327 18.9859 327.327C17.778 327.327 16.457 327.139 15.1359 326.686 13.928 326.12 12.6447 325.365 11.6633 324.27 10.6819 323.289 9.77604 322.081 9.36084 320.797 8.79466 319.476 8.60593 318.155 8.60593 316.947L8.60593 286.147Z" fill="#FF0000" transform="matrix(1 0 0 1.0002 649.23 11)"/><path d="M516.545 47.0684 527.189 298.075" stroke="#3465A4" stroke-width="1.06525" stroke-linejoin="round" fill="none" transform="matrix(1 0 0 1.0002 649.23 11)"/></g></svg>