<?xml version="1.0" encoding="UTF-8" standalone="no"?>
<svg
   id="Capa_1"
   data-name="Capa 1"
   viewBox="0 0 600.81885 900.5"
   version="1.1"
   sodipodi:docname="Spain_traffic_signal_s2c_2023.svg"
   width="600.81885"
   height="900.5"
   inkscape:version="1.2.2 (732a01da63, 2022-12-09)"
   xmlns:inkscape="http://www.inkscape.org/namespaces/inkscape"
   xmlns:sodipodi="http://sodipodi.sourceforge.net/DTD/sodipodi-0.dtd"
   xmlns="http://www.w3.org/2000/svg"
   xmlns:svg="http://www.w3.org/2000/svg">
  <defs
     id="defs201" />
  <sodipodi:namedview
     id="namedview199"
     pagecolor="#ffffff"
     bordercolor="#000000"
     borderopacity="0.25"
     inkscape:showpageshadow="2"
     inkscape:pageopacity="0.0"
     inkscape:pagecheckerboard="0"
     inkscape:deskcolor="#d1d1d1"
     showgrid="false"
     inkscape:zoom="0.59122394"
     inkscape:cx="85.416027"
     inkscape:cy="361.11528"
     inkscape:window-width="1920"
     inkscape:window-height="991"
     inkscape:window-x="-9"
     inkscape:window-y="-9"
     inkscape:window-maximized="1"
     inkscape:current-layer="Capa_1" />
  <path
     id="rect1081"
     style="opacity:1;fill:#000000;fill-rule:evenodd;stroke:none;stroke-width:0.5;stroke-linecap:round;stroke-dasharray:none;stroke-opacity:1;paint-order:stroke fill markers"
     d="m 23.11667,0.25 h 554.58548 c 12.6682,0 22.8667,10.198532 22.8667,22.866664 V 877.38334 c 0,12.66813 -10.1985,22.86666 -22.8667,22.86666 H 23.11667 C 10.44853,900.25 0.25,890.05147 0.25,877.38334 V 23.116664 C 0.25,10.448532 10.44853,0.25 23.11667,0.25 Z" />
  <path
     id="rect1309"
     style="opacity:1;fill:#ffffff;fill-rule:evenodd;stroke-width:9.15664;stroke-linecap:round;paint-order:stroke fill markers"
     d="m 28.32548,884.65179 h 544.36267 c 6.9105,0 12.4738,-5.56331 12.4738,-12.4738 V 28.323515 c 0,-6.910481 -5.5633,-12.473794 -12.4738,-12.473794 H 28.32548 c -6.91048,0 -12.47379,5.563313 -12.47379,12.473794 V 872.17799 c 0,6.91049 5.56331,12.4738 12.47379,12.4738 z" />
  <g
     id="g6884"
     transform="translate(453.5607,-125.94528)"
     style="fill:#000000">
    <path
       id="path5707"
       style="fill:#000000;stroke-width:1.95491"
       d="m -221.77281,399.76381 -21.11368,75.65468 c -17.00614,1.176 -34.01163,3.91079 -50.82687,7.82063 -16.80768,3.90984 -33.23462,9.18571 -49.26332,15.63837 h -48.87388 l -3.51941,8.01823 h 57.47912 c 16.80762,-6.65131 34.01164,-11.92902 51.60579,-15.83885 17.59416,-3.90973 35.57902,-6.05469 53.57025,-6.84126 l 19.73912,-84.4518 z m 31.08775,0 -3.32755,20.52663 h 8.99471 l 2.93238,-20.52663 z m 30.88158,0 -1.75542,80.54293 h 17.00721 l -1.75829,-80.54293 z m 35.97599,0 2.7348,20.52663 h 9.18658 l -3.32183,-20.52663 z m 30.89017,0 19.739135,84.4518 c 17.983626,0.78657 35.777526,2.9315 53.570239,6.84126 17.5941771,3.90983 34.791413,9.18754 51.408214,15.83885 h 57.66812 l -3.711293,-8.01823 H 36.866091 C 21.028275,492.4248 4.6098932,487.14896 -12.205357,483.23912 c -16.807699,-4.10074 -34.012588,-6.64463 -51.01875,-7.82063 l -21.116545,-75.65468 z m -105.37649,47.30744 -5.27483,33.23549 h 10.16308 l 4.69638,-33.23549 z m 80.93812,0 4.69067,33.23549 h 10.16309 l -5.27772,-33.23549 z m -37.14151,53.95972 c -10.95049,0 -22.0921,0.58704 -32.25612,1.7554 -10.3625,0.97745 -19.55108,2.74148 -27.37074,4.69639 -16.03633,4.10074 -24.83354,9.77658 -24.83354,15.64123 0,5.86475 8.79721,11.33146 24.83354,15.6384 7.81966,1.95491 17.00824,3.51177 27.37074,4.68778 10.16402,1.17593 21.30563,1.75829 32.25612,1.75829 11.14149,0 22.08264,-0.58236 32.44514,-1.75829 10.16402,-1.17601 19.55108,-2.73287 27.37074,-4.68778 15.837787,-4.30694 24.824959,-9.77365 24.824959,-15.6384 0,-5.86465 -8.987172,-11.54049 -24.824959,-15.64123 -7.81966,-1.95491 -17.20672,-3.71894 -27.37074,-4.69639 -10.3625,-1.16836 -21.30365,-1.7554 -32.44514,-1.7554 z m -252.97173,32.25612 -7.62018,16.61774 h 32.44514 c 3.13091,5.86475 7.43116,11.34005 12.517,15.83025 5.27675,4.69637 11.14245,8.21676 17.39667,10.56112 12.11889,4.88729 24.63505,8.98709 37.34194,12.70601 12.70691,3.71125 25.60484,6.6437 38.51034,9.18658 l -104.19954,374.36749 h 33.23262 l 92.08059,-391.18283 c -15.24981,-2.14581 -30.50077,-5.27675 -45.55204,-9.18659 -15.05128,-4.10072 -29.71232,-8.79812 -44.18321,-14.46426 -5.27675,-1.95493 -10.165,-5.27486 -14.07484,-9.58177 -4.10072,-4.2993 -6.84029,-9.3785 -8.59667,-14.85374 z m 469.569444,0 c -3.321834,11.14144 -11.730512,20.13621 -22.482505,24.43551 -14.463265,5.66614 -29.323808,10.36354 -44.3750734,14.46426 -15.0512796,3.90984 -30.2993506,7.04078 -45.5491676,9.18659 L 41.164425,972.55628 H 74.397054 L -29.212574,598.18879 c 12.905441,-2.54288 25.8033746,-5.47533 38.5103378,-9.18658 12.7069042,-3.71892 25.2221052,-7.81872 37.5395462,-12.70601 6.254199,-2.34436 12.120869,-5.86475 17.199077,-10.56112 5.284336,-4.4902 9.384168,-9.9655 12.706,-15.83025 h 32.256123 l -7.62017,-16.61774 z m -270.167944,52.3933 -8.79713,55.12806 h 13.29592 l 7.62015,-55.12806 z m 44.1832,0 -8.40767,386.87589 h 37.92329 l -8.00962,-386.87589 z m 53.56167,0 7.62875,55.12806 h 13.487791 l -8.797124,-55.12806 z m -112.9938,95.20195 -14.85375,93.24893 h 15.83025 l 13.10405,-93.24893 z m 126.289712,0 12.906453,93.24893 h 16.027834 L -82.97182,680.88234 Z m -149.551122,146.42115 -23.26142,145.25279 h 19.742 l 20.33476,-145.25279 z m 169.880164,0 20.334745,145.25279 h 19.550129 L -59.704685,827.30349 Z" />
    <path
       fill-rule="evenodd"
       fill="#010101"
       fill-opacity="1"
       d="m -336.72247,253.146 h 16.61679 v -47.30746 l 21.11462,28.93432 20.91609,-28.93432 V 253.146 h 16.42587 v -73.30937 h -18.96117 l -18.38079,25.61248 -18.57171,-25.61248 h -19.1597 V 253.146"
       id="path5775"
       style="stroke-width:1.95491;fill:#000000" />
    <path
       fill-rule="evenodd"
       fill="#010101"
       fill-opacity="1"
       d="m -240.14502,179.83663 v 44.18419 c 0,3.51272 0.588,7.42256 2.14584,11.3324 1.56544,3.90982 3.90982,7.43019 6.84219,10.56112 3.13093,2.93238 6.65131,5.27675 10.56113,6.8422 3.90984,1.56548 7.81968,2.14584 11.34005,2.14584 3.71129,0 7.62113,-0.58036 11.53095,-2.14584 3.7113,-1.56545 7.43021,-3.90982 10.36259,-6.8422 3.12328,-3.13093 5.47528,-6.6513 7.03312,-10.56112 1.37454,-3.90984 2.15347,-7.81968 2.15347,-11.3324 v -44.18419 h -17.20481 v 44.18419 c 0,3.51272 -1.56544,7.0331 -4.10075,9.57602 -2.54291,2.54291 -6.06328,4.10839 -9.77457,4.10839 -3.52037,0 -7.04075,-1.56548 -9.58368,-4.10839 -2.73382,-2.54292 -4.10075,-6.0633 -4.10075,-9.57602 v -44.18419 h -17.20478"
       id="path5777"
       style="stroke-width:1.95491;fill:#000000" />
    <path
       fill-rule="evenodd"
       fill="#010101"
       fill-opacity="1"
       d="m -156.87015,253.146 h 48.682 v -15.44077 h -32.25612 v -57.8686 h -16.42588 V 253.146"
       id="path5779"
       style="stroke-width:1.95491;fill:#000000" />
    <path
       fill-rule="evenodd"
       fill="#010101"
       fill-opacity="1"
       d="m -81.99531,253.146 h 17.204787 v -57.86858 h 21.702625 V 179.83663 H -103.4994 v 15.44079 h 21.50409 V 253.146"
       id="path5781"
       style="stroke-width:1.95491;fill:#000000" />
    <path
       fill-rule="evenodd"
       fill="#010101"
       fill-opacity="1"
       d="m -28.426024,253.146 h 16.807699 V 179.83663 H -28.426024 V 253.146"
       id="path5783"
       style="stroke-width:1.95491;fill:#000000" />
    <path
       fill-rule="evenodd"
       fill="#010101"
       fill-opacity="1"
       d="M 5.5864767,227.34263 V 212.09275 H 30.801852 v 15.24988 H 5.5864767"
       id="path5785"
       style="stroke-width:1.95491;fill:#000000" />
    <path
       fill-rule="evenodd"
       fill="#010101"
       fill-opacity="1"
       d="m -287.65102,308.08223 c -2.54291,-7.23932 -7.23166,-13.29498 -13.48588,-17.40335 -6.26182,-4.10074 -13.88295,-6.05565 -21.31316,-5.66622 -7.43021,0.38947 -14.66187,3.12329 -20.52662,8.01059 -5.66622,4.69638 -9.77459,11.34004 -11.7295,18.5717 -1.75638,7.43021 -1.75638,15.24988 0,22.87866 1.95491,7.23164 6.06328,13.68441 11.7295,18.57169 5.86475,4.68874 13.09641,7.62111 20.52662,8.01058 3.52038,0.19853 7.23166,-0.19081 10.75204,-1.16836 3.71892,-0.97747 7.23167,-2.54294 10.56112,-4.69639 3.1233,-2.14583 6.05568,-4.68875 8.40005,-7.62113 2.15345,-3.13092 3.90983,-6.2542 5.08583,-9.58367 l -16.02879,-6.2542 c -0.78654,3.71892 -2.74146,7.23166 -5.67384,9.77457 -2.93237,2.54293 -6.64366,3.90984 -10.5535,4.10838 -3.90982,0.191 -7.62112,-0.97745 -10.95057,-3.13092 -3.1233,-2.34437 -5.27675,-5.66621 -6.44513,-9.38512 -1.56546,-6.64366 -1.56546,-13.48588 0,-20.12952 1.16838,-3.90984 3.32183,-7.04077 6.44513,-9.38514 3.32945,-2.34436 7.04075,-3.32183 10.95057,-3.32183 3.7113,0.19081 7.43022,1.55783 10.5535,4.29928 3.13093,2.73383 4.8873,6.25421 5.67384,9.77458 l 16.02879,-6.25418"
       id="path5787"
       style="stroke-width:1.95491;fill:#000000" />
    <path
       fill-rule="evenodd"
       fill="#010101"
       fill-opacity="1"
       d="m -278.8539,359.68895 h 17.59425 l 3.90984,-11.7295 h 26.78082 l 4.10838,11.7295 h 17.59425 l -24.047,-73.30937 h -21.70261 l -24.23793,73.30937 m 26.58993,-27.56737 8.01057,-28.92665 8.79713,28.92665 h -16.8077"
       id="path5789"
       style="stroke-width:1.95491;fill:#000000" />
    <path
       fill-rule="evenodd"
       fill="#010101"
       fill-opacity="1"
       d="m -151.39486,329.97575 c 4.69637,-1.95492 8.79712,-5.67384 11.1415,-10.16402 2.54293,-4.6964 3.32946,-9.97315 2.352,-15.05898 -0.588,-2.34437 -1.37454,-4.68875 -2.74145,-7.03312 -1.16837,-2.15347 -2.93237,-4.29927 -5.07821,-6.0633 -1.95491,-1.75638 -4.30691,-2.93238 -6.84222,-3.90983 -2.352,-0.97746 -4.88728,-1.36692 -7.23928,-1.36692 h -35.1885 v 73.30937 h 16.42587 v -28.54482 h 9.18659 l 16.81532,28.54482 h 18.76263 l -17.59425,-29.7132 m -11.7295,-28.9343 c 1.95493,0 3.90984,0.77893 5.4753,2.15348 1.36691,1.55782 2.15345,3.51273 2.15345,5.46765 0,2.15346 -0.78654,4.10837 -2.15345,5.4753 -1.56546,1.36691 -3.52037,2.34437 -5.4753,2.34437 h -15.44079 v -15.4408 h 15.44079"
       id="path5791"
       style="stroke-width:1.95491;fill:#000000" />
    <path
       fill-rule="evenodd"
       fill="#010101"
       fill-opacity="1"
       d="m -73.389112,329.97575 c 4.688751,-1.95492 8.598589,-5.67384 11.141501,-10.16402 2.344375,-4.6964 3.123301,-9.97315 2.145838,-15.05898 -0.389463,-2.34437 -1.168375,-4.68875 -2.535287,-7.03312 -1.374551,-2.15347 -2.932375,-4.29927 -5.085838,-6.0633 -1.954912,-1.75638 -4.299287,-2.93238 -6.842213,-3.90983 -2.542912,-0.97746 -4.887287,-1.36692 -7.430199,-1.36692 h -34.98996 v 73.30937 h 16.41825 v -28.54482 h 9.186586 l 16.815323,28.54482 h 18.571713 l -17.395714,-29.7132 m -11.7295,-28.9343 c 1.954927,0 3.909839,0.77893 5.276751,2.15348 1.565463,1.55782 2.344375,3.51273 2.344375,5.46765 0,2.15346 -0.778912,4.10837 -2.344375,5.4753 -1.366912,1.36691 -3.321824,2.34437 -5.276751,2.34437 h -15.448408 v -15.4408 h 15.448408"
       id="path5793"
       style="stroke-width:1.95491;fill:#000000" />
    <path
       fill-rule="evenodd"
       fill="#010101"
       fill-opacity="1"
       d="m -37.811148,359.68895 h 16.807699 v -73.30937 h -16.807699 v 73.30937"
       id="path5795"
       style="stroke-width:1.95491;fill:#000000" />
    <path
       fill-rule="evenodd"
       fill="#010101"
       fill-opacity="1"
       d="M 1.478102,359.68895 H 50.160101 V 344.24818 H 17.903976 v -57.8686 H 1.478102 v 73.30937"
       id="path5797"
       style="stroke-width:1.95491;fill:#000000" />
  </g>
  <path
     id="rect1311"
     style="opacity:1;fill:#e02021;fill-opacity:1;fill-rule:evenodd;stroke-width:5.90141;stroke-linecap:round;paint-order:stroke fill markers"
     d="M 526.24825,15.850027 15.85175,798.67034 v 73.50782 c 0,6.91048 5.56413,12.4746 12.47461,12.4746 H 87.75409 L 585.16225,121.75628 V 28.322683 c 0,-6.910474 -5.5641,-12.472656 -12.4746,-12.472656 z" />
</svg>
