<?xml version="1.0" encoding="UTF-8" standalone="no"?>
<svg
   id="Capa_1"
   data-name="Capa 1"
   viewBox="0 0 600.81885 900.5"
   version="1.1"
   sodipodi:docname="Spain_traffic_signal_s2c_2023.svg"
   width="600.81885"
   height="900.5"
   inkscape:version="1.2.2 (732a01da63, 2022-12-09)"
   xmlns:inkscape="http://www.inkscape.org/namespaces/inkscape"
   xmlns:sodipodi="http://sodipodi.sourceforge.net/DTD/sodipodi-0.dtd"
   xmlns="http://www.w3.org/2000/svg"
   xmlns:svg="http://www.w3.org/2000/svg">
  <defs
     id="defs201" />
  <sodipodi:namedview
     id="namedview199"
     pagecolor="#ffffff"
     bordercolor="#000000"
     borderopacity="0.25"
     inkscape:showpageshadow="2"
     inkscape:pageopacity="0.0"
     inkscape:pagecheckerboard="0"
     inkscape:deskcolor="#d1d1d1"
     showgrid="false"
     inkscape:zoom="1.6722338"
     inkscape:cx="86.411361"
     inkscape:cy="200.03184"
     inkscape:window-width="1920"
     inkscape:window-height="991"
     inkscape:window-x="-9"
     inkscape:window-y="-9"
     inkscape:window-maximized="1"
     inkscape:current-layer="Capa_1" />
  <path
     id="rect1081"
     style="opacity:1;fill:#000000;fill-rule:evenodd;stroke:none;stroke-width:0.5;stroke-linecap:round;stroke-dasharray:none;stroke-opacity:1;paint-order:stroke fill markers"
     d="m 23.11667,0.25 h 554.58548 c 12.6682,0 22.8667,10.198532 22.8667,22.866664 V 877.38334 c 0,12.66813 -10.1985,22.86666 -22.8667,22.86666 H 23.11667 C 10.44853,900.25 0.25,890.05147 0.25,877.38334 V 23.116664 C 0.25,10.448532 10.44853,0.25 23.11667,0.25 Z" />
  <path
     id="rect1309"
     style="opacity:1;fill:#ffffff;fill-rule:evenodd;stroke-width:9.15664;stroke-linecap:round;paint-order:stroke fill markers"
     d="m 28.32548,884.65179 h 544.36267 c 6.9105,0 12.4738,-5.56331 12.4738,-12.4738 V 28.323515 c 0,-6.910481 -5.5633,-12.473794 -12.4738,-12.473794 H 28.32548 c -6.91048,0 -12.47379,5.563313 -12.47379,12.473794 V 872.17799 c 0,6.91049 5.56331,12.4738 12.47379,12.4738 z" />
  <g
     aria-label="CARRETERA"
     id="text1422"
     style="font-weight:bold;font-size:89.3037px;line-height:1.5;font-family:TrafficTypeW01-SpainD;-inkscape-font-specification:'TrafficTypeW01-SpainD Bold';opacity:1;fill-rule:evenodd;stroke-width:7.18895;stroke-linecap:round;paint-order:stroke fill markers"
     transform="translate(-887.67755,-31.112864)">
    <path
       d="m 978.81178,119.23153 q -3.66145,9.01968 -10.71644,13.93138 -7.05499,4.8224 -16.52119,4.8224 -6.51917,0 -11.87739,-2.23259 -5.35822,-2.3219 -9.28758,-6.42987 -3.84006,-4.10797 -5.98335,-9.82341 -2.14329,-5.71543 -2.14329,-12.68112 0,-6.69778 1.96468,-12.234609 1.96468,-5.626133 5.89405,-9.734104 4.01866,-4.286577 9.55549,-6.51917 5.53683,-2.321896 11.69879,-2.321896 9.6448,0 16.78909,4.911703 7.1443,4.911704 10.53784,13.842074 l -14.28859,5.090311 q -1.42886,-4.8224 -4.91171,-7.501511 -3.39354,-2.679111 -8.21594,-2.679111 -3.21493,0 -5.80474,1.250252 -2.5898,1.160948 -4.46518,3.482845 -1.87538,2.232592 -2.85772,5.447525 -0.98234,3.125631 -0.98234,7.054991 0,8.21594 3.84006,12.68113 1.87538,2.23259 4.64379,3.48284 2.85772,1.25025 5.89404,1.25025 4.8224,0 8.30525,-2.85771 3.57215,-2.94703 4.55449,-7.59082 z"
       id="path2481" />
    <path
       d="m 1011.4968,93.690674 -6.5191,20.807766 h 13.4848 z m 28.8451,42.776476 h -14.4672 l -3.0363,-9.19828 h -21.8794 l -2.76842,9.19828 H 984.0806 l 18.6645,-59.565572 h 17.2356 z"
       id="path2483" />
    <path
       d="m 1064.6326,101.6387 h 12.2346 q 2.4112,0 4.1973,-1.786071 1.786,-1.875377 1.786,-4.465185 0,-2.589807 -1.786,-4.375881 -1.7861,-1.875378 -4.1973,-1.875378 h -12.2346 z m 14.0207,-24.737122 q 8.3945,0 13.7527,5.80474 2.3219,2.589808 3.6615,5.983349 1.3395,3.304237 1.3395,6.697777 0,5.626136 -3.0363,10.091316 -3.0363,4.37588 -8.5732,6.96569 l 14.5566,24.0227 h -14.9138 l -13.842,-22.59384 h -6.9657 v 22.59384 H 1051.237 V 76.901578 Z"
       id="path2485" />
    <path
       d="m 1126.5201,101.6387 h 12.2346 q 2.4112,0 4.1973,-1.786071 1.7861,-1.875377 1.7861,-4.465185 0,-2.589807 -1.7861,-4.375881 -1.7861,-1.875378 -4.1973,-1.875378 h -12.2346 z m 14.0207,-24.737122 q 8.3945,0 13.7528,5.80474 2.3219,2.589808 3.6614,5.983349 1.3396,3.304237 1.3396,6.697777 0,5.626136 -3.0364,10.091316 -3.0363,4.37588 -8.5731,6.96569 l 14.5565,24.0227 h -14.9137 l -13.8421,-22.59384 h -6.9657 v 22.59384 h -13.3955 V 76.901578 Z"
       id="path2487" />
    <path
       d="m 1216.0918,88.77897 h -27.4162 v 10.805748 h 24.4692 v 12.502522 h -24.4692 v 11.25226 h 30.0953 v 13.12765 h -43.7588 V 76.901578 h 41.0797 z"
       id="path2489" />
    <path
       d="m 1274.1391,89.404096 h -17.3249 v 47.063054 h -13.6635 V 89.404096 h -17.2356 V 76.901578 h 48.224 z"
       id="path2491" />
    <path
       d="m 1325.6674,88.77897 h -27.4163 v 10.805748 h 24.4692 v 12.502522 h -24.4692 v 11.25226 h 30.0954 v 13.12765 h -43.7588 V 76.901578 h 41.0797 z"
       id="path2493" />
    <path
       d="m 1355.7627,101.6387 h 12.2346 q 2.4112,0 4.1972,-1.786071 1.7861,-1.875377 1.7861,-4.465185 0,-2.589807 -1.7861,-4.375881 -1.786,-1.875378 -4.1972,-1.875378 h -12.2346 z m 14.0206,-24.737122 q 8.3946,0 13.7528,5.80474 2.3219,2.589808 3.6615,5.983349 1.3395,3.304237 1.3395,6.697777 0,5.626136 -3.0363,10.091316 -3.0363,4.37588 -8.5732,6.96569 l 14.5565,24.0227 h -14.9137 l -13.842,-22.59384 h -6.9657 v 22.59384 h -13.3956 V 76.901578 Z"
       id="path2495" />
    <path
       d="m 1425.241,93.690674 -6.5191,20.807766 h 13.4848 z m 28.8451,42.776476 h -14.4672 l -3.0363,-9.19828 h -21.8794 l -2.7684,9.19828 h -14.11 l 18.6645,-59.565572 h 17.2356 z"
       id="path2497" />
  </g>
  <path
     id="path444"
     style="opacity:1;fill:#000000;stroke-width:1.95491"
     d="M 233.15675,229.05405 72.07365,821.5857 h 33.23262 L 240.78545,229.05405 Z m 42.2272,0 -2.9323,27.9492 h 6.6437 l 2.3538,-27.9492 z m 43.0092,0 1.9559,60.01632 -58.4499,66.65713 -24.046,224.42693 96.7683,128.63505 3.7113,112.79622 h 20.1372 l -6.6438,-112.79622 -99.7007,-128.63505 18.7626,-224.42693 56.1047,-66.65713 -3.5137,-60.01632 z m 8.7971,0 4.4989,62.74824 -55.5262,63.92521 -18.3732,219.73628 103.4121,133.3257 8.0182,112.79622 h 19.7477 l -10.5611,-112.79622 -106.3445,-133.3257 13.0984,-219.73628 53.9569,-63.92521 -5.8648,-62.74824 z m 37.9234,0 130.5881,592.53165 h 33.2353 L 372.74235,229.05405 Z m -95.0044,49.26334 -3.7199,34.60145 h 8.0182 l 2.9323,-34.60145 z m 63.5328,40.07673 2.3453,33.23264 h 8.7972 l -3.1299,-33.23264 z m 4.4989,63.14344 2.7347,40.07676 h 10.5526 l -3.7114,-40.07676 z m 5.4667,79.95304 3.9117,53.37266 h 12.706 l -5.0772,-53.37266 z m 7.2393,99.90121 5.2777,76.6312 h 15.6383 l -7.2306,-76.6312 z m -118.6696,70.76645 -7.2308,68.03169 h 17.0073 l 5.8648,-68.03169 z m -12.3079,115.33916 -8.0183,74.08828 h 19.9368 l 6.2542,-74.08828 z" />
  <path
     id="rect1311"
     style="opacity:1;fill:#e02021;fill-opacity:1;fill-rule:evenodd;stroke-width:5.90141;stroke-linecap:round;paint-order:stroke fill markers"
     d="M 526.24825,15.850027 15.85175,798.67034 v 73.50782 c 0,6.91048 5.56413,12.4746 12.47461,12.4746 H 87.75409 L 585.16225,121.75628 V 28.322683 c 0,-6.910474 -5.5641,-12.472656 -12.4746,-12.472656 z" />
  <g
     aria-label="2+1"
     id="text1476"
     style="font-weight:bold;font-size:45.6816px;line-height:1.5;font-family:TrafficTypeW01-SpainD;-inkscape-font-specification:'TrafficTypeW01-SpainD Bold';opacity:1;fill:#000000;fill-rule:evenodd;stroke-width:3.67737;stroke-linecap:round;paint-order:stroke fill markers"
     transform="matrix(1.9549168,0,0,1.9549168,-93.18202,-356.81676)">
    <path
       d="m 188.77577,273.41784 v 6.39542 h -21.79012 v -5.16202 q 0,-0.45681 0.13704,-0.7309 0.13705,-0.27409 0.5025,-0.54818 l 9.13632,-6.89792 q 2.55817,-1.91863 3.74589,-3.70021 1.23341,-1.82727 1.23341,-3.60885 0,-1.7359 -1.23341,-2.78658 -1.18772,-1.09636 -3.24339,-1.09636 -2.14704,0 -3.38044,1.27909 -1.18772,1.27908 -1.18772,3.56316 0,0.27409 0,0.5025 0,0.22841 0.0914,0.59386 h -7.17201 q -0.0457,-0.59386 -0.0914,-1.00499 0,-0.45682 0,-0.73091 0,-2.4668 0.82227,-4.4768 0.82227,-2.00999 2.32976,-3.42612 1.55317,-1.46181 3.70021,-2.23839 2.14703,-0.77659 4.79657,-0.77659 2.64953,0 4.79656,0.77659 2.19272,0.77658 3.7459,2.19271 1.55317,1.41613 2.37544,3.42612 0.82227,2.00999 0.82227,4.4768 0,2.9693 -1.18772,5.25338 -1.14204,2.28408 -3.79158,4.61385 l -4.7052,4.11134 z"
       id="path1562"
       style="fill:#000000" />
    <path
       d="m 211.29681,254.91679 v 7.72019 h 7.53747 v 7.40042 h -7.53747 v 7.76587 h -7.76587 v -7.76587 h -7.58314 v -7.40042 h 7.58314 v -7.72019 z"
       style="font-family:Stolzl;-inkscape-font-specification:'Stolzl Bold';fill:#000000"
       id="path1564" />
    <path
       d="m 237.244,279.81326 h -6.98929 V 259.8504 h -5.16202 v -6.07565 h 2.69522 q 1.41613,0 2.23839,-0.82227 0.82227,-0.82227 0.82227,-2.2384 v -1.37044 h 6.39543 z"
       id="path1566"
       style="fill:#000000" />
  </g>
</svg>
