<?xml version="1.0" encoding="UTF-8" standalone="no"?>
<svg
   viewBox="0 0 307.08 307.18"
   version="1.1"
   id="svg50"
   sodipodi:docname="Spain traffic signal s31a, 2023 set.svg"
   inkscape:version="1.1.2 (b8e25be833, 2022-02-05)"
   xmlns:inkscape="http://www.inkscape.org/namespaces/inkscape"
   xmlns:sodipodi="http://sodipodi.sourceforge.net/DTD/sodipodi-0.dtd"
   xmlns="http://www.w3.org/2000/svg"
   xmlns:svg="http://www.w3.org/2000/svg">
  <sodipodi:namedview
     id="namedview52"
     pagecolor="#ffffff"
     bordercolor="#666666"
     borderopacity="1.0"
     inkscape:pageshadow="2"
     inkscape:pageopacity="0.0"
     inkscape:pagecheckerboard="0"
     showgrid="false"
     inkscape:object-paths="false"
     inkscape:snap-intersection-paths="false"
     inkscape:snap-smooth-nodes="false"
     inkscape:snap-bbox="false"
     inkscape:snap-bbox-edge-midpoints="false"
     inkscape:bbox-nodes="false"
     showguides="true"
     inkscape:guide-bbox="true"
     inkscape:zoom="2.0000001"
     inkscape:cx="188.75"
     inkscape:cy="174.75"
     inkscape:window-width="1920"
     inkscape:window-height="1001"
     inkscape:window-x="-9"
     inkscape:window-y="-9"
     inkscape:window-maximized="1"
     inkscape:current-layer="Capa_1-2" />
  <defs
     id="defs4">
    <style
       id="style2">.cls-1{fill:#fff;}.cls-1,.cls-3,.cls-4{fill-rule:evenodd;}.cls-2{fill:none;stroke:#343434;stroke-linejoin:round;stroke-width:0.48px;}.cls-3{fill:#05f;}.cls-4{fill:#010101;}</style>
  </defs>
  <g
     id="Capa_2"
     data-name="Capa 2">
    <g
       id="Capa_1-2"
       data-name="Capa 1">
      <path
         class="cls-1"
         d="m 0.24,289.84 a 17.44,17.44 0 0 0 1.1,6.3 20.07,20.07 0 0 0 3.8,5.8 18.2,18.2 0 0 0 5.8,3.8 18,18 0 0 0 6.3,1.2 h 272.6 a 17.47,17.47 0 0 0 6.2,-1.2 18.2,18.2 0 0 0 5.8,-3.8 16.67,16.67 0 0 0 3.8,-5.8 17.59,17.59 0 0 0 1.2,-6.3 V 17.34 a 18,18 0 0 0 -1.2,-6.3 16.67,16.67 0 0 0 -3.8,-5.8 18.2,18.2 0 0 0 -5.8,-3.8 17.47,17.47 0 0 0 -6.2,-1.2 H 17.24 a 18,18 0 0 0 -6.3,1.2 18.2,18.2 0 0 0 -5.8,3.8 20.07,20.07 0 0 0 -3.8,5.76 17.82,17.82 0 0 0 -1.1,6.3 v 272.5"
         id="path6" />
      <path
         class="cls-2"
         d="m 0.24,289.84 a 16.92,16.92 0 0 0 4.9,12.1 17.19,17.19 0 0 0 12.1,5"
         id="path8" />
      <line
         class="cls-2"
         x1="17.24"
         y1="306.94"
         x2="289.84"
         y2="306.94"
         id="line10" />
      <path
         class="cls-2"
         d="m 289.84,306.94 a 17.07,17.07 0 0 0 17,-17.1"
         id="path12" />
      <line
         class="cls-2"
         x1="306.84"
         y1="289.84"
         x2="306.84"
         y2="17.34"
         id="line14" />
      <path
         class="cls-2"
         d="m 306.84,17.34 a 17.19,17.19 0 0 0 -5,-12.1 17,17 0 0 0 -12,-5"
         id="path16" />
      <line
         class="cls-2"
         x1="289.84"
         y1="0.23999999"
         x2="17.24"
         y2="0.23999999"
         id="line18" />
      <path
         class="cls-2"
         d="m 17.24,0.24 a 17.19,17.19 0 0 0 -12.1,5 17.09,17.09 0 0 0 -4.9,12.1"
         id="path20" />
      <line
         class="cls-2"
         x1="0.23999999"
         y1="17.34"
         x2="0.23999999"
         y2="289.84"
         id="line22" />
      <path
         class="cls-3"
         d="m 7.64,289.84 a 11.49,11.49 0 0 0 0.7,3.6 11.08,11.08 0 0 0 2.1,3.2 11.55,11.55 0 0 0 3.3,2.1 9.1,9.1 0 0 0 3.5,0.7 h 272.6 a 9.1,9.1 0 0 0 3.5,-0.7 9.88,9.88 0 0 0 3.2,-2.1 9.35,9.35 0 0 0 2.1,-3.2 9.22,9.22 0 0 0 0.7,-3.6 V 17.34 a 8.42,8.42 0 0 0 -0.7,-3.5 9.73,9.73 0 0 0 -2.1,-3.3 9.88,9.88 0 0 0 -3.2,-2.1 9.1,9.1 0 0 0 -3.5,-0.7 H 17.24 a 9.1,9.1 0 0 0 -3.5,0.7 11.55,11.55 0 0 0 -3.3,2.1 11.55,11.55 0 0 0 -2.1,3.3 10.39,10.39 0 0 0 -0.7,3.5 v 272.5"
         id="path24"
         style="display:inline" />
      <path
         d="m 284.53493,153.28989 c 1.90066,1.10039 2.70092,3.50121 1.90066,5.60193 -0.80029,2.10072 -3.00104,3.30113 -5.20179,2.90099 l -18.90648,-8.50292 7.10242,33.91163 h -5.80198 l 5.20178,57.51971 c 0.10008,1.90067 -0.60021,3.80131 -1.90065,5.2018 -1.30045,1.40047 -3.10106,2.20075 -5.00172,2.30077 -1.90065,0.10008 -3.70127,-0.6002 -5.10174,-1.90064 -1.50052,-1.20042 -2.30079,-3.00103 -2.40082,-4.90168 l -5.20179,-57.51972 -11.80405,0.70023 -26.70915,55.51904 c -0.90031,1.60055 -2.40082,2.80096 -4.20144,3.40118 -1.70059,0.50016 -3.70128,0.40012 -5.30182,-0.50018 -1.60055,-0.90031 -2.90099,-2.40082 -3.40116,-4.10142 -0.60021,-1.80061 -0.40014,-3.70126 0.50017,-5.40184 l 22.80782,-48.31657 -4.60159,0.70024 6.60226,-45.11546 -2.60088,-32.01097 c 4.30148,-2.70093 9.20315,-4.40152 14.20487,-5.20178 5.00172,-0.80029 10.2035,-0.60021 15.10517,0.6002 1.90066,0 3.70128,0.70024 5.20179,1.90065 1.40048,1.20041 2.40083,2.80096 2.70093,4.70161 l 1.90065,24.80851 24.90854,13.70469"
         style="fill:#fefefe;fill-opacity:1;fill-rule:evenodd;stroke:none;stroke-width:1.00034"
         id="path176"
         inkscape:label="path26" />
      <path
         d="m 184.90078,141.48585 c 0.70023,1.20041 0.80027,2.70093 0.40012,4.10141 -0.40012,1.40048 -1.40047,2.50085 -2.60088,3.20109 -1.20042,0.60021 -2.70093,0.90031 -4.10141,0.40014 -1.50052,-0.40014 -2.6009,-1.50051 -3.30114,-2.6009 l -13.30455,-30.01027 c -0.20007,-0.70024 -0.90031,-1.10039 -1.60055,-1.00035 -0.70024,0.1 -1.30044,0.70024 -1.30044,1.40047 l -2.70094,36.91267 24.10827,47.61632 c 0.80027,1.60055 1.00034,3.60123 0.40014,5.40186 -0.50017,1.80061 -1.80062,3.20108 -3.5012,4.10139 -0.70024,0.40015 -1.60056,0.70025 -2.50086,0.80028 -0.90031,0.1 -1.90065,0 -2.80096,-0.30011 -1.00034,-0.3001 -1.80062,-0.80027 -2.50086,-1.40048 -0.70023,-0.70024 -1.30044,-1.40047 -1.70059,-2.10072 L 142.9864,155.39061 c -0.6002,-1.40047 -1.90065,-2.40082 -3.40117,-2.60089 -0.60021,0 -1.2004,0.20007 -1.70057,0.70025 -0.50018,0.50017 -0.80028,1.10038 -0.80028,1.70058 l -2.80096,54.61872 c 0,0.90031 -0.20007,1.70058 -0.50017,2.60089 -0.40014,0.80028 -0.90031,1.60055 -1.60054,2.30079 -0.70025,0.60022 -1.60056,1.10038 -2.40083,1.40048 -0.90031,0.3001 -1.80062,0.40014 -2.6009,0.40014 -0.80027,0 -1.70058,-0.20007 -2.50085,-0.50017 -0.9003,-0.40014 -1.60055,-1.00034 -2.30079,-1.70058 -0.70024,-0.70024 -1.10038,-1.50053 -1.50051,-2.30079 -0.30012,-0.90031 -0.40014,-1.80062 -0.40014,-2.6009 l 3.60123,-78.32685 -15.10518,8.40288 c -1.30045,0.50017 -2.60089,0.40014 -3.90134,-0.10007 -1.20041,-0.60021 -2.20075,-1.60056 -2.70093,-2.80096 -0.40014,-1.20041 -0.40014,-2.60089 0.10008,-3.90134 0.6002,-1.40048 1.70057,-2.30079 2.90099,-2.70093 l 20.60707,-11.70401 1.70057,-22.607758 c 0.10008,-1.90065 0.90032,-3.801299 2.3008,-5.101743 1.50051,-1.400479 3.40116,-2.100729 5.30182,-2.000684 5.50188,-0.70025 11.00376,-0.200068 16.20555,1.500513 2.80096,0.700239 5.40186,2.000683 7.80268,3.801298 2.40082,1.800616 4.30147,4.001378 5.70195,6.502234 l 19.90683,41.11409"
         style="fill:#fefefe;fill-opacity:1;fill-rule:evenodd;stroke:none;stroke-width:1.00034"
         id="path180"
         inkscape:label="path28" />
      <path
         d="m 253.8244,87.267263 c 0,1.90065 -0.40015,3.901333 -1.20042,5.902027 -0.70024,2.000684 -1.90065,3.901334 -3.50121,5.401846 -1.60053,1.600554 -3.50119,2.800964 -5.40184,3.601244 -2.00069,0.80027 -4.00137,1.10037 -5.90203,1.10037 -4.30147,0 -8.30284,-1.70057 -11.30387,-4.701614 -3.00103,-3.001025 -4.70161,-7.002403 -4.70161,-11.303873 0,-1.900649 0.3001,-3.901338 1.10038,-5.902027 0.80028,-1.900649 2.00068,-3.801298 3.60123,-5.401851 1.50052,-1.600547 3.40117,-2.800958 5.40185,-3.501196 2.00069,-0.800277 4.00137,-1.200411 5.90202,-1.200411 4.20144,0 8.30285,1.700577 11.30387,4.701607 3.00104,3.001028 4.70163,7.102437 4.70163,11.303878"
         style="fill:#fefefe;fill-opacity:1;fill-rule:evenodd;stroke:none;stroke-width:1.00034"
         id="path184"
         inkscape:label="path30" />
      <path
         d="m 157.49138,72.962355 c 0,1.600547 -0.40014,3.2011 -1.10039,4.801647 -0.6002,1.600546 -1.70057,3.10106 -3.00102,4.301472 -1.30044,1.300451 -2.901,2.200759 -4.50155,2.800966 -1.70057,0.600205 -3.30113,0.800269 -4.90168,0.800269 -3.40115,-0.200064 -6.70229,-1.600547 -9.10311,-4.201441 -2.30079,-2.500855 -3.60124,-5.902018 -3.5012,-9.303189 0.10007,-1.600546 0.40013,-3.201093 1.10037,-4.801647 0.70024,-1.600545 1.70058,-3.10106 3.00104,-4.301471 1.40047,-1.300444 2.90099,-2.200752 4.60157,-2.800959 1.60055,-0.600205 3.2011,-0.800276 4.80164,-0.800276 3.50121,0.200071 6.7023,1.600546 9.10312,4.201441 2.40082,2.500854 3.60123,5.902025 3.50121,9.303188"
         style="fill:#fefefe;fill-opacity:1;fill-rule:evenodd;stroke:none;stroke-width:1.00034"
         id="path188"
         inkscape:label="path32" />
      <path
         d="m 20.54441,206.30807 v -1.10037 c 0.10008,1.40047 0.30012,2.80096 0.90031,4.20143 0.50018,1.40049 1.40049,2.70093 2.50087,3.80131 1.10037,1.10038 2.40082,2.00068 3.80131,2.50085 1.40048,0.60021 2.80094,0.80028 4.20143,0.80028 1.30045,0 2.70093,-0.20007 4.1014,-0.80028 1.50053,-0.6002 2.80097,-1.40047 3.90135,-2.50085 1.10037,-1.10038 2.00068,-2.40082 2.50085,-3.90134 0.60021,-1.40048 0.80029,-2.80095 0.80029,-4.1014 -0.10008,-1.30045 -0.30012,-2.50086 -0.80029,-3.70127 -0.50017,-1.20041 -1.20041,-2.20076 -2.00069,-3.10107 l 26.00892,-1.2004 c -1.40048,2.00067 -2.20076,4.4015 -2.20076,6.80232 0,1.40048 0.20007,2.80096 0.80028,4.20145 0.50017,1.40048 1.40048,2.70092 2.50086,3.8013 1.10037,1.20041 2.40082,2.00069 3.8013,2.60089 1.40048,0.50017 2.901,0.80027 4.20145,0.80027 1.30043,0 2.80094,-0.3001 4.20142,-0.80027 1.40049,-0.6002 2.70094,-1.40048 3.80132,-2.60089 1.10037,-1.10038 2.00068,-2.40082 2.50085,-3.8013 0.60021,-1.40049 0.80027,-2.80097 0.80027,-4.20145 0.10008,-1.40047 -0.10008,-3.00103 -0.80027,-4.60157 -0.60021,-1.60054 -1.70058,-3.10106 -3.20111,-4.30148 -1.40047,-1.10037 -3.10106,-1.90065 -4.90167,-2.10072 -1.70058,-0.3001 -3.30113,-0.10007 -4.70161,0.30011 l 14.20488,-41.41421 c 0.10007,-1.30044 0.50017,-2.60089 1.20041,-3.8013 0.70024,-1.20041 1.70057,-2.20075 2.800947,-3.00102 l 6.20213,-4.50154 c 0.50017,-0.20008 1.10037,-0.60022 1.30045,-1.30045 0.30009,-0.60021 0.30009,-1.30045 0.10007,-1.80062 -0.20006,-0.6002 -0.6002,-1.10038 -1.30044,-1.40048 -0.30011,-0.10008 -0.6002,-0.20007 -0.90031,-0.20007 -0.30011,0 -0.6002,0.10008 -0.9003,0.20007 l -8.502917,5.10174 c -2.80097,2.50087 -4.60159,5.90203 -5.10175,9.60331 l -6.80233,15.80541 h -2.80097 c 0.90031,-2.80097 0.70024,-5.90203 -0.6002,-8.60295 -1.30046,-2.70092 -3.70127,-4.80165 -6.50223,-5.80198 -1.30045,-0.40015 -2.70093,-0.70025 -4.20144,-0.60021 -1.60055,0.10008 -3.10106,0.50016 -4.50154,1.2004 -1.40049,0.70025 -2.70093,1.60056 -3.70127,2.80097 -0.90031,1.10037 -1.60054,2.40082 -2.10072,3.70126 -1.00034,2.50087 -1.60055,5.20179 -1.70058,7.90271 l -20.40701,0.60021 1.70058,26.00892 c -1.30044,0.20007 -2.70092,0.70025 -4.00136,1.40048 -1.30046,0.70024 -2.50086,1.70058 -3.50121,2.901 -1.00033,1.2004 -1.70057,2.60089 -2.10071,4.00137 -0.3001,0.70022 -0.40013,1.40047 -0.50017,2.10071 0,0.40014 -0.10008,0.70024 -0.10008,1.10038 0,0.20007 0,0.30011 0,0.50017 0,0.20008 0,0.3001 0,0.50017 v 0 m 42.01441,-14.20486 -26.70915,1.20041 -1.10038,-19.90683 39.71361,-1.10038 -4.60157,14.70505 c -0.90031,1.2004 -2.00068,2.30078 -3.30114,3.20109 -0.6002,0.40014 -1.20041,0.80028 -1.90065,1.10037 -0.70024,0.30012 -1.40048,0.60022 -2.10072,0.80029 M 24.54579,205.2077 c 0,-0.90031 0.20008,-1.80062 0.50018,-2.70093 0.40013,-1.00034 0.90031,-1.80061 1.70058,-2.50086 0.70024,-0.80028 1.50053,-1.30044 2.50087,-1.70058 0.90031,-0.3001 1.80062,-0.50016 2.70092,-0.50016 0.80028,0 1.80062,0.20006 2.70093,0.50016 0.9003,0.40014 1.80061,0.9003 2.50085,1.70058 0.70024,0.70025 1.30046,1.50052 1.60055,2.50086 0.40013,0.90031 0.50018,1.80062 0.50018,2.70093 0,1.90064 -0.70024,3.80129 -2.10073,5.20178 -1.40047,1.40048 -3.30114,2.10072 -5.20178,2.10072 -2.00068,0 -3.90134,-0.70024 -5.20179,-2.10072 -1.40047,-1.40049 -2.20076,-3.30114 -2.20076,-5.20178 m 43.61497,-1.20042 c 0,-1.90064 0.80027,-3.80129 2.20075,-5.20178 1.40047,-1.40048 3.20109,-2.10071 5.20179,-2.10071 1.90064,0 3.8013,0.70023 5.20178,2.10071 1.40047,1.40049 2.20075,3.30114 2.20075,5.20178 0,2.0007 -0.80028,3.90134 -2.20075,5.20179 -1.40048,1.40047 -3.30114,2.20076 -5.20178,2.20076 -2.0007,0 -3.80132,-0.80029 -5.20179,-2.20076 -1.40048,-1.30045 -2.20075,-3.20109 -2.20075,-5.20179"
         style="fill:#fefefe;fill-opacity:1;fill-rule:evenodd;stroke:none;stroke-width:1.00034"
         id="path192"
         inkscape:label="path34" />
      <path
         d="m 57.95724,139.48516 c 0,2.70094 1.10038,5.30183 3.00104,7.20248 1.90064,1.90066 4.50153,3.00102 7.20246,3.00102 2.70092,0 5.30182,-1.10036 7.20247,-3.00102 2.00069,-1.90065 3.00102,-4.50154 3.00102,-7.20248 0,-2.70092 -1.00033,-5.30181 -3.00102,-7.30249 -1.90065,-1.90066 -4.50155,-2.901 -7.20247,-2.901 -2.70093,0 -5.30182,1.00034 -7.20246,2.901 -1.90066,2.00068 -3.00104,4.60157 -3.00104,7.30249"
         style="fill:#fefefe;fill-opacity:1;fill-rule:evenodd;stroke:none;stroke-width:1.00034"
         id="path196"
         inkscape:label="path36" />
      <path
         id="path2817"
         style="display:inline;fill:#ff0000;fill-opacity:1"
         class="cls-3"
         d="M 270.42969,7.7402344 7.640625,270.5293 v 19.31054 a 11.49,11.49 0 0 0 0.6992188,3.59961 11.08,11.08 0 0 0 2.0996092,3.20117 11.55,11.55 0 0 0 3.300781,2.09961 9.1,9.1 0 0 0 3.5,0.69922 H 36.550781 L 299.33984,36.650391 V 17.339844 a 8.42,8.42 0 0 0 -0.69922,-3.5 9.73,9.73 0 0 0 -2.10156,-3.300782 9.88,9.88 0 0 0 -3.19922,-2.0996089 9.1,9.1 0 0 0 -3.5,-0.6992187 z"
         inkscape:label="path38" />
    </g>
  </g>
</svg>
