<svg width="1155" height="1155" xmlns="http://www.w3.org/2000/svg" xmlns:xlink="http://www.w3.org/1999/xlink" xml:space="preserve" overflow="hidden"><defs><clipPath id="clip0"><rect x="1623" y="660" width="1155" height="1155"/></clipPath></defs><g clip-path="url(#clip0)" transform="translate(-1623 -660)"><path d="M1623 1748.56C1623 1755.95 1624.56 1764.26 1627.54 1772.17 1630.92 1780.09 1635.85 1787.62 1641.82 1793.59 1648.18 1799.95 1655.7 1804.88 1663.62 1807.86 1671.54 1811.24 1679.84 1812.4 1687.37 1812.4L2711.55 1812.4C2719.47 1812.4 2727.39 1811.24 2735.17 1807.86 2743.09 1804.88 2750.62 1799.95 2756.98 1793.59 2763.47 1787.62 2767.88 1780.09 2771.25 1772.17 2774.37 1764.26 2775.79 1755.95 2775.79 1748.56L2775.79 723.849C2775.79 716.322 2774.37 708.536 2771.25 700.62 2767.88 692.314 2763.47 685.176 2756.98 678.817 2750.62 672.458 2743.09 667.527 2735.17 664.542 2727.39 661.557 2719.47 660 2711.55 660L1687.37 660C1679.84 660 1671.54 661.557 1663.62 664.542 1655.7 667.527 1648.18 672.458 1641.82 678.817 1635.85 685.176 1630.92 692.314 1627.54 700.62 1624.56 708.536 1623 716.322 1623 723.849L1623 1748.56Z" fill="#FFFFFF"/><path d="M1652.46 1749.72C1652.46 1753.88 1653.24 1758.42 1655.18 1762.96 1657 1767.37 1659.6 1771.53 1662.97 1774.9 1666.73 1778.66 1670.89 1781.26 1675.43 1783.21 1679.58 1784.76 1683.99 1785.41 1688.54 1785.41L2712.85 1785.41C2717.27 1785.41 2721.81 1784.76 2726.35 1783.21 2730.5 1781.26 2734.66 1778.66 2738.42 1774.9 2741.79 1771.53 2744.39 1767.37 2746.21 1762.96 2748.15 1758.42 2748.93 1753.88 2748.93 1749.72L2748.93 725.147C2748.93 720.994 2748.15 716.452 2746.21 712.04 2744.39 707.498 2741.79 703.345 2738.42 699.971 2734.66 696.207 2730.5 693.612 2726.35 691.665 2721.81 690.238 2717.27 689.459 2712.85 689.459L1688.54 689.459C1683.99 689.459 1679.58 690.238 1675.43 691.665 1670.89 693.612 1666.73 696.207 1662.97 699.971 1659.6 703.345 1657 707.498 1655.18 712.04 1653.24 716.452 1652.46 720.994 1652.46 725.147L1652.46 1749.72Z" fill="#0055FF"/><path d="M1853.61 955.498 2021.28 955.498 2021.28 1673.03 2123.93 1673.03 2123.93 840.128C2123.54 830.006 2119.39 820.272 2112.25 813.135 2105.11 805.997 2095.38 801.844 2085.13 801.844L1853.61 801.844 1853.61 955.498Z" fill="#FFFFFF"/><path d="M2149.37 1673.03 2251.63 1673.03 2251.63 801.844 2149.37 801.844 2149.37 1673.03Z" fill="#FFFFFF"/><path d="M2277.46 1673.03 2380.24 1673.03 2380.24 955.498 2547.78 955.498 2547.78 801.844 2316.26 801.844C2311.85 801.844 2306.92 802.493 2301.98 804.44 2297.18 806.257 2292.64 809.371 2288.88 813.135 2285.11 816.898 2282.52 821.311 2280.57 825.853 2278.75 830.784 2277.46 835.586 2277.46 840.128L2277.46 1673.03Z" fill="#FFFFFF"/><path d="M1624.3 1749.59C1624.3 1766.59 1631.05 1782.82 1643.11 1794.88 1655.18 1806.82 1671.41 1813.7 1688.67 1813.7" stroke="#343434" stroke-width="2.59551" stroke-linejoin="round" fill="none"/><path d="M1688.54 1813.57 2712.72 1813.57" stroke="#343434" stroke-width="2.59551" stroke-linejoin="round" fill="none"/><path d="M2712.72 1813.7C2729.98 1813.7 2746.08 1806.82 2758.27 1794.88 2770.34 1782.82 2777.09 1766.59 2777.09 1749.59" stroke="#343434" stroke-width="2.59551" stroke-linejoin="round" fill="none"/><path d="M2776.96 1749.59 2776.96 725.147" stroke="#343434" stroke-width="2.59551" stroke-linejoin="round" fill="none"/><path d="M2777.09 725.277C2777.09 708.406 2770.34 692.055 2758.27 679.985 2746.08 668.046 2729.98 661.298 2712.72 661.298" stroke="#343434" stroke-width="2.59551" stroke-linejoin="round" fill="none"/><path d="M2712.72 661.298 1688.54 661.298" stroke="#343434" stroke-width="2.59551" stroke-linejoin="round" fill="none"/><path d="M1688.67 661.298C1671.41 661.298 1655.18 668.046 1643.11 679.985 1631.05 692.055 1624.3 708.406 1624.3 725.277" stroke="#343434" stroke-width="2.59551" stroke-linejoin="round" fill="none"/><path d="M1624.3 725.147 1624.3 1749.59" stroke="#343434" stroke-width="2.59551" stroke-linejoin="round" fill="none"/></g></svg>