<?xml version="1.0" encoding="UTF-8" standalone="no"?>
<svg
   viewBox="0 0 307.08 307.18"
   version="1.1"
   id="svg50"
   sodipodi:docname="Spain traffic signal s33, 2023 set.svg"
   inkscape:version="1.1.2 (b8e25be833, 2022-02-05)"
   xmlns:inkscape="http://www.inkscape.org/namespaces/inkscape"
   xmlns:sodipodi="http://sodipodi.sourceforge.net/DTD/sodipodi-0.dtd"
   xmlns="http://www.w3.org/2000/svg"
   xmlns:svg="http://www.w3.org/2000/svg">
  <sodipodi:namedview
     id="namedview52"
     pagecolor="#ffffff"
     bordercolor="#666666"
     borderopacity="1.0"
     inkscape:pageshadow="2"
     inkscape:pageopacity="0.0"
     inkscape:pagecheckerboard="0"
     showgrid="false"
     inkscape:object-paths="false"
     inkscape:snap-intersection-paths="false"
     inkscape:snap-smooth-nodes="false"
     inkscape:snap-bbox="false"
     inkscape:snap-bbox-edge-midpoints="false"
     inkscape:bbox-nodes="false"
     showguides="true"
     inkscape:guide-bbox="true"
     inkscape:zoom="2.0000001"
     inkscape:cx="164.75"
     inkscape:cy="163.25"
     inkscape:window-width="1920"
     inkscape:window-height="1001"
     inkscape:window-x="-9"
     inkscape:window-y="-9"
     inkscape:window-maximized="1"
     inkscape:current-layer="Capa_1-2" />
  <defs
     id="defs4">
    <style
       id="style2">.cls-1{fill:#fff;}.cls-1,.cls-3,.cls-4{fill-rule:evenodd;}.cls-2{fill:none;stroke:#343434;stroke-linejoin:round;stroke-width:0.48px;}.cls-3{fill:#05f;}.cls-4{fill:#010101;}</style>
  </defs>
  <g
     id="Capa_2"
     data-name="Capa 2">
    <g
       id="Capa_1-2"
       data-name="Capa 1">
      <path
         class="cls-1"
         d="m 0.24,289.84 a 17.44,17.44 0 0 0 1.1,6.3 20.07,20.07 0 0 0 3.8,5.8 18.2,18.2 0 0 0 5.8,3.8 18,18 0 0 0 6.3,1.2 h 272.6 a 17.47,17.47 0 0 0 6.2,-1.2 18.2,18.2 0 0 0 5.8,-3.8 16.67,16.67 0 0 0 3.8,-5.8 17.59,17.59 0 0 0 1.2,-6.3 V 17.34 a 18,18 0 0 0 -1.2,-6.3 16.67,16.67 0 0 0 -3.8,-5.8 18.2,18.2 0 0 0 -5.8,-3.8 17.47,17.47 0 0 0 -6.2,-1.2 H 17.24 a 18,18 0 0 0 -6.3,1.2 18.2,18.2 0 0 0 -5.8,3.8 20.07,20.07 0 0 0 -3.8,5.76 17.82,17.82 0 0 0 -1.1,6.3 v 272.5"
         id="path6" />
      <path
         class="cls-2"
         d="m 0.24,289.84 a 16.92,16.92 0 0 0 4.9,12.1 17.19,17.19 0 0 0 12.1,5"
         id="path8" />
      <line
         class="cls-2"
         x1="17.24"
         y1="306.94"
         x2="289.84"
         y2="306.94"
         id="line10" />
      <path
         class="cls-2"
         d="m 289.84,306.94 a 17.07,17.07 0 0 0 17,-17.1"
         id="path12" />
      <line
         class="cls-2"
         x1="306.84"
         y1="289.84"
         x2="306.84"
         y2="17.34"
         id="line14" />
      <path
         class="cls-2"
         d="m 306.84,17.34 a 17.19,17.19 0 0 0 -5,-12.1 17,17 0 0 0 -12,-5"
         id="path16" />
      <line
         class="cls-2"
         x1="289.84"
         y1="0.23999999"
         x2="17.24"
         y2="0.23999999"
         id="line18" />
      <path
         class="cls-2"
         d="m 17.24,0.24 a 17.19,17.19 0 0 0 -12.1,5 17.09,17.09 0 0 0 -4.9,12.1"
         id="path20" />
      <line
         class="cls-2"
         x1="0.23999999"
         y1="17.34"
         x2="0.23999999"
         y2="289.84"
         id="line22" />
      <path
         class="cls-3"
         d="m 7.64,289.84 a 11.49,11.49 0 0 0 0.7,3.6 11.08,11.08 0 0 0 2.1,3.2 11.55,11.55 0 0 0 3.3,2.1 9.1,9.1 0 0 0 3.5,0.7 h 272.6 a 9.1,9.1 0 0 0 3.5,-0.7 9.88,9.88 0 0 0 3.2,-2.1 9.35,9.35 0 0 0 2.1,-3.2 9.22,9.22 0 0 0 0.7,-3.6 V 17.34 a 8.42,8.42 0 0 0 -0.7,-3.5 9.73,9.73 0 0 0 -2.1,-3.3 9.88,9.88 0 0 0 -3.2,-2.1 9.1,9.1 0 0 0 -3.5,-0.7 H 17.24 a 9.1,9.1 0 0 0 -3.5,0.7 11.55,11.55 0 0 0 -3.3,2.1 11.55,11.55 0 0 0 -2.1,3.3 10.39,10.39 0 0 0 -0.7,3.5 v 272.5"
         id="path24"
         style="display:inline;fill:#009600;fill-opacity:1" />
      <path
         d="m 192.50338,95.97026 c 0,-1.900652 -0.80028,-3.801304 -2.20075,-5.201783 -1.30045,-1.300446 -3.2011,-2.100721 -5.10175,-2.100721 -2.00069,0 -3.80131,0.800275 -5.20179,2.100721 -1.40047,1.400479 -2.10072,3.301131 -2.10072,5.201783 0,1.900651 0.70025,3.801303 2.10072,5.20178 1.40048,1.40048 3.2011,2.10072 5.20179,2.10072 1.90065,0 3.8013,-0.70024 5.10175,-2.10072 1.40047,-1.400477 2.20075,-3.301129 2.20075,-5.20178"
         style="fill:#fefefe;fill-opacity:1;fill-rule:evenodd;stroke:none;stroke-width:1.00034"
         id="path132"
         inkscape:label="path26" />
      <path
         d="m 189.80246,149.4886 v 0 c 0.3001,1.50052 1.70058,2.50086 3.30113,2.40083 1.70058,-0.10004 2.90099,-1.60056 2.80095,-3.30114 l -1.30044,-15.10518 h 3.8013 l -3.30113,-15.60535 -0.50017,-0.50017 0.40014,0.20007 0.10003,0.3001 8.00274,8.80302 c 0.40014,0.40014 1.00034,0.70024 1.70059,0.80028 0.70024,0 1.30044,-0.30011 1.80062,-0.60021 1.00034,-0.90031 1.10037,-2.50086 0.20006,-3.5012 L 193.10359,106.67392 H 181.09947 L 166.8946,94.869881 c -0.50017,-0.400137 -1.20041,-0.700239 -2.00068,-0.600205 -0.70024,0.100034 -1.40049,0.400137 -1.80062,0.900308 -1.00034,1.100377 -0.90031,2.700926 0.10003,3.801303 l 15.40529,14.905103 -1.90066,37.913 c -0.10003,1.70058 1.30045,3.2011 3.00103,3.2011 1.70058,0.10003 3.2011,-1.20041 3.30113,-2.901 l 0.90031,-18.1062 h 4.60158 l 1.30045,15.50531"
         style="fill:#fefefe;fill-opacity:1;fill-rule:evenodd;stroke:none;stroke-width:1.00034"
         id="path140"
         inkscape:label="path28" />
      <path
         d="m 146.58764,32.848619 c 0,-3.001029 -1.20041,-5.801987 -3.30113,-7.902707 -2.10072,-2.10072 -4.90168,-3.301132 -7.90271,-3.301132 -2.901,0 -5.80199,1.200412 -7.90271,3.301132 -2.10072,2.10072 -3.30113,4.901678 -3.30113,7.902707 0,3.001029 1.20041,5.801986 3.30113,7.902707 2.10072,2.10072 5.00171,3.301131 7.90271,3.301131 3.00103,0 5.80199,-1.200411 7.90271,-3.301131 2.10072,-2.100721 3.30113,-4.901678 3.30113,-7.902707"
         style="fill:#fefefe;fill-opacity:1;fill-rule:evenodd;stroke:none;stroke-width:1.00034"
         id="path144"
         inkscape:label="path30" />
      <path
         d="m 133.48315,142.78631 v 0 -46.61598 h 4.70162 l 0.10003,54.01851 c 0,1.40048 0.6002,2.70093 1.50051,3.60124 1.00034,1.00034 2.30079,1.50051 3.60124,1.50051 1.40047,0 2.70092,-0.60021 3.60123,-1.50051 1.00034,-1.00034 1.50052,-2.30079 1.50052,-3.60124 l -0.20007,-82.128146 v -0.200069 c 0,-1.200412 0.9003,-2.200755 2.10072,-2.400823 1.20041,-0.200068 2.40082,0.600205 2.70092,1.800617 l 6.7023,24.608436 c 0.20007,1.000343 0.90031,1.900652 1.90065,2.500858 1.00034,0.600205 2.10072,0.600205 3.10106,0.400137 1.00034,-0.300103 1.90065,-1.000343 2.50086,-1.900652 0.50017,-1.000343 0.6002,-2.10072 0.40014,-3.101063 l -6.90237,-25.108607 c -0.3001,-1.400481 -0.70024,-2.800961 -1.10037,-4.201444 -0.50018,-1.300443 -1.00035,-2.700926 -1.70059,-3.901337 -1.20041,-1.500515 -2.50086,-2.800958 -4.1014,-4.101401 -1.60056,-1.300451 -3.40117,-2.400823 -5.40185,-3.301132 -4.00138,-1.900657 -8.50292,-2.900997 -13.20453,-2.700926 -4.60158,0.200064 -9.10313,1.600546 -12.90442,3.801298 -1.90066,1.10038 -3.50121,2.300792 -5.00172,3.701274 -1.50052,1.400475 -2.80096,2.90099 -3.90134,4.401504 -1.60055,2.500863 -2.30079,5.601923 -2.00069,8.602952 l -0.50016,28.609808 c 0,1.000343 0.40013,2.10072 1.20041,2.900994 0.80027,0.800275 1.80061,1.200412 2.80096,1.200412 1.10037,0.100034 2.20075,-0.400137 2.90099,-1.100378 0.80027,-0.800274 1.30045,-1.800616 1.30045,-2.900994 l 0.40013,-28.609808 v 0 c 0,-1.000343 0.90031,-1.800616 1.90066,-1.800616 1.00034,0 1.80061,0.800273 1.80061,1.800616 v 0.100035 75.625925 c 0,1.30044 0.40014,2.60089 1.50052,3.70127 1.10037,1.00034 2.40082,1.50051 3.70126,1.40047 1.20042,0 2.50087,-0.50017 3.50121,-1.50051 1.00034,-1.00034 1.50051,-2.30079 1.50051,-3.60123 v -0.10004 c 0,0 0,0 0,0.10004 0,0 0,0 0,0 v 0"
         style="fill:#fefefe;fill-opacity:1;fill-rule:evenodd;stroke:none;stroke-width:1.00034"
         id="path148"
         inkscape:label="path32" />
      <path
         d="m 161.29268,256.52529 h 25.00857 c 0.10003,2.10072 0.40014,4.20144 1.00034,6.40219 0.50018,2.10072 1.20041,4.30148 2.20076,6.4022 2.00068,4.30147 4.80165,8.20281 8.40288,11.50394 3.60124,3.30113 7.80268,5.80199 12.20418,7.3025 2.20076,0.80028 4.40151,1.40048 6.60227,1.70059 2.20076,0.40013 4.30148,0.50017 6.4022,0.40013 2.20075,0 4.50154,-0.20006 6.90236,-0.6002 2.30079,-0.40014 4.60158,-1.10038 7.0024,-2.00068 4.60158,-1.80062 9.00309,-4.70162 12.70435,-8.40289 3.70128,-3.70127 6.50223,-8.00274 8.40288,-12.70436 0.90031,-2.30078 1.60056,-4.7016 2.00069,-7.00239 0.40014,-2.3008 0.60021,-4.60158 0.60021,-6.90237 0,-2.50086 -0.20007,-5.30182 -0.80028,-8.10278 -0.6002,-2.80096 -1.60054,-5.70195 -3.00103,-8.50291 -1.30044,-2.80097 -3.10106,-5.50189 -5.20178,-8.00275 -2.20075,-2.50085 -4.70161,-4.70161 -7.50257,-6.60226 -2.80096,-1.80062 -5.80199,-3.30113 -8.90306,-4.40151 -3.10106,-1.00034 -6.30216,-1.60055 -9.40322,-1.80062 -3.10106,-0.20006 -6.10209,-0.10003 -9.00308,0.40014 -2.80096,0.50017 -5.40186,1.30045 -7.80268,2.30079 l -9.10312,-16.10552 5.00171,-7.40254 h 7.00241 c 0.6002,0 1.20041,-0.20006 1.70058,-0.70024 0.50017,-0.50017 0.80027,-1.20041 0.80027,-1.80061 v -8.70299 c -0.20007,-0.40013 -0.40013,-0.90031 -0.80027,-1.30044 -0.40014,-0.40014 -0.90031,-0.80028 -1.50052,-1.00035 -0.6002,-0.10003 -1.20041,-0.10003 -1.70058,0 -0.6002,0.10004 -1.10038,0.40014 -1.40048,0.70025 l -19.80679,7.40253 c -1.30044,0.40014 -2.20075,1.60055 -2.10072,2.901 0.10003,0.6002 0.3001,1.20041 0.80028,1.70058 0.50016,0.50017 1.10037,0.70024 1.70058,0.80027 h 6.00205 l -4.1014,6.20213 h -72.32479 l 3.00103,-5.50188 -2.901,-11.50395 h 21.10724 c 1.20041,0 2.30078,-0.50017 3.20109,-1.30045 0.80028,-0.90031 1.30045,-2.00069 1.30045,-3.2011 0,-1.10037 -0.40014,-2.30078 -1.30045,-3.20109 -0.90031,-0.90031 -2.10072,-1.30045 -3.20109,-1.30045 h -19.00652 c -0.90031,0.10004 -1.80062,0.40014 -2.70093,0.80028 -0.90031,0.40013 -1.90065,1.00034 -2.70092,1.70058 -1.80062,1.30045 -3.2011,3.20109 -4.1014,5.40185 -0.80028,2.30079 -1.00035,4.60158 -0.70025,6.80233 0.20007,1.10038 0.50018,2.10072 0.90031,3.00103 0.40014,1.00035 0.90031,1.80062 1.50051,2.50086 L 100.3718,219.2125 c -2.400826,-1.20041 -5.001716,-2.20076 -7.902706,-2.80097 -2.901,-0.70024 -6.00206,-1.10037 -9.20316,-1.00034 -3.301132,0 -6.602262,0.50018 -9.903392,1.40048 -3.30114,0.90031 -6.4022,2.30079 -9.40323,4.20145 -3.00102,1.80061 -5.70195,4.00136 -8.002742,6.50222 -2.30079,2.50086 -4.20144,5.20179 -5.70196,8.10278 -1.50051,2.90099 -2.60089,5.80199 -3.30113,8.70298 -0.70024,2.901 -1.10038,5.70196 -1.10038,8.30285 0,2.30079 0.20007,4.60157 0.60021,6.90237 0.50017,2.30079 1.10038,4.70161 2.00069,7.00239 1.90065,4.70162 4.70161,9.00309 8.40288,12.70436 3.701262,3.70127 8.102782,6.60227 12.804392,8.40289 2.30078,0.9003 4.60157,1.60054 7.0024,2.00068 2.30079,0.40014 4.60157,0.6002 6.802332,0.6002 2.20075,0 4.50155,-0.20006 6.80233,-0.6002 2.40082,-0.40014 4.70161,-1.10038 7.0024,-2.00068 4.701606,-1.80062 9.103116,-4.70162 12.804386,-8.40289 3.70127,-3.70127 6.50223,-8.00274 8.30285,-12.70436 1.00034,-2.30078 1.60054,-4.7016 2.10072,-7.00239 0.40013,-2.3008 0.6002,-4.60158 0.6002,-6.90237 0,-5.50188 -1.30044,-11.00378 -3.8013,-16.00548 -2.50086,-5.00172 -6.20212,-9.40323 -10.70367,-12.70437 l 5.40186,-9.90339 47.81639,41.91437 c 0.40013,0.40014 1.00034,0.60021 1.50051,0.60021 m -58.9202,-26.50909 c 2.20076,1.80062 4.20144,4.00137 5.90202,6.50223 1.60056,2.60089 2.901,5.40185 3.80131,8.50292 0.80027,3.00102 1.10038,6.10209 1.00034,9.20315 -0.10003,3.00102 -0.80027,5.90202 -1.70058,8.60295 -1.00035,2.70092 -2.40082,5.30182 -4.20144,7.80267 -1.90066,2.40083 -4.10141,4.60158 -6.7023,6.4022 -2.500856,1.80061 -5.401846,3.2011 -8.302836,4.1014 -2.901,0.90031 -5.90203,1.30045 -8.70299,1.30045 -1.800622,0 -3.601232,-0.20007 -5.401852,-0.50017 -1.90066,-0.3001 -3.70127,-0.90031 -5.60192,-1.60055 -3.70127,-1.50052 -7.10244,-3.70127 -10.00343,-6.60227 -3.00103,-3.00103 -5.201792,-6.40219 -6.702302,-10.10346 -0.70024,-1.80061 -1.20041,-3.70127 -1.60055,-5.50189 -0.3001,-1.90065 -0.50017,-3.70126 -0.50017,-5.50188 0,-2.00069 0.20007,-4.20144 0.70024,-6.50223 0.50017,-2.30079 1.30045,-4.60158 2.40083,-6.90237 1.200412,-2.20075 2.600882,-4.4015 4.401502,-6.40219 1.80062,-2.00069 3.90134,-3.80131 6.20213,-5.30182 2.30079,-1.40048 4.80164,-2.60089 7.3025,-3.30113 2.60089,-0.80027 5.20179,-1.20041 7.702642,-1.30045 2.6009,0 5.00172,0.20008 7.3025,0.70024 2.20076,0.50018 4.30148,1.30045 6.20213,2.20076 l -13.20452,20.7071 c -1.700592,0.3001 -3.201102,1.20041 -4.301482,2.60089 -1.00034,1.30045 -1.50051,3.00103 -1.40048,4.70161 0.10003,1.70059 0.80028,3.40116 2.00069,4.60158 1.20041,1.20041 2.80096,2.00068 4.501542,2.10072 2.60089,0.20007 5.20178,-1.10038 6.50223,-3.40117 0.6002,-1.10038 1.00034,-2.30079 0.9003,-3.70126 0,-1.30045 -0.50016,-2.6009 -1.20041,-3.60124 L 102.37248,230.0162 m 61.02092,18.80644 -46.21584,-40.51388 h 71.62455 l -21.90751,40.51388 h -3.5012 m 38.81331,-27.40939 c -4.70162,2.901 -8.70299,6.90237 -11.50395,11.70401 -2.80096,4.80165 -4.30148,10.2035 -4.50154,15.70538 h -10.5036 l 20.50703,-37.91299 6.00206,10.5036 m 21.6074,23.9082 -11.40391,-20.30697 c 1.90065,-0.80027 4.00137,-1.40048 6.20213,-1.80061 2.20075,-0.40014 4.60158,-0.50018 7.10243,-0.30011 2.40083,0.20008 4.90169,0.70024 7.40254,1.50052 2.40083,0.90031 4.80165,2.00069 7.0024,3.5012 2.10072,1.50052 4.10141,3.30113 5.80199,5.30181 1.70058,2.00069 3.00103,4.10141 4.10141,6.30216 1.10038,2.20076 1.80061,4.50155 2.30079,6.70231 0.40013,2.20075 0.6002,4.4015 0.6002,6.40219 0,1.80062 -0.20007,3.60123 -0.50017,5.50188 -0.40014,1.80062 -0.90031,3.70128 -1.60055,5.50189 -1.50051,3.70127 -3.70126,7.10243 -6.60226,10.10346 -3.00103,2.901 -6.40219,5.10175 -10.10347,6.60227 -1.90065,0.70024 -3.70126,1.30045 -5.60191,1.60055 -1.80062,0.3001 -3.60124,0.50017 -5.40185,0.50017 -1.60056,0 -3.30114,0 -5.00172,-0.30011 -1.70059,-0.20006 -3.5012,-0.70023 -5.20178,-1.30044 -3.40117,-1.10038 -6.70231,-3.00103 -9.60329,-5.50188 -2.80097,-2.6009 -5.10175,-5.60193 -6.70231,-8.90306 -0.80027,-1.60054 -1.40047,-3.30113 -1.90065,-4.90168 -0.50017,-1.70058 -0.80027,-3.40117 -0.90031,-5.00171 h 26.00892 c 0.90031,-0.30011 1.90065,-0.90031 2.70093,-1.70059 0.80027,-0.80027 1.50051,-1.80062 1.90065,-3.00103 0.40013,-1.10037 0.50017,-2.30078 0.40013,-3.40116 -0.10003,-1.20041 -0.50016,-2.20075 -1.00034,-3.10106 m -10.8037,3.50119 h -18.90648 c 0.3001,-3.90133 1.40048,-7.80267 3.5012,-11.30387 2.10072,-3.60123 4.90168,-6.50223 8.10278,-8.60295 l 9.30319,16.50566 c 0.3001,0.60021 0.40013,1.50052 0,2.30079 -0.50018,0.80027 -1.30045,1.10037 -2.00069,1.10037"
         style="fill:#fefefe;fill-opacity:1;fill-rule:evenodd;stroke:none;stroke-width:1.00034"
         id="path152"
         inkscape:label="path34" />
    </g>
  </g>
</svg>
