<svg width="336" height="504" xmlns="http://www.w3.org/2000/svg" xmlns:xlink="http://www.w3.org/1999/xlink" xml:space="preserve" overflow="hidden"><defs><clipPath id="clip0"><rect x="67" y="120" width="336" height="504"/></clipPath></defs><g clip-path="url(#clip0)" transform="translate(-67 -120)"><path d="M0.377453 484.537C0.377453 486.801 0.830397 489.104 1.69854 491.406 2.67992 493.709 4.001 495.898 5.85052 497.748 7.70005 499.597 9.88927 500.918 12.1917 501.9 14.4942 502.768 16.7967 503.221 19.0614 503.221L316.985 503.221C319.174 503.221 321.552 502.768 323.855 501.9 326.157 500.918 328.347 499.597 330.196 497.748 332.046 495.898 333.367 493.709 334.348 491.406 335.216 489.104 335.669 486.801 335.669 484.537L335.669 18.9482C335.669 16.7589 335.216 14.4565 334.348 12.154 333.367 9.88927 332.046 7.70005 330.196 5.81278 328.347 3.96326 326.157 2.56668 323.855 1.66079 321.552 0.792652 319.174 0.377453 316.985 0.377453L19.0614 0.377453C16.7967 0.377453 14.4942 0.792652 12.1917 1.66079 9.88927 2.56668 7.70005 3.96326 5.85052 5.81278 4.001 7.70005 2.67992 9.88927 1.69854 12.154 0.830397 14.4565 0.377453 16.7589 0.377453 18.9482L0.377453 484.537Z" fill="#FFFFFF" transform="matrix(1.0002 0 0 1 67 120.23)"/><path d="M0.377453 484.499C0.377453 489.557 2.34021 494.237 5.85052 497.748 9.36084 501.258 14.0413 503.221 19.0991 503.221" stroke="#343434" stroke-width="0.754906" stroke-linejoin="round" fill="none" transform="matrix(1.0002 0 0 1 67 120.23)"/><path d="M19.0614 503.183 316.947 503.183" stroke="#343434" stroke-width="0.754906" stroke-linejoin="round" fill="none" transform="matrix(1.0002 0 0 1 67 120.23)"/><path d="M316.947 503.221C321.854 503.221 326.686 501.258 330.158 497.748 333.706 494.237 335.669 489.557 335.669 484.499" stroke="#343434" stroke-width="0.754906" stroke-linejoin="round" fill="none" transform="matrix(1.0002 0 0 1 67 120.23)"/><path d="M335.631 484.499 335.631 18.9482" stroke="#343434" stroke-width="0.754906" stroke-linejoin="round" fill="none" transform="matrix(1.0002 0 0 1 67 120.23)"/><path d="M335.669 18.9859C335.669 14.0413 333.706 9.32309 330.158 5.81278 326.686 2.34021 321.854 0.377453 316.947 0.377453" stroke="#343434" stroke-width="0.754906" stroke-linejoin="round" fill="none" transform="matrix(1.0002 0 0 1 67 120.23)"/><path d="M316.947 0.377453 19.0614 0.377453" stroke="#343434" stroke-width="0.754906" stroke-linejoin="round" fill="none" transform="matrix(1.0002 0 0 1 67 120.23)"/><path d="M19.0991 0.377453C14.0413 0.377453 9.36084 2.34021 5.85052 5.81278 2.34021 9.32309 0.377453 14.0413 0.377453 18.9859" stroke="#343434" stroke-width="0.754906" stroke-linejoin="round" fill="none" transform="matrix(1.0002 0 0 1 67 120.23)"/><path d="M0.377453 18.9482 0.377453 484.499" stroke="#343434" stroke-width="0.754906" stroke-linejoin="round" fill="none" transform="matrix(1.0002 0 0 1 67 120.23)"/><path d="M8.56819 484.537C8.56819 485.82 8.79466 487.141 9.36084 488.349 9.88927 489.67 10.6442 490.878 11.6633 491.973 12.6447 492.954 13.928 493.709 15.1359 494.237 16.457 494.803 17.778 495.03 19.0614 495.03L316.985 495.03C318.306 495.03 319.59 494.803 320.797 494.237 322.119 493.709 323.326 492.954 324.421 491.973 325.402 490.878 326.157 489.67 326.724 488.349 327.252 487.141 327.478 485.82 327.478 484.537L327.478 18.9482C327.478 17.7403 327.252 16.4192 326.724 15.1359 326.157 13.8148 325.402 12.6069 324.421 11.6256 323.326 10.6442 322.119 9.77604 320.797 9.32309 319.59 8.79466 318.306 8.56819 316.985 8.56819L19.0614 8.56819C17.778 8.56819 16.457 8.79466 15.1359 9.32309 13.928 9.77604 12.6447 10.6442 11.6633 11.6256 10.6442 12.6069 9.88927 13.8148 9.36084 15.1359 8.79466 16.4192 8.56819 17.7403 8.56819 18.9482L8.56819 484.537Z" fill="#0055FF" transform="matrix(1.0002 0 0 1 67 120.23)"/><path d="M56.2405 484.537 56.2405 18.9482 168.004 18.9482 168.004 93.4952 279.806 167.929 279.806 335.594 168.004 410.103 168.004 484.537 56.2405 484.537Z" fill="#FEFEFE" transform="matrix(1.0002 0 0 1 67 120.23)"/><path d="M164.23 372.811 164.23 335.594 171.703 335.594 171.703 372.811 164.23 372.811Z" fill="#010101" transform="matrix(1.0002 0 0 1 67 120.23)"/><path d="M164.23 304.718 164.23 267.388 171.703 267.388 171.703 304.718 164.23 304.718Z" fill="#010101" transform="matrix(1.0002 0 0 1 67 120.23)"/><path d="M164.23 236.172 164.23 198.88 171.703 198.88 171.703 236.172 164.23 236.172Z" fill="#010101" transform="matrix(1.0002 0 0 1 67 120.23)"/><path d="M164.23 167.967 164.23 130.75 171.703 130.75 171.703 167.967 164.23 167.967Z" fill="#010101" transform="matrix(1.0002 0 0 1 67 120.23)"/><path d="M104.064 526.396 248.893 526.396" stroke="#808080" stroke-width="0.754906" stroke-linejoin="round" stroke-dasharray="4.8314 4.8314" fill="none" transform="matrix(1.0002 0 0 1 67 120.23)"/><path d="M207.184 208.618C210.468 211.902 214.733 214.091 219.225 214.846 223.83 215.752 228.51 215.299 232.813 213.45 235.644 212.355 238.06 210.279 239.494 207.524 240.136 206.127 240.589 204.58 240.475 203.183 240.475 200.088 239.268 197.257 237.192 195.181 235.644 193.784 233.795 192.69 231.719 192.237 229.076 191.369 226.434 190.803 223.717 190.387 223.15 190.387 222.509 190.161 221.943 189.934 221.754 189.821 221.527 189.595 221.301 189.406 220.961 189.066 220.735 188.613 220.735 188.198 220.735 187.104 221.414 186.122 222.282 185.556 223.264 185.028 224.471 184.801 225.566 184.801 227.189 184.688 228.85 184.914 230.36 185.443 232.058 185.896 233.455 186.651 234.776 187.519L240.589 181.517C237.418 179.026 233.568 177.441 229.605 176.799 225.566 176.233 221.527 176.686 217.791 178.082 215.715 178.913 213.865 180.196 212.657 182.083 211.336 183.933 210.694 186.122 210.808 188.311 210.808 190.501 211.563 192.69 212.884 194.426 214.205 196.276 216.054 197.597 218.13 198.238 220.659 198.918 223.037 199.56 225.566 200.012 226.094 200.012 226.661 200.088 227.076 200.201 227.755 200.314 228.397 200.654 228.963 200.881 229.718 201.409 230.246 202.164 230.246 203.07 230.133 204.58 229.076 205.901 227.529 206.24 225.226 206.995 222.735 207.109 220.093 206.429 217.564 205.788 215.413 204.353 213.752 202.617L207.184 208.618Z" fill="#010101" transform="matrix(1.0002 0 0 1 67 120.23)"/><path d="M206.354 257.612C207.448 261.537 209.751 264.934 212.921 267.426 216.092 269.841 220.017 271.162 224.056 271.162 228.095 271.162 232.058 269.841 235.229 267.426 238.399 264.934 240.702 261.537 241.797 257.612 242.816 253.724 242.816 249.799 241.797 245.986 240.702 242.023 238.399 238.664 235.229 236.135 232.058 233.719 228.095 232.436 224.056 232.436 220.017 232.436 216.092 233.719 212.921 236.135 209.751 238.664 207.448 242.023 206.354 245.986 205.335 249.799 205.335 253.724 206.354 257.612ZM215.752 256.064C214.997 253.196 214.997 250.251 215.752 247.496 216.205 245.647 217.3 244.024 218.81 242.816 220.357 241.608 222.207 240.966 224.056 240.966 226.019 240.966 227.906 241.608 229.416 242.816 230.964 244.024 231.945 245.647 232.473 247.496 233.153 250.251 233.153 253.196 232.473 256.064 231.945 257.914 230.964 259.575 229.416 260.782 227.906 261.99 226.019 262.519 224.056 262.519 222.207 262.519 220.357 261.99 218.81 260.782 217.3 259.575 216.205 257.914 215.752 256.064Z" fill="#010101" transform="matrix(1.0002 0 0 1 67 120.23)"/><path d="M207.184 320.345C210.468 323.628 214.733 325.818 219.225 326.686 223.83 327.441 228.51 327.025 232.813 325.138 235.644 324.044 238.06 321.968 239.494 319.25 240.136 317.816 240.589 316.419 240.475 314.871 240.475 311.814 239.268 308.983 237.192 306.907 235.644 305.473 233.795 304.492 231.719 303.963 229.076 303.17 226.434 302.529 223.717 302.076 223.15 302.076 222.509 301.887 221.943 301.661 221.754 301.547 221.527 301.321 221.301 301.208 220.961 300.792 220.735 300.34 220.735 299.887 220.735 298.792 221.414 297.811 222.282 297.282 223.264 296.716 224.471 296.527 225.566 296.527 227.189 296.414 228.85 296.641 230.36 297.169 232.058 297.622 233.455 298.377 234.776 299.358L240.589 293.206C237.418 290.677 233.568 289.167 229.605 288.488 225.566 287.959 221.527 288.374 217.791 289.809 215.715 290.564 213.865 291.998 212.657 293.734 211.336 295.621 210.694 297.811 210.808 300 210.808 302.302 211.563 304.378 212.884 306.152 214.205 308.002 216.054 309.285 218.13 309.965 220.659 310.606 223.037 311.286 225.566 311.701 226.094 311.701 226.661 311.814 227.076 311.927 227.755 312.041 228.397 312.38 228.963 312.682 229.718 313.135 230.246 313.89 230.246 314.758 230.133 316.419 229.076 317.627 227.529 318.042 225.226 318.721 222.735 318.797 220.093 318.155 217.564 317.514 215.413 316.079 213.752 314.456L207.184 320.345Z" fill="#010101" transform="matrix(1.0002 0 0 1 67 120.23)"/></g></svg>