<svg width="336" height="336" xmlns="http://www.w3.org/2000/svg" xmlns:xlink="http://www.w3.org/1999/xlink" xml:space="preserve" overflow="hidden"><g transform="translate(-877 -192)"><path d="M877.378 509.048C877.378 511.351 877.831 513.654 878.699 515.919 879.567 518.222 881.002 520.412 882.852 522.262 884.702 524.149 886.778 525.433 889.194 526.414 891.497 527.32 893.8 527.736 895.952 527.736L1194.05 527.736C1196.24 527.736 1198.62 527.32 1200.92 526.414 1203.22 525.433 1205.41 524.149 1207.15 522.262 1209 520.412 1210.43 518.222 1211.3 515.919 1212.28 513.654 1212.62 511.351 1212.62 509.048L1212.62 211.103C1212.62 208.913 1212.28 206.497 1211.3 204.194 1210.43 201.891 1209 199.702 1207.15 197.852 1205.41 196.002 1203.22 194.68 1200.92 193.699 1198.62 192.831 1196.24 192.378 1194.05 192.378L895.952 192.378C893.8 192.378 891.497 192.831 889.194 193.699 886.778 194.68 884.702 196.002 882.852 197.852 881.002 199.702 879.567 201.891 878.699 204.194 877.831 206.497 877.378 208.913 877.378 211.103L877.378 509.048Z" fill="#FFFFFF"/><path d="M877.378 509.01C877.378 514.069 879.341 518.788 882.852 522.262 886.363 525.773 891.044 527.736 895.99 527.736" stroke="#343434" stroke-width="0.755056" stroke-linejoin="round" fill="none"/><path d="M895.952 527.698 1194.01 527.698" stroke="#343434" stroke-width="0.755056" stroke-linejoin="round" fill="none"/><path d="M1194.01 527.736C1198.92 527.736 1203.71 525.773 1207.26 522.262 1210.66 518.788 1212.62 514.069 1212.62 509.01" stroke="#343434" stroke-width="0.755056" stroke-linejoin="round" fill="none"/><path d="M1212.58 509.01 1212.58 211.103" stroke="#343434" stroke-width="0.755056" stroke-linejoin="round" fill="none"/><path d="M1212.62 211.141C1212.62 206.195 1210.66 201.4 1207.26 197.889 1203.71 194.378 1198.92 192.378 1194.01 192.378" stroke="#343434" stroke-width="0.755056" stroke-linejoin="round" fill="none"/><path d="M1194.01 192.378 895.952 192.378" stroke="#343434" stroke-width="0.755056" stroke-linejoin="round" fill="none"/><path d="M895.99 192.378C891.044 192.378 886.363 194.378 882.852 197.889 879.341 201.4 877.378 206.195 877.378 211.141" stroke="#343434" stroke-width="0.755056" stroke-linejoin="round" fill="none"/><path d="M877.378 211.103 877.378 509.01" stroke="#343434" stroke-width="0.755056" stroke-linejoin="round" fill="none"/><path d="M885.57 509.048C885.57 510.369 885.796 511.653 886.363 512.974 886.778 514.182 887.533 515.391 888.628 516.485 889.609 517.467 890.818 518.222 892.139 518.788 893.46 519.317 894.782 519.543 895.952 519.543L1194.05 519.543C1195.26 519.543 1196.54 519.317 1197.86 518.788 1199.18 518.222 1200.39 517.467 1201.37 516.485 1202.47 515.391 1203.22 514.182 1203.75 512.974 1204.2 511.653 1204.43 510.369 1204.43 509.048L1204.43 211.103C1204.43 209.782 1204.2 208.46 1203.75 207.252 1203.22 205.931 1202.47 204.76 1201.37 203.666 1200.39 202.684 1199.18 201.891 1197.86 201.363 1196.54 200.796 1195.26 200.608 1194.05 200.608L895.952 200.608C894.782 200.608 893.46 200.796 892.139 201.363 890.818 201.891 889.609 202.684 888.628 203.666 887.533 204.76 886.778 205.931 886.363 207.252 885.796 208.46 885.57 209.782 885.57 211.103L885.57 509.048Z" fill="#0055FF"/><path d="M991.769 509.048 991.769 454.986 961.906 454.986 961.906 509.048 991.769 509.048Z" fill="#FEFEFE"/><path d="M991.769 427.917 991.769 373.893 961.906 373.893 961.906 427.917 991.769 427.917Z" fill="#FEFEFE"/><path d="M991.769 346.258 991.769 292.196 961.906 292.196 961.906 346.258 991.769 346.258Z" fill="#FEFEFE"/><path d="M991.769 265.127 991.769 211.103 961.906 211.103 961.906 265.127 991.769 265.127Z" fill="#FEFEFE"/><path d="M1012.61 211.103 1042.36 211.103 1042.36 263.24 1128.09 293.744 1128.09 360.113 1128.09 426.369 1042.36 456.874 1042.36 509.048 1012.61 509.048 1012.61 434.222 1098.27 403.718 1098.27 360.113 1098.27 316.471 1012.61 285.853 1012.61 211.103Z" fill="#FEFEFE"/></g></svg>