<svg width="219" height="219" xmlns="http://www.w3.org/2000/svg" xmlns:xlink="http://www.w3.org/1999/xlink" xml:space="preserve" overflow="hidden"><g transform="translate(-530 -250)"><path d="M530.378 456.351C530.378 457.786 530.604 459.296 531.246 460.769 531.812 462.241 532.719 463.676 533.927 464.884 535.135 466.093 536.495 466.999 538.005 467.565 539.515 468.169 541.026 468.434 542.46 468.434L736.275 468.434C737.672 468.434 739.183 468.169 740.769 467.565 742.241 466.999 743.676 466.093 744.809 464.884 746.017 463.676 746.923 462.241 747.49 460.769 748.132 459.296 748.358 457.786 748.358 456.351L748.358 262.536C748.358 261.139 748.132 259.553 747.49 258.043 746.923 256.57 746.017 255.135 744.809 253.927 743.676 252.794 742.241 251.888 740.769 251.246 739.183 250.68 737.672 250.378 736.275 250.378L542.46 250.378C541.026 250.378 539.515 250.68 538.005 251.246 536.495 251.888 535.135 252.794 533.927 253.927 532.719 255.135 531.812 256.57 531.246 258.043 530.604 259.553 530.378 261.139 530.378 262.536L530.378 456.351Z" fill="#FFFFFF"/><path d="M530.378 456.313C530.378 459.56 531.661 462.619 533.965 464.884 536.23 467.15 539.289 468.434 542.498 468.434" stroke="#343434" stroke-width="0.755172" stroke-linejoin="round" fill="none"/><path d="M542.46 468.396 736.238 468.396" stroke="#343434" stroke-width="0.755172" stroke-linejoin="round" fill="none"/><path d="M736.238 468.434C739.485 468.434 742.505 467.15 744.809 464.884 747.074 462.619 748.358 459.56 748.358 456.313" stroke="#343434" stroke-width="0.755172" stroke-linejoin="round" fill="none"/><path d="M748.32 456.313 748.32 262.536" stroke="#343434" stroke-width="0.755172" stroke-linejoin="round" fill="none"/><path d="M748.358 262.574C748.358 259.364 747.074 256.23 744.809 253.927 742.505 251.661 739.485 250.378 736.238 250.378" stroke="#343434" stroke-width="0.755172" stroke-linejoin="round" fill="none"/><path d="M736.238 250.378 542.46 250.378" stroke="#343434" stroke-width="0.755172" stroke-linejoin="round" fill="none"/><path d="M542.498 250.378C539.289 250.378 536.23 251.661 533.965 253.927 531.661 256.23 530.378 259.364 530.378 262.574" stroke="#343434" stroke-width="0.755172" stroke-linejoin="round" fill="none"/><path d="M530.378 262.536 530.378 456.313" stroke="#343434" stroke-width="0.755172" stroke-linejoin="round" fill="none"/><path d="M535.702 456.351C535.702 457.144 535.853 457.974 536.117 458.843 536.495 459.636 536.985 460.467 537.703 461.108 538.345 461.75 539.1 462.317 539.968 462.619 540.837 462.959 541.667 463.11 542.46 463.11L736.275 463.11C737.031 463.11 737.899 462.959 738.767 462.619 739.636 462.317 740.391 461.75 741.033 461.108 741.75 460.467 742.241 459.636 742.581 458.843 742.883 457.974 743.034 457.144 743.034 456.351L743.034 262.536C743.034 261.781 742.883 260.912 742.581 260.044 742.241 259.175 741.75 258.42 741.033 257.703 740.391 257.061 739.636 256.57 738.767 256.23 737.899 255.853 737.031 255.739 736.275 255.739L542.46 255.739C541.667 255.739 540.837 255.853 539.968 256.23 539.1 256.57 538.345 257.061 537.703 257.703 536.985 258.42 536.495 259.175 536.117 260.044 535.853 260.912 535.702 261.705 535.702 262.536L535.702 456.351Z" fill="#0055FF"/><path d="M645.843 378.832 666.044 378.832C666.12 380.569 666.384 382.231 666.799 383.968 667.253 385.742 667.819 387.441 668.612 389.141 670.236 392.614 672.501 395.748 675.446 398.467 678.316 401.11 681.676 403.111 685.226 404.395 687 405.037 688.775 405.528 690.55 405.754 692.324 406.019 694.023 406.17 695.76 406.094 697.535 406.094 699.385 405.943 701.311 405.603 703.161 405.263 705.049 404.735 706.899 403.98 710.675 402.469 714.224 400.166 717.207 397.183 720.19 394.2 722.493 390.651 723.966 386.875 724.683 385.025 725.25 383.099 725.59 381.249 725.967 379.361 726.081 377.473 726.081 375.736 726.081 373.659 725.892 371.432 725.401 369.166 724.948 366.901 724.193 364.56 723.06 362.256 721.927 359.991 720.53 357.876 718.793 355.8 717.094 353.836 715.017 352.024 712.827 350.476 710.524 349.003 708.145 347.795 705.54 347.002 703.086 346.133 700.518 345.643 698.026 345.416 695.458 345.265 693.042 345.416 690.776 345.869 688.473 346.209 686.396 346.926 684.433 347.719L677.032 334.693 681.11 328.651 686.736 328.651C687.227 328.651 687.793 328.5 688.133 328.085 688.548 327.669 688.775 327.179 688.775 326.688L688.775 319.702C688.624 319.325 688.435 318.909 688.133 318.57 687.869 318.192 687.416 317.966 686.925 317.852 686.434 317.626 686.019 317.626 685.528 317.777 685.075 317.852 684.735 318.041 684.433 318.343L668.385 324.309C667.366 324.611 666.648 325.593 666.724 326.688 666.799 327.179 666.951 327.669 667.366 328.009 667.743 328.425 668.234 328.651 668.725 328.651L673.558 328.651 670.236 333.711 611.936 333.711 614.315 329.218 611.974 319.967 629.041 319.967C629.985 319.967 630.891 319.551 631.608 318.909 632.25 318.192 632.666 317.286 632.666 316.304 632.666 315.436 632.326 314.492 631.608 313.737 630.891 313.019 629.909 312.642 629.041 312.642L613.711 312.642C612.993 312.793 612.201 313.019 611.483 313.359 610.766 313.737 609.973 314.152 609.255 314.643 607.934 315.813 606.726 317.286 606.008 319.136 605.366 320.911 605.14 322.799 605.442 324.611 605.668 325.442 605.857 326.235 606.235 327.028 606.499 327.745 606.952 328.425 607.367 328.991L596.719 348.701C594.794 347.795 592.566 347.002 590.225 346.436 587.959 345.869 585.392 345.567 582.824 345.643 580.219 345.643 577.5 345.982 574.895 346.775 572.252 347.568 569.684 348.626 567.268 350.098 564.851 351.608 562.737 353.421 560.773 355.384 558.961 357.461 557.375 359.651 556.167 361.992 554.958 364.295 554.128 366.599 553.561 368.977 552.995 371.281 552.693 373.584 552.617 375.736 552.617 377.473 552.844 379.361 553.184 381.249 553.561 383.099 554.052 385.025 554.77 386.875 556.242 390.651 558.546 394.2 561.566 397.183 564.587 400.166 568.061 402.469 571.799 403.98 573.724 404.735 575.612 405.263 577.5 405.603 579.351 405.943 581.201 406.094 582.975 406.094 584.826 406.094 586.676 405.943 588.526 405.603 590.452 405.263 592.302 404.735 594.19 403.98 597.966 402.469 601.477 400.166 604.422 397.183 607.443 394.2 609.708 390.651 611.219 386.875 611.974 385.025 612.503 383.099 612.842 381.249 613.182 379.361 613.333 377.473 613.333 375.736 613.333 371.243 612.352 366.75 610.275 362.709 608.274 358.745 605.291 355.233 601.704 352.552L606.008 344.51 644.635 378.417C644.975 378.681 645.428 378.832 645.843 378.832ZM598.268 357.386C600.042 358.858 601.704 360.633 603.025 362.709 604.384 364.786 605.442 367.052 606.084 369.544 606.726 371.923 607.028 374.528 606.952 376.907 606.801 379.399 606.31 381.74 605.517 383.968 604.724 386.12 603.592 388.234 602.119 390.236 600.609 392.199 598.834 393.898 596.795 395.408 594.718 396.919 592.415 397.976 590.036 398.656 587.657 399.373 585.316 399.751 582.975 399.751 581.541 399.751 580.143 399.6 578.633 399.298 577.123 399.109 575.65 398.656 574.178 398.014 571.157 396.919 568.401 395.069 566.06 392.69 563.643 390.349 561.868 387.592 560.66 384.609 560.094 383.099 559.678 381.627 559.376 380.116 559.112 378.644 559.036 377.133 559.036 375.736 558.961 373.999 559.187 372.225 559.527 370.45 559.943 368.6 560.584 366.75 561.491 364.899 562.435 363.049 563.567 361.275 565.002 359.651 566.475 358.103 568.136 356.668 569.986 355.46 571.874 354.252 573.875 353.345 575.952 352.741 577.991 352.099 580.068 351.759 582.107 351.759 584.184 351.684 586.185 351.911 587.959 352.326 589.81 352.703 591.509 353.345 592.981 354.025L582.333 370.752C581.012 371.016 579.804 371.734 578.935 372.867 578.067 373.924 577.651 375.283 577.727 376.718 577.84 378.039 578.444 379.361 579.351 380.343 580.37 381.324 581.616 381.966 582.975 382.042 585.128 382.231 587.167 381.173 588.224 379.361 588.715 378.493 589.017 377.398 589.017 376.34 588.941 375.245 588.601 374.226 587.997 373.433L598.268 357.386ZM647.467 372.564 610.275 339.866 668.083 339.866 650.375 372.564 647.467 372.564ZM678.844 350.551C675.069 352.817 671.859 356.102 669.594 359.915 667.29 363.767 666.12 368.184 665.893 372.564L657.435 372.564 674.087 341.942 678.844 350.551ZM696.327 369.808 687.076 353.421C688.624 352.741 690.285 352.25 692.135 351.986 693.91 351.608 695.836 351.533 697.799 351.684 699.801 351.835 701.802 352.25 703.765 352.892 705.766 353.61 707.692 354.516 709.391 355.724 711.166 356.932 712.752 358.367 714.073 359.991 715.508 361.577 716.565 363.351 717.434 365.126 718.302 366.901 718.944 368.751 719.284 370.526 719.624 372.3 719.775 374.075 719.775 375.736 719.775 377.133 719.624 378.644 719.359 380.116 719.057 381.627 718.642 383.099 718.076 384.609 716.943 387.592 715.093 390.349 712.752 392.69 710.373 395.069 707.579 396.919 704.558 398.014 703.161 398.656 701.575 399.109 700.14 399.298 698.668 399.6 697.195 399.751 695.76 399.751 694.477 399.826 693.042 399.751 691.72 399.524 690.285 399.298 688.926 398.958 687.491 398.467 684.735 397.523 682.092 396.05 679.751 393.974 677.485 391.935 675.635 389.518 674.351 386.875 673.709 385.516 673.218 384.156 672.765 382.797 672.426 381.476 672.199 380.116 672.048 378.832L693.042 378.832C693.835 378.568 694.59 378.115 695.269 377.473 695.911 376.756 696.478 376.001 696.818 375.094 697.12 374.15 697.271 373.169 697.12 372.225 697.044 371.281 696.667 370.526 696.327 369.808ZM687.567 372.564 672.35 372.564C672.577 369.468 673.483 366.334 675.144 363.502 676.843 360.633 679.109 358.216 681.676 356.517L689.19 369.884C689.341 370.11 689.417 370.374 689.417 370.752 689.417 371.016 689.341 371.356 689.19 371.734 689.002 371.998 688.699 372.225 688.435 372.376 688.133 372.564 687.869 372.564 687.567 372.564Z" fill="#FEFEFE"/></g></svg>