<svg width="336" height="336" xmlns="http://www.w3.org/2000/svg" xmlns:xlink="http://www.w3.org/1999/xlink" xml:space="preserve" overflow="hidden"><g transform="translate(-562 -118)"><path d="M562.415 435.161C562.415 437.351 562.755 439.654 563.737 441.919 564.605 444.222 566.002 446.412 567.889 448.262 569.739 450.149 571.816 451.546 574.119 452.414 576.497 453.32 578.8 453.736 580.99 453.736L879.048 453.736C881.238 453.736 883.541 453.32 885.957 452.414 888.26 451.546 890.449 450.149 892.186 448.262 894.036 446.412 895.471 444.222 896.339 441.919 897.32 439.654 897.66 437.351 897.66 435.161L897.66 137.103C897.66 134.913 897.32 132.497 896.339 130.194 895.471 127.891 894.036 125.702 892.186 123.852 890.449 122.115 888.26 120.68 885.957 119.699 883.541 118.831 881.238 118.378 879.048 118.378L580.99 118.378C578.8 118.378 576.497 118.831 574.119 119.699 571.816 120.68 569.739 122.115 567.889 123.852 566.002 125.702 564.605 127.891 563.737 130.194 562.755 132.497 562.415 134.913 562.415 137.103L562.415 435.161Z" fill="#FFFFFF"/><path d="M562.415 435.124C562.415 440.069 564.378 444.788 567.927 448.262 571.4 451.773 576.12 453.736 581.027 453.736" stroke="#343434" stroke-width="0.755056" stroke-linejoin="round" fill="none"/><path d="M580.99 453.698 879.01 453.698" stroke="#343434" stroke-width="0.755056" stroke-linejoin="round" fill="none"/><path d="M879.01 453.736C883.994 453.736 888.675 451.773 892.186 448.262 895.697 444.788 897.66 440.069 897.66 435.124" stroke="#343434" stroke-width="0.755056" stroke-linejoin="round" fill="none"/><path d="M897.622 435.124 897.622 137.103" stroke="#343434" stroke-width="0.755056" stroke-linejoin="round" fill="none"/><path d="M897.66 137.141C897.66 132.195 895.697 127.4 892.186 123.852 888.675 120.341 883.994 118.378 879.01 118.378" stroke="#343434" stroke-width="0.755056" stroke-linejoin="round" fill="none"/><path d="M879.01 118.378 580.99 118.378" stroke="#343434" stroke-width="0.755056" stroke-linejoin="round" fill="none"/><path d="M581.027 118.378C576.12 118.378 571.4 120.341 567.927 123.852 564.378 127.4 562.415 132.195 562.415 137.141" stroke="#343434" stroke-width="0.755056" stroke-linejoin="round" fill="none"/><path d="M562.415 137.103 562.415 435.124" stroke="#343434" stroke-width="0.755056" stroke-linejoin="round" fill="none"/><path d="M570.608 435.161C570.608 436.369 570.834 437.653 571.249 438.974 571.816 440.182 572.571 441.504 573.666 442.485 574.647 443.467 575.855 444.335 577.177 444.788 578.498 445.317 579.782 445.543 580.99 445.543L879.048 445.543C880.256 445.543 881.578 445.317 882.899 444.788 884.22 444.335 885.391 443.467 886.41 442.485 887.467 441.504 888.26 440.182 888.788 438.974 889.241 437.653 889.468 436.369 889.468 435.161L889.468 137.103C889.468 135.895 889.241 134.573 888.788 133.252 888.26 131.931 887.467 130.76 886.41 129.666 885.391 128.684 884.22 127.891 882.899 127.363 881.578 126.796 880.256 126.608 879.048 126.608L580.99 126.608C579.782 126.608 578.498 126.796 577.177 127.363 575.855 127.891 574.647 128.684 573.666 129.666 572.571 130.76 571.816 131.931 571.249 133.252 570.834 134.573 570.608 135.782 570.608 137.103L570.608 435.161Z" fill="#0055FF"/><path d="M740.005 315.938 771.037 315.938C771.151 318.581 771.604 321.186 772.245 323.828 772.925 326.547 773.793 329.189 775.001 331.794 777.493 337.155 781.004 341.95 785.497 346.14 789.951 350.18 795.086 353.276 800.56 355.239 803.316 356.22 806.034 356.975 808.752 357.315 811.508 357.73 814.113 357.957 816.756 357.844 819.474 357.844 822.343 357.655 825.288 357.089 828.12 356.56 831.064 355.767 833.896 354.597 839.71 352.294 845.184 348.745 849.752 344.139 854.358 339.571 857.869 334.097 860.134 328.283 861.229 325.452 862.135 322.507 862.663 319.675 863.23 316.731 863.418 313.862 863.418 311.143 863.418 307.972 863.116 304.574 862.324 301.063 861.682 297.59 860.474 293.966 858.737 290.455 857 286.982 854.886 283.697 852.168 280.526 849.563 277.468 846.392 274.712 842.994 272.333 839.483 270.031 835.783 268.181 831.819 266.973 828.006 265.651 824.08 264.896 820.229 264.556 816.303 264.33 812.603 264.556 809.092 265.236 805.581 265.764 802.334 266.859 799.352 268.067L787.988 248.058 794.218 238.771 802.863 238.771C803.618 238.771 804.486 238.545 805.053 237.903 805.694 237.223 806.034 236.468 806.034 235.713L806.034 224.991C805.808 224.425 805.506 223.783 805.053 223.255 804.6 222.689 803.958 222.349 803.203 222.16 802.41 221.82 801.768 221.82 801.013 222.047 800.333 222.16 799.805 222.462 799.352 222.915L774.662 232.089C773.114 232.542 772.019 234.052 772.132 235.713 772.245 236.468 772.472 237.223 773.114 237.79 773.68 238.431 774.435 238.771 775.19 238.771L782.627 238.771 777.493 246.511 687.83 246.511 691.53 239.64 687.906 225.407 714.144 225.407C715.578 225.407 717.013 224.765 718.108 223.783 719.089 222.689 719.731 221.254 719.731 219.744 719.731 218.422 719.203 216.988 718.108 215.818 717.013 214.723 715.465 214.156 714.144 214.156L690.548 214.156C689.453 214.383 688.245 214.723 687.151 215.251 686.056 215.818 684.848 216.459 683.753 217.214 681.676 218.989 679.827 221.254 678.732 224.123 677.75 226.841 677.41 229.786 677.863 232.542 678.203 233.826 678.505 235.034 679.071 236.242 679.487 237.337 680.166 238.431 680.808 239.3L664.423 269.578C661.479 268.181 658.081 266.973 654.457 266.104 650.983 265.236 647.019 264.783 643.093 264.896 639.053 264.896 634.901 265.425 630.861 266.633 626.822 267.841 622.858 269.464 619.158 271.767 615.42 274.07 612.173 276.826 609.191 279.884 606.36 283.055 603.943 286.415 602.094 290.04 600.244 293.551 598.922 297.137 598.054 300.761 597.186 304.348 596.733 307.859 596.619 311.143 596.619 313.862 596.959 316.731 597.488 319.675 598.054 322.507 598.809 325.452 599.904 328.283 602.207 334.097 605.718 339.571 610.399 344.139 615.005 348.745 620.366 352.294 626.142 354.597 629.087 355.767 631.956 356.56 634.901 357.089 637.732 357.655 640.564 357.844 643.32 357.844 646.151 357.844 648.982 357.655 651.852 357.089 654.796 356.56 657.628 355.767 660.573 354.597 666.387 352.294 671.747 348.745 676.315 344.139 680.921 339.571 684.432 334.097 686.735 328.283 687.906 325.452 688.698 322.507 689.227 319.675 689.793 316.731 689.982 313.862 689.982 311.143 689.982 304.235 688.472 297.364 685.301 291.134 682.243 285.018 677.637 279.658 672.087 275.505L678.732 263.16 738.155 315.296C738.683 315.711 739.363 315.938 740.005 315.938ZM666.84 282.942C669.558 285.207 672.087 287.963 674.164 291.134 676.24 294.306 677.863 297.817 678.845 301.63 679.827 305.329 680.28 309.293 680.166 312.993 679.94 316.806 679.185 320.431 677.977 323.828 676.769 327.113 675.032 330.397 672.729 333.455 670.426 336.513 667.708 339.118 664.537 341.421 661.365 343.724 657.854 345.347 654.155 346.442 650.53 347.537 646.906 348.103 643.32 348.103 641.13 348.103 638.94 347.877 636.637 347.424 634.334 347.122 632.069 346.442 629.766 345.461 625.16 343.724 620.894 340.893 617.308 337.268 613.57 333.644 610.852 329.378 609.002 324.81 608.096 322.507 607.454 320.204 607.001 317.901 606.586 315.636 606.473 313.333 606.473 311.143 606.36 308.501 606.699 305.782 607.228 303.064 607.907 300.195 608.889 297.364 610.286 294.532 611.72 291.663 613.457 288.945 615.647 286.415 617.95 284.037 620.479 281.847 623.311 279.96 626.255 278.11 629.313 276.713 632.484 275.807 635.656 274.825 638.827 274.297 641.998 274.297 645.169 274.183 648.227 274.523 650.983 275.165 653.815 275.731 656.42 276.713 658.723 277.808L642.338 303.48C640.262 303.933 638.412 305.027 637.09 306.764 635.769 308.387 635.127 310.464 635.24 312.653 635.429 314.73 636.335 316.731 637.732 318.241 639.28 319.789 641.243 320.77 643.32 320.884 646.604 321.186 649.775 319.562 651.399 316.731 652.154 315.409 652.607 313.748 652.607 312.125 652.493 310.388 651.965 308.84 651.059 307.632L666.84 282.942ZM742.496 306.311 685.301 256.024 774.208 256.024 746.989 306.311 742.496 306.311ZM790.744 272.447C784.93 275.92 780.022 280.979 776.511 286.868 773 292.758 771.151 299.553 770.849 306.311L757.824 306.311 783.42 259.195 790.744 272.447ZM817.624 302.045 803.429 276.826C805.808 275.807 808.337 275.052 811.169 274.636 813.924 274.07 816.869 273.957 819.927 274.183 822.985 274.41 826.043 275.052 829.101 276.033 832.159 277.128 835.104 278.563 837.746 280.413 840.465 282.262 842.881 284.452 844.957 286.982 847.147 289.398 848.77 292.116 850.092 294.834 851.413 297.59 852.395 300.422 852.923 303.14 853.489 305.896 853.716 308.614 853.716 311.143 853.716 313.333 853.489 315.636 853.036 317.901 852.621 320.204 851.942 322.507 851.073 324.81 849.337 329.378 846.505 333.644 842.881 337.268 839.257 340.893 834.915 343.724 830.309 345.461 828.12 346.442 825.703 347.122 823.514 347.424 821.249 347.877 818.946 348.103 816.756 348.103 814.793 348.217 812.603 348.103 810.527 347.764 808.337 347.424 806.261 346.895 804.071 346.14 799.805 344.706 795.765 342.403 792.141 339.231 788.668 336.06 785.799 332.36 783.836 328.283 782.854 326.207 782.099 324.13 781.419 322.054 780.891 319.978 780.551 317.901 780.324 315.938L812.603 315.938C813.811 315.523 814.982 314.843 816.001 313.862 816.982 312.767 817.851 311.559 818.379 310.162 818.832 308.727 819.059 307.217 818.832 305.782 818.719 304.348 818.153 303.14 817.624 302.045ZM804.184 306.311 780.778 306.311C781.117 301.516 782.514 296.722 785.044 292.342 787.649 287.963 791.16 284.226 795.086 281.621L806.676 302.158C806.902 302.498 807.016 302.951 807.016 303.48 807.016 303.933 806.902 304.461 806.676 305.027 806.374 305.443 805.921 305.782 805.506 306.009 805.053 306.311 804.6 306.311 804.184 306.311Z" fill="#FEFEFE"/><path d="M889.468 137.103C889.468 135.782 889.241 134.46 888.788 133.252 888.26 131.931 887.467 130.76 886.41 129.666 885.391 128.684 884.22 127.891 882.899 127.363 881.578 126.796 880.256 126.608 879.048 126.608L857.869 126.608 570.608 413.944 570.608 435.048C570.608 436.369 570.834 437.653 571.249 438.974 571.816 440.182 572.571 441.504 573.666 442.485 574.647 443.467 575.855 444.222 577.177 444.788 578.498 445.317 579.782 445.543 580.99 445.543L602.207 445.543 889.468 158.169 889.468 137.103Z" fill="#FF0000"/></g></svg>