<svg width="336" height="504" xmlns="http://www.w3.org/2000/svg" xmlns:xlink="http://www.w3.org/1999/xlink" xml:space="preserve" overflow="hidden"><defs><clipPath id="clip0"><rect x="472" y="108" width="336" height="504"/></clipPath></defs><g clip-path="url(#clip0)" transform="translate(-472 -108)"><path d="M0.377453 484.536C0.377453 486.801 0.830396 489.103 1.69854 491.406 2.67991 493.708 4.11423 495.897 5.85052 497.747 7.70004 499.596 9.88926 500.918 12.1917 501.899 14.4942 502.767 16.9099 503.22 19.0991 503.22L316.985 503.22C319.287 503.22 321.59 502.767 323.854 501.899 326.157 500.918 328.346 499.596 330.196 497.747 332.083 495.897 333.366 493.708 334.348 491.406 335.254 489.103 335.669 486.801 335.669 484.536L335.669 19.0614C335.669 16.7589 335.254 14.4564 334.348 12.154 333.366 9.88926 332.083 7.70004 330.196 5.81277 328.346 3.96325 326.157 2.52893 323.854 1.66079 321.59 0.792651 319.287 0.377453 316.985 0.377453L19.0991 0.377453C16.9099 0.377453 14.4942 0.792651 12.1917 1.66079 9.88926 2.52893 7.70004 3.96325 5.85052 5.81277 4.11423 7.70004 2.67991 9.88926 1.69854 12.154 0.830396 14.4564 0.377453 16.7589 0.377453 19.0614L0.377453 484.536Z" fill="#FFFFFF" transform="matrix(1.0002 0 0 1 472 108.129)"/><path d="M0.377453 484.498C0.377453 489.556 2.37795 494.237 5.88826 497.747 9.39857 501.257 14.1922 503.22 19.1369 503.22" stroke="#343434" stroke-width="0.754905" stroke-linejoin="round" fill="none" transform="matrix(1.0002 0 0 1 472 108.129)"/><path d="M19.0991 503.182 316.947 503.182" stroke="#343434" stroke-width="0.754905" stroke-linejoin="round" fill="none" transform="matrix(1.0002 0 0 1 472 108.129)"/><path d="M316.947 503.22C321.967 503.22 326.723 501.257 330.196 497.747 333.706 494.237 335.669 489.556 335.669 484.498" stroke="#343434" stroke-width="0.754905" stroke-linejoin="round" fill="none" transform="matrix(1.0002 0 0 1 472 108.129)"/><path d="M335.631 484.498 335.631 19.0614" stroke="#343434" stroke-width="0.754905" stroke-linejoin="round" fill="none" transform="matrix(1.0002 0 0 1 472 108.129)"/><path d="M335.669 19.0991C335.669 14.079 333.706 9.36083 330.196 5.85052 326.723 2.34021 321.967 0.377453 316.947 0.377453" stroke="#343434" stroke-width="0.754905" stroke-linejoin="round" fill="none" transform="matrix(1.0002 0 0 1 472 108.129)"/><path d="M316.947 0.377453 19.0991 0.377453" stroke="#343434" stroke-width="0.754905" stroke-linejoin="round" fill="none" transform="matrix(1.0002 0 0 1 472 108.129)"/><path d="M19.1369 0.377453C14.1922 0.377453 9.39857 2.34021 5.88826 5.85052 2.37795 9.36083 0.377453 14.079 0.377453 19.0991" stroke="#343434" stroke-width="0.754905" stroke-linejoin="round" fill="none" transform="matrix(1.0002 0 0 1 472 108.129)"/><path d="M0.377453 19.0614 0.377453 484.498" stroke="#343434" stroke-width="0.754905" stroke-linejoin="round" fill="none" transform="matrix(1.0002 0 0 1 472 108.129)"/><path d="M8.60592 484.536C8.60592 485.819 8.79465 487.141 9.36083 488.462 9.88926 489.669 10.6819 490.877 11.6633 491.972 12.7579 492.953 13.9658 493.708 15.2491 494.237 16.4569 494.803 17.778 495.029 19.0991 495.029L316.985 495.029C318.306 495.029 319.627 494.803 320.91 494.237 322.118 493.708 323.439 492.953 324.421 491.972 325.402 490.877 326.157 489.669 326.723 488.462 327.252 487.141 327.478 485.819 327.478 484.536L327.478 19.0614C327.478 17.7403 327.252 16.4192 326.723 15.1359 326.157 13.928 325.402 12.6069 324.421 11.6255 323.439 10.6442 322.118 9.77603 320.91 9.32308 319.627 8.79465 318.306 8.56818 316.985 8.56818L19.0991 8.56818C17.778 8.56818 16.4569 8.79465 15.2491 9.32308 13.9658 9.77603 12.7579 10.6442 11.6633 11.6255 10.6819 12.6069 9.88926 13.928 9.36083 15.1359 8.79465 16.4192 8.60592 17.7403 8.60592 19.0614L8.60592 484.536Z" fill="#0055FF" transform="matrix(1.0002 0 0 1 472 108.129)"/><path d="M83.0396 314.984C83.0396 316.419 83.4548 317.928 84.6627 319.023 85.7573 320.231 87.3048 320.684 88.7014 320.684L108.518 320.684C110.027 320.684 111.462 320.118 112.556 319.023 113.651 318.042 114.179 316.532 114.179 314.984L114.179 286.675 221.867 286.675 221.867 314.984C221.867 316.419 222.395 317.928 223.603 319.023 224.698 320.231 226.207 320.684 227.642 320.684L247.458 320.684C248.779 320.684 250.327 320.231 251.384 319.023 252.591 317.928 253.158 316.419 253.158 314.984L253.158 286.675C256.102 286.675 258.933 285.467 261.122 283.392 263.198 281.202 264.406 278.371 264.406 275.276 263.651 272.521 263.311 269.577 263.311 266.633 263.311 263.575 263.651 260.744 264.406 257.876L264.406 235.606C264.406 233.605 264.066 231.454 263.198 229.378 262.443 227.264 261.122 225.302 259.499 223.565 257.725 221.942 255.762 220.621 253.686 219.866 251.61 218.96 249.421 218.658 247.458 218.658L235.229 187.292C234.096 185.744 232.549 184.31 230.586 183.555 228.623 182.687 226.66 182.461 224.698 182.914L111.349 182.914C109.499 182.461 107.423 182.687 105.423 183.555 103.46 184.31 101.95 185.744 100.855 187.292L88.7014 218.658C86.6254 218.658 84.5494 218.96 82.3602 219.866 80.2842 220.621 78.3214 221.942 76.6984 223.565 74.9244 225.302 73.7543 227.264 72.8484 229.378 71.9802 231.454 71.6783 233.605 71.6783 235.606L71.6783 257.876C73.1881 263.575 73.1881 269.577 71.6783 275.276 71.6783 276.673 71.867 278.145 72.4332 279.579 72.9616 280.863 73.8675 282.297 74.9244 283.392 76.1322 284.486 77.4533 285.354 78.8876 285.92 80.171 286.449 81.6053 286.675 83.0396 286.675L83.0396 314.984ZM229.944 191.972 240.815 218.658C216.507 217.564 192.123 216.998 167.853 216.998 143.47 216.998 119.086 217.564 94.8539 218.658L106.102 191.972C106.517 190.991 107.197 190.123 108.178 189.444 109.159 188.802 110.254 188.575 111.349 188.575L224.698 188.575C225.792 188.575 226.887 188.802 227.868 189.444 228.85 190.123 229.491 190.991 229.944 191.972ZM98.6661 239.532C100.176 239.532 101.724 239.871 103.158 240.4 104.668 241.041 106.102 241.947 107.31 243.117 108.518 244.325 109.499 245.759 110.027 247.269 110.669 248.817 110.896 250.364 110.896 251.761 110.896 255.045 109.575 258.102 107.31 260.405 105.007 262.707 101.95 264.028 98.6661 264.028 97.2318 264.028 95.722 263.688 94.1745 263.122 92.6646 262.481 91.2303 261.612 90.0225 260.405 88.8146 259.197 87.9465 257.762 87.3048 256.253 86.7386 254.705 86.5122 253.195 86.5122 251.761 86.5122 250.364 86.7386 248.817 87.3048 247.269 87.9465 245.759 88.8146 244.325 90.0225 243.117 91.2303 241.947 92.6646 241.041 94.1745 240.4 95.722 239.871 97.2318 239.532 98.6661 239.532ZM237.418 239.532C238.814 239.532 240.362 239.871 241.909 240.4 243.419 241.041 244.854 241.947 246.061 243.117 247.232 244.325 248.137 245.759 248.779 247.269 249.308 248.817 249.647 250.364 249.647 251.761 249.647 255.045 248.326 258.102 246.061 260.405 243.759 262.707 240.702 264.028 237.418 264.028 234.096 264.028 231.039 262.707 228.736 260.405 226.434 258.102 225.113 255.045 225.113 251.761 225.113 248.477 226.434 245.42 228.736 243.117 231.039 240.853 234.096 239.532 237.418 239.532Z" fill="#FFFFFF" transform="matrix(1.0002 0 0 1 472 108.129)"/><path d="M33.9707 495.029 327.478 56.2027 327.478 19.0614C327.478 16.1927 326.383 13.5883 324.421 11.6255 322.458 9.66279 319.816 8.56818 316.985 8.56818L305.623 8.56818 8.60592 452.49 8.60592 484.536C8.60592 485.819 8.79465 487.141 9.36083 488.462 9.88926 489.669 10.6819 490.877 11.6633 491.972 12.7579 492.953 13.9658 493.708 15.2491 494.237 16.4569 494.803 17.778 495.029 19.0991 495.029L33.9707 495.029Z" fill="#FF0000" transform="matrix(1.0002 0 0 1 472 108.129)"/><path d="M121.351 520.054 121.351 559.951" stroke="#808080" stroke-width="0.754905" stroke-linejoin="round" stroke-dasharray="4.8314 4.8314" fill="none" transform="matrix(1.0002 0 0 1 472 108.129)"/></g></svg>