<svg width="752" height="753" xmlns="http://www.w3.org/2000/svg" xmlns:xlink="http://www.w3.org/1999/xlink" xml:space="preserve" overflow="hidden"><g transform="translate(-1824 -861)"><path d="M1.29655 708.566C1.29655 713.493 2.07448 718.679 4.27862 723.735 6.22345 728.792 9.33517 733.719 13.4841 737.868 17.6331 742.017 22.3007 745.128 27.4869 747.073 32.6731 749.148 37.8593 750.055 42.7862 750.055L708.306 750.055C713.104 750.055 718.29 749.148 723.735 747.073 728.792 745.128 733.719 742.017 737.608 737.868 741.757 733.719 744.869 728.792 746.814 723.735 749.018 718.679 749.796 713.493 749.796 708.566L749.796 43.0455C749.796 38.2483 749.018 32.8028 746.814 27.6166 744.869 22.56 741.757 17.6331 737.608 13.4841 733.719 9.59448 728.792 6.48276 723.735 4.27862 718.29 2.33379 713.104 1.29655 708.306 1.29655L42.7862 1.29655C37.8593 1.29655 32.6731 2.33379 27.4869 4.27862 22.3007 6.48276 17.6331 9.59448 13.4841 13.4841 9.33517 17.6331 6.22345 22.56 4.27862 27.6166 2.07448 32.8028 1.29655 38.2483 1.29655 43.0455L1.29655 708.566Z" fill="#FFFFFF" transform="matrix(1 0 0 1.00133 1824 861)"/><path d="M1.29655 708.436C1.29655 719.586 5.70483 730.088 13.6138 737.868 21.3931 745.647 31.8952 750.055 42.9159 750.055" stroke="#343434" stroke-width="2.5931" stroke-linejoin="round" fill="none" transform="matrix(1 0 0 1.00133 1824 861)"/><path d="M42.7862 749.926 708.177 749.926" stroke="#343434" stroke-width="2.5931" stroke-linejoin="round" fill="none" transform="matrix(1 0 0 1.00133 1824 861)"/><path d="M708.177 750.055C719.327 750.055 729.699 745.647 737.608 737.868 745.388 730.088 749.796 719.586 749.796 708.436" stroke="#343434" stroke-width="2.5931" stroke-linejoin="round" fill="none" transform="matrix(1 0 0 1.00133 1824 861)"/><path d="M749.666 708.436 749.666 43.0455" stroke="#343434" stroke-width="2.5931" stroke-linejoin="round" fill="none" transform="matrix(1 0 0 1.00133 1824 861)"/><path d="M749.796 43.1752C749.796 32.1545 745.388 21.3931 737.608 13.4841 729.699 5.70483 719.327 1.29655 708.177 1.29655" stroke="#343434" stroke-width="2.5931" stroke-linejoin="round" fill="none" transform="matrix(1 0 0 1.00133 1824 861)"/><path d="M708.177 1.29655 42.7862 1.29655" stroke="#343434" stroke-width="2.5931" stroke-linejoin="round" fill="none" transform="matrix(1 0 0 1.00133 1824 861)"/><path d="M42.9159 1.29655C31.8952 1.29655 21.3931 5.70483 13.6138 13.4841 5.70483 21.3931 1.29655 32.1545 1.29655 43.1752" stroke="#343434" stroke-width="2.5931" stroke-linejoin="round" fill="none" transform="matrix(1 0 0 1.00133 1824 861)"/><path d="M1.29655 43.0455 1.29655 708.436" stroke="#343434" stroke-width="2.5931" stroke-linejoin="round" fill="none" transform="matrix(1 0 0 1.00133 1824 861)"/><path d="M19.5779 708.566C19.5779 711.288 20.0966 714.141 21.0041 717.123 22.3007 719.846 23.9862 722.698 26.4497 724.902 28.6538 727.106 31.2469 729.051 34.229 730.088 37.211 731.255 40.0635 731.774 42.7862 731.774L708.306 731.774C710.899 731.774 713.882 731.255 716.864 730.088 719.846 729.051 722.439 727.106 724.643 724.902 727.106 722.698 728.792 719.846 729.959 717.123 730.996 714.141 731.515 711.288 731.515 708.566L731.515 43.0455C731.515 40.4524 730.996 37.4704 729.959 34.4883 728.792 31.5062 727.106 28.9131 724.643 26.4497 722.439 24.2455 719.846 22.56 716.864 21.3931 713.882 20.0966 710.899 19.7076 708.306 19.7076L42.7862 19.7076C40.0635 19.7076 37.211 20.0966 34.229 21.3931 31.2469 22.56 28.6538 24.2455 26.4497 26.4497 23.9862 28.9131 22.3007 31.5062 21.0041 34.4883 20.0966 37.4704 19.5779 40.1931 19.5779 43.0455L19.5779 708.566Z" fill="#0055FF" transform="matrix(1 0 0 1.00133 1824 861)"/><path d="M397.782 442.384 467.148 442.384C467.407 448.348 468.315 454.052 469.741 460.017 471.297 466.11 473.241 471.945 475.964 477.779 481.539 489.708 489.319 500.469 499.432 509.804 509.286 518.88 520.825 525.752 533.013 530.16 539.106 532.364 545.2 534.05 551.294 534.828 557.388 535.735 563.222 536.254 569.186 535.995 575.28 535.995 581.633 535.476 588.246 534.309 594.599 533.142 601.081 531.327 607.435 528.734 620.4 523.548 632.588 515.639 642.83 505.396 653.073 495.153 660.982 482.966 666.039 470 668.502 463.647 670.447 457.035 671.614 450.681 672.91 444.199 673.299 437.716 673.299 431.752 673.299 424.621 672.651 416.971 670.966 409.192 669.41 401.412 666.817 393.374 662.927 385.465 659.037 377.686 654.24 370.425 648.276 363.294 642.442 356.552 635.31 350.328 627.79 345.012 619.881 339.956 611.713 335.807 602.767 333.084 594.339 330.102 585.523 328.417 576.966 327.639 568.149 327.12 559.851 327.639 552.072 329.195 544.163 330.361 537.032 332.825 530.29 335.548L504.877 290.817 518.88 270.072 538.199 270.072C539.884 270.072 541.829 269.553 542.996 268.127 544.422 266.701 545.2 265.015 545.2 263.33L545.2 239.343C544.681 238.047 544.033 236.621 542.996 235.454 542.088 234.157 540.533 233.379 538.847 232.99 537.161 232.212 535.735 232.212 534.05 232.731 532.494 232.99 531.327 233.639 530.29 234.676L475.186 255.161C471.686 256.199 469.222 259.57 469.481 263.33 469.741 265.015 470.259 266.701 471.686 267.868 472.982 269.294 474.668 270.072 476.353 270.072L492.949 270.072 481.539 287.446 281.352 287.446 289.52 272.017 281.481 240.251 340.086 240.251C343.327 240.251 346.439 238.825 348.902 236.621 351.106 234.157 352.532 231.046 352.532 227.675 352.532 224.692 351.366 221.451 348.902 218.858 346.439 216.395 343.068 215.098 340.086 215.098L287.446 215.098C284.982 215.617 282.259 216.395 279.796 217.561 277.332 218.858 274.61 220.284 272.146 221.97 267.608 225.989 263.459 231.046 260.996 237.399 258.792 243.492 258.014 249.975 259.051 256.199 259.829 259.051 260.477 261.774 261.774 264.497 262.681 266.96 264.237 269.294 265.664 271.239L229.101 338.919C222.488 335.807 214.839 333.084 206.8 331.139 199.021 329.195 190.204 328.157 181.388 328.417 172.441 328.417 163.106 329.584 154.16 332.306 145.084 335.029 136.268 338.659 127.97 343.716 119.672 348.902 112.411 355.126 105.669 361.868 99.4455 368.999 94 376.519 89.8511 384.557 85.7021 392.466 82.8497 400.375 80.9048 408.544 78.96 416.452 77.9228 424.361 77.6635 431.752 77.6635 437.716 78.4414 444.199 79.6083 450.681 80.9048 457.035 82.5904 463.647 85.0538 470 90.1104 482.966 98.0193 495.153 108.392 505.396 118.764 515.639 130.692 523.548 143.528 528.734 150.141 531.327 156.623 533.142 163.106 534.309 169.459 535.476 175.812 535.995 181.906 535.995 188.259 535.995 194.612 535.476 200.966 534.309 207.578 533.142 213.931 531.327 220.414 528.734 233.379 523.548 245.437 515.639 255.55 505.396 265.923 495.153 273.702 482.966 278.888 470 281.481 463.647 283.297 457.035 284.464 450.681 285.63 444.199 286.149 437.716 286.149 431.752 286.149 416.323 282.778 400.894 275.647 387.021 268.775 373.407 258.532 361.349 246.215 352.144L260.996 324.527 393.633 440.957C394.8 441.865 396.356 442.384 397.782 442.384ZM234.417 368.739C240.51 373.796 246.215 379.89 250.753 387.021 255.421 394.152 259.051 401.931 261.255 410.488 263.459 418.657 264.497 427.603 264.237 435.771 263.719 444.328 262.033 452.367 259.31 460.017 256.588 467.407 252.698 474.668 247.641 481.539 242.455 488.281 236.361 494.116 229.36 499.302 222.229 504.488 214.32 508.119 206.152 510.453 197.983 512.916 189.945 514.213 181.906 514.213 176.979 514.213 172.182 513.694 166.996 512.657 161.81 512.008 156.753 510.453 151.697 508.248 141.324 504.488 131.859 498.135 123.821 489.967 115.523 481.928 109.429 472.464 105.28 462.221 103.335 457.035 101.909 451.978 100.872 446.792 99.9642 441.735 99.7048 436.549 99.7048 431.752 99.4455 425.788 100.223 419.694 101.39 413.6 102.817 407.247 105.021 400.894 108.132 394.541 111.374 388.188 115.263 382.094 120.19 376.519 125.247 371.203 130.952 366.276 137.305 362.127 143.788 357.978 150.659 354.866 157.79 352.792 164.792 350.588 171.923 349.421 178.924 349.421 186.055 349.161 192.927 349.939 199.021 351.366 205.374 352.662 211.208 354.866 216.265 357.2L179.702 414.637C175.164 415.545 171.015 418.008 168.033 421.898 165.051 425.528 163.625 430.196 163.884 435.123 164.273 439.661 166.348 444.199 169.459 447.57 172.96 450.941 177.239 453.145 181.906 453.404 189.297 454.052 196.298 450.422 199.928 444.199 201.614 441.217 202.651 437.457 202.651 433.826 202.392 430.066 201.225 426.566 199.15 423.843L234.417 368.739ZM403.357 420.861 275.647 308.579 474.149 308.579 413.341 420.861 403.357 420.861ZM511.101 345.272C498.135 353.051 487.115 364.331 479.335 377.426 471.426 390.651 467.407 405.821 466.629 420.861L437.586 420.861 494.764 315.71 511.101 345.272ZM571.131 411.396 539.366 355.126C544.681 352.792 550.386 351.106 556.739 350.199 562.833 348.902 569.446 348.643 576.188 349.161 583.059 349.68 589.931 351.106 596.673 353.31 603.545 355.774 610.157 358.886 615.992 363.035 622.086 367.184 627.531 372.11 632.069 377.686 636.996 383.131 640.626 389.225 643.608 395.319 646.59 401.412 648.795 407.766 649.961 413.859 651.128 419.953 651.647 426.047 651.647 431.752 651.647 436.549 651.128 441.735 650.221 446.792 649.184 451.978 647.757 457.035 645.813 462.221 641.923 472.464 635.57 481.928 627.531 489.967 619.363 498.135 609.768 504.488 599.396 508.248 594.599 510.453 589.153 512.008 584.226 512.657 579.17 513.694 574.113 514.213 569.186 514.213 564.778 514.472 559.851 514.213 555.313 513.435 550.386 512.657 545.719 511.49 540.792 509.804 531.327 506.563 522.251 501.506 514.213 494.375 506.433 487.374 500.08 479.076 495.672 470 493.468 465.332 491.782 460.665 490.226 455.997 489.059 451.459 488.281 446.792 487.763 442.384L559.851 442.384C562.574 441.476 565.167 439.92 567.501 437.716 569.705 435.253 571.65 432.659 572.817 429.548 573.854 426.306 574.372 422.935 573.854 419.694 573.595 416.452 572.298 413.859 571.131 411.396ZM541.051 420.861 488.8 420.861C489.578 410.229 492.69 399.468 498.395 389.744 504.229 379.89 512.008 371.592 520.825 365.757L546.626 411.655C547.145 412.433 547.404 413.341 547.404 414.637 547.404 415.545 547.145 416.712 546.626 418.008 545.978 418.916 544.941 419.694 544.033 420.212 542.996 420.861 542.088 420.861 541.051 420.861Z" fill="#FEFEFE" transform="matrix(1 0 0 1.00133 1824 861)"/><g><g><g><path d="M1866.5 880.265 2533.58 880.265C2536.29 880.265 2539.24 880.687 2542.2 881.955 2545.16 883.138 2547.78 884.912 2550.06 887.109 2552.43 889.559 2554.2 892.179 2555.38 895.136 2556.4 898.093 2556.9 900.797 2556.9 903.754L2556.9 1570.84C2556.9 1573.54 2556.4 1576.41 2555.38 1579.37 2554.2 1582.07 2552.43 1585.03 2550.06 1587.23 2547.78 1589.43 2545.16 1591.37 2542.2 1592.38 2539.24 1593.57 2536.29 1594.07 2533.58 1594.07L1866.5 1594.07C1863.8 1594.07 1860.92 1593.57 1857.97 1592.38 1855.01 1591.37 1852.31 1589.43 1850.11 1587.23 1847.66 1585.03 1845.97 1582.07 1844.7 1579.37 1843.77 1576.41 1843.26 1573.54 1843.26 1570.84L1843.26 903.754C1843.26 900.797 1843.77 898.093 1844.7 895.136 1845.97 892.179 1847.66 889.559 1850.11 887.109 1852.31 884.912 1855.01 883.138 1857.97 881.955 1860.92 880.687 1863.8 880.265 1866.5 880.265Z" fill="#0055FF"/><path d="M1866.5 880.265 2533.5 880.265" stroke="#010101" stroke-width="1.68989" stroke-linejoin="round" fill="none"/><path d="M2533.5 880.265C2539.67 880.265 2545.5 882.631 2549.98 887.193 2554.45 891.587 2556.9 897.417 2556.9 903.839" stroke="#010101" stroke-width="1.68989" stroke-linejoin="round" fill="none"/><path d="M2556.82 903.754 2556.82 1570.75" stroke="#010101" stroke-width="1.68989" stroke-linejoin="round" fill="none"/><path d="M2556.9 1570.75C2556.9 1576.92 2554.45 1582.84 2549.98 1587.23 2545.5 1591.62 2539.67 1594.07 2533.5 1594.07" stroke="#010101" stroke-width="1.68989" stroke-linejoin="round" fill="none"/><path d="M2533.5 1593.99 1866.5 1593.99" stroke="#010101" stroke-width="1.68989" stroke-linejoin="round" fill="none"/><path d="M1866.59 1594.07C1860.5 1594.07 1854.5 1591.62 1850.11 1587.23 1845.71 1582.84 1843.26 1576.92 1843.26 1570.75" stroke="#010101" stroke-width="1.68989" stroke-linejoin="round" fill="none"/><path d="M1843.26 1570.75 1843.26 903.754" stroke="#010101" stroke-width="1.68989" stroke-linejoin="round" fill="none"/><path d="M1843.26 903.839C1843.26 897.417 1845.71 891.587 1850.11 887.193 1854.5 882.631 1860.5 880.265 1866.59 880.265" stroke="#010101" stroke-width="1.68989" stroke-linejoin="round" fill="none"/><path d="M1824.93 1570.75C1824.93 1581.82 1829.32 1592.38 1837.27 1600.16 1845.04 1608.01 1855.6 1612.41 1866.59 1612.41" stroke="#343434" stroke-width="1.68989" stroke-linejoin="round" fill="none"/><path d="M1866.5 1612.32 2533.5 1612.32" stroke="#343434" stroke-width="1.68989" stroke-linejoin="round" fill="none"/><path d="M2533.5 1612.41C2544.65 1612.41 2555.13 1608.01 2562.99 1600.16 2570.85 1592.38 2575.24 1581.82 2575.24 1570.75" stroke="#343434" stroke-width="1.68989" stroke-linejoin="round" fill="none"/><path d="M2575.16 1570.75 2575.16 903.754" stroke="#343434" stroke-width="1.68989" stroke-linejoin="round" fill="none"/><path d="M2575.24 903.839C2575.24 892.77 2570.85 882.039 2562.99 874.097 2555.13 866.239 2544.65 861.845 2533.5 861.845" stroke="#343434" stroke-width="1.68989" stroke-linejoin="round" fill="none"/><path d="M2533.5 861.845 1866.5 861.845" stroke="#343434" stroke-width="1.68989" stroke-linejoin="round" fill="none"/><path d="M1866.59 861.845C1855.6 861.845 1845.04 866.239 1837.27 874.097 1829.32 882.039 1824.93 892.77 1824.93 903.839" stroke="#343434" stroke-width="1.68989" stroke-linejoin="round" fill="none"/><path d="M1824.93 903.754 1824.93 1570.75" stroke="#343434" stroke-width="1.68989" stroke-linejoin="round" fill="none"/><path d="M2265.15 1594.07 2290.16 1594.07 2290.16 880.265 2265.15 880.265 2265.15 1594.07Z" fill="#FEFEFE"/><path d="M2418.84 1144.82C2425.26 1144.82 2431.6 1142.03 2436.25 1137.63 2440.89 1132.99 2443.34 1126.65 2443.34 1120.06 2443.34 1113.64 2440.89 1107.3 2436.25 1102.65 2431.6 1098.01 2425.26 1095.3 2418.84 1095.3 2412.17 1095.3 2405.83 1098.01 2401.18 1102.65 2396.53 1107.3 2394.08 1113.64 2394.08 1120.06 2394.08 1126.65 2396.53 1132.99 2401.18 1137.63 2405.83 1142.03 2412.17 1144.82 2418.84 1144.82Z" fill="#FEFEFE"/><path d="M2418.76 1144.82C2425.26 1144.82 2431.6 1142.03 2436.25 1137.63 2440.89 1132.99 2443.34 1126.65 2443.34 1120.06 2443.34 1113.64 2440.89 1107.3 2436.25 1102.65 2431.6 1098.01 2425.26 1095.3 2418.76 1095.3" stroke="#FEFEFE" stroke-width="1.68989" stroke-linejoin="round" fill="none"/><path d="M2418.84 1095.3C2412.25 1095.3 2405.83 1098.01 2401.18 1102.65 2396.53 1107.3 2394.08 1113.64 2394.08 1120.06 2394.08 1126.65 2396.53 1132.99 2401.18 1137.63 2405.83 1142.03 2412.25 1144.82 2418.84 1144.82" stroke="#FEFEFE" stroke-width="1.68989" stroke-linejoin="round" fill="none"/><path d="M2363.24 1377.85C2370.59 1380.05 2378.62 1379.29 2385.47 1375.4 2392.14 1371.77 2397.21 1365.6 2399.49 1358L2399.66 1358 2409.21 1315.92 2426.87 1283.13 2426.61 1282.88C2427.37 1281.7 2428.56 1280.68 2430.08 1280.68 2431.51 1280.68 2432.95 1281.7 2433.71 1282.88L2433.96 1283.13 2445.46 1320.31 2488.38 1376.84C2490.83 1375.4 2493.28 1373.2 2495.48 1370.25 2497.42 1367.54 2499.11 1364.42 2499.87 1360.7 2500.8 1357.32 2500.8 1353.6 2500.12 1350.22 2499.62 1346.76 2498.35 1343.8 2496.66 1341.18L2496.91 1340.93 2472.16 1308.82 2456.95 1247.9 2458.38 1191.29 2483.23 1209.88 2483.23 1245.2 2482.97 1245.2C2482.97 1246.21 2483.48 1247.39 2484.41 1248.15 2485.68 1249.17 2486.86 1248.91 2487.87 1248.66L2487.87 1248.91 2495.73 1244.94C2499.36 1243 2501.56 1239.37 2501.81 1235.39L2501.81 1235.23 2501.81 1195.94 2449.85 1150.22 2450.1 1150.22C2446.22 1146.76 2440.56 1146 2435.91 1148.96L2410.22 1163.15 2346.85 1247.9 2346.85 1247.65C2345.84 1248.66 2345.84 1249.84 2346.34 1250.86 2346.85 1251.87 2347.78 1252.55 2349.05 1252.29L2349.3 1252.29 2357.16 1252.29C2359.36 1252.55 2361.55 1251.62 2363.24 1250.1L2363.24 1249.84 2405.57 1207.43 2410.22 1247.9 2383.01 1299.27 2363.24 1377.85Z" fill="#FEFEFE"/><path d="M2501.81 1195.94 2449.85 1150.14" stroke="#FEFEFE" stroke-width="1.68989" stroke-linejoin="round" fill="none"/><path d="M2449.85 1150.14 2450.1 1150.14" stroke="#FEFEFE" stroke-width="1.68989" stroke-linejoin="round" fill="none"/><path d="M2450.19 1150.22C2446.22 1146.68 2440.56 1145.92 2435.91 1148.96" stroke="#FEFEFE" stroke-width="1.68989" stroke-linejoin="round" fill="none"/><path d="M2436.16 1148.79 2435.82 1149.13" stroke="#FEFEFE" stroke-width="1.68989" stroke-linejoin="round" fill="none"/><path d="M2435.99 1148.87 2410.22 1163.15" stroke="#FEFEFE" stroke-width="1.68989" stroke-linejoin="round" fill="none"/><path d="M2410.31 1163.07 2346.85 1247.82" stroke="#FEFEFE" stroke-width="1.68989" stroke-linejoin="round" fill="none"/><path d="M2027.38 1158C2030.08 1160.03 2033.46 1161.72 2037.6 1162.65 2041.57 1163.41 2045.71 1163.41 2049.85 1162.48 2054.25 1161.21 2057.96 1159.27 2061.09 1156.56 2064.05 1154.11 2066.5 1150.9 2068.02 1147.77L2081.2 1147.77 2104.18 1147.77 2111.53 1147.77C2112.04 1149.97 2112.8 1152.42 2113.98 1154.87 2115 1157.07 2116.44 1159.52 2118.12 1161.72 2121.84 1166.11 2126.74 1169.74 2132.32 1172.19 2137.98 1174.39 2144.06 1175.15 2149.73 1174.22 2152.43 1173.97 2155.13 1173.21 2157.5 1172.19 2159.95 1171.26 2162.15 1170 2164.17 1168.81 2166.12 1167.55 2168.06 1165.86 2169.75 1163.91 2171.53 1162.22 2173.22 1160.03 2174.65 1157.58 2177.61 1152.67 2179.3 1146.76 2179.3 1140.68 2179.3 1134.51 2177.61 1128.68 2174.91 1123.78 2173.47 1121.07 2171.95 1118.88 2170.26 1117.19 2168.31 1115.24 2166.62 1113.47 2164.6 1112.29 2162.65 1110.77 2160.46 1109.58 2158.01 1108.57 2155.56 1107.64 2152.85 1106.88 2150.23 1106.37 2144.57 1105.7 2138.49 1106.12 2132.83 1108.4 2126.91 1110.6 2122.27 1114.23 2118.63 1118.62 2116.69 1120.82 2115.42 1123.02 2114.24 1125.47 2112.97 1127.66 2112.29 1130.11 2111.79 1132.31L2070.22 1132.31C2070.64 1124.28 2070.47 1116.17 2069.46 1108.15 2068.7 1100.03 2067.51 1091.92 2065.57 1084.15L2067.01 1083.64C2068.44 1083.39 2069.71 1082.63 2070.64 1081.19 2071.4 1079.76 2071.65 1077.98 2071.4 1076.8L2068.44 1064.8 2071.15 1064.29 2070.47 1060.41 2065.99 1061.34 2063.12 1048.66C2063.12 1047.9 2062.61 1047.23 2061.85 1046.72 2061.09 1046.47 2060.42 1046.21 2059.65 1046.47L2057.71 1046.97C2057.2 1046.97 2056.44 1047.39 2056.02 1048.16 2055.51 1048.92 2055.51 1049.59 2055.51 1050.35L2058.73 1063.11 2053.57 1064.29 2050.61 1051.62C2050.36 1050.86 2050.11 1050.1 2049.35 1049.59 2048.92 1049.42 2048.67 1049.42 2048.16 1049.42 2047.91 1049.17 2047.4 1049.42 2047.15 1049.42L2045.21 1049.84C2044.53 1049.84 2044.02 1050.35 2043.52 1051.11 2043.01 1051.87 2043.01 1052.55 2043.01 1053.31L2046.22 1066.07 2041.32 1067.25 2042.25 1070.88 2045.46 1070.21 2048.16 1082.21C2048.67 1083.64 2049.35 1084.91 2050.87 1085.84 2052.3 1086.6 2053.82 1086.85 2055.26 1086.6L2056.7 1086.09C2060.42 1101.3 2061.85 1116.93 2061.34 1132.31L2023.41 1132.31 1987.5 1081.45 2012.17 988.164 2038.62 988.164 2043.26 974.898 1998.99 974.898 1964.51 1106.12C1962.06 1106.12 1959.61 1106.37 1957.16 1106.88 1954.46 1107.39 1952.01 1108.15 1949.31 1109.33 1944.15 1111.78 1939.5 1115.41 1935.87 1120.31 1932.07 1125.21 1930.12 1130.88 1929.36 1136.54 1929.2 1139.41 1929.2 1142.11 1929.62 1144.82 1929.87 1147.27 1930.38 1149.72 1931.39 1151.91 1932.07 1154.11 1933.08 1156.31 1934.52 1158.5 1935.87 1160.7 1937.56 1162.9 1939.76 1164.84 1943.64 1168.81 1948.8 1171.94 1954.97 1173.46 1960.8 1175.15 1966.71 1174.9 1972.29 1173.46 1974.99 1172.95 1977.44 1171.77 1979.89 1170.5 1982.09 1169.32 1984.03 1167.8 1985.98 1166.36 1987.75 1164.84 1989.44 1163.15 1990.88 1160.96 1992.65 1159.01 1993.83 1156.56 1995.1 1153.86 1997.3 1148.7 1998.23 1142.87 1997.72 1136.71 1997.04 1130.62 1994.85 1124.96 1991.38 1120.31 1989.69 1118.12 1988 1116.17 1985.98 1114.48 1984.03 1112.79 1981.84 1111.27 1979.89 1110.34L1983.1 1097.58 2018.76 1147.77 2021.46 1151.66C2023.24 1153.86 2025.18 1156.05 2027.38 1158ZM2150.23 1147.77C2151.16 1147.01 2152.18 1146 2152.85 1144.56 2153.87 1143.13 2154.12 1141.61 2154.12 1139.92 2153.87 1138.23 2153.36 1136.54 2152.43 1135.27 2151.67 1134.09 2150.4 1133.07 2149.47 1132.31L2124.72 1132.31C2125.98 1129.61 2127.67 1126.99 2130.12 1124.79 2132.57 1122.34 2135.78 1120.31 2139.16 1119.38 2142.88 1118.37 2146.26 1118.37 2149.73 1119.13 2153.11 1119.89 2155.81 1121.33 2158.26 1123.27 2160.46 1124.96 2162.65 1127.41 2164.17 1130.37 2165.86 1133.58 2166.88 1136.96 2166.62 1140.68 2166.62 1144.31 2165.61 1147.77 2163.92 1150.73 2162.4 1153.86 2160.2 1156.05 2157.75 1157.74 2155.56 1159.52 2152.68 1160.96 2149.22 1161.72 2145.75 1162.22 2142.12 1162.22 2138.66 1160.96 2135.28 1160.03 2132.07 1158 2129.62 1155.55 2127.17 1153.1 2125.73 1150.48 2124.72 1147.77L2150.23 1147.77ZM1961.05 1118.88 1954.97 1142.62C1955.22 1144.06 1955.9 1145.58 1957.16 1146.76 1958.35 1148.03 1959.87 1148.7 1961.3 1149.21 1962.74 1149.46 1964.51 1149.46 1966.2 1148.96 1967.64 1148.7 1969.16 1147.77 1970.09 1146.51L1976.43 1123.02C1978.71 1124.79 1980.91 1126.99 1982.6 1130.11 1984.29 1133.07 1985.3 1136.54 1985.3 1140.17 1985.3 1143.8 1984.54 1147.27 1982.85 1150.22 1981.33 1153.35 1979.13 1155.8 1976.93 1157.58 1974.48 1159.27 1971.78 1160.7 1968.4 1161.46 1965.19 1162.22 1961.56 1162.22 1958.09 1161.46 1954.46 1160.45 1951.5 1158.5 1948.8 1156.31 1946.35 1154.11 1944.66 1151.41 1943.47 1148.7 1942.46 1146 1941.7 1142.87 1941.95 1139.41 1942.21 1136.03 1943.22 1132.56 1944.91 1129.44 1946.85 1126.23 1949.31 1123.78 1952.26 1122.09 1953.7 1121.07 1955.22 1120.31 1956.66 1119.89 1957.42 1119.64 1958.09 1119.38 1958.85 1119.38 1959.36 1119.13 1959.61 1119.13 1960.04 1119.13 1960.04 1119.13 1960.29 1119.13 1960.54 1118.88L1960.8 1118.88 1961.05 1118.88ZM2029.32 1147.77 2057.46 1147.77C2056.02 1149.46 2053.99 1151.15 2051.63 1152.42 2049.18 1153.6 2046.22 1154.36 2043.26 1154.36 2040.31 1154.36 2037.6 1153.6 2035.24 1152.42 2032.79 1151.15 2030.76 1149.46 2029.32 1147.77Z" fill="#FFFFFF"/><path d="M2067.68 1441.39 2110.94 1441.39C2110.94 1445.03 2111.7 1448.74 2112.46 1452.38 2113.39 1456.35 2114.91 1459.98 2116.35 1463.61 2119.73 1470.96 2124.63 1477.81 2131.05 1483.47 2137.14 1489.13 2144.49 1493.52 2152.09 1496.23 2155.72 1497.67 2159.7 1498.43 2163.33 1499.1 2167.22 1499.61 2170.93 1499.86 2174.57 1499.86 2178.54 1499.86 2182.43 1499.35 2186.31 1498.68 2190.45 1497.92 2194.42 1496.9 2198.56 1495.21 2206.68 1492 2214.2 1487.1 2220.62 1480.77 2226.95 1474.43 2231.85 1466.82 2234.98 1458.71 2236.5 1454.57 2237.68 1450.69 2238.44 1446.55 2239.21 1442.57 2239.71 1438.69 2239.71 1434.72 2239.71 1430.32 2239.21 1425.42 2238.19 1420.52 2237.01 1415.87 2235.49 1410.72 2233.04 1405.82 2230.59 1401.17 2227.71 1396.53 2224 1392.13 2220.11 1387.74 2215.97 1384.02 2211.07 1380.64 2206.17 1377.43 2201.01 1374.98 2195.61 1373.04 2190.28 1371.35 2184.88 1370.33 2179.47 1369.83 2174.06 1369.57 2168.74 1369.83 2163.84 1370.59 2158.94 1371.6 2154.54 1373.04 2150.32 1374.73L2134.43 1346.84 2143.05 1333.92 2155.22 1333.92C2156.23 1333.92 2157.41 1333.66 2158.18 1332.65 2159.19 1331.89 2159.7 1330.7 2159.7 1329.69L2159.7 1314.57C2159.19 1313.04 2157.92 1311.36 2155.72 1310.59 2154.8 1310.43 2153.53 1310.43 2152.6 1310.59 2151.58 1310.85 2150.82 1311.36 2150.32 1311.86L2116.1 1324.62C2113.65 1325.3 2112.21 1327.24 2112.46 1329.44 2112.72 1331.89 2114.41 1333.66 2116.6 1333.92L2127.08 1333.92 2119.98 1344.65 1995.02 1344.65 2000.09 1335.1 1995.19 1315.24 2031.69 1315.24C2036.08 1315.24 2039.55 1311.61 2039.55 1307.47 2039.55 1305.52 2038.78 1303.5 2037.35 1301.81 2035.57 1300.37 2033.63 1299.61 2031.69 1299.61L1998.9 1299.61C1995.69 1300.37 1992.57 1301.55 1989.36 1304 1986.4 1306.2 1983.95 1309.67 1982.51 1313.3 1981.07 1317.27 1980.57 1321.41 1981.24 1325.04 1981.75 1329.01 1983.44 1332.14 1985.22 1334.59L1962.4 1376.67C1958.26 1374.73 1953.61 1373.04 1948.71 1371.77 1943.56 1370.84 1938.24 1370.08 1932.83 1370.08 1927.17 1370.33 1921.34 1371.09 1915.68 1372.78 1910.1 1374.22 1904.44 1376.67 1899.28 1379.88 1894.13 1383.09 1889.48 1386.72 1885.6 1391.12 1881.71 1395.51 1878.25 1400.16 1875.54 1405.31 1873.09 1410.21 1871.15 1415.11 1869.96 1420.27 1868.7 1425.17 1868.19 1430.07 1868.19 1434.72 1868.19 1438.69 1868.44 1442.57 1869.2 1446.55 1869.96 1450.69 1871.15 1454.57 1872.67 1458.71 1875.79 1466.82 1880.7 1474.43 1887.03 1480.77 1893.71 1487.1 1901.06 1492 1909.09 1495.21 1913.23 1496.9 1917.2 1497.92 1921.34 1498.68 1925.22 1499.35 1929.36 1499.86 1933.08 1499.86 1936.97 1499.86 1940.94 1499.35 1945.08 1498.68 1948.97 1497.92 1953.11 1496.9 1957.08 1495.21 1965.11 1492 1972.71 1487.1 1979.05 1480.77 1985.47 1474.43 1990.37 1466.82 1993.5 1458.71 1995.19 1454.57 1996.2 1450.69 1996.96 1446.55 1997.64 1442.57 1998.14 1438.69 1998.14 1434.72 1998.14 1425.17 1995.95 1415.62 1991.55 1406.83 1987.16 1398.22 1980.82 1390.61 1973.22 1385.03L1982.51 1367.88 2065.23 1440.38C2065.65 1441.14 2066.67 1441.39 2067.68 1441.39ZM1965.87 1395.51C1969.5 1398.72 1972.96 1402.36 1975.92 1406.83 1978.79 1411.23 1981.07 1416.13 1982.51 1421.45 1983.95 1426.61 1984.45 1432.01 1984.2 1437.51 1983.95 1442.57 1983.02 1447.73 1981.24 1452.38 1979.55 1457.02 1977.36 1461.67 1974.15 1465.81 1971.02 1470.04 1967.05 1473.92 1962.66 1476.88 1958.01 1480.01 1953.36 1482.46 1948.21 1483.98 1943.14 1485.41 1937.98 1486.17 1933.08 1486.17 1927 1486.17 1920.58 1485.16 1914.24 1482.71 1907.9 1480.01 1901.73 1476.12 1896.83 1471.22 1891.68 1466.06 1887.79 1460.23 1885.34 1453.64 1882.64 1447.22 1881.71 1440.88 1881.71 1434.72 1881.71 1431 1881.96 1427.37 1882.89 1423.39 1883.65 1419.51 1885.09 1415.37 1887.03 1411.48 1889.06 1407.51 1891.51 1403.88 1894.64 1400.41 1897.59 1396.78 1901.23 1393.82 1905.2 1391.37 1909.34 1388.67 1913.48 1386.72 1917.87 1385.54 1922.27 1384.02 1927 1383.34 1931.39 1383.34 1935.79 1383.34 1939.93 1383.51 1943.81 1384.53 1947.78 1385.54 1951.16 1386.72 1954.63 1388.16L1931.65 1423.9C1928.69 1424.66 1926.24 1426.1 1924.29 1428.55 1922.52 1430.75 1921.59 1433.7 1921.84 1436.74 1922.1 1439.87 1923.28 1442.57 1925.22 1444.77 1927.42 1446.8 1930.12 1448.24 1933.08 1448.49 1937.73 1448.74 1942.12 1446.55 1944.32 1442.57 1945.59 1440.63 1946.01 1438.43 1946.01 1435.98 1945.76 1433.7 1945.08 1431.51 1943.81 1429.82L1965.87 1395.51ZM2071.31 1428.04 1991.55 1358.08 2115.34 1358.08 2077.4 1428.04 2071.31 1428.04ZM2138.4 1380.64C2130.29 1385.71 2123.45 1392.64 2118.55 1400.92 2113.65 1409.2 2110.94 1418.58 2110.69 1428.04L2092.61 1428.04 2128.1 1362.47 2138.4 1380.64ZM2175.83 1421.96 2155.98 1386.72C2159.19 1385.54 2162.82 1384.53 2166.79 1383.77 2170.68 1383.09 2174.82 1382.84 2178.96 1383.34 2187.58 1383.77 2196.11 1386.72 2203.97 1391.88 2211.49 1397.29 2217.41 1404.13 2221.04 1411.9 2222.81 1415.87 2224.25 1419.76 2225.01 1423.65 2225.69 1427.37 2225.94 1431.25 2225.94 1434.72 2225.94 1440.88 2225.01 1447.22 2222.31 1453.64 2219.86 1460.23 2215.97 1466.06 2211.07 1471.22 2205.91 1476.12 2199.75 1480.01 2193.41 1482.71 2187.07 1485.16 2180.74 1486.17 2174.57 1486.17 2168.99 1486.43 2162.82 1485.67 2156.99 1483.47 2150.82 1481.53 2145.25 1478.32 2140.35 1473.92 2135.45 1469.53 2131.48 1464.37 2128.6 1458.71 2125.9 1452.88 2124.46 1446.97 2123.96 1441.39L2168.74 1441.39C2170.43 1440.88 2172.12 1439.87 2173.64 1438.43 2174.82 1437.25 2176.09 1435.39 2176.76 1433.2 2177.52 1431.25 2177.78 1429.31 2177.52 1427.37 2177.27 1425.42 2176.51 1423.39 2175.83 1421.96ZM2156.99 1428.04 2124.46 1428.04C2124.88 1421.2 2126.83 1414.61 2130.55 1408.52 2133.93 1402.36 2138.83 1397.29 2144.49 1393.57L2160.37 1422.21C2161.13 1423.23 2161.39 1424.66 2160.37 1426.1 2159.7 1427.62 2158.18 1428.04 2156.99 1428.04Z" fill="#FEFEFE"/><path d="M2556.9 903.754C2556.9 901.05 2556.4 898.093 2555.38 895.136 2554.2 892.179 2552.43 889.559 2550.06 887.109 2547.78 884.912 2545.16 883.138 2542.2 881.955 2539.24 880.687 2536.29 880.265 2533.58 880.265L2486.18 880.265 1843.26 1523.35 1843.26 1570.84C1843.26 1573.54 1843.77 1576.41 1844.7 1579.37 1845.97 1582.07 1847.66 1585.03 1850.11 1587.23 1852.31 1589.43 1855.01 1591.37 1857.97 1592.38 1860.92 1593.57 1863.8 1594.07 1866.5 1594.07L1913.99 1594.07 2556.9 951.156 2556.9 903.754Z" fill="#FF0000"/></g></g></g></g></svg>