<?xml version="1.0" encoding="UTF-8" standalone="no"?>
<svg
   viewBox="0 0 307.08 307.18"
   version="1.1"
   id="svg50"
   sodipodi:docname="Spain traffic signal s45, 2023 set.svg"
   inkscape:version="1.1.2 (b8e25be833, 2022-02-05)"
   xmlns:inkscape="http://www.inkscape.org/namespaces/inkscape"
   xmlns:sodipodi="http://sodipodi.sourceforge.net/DTD/sodipodi-0.dtd"
   xmlns="http://www.w3.org/2000/svg"
   xmlns:svg="http://www.w3.org/2000/svg">
  <sodipodi:namedview
     id="namedview52"
     pagecolor="#ffffff"
     bordercolor="#666666"
     borderopacity="1.0"
     inkscape:pageshadow="2"
     inkscape:pageopacity="0.0"
     inkscape:pagecheckerboard="0"
     showgrid="false"
     inkscape:object-paths="true"
     inkscape:snap-intersection-paths="true"
     inkscape:snap-smooth-nodes="true"
     inkscape:snap-bbox="true"
     inkscape:snap-bbox-edge-midpoints="true"
     inkscape:bbox-nodes="true"
     showguides="true"
     inkscape:guide-bbox="true"
     inkscape:zoom="1.8599593"
     inkscape:cx="167.47678"
     inkscape:cy="166.93914"
     inkscape:window-width="1920"
     inkscape:window-height="1001"
     inkscape:window-x="-9"
     inkscape:window-y="-9"
     inkscape:window-maximized="1"
     inkscape:current-layer="svg50">
    <sodipodi:guide
       position="281.32822,44.539994"
       orientation="0,-1"
       id="guide888" />
    <sodipodi:guide
       position="7.6400003,299.44"
       orientation="1,0"
       id="guide890" />
    <sodipodi:guide
       position="299.34001,299.44"
       orientation="0,-1"
       id="guide892" />
  </sodipodi:namedview>
  <defs
     id="defs4">
    <style
       id="style2">.cls-1{fill:#fff;}.cls-1,.cls-3,.cls-4{fill-rule:evenodd;}.cls-2{fill:none;stroke:#343434;stroke-linejoin:round;stroke-width:0.48px;}.cls-3{fill:#05f;}.cls-4{fill:#010101;}</style>
  </defs>
  <g
     id="Capa_2"
     data-name="Capa 2">
    <g
       id="Capa_1-2"
       data-name="Capa 1">
      <path
         class="cls-1"
         d="m 0.24,289.84 a 17.44,17.44 0 0 0 1.1,6.3 20.07,20.07 0 0 0 3.8,5.8 18.2,18.2 0 0 0 5.8,3.8 18,18 0 0 0 6.3,1.2 h 272.6 a 17.47,17.47 0 0 0 6.2,-1.2 18.2,18.2 0 0 0 5.8,-3.8 16.67,16.67 0 0 0 3.8,-5.8 17.59,17.59 0 0 0 1.2,-6.3 V 17.34 a 18,18 0 0 0 -1.2,-6.3 16.67,16.67 0 0 0 -3.8,-5.8 18.2,18.2 0 0 0 -5.8,-3.8 17.47,17.47 0 0 0 -6.2,-1.2 H 17.24 a 18,18 0 0 0 -6.3,1.2 18.2,18.2 0 0 0 -5.8,3.8 20.07,20.07 0 0 0 -3.8,5.76 17.82,17.82 0 0 0 -1.1,6.3 v 272.5"
         id="path6" />
      <path
         class="cls-2"
         d="m 0.24,289.84 a 16.92,16.92 0 0 0 4.9,12.1 17.19,17.19 0 0 0 12.1,5"
         id="path8" />
      <line
         class="cls-2"
         x1="17.24"
         y1="306.94"
         x2="289.84"
         y2="306.94"
         id="line10" />
      <path
         class="cls-2"
         d="m 289.84,306.94 a 17.07,17.07 0 0 0 17,-17.1"
         id="path12" />
      <line
         class="cls-2"
         x1="306.84"
         y1="289.84"
         x2="306.84"
         y2="17.34"
         id="line14" />
      <path
         class="cls-2"
         d="m 306.84,17.34 a 17.19,17.19 0 0 0 -5,-12.1 17,17 0 0 0 -12,-5"
         id="path16" />
      <line
         class="cls-2"
         x1="289.84"
         y1="0.23999999"
         x2="17.24"
         y2="0.23999999"
         id="line18" />
      <path
         class="cls-2"
         d="m 17.24,0.24 a 17.19,17.19 0 0 0 -12.1,5 17.09,17.09 0 0 0 -4.9,12.1"
         id="path20" />
      <line
         class="cls-2"
         x1="0.23999999"
         y1="17.34"
         x2="0.23999999"
         y2="289.84"
         id="line22" />
      <path
         class="cls-3"
         d="m 7.64,289.84 a 11.49,11.49 0 0 0 0.7,3.6 11.08,11.08 0 0 0 2.1,3.2 11.55,11.55 0 0 0 3.3,2.1 9.1,9.1 0 0 0 3.5,0.7 h 272.6 a 9.1,9.1 0 0 0 3.5,-0.7 9.88,9.88 0 0 0 3.2,-2.1 9.35,9.35 0 0 0 2.1,-3.2 9.22,9.22 0 0 0 0.7,-3.6 V 17.34 a 8.42,8.42 0 0 0 -0.7,-3.5 9.73,9.73 0 0 0 -2.1,-3.3 9.88,9.88 0 0 0 -3.2,-2.1 9.1,9.1 0 0 0 -3.5,-0.7 H 17.24 a 9.1,9.1 0 0 0 -3.5,0.7 11.55,11.55 0 0 0 -3.3,2.1 11.55,11.55 0 0 0 -2.1,3.3 10.39,10.39 0 0 0 -0.7,3.5 v 272.5"
         id="path24"
         style="display:inline" />
      <polyline
         class="cls-1"
         points="153.54 7.74 299.34 262.64 7.64 262.64 153.54 7.74"
         id="polyline26"
         style="display:inline" />
      <path
         d="m 276.14001,242.13999 h -17 l 5.2,13.6 h 17.8 l -6,-13.6"
         style="fill:#010101;fill-opacity:1;fill-rule:evenodd;stroke:none;stroke-width:0.999998"
         id="path68-9" />
      <path
         d="m 243.74001,242.13999 h -17.1 l 3.6,13.6 h 17.9 l -4.4,-13.6"
         style="fill:#010101;fill-opacity:1;fill-rule:evenodd;stroke:none;stroke-width:0.999998"
         id="path72-5" />
      <path
         d="m 211.24001,242.13999 h -17.1 l 2,13.6 h 17.9 l -2.8,-13.6"
         style="fill:#010101;fill-opacity:1;fill-rule:evenodd;stroke:none;stroke-width:0.999998"
         id="path76-2" />
      <path
         d="m 178.74001,242.13999 h -17 l 0.4,13.6 h 17.8 l -1.2,-13.6"
         style="fill:#010101;fill-opacity:1;fill-rule:evenodd;stroke:none;stroke-width:0.999998"
         id="path80-6" />
      <path
         d="M 146.24001,242.13999 H 129.24 l -1.2,13.6 h 17.80001 l 0.4,-13.6"
         style="fill:#010101;fill-opacity:1;fill-rule:evenodd;stroke:none;stroke-width:0.999998"
         id="path84-6" />
      <path
         d="m 113.74001,242.13999 h -17 l -2.8,13.6 h 17.8 l 2,-13.6"
         style="fill:#010101;fill-opacity:1;fill-rule:evenodd;stroke:none;stroke-width:0.999998"
         id="path88-2" />
      <path
         d="m 81.34,242.13999 h -17.1 l -4.4,13.6 h 17.9 l 3.6,-13.6"
         style="fill:#010101;fill-opacity:1;fill-rule:evenodd;stroke:none;stroke-width:0.999998"
         id="path92-9" />
      <path
         d="m 48.84,242.13999 h -17 l -6.1,13.6 h 17.90001 l 5.19999,-13.6"
         style="fill:#010101;fill-opacity:1;fill-rule:evenodd;stroke:none;stroke-width:0.999998"
         id="path96-7" />
      <path
         d="m 156.84001,77.040001 c 0,3.200002 1.3,6.200002 3.5,8.499997 2.3,2.200005 5.3,3.500003 8.5,3.500003 3.2,0 6.2,-1.299998 8.5,-3.500003 2.2,-2.299995 3.5,-5.299995 3.5,-8.499997 0,-3.200003 -1.3,-6.200003 -3.5,-8.499998 -2.3,-2.200005 -5.3,-3.500002 -8.5,-3.500002 -3.2,0 -6.2,1.299997 -8.5,3.500002 -2.2,2.299995 -3.5,5.299995 -3.5,8.499998"
         style="fill:#010101;fill-opacity:1;fill-rule:evenodd;stroke:none;stroke-width:0.999998"
         id="path100-0" />
      <path
         d="m 139.84001,156.44 21.6,45.3 9.2,-16.7 -12,-26.1 c -0.1,-0.3 -0.2,-0.7 -0.3,-1.1 0,-0.4 0.1,-0.8 0.3,-1.2 0.1,-0.4 0.4,-0.8 0.7,-1.1 0.3,-0.3 0.6,-0.5 1,-0.6 l 27.5,-10.1 c 1,-0.4 2,-0.9 3,-1.7 0.9,-0.8 1.7,-1.7 2.3,-2.8 0.6,-1.1 1,-2.2 1.2,-3.4 0.2,-1.2 0.2,-2.4 0,-3.4 l -6.4,-34.39999 c -0.7,-4 -3.6,-7.3 -7.5,-8.5 -1.8,-0.600003 -3.9,-0.700003 -5.9,-0.300003 -2,0.500003 -3.8,1.500003 -5.2,2.900003 l -37.1,35.99999 c -1,1.4 -1.6,3.1 -1.6,4.8 0.1,1.8 0.6,3.4 1.6,4.8 0.9,1.4 2.3,2.5 4,3 1.7,0.6 3.5,0.6 5.1,0.2 l 21.4,-20.5 7.4,12.8 -25.3,9.6 c -1.1,0.4 -2.1,1.1 -3,1.9 -1,0.9 -1.7,2 -2.2,3.3 -0.5,1.2 -0.7,2.5 -0.7,3.8 0.1,1.3 0.4,2.4 0.9,3.5"
         style="fill:#010101;fill-opacity:1;fill-rule:evenodd;stroke:none;stroke-width:0.999998"
         id="path104-8" />
      <path
         d="M 156.74001,206.64 H 177.84 c 0.20001,1.8 0.40001,3.6 0.9,5.4 0.40001,1.8 1.10001,3.7 1.90001,5.5 1.69999,3.6 4.09999,6.9 7.09999,9.7 3.10001,2.8 6.6,4.9 10.40001,6.3 1.8,0.6 3.69999,1.09999 5.6,1.39999 1.8,0.3 3.7,0.40001 5.4,0.3 1.9,0 3.79999,-0.1 5.8,-0.49999 2,-0.40001 3.99999,-0.9 6,-1.7 3.9,-1.6 7.59999,-4 10.8,-7.1 3.09999,-3.2 5.49999,-6.9 7.1,-10.8 0.79999,-2 1.3,-4 1.69999,-6 0.40001,-1.9 0.50001,-3.9 0.50001,-5.8 0,-2.2 -0.20001,-4.5 -0.7,-6.9 -0.5,-2.4 -1.30001,-4.8 -2.50001,-7.2 -1.09999,-2.4 -2.59999,-4.7 -4.5,-6.8 -1.8,-2.1 -3.9,-4 -6.3,-5.6 -2.29999,-1.6 -4.89999,-2.8 -7.5,-3.7 -2.7,-0.9 -5.4,-1.4 -7.99999,-1.6 -2.7,-0.2 -5.20001,0 -7.60001,0.4 -2.4,0.4 -4.69999,1.1 -6.69999,2 l -7.70001,-13.7 4.2,-6.3 h 6 c 0.50001,0 1.00001,-0.2 1.40001,-0.6 0.5,-0.5 0.69999,-1 0.69999,-1.5 v -7.4 c -0.1,-0.4 -0.3,-0.8 -0.69999,-1.1 -0.3,-0.4 -0.7,-0.7 -1.2,-0.8 -0.50001,-0.2 -1.10001,-0.2 -1.5,-0.1 -0.50001,0.1 -0.9,0.4 -1.2,0.6 l -16.8,6.3 c -1.10001,0.3 -1.9,1.3 -1.8,2.5 0.1,0.5 0.3,1 0.69999,1.4 0.40001,0.4 0.9,0.6 1.40001,0.7 h 5.1 l -3.50001,5.2 h -61.29999 l 2.49999,-4.6 -2.4,-9.8 h 17.90001 c 0.99999,0 2,-0.4 2.7,-1.1 0.69999,-0.7 1.1,-1.7 1.1,-2.7 0,-0.9 -0.3,-1.9 -1.1,-2.7 -0.80001,-0.8 -1.8,-1.1 -2.7,-1.1 H 122.94 c -0.79999,0.1 -1.59999,0.3 -2.4,0.7 -0.69999,0.3 -1.5,0.8 -2.19999,1.4 -1.5,1.1 -2.7,2.7 -3.50001,4.6 -0.69999,1.9 -0.9,3.9 -0.6,5.8 0.20001,0.9 0.40001,1.7 0.80001,2.5 0.3,0.8 0.69999,1.5 1.2,2.1 l -11.2,20.7 c -2.1,-1 -4.3,-1.8 -6.8,-2.4 -2.4,-0.6 -5.1,-0.9 -7.8,-0.8 -2.7,0 -5.6,0.4 -8.3,1.2 -2.8,0.8 -5.5,2 -8.1,3.5 -2.5,1.6 -4.7,3.4 -6.7,5.6 -2,2.1 -3.6,4.4 -4.9,6.9 -1.3,2.4 -2.2,4.9 -2.8,7.3 -0.6,2.5 -0.9,4.9 -0.9,7.1 0,1.9 0.2,3.9 0.5,5.8 0.4,2 1,4 1.7,6 1.6,3.9 4,7.6 7.1,10.8 3.2,3.1 6.9,5.5 10.9,7.1 1.9,0.8 3.9,1.29999 5.9,1.7 2,0.4 3.9,0.49999 5.8,0.49999 1.9,0 3.8,-0.1 5.8,-0.49999 2,-0.40001 4,-0.9 5.9,-1.7 4,-1.6 7.69999,-4 10.9,-7.1 3.09999,-3.2 5.49999,-6.9 7.1,-10.8 0.79999,-2 1.3,-4 1.69999,-6 0.3,-1.9 0.50001,-3.9 0.50001,-5.8 0,-4.7 -1.10001,-9.4 -3.20001,-13.6 -2.1,-4.3 -5.19999,-7.9 -9.09999,-10.7 l 4.59999,-8.5 40.60001,35.6 c 0.3,0.3 0.79999,0.5 1.3,0.5 m -50.1,-22.5 c 1.89999,1.5 3.6,3.4 5,5.6 1.5,2.1 2.59999,4.5 3.3,7.1 0.7,2.6 0.9,5.2 0.79999,7.8 -0.1,2.6 -0.6,5.1 -1.39999,7.4 -0.9,2.2 -2,4.5 -3.6,6.6 -1.60001,2 -3.5,3.9 -5.6,5.4 -2.2,1.5 -4.6,2.7 -7.1,3.5 -2.5,0.7 -5,1.1 -7.4,1.1 -1.5,0 -3,-0.2 -4.6,-0.4 -1.6,-0.3 -3.1,-0.8 -4.7,-1.4 -3.1,-1.2 -6.1,-3.1 -8.5,-5.6 -2.5,-2.5 -4.4,-5.4 -5.7,-8.6 -0.6,-1.5 -1,-3.1 -1.3,-4.7 -0.3,-1.5 -0.4,-3.1 -0.4,-4.6 -0.1,-1.7 0.1,-3.6 0.5,-5.5 0.5,-2 1.1,-3.9 2.1,-5.9 0.9,-1.9 2.2,-3.7 3.7,-5.4 1.5,-1.7 3.3,-3.2 5.2,-4.5 2,-1.2 4.1,-2.2 6.3,-2.8 2.1,-0.7 4.3,-1 6.5,-1.1 2.1,0 4.2,0.2 6.1,0.6 2,0.4 3.699995,1.1 5.3,1.8 l -11.2,17.6 c -1.4,0.3 -2.7,1 -3.6,2.2 -0.9,1.1 -1.3,2.6 -1.2,4 0.1,1.5 0.7,2.9 1.7,3.9 1,1 2.4,1.7 3.8,1.8 2.2,0.2 4.4,-0.9 5.5,-2.9 0.6,-0.9 0.9,-2 0.8,-3.1 -0.1,-1.2 -0.4,-2.2 -1,-3.1 l 10.7,-16.8 m 51.8,16 -39.2,-34.4 h 60.8 l -18.6,34.4 h -3 m 33,-23.3 c -4.1,2.5 -7.4,5.9 -9.8,9.9 -2.30001,4.1 -3.7,8.7 -3.9,13.4 H 168.84 l 17.50001,-32.2 5.1,8.9 m 18.3,20.3 -9.70001,-17.3 c 1.60001,-0.6 3.40001,-1.1 5.30001,-1.5 1.89999,-0.3 3.9,-0.4 6,-0.2 2.1,0.1 4.2,0.5 6.3,1.3 2,0.7 3.99999,1.7 5.9,2.9 1.9,1.3 3.49999,2.8 4.9,4.5 1.5,1.7 2.6,3.5 3.5,5.4 0.9,1.9 1.6,3.8 1.9,5.7 0.39999,1.9 0.6,3.7 0.6,5.4 0,1.5 -0.20001,3.1 -0.50001,4.6 -0.19999,1.6 -0.69999,3.2 -1.29999,4.7 -1.2,3.2 -3.1,6.1 -5.60001,8.6 -2.49999,2.5 -5.4,4.4 -8.59999,5.6 -1.5,0.6 -3.10001,1.1 -4.7,1.4 -1.6,0.2 -3.1,0.4 -4.6,0.4 -2.80001,0.1 -5.7,-0.3 -8.6,-1.3 -3,-1.1 -5.8,-2.6 -8.2,-4.8 -2.4,-2.1 -4.30001,-4.7 -5.7,-7.5 -1.4,-2.8 -2.1,-5.6 -2.4,-8.4 H 206.34 c 0.80001,-0.3 1.60001,-0.8 2.30001,-1.4 0.69999,-0.7 1.29999,-1.6 1.59999,-2.6 0.40001,-0.9 0.50001,-1.9 0.3,-2.9 -0.1,-1 -0.39999,-1.8 -0.79999,-2.6 m -9.2,3 h -16 c 0.19999,-3.3 1.2,-6.6 3,-9.6 1.69999,-3.1 4.09999,-5.5 6.79999,-7.4 l 7.90001,14.1 c 0.3,0.5 0.4,1.2 0,1.9 -0.40001,0.7 -1.1,1 -1.7,1"
         style="fill:#010101;fill-opacity:1;fill-rule:evenodd;stroke:none;stroke-width:0.999998"
         id="path108-2" />
      <path
         d="m 81.44001,156.93999 h -12.1 l -4.5,10.2 h 12.7 l 3.9,-10.2"
         style="fill:#010101;fill-opacity:1;fill-rule:evenodd;stroke:none;stroke-width:0.999998"
         id="path128-1" />
      <path
         d="m 103.84001,156.93999 h -12 l -3.3,10.2 h 12.6 l 2.7,-10.2"
         style="fill:#010101;fill-opacity:1;fill-rule:evenodd;stroke:none;stroke-width:0.999998"
         id="path132-1" />
      <path
         d="m 204.34001,156.93999 c 0,0.10001 -0.1,0.10001 -0.2,0.10001 l 2.7,10.09999 h 12.6 l -3.3,-10.2 h -11.8"
         style="fill:#010101;fill-opacity:1;fill-rule:evenodd;stroke:none;stroke-width:0.999998"
         id="path136-6" />
      <path
         d="m 238.64001,156.93999 h -12.1 l 3.9,10.2 h 12.7 l -4.5,-10.2"
         style="fill:#010101;fill-opacity:1;fill-rule:evenodd;stroke:none;stroke-width:0.999998"
         id="path140-0" />
    </g>
  </g>
</svg>
