<?xml version="1.0" encoding="UTF-8" standalone="no"?>
<svg
   viewBox="0 0 307.08 307.18"
   version="1.1"
   id="svg50"
   sodipodi:docname="Spain traffic signal s46, 2023 set.svg"
   inkscape:version="1.1.2 (b8e25be833, 2022-02-05)"
   xmlns:inkscape="http://www.inkscape.org/namespaces/inkscape"
   xmlns:sodipodi="http://sodipodi.sourceforge.net/DTD/sodipodi-0.dtd"
   xmlns="http://www.w3.org/2000/svg"
   xmlns:svg="http://www.w3.org/2000/svg">
  <sodipodi:namedview
     id="namedview52"
     pagecolor="#ffffff"
     bordercolor="#666666"
     borderopacity="1.0"
     inkscape:pageshadow="2"
     inkscape:pageopacity="0.0"
     inkscape:pagecheckerboard="0"
     showgrid="false"
     inkscape:object-paths="true"
     inkscape:snap-intersection-paths="true"
     inkscape:snap-smooth-nodes="true"
     inkscape:snap-bbox="true"
     inkscape:snap-bbox-edge-midpoints="true"
     inkscape:bbox-nodes="true"
     showguides="true"
     inkscape:guide-bbox="true"
     inkscape:zoom="1.8599593"
     inkscape:cx="158.87445"
     inkscape:cy="149.19681"
     inkscape:window-width="1920"
     inkscape:window-height="1001"
     inkscape:window-x="-9"
     inkscape:window-y="-9"
     inkscape:window-maximized="1"
     inkscape:current-layer="Capa_1-2" />
  <defs
     id="defs4">
    <style
       id="style2">.cls-1{fill:#fff;}.cls-1,.cls-3,.cls-4{fill-rule:evenodd;}.cls-2{fill:none;stroke:#343434;stroke-linejoin:round;stroke-width:0.48px;}.cls-3{fill:#05f;}.cls-4{fill:#010101;}</style>
  </defs>
  <g
     id="Capa_2"
     data-name="Capa 2">
    <g
       id="Capa_1-2"
       data-name="Capa 1">
      <path
         class="cls-1"
         d="m 0.24,289.84 a 17.44,17.44 0 0 0 1.1,6.3 20.07,20.07 0 0 0 3.8,5.8 18.2,18.2 0 0 0 5.8,3.8 18,18 0 0 0 6.3,1.2 h 272.6 a 17.47,17.47 0 0 0 6.2,-1.2 18.2,18.2 0 0 0 5.8,-3.8 16.67,16.67 0 0 0 3.8,-5.8 17.59,17.59 0 0 0 1.2,-6.3 V 17.34 a 18,18 0 0 0 -1.2,-6.3 16.67,16.67 0 0 0 -3.8,-5.8 18.2,18.2 0 0 0 -5.8,-3.8 17.47,17.47 0 0 0 -6.2,-1.2 H 17.24 a 18,18 0 0 0 -6.3,1.2 18.2,18.2 0 0 0 -5.8,3.8 20.07,20.07 0 0 0 -3.8,5.76 17.82,17.82 0 0 0 -1.1,6.3 v 272.5"
         id="path6" />
      <path
         class="cls-2"
         d="m 0.24,289.84 a 16.92,16.92 0 0 0 4.9,12.1 17.19,17.19 0 0 0 12.1,5"
         id="path8" />
      <line
         class="cls-2"
         x1="17.24"
         y1="306.94"
         x2="289.84"
         y2="306.94"
         id="line10" />
      <path
         class="cls-2"
         d="m 289.84,306.94 a 17.07,17.07 0 0 0 17,-17.1"
         id="path12" />
      <line
         class="cls-2"
         x1="306.84"
         y1="289.84"
         x2="306.84"
         y2="17.34"
         id="line14" />
      <path
         class="cls-2"
         d="m 306.84,17.34 a 17.19,17.19 0 0 0 -5,-12.1 17,17 0 0 0 -12,-5"
         id="path16" />
      <line
         class="cls-2"
         x1="289.84"
         y1="0.23999999"
         x2="17.24"
         y2="0.23999999"
         id="line18" />
      <path
         class="cls-2"
         d="m 17.24,0.24 a 17.19,17.19 0 0 0 -12.1,5 17.09,17.09 0 0 0 -4.9,12.1"
         id="path20" />
      <line
         class="cls-2"
         x1="0.23999999"
         y1="17.34"
         x2="0.23999999"
         y2="289.84"
         id="line22" />
      <path
         class="cls-3"
         d="m 7.64,289.84 a 11.49,11.49 0 0 0 0.7,3.6 11.08,11.08 0 0 0 2.1,3.2 11.55,11.55 0 0 0 3.3,2.1 9.1,9.1 0 0 0 3.5,0.7 h 272.6 a 9.1,9.1 0 0 0 3.5,-0.7 9.88,9.88 0 0 0 3.2,-2.1 9.35,9.35 0 0 0 2.1,-3.2 9.22,9.22 0 0 0 0.7,-3.6 V 17.34 a 8.42,8.42 0 0 0 -0.7,-3.5 9.73,9.73 0 0 0 -2.1,-3.3 9.88,9.88 0 0 0 -3.2,-2.1 9.1,9.1 0 0 0 -3.5,-0.7 H 17.24 a 9.1,9.1 0 0 0 -3.5,0.7 11.55,11.55 0 0 0 -3.3,2.1 11.55,11.55 0 0 0 -2.1,3.3 10.39,10.39 0 0 0 -0.7,3.5 v 272.5"
         id="path24"
         style="display:inline" />
      <polyline
         class="cls-1"
         points="153.54 7.74 299.34 262.64 7.64 262.64 153.54 7.74"
         id="polyline26"
         style="display:inline" />
      <path
         d="m 32.639999,253.14 h 16.8 l 19.899999,-52.1 H 55.539999 l -22.9,52.1"
         style="fill:#010101;fill-opacity:1;fill-rule:evenodd;stroke:none;stroke-width:0.999998"
         id="path68" />
      <path
         d="m 225.63999,253.14 h 16.8 l -16.8,-52.1 h -13.8 l 13.8,52.1"
         style="fill:#010101;fill-opacity:1;fill-rule:evenodd;stroke:none;stroke-width:0.999998"
         id="path72" />
      <path
         d="m 257.83999,253.14 h 16.8 L 251.64,201.04 h -13.8 l 19.99999,52.1"
         style="fill:#010101;fill-opacity:1;fill-rule:evenodd;stroke:none;stroke-width:0.999998"
         id="path76" />
      <path
         d="m 173.44,201.03999 h -10.99999 -2.7 l 1.5,52.10001 h 16.9 L 173.44,201.03999"
         style="fill:#010101;fill-opacity:1;fill-rule:evenodd;stroke:none;stroke-width:0.999998"
         id="path80" />
      <path
         d="m 193.44,253.14 h 16.9 l -10.8,-52.1 h -6.4 -7.29999 l 7.59999,52.1"
         style="fill:#010101;fill-opacity:1;fill-rule:evenodd;stroke:none;stroke-width:0.999998"
         id="path84" />
      <path
         d="m 106.84,137.44 c 2.8,0 5.5,-1.1 7.4,-3.1 2,-1.99999 3.1,-4.69999 3.1,-7.39999 0,-2.80001 -1.1,-5.50001 -3.1,-7.5 -1.9,-1.9 -4.6,-3.00001 -7.4,-3.00001 -2.8,0 -5.4,1.10001 -7.400002,3.00001 -2,1.99999 -3.1,4.69999 -3.1,7.5 0,2.7 1.1,5.4 3.1,7.39999 2.000002,2 4.600002,3.1 7.400002,3.1"
         style="fill:#010101;fill-opacity:1;fill-rule:evenodd;stroke:none;stroke-width:0.999998"
         id="path88" />
      <path
         id="path92"
         style="fill:#010101;fill-opacity:1;fill-rule:evenodd;stroke:none;stroke-width:0.999998"
         d="m 178.9402,143.34003 c -0.79999,0.1 -1.60087,0.5001 -2.40087,1.1001 -0.8,0.6 -1.39883,1.39941 -1.79883,2.3994 -0.4,1.00001 -0.40029,2.00001 -0.3003,3 0.20001,0.9 0.60049,1.70088 1.0005,2.40089 l -5.80079,10.69921 c -1.09999,-0.5 -2.19951,-0.8997 -3.49951,-1.1997 -1.3,-0.3 -2.6001,-0.4999 -4.1001,-0.3999 -2.9,0 -5.80048,0.79941 -8.50048,2.39941 -2.60001,1.7 -4.70001,3.90098 -6,6.50098 -0.70001,1.3 -1.2,2.4998 -1.5,3.7998 -0.3,1.3 -0.39952,2.5002 -0.49952,3.7002 0,4.39999 1.7999,8.5997 4.8999,11.69971 3.10001,3.09999 7.29972,4.8999 11.69971,4.8999 4.4,0 8.70078,-1.79991 11.80079,-4.8999 3.09999,-3.10001 4.79883,-7.29972 4.79883,-11.69971 0,-2.4 -0.49923,-4.8001 -1.69923,-7.1001 -1.1,-2.2 -2.70068,-4.1001 -4.70068,-5.6001 l 2.40088,-4.30078 21.0996,18.50098 c 0.1,0 0.20029,0.0996 0.30029,0.0996 0.1,0.1 0.1999,0.0996 0.3999,0.0996 h 10.99952 c 0.1,1.9 0.50038,3.79971 1.40038,5.69971 0.9,1.8 2.1002,3.60098 3.7002,5.00098 1.6,1.5 3.39942,2.60029 5.39942,3.30029 1.9,0.7 3.89971,0.89942 5.69971,0.89942 4.39999,0 8.70078,-1.79991 11.80077,-4.8999 3.1,-3.10001 4.8003,-7.29972 4.8003,-11.69971 0,-1.1 -0.0999,-2.30056 -0.3999,-3.60059 -0.20001,-1.2 -0.60117,-2.5002 -1.20117,-3.7002 -1.30001,-2.49999 -3.19971,-4.79951 -5.69971,-6.4995 -2.4,-1.60001 -5.29952,-2.49972 -7.99952,-2.69971 -1.4,-0.10001 -2.70048,-7.5e-4 -4.00048,0.19921 -1.2,0.20001 -2.39951,0.60049 -3.49952,1.0005 l -4.00048,-7.1001 2.20019,-3.3003 h 3.09961 c 0.3,0 0.5998,-0.10029 0.79981,-0.30029 0.2,-0.2 0.30029,-0.49981 0.30029,-0.79981 v -3.7998 c 0,-0.2 -0.2003,-0.39912 -0.30029,-0.59912 -0.20001,-0.2 -0.39873,-0.30137 -0.69873,-0.40137 -0.20001,-0.1 -0.50127,-0.1 -0.80127,0 -0.20001,0 -0.39912,0.10029 -0.59913,0.30029 l -8.6997,3.20069 c -0.6,0.2 -1.00088,0.69931 -0.90088,1.29931 0,0.3 0.10029,0.49981 0.30029,0.79981 0.2,0.2 0.49981,0.30029 0.79981,0.30029 h 2.60009 l -1.80029,2.69971 h -31.89989 l 1.30078,-2.39941 -1.20117,-5.10059 h 9.30029 c 0.5,0 1.00039,-0.0995 1.40039,-0.49951 0.4,-0.4 0.60059,-1.00039 0.60059,-1.4004 0,-0.49999 -0.20059,-0.99999 -0.60059,-1.5 -0.4,-0.39999 -0.90039,-0.4995 -1.40039,-0.4995 z m -1.8999,14.79931 h 31.5996 l -9.70019,17.90039 h -1.5 z m 34.89989,1.20117 2.6001,4.59962 c -2,1.29999 -3.80058,3.00019 -5.10058,5.20019 -1.2,2.2 -1.89951,4.49941 -1.99952,6.89941 h -4.5996 z m 12.17579,5.25879 c 0.27343,0.003 0.5497,0.0161 0.82471,0.041 2.1,0.1 4.39882,0.90019 6.29883,2.20019 1.99999,1.3 3.40038,3.09912 4.40038,5.09912 0.5,1 0.80049,2 1.00049,3 0.2,1 0.3003,1.90079 0.3003,2.80079 0,3.49999 -1.40088,6.80028 -3.90088,9.30029 -2.4,2.4 -5.8003,3.7998 -9.30029,3.7998 -3.20001,0.1 -6.29971,-1.00107 -8.69971,-3.10107 -2.4,-2.1 -3.89971,-5.09981 -4.19971,-8.29981 h 11.50049 c 0.39999,-0.1 0.79971,-0.40019 1.1997,-0.70019 0.3,-0.40001 0.59981,-0.79932 0.79981,-1.29932 0.4,-1.1 0.1997,-2.10039 -0.30029,-2.90039 l -4.99952,-9 c 0.80001,-0.3 1.69971,-0.5998 2.69971,-0.79981 0.75,-0.075 1.55567,-0.15 2.37598,-0.14062 z m -62.37597,0.041 c 1.1,0 2.20068,0.10029 3.20069,0.30029 0.99999,0.2 1.8997,0.59902 2.6997,0.99902 l -5.80078,9.10108 c -1.6,0.3 -2.59902,1.69921 -2.49902,3.19921 0,1.60001 1.29931,2.80001 2.79931,3 1.2,0.10001 2.30039,-0.49999 2.90039,-1.5 0.3,-0.49999 0.3999,-1.09921 0.3999,-1.69921 0,-0.6 -0.1995,-1.1 -0.4995,-1.5 l 5.59863,-8.80079 c 2,1.70001 3.50117,4.00059 4.20117,6.60059 0.8,2.6 0.5997,5.3999 -0.3003,7.89991 -0.9,2.49999 -2.50029,4.70028 -4.80029,6.30029 -2.2,1.5 -4.8,2.2998 -7.5,2.2998 -3.4,0 -6.79921,-1.3998 -9.19922,-3.7998 -2.5,-2.50001 -3.90087,-5.8003 -3.90087,-9.30029 0,-0.9 0.10029,-1.9004 0.30029,-2.9004 0.19999,-0.99999 0.6001,-2 1.10009,-3 1.00001,-2 2.59961,-3.90016 4.59962,-5.2002 2.1,-1.29999 4.40019,-1.89951 6.70019,-1.9995 z m 54.39989,2.6001 4.00049,7.29931 c 0.1,0.1 0.19922,0.30098 0.19922,0.50098 0,0.19999 -0.0992,0.29951 -0.19922,0.49951 -0.1,0.2 -0.1999,0.2999 -0.3999,0.3999 -0.1,0.1 -0.29991,0.0996 -0.3999,0.0996 h -8.40088 c 0.3,-3.6 2.20019,-6.79932 5.20019,-8.79931 z" />
      <path
         d="m 168.74,149.94 -0.9,-10.3 h -9.9 l 0.3,10.3 h 10.5"
         style="fill:#010101;fill-opacity:1;fill-rule:evenodd;stroke:none;stroke-width:0.999998"
         id="path96" />
      <path
         d="m 149.04,149.94 0.3,-10.3 h -10.2 l -0.9,10.3 h 10.8"
         style="fill:#010101;fill-opacity:1;fill-rule:evenodd;stroke:none;stroke-width:0.999998"
         id="path100" />
      <path
         d="m 88.940008,149.94 3.9,-10.3 h -10.2 l -4.5,10.3 h 10.8"
         style="fill:#010101;fill-opacity:1;fill-rule:evenodd;stroke:none;stroke-width:0.999998"
         id="path104" />
      <path
         d="m 196.53999,112.14 c 0,1.6 0.70001,3.2 1.90001,4.4 1.09999,1.1 2.7,1.8 4.39999,1.8 1.60001,0 3.20001,-0.7 4.40001,-1.8 1.1,-1.2 1.8,-2.8 1.8,-4.4 0,-1.7 -0.7,-3.3 -1.8,-4.4 -1.2,-1.2 -2.8,-1.9 -4.40001,-1.9 -1.69999,0 -3.3,0.7 -4.39999,1.9 -1.2,1.1 -1.90001,2.7 -1.90001,4.4"
         style="fill:#010101;fill-opacity:1;fill-rule:evenodd;stroke:none;stroke-width:0.999998"
         id="path108" />
      <path
         d="M 187.74001,153.33999 198.94,176.84 l 4.8,-8.6 -6.2,-13.6 c -0.1,-0.10001 -0.2,-0.3 -0.2,-0.5 0,-0.3 0.1,-0.50001 0.2,-0.7 0,-0.2 0.2,-0.40001 0.3,-0.5 0.2,-0.20001 0.4,-0.3 0.5,-0.4 l 14.3,-5.20001 c 1.1,-0.39999 2.2,-1.2 2.8,-2.29999 0.7,-1.2 0.8,-2.50001 0.6,-3.6 l -3.3,-17.9 c -0.4,-2 -1.9,-3.8 -3.9,-4.4 -0.9,-0.3 -2,-0.4 -3,-0.1 -1.1,0.2 -2,0.8 -2.7,1.5 l -19.39999,18.7 c -1,1.49999 -1,3.5 0,5 0.5,0.69999 1.3,1.2 2.1,1.5 0.9,0.39999 1.8,0.39999 2.7,0.1 l 11.09999,-10.59999 3.9,6.6 -13.2,5 c -0.59999,0.19999 -1.09999,0.6 -1.59999,1 -0.5,0.5 -0.9,1.1 -1.1,1.7 -0.6,1.3 -0.4,2.7 0.1,3.79999"
         style="fill:#010101;fill-opacity:1;fill-rule:evenodd;stroke:none;stroke-width:0.999998"
         id="path132" />
      <path
         d="m 79.839998,235.74 c 3.2,0.9 6.6,0.6 9.5,-1 2.8,-1.60001 5,-4.2 5.9,-7.4 l 4.2,-18 7.400002,-14 c 0.3,-0.5 0.9,-0.9 1.5,-0.9 0.6,0 1.2,0.4 1.5,0.9 l 5,16 18.2,24 c 2.5,-1.5 4.3,-4.00001 4.9,-6.9 0.7,-2.80001 0.2,-5.80001 -1.3,-8.3 l -10.4,-13.8 -6.4,-26 0.6,-24 10.4,8 v 15 c 0,0.4 0.1,1 0.6,1.3 0.2,0.1 0.5,0.2 0.7,0.2 0.3,0.1 0.5,0 0.7,-0.1 l 3.4,-1.6 c 1.5,-0.7 2.5,-2.3 2.6,-4 v -16.8 l -22,-19.3 c -1.6,-1.6 -4.1,-1.8 -6,-0.6 l -11.000002,6 -27,35.9 c -0.3,0.4 -0.4,0.9 -0.1,1.4 0.1,0.2 0.2,0.4 0.4,0.5 0.3,0.1 0.5,0.1 0.7,0.1 h 3.4 c 1,0.1 1.9,-0.3 2.6,-1 l 18,-18 2,17 -11.6,22 -8.4,33.4"
         style="fill:#010101;fill-opacity:1;fill-rule:evenodd;stroke:none;stroke-width:0.999998"
         id="path136" />
      <path
         d="m 85.239998,239.54 c -1.6,0.2 -3.2,0.1 -4.8,-0.2 -1.7,-0.3 -3.2,-0.8 -4.6,-1.6 l 9.3,-36.7 h -3.5 l -16.9,52.1 h 16.9 l 3.6,-13.6"
         style="fill:#010101;fill-opacity:1;fill-rule:evenodd;stroke:none;stroke-width:0.999998"
         id="path140" />
      <path
         d="m 111.74,212.94 -3.9,-12.7 -10.900002,52.9 H 113.84 l 4.6,-31.5 -6.7,-8.7"
         style="fill:#010101;fill-opacity:1;fill-rule:evenodd;stroke:none;stroke-width:0.999998"
         id="path144" />
      <path
         d="m 139.44,218.24 c 0.50001,0.8 1,1.7 1.40001,2.8 0.3,1 0.6,2.1 0.79999,3.3 0.2,2.3 -0.1,4.8 -1.09999,7.2 -1.00001,2.4 -2.50001,4.3 -4.40001,5.8 -0.9,0.7 -1.89999,1.3 -2.9,1.8 -1,0.4 -1.99999,0.7 -3,0.9 l -1.09999,13.1 h 16.8 L 147.54,201.04 H 142.04001 133.74 l -0.8,8.5 6.5,8.7"
         style="fill:#010101;fill-opacity:1;fill-rule:evenodd;stroke:none;stroke-width:0.999998"
         id="path148" />
    </g>
  </g>
</svg>
