<svg width="336" height="336" xmlns="http://www.w3.org/2000/svg" xmlns:xlink="http://www.w3.org/1999/xlink" xml:space="preserve" overflow="hidden"><defs><clipPath id="clip0"><rect x="394" y="24" width="336" height="336"/></clipPath></defs><g clip-path="url(#clip0)" transform="translate(-394 -24)"><path d="M394.378 341.048C394.378 343.351 394.831 345.654 395.699 347.919 396.567 350.222 397.964 352.412 399.852 354.262 401.702 356.149 403.778 357.433 406.194 358.414 408.459 359.32 410.762 359.736 412.952 359.736L711.048 359.736C713.2 359.736 715.616 359.32 717.919 358.414 720.222 357.433 722.412 356.149 724.148 354.262 725.998 352.412 727.433 350.222 728.301 347.919 729.283 345.654 729.622 343.351 729.622 341.048L729.622 43.1029C729.622 40.9133 729.283 38.4971 728.301 36.1942 727.433 33.8912 725.998 31.7016 724.148 29.8517 722.412 28.1151 720.222 26.6804 717.919 25.6989 715.616 24.8306 713.2 24.3775 711.048 24.3775L412.952 24.3775C410.762 24.3775 408.459 24.8306 406.194 25.6989 403.778 26.6804 401.702 28.1151 399.852 29.8517 397.964 31.7016 396.567 33.8912 395.699 36.1942 394.831 38.4971 394.378 40.9133 394.378 43.1029L394.378 341.048Z" fill="#FEFEFE"/><path d="M394.378 341.01C394.378 346.031 396.378 350.788 399.889 354.262 403.363 357.773 408.082 359.736 412.99 359.736" stroke="#343434" stroke-width="0.755056" stroke-linejoin="round" fill="none"/><path d="M412.952 359.698 711.01 359.698" stroke="#343434" stroke-width="0.755056" stroke-linejoin="round" fill="none"/><path d="M711.01 359.736C715.918 359.736 720.6 357.773 724.111 354.262 727.622 350.788 729.622 346.031 729.622 341.01" stroke="#343434" stroke-width="0.755056" stroke-linejoin="round" fill="none"/><path d="M729.585 341.01 729.585 43.1029" stroke="#343434" stroke-width="0.755056" stroke-linejoin="round" fill="none"/><path d="M729.622 43.1407C729.622 38.1951 727.622 33.4004 724.111 29.8517 720.6 26.3407 715.918 24.3775 711.01 24.3775" stroke="#343434" stroke-width="0.755056" stroke-linejoin="round" fill="none"/><path d="M711.01 24.3775 412.952 24.3775" stroke="#343434" stroke-width="0.755056" stroke-linejoin="round" fill="none"/><path d="M412.99 24.3775C408.082 24.3775 403.363 26.3407 399.889 29.8517 396.378 33.4004 394.378 38.1951 394.378 43.1407" stroke="#343434" stroke-width="0.755056" stroke-linejoin="round" fill="none"/><path d="M394.378 43.1029 394.378 341.01" stroke="#343434" stroke-width="0.755056" stroke-linejoin="round" fill="none"/><path d="M402.57 341.048C402.57 342.369 402.796 343.653 403.325 344.974 403.778 346.182 404.646 347.391 405.628 348.485 406.609 349.467 407.818 350.222 409.139 350.788 410.46 351.317 411.744 351.543 412.952 351.543L711.048 351.543C712.218 351.543 713.54 351.317 714.861 350.788 716.182 350.222 717.353 349.467 718.372 348.485 719.429 347.391 720.222 346.182 720.751 344.974 721.204 343.653 721.43 342.369 721.43 341.048L721.43 43.1029C721.43 41.7816 721.204 40.5735 720.751 39.2521 720.222 37.9308 719.429 36.7604 718.372 35.6656 717.353 34.684 716.182 33.8912 714.861 33.3627 713.54 32.7964 712.218 32.6076 711.048 32.6076L412.952 32.6076C411.744 32.6076 410.46 32.7964 409.139 33.3627 407.818 33.8912 406.609 34.684 405.628 35.6656 404.646 36.7604 403.778 37.9308 403.325 39.2521 402.796 40.5735 402.57 41.7816 402.57 43.1029L402.57 341.048Z" fill="#0055FF"/><path d="M446.854 122.61C446.854 123.252 447.08 123.932 447.609 124.46 448.175 125.027 448.817 125.215 449.459 125.215L458.595 125.215C459.992 125.215 461.2 124.045 461.2 122.61L461.2 109.586 510.505 109.586 510.505 122.61C510.505 123.252 510.845 123.932 511.411 124.46 511.827 125.027 512.582 125.215 513.261 125.215L522.322 125.215C522.888 125.215 523.643 125.027 524.058 124.46 524.625 123.932 524.851 123.252 524.851 122.61L524.851 109.586C526.248 109.586 527.569 109.057 528.551 108.076 529.533 107.094 530.099 105.773 530.099 104.451 529.759 103.13 529.533 101.733 529.533 100.412 529.533 98.9771 529.759 97.6935 530.099 96.3721L530.099 86.2166C530.099 85.3106 529.872 84.2912 529.533 83.3097 529.117 82.3281 528.551 81.4598 527.796 80.7047 527.041 79.9119 526.173 79.2701 525.153 78.9303 524.172 78.5151 523.19 78.4018 522.322 78.4018L516.659 63.9802C516.206 63.3007 515.451 62.6589 514.582 62.2058 513.676 61.9038 512.695 61.7906 511.827 62.0171L459.916 62.0171C459.01 61.7906 458.029 61.9038 457.16 62.2058 456.292 62.6589 455.537 63.3007 455.084 63.9802L449.459 78.4018C448.477 78.4018 447.496 78.5151 446.514 78.9303 445.646 79.2701 444.664 79.9119 443.909 80.7047 443.154 81.4598 442.588 82.3281 442.135 83.3097 441.833 84.2912 441.606 85.3106 441.606 86.2166L441.606 96.3721C442.361 98.9771 442.361 101.846 441.606 104.451 441.606 105.659 442.135 106.981 443.154 108.076 444.211 109.17 445.533 109.586 446.854 109.586L446.854 122.61ZM514.243 66.1699 519.264 78.4018C508.127 77.8355 496.952 77.6467 485.815 77.6467 474.678 77.6467 463.503 77.8355 452.328 78.4018L457.5 66.1699C457.727 65.7169 458.029 65.2638 458.482 64.9618 458.935 64.7353 459.35 64.5088 459.916 64.5088L511.827 64.5088C512.393 64.5088 512.921 64.7353 513.374 64.9618 513.79 65.2638 514.129 65.7169 514.243 66.1699ZM454.102 87.9533C455.537 87.9533 456.934 88.5951 458.029 89.5766 459.124 90.6715 459.69 92.1061 459.69 93.6162 459.69 95.0508 459.124 96.4854 458.029 97.5802 456.934 98.675 455.537 99.2036 454.102 99.2036 452.555 99.2036 451.12 98.675 450.138 97.5802 449.044 96.4854 448.477 95.0508 448.477 93.6162 448.477 92.2193 448.93 90.7847 450.138 89.5766 451.233 88.4818 452.63 87.9533 454.102 87.9533ZM517.754 87.9533C519.151 87.9533 520.585 88.5951 521.68 89.5766 522.662 90.6715 523.303 92.1061 523.303 93.6162 523.303 94.9375 522.775 96.4854 521.68 97.5802 520.472 98.675 519.037 99.2036 517.754 99.2036 516.319 99.2036 514.885 98.675 513.676 97.5802 512.582 96.4854 512.053 94.9375 512.053 93.6162 512.053 92.2193 512.582 90.7847 513.676 89.5766 514.885 88.4818 516.319 87.9533 517.754 87.9533Z" fill="#FEFEFE"/><path d="M527.909 257.426C527.909 254.783 526.814 252.216 524.964 250.366 523.19 248.516 520.585 247.421 518.056 247.421 515.451 247.421 512.921 248.516 511.071 250.366 509.184 252.216 508.089 254.783 508.089 257.426 508.089 260.031 509.184 262.56 511.071 264.41 512.921 266.26 515.451 267.241 518.056 267.241 520.585 267.241 523.19 266.26 524.964 264.41 526.814 262.56 527.909 260.031 527.909 257.426Z" fill="#FEFEFE"/><path d="M524.285 329.684 524.134 329.08C524.134 329.194 524.134 329.194 524.134 329.307 524.134 329.458 524.134 329.571 524.285 329.684Z" fill="#FEFEFE"/><path d="M524.247 329.684C524.7 331.761 526.55 333.044 528.627 332.969 529.721 332.856 530.816 332.289 531.458 331.421 532.251 330.553 532.553 329.458 532.44 328.363L530.703 308.014 535.724 308.014 531.382 286.986 530.703 286.231 531.269 286.571 531.382 286.986 542.218 298.689C542.784 299.369 543.539 299.784 544.52 299.784 545.502 299.898 546.257 299.558 546.937 299.029 548.22 297.821 548.447 295.745 547.239 294.31L528.627 271.696 512.544 271.696 493.214 255.84C492.535 255.311 491.667 254.972 490.572 255.085 489.59 255.085 488.722 255.613 488.193 256.293 486.872 257.69 486.985 259.993 488.382 261.314L509.071 281.55 506.541 332.742C506.541 333.837 506.881 334.932 507.636 335.8 508.391 336.555 509.486 337.122 510.581 337.122 511.676 337.235 512.77 336.782 513.639 336.027 514.431 335.347 514.96 334.253 514.96 333.158L516.281 308.694 522.397 308.694 524.247 329.684Z" fill="#FEFEFE"/><path d="M465.919 172.142C465.919 168.065 464.258 164.214 461.427 161.382 458.557 158.551 454.707 157.003 450.78 157.003 446.741 157.003 442.928 158.551 440.058 161.382 437.227 164.214 435.717 168.065 435.717 172.142 435.717 176.068 437.227 179.881 440.058 182.751 442.928 185.582 446.741 187.205 450.78 187.205 454.707 187.205 458.557 185.582 461.427 182.751 464.258 179.881 465.919 176.068 465.919 172.142Z" fill="#FEFEFE"/><path d="M448.175 320.624 448.175 257.614 454.518 257.614 454.631 330.704C454.707 332.44 455.386 334.177 456.707 335.498 457.991 336.82 459.765 337.462 461.615 337.462 463.352 337.462 465.126 336.82 466.41 335.498 467.731 334.177 468.486 332.44 468.486 330.591L468.184 219.673 468.184 219.371C468.184 217.71 469.392 216.426 471.016 216.2 472.639 215.973 474.187 216.955 474.64 218.578L483.701 251.838C483.814 252.48 484.116 253.16 484.569 253.688 485.022 254.33 485.551 254.783 486.192 255.236 487.627 255.991 489.213 256.104 490.496 255.764 491.818 255.349 493.026 254.443 493.781 253.16 494.573 251.838 494.762 250.404 494.347 249.007L485.135 214.991C484.682 213.142 484.116 211.254 483.474 209.404 482.946 207.554 482.153 205.818 481.284 204.043 479.661 202.08 477.811 200.23 475.697 198.607 473.545 196.832 471.129 195.322 468.373 194.114 465.768 192.793 462.937 191.811 459.879 191.245 456.896 190.603 453.725 190.377 450.667 190.49 447.496 190.603 444.438 191.169 441.493 192.038 438.548 192.906 435.717 194.114 433.187 195.511 430.658 197.059 428.393 198.796 426.392 200.683 424.315 202.533 422.579 204.496 421.144 206.573 418.992 209.97 417.973 214.123 418.313 218.163L417.784 256.859C417.784 258.181 418.2 259.578 419.294 260.672 420.389 261.88 421.824 262.447 423.221 262.447 424.655 262.447 426.09 261.88 427.185 260.786 428.166 259.804 428.808 258.407 428.808 256.973L429.374 218.276C429.488 216.955 430.545 215.86 431.866 215.86 433.301 215.86 434.396 216.955 434.396 218.276L434.396 218.502 434.396 320.624C434.396 321.53 434.509 322.398 434.811 323.267 435.151 324.135 435.717 324.89 436.359 325.569 437.114 326.324 437.907 326.778 438.775 327.08 439.643 327.419 440.511 327.646 441.38 327.646 443.154 327.533 444.891 326.778 446.212 325.569 447.382 324.248 448.175 322.511 448.175 320.624L448.175 320.435C448.175 320.511 448.175 320.511 448.175 320.511 448.175 320.624 448.175 320.624 448.175 320.624Z" fill="#FEFEFE"/><path d="M713.125 263.806C713.125 254.217 711.237 244.59 707.537 235.718 703.8 226.77 698.439 218.653 691.568 211.782 684.772 204.987 676.58 199.551 667.746 195.813 658.76 192.113 649.209 190.226 639.506 190.226 629.88 190.226 620.253 192.113 611.381 195.813 602.433 199.551 594.354 204.987 587.445 211.782 580.688 218.653 575.214 226.77 571.476 235.718 567.776 244.59 565.926 254.217 565.926 263.806 565.926 273.584 567.776 283.098 571.476 292.083 575.214 300.917 580.688 309.109 587.445 315.905 594.354 322.776 602.433 328.137 611.381 331.874 620.253 335.574 629.88 337.424 639.506 337.424 649.209 337.424 658.76 335.574 667.746 331.874 676.58 328.137 684.772 322.776 691.568 315.905 698.439 309.109 703.8 300.917 707.537 292.083 711.237 283.098 713.125 273.584 713.125 263.806Z" fill="#FF0000"/><path d="M693.531 263.806C693.531 256.708 692.134 249.724 689.378 243.155 686.66 236.586 682.696 230.697 677.675 225.675 672.653 220.617 666.764 216.69 660.195 213.972 653.626 211.216 646.642 209.933 639.544 209.933 632.409 209.933 625.387 211.216 618.818 213.972 612.249 216.69 606.36 220.617 601.338 225.675 596.317 230.697 592.353 236.586 589.635 243.155 586.917 249.724 585.482 256.708 585.482 263.806 585.482 270.941 586.917 277.925 589.635 284.494 592.353 291.026 596.317 296.953 601.338 301.974 606.36 306.995 612.249 310.959 618.818 313.715 625.387 316.433 632.409 317.868 639.544 317.868 646.642 317.868 653.626 316.433 660.195 313.715 666.764 310.959 672.653 306.995 677.675 301.974 682.696 296.953 686.66 291.026 689.378 284.494 692.134 277.925 693.531 270.941 693.531 263.806Z" fill="#FFFFFF"/><path d="M652.644 56.3164C652.644 54.24 651.852 52.3901 650.417 50.9555 649.02 49.5209 647.019 48.6526 645.056 48.6526 642.98 48.6526 641.13 49.5209 639.695 50.9555 638.298 52.3901 637.43 54.24 637.43 56.3164 637.43 58.3173 638.298 60.2804 639.695 61.7151 641.13 63.1119 642.98 63.9047 645.056 63.9047 647.019 63.9047 649.02 63.1119 650.417 61.7151 651.852 60.2804 652.644 58.3173 652.644 56.3164Z" fill="#FEFEFE"/><path d="M652.644 56.3164C652.644 54.24 651.852 52.3901 650.417 50.9555 649.02 49.5209 647.019 48.6526 645.056 48.6526 642.98 48.6526 641.13 49.5209 639.695 50.9555 638.298 52.3901 637.43 54.24 637.43 56.3164 637.43 58.3173 638.298 60.2804 639.695 61.7151 641.13 63.1119 642.98 63.9047 645.056 63.9047 647.019 63.9047 649.02 63.1119 650.417 61.7151 651.852 60.2804 652.644 58.3173 652.644 56.3164Z" fill="#FEFEFE"/><path d="M636.26 147.414 651.436 147.414C651.55 149.943 652.191 152.548 653.4 155.191 654.608 157.683 656.382 160.099 658.534 162.175 660.724 164.138 663.253 165.686 665.858 166.668 668.614 167.536 671.332 167.989 673.862 167.876 676.58 167.876 679.449 167.423 682.28 166.328 685.112 165.12 687.755 163.497 690.02 161.194 692.209 158.891 693.984 156.286 695.079 153.454 696.173 150.585 696.702 147.754 696.702 145.035 696.702 143.488 696.589 141.864 696.173 140.09 695.834 138.353 695.192 136.579 694.399 134.918 692.662 131.407 690.133 128.349 686.66 126.084 683.262 123.667 679.336 122.459 675.485 122.233 673.635 122.12 671.785 122.233 670.049 122.459 668.387 122.799 666.764 123.328 665.329 123.894L659.742 114.154 662.8 109.548 667.066 109.548C667.406 109.548 667.859 109.435 668.161 109.133 668.387 108.793 668.614 108.453 668.614 108.151L668.614 102.79C668.387 102.224 667.972 101.695 667.179 101.355 666.877 101.242 666.537 101.242 666.084 101.355 665.782 101.469 665.556 101.582 665.329 101.809L653.286 106.263C652.418 106.49 652.003 107.245 652.003 108.038 652.003 108.453 652.191 108.793 652.418 109.133 652.644 109.246 652.758 109.321 652.984 109.435 653.098 109.548 653.286 109.548 653.513 109.548L657.137 109.548 654.608 113.399 610.663 113.399 612.513 110.001 610.777 102.979 623.575 102.979C625.085 102.979 626.293 101.809 626.293 100.261 626.293 99.6189 626.067 98.9393 625.538 98.2975 624.972 97.7312 624.33 97.5425 623.575 97.5425L612.098 97.5425C611.003 97.7312 609.795 98.1843 608.813 99.0526 607.719 99.9209 606.85 101.016 606.284 102.337 605.755 103.772 605.642 105.169 605.869 106.49 606.057 107.811 606.624 108.906 607.266 109.888L599.262 124.649C597.714 124.007 596.204 123.328 594.354 122.912 592.58 122.573 590.73 122.346 588.767 122.346 584.84 122.346 580.763 123.441 577.063 125.744 573.439 128.047 570.608 131.105 568.758 134.578 567.776 136.352 567.097 138.24 566.681 139.977 566.342 141.751 566.115 143.374 566.04 145.035 566.04 147.754 566.568 150.585 567.663 153.454 568.758 156.286 570.494 158.891 572.797 161.194 574.987 163.497 577.705 165.12 580.574 166.328 583.293 167.423 586.237 167.876 588.88 167.876 591.598 167.876 594.543 167.423 597.299 166.328 600.13 165.12 602.886 163.497 605.076 161.194 607.379 158.891 609.153 156.286 610.21 153.454 611.305 150.585 611.871 147.754 611.871 145.035 611.871 141.638 611.003 138.24 609.455 135.258 607.945 132.2 605.755 129.557 603 127.48L606.284 121.478 635.391 146.999C635.58 147.187 635.92 147.414 636.26 147.414ZM600.357 131.218C601.791 132.313 603 133.596 603.981 135.258 605.076 136.768 605.869 138.58 606.284 140.316 606.85 142.166 607.039 144.129 606.964 146.017 606.85 147.867 606.511 149.604 605.982 151.265 605.302 152.888 604.434 154.436 603.339 155.946 602.245 157.381 600.923 158.778 599.262 159.872 597.714 160.967 595.978 161.76 594.241 162.289 592.466 162.855 590.617 163.157 588.88 163.157 586.804 163.157 584.501 162.742 582.311 161.835 580.008 160.967 577.932 159.57 576.195 157.796 574.345 156.059 573.024 153.983 572.156 151.68 571.287 149.49 570.834 147.187 570.834 145.035 570.834 143.827 570.947 142.393 571.287 141.071 571.589 139.675 572.042 138.24 572.684 136.881 574.119 134.049 576.308 131.52 579.14 129.783 581.971 127.933 585.142 127.065 588.314 126.952 589.862 126.952 591.258 127.065 592.693 127.367 594.014 127.707 595.336 128.16 596.431 128.689L588.427 141.298C586.351 141.751 584.84 143.601 584.954 145.791 585.029 147.867 586.804 149.604 588.88 149.83 590.503 149.943 592.051 149.188 592.92 147.754 593.259 147.112 593.448 146.319 593.448 145.451 593.335 144.696 593.146 143.941 592.693 143.261L600.357 131.218ZM637.543 142.733 609.455 118.08 652.984 118.08 639.62 142.733 637.543 142.733ZM661.063 126.084C658.232 127.82 655.816 130.236 654.192 133.068 652.418 136.013 651.436 139.335 651.323 142.733L644.981 142.733 657.477 119.628 661.063 126.084ZM674.277 140.656 667.293 128.16C668.501 127.707 669.709 127.367 671.106 127.065 672.427 126.839 673.862 126.839 675.372 126.952 678.467 127.141 681.412 128.16 684.13 130.01 686.886 131.86 688.849 134.276 690.133 136.994 690.813 138.467 691.228 139.788 691.568 141.071 691.794 142.506 691.907 143.827 691.907 145.035 691.907 147.187 691.568 149.49 690.699 151.68 689.718 153.983 688.396 156.059 686.66 157.796 684.772 159.57 682.696 160.967 680.544 161.835 678.241 162.742 675.938 163.157 673.862 163.157 671.898 163.157 669.709 162.93 667.632 162.175 665.556 161.42 663.593 160.325 661.818 158.778 660.082 157.267 658.647 155.418 657.666 153.454 656.684 151.453 656.156 149.377 656.042 147.414L671.785 147.414C672.993 146.999 674.088 146.017 674.617 144.582 674.843 143.827 674.956 143.148 674.843 142.393 674.73 141.751 674.503 141.071 674.277 140.656ZM667.746 142.733 656.269 142.733C656.382 140.316 657.137 138.013 658.345 135.786 659.553 133.596 661.29 131.86 663.253 130.538L668.954 140.656C669.029 140.958 669.142 141.524 668.954 141.94 668.614 142.506 668.048 142.733 667.746 142.733Z" fill="#FEFEFE"/><path d="" stroke="#010101" stroke-width="0.755056" stroke-linejoin="round" fill="none"/><path d="M624.217 111.322 639.62 143.827 646.189 131.898 637.657 113.172C637.543 112.946 637.468 112.719 637.468 112.417 637.468 112.077 637.543 111.851 637.657 111.511 637.77 111.209 637.883 110.982 638.11 110.756 638.336 110.529 638.638 110.416 638.865 110.341L658.534 103.092C660.082 102.564 661.516 101.469 662.385 99.8454 663.253 98.2975 663.479 96.5609 663.253 94.8998L658.647 70.3227C658.119 67.4535 656.042 65.1506 653.286 64.2822 652.003 63.867 650.455 63.7537 649.058 64.0935 647.623 64.3955 646.302 65.1506 645.32 66.1699L618.705 91.9551C617.195 94.0315 617.195 96.7497 618.705 98.8261 619.384 99.7321 620.366 100.6 621.574 100.902 622.744 101.355 624.103 101.355 625.198 101.016L640.639 86.3676 645.887 95.5793 627.728 102.45C627.048 102.79 626.293 103.205 625.651 103.885 624.972 104.413 624.443 105.169 623.99 106.15 623.65 107.056 623.537 107.924 623.537 108.906 623.537 109.774 623.877 110.643 624.217 111.322Z" fill="#FEFEFE"/><path d="M600.885 285.853 632.975 285.853 632.975 276.68 618.856 276.68 625.764 270.79C626.52 270.111 627.161 269.469 627.954 268.827 631.201 265.656 633.089 261.352 633.202 256.746 633.315 253.462 632.296 250.177 630.559 247.459 629.804 246.477 628.936 245.609 627.954 244.816 626.973 244.061 625.953 243.306 624.783 242.853 623.462 242.211 622.027 241.683 620.63 241.343 615.684 240.248 610.437 240.89 605.982 243.306 604.208 244.401 602.698 245.835 601.603 247.685 600.697 249.309 599.904 251.159 599.602 253.16 599.149 255.123 599.149 257.086 599.375 258.936L610.022 258.936C609.795 257.501 610.022 255.991 610.55 254.556 611.418 252.253 613.608 250.63 616.024 250.517 616.893 250.517 617.761 250.63 618.554 250.857 620.517 251.272 622.027 252.82 622.48 254.67 622.895 257.086 622.253 259.502 620.819 261.352 620.064 262.371 619.195 263.353 618.327 264.221 617.346 265.089 616.364 265.882 615.269 266.637L601.791 276.68C601.603 276.793 601.376 277.133 601.225 277.435 600.999 277.774 600.885 278.114 600.885 278.454L600.885 285.853Z" fill="#010101"/><path d="M642.867 273.32C643.961 277.208 646.264 280.568 649.435 282.984 652.72 285.4 656.571 286.722 660.61 286.722 664.688 286.722 668.501 285.4 671.672 282.984 674.956 280.568 677.259 277.208 678.241 273.32 679.978 266.977 679.978 260.446 678.241 254.217 677.259 250.253 674.956 246.893 671.672 244.476 668.501 242.06 664.688 240.739 660.61 240.739 656.571 240.739 652.72 242.06 649.435 244.476 646.264 246.893 643.961 250.253 642.867 254.217 641.243 260.446 641.243 266.977 642.867 273.32ZM652.493 269.96C651.852 265.807 651.852 261.616 652.493 257.577 652.833 255.613 653.815 253.877 655.363 252.669 656.797 251.347 658.647 250.706 660.61 250.706 662.611 250.706 664.461 251.347 665.858 252.669 667.406 253.877 668.387 255.613 668.727 257.577 669.369 261.616 669.369 265.807 668.727 269.96 668.387 271.809 667.406 273.546 665.858 274.867 664.461 276.113 662.611 276.755 660.61 276.755 658.647 276.755 656.797 276.113 655.363 274.867 653.815 273.546 652.833 271.809 652.493 269.96Z" fill="#010101"/></g></svg>