<svg width="336" height="336" xmlns="http://www.w3.org/2000/svg" xmlns:xlink="http://www.w3.org/1999/xlink" xml:space="preserve" overflow="hidden"><defs><clipPath id="clip0"><rect x="48" y="24" width="336" height="336"/></clipPath></defs><g clip-path="url(#clip0)" transform="translate(-48 -24)"><path d="M48.3775 341.048C48.3775 343.351 48.8306 345.654 49.6989 347.919 50.5672 350.222 51.964 352.412 53.8517 354.262 55.7016 356.149 57.778 357.433 60.1942 358.414 62.4593 359.32 64.7622 359.736 66.9519 359.736L365.048 359.736C367.2 359.736 369.616 359.32 371.919 358.414 374.222 357.433 376.412 356.149 378.148 354.262 379.998 352.412 381.433 350.222 382.301 347.919 383.283 345.654 383.622 343.351 383.622 341.048L383.622 43.1029C383.622 40.9133 383.283 38.4971 382.301 36.1942 381.433 33.8912 379.998 31.7016 378.148 29.8517 376.412 28.1151 374.222 26.6804 371.919 25.6989 369.616 24.8306 367.2 24.3775 365.048 24.3775L66.9519 24.3775C64.7622 24.3775 62.4593 24.8306 60.1942 25.6989 57.778 26.6804 55.7016 28.1151 53.8517 29.8517 51.964 31.7016 50.5672 33.8912 49.6989 36.1942 48.8306 38.4971 48.3775 40.9133 48.3775 43.1029L48.3775 341.048Z" fill="#FEFEFE"/><path d="M48.3775 341.01C48.3775 346.031 50.3784 350.788 53.8894 354.262 57.3627 357.773 62.0818 359.736 66.9897 359.736" stroke="#343434" stroke-width="0.755056" stroke-linejoin="round" fill="none"/><path d="M66.9519 359.698 365.01 359.698" stroke="#343434" stroke-width="0.755056" stroke-linejoin="round" fill="none"/><path d="M365.01 359.736C369.918 359.736 374.6 357.773 378.111 354.262 381.622 350.788 383.622 346.031 383.622 341.01" stroke="#343434" stroke-width="0.755056" stroke-linejoin="round" fill="none"/><path d="M383.585 341.01 383.585 43.1029" stroke="#343434" stroke-width="0.755056" stroke-linejoin="round" fill="none"/><path d="M383.622 43.1407C383.622 38.1951 381.622 33.4004 378.111 29.8517 374.6 26.3407 369.918 24.3775 365.01 24.3775" stroke="#343434" stroke-width="0.755056" stroke-linejoin="round" fill="none"/><path d="M365.01 24.3775 66.9519 24.3775" stroke="#343434" stroke-width="0.755056" stroke-linejoin="round" fill="none"/><path d="M66.9897 24.3775C62.0818 24.3775 57.3627 26.3407 53.8894 29.8517 50.3784 33.4004 48.3775 38.1951 48.3775 43.1407" stroke="#343434" stroke-width="0.755056" stroke-linejoin="round" fill="none"/><path d="M48.3775 43.1029 48.3775 341.01" stroke="#343434" stroke-width="0.755056" stroke-linejoin="round" fill="none"/><path d="M56.5699 341.048C56.5699 342.369 56.7964 343.653 57.3249 344.974 57.778 346.182 58.6463 347.391 59.6279 348.485 60.6094 349.467 61.8175 350.222 63.1389 350.788 64.4602 351.317 65.7438 351.543 66.9519 351.543L365.048 351.543C366.218 351.543 367.54 351.317 368.861 350.788 370.182 350.222 371.353 349.467 372.372 348.485 373.429 347.391 374.222 346.182 374.751 344.974 375.204 343.653 375.43 342.369 375.43 341.048L375.43 43.1029C375.43 41.7816 375.204 40.5735 374.751 39.2521 374.222 37.9308 373.429 36.7604 372.372 35.6656 371.353 34.684 370.182 33.8912 368.861 33.3627 367.54 32.7964 366.218 32.6076 365.048 32.6076L66.9519 32.6076C65.7438 32.6076 64.4602 32.7964 63.1389 33.3627 61.8175 33.8912 60.6094 34.684 59.6279 35.6656 58.6463 36.7604 57.778 37.9308 57.3249 39.2521 56.7964 40.5735 56.5699 41.7816 56.5699 43.1029L56.5699 341.048Z" fill="#0055FF"/><path d="M100.854 122.61C100.854 123.252 101.08 123.932 101.609 124.46 102.175 125.027 102.817 125.215 103.459 125.215L112.595 125.215C113.992 125.215 115.2 124.045 115.2 122.61L115.2 109.586 164.505 109.586 164.505 122.61C164.505 123.252 164.845 123.932 165.411 124.46 165.827 125.027 166.582 125.215 167.261 125.215L176.322 125.215C176.888 125.215 177.643 125.027 178.058 124.46 178.625 123.932 178.851 123.252 178.851 122.61L178.851 109.586C180.248 109.586 181.569 109.057 182.551 108.076 183.533 107.094 184.099 105.773 184.099 104.451 183.759 103.13 183.533 101.733 183.533 100.412 183.533 98.9771 183.759 97.6935 184.099 96.3721L184.099 86.2166C184.099 85.3106 183.872 84.2912 183.533 83.3097 183.117 82.3281 182.551 81.4598 181.796 80.7047 181.041 79.9119 180.173 79.2701 179.153 78.9303 178.172 78.5151 177.19 78.4018 176.322 78.4018L170.659 63.9802C170.206 63.3007 169.451 62.6589 168.582 62.2058 167.676 61.9038 166.695 61.7906 165.827 62.0171L113.916 62.0171C113.01 61.7906 112.029 61.9038 111.16 62.2058 110.292 62.6589 109.537 63.3007 109.084 63.9802L103.459 78.4018C102.477 78.4018 101.496 78.5151 100.514 78.9303 99.6458 79.2701 98.6643 79.9119 97.9092 80.7047 97.1542 81.4598 96.5879 82.3281 96.1348 83.3097 95.8328 84.2912 95.6063 85.3106 95.6063 86.2166L95.6063 96.3721C96.3613 98.9771 96.3613 101.846 95.6063 104.451 95.6063 105.659 96.1348 106.981 97.1542 108.076 98.2112 109.17 99.5326 109.586 100.854 109.586L100.854 122.61ZM168.243 66.1699 173.264 78.4018C162.127 77.8355 150.952 77.6467 139.815 77.6467 128.678 77.6467 117.503 77.8355 106.328 78.4018L111.5 66.1699C111.727 65.7169 112.029 65.2638 112.482 64.9618 112.935 64.7353 113.35 64.5088 113.916 64.5088L165.827 64.5088C166.393 64.5088 166.921 64.7353 167.374 64.9618 167.79 65.2638 168.129 65.7169 168.243 66.1699ZM108.102 87.9533C109.537 87.9533 110.934 88.5951 112.029 89.5766 113.124 90.6715 113.69 92.1061 113.69 93.6162 113.69 95.0508 113.124 96.4854 112.029 97.5802 110.934 98.675 109.537 99.2036 108.102 99.2036 106.555 99.2036 105.12 98.675 104.138 97.5802 103.044 96.4854 102.477 95.0508 102.477 93.6162 102.477 92.2193 102.93 90.7847 104.138 89.5766 105.233 88.4818 106.63 87.9533 108.102 87.9533ZM171.754 87.9533C173.151 87.9533 174.585 88.5951 175.68 89.5766 176.662 90.6715 177.303 92.1061 177.303 93.6162 177.303 94.9375 176.775 96.4854 175.68 97.5802 174.472 98.675 173.037 99.2036 171.754 99.2036 170.319 99.2036 168.884 98.675 167.676 97.5802 166.582 96.4854 166.053 94.9375 166.053 93.6162 166.053 92.2193 166.582 90.7847 167.676 89.5766 168.884 88.4818 170.319 87.9533 171.754 87.9533Z" fill="#FEFEFE"/><path d="M181.909 257.426C181.909 254.783 180.814 252.216 178.964 250.366 177.19 248.516 174.585 247.421 172.056 247.421 169.451 247.421 166.921 248.516 165.071 250.366 163.184 252.216 162.089 254.783 162.089 257.426 162.089 260.031 163.184 262.56 165.071 264.41 166.921 266.26 169.451 267.241 172.056 267.241 174.585 267.241 177.19 266.26 178.964 264.41 180.814 262.56 181.909 260.031 181.909 257.426Z" fill="#FEFEFE"/><path d="M178.285 329.684 178.134 329.08C178.134 329.194 178.134 329.194 178.134 329.307 178.134 329.458 178.134 329.571 178.285 329.684Z" fill="#FEFEFE"/><path d="M178.247 329.684C178.7 331.761 180.55 333.044 182.627 332.969 183.721 332.856 184.816 332.289 185.458 331.421 186.251 330.553 186.553 329.458 186.44 328.363L184.703 308.014 189.724 308.014 185.382 286.986 184.703 286.231 185.269 286.571 185.382 286.986 196.218 298.689C196.784 299.369 197.539 299.784 198.52 299.784 199.502 299.898 200.257 299.558 200.937 299.029 202.22 297.821 202.447 295.745 201.239 294.31L182.627 271.696 166.544 271.696 147.214 255.84C146.535 255.311 145.667 254.972 144.572 255.085 143.59 255.085 142.722 255.613 142.193 256.293 140.872 257.69 140.985 259.993 142.382 261.314L163.071 281.55 160.541 332.742C160.541 333.837 160.881 334.932 161.636 335.8 162.391 336.555 163.486 337.122 164.581 337.122 165.676 337.235 166.77 336.782 167.639 336.027 168.431 335.347 168.96 334.253 168.96 333.158L170.281 308.694 176.397 308.694 178.247 329.684Z" fill="#FEFEFE"/><path d="M119.919 172.142C119.919 168.065 118.258 164.214 115.427 161.382 112.557 158.551 108.707 157.003 104.78 157.003 100.741 157.003 96.9276 158.551 94.0584 161.382 91.227 164.214 89.7169 168.065 89.7169 172.142 89.7169 176.068 91.227 179.881 94.0584 182.751 96.9276 185.582 100.741 187.205 104.78 187.205 108.707 187.205 112.557 185.582 115.427 182.751 118.258 179.881 119.919 176.068 119.919 172.142Z" fill="#FEFEFE"/><path d="M102.175 320.624 102.175 257.614 108.518 257.614 108.631 330.704C108.707 332.44 109.386 334.177 110.707 335.498 111.991 336.82 113.765 337.462 115.615 337.462 117.352 337.462 119.126 336.82 120.41 335.498 121.731 334.177 122.486 332.44 122.486 330.591L122.184 219.673 122.184 219.371C122.184 217.71 123.392 216.426 125.016 216.2 126.639 215.973 128.187 216.955 128.64 218.578L137.701 251.838C137.814 252.48 138.116 253.16 138.569 253.688 139.022 254.33 139.551 254.783 140.192 255.236 141.627 255.991 143.213 256.104 144.496 255.764 145.818 255.349 147.026 254.443 147.781 253.16 148.573 251.838 148.762 250.404 148.347 249.007L139.135 214.991C138.682 213.142 138.116 211.254 137.474 209.404 136.946 207.554 136.153 205.818 135.284 204.043 133.661 202.08 131.811 200.23 129.697 198.607 127.545 196.832 125.129 195.322 122.373 194.114 119.768 192.793 116.937 191.811 113.879 191.245 110.896 190.603 107.725 190.377 104.667 190.49 101.496 190.603 98.4378 191.169 95.493 192.038 92.5483 192.906 89.7169 194.114 87.1874 195.511 84.658 197.059 82.3928 198.796 80.3919 200.683 78.3155 202.533 76.5789 204.496 75.1443 206.573 72.9924 209.97 71.973 214.123 72.3128 218.163L71.7843 256.859C71.7843 258.181 72.1995 259.578 73.2944 260.672 74.3892 261.88 75.8238 262.447 77.2207 262.447 78.6553 262.447 80.0899 261.88 81.1847 260.786 82.1663 259.804 82.8081 258.407 82.8081 256.973L83.3744 218.276C83.4876 216.955 84.5447 215.86 85.8661 215.86 87.3007 215.86 88.3955 216.955 88.3955 218.276L88.3955 218.502 88.3955 320.624C88.3955 321.53 88.5088 322.398 88.8108 323.267 89.1506 324.135 89.7169 324.89 90.3587 325.569 91.1137 326.324 91.9065 326.778 92.7748 327.08 93.6431 327.419 94.5115 327.646 95.3798 327.646 97.1542 327.533 98.8908 326.778 100.212 325.569 101.382 324.248 102.175 322.511 102.175 320.624L102.175 320.435C102.175 320.511 102.175 320.511 102.175 320.511 102.175 320.624 102.175 320.624 102.175 320.624Z" fill="#FEFEFE"/><path d="M367.124 263.806C367.124 254.217 365.237 244.59 361.537 235.718 357.8 226.77 352.439 218.653 345.568 211.782 338.772 204.987 330.58 199.551 321.746 195.813 312.76 192.113 303.209 190.226 293.507 190.226 283.88 190.226 274.253 192.113 265.381 195.813 256.433 199.551 248.354 204.987 241.445 211.782 234.688 218.653 229.213 226.77 225.476 235.718 221.776 244.59 219.926 254.217 219.926 263.806 219.926 273.584 221.776 283.098 225.476 292.083 229.213 300.917 234.688 309.109 241.445 315.905 248.354 322.776 256.433 328.137 265.381 331.874 274.253 335.574 283.88 337.424 293.507 337.424 303.209 337.424 312.76 335.574 321.746 331.874 330.58 328.137 338.772 322.776 345.568 315.905 352.439 309.109 357.8 300.917 361.537 292.083 365.237 283.098 367.124 273.584 367.124 263.806Z" fill="#FF0000"/><path d="M347.531 263.806C347.531 256.708 346.134 249.724 343.378 243.155 340.66 236.586 336.696 230.697 331.675 225.675 326.653 220.617 320.764 216.69 314.195 213.972 307.626 211.216 300.642 209.933 293.544 209.933 286.409 209.933 279.387 211.216 272.818 213.972 266.249 216.69 260.36 220.617 255.338 225.675 250.317 230.697 246.353 236.586 243.635 243.155 240.917 249.724 239.482 256.708 239.482 263.806 239.482 270.941 240.917 277.925 243.635 284.494 246.353 291.026 250.317 296.953 255.338 301.974 260.36 306.995 266.249 310.959 272.818 313.715 279.387 316.433 286.409 317.868 293.544 317.868 300.642 317.868 307.626 316.433 314.195 313.715 320.764 310.959 326.653 306.995 331.675 301.974 336.696 296.953 340.66 291.026 343.378 284.494 346.134 277.925 347.531 270.941 347.531 263.806Z" fill="#FFFFFF"/><path d="M306.644 56.3164C306.644 54.24 305.852 52.3901 304.417 50.9555 303.02 49.5209 301.019 48.6526 299.056 48.6526 296.98 48.6526 295.13 49.5209 293.695 50.9555 292.298 52.3901 291.43 54.24 291.43 56.3164 291.43 58.3173 292.298 60.2804 293.695 61.7151 295.13 63.1119 296.98 63.9047 299.056 63.9047 301.019 63.9047 303.02 63.1119 304.417 61.7151 305.852 60.2804 306.644 58.3173 306.644 56.3164Z" fill="#FEFEFE"/><path d="M306.644 56.3164C306.644 54.24 305.852 52.3901 304.417 50.9555 303.02 49.5209 301.019 48.6526 299.056 48.6526 296.98 48.6526 295.13 49.5209 293.695 50.9555 292.298 52.3901 291.43 54.24 291.43 56.3164 291.43 58.3173 292.298 60.2804 293.695 61.7151 295.13 63.1119 296.98 63.9047 299.056 63.9047 301.019 63.9047 303.02 63.1119 304.417 61.7151 305.852 60.2804 306.644 58.3173 306.644 56.3164Z" fill="#FEFEFE"/><path d="M290.26 147.414 305.436 147.414C305.55 149.943 306.191 152.548 307.4 155.191 308.608 157.683 310.382 160.099 312.534 162.175 314.724 164.138 317.253 165.686 319.858 166.668 322.614 167.536 325.332 167.989 327.862 167.876 330.58 167.876 333.449 167.423 336.28 166.328 339.112 165.12 341.755 163.497 344.02 161.194 346.209 158.891 347.984 156.286 349.079 153.454 350.173 150.585 350.702 147.754 350.702 145.035 350.702 143.488 350.589 141.864 350.173 140.09 349.834 138.353 349.192 136.579 348.399 134.918 346.662 131.407 344.133 128.349 340.66 126.084 337.262 123.667 333.336 122.459 329.485 122.233 327.635 122.12 325.785 122.233 324.049 122.459 322.387 122.799 320.764 123.328 319.329 123.894L313.742 114.154 316.8 109.548 321.066 109.548C321.406 109.548 321.859 109.435 322.161 109.133 322.387 108.793 322.614 108.453 322.614 108.151L322.614 102.79C322.387 102.224 321.972 101.695 321.179 101.355 320.877 101.242 320.538 101.242 320.084 101.355 319.782 101.469 319.556 101.582 319.329 101.809L307.286 106.263C306.418 106.49 306.003 107.245 306.003 108.038 306.003 108.453 306.191 108.793 306.418 109.133 306.644 109.246 306.758 109.321 306.984 109.435 307.098 109.548 307.286 109.548 307.513 109.548L311.137 109.548 308.608 113.399 264.663 113.399 266.513 110.001 264.777 102.979 277.575 102.979C279.085 102.979 280.293 101.809 280.293 100.261 280.293 99.6189 280.067 98.9393 279.538 98.2975 278.972 97.7312 278.33 97.5425 277.575 97.5425L266.098 97.5425C265.003 97.7312 263.795 98.1843 262.813 99.0526 261.719 99.9209 260.85 101.016 260.284 102.337 259.755 103.772 259.642 105.169 259.869 106.49 260.057 107.811 260.624 108.906 261.266 109.888L253.262 124.649C251.714 124.007 250.204 123.328 248.354 122.912 246.58 122.573 244.73 122.346 242.767 122.346 238.84 122.346 234.763 123.441 231.063 125.744 227.439 128.047 224.608 131.105 222.758 134.578 221.776 136.352 221.097 138.24 220.681 139.977 220.342 141.751 220.115 143.374 220.04 145.035 220.04 147.754 220.568 150.585 221.663 153.454 222.758 156.286 224.494 158.891 226.797 161.194 228.987 163.497 231.705 165.12 234.574 166.328 237.293 167.423 240.237 167.876 242.88 167.876 245.598 167.876 248.543 167.423 251.299 166.328 254.13 165.12 256.886 163.497 259.076 161.194 261.379 158.891 263.153 156.286 264.21 153.454 265.305 150.585 265.871 147.754 265.871 145.035 265.871 141.638 265.003 138.24 263.455 135.258 261.945 132.2 259.755 129.557 257 127.48L260.284 121.478 289.391 146.999C289.58 147.187 289.92 147.414 290.26 147.414ZM254.357 131.218C255.791 132.313 257 133.596 257.981 135.258 259.076 136.768 259.869 138.58 260.284 140.316 260.85 142.166 261.039 144.129 260.964 146.017 260.85 147.867 260.511 149.604 259.982 151.265 259.302 152.888 258.434 154.436 257.339 155.946 256.245 157.381 254.923 158.778 253.262 159.872 251.714 160.967 249.978 161.76 248.241 162.289 246.467 162.855 244.617 163.157 242.88 163.157 240.804 163.157 238.501 162.742 236.311 161.835 234.008 160.967 231.932 159.57 230.195 157.796 228.345 156.059 227.024 153.983 226.156 151.68 225.287 149.49 224.834 147.187 224.834 145.035 224.834 143.827 224.947 142.393 225.287 141.071 225.589 139.675 226.042 138.24 226.684 136.881 228.119 134.049 230.308 131.52 233.14 129.783 235.971 127.933 239.142 127.065 242.314 126.952 243.862 126.952 245.258 127.065 246.693 127.367 248.014 127.707 249.336 128.16 250.431 128.689L242.427 141.298C240.351 141.751 238.84 143.601 238.954 145.791 239.029 147.867 240.804 149.604 242.88 149.83 244.503 149.943 246.051 149.188 246.92 147.754 247.259 147.112 247.448 146.319 247.448 145.451 247.335 144.696 247.146 143.941 246.693 143.261L254.357 131.218ZM291.543 142.733 263.455 118.08 306.984 118.08 293.62 142.733 291.543 142.733ZM315.063 126.084C312.232 127.82 309.816 130.236 308.192 133.068 306.418 136.013 305.436 139.335 305.323 142.733L298.981 142.733 311.477 119.628 315.063 126.084ZM328.277 140.656 321.293 128.16C322.501 127.707 323.709 127.367 325.106 127.065 326.427 126.839 327.862 126.839 329.372 126.952 332.467 127.141 335.412 128.16 338.13 130.01 340.886 131.86 342.849 134.276 344.133 136.994 344.813 138.467 345.228 139.788 345.568 141.071 345.794 142.506 345.907 143.827 345.907 145.035 345.907 147.187 345.568 149.49 344.699 151.68 343.718 153.983 342.396 156.059 340.66 157.796 338.772 159.57 336.696 160.967 334.544 161.835 332.241 162.742 329.938 163.157 327.862 163.157 325.898 163.157 323.709 162.93 321.632 162.175 319.556 161.42 317.593 160.325 315.818 158.778 314.082 157.267 312.647 155.418 311.666 153.454 310.684 151.453 310.155 149.377 310.042 147.414L325.785 147.414C326.993 146.999 328.088 146.017 328.617 144.582 328.843 143.827 328.956 143.148 328.843 142.393 328.73 141.751 328.503 141.071 328.277 140.656ZM321.746 142.733 310.269 142.733C310.382 140.316 311.137 138.013 312.345 135.786 313.553 133.596 315.29 131.86 317.253 130.538L322.954 140.656C323.029 140.958 323.142 141.524 322.954 141.94 322.614 142.506 322.048 142.733 321.746 142.733Z" fill="#FEFEFE"/><path d="" stroke="#010101" stroke-width="0.755056" stroke-linejoin="round" fill="none"/><path d="M278.217 111.322 293.62 143.827 300.189 131.898 291.657 113.172C291.543 112.946 291.468 112.719 291.468 112.417 291.468 112.077 291.543 111.851 291.657 111.511 291.77 111.209 291.883 110.982 292.11 110.756 292.336 110.529 292.638 110.416 292.865 110.341L312.534 103.092C314.082 102.564 315.516 101.469 316.385 99.8454 317.253 98.2975 317.48 96.5609 317.253 94.8998L312.647 70.3227C312.119 67.4535 310.042 65.1506 307.286 64.2822 306.003 63.867 304.455 63.7537 303.058 64.0935 301.623 64.3955 300.302 65.1506 299.32 66.1699L272.705 91.9551C271.195 94.0315 271.195 96.7497 272.705 98.8261 273.384 99.7321 274.366 100.6 275.574 100.902 276.744 101.355 278.103 101.355 279.198 101.016L294.639 86.3676 299.887 95.5793 281.728 102.45C281.048 102.79 280.293 103.205 279.651 103.885 278.972 104.413 278.443 105.169 277.99 106.15 277.65 107.056 277.537 107.924 277.537 108.906 277.537 109.774 277.877 110.643 278.217 111.322Z" fill="#FEFEFE"/><path d="M343.831 32.6076 56.5699 319.944 56.5699 341.048C56.5699 342.369 56.7964 343.653 57.3249 344.974 57.778 346.182 58.6463 347.391 59.6279 348.485 60.6094 349.467 61.8175 350.222 63.1389 350.788 64.4602 351.317 65.7438 351.543 66.9519 351.543L88.169 351.543 375.43 64.2822 375.43 43.1029C375.43 41.7816 375.204 40.5735 374.751 39.2521 374.222 37.9308 373.429 36.7604 372.372 35.6656 371.353 34.684 370.182 33.8912 368.861 33.3627 367.54 32.7964 366.218 32.6076 365.048 32.6076L343.831 32.6076Z" fill="#FF0000"/><path d="M254.885 285.853 286.975 285.853 286.975 276.68 272.856 276.68 279.764 270.79C280.52 270.111 281.161 269.469 281.954 268.827 285.201 265.656 287.089 261.352 287.202 256.746 287.315 253.462 286.296 250.177 284.559 247.459 283.804 246.477 282.936 245.609 281.954 244.816 280.973 244.061 279.953 243.306 278.783 242.853 277.462 242.211 276.027 241.683 274.63 241.343 269.684 240.248 264.437 240.89 259.982 243.306 258.208 244.401 256.698 245.835 255.603 247.685 254.697 249.309 253.904 251.159 253.602 253.16 253.149 255.123 253.149 257.086 253.375 258.936L264.022 258.936C263.795 257.501 264.022 255.991 264.55 254.556 265.418 252.253 267.608 250.63 270.024 250.517 270.893 250.517 271.761 250.63 272.554 250.857 274.517 251.272 276.027 252.82 276.48 254.67 276.895 257.086 276.253 259.502 274.819 261.352 274.064 262.371 273.195 263.353 272.327 264.221 271.346 265.089 270.364 265.882 269.269 266.637L255.791 276.68C255.603 276.793 255.376 277.133 255.225 277.435 254.999 277.774 254.885 278.114 254.885 278.454L254.885 285.853Z" fill="#010101"/><path d="M296.867 273.32C297.961 277.208 300.264 280.568 303.435 282.984 306.72 285.4 310.571 286.722 314.61 286.722 318.688 286.722 322.501 285.4 325.672 282.984 328.956 280.568 331.259 277.208 332.241 273.32 333.978 266.977 333.978 260.446 332.241 254.217 331.259 250.253 328.956 246.893 325.672 244.476 322.501 242.06 318.688 240.739 314.61 240.739 310.571 240.739 306.72 242.06 303.435 244.476 300.264 246.893 297.961 250.253 296.867 254.217 295.243 260.446 295.243 266.977 296.867 273.32ZM306.493 269.96C305.852 265.807 305.852 261.616 306.493 257.577 306.833 255.613 307.815 253.877 309.363 252.669 310.797 251.347 312.647 250.706 314.61 250.706 316.611 250.706 318.461 251.347 319.858 252.669 321.406 253.877 322.387 255.613 322.727 257.577 323.369 261.616 323.369 265.807 322.727 269.96 322.387 271.809 321.406 273.546 319.858 274.867 318.461 276.113 316.611 276.755 314.61 276.755 312.647 276.755 310.797 276.113 309.363 274.867 307.815 273.546 306.833 271.809 306.493 269.96Z" fill="#010101"/></g></svg>