<svg width="1155" height="1155" xmlns="http://www.w3.org/2000/svg" xmlns:xlink="http://www.w3.org/1999/xlink" xml:space="preserve" overflow="hidden"><defs><clipPath id="clip0"><rect x="1623" y="660" width="1155" height="1155"/></clipPath></defs><g clip-path="url(#clip0)" transform="translate(-1623 -660)"><path d="M1623 1748.94C1623 1756.47 1624.17 1764.39 1627.54 1772.17 1630.53 1780.09 1635.33 1787.62 1641.82 1793.98 1648.18 1800.47 1655.31 1805.27 1663.23 1808.25 1671.41 1811.37 1679.32 1812.79 1686.85 1812.79L2711.43 1812.79C2718.95 1812.79 2726.87 1811.37 2735.17 1808.25 2743.09 1805.27 2750.62 1800.47 2756.59 1793.98 2762.95 1787.62 2767.88 1780.09 2770.86 1772.17 2774.24 1764.39 2775.4 1756.47 2775.4 1748.94L2775.4 724.369C2775.4 716.842 2774.24 708.536 2770.86 700.62 2767.88 692.703 2762.95 685.176 2756.59 678.817 2750.62 672.848 2743.09 667.916 2735.17 664.542 2726.87 661.557 2718.95 660 2711.43 660L1686.85 660C1679.32 660 1671.41 661.557 1663.23 664.542 1655.31 667.916 1648.18 672.848 1641.82 678.817 1635.33 685.176 1630.53 692.703 1627.54 700.62 1624.17 708.536 1623 716.842 1623 724.369L1623 1748.94Z" fill="#FFFFFF"/><path d="M1688.28 689.589 2712.98 689.589C2717.01 689.589 2721.55 690.238 2726.09 692.184 2730.63 694.001 2734.66 696.726 2738.42 700.101 2741.79 703.864 2744.52 707.887 2746.33 712.429 2747.89 716.971 2748.67 721.124 2748.67 725.666L2748.67 1750.24C2748.67 1754.4 2747.89 1758.81 2746.33 1763.35 2744.52 1767.5 2741.79 1772.04 2738.42 1775.42 2734.66 1778.79 2730.63 1781.78 2726.09 1783.33 2721.55 1785.15 2717.01 1785.93 2712.98 1785.93L1688.28 1785.93C1684.12 1785.93 1679.71 1785.15 1675.17 1783.33 1670.63 1781.78 1666.47 1778.79 1663.1 1775.42 1659.73 1772.04 1656.74 1767.5 1655.18 1763.35 1653.37 1758.81 1652.59 1754.4 1652.59 1750.24L1652.59 725.666C1652.59 721.124 1653.37 716.971 1655.18 712.429 1656.74 707.887 1659.73 703.864 1663.1 700.101 1666.47 696.726 1670.63 694.001 1675.17 692.184 1679.71 690.238 1684.12 689.589 1688.28 689.589Z" fill="#0055FF"/><path d="M1688.28 689.589 2712.85 689.589" stroke="#010101" stroke-width="2.59551" stroke-linejoin="round" fill="none"/><path d="M2712.85 689.589C2722.2 689.589 2731.54 693.222 2738.29 700.23 2744.91 706.979 2748.67 715.933 2748.67 725.796" stroke="#010101" stroke-width="2.59551" stroke-linejoin="round" fill="none"/><path d="M2748.54 725.666 2748.54 1750.11" stroke="#010101" stroke-width="2.59551" stroke-linejoin="round" fill="none"/><path d="M2748.67 1750.11C2748.67 1759.59 2744.91 1768.67 2738.29 1775.42 2731.54 1782.17 2722.2 1785.93 2712.85 1785.93" stroke="#010101" stroke-width="2.59551" stroke-linejoin="round" fill="none"/><path d="M2712.85 1785.8 1688.28 1785.8" stroke="#010101" stroke-width="2.59551" stroke-linejoin="round" fill="none"/><path d="M1688.41 1785.93C1679.06 1785.93 1669.85 1782.17 1663.1 1775.42 1656.35 1768.67 1652.59 1759.59 1652.59 1750.11" stroke="#010101" stroke-width="2.59551" stroke-linejoin="round" fill="none"/><path d="M1652.59 1750.11 1652.59 725.666" stroke="#010101" stroke-width="2.59551" stroke-linejoin="round" fill="none"/><path d="M1652.59 725.796C1652.59 715.933 1656.35 706.979 1663.1 700.23 1669.85 693.222 1679.06 689.589 1688.41 689.589" stroke="#010101" stroke-width="2.59551" stroke-linejoin="round" fill="none"/><path d="M1624.43 1750.11C1624.43 1767.11 1631.31 1783.33 1643.37 1795.27 1655.31 1807.34 1671.54 1814.09 1688.41 1814.09" stroke="#343434" stroke-width="2.59551" stroke-linejoin="round" fill="none"/><path d="M1688.28 1813.96 2712.85 1813.96" stroke="#343434" stroke-width="2.59551" stroke-linejoin="round" fill="none"/><path d="M2712.85 1814.09C2729.72 1814.09 2746.21 1807.34 2758.27 1795.27 2769.95 1783.33 2776.83 1767.11 2776.83 1750.11" stroke="#343434" stroke-width="2.59551" stroke-linejoin="round" fill="none"/><path d="M2776.7 1750.11 2776.7 725.666" stroke="#343434" stroke-width="2.59551" stroke-linejoin="round" fill="none"/><path d="M2776.83 725.796C2776.83 708.796 2769.95 692.314 2758.27 680.115 2746.21 668.046 2729.72 661.298 2712.85 661.298" stroke="#343434" stroke-width="2.59551" stroke-linejoin="round" fill="none"/><path d="M2712.85 661.298 1688.28 661.298" stroke="#343434" stroke-width="2.59551" stroke-linejoin="round" fill="none"/><path d="M1688.41 661.298C1671.54 661.298 1655.31 668.046 1643.37 680.115 1631.31 692.314 1624.43 708.796 1624.43 725.796" stroke="#343434" stroke-width="2.59551" stroke-linejoin="round" fill="none"/><path d="M1624.43 725.666 1624.43 1750.11" stroke="#343434" stroke-width="2.59551" stroke-linejoin="round" fill="none"/><path d="M2456.29 1143.28 2508.46 1143.28C2508.85 1151.85 2511.05 1160.93 2515.21 1169.89 2519.36 1178.97 2525.07 1186.89 2532.47 1194.03 2539.99 1200.77 2548.69 1206.09 2558.03 1209.47 2567.11 1212.45 2576.46 1213.88 2585.15 1213.49 2594.5 1213.49 2604.36 1212.06 2614.09 1208.3 2623.83 1204.15 2632.91 1198.57 2640.7 1190.65 2648.61 1182.73 2654.32 1173.65 2658.09 1163.92 2662.24 1154.18 2663.67 1144.45 2663.67 1134.98 2663.67 1129.79 2663.28 1124.08 2661.85 1118.11 2660.68 1112.14 2658.74 1106.43 2655.75 1100.46 2650.17 1088.39 2641.09 1077.88 2629.15 1069.96 2617.47 1062.04 2604.36 1057.63 2591.12 1056.85 2584.38 1056.46 2578.41 1056.85 2572.31 1058.02 2566.34 1058.67 2561.15 1060.62 2555.82 1062.43L2537.01 1028.95 2547.13 1013.51 2561.79 1013.51C2563.35 1013.51 2564.52 1012.73 2565.56 1011.95 2566.73 1010.91 2567.11 1009.36 2567.11 1008.19L2567.11 990.148C2566.73 988.331 2565.17 985.995 2562.57 985.347 2561.15 984.957 2559.98 984.957 2558.81 985.347 2557.64 985.347 2556.6 985.995 2555.82 986.385L2514.43 1002.22C2511.83 1003 2510.01 1005.2 2510.4 1008.19 2510.4 1010.91 2512.61 1013.12 2515.21 1013.51L2528.05 1013.51 2519.36 1026.23 2368.69 1026.23 2374.66 1014.55 2368.69 990.927 2412.68 990.927C2417.87 990.927 2422.03 986.385 2422.03 981.583 2422.03 978.858 2421.25 976.652 2419.43 974.835 2417.48 972.888 2414.89 971.72 2412.68 971.72L2373.23 971.72C2369.47 972.499 2365.31 974.446 2361.94 977.041 2358.18 980.026 2355.19 983.789 2353.25 988.721 2351.43 993.133 2351.04 998.065 2351.82 1002.61 2352.47 1007.15 2354.41 1011.17 2356.62 1014.29L2329.11 1065.16C2323.79 1062.82 2318.6 1060.62 2312.5 1059.45 2306.53 1058.02 2299.78 1057.24 2293.03 1057.24 2279.53 1057.63 2265.52 1061.4 2252.8 1068.79 2240.34 1076.71 2230.61 1087.22 2224.25 1099.68 2221.26 1105.65 2218.93 1111.75 2217.5 1117.72 2215.94 1123.69 2215.16 1129.4 2215.16 1134.98 2215.16 1144.45 2216.72 1154.18 2220.87 1163.92 2224.64 1173.65 2230.22 1182.73 2238.13 1190.65 2246.05 1198.57 2255.01 1204.15 2264.87 1208.3 2274.6 1212.06 2284.33 1213.49 2293.81 1213.49 2302.76 1213.49 2312.89 1212.06 2322.75 1208.3 2332.61 1204.15 2341.57 1198.57 2349.09 1190.65 2357.01 1182.73 2362.98 1173.65 2366.74 1163.92 2370.51 1154.18 2372.45 1144.45 2372.45 1134.98 2372.45 1123.3 2369.47 1112.14 2364.15 1101.5 2358.96 1090.98 2351.43 1082.03 2341.96 1075.28L2353.25 1054.26 2453.17 1142.12C2453.95 1142.89 2455.12 1143.28 2456.29 1143.28ZM2333.39 1087.61C2337.8 1091.37 2341.96 1096.3 2345.33 1101.5 2349.09 1106.82 2351.82 1112.79 2353.25 1119.27 2355.19 1125.24 2355.84 1131.99 2355.45 1138.35 2355.19 1144.71 2354.02 1150.81 2352.08 1156.39 2349.87 1162.1 2347.28 1167.29 2343.12 1172.61 2339.36 1177.8 2334.82 1182.35 2329.11 1186.11 2323.79 1189.87 2317.82 1192.47 2311.85 1194.41 2305.75 1196.23 2299.78 1197.4 2293.81 1197.4 2286.28 1197.4 2278.36 1195.84 2270.84 1192.86 2262.92 1189.87 2255.78 1184.94 2249.81 1178.97 2243.72 1173 2238.91 1165.86 2235.93 1157.95 2232.81 1150.42 2231.78 1142.5 2231.78 1134.98 2231.39 1130.82 2232.17 1126.02 2232.81 1121.48 2233.98 1116.55 2235.54 1111.75 2238.13 1107.21 2242.68 1097.47 2250.2 1088.78 2259.94 1082.81 2269.67 1076.32 2280.57 1073.33 2291.47 1072.94 2296.79 1072.94 2301.59 1073.33 2306.53 1074.5 2311.46 1075.67 2315.61 1077.1 2319.63 1079.04L2291.86 1122.26C2284.72 1123.69 2279.53 1130.18 2280.18 1137.57 2280.57 1145.1 2286.28 1150.81 2293.81 1151.59 2299 1151.85 2304.71 1149.25 2307.3 1144.45 2308.34 1142.12 2309.12 1139.52 2309.12 1136.92 2309.12 1133.81 2308.08 1131.21 2306.53 1129.01L2333.39 1087.61ZM2460.31 1127.06 2364.15 1042.45 2513.78 1042.45 2467.84 1127.06 2460.31 1127.06ZM2541.55 1069.96C2531.82 1076.06 2523.51 1084.24 2517.54 1094.36 2511.83 1104.22 2508.46 1115.51 2508.07 1127.06L2486.27 1127.06 2529.09 1047.64 2541.55 1069.96ZM2586.58 1119.92 2562.96 1077.49C2566.73 1075.67 2571.27 1074.5 2575.68 1073.72 2580.61 1072.94 2585.54 1072.56 2590.34 1072.94 2600.99 1073.72 2611.5 1077.1 2620.45 1083.46 2629.93 1089.95 2637.06 1098.12 2641.48 1107.59 2643.42 1112.4 2645.24 1116.94 2646.02 1121.87 2647.19 1126.41 2647.58 1130.82 2647.58 1134.98 2647.58 1142.5 2646.02 1150.42 2643.03 1157.95 2640.05 1165.86 2635.12 1173 2629.15 1178.97 2623.05 1184.94 2615.91 1189.87 2608.12 1192.86 2600.6 1195.84 2592.68 1197.4 2585.15 1197.4 2578.41 1197.4 2571.27 1196.62 2564.13 1194.03 2556.6 1191.43 2549.85 1187.67 2543.76 1182.35 2538.18 1177.15 2533.24 1170.67 2529.87 1163.92 2526.5 1157.17 2524.68 1150.03 2523.9 1143.28L2578.41 1143.28C2582.17 1141.73 2586.32 1138.35 2587.75 1133.55 2588.92 1130.82 2588.92 1128.62 2588.92 1126.02 2588.53 1123.69 2587.75 1121.48 2586.58 1119.92ZM2564.13 1127.06 2524.68 1127.06C2525.33 1118.89 2527.66 1110.97 2532.21 1103.44 2536.23 1095.92 2542.33 1089.95 2549.08 1085.4L2568.28 1119.92C2568.93 1121.09 2569.32 1123.04 2568.28 1124.86 2567.11 1126.41 2565.56 1127.06 2564.13 1127.06Z" fill="#FEFEFE"/><path d="M1804.56 1078.53C1796.64 1078.53 1788.07 1079.95 1779.77 1083.33 1771.33 1086.83 1763.42 1091.63 1756.67 1098.38 1749.92 1104.87 1745.12 1112.66 1741.61 1121.35 1738.24 1129.66 1736.81 1137.83 1736.81 1146.14 1736.81 1163.79 1743.95 1181.05 1756.67 1194.03 1769.52 1206.35 1786.52 1213.49 1804.56 1213.49 1822.59 1213.49 1839.47 1206.35 1852.31 1194.03 1865.03 1181.05 1871.78 1163.79 1871.78 1146.14 1871.78 1137.83 1870.74 1129.66 1867.37 1121.35 1863.99 1112.66 1859.06 1104.87 1852.31 1098.38 1845.56 1091.63 1837.65 1086.83 1829.34 1083.33 1821.04 1079.95 1812.47 1078.53 1804.56 1078.53ZM1804.56 1099.16C1817.01 1099.16 1828.95 1104.09 1837.65 1113.05 1846.34 1121.74 1851.14 1133.68 1851.14 1146.14 1851.14 1151.46 1850.37 1157.43 1847.77 1163.01 1845.56 1169.11 1842.19 1174.3 1837.65 1179.23 1833.11 1183.77 1827.53 1187.15 1821.82 1189.35 1815.85 1191.56 1810.27 1192.73 1804.56 1192.73 1798.98 1192.73 1793.27 1191.56 1787.3 1189.35 1781.59 1187.15 1776 1183.77 1771.33 1179.23 1766.79 1174.3 1763.16 1169.11 1760.82 1163.01 1758.61 1157.43 1757.84 1151.46 1757.84 1146.14 1757.84 1140.56 1758.61 1134.46 1760.82 1128.88 1763.16 1122.91 1766.79 1117.59 1771.33 1113.05 1776 1108.24 1781.59 1104.87 1787.3 1102.53 1793.27 1100.33 1798.98 1099.16 1804.56 1099.16Z" fill="#FFFFFF"/><path d="M2053.72 1078.53C2045.81 1078.53 2037.11 1079.95 2028.81 1083.33 2020.11 1086.83 2012.59 1091.63 2005.84 1098.38 1999.09 1104.87 1994.29 1112.66 1990.78 1121.35 1987.41 1129.66 1985.98 1137.83 1985.98 1146.14 1985.98 1163.79 1993.12 1181.05 2005.84 1194.03 2018.68 1206.35 2035.56 1213.49 2053.72 1213.49 2071.37 1213.49 2088.63 1206.35 2101.48 1194.03 2113.81 1181.05 2120.95 1163.79 2120.95 1146.14 2120.95 1137.83 2119.91 1129.66 2116.54 1121.35 2113.16 1112.66 2108.23 1104.87 2101.48 1098.38 2094.73 1091.63 2086.82 1086.83 2078.51 1083.33 2070.21 1079.95 2061.64 1078.53 2053.72 1078.53ZM2053.72 1099.16C2066.18 1099.16 2077.73 1104.09 2086.82 1113.05 2095.51 1121.74 2100.31 1133.68 2100.31 1146.14 2100.31 1151.46 2099.53 1157.43 2096.94 1163.01 2094.73 1169.11 2091.36 1174.3 2086.82 1179.23 2081.89 1183.77 2076.69 1187.15 2070.98 1189.35 2065.01 1191.56 2059.43 1192.73 2053.72 1192.73 2048.14 1192.73 2042.3 1191.56 2036.33 1189.35 2030.62 1187.15 2025.04 1183.77 2020.5 1179.23 2015.96 1174.3 2012.33 1169.11 2009.99 1163.01 2007.78 1157.43 2007 1151.46 2007 1146.14 2007 1140.56 2007.78 1134.46 2009.99 1128.88 2012.33 1122.91 2015.96 1117.59 2020.5 1113.05 2025.04 1108.24 2030.62 1104.87 2036.33 1102.53 2042.3 1100.33 2048.14 1099.16 2053.72 1099.16Z" fill="#FFFFFF"/><path d="M1939.52 954.071C1939.52 944.338 1935.76 934.994 1929.01 928.116 1922.13 921.367 1912.79 917.604 1903.05 917.604 1898.9 917.604 1894.36 918.383 1889.82 920.329 1885.41 922.146 1881.12 924.742 1877.36 928.116 1873.6 931.879 1871 936.032 1869.05 940.574 1867.63 945.116 1866.85 949.529 1866.85 954.071L1898.12 951.475 1898.12 977.56 1874.37 995.599 1876.97 1011.3 1939.52 964.193 1939.52 954.071Z" fill="#FFFFFF"/><path d="M1944.58 1060.49 1900.33 1079.95C1897.99 1081.12 1895.4 1083.07 1893.19 1085.27 1890.86 1087.87 1889.43 1090.46 1888.26 1093.97 1887.09 1097.34 1886.7 1100.72 1887.09 1103.7 1887.48 1107.08 1888.65 1109.67 1890.08 1112.27L1928.1 1177.28C1929.92 1180.4 1933.68 1182.99 1938.22 1184.29 1942.77 1184.94 1947.31 1183.9 1950.68 1181.44 1954.06 1179.23 1956.65 1175.47 1957.43 1171.31 1958.21 1166.77 1957.43 1162.62 1954.71 1158.99L1923.95 1108.5 1991.3 1075.93C1993.64 1074.76 1995.45 1073.2 1997.4 1071 1999.22 1068.66 2000.39 1066.07 2001.17 1063.08 2001.81 1060.49 2001.81 1057.5 2001.17 1054.39 2000.78 1051.79 1999.61 1049.59 1998.05 1047.25L1955.87 988.721C1954.45 986.385 1952.11 984.568 1949.51 983.011 1946.92 981.194 1943.8 980.415 1940.82 979.637 1937.45 979.247 1934.46 979.637 1931.48 980.415 1928.49 981.583 1925.77 983.011 1923.95 984.568L1865.68 1027.78 1830.38 1027.78C1826.62 1027.78 1822.85 1028.95 1819.87 1031.94 1816.88 1035.31 1815.33 1039.07 1815.33 1042.84 1815.33 1046.6 1816.88 1050.36 1819.87 1053.35 1822.85 1056.33 1826.62 1057.89 1830.38 1057.89L1878.14 1057.89 1910.84 1035.31 1944.58 1060.49Z" fill="#FFFFFF"/><path d="M2750.88 1328.21 2750.88 1289.67 1652.59 1289.67 1652.59 1328.21 2750.88 1328.21Z" fill="#FEFEFE"/><path d="M2233.72 1726.88 2233.72 1566.48 2295.75 1566.48 2200.24 1394.14 2104.34 1566.48 2166.76 1566.48 2166.76 1726.88 2233.72 1726.88Z" fill="#FEFEFE"/><path d="M2749.71 856.48 2749.71 818.066 1650.38 818.066 1650.38 856.48 2749.71 856.48Z" fill="#FEFEFE"/></g></svg>