<svg width="1155" height="1155" xmlns="http://www.w3.org/2000/svg" xmlns:xlink="http://www.w3.org/1999/xlink" xml:space="preserve" overflow="hidden"><defs><clipPath id="clip0"><rect x="1623" y="660" width="1155" height="1155"/></clipPath></defs><g clip-path="url(#clip0)" transform="translate(-1623 -660)"><path d="M1623 1748.94C1623 1756.47 1624.17 1764.39 1627.54 1772.17 1630.53 1780.09 1635.33 1787.62 1641.82 1793.98 1648.18 1800.47 1655.31 1805.27 1663.23 1808.25 1671.41 1811.37 1679.32 1812.79 1686.85 1812.79L2711.43 1812.79C2718.95 1812.79 2726.87 1811.37 2735.17 1808.25 2743.09 1805.27 2750.62 1800.47 2756.59 1793.98 2762.95 1787.62 2767.88 1780.09 2770.86 1772.17 2774.24 1764.39 2775.4 1756.47 2775.4 1748.94L2775.4 724.369C2775.4 716.842 2774.24 708.536 2770.86 700.62 2767.88 692.703 2762.95 685.176 2756.59 678.817 2750.62 672.848 2743.09 667.916 2735.17 664.542 2726.87 661.557 2718.95 660 2711.43 660L1686.85 660C1679.32 660 1671.41 661.557 1663.23 664.542 1655.31 667.916 1648.18 672.848 1641.82 678.817 1635.33 685.176 1630.53 692.703 1627.54 700.62 1624.17 708.536 1623 716.842 1623 724.369L1623 1748.94Z" fill="#FFFFFF"/><path d="M1688.15 689.589 2712.85 689.589C2716.88 689.589 2721.42 690.238 2725.96 692.184 2730.5 694.001 2734.53 696.726 2738.29 700.101 2741.66 703.864 2744.39 707.887 2746.21 712.429 2747.76 716.582 2748.54 721.124 2748.54 725.666L2748.54 1749.85C2748.54 1754.4 2747.76 1758.81 2746.21 1763.35 2744.39 1767.5 2741.66 1772.04 2738.29 1775.42 2734.53 1778.79 2730.5 1781.39 2725.96 1783.33 2721.42 1785.15 2716.88 1785.93 2712.85 1785.93L1688.15 1785.93C1683.99 1785.93 1679.58 1785.15 1675.04 1783.33 1670.5 1781.39 1666.34 1778.79 1662.97 1775.42 1659.21 1772.04 1656.61 1767.5 1655.05 1763.35 1653.24 1758.81 1652.46 1754.4 1652.46 1749.85L1652.46 725.666C1652.46 721.124 1653.24 716.582 1655.05 712.429 1656.61 707.887 1659.21 703.864 1662.97 700.101 1666.34 696.726 1670.5 694.001 1675.04 692.184 1679.58 690.238 1683.99 689.589 1688.15 689.589Z" fill="#0055FF"/><path d="M1688.15 689.589 2712.72 689.589" stroke="#010101" stroke-width="2.59551" stroke-linejoin="round" fill="none"/><path d="M2712.72 689.589C2722.07 689.589 2731.41 693.222 2738.16 700.23 2744.78 706.979 2748.54 715.933 2748.54 725.796" stroke="#010101" stroke-width="2.59551" stroke-linejoin="round" fill="none"/><path d="M2748.41 725.666 2748.41 1749.72" stroke="#010101" stroke-width="2.59551" stroke-linejoin="round" fill="none"/><path d="M2748.54 1749.72C2748.54 1759.46 2744.78 1768.54 2738.16 1775.29 2731.41 1782.17 2722.07 1785.93 2712.72 1785.93" stroke="#010101" stroke-width="2.59551" stroke-linejoin="round" fill="none"/><path d="M2712.72 1785.8 1688.15 1785.8" stroke="#010101" stroke-width="2.59551" stroke-linejoin="round" fill="none"/><path d="M1688.28 1785.93C1678.93 1785.93 1669.72 1782.17 1662.97 1775.29 1656.22 1768.54 1652.46 1759.46 1652.46 1749.72" stroke="#010101" stroke-width="2.59551" stroke-linejoin="round" fill="none"/><path d="M1652.46 1749.72 1652.46 725.666" stroke="#010101" stroke-width="2.59551" stroke-linejoin="round" fill="none"/><path d="M1652.46 725.796C1652.46 715.933 1656.22 706.979 1662.97 700.23 1669.72 693.222 1678.93 689.589 1688.28 689.589" stroke="#010101" stroke-width="2.59551" stroke-linejoin="round" fill="none"/><path d="M1624.3 1749.72C1624.3 1766.98 1631.18 1783.33 1643.24 1795.27 1655.18 1807.34 1671.41 1814.09 1688.28 1814.09" stroke="#343434" stroke-width="2.59551" stroke-linejoin="round" fill="none"/><path d="M1688.15 1813.96 2712.72 1813.96" stroke="#343434" stroke-width="2.59551" stroke-linejoin="round" fill="none"/><path d="M2712.72 1814.09C2729.59 1814.09 2746.08 1807.34 2758.14 1795.27 2769.82 1783.33 2776.7 1766.98 2776.7 1749.72" stroke="#343434" stroke-width="2.59551" stroke-linejoin="round" fill="none"/><path d="M2776.57 1749.72 2776.57 725.666" stroke="#343434" stroke-width="2.59551" stroke-linejoin="round" fill="none"/><path d="M2776.7 725.796C2776.7 708.796 2769.82 692.314 2758.14 680.115 2746.08 668.046 2729.59 661.298 2712.72 661.298" stroke="#343434" stroke-width="2.59551" stroke-linejoin="round" fill="none"/><path d="M2712.72 661.298 1688.15 661.298" stroke="#343434" stroke-width="2.59551" stroke-linejoin="round" fill="none"/><path d="M1688.28 661.298C1671.41 661.298 1655.18 668.046 1643.24 680.115 1631.18 692.314 1624.3 708.796 1624.3 725.796" stroke="#343434" stroke-width="2.59551" stroke-linejoin="round" fill="none"/><path d="M1624.3 725.666 1624.3 1749.72" stroke="#343434" stroke-width="2.59551" stroke-linejoin="round" fill="none"/><path d="M2066.05 1315.62C2046.46 1315.62 2028.03 1323.54 2014.14 1337.04 2000.52 1350.92 1992.6 1369.48 1992.6 1389.08 1992.6 1397.64 1994.16 1406.73 1997.79 1415.68 2001.29 1425.16 2007 1433.46 2014.14 1440.6 2021.28 1448 2029.98 1453.32 2038.93 1457.08 2048.01 1460.45 2057.36 1462.01 2066.05 1462.01 2074.62 1462.01 2083.7 1460.45 2092.66 1457.08 2102.13 1453.32 2110.31 1448 2117.44 1440.6 2124.97 1433.46 2130.29 1425.16 2134.05 1415.68 2137.43 1406.73 2138.86 1397.64 2138.86 1389.08 2138.86 1380.38 2137.43 1371.04 2134.05 1361.95 2130.29 1352.87 2124.97 1344.18 2117.44 1337.04 2110.31 1329.9 2102.13 1324.32 2092.66 1320.95 2083.7 1317.18 2074.62 1315.62 2066.05 1315.62ZM2066.05 1338.21C2072.02 1338.21 2078.38 1339.37 2084.48 1341.58 2090.84 1344.18 2096.81 1347.94 2101.74 1352.87 2106.54 1358.19 2110.31 1363.9 2113.03 1370.26 2115.63 1376.62 2116.79 1382.98 2116.79 1389.08 2116.79 1395.05 2115.63 1401.41 2113.03 1407.51 2110.31 1413.86 2106.54 1419.83 2101.74 1424.77 2096.81 1429.7 2090.84 1433.46 2084.48 1436.06 2078.38 1438.65 2072.02 1439.43 2066.05 1439.43 2059.95 1439.43 2053.59 1438.65 2047.24 1436.06 2041.14 1433.46 2035.17 1429.7 2030.36 1424.77 2025.04 1419.83 2021.28 1413.86 2019.07 1407.51 2016.35 1401.41 2015.31 1395.05 2015.31 1389.08 2015.31 1382.98 2016.35 1376.62 2019.07 1370.26 2021.28 1363.9 2025.04 1358.19 2030.36 1352.87 2035.17 1347.94 2041.14 1344.18 2047.24 1341.58 2053.59 1339.37 2059.95 1338.21 2066.05 1338.21Z" fill="#FFFFFF"/><path d="M2335.86 1315.62C2316.65 1315.62 2297.83 1323.54 2284.21 1337.04 2270.32 1350.92 2262.79 1369.48 2262.79 1389.08 2262.79 1397.64 2264.35 1406.73 2267.72 1415.68 2271.49 1425.16 2277.07 1433.46 2284.21 1440.6 2291.34 1448 2300.17 1453.32 2309.12 1457.08 2318.21 1460.45 2327.16 1462.01 2335.86 1462.01 2344.55 1462.01 2353.89 1460.45 2362.85 1457.08 2371.93 1453.32 2380.63 1448 2387.77 1440.6 2394.9 1433.46 2400.48 1425.16 2403.86 1415.68 2407.62 1406.73 2409.18 1397.64 2409.18 1389.08 2409.18 1380.38 2407.62 1371.04 2403.86 1361.95 2400.48 1352.87 2394.9 1344.18 2387.77 1337.04 2380.63 1329.9 2371.93 1324.32 2362.85 1320.95 2353.89 1317.18 2344.55 1315.62 2335.86 1315.62ZM2335.86 1338.21C2341.83 1338.21 2348.18 1339.37 2354.67 1341.58 2361.03 1344.18 2366.61 1347.94 2371.93 1352.87 2376.86 1358.19 2380.63 1363.9 2383.22 1370.26 2385.43 1376.62 2386.6 1382.98 2386.6 1389.08 2386.6 1395.05 2385.43 1401.41 2383.22 1407.51 2380.63 1413.86 2376.86 1419.83 2371.93 1424.77 2366.61 1429.7 2361.03 1433.46 2354.67 1436.06 2348.18 1438.65 2341.83 1439.43 2335.86 1439.43 2329.89 1439.43 2323.79 1438.65 2317.43 1436.06 2311.07 1433.46 2304.97 1429.7 2300.17 1424.77 2295.11 1419.83 2291.34 1413.86 2288.75 1407.51 2286.54 1401.41 2285.37 1395.05 2285.37 1389.08 2285.37 1382.98 2286.54 1376.62 2288.75 1370.26 2291.34 1363.9 2295.11 1358.19 2300.17 1352.87 2304.97 1347.94 2311.07 1344.18 2317.43 1341.58 2323.79 1339.37 2329.89 1338.21 2335.86 1338.21Z" fill="#FFFFFF"/><path d="M2212.18 1180.66C2212.18 1175.86 2211.4 1170.93 2209.58 1166.12 2207.64 1161.19 2204.65 1156.65 2200.5 1152.89 2196.74 1148.73 2192.32 1146.14 2187.39 1143.93 2182.46 1141.99 2177.66 1141.21 2172.73 1141.21 2168.19 1141.21 2163.38 1141.99 2158.45 1143.93 2153.52 1146.14 2149.11 1148.73 2144.96 1152.89 2141.06 1156.65 2138.08 1161.19 2136.13 1166.12 2134.31 1170.93 2133.15 1175.86 2133.15 1180.66L2167.15 1177.67 2167.15 1205.96 2141.84 1225.95 2144.57 1242.82 2212.18 1191.95 2212.18 1180.66Z" fill="#FFFFFF"/><path d="M2217.76 1296.16 2170 1317.57C2167.02 1318.61 2164.29 1320.56 2162.09 1323.15 2159.49 1325.75 2157.54 1328.73 2156.51 1332.24 2155.34 1335.87 2155.34 1339.37 2155.73 1343.14 2156.12 1346.64 2157.16 1349.63 2158.71 1352.22L2199.72 1422.82C2201.93 1426.32 2206.08 1429.31 2210.88 1429.96 2215.81 1431.12 2220.74 1429.96 2224.12 1427.36 2228.27 1424.77 2230.87 1421 2231.65 1416.07 2232.42 1411.66 2231.65 1406.73 2228.92 1402.96L2195.18 1348.46 2268.5 1313.03C2270.71 1311.47 2272.91 1309.66 2274.86 1307.32 2276.68 1305.11 2278.36 1302.13 2279.14 1299.14 2279.79 1295.77 2279.79 1292.65 2279.14 1289.67 2278.36 1286.68 2277.2 1284.09 2275.64 1281.75L2230.09 1218.29C2228.27 1216.09 2225.94 1213.75 2223.34 1211.93 2220.36 1210.38 2216.98 1209.34 2213.61 1208.56 2210.23 1208.17 2206.86 1208.56 2203.48 1209.6 2200.37 1210.38 2197.39 1211.93 2195.18 1213.75L2131.98 1260.34 2094.08 1260.34C2089.93 1260.34 2085.78 1261.9 2082.4 1265.27 2079.03 1268.65 2077.47 1272.8 2077.47 1276.95 2077.47 1280.72 2079.03 1285.26 2082.4 1288.63 2085.78 1291.62 2089.93 1293.04 2094.08 1293.04L2145.6 1293.04 2181.29 1269.04 2217.76 1296.16Z" fill="#FFFFFF"/><path d="M1761.08 763.561 1761.08 1016.88 1793.78 1029.73 1950.55 1029.73C1949.38 1025.97 1948.22 1021.55 1947.83 1016.88 1947.44 1011.95 1947.44 1007.15 1947.83 1002.22 1949.38 992.095 1953.15 981.972 1959.51 973.278 1966.26 964.193 1974.56 957.834 1983.9 953.681 1988.45 951.475 1993.38 949.918 1997.79 949.269 2002.33 948.49 2006.88 948.101 2011.03 948.101 2015.57 948.101 2019.59 948.49 2024.52 949.269 2029.07 949.918 2033.61 951.475 2038.41 953.681 2047.49 957.834 2056.06 964.193 2062.55 973.278 2069.3 981.972 2073.06 992.095 2074.1 1002.22 2074.88 1007.15 2074.88 1011.95 2074.49 1016.88 2073.71 1021.55 2073.06 1025.97 2071.5 1029.73L2104.34 1029.73 2109.27 1038.04 2213.74 1038.04 2218.54 1029.73 2382.06 1029.73C2380.63 1025.97 2379.85 1021.55 2379.07 1016.88 2378.68 1011.95 2378.68 1007.15 2379.46 1002.22 2380.63 992.095 2384.26 981.972 2391.14 973.278 2397.5 964.193 2406.06 957.834 2415.15 953.681 2420.08 951.475 2424.49 949.918 2429.03 949.269 2433.58 948.49 2438.12 948.101 2442.53 948.101 2446.68 948.101 2451.23 948.49 2455.77 949.269 2460.18 949.918 2465.11 951.475 2469.65 953.681 2479 957.834 2487.3 964.193 2494.05 973.278 2500.41 981.972 2504.17 992.095 2505.73 1002.22 2506.12 1007.15 2506.12 1011.95 2505.73 1016.88 2505.34 1021.55 2504.17 1025.97 2502.75 1029.73L2623.7 1029.73 2630.06 1016.88 2639.92 1016.88 2639.92 975.873 2630.06 975.873 2630.06 796.264 2634.99 796.264 2634.99 763.561 1761.08 763.561ZM1813.38 910.466 1767.83 910.466 1767.83 787.958 1813.38 787.958 1813.38 910.466ZM1927.97 910.466 1823.11 910.466 1823.11 787.958 1927.97 787.958 1927.97 910.466ZM2042.17 910.466 1937.7 910.466 1937.7 787.958 2042.17 787.958 2042.17 910.466ZM2099.41 910.466 2051.91 910.466 2051.91 787.958 2099.41 787.958 2099.41 910.466ZM2156.64 1005.2 2109.27 1005.2 2109.27 787.958 2156.64 787.958 2156.64 1005.2ZM2213.74 1005.2 2166.37 1005.2 2166.37 787.958 2213.74 787.958 2213.74 1005.2ZM2270.84 910.466 2223.47 910.466 2223.47 787.958 2270.84 787.958 2270.84 910.466ZM2385.04 910.466 2280.57 910.466 2280.57 787.958 2385.04 787.958 2385.04 910.466ZM2499.76 910.466 2395.16 910.466 2395.16 787.958 2499.76 787.958 2499.76 910.466ZM2556.86 1005.2 2509.49 1005.2 2509.49 787.958 2556.86 787.958 2556.86 1005.2ZM2613.96 1005.2 2566.6 1005.2 2566.6 787.958 2613.96 787.958 2613.96 1005.2Z" fill="#FEFEFE"/><path d="M2061.9 1007.28C2061.9 1001.05 2060.73 994.69 2058.53 988.331 2055.8 981.972 2052.04 976.262 2047.24 971.071 2041.91 966.14 2036.33 962.376 2029.98 959.781 2023.36 957.445 2017 956.407 2011.03 956.407 1997.79 956.407 1984.68 961.598 1975.34 971.071 1965.87 980.805 1960.68 993.522 1960.68 1007.28 1960.68 1012.86 1961.45 1019.22 1964.05 1025.58 1966.64 1032.07 1970.41 1037.65 1975.34 1042.97 1980.14 1047.77 1986.24 1051.53 1992.6 1054.26 1998.57 1056.46 2004.93 1057.63 2011.03 1057.63 2024.52 1057.63 2037.5 1052.31 2047.24 1042.97 2056.58 1033.49 2061.9 1020.39 2061.9 1007.28ZM2020.76 1007.28C2020.76 1012.47 2016.61 1017.01 2011.03 1017.01 2008.69 1017.01 2006.1 1015.84 2004.28 1014.03 2002.33 1012.08 2001.29 1009.48 2001.29 1007.28 2001.29 1001.44 2005.71 996.897 2011.03 996.897 2013.62 996.897 2015.83 998.065 2018.17 1000.01 2019.98 1001.83 2020.76 1004.42 2020.76 1007.28Z" fill="#FEFEFE"/><path d="M2492.88 1007.28C2492.88 1001.05 2491.85 994.69 2489.51 988.331 2486.91 981.972 2483.15 976.262 2478.22 971.071 2473.42 966.14 2467.32 962.376 2460.96 959.781 2454.6 957.445 2448.63 956.407 2442.53 956.407 2428.9 956.407 2416.19 961.598 2406.32 971.071 2396.98 980.805 2391.66 993.522 2391.66 1007.28 2391.66 1012.86 2392.83 1019.22 2395.03 1025.58 2397.76 1032.07 2401.52 1037.65 2406.32 1042.97 2411.64 1047.77 2417.22 1051.53 2423.71 1054.26 2430.07 1056.46 2436.56 1057.63 2442.53 1057.63 2455.77 1057.63 2468.88 1052.31 2478.22 1042.97 2487.69 1033.49 2492.88 1020.39 2492.88 1007.28ZM2452.39 1007.28C2452.39 1012.47 2447.85 1017.01 2442.53 1017.01 2439.94 1017.01 2437.34 1015.84 2435.39 1014.03 2433.58 1012.08 2432.8 1009.48 2432.8 1007.28 2432.8 1001.44 2436.95 996.897 2442.53 996.897 2444.87 996.897 2447.46 998.065 2449.28 1000.01 2451.23 1001.83 2452.39 1004.42 2452.39 1007.28Z" fill="#FEFEFE"/><path d="M1976.25 1711.83 2015.31 1711.83 2015.31 1580.24 2064.5 1580.24 2064.5 1545.33 1926.8 1545.33 1926.8 1580.24 1976.25 1580.24 1976.25 1711.83Z" fill="#FEFEFE"/><path d="M2076.43 1711.83 2116.41 1711.83 2125.36 1685.22 2186.22 1685.22 2195.31 1711.83 2235.54 1711.83 2181.03 1545.33 2131.72 1545.33 2076.43 1711.83ZM2136.65 1649.41 2155.08 1583.61 2174.93 1649.41 2136.65 1649.41Z" fill="#FEFEFE"/><path d="M2247.35 1711.83 2291.73 1711.83 2325.21 1657.06 2358.96 1711.83 2403.47 1711.83 2347.41 1617.48 2391.01 1545.33 2347.02 1545.33 2325.21 1581.66 2303.8 1545.33 2259.42 1545.33 2303.41 1617.48 2247.35 1711.83Z" fill="#FEFEFE"/><path d="M2435.65 1711.83 2474.2 1711.83 2474.2 1545.33 2435.65 1545.33 2435.65 1711.83Z" fill="#FEFEFE"/></g></svg>