<svg width="336" height="336" xmlns="http://www.w3.org/2000/svg" xmlns:xlink="http://www.w3.org/1999/xlink" xml:space="preserve" overflow="hidden"><g transform="translate(-472 -192)"><path d="M472.378 509.161C472.378 511.351 472.831 513.654 473.699 515.919 474.567 518.222 476.002 520.412 477.852 522.262 479.702 524.149 481.891 525.546 484.194 526.414 486.497 527.32 488.762 527.736 490.952 527.736L789.048 527.736C791.238 527.736 793.616 527.32 795.919 526.414 798.222 525.546 800.412 524.149 802.262 522.262 803.998 520.412 805.433 518.222 806.414 515.919 807.283 513.654 807.622 511.351 807.622 509.161L807.622 211.103C807.622 208.913 807.283 206.497 806.414 204.194 805.433 201.891 803.998 199.702 802.262 197.852 800.412 196.115 798.222 194.68 795.919 193.699 793.616 192.831 791.238 192.378 789.048 192.378L490.952 192.378C488.762 192.378 486.497 192.831 484.194 193.699 481.891 194.68 479.702 196.115 477.852 197.852 476.002 199.702 474.567 201.891 473.699 204.194 472.831 206.497 472.378 208.913 472.378 211.103L472.378 509.161Z" fill="#FFFFFF"/><path d="M472.378 509.124C472.378 514.069 474.341 518.788 477.889 522.262 481.4 525.773 486.082 527.736 490.99 527.736" stroke="#343434" stroke-width="0.755056" stroke-linejoin="round" fill="none"/><path d="M490.952 527.698 789.01 527.698" stroke="#343434" stroke-width="0.755056" stroke-linejoin="round" fill="none"/><path d="M789.01 527.736C793.956 527.736 798.751 525.773 802.262 522.262 805.773 518.788 807.622 514.069 807.622 509.124" stroke="#343434" stroke-width="0.755056" stroke-linejoin="round" fill="none"/><path d="M807.585 509.124 807.585 211.103" stroke="#343434" stroke-width="0.755056" stroke-linejoin="round" fill="none"/><path d="M807.622 211.141C807.622 206.195 805.773 201.4 802.262 197.852 798.751 194.341 793.956 192.378 789.01 192.378" stroke="#343434" stroke-width="0.755056" stroke-linejoin="round" fill="none"/><path d="M789.01 192.378 490.952 192.378" stroke="#343434" stroke-width="0.755056" stroke-linejoin="round" fill="none"/><path d="M490.99 192.378C486.082 192.378 481.4 194.341 477.889 197.852 474.341 201.4 472.378 206.195 472.378 211.141" stroke="#343434" stroke-width="0.755056" stroke-linejoin="round" fill="none"/><path d="M472.378 211.103 472.378 509.124" stroke="#343434" stroke-width="0.755056" stroke-linejoin="round" fill="none"/><path d="M480.57 509.161C480.57 510.369 480.796 511.653 481.363 512.974 481.778 514.182 482.646 515.504 483.628 516.485 484.609 517.467 485.818 518.335 487.139 518.788 488.46 519.317 489.782 519.543 490.952 519.543L789.048 519.543C790.256 519.543 791.54 519.317 792.861 518.788 794.182 518.335 795.391 517.467 796.485 516.485 797.467 515.504 798.222 514.182 798.751 512.974 799.317 511.653 799.543 510.369 799.543 509.161L799.543 211.103C799.543 209.895 799.204 208.573 798.751 207.252 798.222 205.931 797.467 204.76 796.485 203.666 795.391 202.684 794.182 201.891 792.861 201.363 791.54 200.796 790.256 200.608 789.048 200.608L490.952 200.608C489.782 200.608 488.46 200.796 487.139 201.363 485.818 201.891 484.609 202.684 483.628 203.666 482.646 204.76 481.778 205.931 481.363 207.252 480.796 208.573 480.57 209.782 480.57 211.103L480.57 509.161Z" fill="#0055FF"/><path d="M534.254 404.397 534.254 388.617" stroke="#FEFEFE" stroke-width="0.755056" stroke-linejoin="round" fill="none"/><path d="M640.076 424.595 599.416 467.935 626.522 467.935 626.522 511.653 653.742 511.653 653.742 467.935 680.811 467.935 640.076 424.595Z" fill="#FEFEFE"/><path d="M497.445 490.662 532.895 419.914 520.965 419.914 485.591 490.662 497.445 490.662Z" fill="#FEFEFE"/><path d="M794.598 490.662 759.261 419.914 747.331 419.914 782.706 490.662 794.598 490.662Z" fill="#FEFEFE"/><path d="M767.529 314.093C766.774 311.374 765.339 308.845 763.263 306.882 761.3 304.919 758.77 303.409 756.052 302.616 755.826 302.616 755.637 302.54 755.41 302.314 755.184 302.2 755.071 301.974 754.957 301.747L724.038 235.793C722.037 231.64 717.884 228.922 713.203 228.809L712.863 228.809 712.636 228.809 640.151 229.338 567.552 228.809 567.326 228.809 566.986 228.809C564.91 228.809 562.607 229.451 560.644 230.772 558.68 232.093 557.246 233.83 556.264 235.793L525.345 301.747C525.118 302.2 524.665 302.54 524.25 302.616 521.494 303.409 519.002 304.919 516.926 306.882 514.963 308.845 513.528 311.374 512.773 314.093 509.904 324.399 509.035 335.083 510.357 345.616 510.697 351.053 512.094 356.413 514.283 361.435 514.51 362.001 514.396 362.529 514.17 362.982 513.302 364.493 512.773 366.154 512.547 368.117 512.32 369.967 512.433 371.93 513.075 373.931 513.755 375.781 514.736 377.517 516.057 378.952 517.341 380.273 518.889 381.255 520.399 382.01L520.399 407.569C520.399 409.003 520.965 410.551 522.173 411.759 523.382 412.929 524.892 413.496 526.44 413.496L558.454 413.496C559.889 413.496 561.399 412.929 562.607 411.759 563.815 410.551 564.381 409.003 564.381 407.569L564.381 379.707 640.151 379.707 715.808 379.707 715.808 407.569C715.808 408.361 716.034 409.003 716.261 409.758 716.6 410.551 717.016 411.193 717.582 411.759 718.224 412.401 718.866 412.816 719.658 413.156 720.413 413.382 721.169 413.496 721.848 413.496L753.862 413.496C755.41 413.496 756.92 412.929 758.129 411.759 759.337 410.551 759.865 409.003 759.865 407.569L759.865 382.01C761.413 381.255 762.848 380.273 764.131 378.952 765.453 377.517 766.547 375.781 767.189 373.931 767.755 371.93 767.982 369.967 767.755 368.117 767.529 366.154 766.887 364.493 766.132 362.982 765.792 362.529 765.792 362.001 766.019 361.435 768.208 356.413 769.492 351.053 769.945 345.616 771.266 335.083 770.36 324.399 767.529 314.093Z" fill="#FEFEFE"/><path d="M574.725 240.059 643.058 240.512 711.391 240.059C712.674 239.946 713.995 240.399 715.241 241.154 716.449 241.909 717.318 243.004 717.846 244.212L740.498 295.858C740.611 296.387 740.838 296.953 740.724 297.595 740.724 298.161 740.498 298.803 740.045 299.369 739.743 299.898 739.177 300.351 738.535 300.539 737.969 300.766 737.44 300.879 736.874 300.766 705.69 297.708 674.431 296.273 643.058 296.5 611.761 296.273 580.388 297.708 549.242 300.766 548.676 300.879 548.147 300.766 547.581 300.539 547.053 300.351 546.524 299.898 546.071 299.369 545.618 298.803 545.505 298.161 545.429 297.595 545.429 296.953 545.505 296.387 545.731 295.858L568.383 244.212C569.478 241.569 571.969 239.946 574.725 240.059Z" fill="#0055FF"/><path d="M737.855 297.028C737.855 297.293 737.855 297.481 737.742 297.708 737.667 297.934 737.44 297.934 737.176 297.934" stroke="#0055FF" stroke-width="0.755056" stroke-linejoin="round" fill="none"/><path d="M548.94 297.934C548.676 297.934 548.6 297.934 548.374 297.708 548.261 297.481 548.261 297.293 548.374 297.028" stroke="#0055FF" stroke-width="0.755056" stroke-linejoin="round" fill="none"/><path d="M672.392 275.056C673.487 275.585 674.582 276.151 675.865 276.566 677.073 276.906 678.508 277.133 679.942 277.246 682.887 277.321 685.945 276.566 688.663 275.056 691.533 273.395 693.609 271.092 694.893 268.487 695.685 267.279 696.101 265.958 696.44 264.674 696.667 263.353 696.856 262.145 696.856 260.937 696.856 259.729 696.667 258.52 696.44 257.237 696.101 255.915 695.685 254.594 694.893 253.273 693.609 250.781 691.419 248.44 688.663 246.779 685.945 245.156 682.887 244.514 679.942 244.627 678.508 244.703 677.073 244.929 675.865 245.269 674.582 245.722 673.487 246.251 672.392 246.779 671.41 247.346 670.429 248.101 669.447 248.969 668.428 249.951 667.56 251.008 666.805 252.291 665.143 254.707 664.237 257.765 664.237 260.937 664.237 264.108 665.143 267.166 666.805 269.582 667.56 270.903 668.428 271.885 669.447 272.867 670.429 273.735 671.41 274.49 672.392 275.056Z" fill="#FEFEFE"/><path d="M665.332 282.569C664.237 282.569 663.067 282.796 661.972 283.362 660.764 283.777 659.669 284.457 658.801 285.438 657.819 286.307 657.14 287.439 656.724 288.647 656.271 289.855 656.045 291.026 656.045 292.12L656.045 293.668C672.354 293.895 688.626 294.537 704.973 295.518L704.973 292.045C704.973 290.95 704.746 289.742 704.293 288.534 703.878 287.439 703.198 286.307 702.217 285.325 701.348 284.457 700.253 283.777 699.045 283.249 697.951 282.796 696.78 282.569 695.685 282.569L688.626 282.569 672.354 282.569 665.332 282.569Z" fill="#FEFEFE"/><path d="M590.997 275.622C591.978 276.189 593.187 276.717 594.395 277.057 595.716 277.472 597 277.699 598.547 277.699 601.53 277.812 604.588 277.17 607.344 275.509 610.062 273.999 612.252 271.696 613.573 269.053 614.215 267.77 614.781 266.449 614.97 265.127 615.31 263.919 615.423 262.635 615.423 261.427 615.423 260.333 615.31 259.011 614.97 257.69 614.668 256.482 614.215 255.198 613.573 253.877 612.138 251.234 610.062 248.931 607.344 247.383 604.475 245.76 601.417 245.08 598.434 245.194 597 245.194 595.716 245.533 594.395 245.836 593.187 246.289 591.978 246.742 590.997 247.383 589.902 247.912 588.92 248.705 587.939 249.611 587.071 250.479 586.089 251.574 585.334 252.782 583.786 255.274 582.805 258.256 582.805 261.541 582.805 264.712 583.786 267.657 585.334 270.148 586.089 271.356 587.071 272.451 588.052 273.32 588.92 274.188 590.015 274.981 590.997 275.622Z" fill="#FEFEFE"/><path d="M584.013 283.135C582.918 283.135 581.71 283.362 580.615 283.777 579.407 284.23 578.312 284.985 577.444 285.853 576.462 286.722 575.82 287.817 575.367 289.025 574.914 290.12 574.725 291.328 574.725 292.422L574.725 295.631C590.997 294.499 607.344 293.857 623.615 293.631L623.615 292.422C623.615 291.328 623.389 290.12 622.974 289.025 622.52 287.817 621.765 286.722 620.897 285.853 619.916 284.985 618.821 284.23 617.726 283.777 616.518 283.362 615.423 283.135 614.328 283.135L607.344 283.135 590.997 283.135 584.013 283.135Z" fill="#FEFEFE"/><path d="M587.41 372.081 635.96 372.081 635.96 357.961 614.555 357.961 625.05 348.976C626.145 348.108 627.24 347.013 628.334 346.031 633.355 341.35 636.187 334.781 636.3 327.759 636.413 322.851 634.979 317.943 632.374 313.677 631.166 312.129 629.844 310.846 628.334 309.638 626.9 308.43 625.276 307.448 623.615 306.693 621.539 305.598 619.462 304.919 617.273 304.39 609.685 302.729 601.719 303.824 594.923 307.448 592.205 308.958 589.902 311.261 588.392 314.017 586.844 316.509 585.862 319.34 585.221 322.323 584.654 325.267 584.541 328.212 584.994 331.157L601.077 331.157C600.737 328.854 601.077 326.589 601.945 324.512 603.266 320.888 606.513 318.472 610.251 318.359 611.572 318.359 612.78 318.472 614.102 318.812 617.046 319.453 619.349 321.756 620.029 324.701 620.671 328.212 619.802 331.95 617.613 334.781 616.404 336.291 615.083 337.726 613.686 339.047 612.214 340.331 610.666 341.652 609.043 342.747L588.694 357.961C588.279 358.263 587.939 358.603 587.712 359.169 587.486 359.622 587.41 360.189 587.41 360.604L587.41 372.081Z" fill="#010101"/><path d="M654.648 348.561 654.648 334.441 668.126 334.441 668.126 321.077 682.208 321.077 682.208 334.441 695.572 334.441 695.572 348.561 682.208 348.561 682.208 362.001 668.126 362.001 668.126 348.561 654.648 348.561Z" fill="#010101"/></g></svg>