<svg width="336" height="336" xmlns="http://www.w3.org/2000/svg" xmlns:xlink="http://www.w3.org/1999/xlink" xml:space="preserve" overflow="hidden"><g transform="translate(-840 -188)"><path d="M840.378 505.01C840.378 507.2 840.831 509.503 841.699 511.919 842.68 514.222 844.115 516.298 845.852 518.148 847.702 519.998 849.891 521.433 852.194 522.301 854.497 523.283 856.913 523.622 859.103 523.622L1157.05 523.622C1159.35 523.622 1161.65 523.283 1163.92 522.301 1166.22 521.433 1168.41 519.998 1170.26 518.148 1172.15 516.298 1173.43 514.222 1174.41 511.919 1175.32 509.503 1175.74 507.2 1175.74 505.01L1175.74 206.952C1175.74 204.762 1175.32 202.459 1174.41 200.081 1173.43 197.778 1172.15 195.588 1170.26 193.852 1168.41 191.964 1166.22 190.567 1163.92 189.661 1161.65 188.68 1159.35 188.378 1157.05 188.378L859.103 188.378C856.913 188.378 854.497 188.68 852.194 189.661 849.891 190.567 847.702 191.964 845.852 193.852 844.115 195.588 842.68 197.778 841.699 200.081 840.831 202.459 840.378 204.762 840.378 206.952L840.378 505.01Z" fill="#FFFFFF"/><path d="M840.378 504.973C840.378 509.918 842.378 514.637 845.889 518.148 849.4 521.622 854.195 523.622 859.141 523.622" stroke="#343434" stroke-width="0.755056" stroke-linejoin="round" fill="none"/><path d="M859.103 523.585 1157.01 523.585" stroke="#343434" stroke-width="0.755056" stroke-linejoin="round" fill="none"/><path d="M1157.01 523.622C1162.03 523.622 1166.79 521.622 1170.26 518.148 1173.77 514.637 1175.74 509.918 1175.74 504.973" stroke="#343434" stroke-width="0.755056" stroke-linejoin="round" fill="none"/><path d="M1175.7 504.973 1175.7 206.952" stroke="#343434" stroke-width="0.755056" stroke-linejoin="round" fill="none"/><path d="M1175.74 206.99C1175.74 202.082 1173.77 197.325 1170.26 193.852 1166.79 190.341 1162.03 188.378 1157.01 188.378" stroke="#343434" stroke-width="0.755056" stroke-linejoin="round" fill="none"/><path d="M1157.01 188.378 859.103 188.378" stroke="#343434" stroke-width="0.755056" stroke-linejoin="round" fill="none"/><path d="M859.141 188.378C854.195 188.378 849.4 190.341 845.889 193.852 842.378 197.325 840.378 202.082 840.378 206.99" stroke="#343434" stroke-width="0.755056" stroke-linejoin="round" fill="none"/><path d="M840.378 206.952 840.378 504.973" stroke="#343434" stroke-width="0.755056" stroke-linejoin="round" fill="none"/><path d="M848.608 505.01C848.608 506.218 848.796 507.54 849.363 508.861 849.891 510.145 850.684 511.353 851.666 512.334 852.76 513.429 853.969 514.222 855.252 514.751 856.46 515.204 857.782 515.392 859.103 515.392L1157.05 515.392C1158.37 515.392 1159.69 515.204 1160.97 514.751 1162.18 514.222 1163.5 513.429 1164.49 512.334 1165.47 511.353 1166.22 510.145 1166.79 508.861 1167.32 507.54 1167.54 506.218 1167.54 505.01L1167.54 206.952C1167.54 205.744 1167.32 204.422 1166.79 203.139 1166.22 201.818 1165.47 200.609 1164.49 199.628 1163.5 198.533 1162.18 197.778 1160.97 197.212 1159.69 196.796 1158.37 196.57 1157.05 196.57L859.103 196.57C857.782 196.57 856.46 196.796 855.252 197.212 853.969 197.778 852.76 198.533 851.666 199.628 850.684 200.609 849.891 201.818 849.363 203.139 848.796 204.422 848.608 205.744 848.608 206.952L848.608 505.01Z" fill="#0055FF"/><path d="M907.729 425.88 942.763 425.88 989.539 312.66 989.539 286.12 890.362 286.12 890.362 316.171 953.145 316.171 907.729 425.88Z" fill="#FEFEFE"/><path d="M1010.87 386.127C1014.3 398.396 1021.63 409.118 1031.67 416.782 1041.86 424.559 1054.1 428.712 1066.78 428.712 1079.47 428.712 1091.81 424.559 1101.89 416.782 1112.05 409.118 1119.26 398.396 1122.66 386.127 1128.24 366.344 1128.24 345.467 1122.66 325.685 1119.26 313.453 1112.05 302.618 1101.89 294.954 1091.81 287.328 1079.47 283.137 1066.78 283.137 1054.1 283.137 1041.86 287.328 1031.67 294.954 1021.63 302.618 1014.3 313.453 1010.87 325.685 1005.4 345.467 1005.4 366.344 1010.87 386.127ZM1041.18 375.556C1039.11 362.531 1039.11 349.318 1041.18 336.293 1042.28 330.29 1045.34 324.703 1050.06 320.777 1054.74 316.813 1060.67 314.661 1066.78 314.661 1072.9 314.661 1078.9 316.813 1083.51 320.777 1088.22 324.703 1091.4 330.29 1092.38 336.293 1094.57 349.318 1094.57 362.531 1092.38 375.556 1091.4 381.559 1088.22 387.033 1083.51 391.072 1078.9 394.999 1072.9 397.188 1066.78 397.188 1060.67 397.188 1054.74 394.999 1050.06 391.072 1045.34 387.033 1042.28 381.559 1041.18 375.556Z" fill="#FEFEFE"/></g></svg>