<svg width="336" height="336" xmlns="http://www.w3.org/2000/svg" xmlns:xlink="http://www.w3.org/1999/xlink" xml:space="preserve" overflow="hidden"><g transform="translate(-472 -192)"><path d="M472.378 509.01C472.378 511.2 472.831 513.503 473.699 515.919 474.68 518.222 476.115 520.298 477.852 522.148 479.702 523.998 481.891 525.433 484.194 526.301 486.497 527.283 488.913 527.622 491.103 527.622L789.048 527.622C791.351 527.622 793.654 527.283 795.919 526.301 798.222 525.433 800.412 523.998 802.262 522.148 804.149 520.298 805.433 518.222 806.414 515.919 807.32 513.503 807.736 511.2 807.736 509.01L807.736 210.952C807.736 208.762 807.32 206.459 806.414 204.081 805.433 201.778 804.149 199.588 802.262 197.852 800.412 195.964 798.222 194.567 795.919 193.661 793.654 192.68 791.351 192.378 789.048 192.378L491.103 192.378C488.913 192.378 486.497 192.68 484.194 193.661 481.891 194.567 479.702 195.964 477.852 197.852 476.115 199.588 474.68 201.778 473.699 204.081 472.831 206.459 472.378 208.762 472.378 210.952L472.378 509.01Z" fill="#FFFFFF"/><path d="M472.378 508.973C472.378 513.918 474.378 518.637 477.889 522.148 481.4 525.622 486.195 527.622 491.141 527.622" stroke="#343434" stroke-width="0.755056" stroke-linejoin="round" fill="none"/><path d="M491.103 527.585 789.01 527.585" stroke="#343434" stroke-width="0.755056" stroke-linejoin="round" fill="none"/><path d="M789.01 527.622C794.031 527.622 798.788 525.622 802.262 522.148 805.773 518.637 807.736 513.918 807.736 508.973" stroke="#343434" stroke-width="0.755056" stroke-linejoin="round" fill="none"/><path d="M807.698 508.973 807.698 210.952" stroke="#343434" stroke-width="0.755056" stroke-linejoin="round" fill="none"/><path d="M807.736 210.99C807.736 206.082 805.773 201.325 802.262 197.852 798.788 194.341 794.031 192.378 789.01 192.378" stroke="#343434" stroke-width="0.755056" stroke-linejoin="round" fill="none"/><path d="M789.01 192.378 491.103 192.378" stroke="#343434" stroke-width="0.755056" stroke-linejoin="round" fill="none"/><path d="M491.141 192.378C486.195 192.378 481.4 194.341 477.889 197.852 474.378 201.325 472.378 206.082 472.378 210.99" stroke="#343434" stroke-width="0.755056" stroke-linejoin="round" fill="none"/><path d="M472.378 210.952 472.378 508.973" stroke="#343434" stroke-width="0.755056" stroke-linejoin="round" fill="none"/><path d="M480.608 509.01C480.608 510.218 480.796 511.54 481.363 512.861 481.891 514.145 482.684 515.353 483.666 516.334 484.76 517.429 485.969 518.222 487.252 518.751 488.46 519.204 489.782 519.392 491.103 519.392L789.048 519.392C790.369 519.392 791.691 519.204 792.974 518.751 794.182 518.222 795.504 517.429 796.485 516.334 797.467 515.353 798.222 514.145 798.788 512.861 799.317 511.54 799.543 510.218 799.543 509.01L799.543 210.952C799.543 209.744 799.317 208.422 798.788 207.139 798.222 205.818 797.467 204.609 796.485 203.628 795.504 202.533 794.182 201.778 792.974 201.212 791.691 200.796 790.369 200.57 789.048 200.57L491.103 200.57C489.782 200.57 488.46 200.796 487.252 201.212 485.969 201.778 484.76 202.533 483.666 203.628 482.684 204.609 481.891 205.818 481.363 207.139 480.796 208.422 480.608 209.744 480.608 210.952L480.608 509.01Z" fill="#0055FF"/><path d="M655.026 374.497C655.026 374.308 654.799 374.082 654.686 374.082 654.422 374.082 654.195 374.308 654.195 374.497 654.195 374.724 654.422 374.875 654.686 374.875 654.799 374.875 655.026 374.724 655.026 374.497Z" fill="#010101"/><path d="M654.686 374.535 625.578 345.427" stroke="#010101" stroke-width="0.755056" stroke-linejoin="round" fill="none"/><path d="M539.729 429.88 574.763 429.88 621.539 316.66 621.539 290.12 522.362 290.12 522.362 320.171 585.145 320.171 539.729 429.88Z" fill="#FEFEFE"/><path d="M642.869 390.127C646.305 402.396 653.629 413.118 663.671 420.782 673.864 428.559 686.096 432.712 698.781 432.712 711.466 432.712 723.811 428.559 733.891 420.782 744.047 413.118 751.258 402.396 754.655 390.127 760.243 370.344 760.243 349.467 754.655 329.685 751.258 317.453 744.047 306.618 733.891 298.954 723.811 291.328 711.466 287.137 698.781 287.137 686.096 287.137 673.864 291.328 663.671 298.954 653.629 306.618 646.305 317.453 642.869 329.685 637.395 349.467 637.395 370.344 642.869 390.127ZM673.185 379.556C671.108 366.531 671.108 353.318 673.185 340.293 674.28 334.29 677.338 328.703 682.057 324.777 686.738 320.813 692.665 318.661 698.781 318.661 704.897 318.661 710.9 320.813 715.506 324.777 720.225 328.703 723.396 334.29 724.378 340.293 726.567 353.318 726.567 366.531 724.378 379.556 723.396 385.559 720.225 391.033 715.506 395.072 710.9 398.999 704.897 401.188 698.781 401.188 692.665 401.188 686.738 398.999 682.057 395.072 677.338 391.033 674.28 385.559 673.185 379.556Z" fill="#FEFEFE"/><path d="M512.094 519.392 799.543 232.056 799.543 210.952C799.543 208.234 798.448 205.591 796.485 203.628 794.522 201.665 791.88 200.57 789.161 200.57L768.057 200.57 480.608 487.906 480.721 509.01C480.721 510.218 480.91 511.54 481.363 512.861 481.891 514.145 482.684 515.353 483.779 516.448 484.76 517.429 485.969 518.222 487.252 518.751 488.573 519.317 489.895 519.506 491.103 519.506L512.094 519.392Z" fill="#FF0000"/></g></svg>