<?xml version="1.0" encoding="UTF-8" standalone="no"?>
<!-- Created with Inkscape (http://www.inkscape.org/) -->

<svg
   width="1200"
   height="600"
   viewBox="0 0 317.49998 158.75"
   version="1.1"
   id="svg1"
   inkscape:version="1.3.2 (091e20e, 2023-11-25, custom)"
   sodipodi:docname="Spain traffic signal s9.svg"
   xmlns:inkscape="http://www.inkscape.org/namespaces/inkscape"
   xmlns:sodipodi="http://sodipodi.sourceforge.net/DTD/sodipodi-0.dtd"
   xmlns="http://www.w3.org/2000/svg"
   xmlns:svg="http://www.w3.org/2000/svg">
  <sodipodi:namedview
     id="namedview1"
     pagecolor="#505050"
     bordercolor="#000000"
     borderopacity="1"
     inkscape:showpageshadow="0"
     inkscape:pageopacity="0"
     inkscape:pagecheckerboard="1"
     inkscape:deskcolor="#505050"
     inkscape:document-units="px"
     inkscape:zoom="0.70822811"
     inkscape:cx="661.51003"
     inkscape:cy="315.57629"
     inkscape:window-width="1920"
     inkscape:window-height="1051"
     inkscape:window-x="-9"
     inkscape:window-y="-9"
     inkscape:window-maximized="1"
     inkscape:current-layer="layer1" />
  <defs
     id="defs1">
    <clipPath
       clipPathUnits="userSpaceOnUse"
       id="clipPath4">
      <path
         d="M 14.053,25.392 H 586.674 V 835.141 H 14.053 V 25.392"
         transform="translate(-95.900005,-344.10001)"
         clip-rule="evenodd"
         id="path4" />
    </clipPath>
    <clipPath
       clipPathUnits="userSpaceOnUse"
       id="clipPath6">
      <path
         d="M 14.053,25.392 H 586.674 V 835.141 H 14.053 V 25.392"
         transform="translate(-95.900005,-344.10001)"
         clip-rule="evenodd"
         id="path6" />
    </clipPath>
    <clipPath
       clipPathUnits="userSpaceOnUse"
       id="clipPath8">
      <path
         d="M 14.053,25.392 H 586.674 V 835.141 H 14.053 V 25.392"
         transform="translate(-113.00001,-327.10001)"
         clip-rule="evenodd"
         id="path8" />
    </clipPath>
    <clipPath
       clipPathUnits="userSpaceOnUse"
       id="clipPath10">
      <path
         d="M 14.053,25.392 H 586.674 V 835.141 H 14.053 V 25.392"
         transform="translate(-487.80001,-327.10001)"
         clip-rule="evenodd"
         id="path10" />
    </clipPath>
    <clipPath
       clipPathUnits="userSpaceOnUse"
       id="clipPath12">
      <path
         d="M 14.053,25.392 H 586.674 V 835.141 H 14.053 V 25.392"
         transform="translate(-504.80002,-344.10001)"
         clip-rule="evenodd"
         id="path12" />
    </clipPath>
    <clipPath
       clipPathUnits="userSpaceOnUse"
       id="clipPath14">
      <path
         d="M 14.053,25.392 H 586.674 V 835.141 H 14.053 V 25.392"
         transform="translate(-504.80002,-514.50001)"
         clip-rule="evenodd"
         id="path14" />
    </clipPath>
    <clipPath
       clipPathUnits="userSpaceOnUse"
       id="clipPath16">
      <path
         d="M 14.053,25.392 H 586.674 V 835.141 H 14.053 V 25.392"
         transform="translate(-487.80001,-531.50002)"
         clip-rule="evenodd"
         id="path16" />
    </clipPath>
    <clipPath
       clipPathUnits="userSpaceOnUse"
       id="clipPath18">
      <path
         d="M 14.053,25.392 H 586.674 V 835.141 H 14.053 V 25.392"
         transform="translate(-113.00001,-531.50002)"
         clip-rule="evenodd"
         id="path18" />
    </clipPath>
    <clipPath
       clipPathUnits="userSpaceOnUse"
       id="clipPath20">
      <path
         d="M 14.053,25.392 H 586.674 V 835.141 H 14.053 V 25.392"
         transform="translate(-95.900005,-514.50001)"
         clip-rule="evenodd"
         id="path20" />
    </clipPath>
    <clipPath
       clipPathUnits="userSpaceOnUse"
       id="clipPath22">
      <path
         d="M 14.053,25.392 H 586.674 V 835.141 H 14.053 V 25.392"
         transform="translate(-103.40001,-344.10001)"
         clip-rule="evenodd"
         id="path22" />
    </clipPath>
    <clipPath
       clipPathUnits="userSpaceOnUse"
       id="clipPath78">
      <path
         d="M 14.053,25.392 H 586.674 V 835.141 H 14.053 V 25.392"
         transform="translate(-133.2,-386.70001)"
         clip-rule="evenodd"
         id="path78" />
    </clipPath>
    <clipPath
       clipPathUnits="userSpaceOnUse"
       id="clipPath80">
      <path
         d="M 14.053,25.392 H 586.674 V 835.141 H 14.053 V 25.392"
         transform="translate(-196,-410.90001)"
         clip-rule="evenodd"
         id="path80" />
    </clipPath>
    <clipPath
       clipPathUnits="userSpaceOnUse"
       id="clipPath82">
      <path
         d="M 14.053,25.392 H 586.674 V 835.141 H 14.053 V 25.392"
         transform="translate(-280.6,-416.50001)"
         clip-rule="evenodd"
         id="path82" />
    </clipPath>
    <clipPath
       clipPathUnits="userSpaceOnUse"
       id="clipPath84">
      <path
         d="M 14.053,25.392 H 586.674 V 835.141 H 14.053 V 25.392"
         transform="translate(-388.70001,-408.70001)"
         clip-rule="evenodd"
         id="path84" />
    </clipPath>
    <clipPath
       clipPathUnits="userSpaceOnUse"
       id="clipPath86">
      <path
         d="M 14.053,25.392 H 586.674 V 835.141 H 14.053 V 25.392"
         transform="translate(-408.10001,-410.90001)"
         clip-rule="evenodd"
         id="path86" />
    </clipPath>
    <clipPath
       clipPathUnits="userSpaceOnUse"
       id="clipPath90">
      <path
         d="M 14.053,25.392 H 586.674 V 835.141 H 14.053 V 25.392"
         transform="translate(-507.60001,-530.70001)"
         clip-rule="evenodd"
         id="path90" />
    </clipPath>
  </defs>
  <g
     inkscape:label="Layer 1"
     inkscape:groupmode="layer"
     id="layer1"
     transform="translate(-57.679077,-119.3044)">
    <path
       id="path3"
       d="m 0,0 c 0,-2 0.4,-4.1 1.2,-6.2 0.9,-2.2 2.1,-4.1 3.8,-5.8 1.7,-1.7 3.7,-3 5.8,-3.8 2.1,-0.9 4.3,-1.2 6.3,-1.2 h 374.8 c 2,0 4.1,0.3 6.2,1.2 2.1,0.8 4.1,2.1 5.8,3.8 1.7,1.7 3,3.6 3.8,5.8 0.8,2.1 1.2,4.2 1.2,6.2 v 170.4 c 0,2 -0.4,4.1 -1.2,6.3 -0.8,2.1 -2.1,4 -3.8,5.7 -1.7,1.7 -3.7,3 -5.8,3.8 -2.1,0.9 -4.2,1.2 -6.2,1.2 H 17.1 c -2,0 -4.2,-0.3 -6.3,-1.2 C 8.7,185.4 6.7,184.1 5,182.4 3.3,180.7 2.1,178.8 1.2,176.7 0.4,174.5 0,172.4 0,170.4 V 0"
       style="fill:#ffffff;fill-opacity:1;fill-rule:evenodd;stroke:none"
       transform="matrix(0.775563,0,0,-0.7748437,57.865214,264.69609)"
       clip-path="url(#clipPath4)" />
    <path
       id="path15"
       d="m -374.80001,0 c -4.5,0 -8.9,-1.8 -12.1,-5 -3.2,-3.2 -5,-7.5 -5,-12.000011 V -187.40002 c 0,-4.5 1.8,-8.8 5,-12 3.2,-3.2 7.6,-5 12.1,-5 H -5.0343308e-6 C 4.5,-204.40002 8.8,-202.60002 12,-199.40002 c 3.2,3.2 5,7.5 4.999997,12 l -2e-6,170.399998 c 0,4.499999 -1.8,8.7999991 -5,11.9999991 -3.2000004,3.2 -7.5000004,4.999999996062 -11.9999977212599,5.000011448031 z"
       style="fill:none;stroke:#000000;stroke-width:0.48;stroke-linecap:butt;stroke-linejoin:round;stroke-miterlimit:1.414;stroke-dasharray:none;stroke-opacity:1"
       transform="matrix(0.775563,0,0,-0.7748437,361.80836,119.49036)"
       clip-path="url(#clipPath16)"
       sodipodi:nodetypes="csccsccsccscc" />
    <path
       id="path21"
       d="m 0,0 c 0,-1.1 0.2,-2.3 0.7,-3.5 0.5,-1.2 1.2,-2.3 2.1,-3.2 1,-1 2.1,-1.7 3.3,-2.1 1.1,-0.5 2.3,-0.7 3.5,-0.7 h 374.8 c 1.1,0 2.3,0.2 3.5,0.7 1.2,0.4 2.3,1.1 3.2,2.1 0.9,0.9 1.7,2 2.1,3.2 0.5,1.2 0.7,2.4 0.7,3.5 v 170.4 c 0,1.1 -0.2,2.3 -0.7,3.5 -0.4,1.2 -1.2,2.3 -2.1,3.2 -0.9,1 -2,1.7 -3.2,2.2 -1.2,0.4 -2.4,0.6 -3.5,0.6 H 9.6 c -1.2,0 -2.4,-0.2 -3.5,-0.6 -1.2,-0.5 -2.3,-1.2 -3.3,-2.2 -0.9,-0.9 -1.6,-2 -2.1,-3.2 C 0.2,172.7 0,171.5 0,170.4 V 0"
       style="fill:#0055ff;fill-opacity:1;fill-rule:evenodd;stroke:none"
       transform="matrix(0.775563,0,0,-0.7748437,63.681938,264.69609)"
       clip-path="url(#clipPath22)" />
    <path
       id="path77"
       d="M 0,0 H 21.3 L 49.8,69 V 85.2 H -10.6 V 66.9 H 27.7 L 0,0"
       style="fill:#fefefe;fill-opacity:1;fill-rule:evenodd;stroke:none"
       transform="matrix(0.775563,0,0,-0.7748437,86.793712,231.68775)"
       clip-path="url(#clipPath78)" />
    <path
       id="path79"
       d="m 0,0 c 2.1,-7.5 6.5,-14 12.7,-18.7 6.1,-4.7 13.7,-7.2 21.4,-7.2 7.7,0 15.2,2.5 21.4,7.2 6.1,4.7 10.6,11.2 12.7,18.7 3.3,12.1 3.3,24.8 0,36.9 -2.1,7.4 -6.6,14 -12.7,18.7 -6.2,4.7 -13.7,7.2 -21.4,7.2 -7.7,0 -15.3,-2.5 -21.4,-7.2 C 6.5,50.9 2.1,44.3 0,36.9 -3.3,24.8 -3.3,12.1 0,0 m 18.5,6.5 c -1.3,7.9 -1.3,16 0,23.9 0.6,3.7 2.5,7 5.4,9.5 2.8,2.4 6.4,3.7 10.2,3.7 3.7,0 7.3,-1.3 10.2,-3.7 2.8,-2.5 4.8,-5.8 5.4,-9.5 C 51,22.5 51,14.4 49.7,6.5 49.1,2.8 47.1,-0.6 44.3,-3 41.4,-5.4 37.8,-6.7 34.1,-6.7 30.3,-6.7 26.7,-5.4 23.9,-3 21,-0.6 19.1,2.8 18.5,6.5"
       style="fill:#fefefe;fill-opacity:1;fill-rule:evenodd;stroke:none"
       transform="matrix(0.775563,0,0,-0.7748437,135.49908,212.93651)"
       clip-path="url(#clipPath80)" />
    <path
       id="path81"
       d="M 0,0 V 17.9 H 29.3 V 0 H 0"
       style="fill:#fefefe;fill-opacity:1;fill-rule:evenodd;stroke:none"
       transform="matrix(0.775563,0,0,-0.7748437,201.11171,208.59741)"
       clip-path="url(#clipPath82)" />
    <path
       id="path83"
       d="m 0,0 c 3.4,13 3.4,26.6 0,39.6 -1.9,6.8 -5.6,13.1 -10.7,18.1 -1.2,1.1 -2.5,2 -3.9,2.8 -4.8,2.8 -10.3,4.3 -15.9,4.4 -3.5,0.1 -7,-0.2 -10.4,-1 -4.4,-1 -8.5,-3.2 -11.9,-6.2 -6.2,-6.6 -9.5,-15.2 -9.4,-24.2 0.2,-9 3.9,-17.5 10.3,-23.8 1.6,-1.5 3.5,-2.7 5.5,-3.6 4.5,-2.2 9.5,-3.2 14.5,-2.9 5,0.3 9.8,1.9 14,4.6 -0.2,-1.8 -0.8,-3.8 -1.9,-5.7 -1.1,-1.9 -2.6,-3.5 -4.6,-4.8 -1.9,-1.2 -4.1,-1.9 -6.3,-2.1 -2.1,-0.2 -4.1,0.1 -5.9,0.7 -1.5,0.4 -2.9,1.1 -4,2.3 -1.2,1.1 -2.1,2.4 -2.6,3.8 L -61,-5.5 c 2.6,-6.1 7.3,-11.1 13.3,-14.1 5.1,-2.7 10.8,-4.2 16.7,-4.2 5.8,0 11.5,1.5 16.6,4.2 1.7,0.9 3.3,2.1 4.6,3.4 4.6,4.5 8,10 9.8,16.2 m -19.7,35.9 c 0.2,-1.4 0.2,-2.8 0,-4.2 -0.3,-2.8 -1.7,-5.4 -3.9,-7.3 -2.1,-1.9 -4.8,-2.9 -7.7,-2.9 -2.8,0 -5.5,1 -7.7,2.9 -2.1,1.9 -3.5,4.5 -3.8,7.3 -0.2,1.4 -0.2,2.8 0,4.2 0.3,2.8 1.7,5.4 3.8,7.3 2.2,1.9 4.9,2.9 7.7,2.9 2.9,0 5.6,-1 7.7,-2.9 2.2,-1.9 3.6,-4.5 3.9,-7.3"
       style="fill:#fefefe;fill-opacity:1;fill-rule:evenodd;stroke:none"
       transform="matrix(0.775563,0,0,-0.7748437,284.95006,214.64119)"
       clip-path="url(#clipPath84)" />
    <path
       id="path85"
       d="m 0,0 c 2.1,-7.5 6.5,-14 12.7,-18.7 6.1,-4.7 13.7,-7.2 21.4,-7.2 7.7,0 15.2,2.5 21.4,7.2 6.1,4.7 10.6,11.2 12.7,18.7 3.3,12.1 3.3,24.8 0,36.9 -2.1,7.4 -6.6,14 -12.7,18.7 -6.2,4.7 -13.7,7.2 -21.4,7.2 -7.7,0 -15.3,-2.5 -21.4,-7.2 C 6.5,50.9 2.1,44.3 0,36.9 -3.3,24.8 -3.3,12.1 0,0 m 18.5,6.5 c -1.3,7.9 -1.3,16 0,23.9 0.6,3.7 2.5,7 5.4,9.5 2.8,2.4 6.4,3.7 10.2,3.7 3.7,0 7.3,-1.3 10.2,-3.7 2.8,-2.5 4.7,-5.8 5.4,-9.5 C 51,22.5 51,14.4 49.7,6.5 49,2.8 47.1,-0.6 44.3,-3 41.4,-5.4 37.8,-6.7 34.1,-6.7 30.3,-6.7 26.7,-5.4 23.9,-3 21,-0.6 19.1,2.8 18.5,6.5"
       style="fill:#fefefe;fill-opacity:1;fill-rule:evenodd;stroke:none"
       transform="matrix(0.775563,0,0,-0.7748437,299.99598,212.93651)"
       clip-path="url(#clipPath86)" />
  </g>
</svg>
