<svg width="1950" height="1925" xmlns="http://www.w3.org/2000/svg"><defs><clipPath clipPathUnits="userSpaceOnUse" id="b"><path d="M14.053 25.392h572.621v809.749H14.053V25.392" transform="translate(-395.5 -526.9)" clip-rule="evenodd"/></clipPath><clipPath clipPathUnits="userSpaceOnUse" id="c"><path d="M14.053 25.392h572.621v809.749H14.053V25.392" transform="translate(-301.8 -514.5)" clip-rule="evenodd"/></clipPath><clipPath clipPathUnits="userSpaceOnUse" id="d"><path d="M14.053 25.392h572.621v809.749H14.053V25.392" transform="translate(-338.1 -504.7)" clip-rule="evenodd"/></clipPath><clipPath clipPathUnits="userSpaceOnUse" id="e"><path d="M14.053 25.392h572.621v809.749H14.053V25.392" transform="translate(-364.4 -478.4)" clip-rule="evenodd"/></clipPath><clipPath clipPathUnits="userSpaceOnUse" id="f"><path d="M14.053 25.392h572.621v809.749H14.053V25.392" transform="translate(-374.1 -442.1)" clip-rule="evenodd"/></clipPath><clipPath clipPathUnits="userSpaceOnUse" id="g"><path d="M14.053 25.392h572.621v809.749H14.053V25.392" transform="translate(-364.4 -405.8)" clip-rule="evenodd"/></clipPath><clipPath clipPathUnits="userSpaceOnUse" id="h"><path d="M14.053 25.392h572.621v809.749H14.053V25.392" transform="translate(-338.1 -379.5)" clip-rule="evenodd"/></clipPath><clipPath clipPathUnits="userSpaceOnUse" id="i"><path d="M14.053 25.392h572.621v809.749H14.053V25.392" transform="translate(-301.8 -369.8)" clip-rule="evenodd"/></clipPath><clipPath clipPathUnits="userSpaceOnUse" id="j"><path d="M14.053 25.392h572.621v809.749H14.053V25.392" transform="translate(-265.4 -379.5)" clip-rule="evenodd"/></clipPath><clipPath clipPathUnits="userSpaceOnUse" id="k"><path d="M14.053 25.392h572.621v809.749H14.053V25.392" transform="translate(-239.2 -405.8)" clip-rule="evenodd"/></clipPath><clipPath clipPathUnits="userSpaceOnUse" id="l"><path d="M14.053 25.392h572.621v809.749H14.053V25.392" transform="translate(-229.4 -442.1)" clip-rule="evenodd"/></clipPath><clipPath clipPathUnits="userSpaceOnUse" id="m"><path d="M14.053 25.392h572.621v809.749H14.053V25.392" transform="translate(-239.2 -478.4)" clip-rule="evenodd"/></clipPath><clipPath clipPathUnits="userSpaceOnUse" id="n"><path d="M14.053 25.392h572.621v809.749H14.053V25.392" transform="translate(-265.4 -504.7)" clip-rule="evenodd"/></clipPath><clipPath clipPathUnits="userSpaceOnUse" id="o"><path d="M14.053 25.392h572.621v809.749H14.053V25.392" transform="translate(-254.8 -422.6)" clip-rule="evenodd"/></clipPath><clipPath clipPathUnits="userSpaceOnUse" id="p"><path d="M14.053 25.392h572.621v809.749H14.053V25.392" transform="translate(-268.9 -425.2)" clip-rule="evenodd"/></clipPath><clipPath clipPathUnits="userSpaceOnUse" id="q"><path d="M14.053 25.392h572.621v809.749H14.053V25.392" transform="translate(-293.5 -427.8)" clip-rule="evenodd"/></clipPath><clipPath clipPathUnits="userSpaceOnUse" id="r"><path d="M14.053 25.392h572.621v809.749H14.053V25.392" transform="translate(-299.5 -422.6)" clip-rule="evenodd"/></clipPath><clipPath clipPathUnits="userSpaceOnUse" id="s"><path d="M14.053 25.392h572.621v809.749H14.053V25.392" transform="translate(-317.1 -422.6)" clip-rule="evenodd"/></clipPath><clipPath clipPathUnits="userSpaceOnUse" id="t"><path d="M14.053 25.392h572.621v809.749H14.053V25.392" transform="translate(-318.8 -439.8)" clip-rule="evenodd"/></clipPath><clipPath clipPathUnits="userSpaceOnUse" id="u"><path d="M14.053 25.392h572.621v809.749H14.053V25.392" transform="translate(-334.1 -422.6)" clip-rule="evenodd"/></clipPath><clipPath clipPathUnits="userSpaceOnUse" id="a"><path d="M14.053 25.392h572.621v809.749H14.053V25.392" transform="translate(-395.5 -530)" clip-rule="evenodd"/></clipPath></defs><path d="M5.1-2.1c1.4-1.4 2.1-3.2 2.1-5.2v-184.8c0-1.9-.7-3.7-2.1-5.1-1.4-1.4-3.2-2.1-5.1-2.1h-187.4c-2 0-3.8.7-5.2 2.1-1.3 1.4-2.1 3.2-2.1 5.1V-7.3c0 2 .8 3.8 2.1 5.2 1.4 1.3 3.2 2.1 5.2 2.1H0c1.9 0 3.7-.8 5.1-2.1Z" style="fill:#fff;stroke:#010101;stroke-width:.48;stroke-linecap:butt;stroke-linejoin:round;stroke-miterlimit:1.414;stroke-dasharray:none;stroke-opacity:1" transform="matrix(9.63534 0 0 -9.6356 1878.313 2.313)" clip-path="url(#a)"/><path d="M0 0c1 0 2.1-.4 2.9-1.2.4-.4.7-.9.9-1.4.2-.5.3-1.1.3-1.6V-189c0-1-.4-2.1-1.2-2.9-.8-.9-1.9-1.2-2.9-1.2h-187.4c-1 0-2.1.3-3 1.2-.4.4-.7.9-.9 1.4-.2.5-.3 1-.3 1.5V-4.2c0 1 .4 2.1 1.2 3 .9.8 2 1.2 3 1.2H0" style="fill:#05f;fill-opacity:1;fill-rule:evenodd;stroke:none" transform="matrix(9.63534 0 0 -9.6356 1878.313 32.183)" clip-path="url(#b)"/><path d="m0 0 2.7-8.1h8.7l-7.1-5.1L7-21.6l-7 5.1-7.1-5.1 2.7 8.4-7.1 5.1h8.8L0 0" style="fill:#ff0;fill-opacity:1;fill-rule:evenodd;stroke:none" transform="matrix(9.63534 0 0 -9.6356 975.482 151.664)" clip-path="url(#c)"/><path d="m0 0 2.7-8.1h8.7l-7-5 2.7-8.4-7.1 5-7.1-5 2.7 8.4-7 5h8.7L0 0" style="fill:#ff0;fill-opacity:1;fill-rule:evenodd;stroke:none" transform="matrix(9.63534 0 0 -9.6356 1325.245 246.093)" clip-path="url(#d)"/><path d="m0 0 2.6-8h8.8l-7.1-5.1L7-21.5l-7 5.1-7.1-5.1 2.7 8.4-7.1 5.1h8.8L0 0" style="fill:#ff0;fill-opacity:1;fill-rule:evenodd;stroke:none" transform="matrix(9.63534 0 0 -9.6356 1578.654 499.51)" clip-path="url(#e)"/><path d="m0 0 2.7-8.1h8.8l-7.1-5 2.7-8.4-7.1 5-7.1-5 2.7 8.4-7 5h8.7L0 0" style="fill:#ff0;fill-opacity:1;fill-rule:evenodd;stroke:none" transform="matrix(9.63534 0 0 -9.6356 1672.117 849.282)" clip-path="url(#f)"/><path d="m0 0 2.6-8.1h8.8l-7.1-5.1L7-21.6l-7 5.1-7.1-5.1 2.7 8.4-7.1 5.1h8.8L0 0" style="fill:#ff0;fill-opacity:1;fill-rule:evenodd;stroke:none" transform="matrix(9.63534 0 0 -9.6356 1578.654 1199.054)" clip-path="url(#g)"/><path d="m0 0 2.7-8.1h8.7l-7-5 2.7-8.4-7.1 5-7.1-5 2.7 8.4-7 5h8.7L0 0" style="fill:#ff0;fill-opacity:1;fill-rule:evenodd;stroke:none" transform="matrix(9.63534 0 0 -9.6356 1325.245 1452.47)" clip-path="url(#h)"/><path d="m0 0 2.7-8.1h8.7l-7.1-5.1L7-21.6l-7 5.1-7.1-5.1 2.7 8.4-7.1 5.1h8.8L0 0" style="fill:#ff0;fill-opacity:1;fill-rule:evenodd;stroke:none" transform="matrix(9.63534 0 0 -9.6356 975.482 1545.936)" clip-path="url(#i)"/><path d="m0 0 2.7-8.1h8.8l-7.1-5 2.7-8.4-7.1 5-7-5 2.6 8.4-7 5h8.7L0 0" style="fill:#ff0;fill-opacity:1;fill-rule:evenodd;stroke:none" transform="matrix(9.63534 0 0 -9.6356 624.755 1452.47)" clip-path="url(#j)"/><path d="m0 0 2.7-8.1h8.7l-7.1-5.1L7-21.6l-7 5.1-7.1-5.1 2.7 8.4-7.1 5.1h8.8L0 0" style="fill:#ff0;fill-opacity:1;fill-rule:evenodd;stroke:none" transform="matrix(9.63534 0 0 -9.6356 372.31 1199.054)" clip-path="url(#k)"/><path d="m0 0 2.7-8.1h8.8l-7.1-5 2.7-8.4-7.1 5-7.1-5 2.7 8.4-7 5h8.7L0 0" style="fill:#ff0;fill-opacity:1;fill-rule:evenodd;stroke:none" transform="matrix(9.63534 0 0 -9.6356 277.883 849.282)" clip-path="url(#l)"/><path d="m0 0 2.7-8h8.7l-7.1-5.1L7-21.5l-7 5.1-7.1-5.1 2.7 8.4-7.1 5.1h8.8L0 0" style="fill:#ff0;fill-opacity:1;fill-rule:evenodd;stroke:none" transform="matrix(9.63534 0 0 -9.6356 372.31 499.51)" clip-path="url(#m)"/><path d="m0 0 2.7-8.1h8.8l-7.1-5 2.7-8.4-7.1 5-7-5 2.6 8.4-7 5h8.7L0 0" style="fill:#ff0;fill-opacity:1;fill-rule:evenodd;stroke:none" transform="matrix(9.63534 0 0 -9.6356 624.755 246.093)" clip-path="url(#n)"/><path d="M0 0h11.4v3.4H3.5v2.9h6.4v3.3H3.5v2.8h7.2v3.1H0V0" style="fill:#fefefe;fill-opacity:1;fill-rule:evenodd;stroke:none" transform="matrix(9.63534 0 0 -9.6356 522.62 1037.176)" clip-path="url(#o)"/><path d="M0 0c2.8-2.6 6.9-3.4 10.4-1.9 1.2.5 2.1 1.3 2.7 2.4.3.6.4 1.2.4 1.8 0 1.2-.5 2.3-1.3 3.2-.6.5-1.4 1-2.2 1.2-1.3.3-2.7.6-4 .7-.2 0-.5.1-.7.2-.1 0-.2.1-.3.2-.1.1-.2.3-.2.5 0 .4.3.8.6 1 .4.3.9.4 1.4.4.6 0 1.3-.1 1.9-.3.7-.2 1.3-.5 1.8-.9l2.4 2.5c-2.7 2-6.2 2.5-9.3 1.3C1.9 11.7.8 10 .8 8.2c0-1.8 1.2-3.4 3-4 1.2-.3 2.5-.5 3.7-.7h.6c.3-.1.6-.2.8-.3.3-.2.5-.6.5-.9 0-.6-.5-1.2-1.1-1.3-.9-.3-1.9-.3-3-.1-1 .3-1.9.9-2.5 1.6L0 0" style="fill:#fefefe;fill-opacity:1;fill-rule:evenodd;stroke:none" transform="matrix(9.63534 0 0 -9.6356 658.479 1012.123)" clip-path="url(#p)"/><path d="M0 0c1.4 0 2.7.6 3.7 1.5.9 1 1.5 2.3 1.5 3.7 0 1.3-.6 2.6-1.5 3.6-1 1-2.3 1.5-3.7 1.5h-6.9V-5.2h3.7V0H0m-.5 7.2c1.1 0 2-.9 2-2s-.9-2.1-2-2.1h-2.7v4.1h2.7" style="fill:#fefefe;fill-opacity:1;fill-rule:evenodd;stroke:none" transform="matrix(9.63534 0 0 -9.6356 895.508 987.07)" clip-path="url(#q)"/><path d="M0 0h3.4l.8 2.4h6.3l.8-2.4h3.4L9.6 15.5H5.1L0 0m5.3 5.7 2 6.3 2.1-6.3H5.3" style="fill:#fefefe;fill-opacity:1;fill-rule:evenodd;stroke:none" transform="matrix(9.63534 0 0 -9.6356 953.32 1037.176)" clip-path="url(#r)"/><path d="M0 0h3.5v10.1L10.1 0h3.8v15.5h-3.5V5.4L3.8 15.5H0V0" style="fill:#fefefe;fill-opacity:1;fill-rule:evenodd;stroke:none" transform="matrix(9.63534 0 0 -9.6356 1122.902 1037.176)" clip-path="url(#s)"/><path d="M0 0h10.4v1.7H0V0" style="fill:#fefefe;fill-opacity:1;fill-rule:evenodd;stroke:none" transform="matrix(9.63534 0 0 -9.6356 1139.283 871.444)" clip-path="url(#t)"/><path d="M0 0h3.4l.8 2.4h6.3l.8-2.4h3.4L9.6 15.5H5.1L0 0m5.3 5.7L7.4 12l2-6.3H5.3" style="fill:#fefefe;fill-opacity:1;fill-rule:evenodd;stroke:none" transform="matrix(9.63534 0 0 -9.6356 1286.703 1037.176)" clip-path="url(#u)"/></svg>